<?xml version="1.0" encoding="UTF-8" standalone="no"?>
<!DOCTYPE svg PUBLIC "-//W3C//DTD SVG 1.1//EN" "http://www.w3.org/Graphics/SVG/1.1/DTD/svg11.dtd">
<svg width="100%" height="100%" viewBox="0 0 2550 3300" version="1.1" xmlns="http://www.w3.org/2000/svg" xmlns:xlink="http://www.w3.org/1999/xlink" xml:space="preserve" xmlns:serif="http://www.serif.com/" style="fill-rule:evenodd;clip-rule:evenodd;stroke-linejoin:round;stroke-miterlimit:2;">
   <style>
        #advanced path {
            fill: black;
        }
        @media (prefers-color-scheme: dark) {
            #advanced path { fill: white; }
        }
    </style>
    <g id="path40" transform="matrix(0,-5.55556,-5.55556,0,2860.12,2046.49)">
        <path d="M350.232,389.028L350.237,370.839L323.42,369.957L323.42,380.985L346.828,380.132L323.425,393.326L323.481,404.429L350.232,389.028" style="fill:rgb(55,54,151);fill-rule:nonzero;"/>
    </g>
    <g id="path46" transform="matrix(0,-5.55556,-5.55556,0,2193.22,2046.49)">
        <path d="M350.253,327.408L323.419,334.716L323.419,323.641L350.253,316.312L350.253,327.408" style="fill:rgb(55,54,151);fill-rule:nonzero;"/>
    </g>
    <g id="path48" transform="matrix(0,-5.55556,-5.55556,0,2193.22,2046.49)">
        <path d="M333.033,284.492C337.087,283.32 338.964,285.668 338.779,289.619C338.774,289.611 338.825,298.818 338.779,298.819C338.873,301.184 339.398,302.405 341.771,301.775L344.526,301.005C345.66,300.704 346.741,300.259 346.722,296.864L346.729,281.165L350.294,280.114C350.265,280.743 350.299,297.102 350.299,298.914C350.297,305.707 350.677,309.84 346.67,311.622L342.101,312.817C334.295,315.207 335.46,308.414 335.36,305.764C335.335,305.782 335.34,298.277 335.358,298.275C335.491,295.758 334.2,295.135 332.391,295.794L329.981,296.476C327.847,297.377 327.097,298.578 327.049,300.649C327.045,300.655 327.068,317.051 327.063,317.055L323.38,317.999C323.38,317.983 323.376,293.624 323.38,293.629C323.422,290.702 324.483,286.888 327.982,285.876L333.033,284.492" style="fill:rgb(55,54,151);fill-rule:nonzero;"/>
    </g>
    <g id="path461" serif:id="path46" transform="matrix(4.16667,0,0,4.16667,-889.979,-446.089)">
        <path d="M293.222,139.977L278.434,139.977L271.076,166.994L285.843,166.994L293.222,139.977ZM294.316,135.972L295.615,131.215L280.82,131.215L279.525,135.972L294.316,135.972Z" style="fill:rgb(55,54,151);fill-rule:nonzero;"/>
    </g>
    <g id="path42" transform="matrix(4.16667,0,0,4.16667,-889.979,-446.089)">
        <path d="M242.451,152.403L241.285,149.206L248.561,149.218C250.66,149.155 252.565,149.095 253.808,146.012L255.777,139.238C256.705,136.684 256.07,135.82 251.365,135.906L244.325,135.922L235.913,167.023L221.098,167.023L230.809,131.223L259.081,131.223C268.813,130.868 272.14,132.472 270.89,138.134L268.626,146.399C267.404,151.943 260.482,152.331 255.836,152.375L255.848,152.403L242.451,152.403Z" style="fill:rgb(55,54,151);fill-rule:nonzero;"/>
    </g>
    <g id="advanced" transform="matrix(2.82589,0,0,2.82589,217.521,-729.958)">
        <path d="M83.307,285.957C83.523,287.109 83.559,287.505 83.559,287.757C83.559,289.269 83.055,289.305 80.499,289.557C80.355,289.917 80.319,290.349 80.283,290.709C82.227,290.673 84.783,290.637 86.187,290.637C87.771,290.637 89.535,290.673 90.687,290.709C90.831,290.349 90.903,289.917 90.903,289.557C88.203,289.269 87.879,289.269 87.231,285.777L83.523,265.221C82.983,265.257 82.443,265.365 81.795,265.509C78.663,270.909 73.875,279.369 71.175,284.049C68.115,289.305 67.827,289.377 64.983,289.593C64.839,289.953 64.767,290.349 64.767,290.709C66.207,290.673 67.287,290.637 68.655,290.637C69.735,290.637 72.435,290.673 73.443,290.709C73.587,290.349 73.659,289.917 73.659,289.557C71.715,289.341 71.031,289.269 71.031,288.549C71.031,288.045 71.535,287.037 72.183,285.849L74.667,281.313L82.587,281.313L83.307,285.957ZM75.531,279.801L80.823,270.153L82.335,279.801L75.531,279.801Z" style="fill-rule:nonzero;"/>
        <path d="M101.487,286.461C101.235,287.505 101.091,288.189 101.091,288.837C101.091,290.241 101.739,291.141 103.467,291.141C105.771,291.141 107.643,289.521 109.263,287.361C109.011,287.073 108.759,286.857 108.435,286.641C107.427,287.901 106.023,288.873 105.195,288.873C104.691,288.873 104.547,288.549 104.547,288.081C104.547,287.649 104.691,287.001 104.763,286.677L108.111,270.333C108.651,267.705 109.119,265.653 109.623,263.853L109.155,263.601C107.355,264.321 104.763,264.645 102.171,264.825C102.099,265.149 102.135,265.473 102.207,265.797C104.511,265.833 105.195,265.941 105.195,266.841C105.195,267.201 105.087,267.777 104.943,268.461L103.791,274.077C102.819,273.609 101.739,273.393 100.767,273.393C95.763,273.393 90.471,279.117 90.471,285.381C90.471,289.305 92.523,291.069 94.827,291.069C96.663,291.069 99.039,289.953 101.307,286.461L101.487,286.461ZM102.207,281.709C101.379,285.381 98.751,288.801 96.375,288.801C95.115,288.801 94.323,287.865 94.323,285.129C94.323,280.917 96.231,275.013 99.831,275.013C100.659,275.013 101.847,275.337 103.251,276.561L102.207,281.709Z" style="fill-rule:nonzero;"/>
        <path d="M112.539,290.673C112.899,290.853 113.727,291.069 114.123,291.069C121.107,285.669 124.707,279.369 124.707,276.093C124.707,274.221 123.555,273.393 122.439,273.393C121.251,273.393 120.495,274.365 120.495,275.517C120.495,276.489 121.035,277.605 122.259,278.361C121.755,280.557 119.487,284.373 115.887,287.505C115.959,286.137 115.959,284.373 115.959,282.969C115.959,277.101 115.167,273.537 112.251,273.537C110.631,273.537 108.723,274.581 106.995,276.669C107.247,276.957 107.499,277.209 107.823,277.425C108.939,276.273 109.875,275.805 110.451,275.805C112.143,275.805 112.611,279.981 112.611,285.849C112.611,287.361 112.611,288.945 112.539,290.673Z" style="fill-rule:nonzero;"/>
        <path d="M128.415,291.069C130.539,291.069 132.591,289.629 134.391,286.533L134.571,286.533C134.319,287.361 134.175,288.117 134.175,288.765C134.175,290.133 134.895,291.105 136.659,291.105C138.999,291.105 140.835,289.485 142.455,287.325C142.203,287.037 141.951,286.821 141.627,286.605C140.619,287.865 139.215,288.837 138.387,288.837C137.883,288.837 137.739,288.513 137.739,288.081C137.739,287.613 137.919,287.001 137.991,286.677L139.647,279.549C140.079,277.677 140.475,275.949 141.051,273.933L140.943,273.789C139.827,274.005 138.711,274.149 137.703,274.257C136.479,273.609 135.255,273.393 134.355,273.393C129.639,273.393 124.059,278.865 124.059,285.381C124.059,289.377 126.147,291.069 128.415,291.069ZM136.767,276.525L136.047,279.549C134.463,286.245 131.691,288.801 129.855,288.801C128.811,288.801 127.911,287.973 127.911,285.093C127.911,280.881 129.891,275.013 133.491,275.013C134.643,275.013 135.759,275.625 136.767,276.525Z" style="fill-rule:nonzero;"/>
        <path d="M148.143,283.833C149.511,278.109 152.715,275.481 154.803,275.481C155.883,275.481 156.279,276.201 156.279,277.137C156.279,279.297 153.651,286.353 153.651,288.765C153.651,290.097 154.443,291.105 156.207,291.105C158.511,291.105 160.383,289.485 162.003,287.325C161.751,287.037 161.499,286.821 161.175,286.605C160.167,287.865 158.763,288.837 157.935,288.837C157.431,288.837 157.287,288.477 157.287,288.153C157.287,286.677 159.951,279.225 159.951,276.669C159.951,274.833 158.691,273.393 156.387,273.393C154.083,273.393 151.419,274.869 149.583,277.785L149.475,277.785C149.655,276.921 149.835,276.093 149.835,275.517C149.835,274.437 149.223,273.465 147.603,273.465C145.803,273.465 143.679,274.581 141.771,276.849C142.023,277.137 142.275,277.389 142.599,277.605C143.643,276.489 144.831,275.661 145.515,275.661C145.911,275.661 146.163,275.913 146.163,276.525C146.163,276.813 146.091,277.137 145.911,277.893L142.959,290.673L146.559,290.673L148.143,283.833Z" style="fill-rule:nonzero;"/>
        <path d="M167.871,291.105C171.435,291.105 173.631,288.801 175.035,286.317C174.855,286.065 174.531,285.813 174.171,285.633C172.875,287.469 171.075,288.657 169.023,288.657C166.503,288.657 165.783,286.857 165.783,284.805C165.783,280.809 168.411,275.049 171.975,274.905C172.227,277.029 173.559,277.749 174.603,277.749C175.683,277.749 176.439,276.993 176.439,275.985C176.439,274.509 174.783,273.429 172.515,273.429C167.583,273.429 161.967,278.469 161.967,284.733C161.967,288.621 164.163,291.105 167.871,291.105Z" style="fill-rule:nonzero;"/>
        <path d="M179.607,282.753C184.827,282.177 190.155,280.089 190.155,276.345C190.155,274.545 188.931,273.393 186.231,273.393C180.039,273.393 175.575,279.441 175.575,284.805C175.575,288.657 177.879,291.105 181.695,291.105C184.935,291.105 187.239,289.269 188.895,286.461C188.715,286.209 188.391,285.957 188.067,285.777C186.663,287.541 184.791,288.765 182.739,288.765C180.399,288.765 179.391,287.253 179.391,284.841C179.391,284.193 179.463,283.473 179.607,282.753ZM179.895,281.493C180.831,278.145 182.955,274.905 185.223,274.905C186.267,274.905 186.735,275.625 186.735,276.669C186.735,279.513 183.279,281.025 179.895,281.493Z" style="fill-rule:nonzero;"/>
        <path d="M200.559,286.461C200.307,287.505 200.163,288.189 200.163,288.837C200.163,290.241 200.811,291.141 202.539,291.141C204.843,291.141 206.715,289.521 208.335,287.361C208.083,287.073 207.831,286.857 207.507,286.641C206.499,287.901 205.095,288.873 204.267,288.873C203.763,288.873 203.619,288.549 203.619,288.081C203.619,287.649 203.763,287.001 203.835,286.677L207.183,270.333C207.723,267.705 208.191,265.653 208.695,263.853L208.227,263.601C206.427,264.321 203.835,264.645 201.243,264.825C201.171,265.149 201.207,265.473 201.279,265.797C203.583,265.833 204.267,265.941 204.267,266.841C204.267,267.201 204.159,267.777 204.015,268.461L202.863,274.077C201.891,273.609 200.811,273.393 199.839,273.393C194.835,273.393 189.543,279.117 189.543,285.381C189.543,289.305 191.595,291.069 193.899,291.069C195.735,291.069 198.111,289.953 200.379,286.461L200.559,286.461ZM201.279,281.709C200.451,285.381 197.823,288.801 195.447,288.801C194.187,288.801 193.395,287.865 193.395,285.129C193.395,280.917 195.303,275.013 198.903,275.013C199.731,275.013 200.919,275.337 202.323,276.561L201.279,281.709Z" style="fill-rule:nonzero;"/>
    </g>
</svg>
