M48
; DRILL file {KiCad (6.0.5-0)} date Tuesday, July 12, 2022 at 09:34:30 PM
; FORMAT={-:-/ absolute / inch / decimal}
; #@! TF.CreationDate,2022-07-12T21:34:30-06:00
; #@! TF.GenerationSoftware,Kicad,Pcbnew,(6.0.5-0)
; #@! TF.FileFunction,Plated,1,4,PTH
FMAT,2
INCH
; #@! TA.AperFunction,Plated,PTH,ViaDrill
T1C0.0100
; #@! TA.AperFunction,Plated,PTH,ViaDrill
T2C0.0157
; #@! TA.AperFunction,Plated,PTH,ComponentDrill
T3C0.0256
; #@! TA.AperFunction,Plated,PTH,ComponentDrill
T4C0.0276
; #@! TA.AperFunction,Plated,PTH,ComponentDrill
T5C0.0300
; #@! TA.AperFunction,Plated,PTH,ComponentDrill
T6C0.0315
; #@! TA.AperFunction,Plated,PTH,ComponentDrill
T7C0.0394
; #@! TA.AperFunction,Plated,PTH,ComponentDrill
T8C0.0402
; #@! TA.AperFunction,Plated,PTH,ComponentDrill
T9C0.1260
%
G90
G05
T1
X4.4125Y-3.5375
X4.4125Y-4.2375
X4.4159Y-4.5375
X4.5375Y-3.6875
X4.5375Y-3.825
X4.5375Y-4.375
X4.5625Y-4.125
X4.5625Y-4.4625
X4.5875Y-3.4875
X4.5875Y-4.5625
X4.6125Y-3.2375
X4.6125Y-4.6625
X4.6375Y-2.725
X4.6375Y-3.3875
X4.6375Y-3.5875
X4.6375Y-3.6375
X4.6375Y-4.225
X4.65Y-4.325
X4.65Y-4.7375
X4.6625Y-3.225
X4.6625Y-3.4375
X4.6625Y-4.1
X4.6732Y-3.5079
X4.675Y-3.3125
X4.675Y-4.1875
X4.675Y-4.6125
X4.6759Y-3.1752
X4.6811Y-2.5669
X4.6875Y-3.9375
X4.7Y-4.0375
X4.7Y-4.7375
X4.725Y-3.6125
X4.725Y-4.2
X4.7362Y-3.4409
X4.7375Y-4.5375
X4.741Y-3.9204
X4.75Y-3.4173
X4.75Y-3.8625
X4.75Y-3.89
X4.75Y-3.975
X4.75Y-4.15
X4.75Y-4.375
X4.75Y-4.5
X4.7625Y-3.575
X4.775Y-3.9875
X4.775Y-4.25
X4.775Y-4.6625
X4.7756Y-3.55
X4.7795Y-2.9409
X4.8Y-3.25
X4.8Y-4.0774
X4.8Y-4.2765
X4.8Y-4.7597
X4.8125Y-4.4375
X4.8141Y-4.65
X4.8189Y-3.8661
X4.825Y-3.9625
X4.825Y-4.5375
X4.8268Y-2.8583
X4.8284Y-3.7659
X4.8338Y-3.0669
X4.8375Y-4.1
X4.85Y-3.425
X4.85Y-3.8875
X4.85Y-4.2
X4.85Y-4.2625
X4.8661Y-2.8346
X4.875Y-3.7625
X4.875Y-4.6625
X4.8875Y-4.0875
X4.8875Y-4.6125
X4.9Y-3.25
X4.9Y-3.6
X4.9Y-4.325
X4.9Y-4.5625
X4.9121Y-4.2
X4.9142Y-4.275
X4.9375Y-3.5625
X4.9375Y-3.9625
X4.95Y-3.2375
X4.9528Y-2.815
X4.9685Y-3.7717
X4.9748Y-4.3752
X4.9748Y-4.7127
X4.975Y-3.65
X4.975Y-3.9875
X4.975Y-4.125
X4.975Y-4.1875
X4.975Y-4.4875
X4.9921Y-2.5669
X5.0Y-4.4375
X5.025Y-3.375
X5.025Y-3.7
X5.025Y-3.775
X5.025Y-4.075
X5.0354Y-3.4764
X5.0394Y-2.8031
X5.0787Y-2.7835
X5.1Y-4.0375
X5.1Y-4.375
X5.1Y-4.7125
X5.1063Y-2.9952
X5.1102Y-3.7953
X5.1125Y-3.1125
X5.125Y-4.1875
X5.1299Y-2.5669
X5.1375Y-4.0625
X5.1625Y-3.175
X5.1633Y-3.375
X5.1633Y-3.7
X5.175Y-4.4375
X5.175Y-4.7774
X5.185Y-3.5039
X5.1875Y-3.8875
X5.2Y-3.2375
X5.2Y-4.4625
X5.225Y-4.4
X5.2362Y-3.5236
X5.2362Y-3.811
X5.2375Y-3.9173
X5.2375Y-4.7875
X5.2402Y-3.4488
X5.2992Y-3.6378
X5.2992Y-3.7953
X5.311Y-3.1654
X5.311Y-3.3071
X5.3189Y-3.4055
X5.325Y-4.2375
X5.3346Y-3.0945
X5.3346Y-3.2362
X5.3346Y-3.378
X5.3375Y-4.125
X5.3425Y-3.4291
X5.3543Y-3.3071
X5.3583Y-3.1654
X5.3622Y-3.4488
X5.3622Y-3.6378
X5.3661Y-3.8053
X5.437Y-2.9882
X5.4375Y-4.025
X5.45Y-4.1
X5.4843Y-3.0118
X5.525Y-3.575
X5.525Y-3.8875
X5.5375Y-3.9875
X5.5669Y-4.3228
X5.5866Y-4.2913
X5.5875Y-3.65
X5.6102Y-3.9685
X5.6125Y-3.7375
X5.6772Y-3.4449
X5.6772Y-3.7717
X5.6772Y-3.9921
X5.725Y-3.7
X5.725Y-3.9625
X6.122Y-4.7205
X6.1875Y-4.65
X6.1875Y-4.708
X6.2875Y-4.6785
X6.3Y-3.2625
X6.3375Y-3.2875
X6.3625Y-3.5
X6.378Y-3.4331
X6.3858Y-3.6772
X6.4Y-2.4625
X6.4Y-4.2
X6.4027Y-3.5777
X6.4257Y-3.0625
X6.4334Y-3.1375
X6.4409Y-2.8937
X6.4488Y-3.5276
X6.45Y-4.6
X6.4567Y-4.0236
X6.4685Y-2.9173
X6.475Y-4.575
X6.4961Y-3.4803
X6.5236Y-3.5787
X6.5315Y-3.4567
X6.5375Y-4.625
X6.5433Y-2.8071
X6.5433Y-2.8504
X6.5433Y-2.9213
X6.5472Y-3.4055
X6.5669Y-3.5276
X6.5748Y-3.2835
X6.5748Y-3.3465
X6.5748Y-3.3976
X6.5748Y-3.6772
X6.5748Y-3.7559
X6.5748Y-3.8031
X6.5748Y-3.8375
X6.5748Y-4.3307
X6.5748Y-3.0945
X6.5772Y-3.185
X6.5772Y-3.2087
X6.6378Y-3.6142
X6.6378Y-3.6614
X6.6378Y-3.6929
X6.6417Y-3.4586
X6.6457Y-3.5039
X6.6457Y-4.1024
X6.6614Y-3.5276
X6.6693Y-3.9134
X6.6753Y-3.9625
X6.685Y-3.8625
X6.7047Y-2.9173
X6.7598Y-3.2992
X6.7598Y-3.3465
X6.7598Y-3.3937
X6.7598Y-3.4409
X6.7598Y-3.7559
X6.7598Y-3.8031
X6.7598Y-3.1732
X6.7598Y-3.1929
X6.7598Y-3.2126
X6.7598Y-3.2323
X6.7598Y-3.252
X6.7598Y-3.8375
X6.7625Y-4.65
X6.7677Y-3.6102
X6.7717Y-3.6772
X6.7835Y-3.5551
X6.8031Y-3.4961
X6.811Y-3.6496
X6.8125Y-3.9375
X6.8189Y-3.5709
X6.8346Y-3.6299
X6.8425Y-4.2992
X6.8465Y-3.5197
X6.8504Y-3.4882
X6.8625Y-4.2598
X6.8898Y-3.4764
X6.8898Y-4.2362
X6.8987Y-4.4796
X6.9134Y-3.6024
X6.9173Y-2.8425
X6.9173Y-3.126
X6.95Y-3.225
X6.9567Y-3.5709
X6.9606Y-3.0787
X7.189Y-2.9291
X7.248Y-3.0512
X7.2625Y-4.15
X7.2663Y-4.5663
X7.2875Y-4.05
X7.3625Y-4.6625
X7.5375Y-4.5375
X7.6375Y-4.5375
X7.675Y-3.2625
X7.6969Y-2.7441
X7.7Y-3.6504
X7.7375Y-2.8
X8.0125Y-2.5375
X8.0625Y-2.875
X8.1375Y-2.875
X8.248Y-3.0236
X8.2481Y-2.9881
X8.25Y-2.85
X8.311Y-2.7126
X8.3505Y-3.0056
X8.3701Y-3.0591
T2
X4.475Y-4.7625
X4.5125Y-4.7625
X4.5375Y-4.625
X4.575Y-4.625
X4.85Y-5.0375
X4.925Y-5.0375
X7.45Y-5.0375
X7.5248Y-5.0377
T5
X8.0114Y-3.497
X8.0114Y-3.597
X8.0114Y-3.697
X8.0114Y-3.797
X8.0114Y-3.897
X8.0114Y-3.997
X8.0114Y-4.097
X8.0114Y-4.197
X8.0114Y-4.297
X8.0421Y-4.5505
X8.1421Y-4.5505
X8.2421Y-4.5505
X8.3421Y-4.5505
X8.4421Y-4.5505
X8.5421Y-4.5505
T6
X7.8875Y-4.85
X7.8875Y-4.9287
X8.063Y-3.1772
X8.063Y-3.2559
T7
X4.3641Y-2.7878
X4.3641Y-2.8878
X4.3641Y-2.9878
X4.3641Y-3.0878
X4.3641Y-3.1878
X4.3641Y-3.2878
X4.3641Y-3.3878
X4.3641Y-3.4878
X4.3641Y-3.5878
X4.3641Y-3.6878
X4.3641Y-3.7878
X4.3641Y-3.8878
X4.3641Y-3.9878
X4.3641Y-4.0878
X4.3641Y-4.1878
X4.3641Y-4.2878
X4.3641Y-4.3878
X4.3641Y-4.4878
X4.3641Y-4.5878
X4.3641Y-4.6878
X4.4641Y-2.7878
X4.4641Y-2.8878
X4.4641Y-2.9878
X4.4641Y-3.0878
X4.4641Y-3.1878
X4.4641Y-3.2878
X4.4641Y-3.3878
X4.4641Y-3.4878
X4.4641Y-3.5878
X4.4641Y-3.6878
X4.4641Y-3.7878
X4.4641Y-3.8878
X4.4641Y-3.9878
X4.4641Y-4.0878
X4.4641Y-4.1878
X4.4641Y-4.2878
X4.4641Y-4.3878
X4.4641Y-4.4878
X4.4641Y-4.5878
X4.4641Y-4.6878
X4.6875Y-4.8623
X4.6875Y-4.9623
X4.7875Y-4.8623
X4.7875Y-4.9623
X4.8875Y-4.8623
X4.8875Y-4.9623
X4.9875Y-4.8623
X4.9875Y-4.9623
X5.0875Y-4.8623
X5.0875Y-4.9623
X5.1875Y-4.8623
X5.1875Y-4.9623
X5.2875Y-4.8623
X5.2875Y-4.9623
X5.3875Y-4.8623
X5.3875Y-4.9623
X5.4875Y-4.8623
X5.4875Y-4.9623
X5.5875Y-4.8623
X5.5875Y-4.9623
X5.6875Y-4.8623
X5.6875Y-4.9623
X5.7875Y-4.8623
X5.7875Y-4.9623
X5.8875Y-4.8623
X5.8875Y-4.9623
X5.9875Y-4.8623
X5.9875Y-4.9623
X6.0875Y-4.8623
X6.0875Y-4.9623
X6.1875Y-4.8623
X6.1875Y-4.9623
X6.2875Y-4.8623
X6.2875Y-4.9623
X6.3875Y-4.8623
X6.3875Y-4.9623
X6.4875Y-4.8623
X6.4875Y-4.9623
X6.5875Y-4.8623
X6.5875Y-4.9623
X6.6875Y-4.8623
X6.6875Y-4.9623
X6.7875Y-4.8623
X6.7875Y-4.9623
X6.878Y-2.5482
X6.878Y-2.6482
X6.8875Y-4.8623
X6.8875Y-4.9623
X6.9125Y-4.6125
X6.9125Y-4.7125
X6.9875Y-4.8623
X6.9875Y-4.9623
X7.0125Y-4.6125
X7.0125Y-4.7125
X7.0875Y-4.8623
X7.0875Y-4.9623
X7.1125Y-4.6125
X7.1125Y-4.7125
X7.1875Y-4.8623
X7.1875Y-4.9623
X7.2125Y-4.6125
X7.2125Y-4.7125
X7.2875Y-4.8623
X7.2875Y-4.9623
X7.3125Y-4.6125
X7.3125Y-4.7125
X7.3875Y-4.8623
X7.3875Y-4.9623
X7.4125Y-4.6125
X7.4125Y-4.7125
X7.4875Y-4.8623
X7.4875Y-4.9623
X7.5875Y-4.8623
X7.5875Y-4.9623
X7.6875Y-4.8623
X7.6875Y-4.9623
T8
X7.1Y-2.5
X7.1Y-2.6
X7.1Y-2.7
X7.1Y-2.8
X7.1Y-2.9
X7.1Y-3.0
X7.1Y-3.1
X7.1Y-3.2
X7.1Y-3.3
X7.1Y-3.4
X7.1Y-3.5
X7.1Y-3.6
X7.1Y-3.7
X7.1Y-3.8
X7.1Y-3.9
X7.1Y-4.0
X7.1Y-4.1
X7.1Y-4.2
X7.1Y-4.3
X7.1Y-4.4
X7.35Y-4.3909
X7.45Y-4.3909
X7.55Y-4.3909
X7.8Y-2.5
X7.8Y-2.6
X7.8Y-2.7
X7.8Y-2.8
X7.8Y-2.9
X7.8Y-3.0
X7.8Y-3.1
X7.8Y-3.2
X7.8Y-3.3
X7.8Y-3.4
X7.8Y-3.5
X7.8Y-3.6
X7.8Y-3.7
X7.8Y-3.8
X7.8Y-3.9
X7.8Y-4.0
X7.8Y-4.1
X7.8Y-4.2
X7.8Y-4.3
X7.8Y-4.4
T9
X8.4905Y-2.6572
X8.4905Y-4.8822
T3
G00X8.432Y-2.8983
M15
G01X8.4162Y-2.8983
M16
G05
G00X8.432Y-3.0892
M15
G01X8.4162Y-3.0892
M16
G05
T4
G00X8.5532Y-2.8865
M15
G01X8.5335Y-2.8865
M16
G05
G00X8.5532Y-3.101
M15
G01X8.5335Y-3.101
M16
G05
T0
M30
