G04 #@! TF.GenerationSoftware,KiCad,Pcbnew,(6.0.5-0)*
G04 #@! TF.CreationDate,2022-06-11T14:47:18-06:00*
G04 #@! TF.ProjectId,PiGUS,50694755-532e-46b6-9963-61645f706362,rev?*
G04 #@! TF.SameCoordinates,Original*
G04 #@! TF.FileFunction,Copper,L4,Bot*
G04 #@! TF.FilePolarity,Positive*
%FSLAX46Y46*%
G04 Gerber Fmt 4.6, Leading zero omitted, Abs format (unit mm)*
G04 Created by KiCad (PCBNEW (6.0.5-0)) date 2022-06-11 14:47:18*
%MOMM*%
%LPD*%
G01*
G04 APERTURE LIST*
G04 #@! TA.AperFunction,ConnectorPad*
%ADD10R,1.524000X6.858000*%
G04 #@! TD*
G04 #@! TA.AperFunction,ComponentPad*
%ADD11R,1.700000X1.700000*%
G04 #@! TD*
G04 #@! TA.AperFunction,ComponentPad*
%ADD12O,1.700000X1.700000*%
G04 #@! TD*
G04 #@! TA.AperFunction,ViaPad*
%ADD13C,0.800000*%
G04 #@! TD*
G04 #@! TA.AperFunction,Conductor*
%ADD14C,0.250000*%
G04 #@! TD*
G04 #@! TA.AperFunction,Conductor*
%ADD15C,1.000000*%
G04 #@! TD*
G04 #@! TA.AperFunction,Conductor*
%ADD16C,0.500000*%
G04 #@! TD*
G04 #@! TA.AperFunction,Conductor*
%ADD17C,0.440000*%
G04 #@! TD*
G04 #@! TA.AperFunction,Conductor*
%ADD18C,0.300000*%
G04 #@! TD*
G04 APERTURE END LIST*
D10*
X168275000Y-90170000D03*
X165735000Y-90170000D03*
X163195000Y-90170000D03*
X160655000Y-90170000D03*
X158115000Y-90170000D03*
X155575000Y-90170000D03*
X153035000Y-90170000D03*
X150495000Y-90170000D03*
X147955000Y-90170000D03*
X145415000Y-90170000D03*
X142875000Y-90170000D03*
X140335000Y-90170000D03*
X137795000Y-90170000D03*
X135255000Y-90170000D03*
X132715000Y-90170000D03*
X130175000Y-90170000D03*
X127635000Y-90170000D03*
X125095000Y-90170000D03*
X122555000Y-90170000D03*
X120015000Y-90170000D03*
X117475000Y-90170000D03*
X114935000Y-90170000D03*
X112395000Y-90170000D03*
X109855000Y-90170000D03*
X107315000Y-90170000D03*
X104775000Y-90170000D03*
X102235000Y-90170000D03*
X99695000Y-90170000D03*
X97155000Y-90170000D03*
X94615000Y-90170000D03*
X92075000Y-90170000D03*
D11*
X140330000Y-59050000D03*
D12*
X140330000Y-56510000D03*
X137790000Y-59050000D03*
X137790000Y-56510000D03*
X135250000Y-59050000D03*
X135250000Y-56510000D03*
X132710000Y-59050000D03*
X132710000Y-56510000D03*
X130170000Y-59050000D03*
X130170000Y-56510000D03*
X127630000Y-59050000D03*
X127630000Y-56510000D03*
X125090000Y-59050000D03*
X125090000Y-56510000D03*
X122550000Y-59050000D03*
X122550000Y-56510000D03*
X120010000Y-59050000D03*
X120010000Y-56510000D03*
X117470000Y-59050000D03*
X117470000Y-56510000D03*
X114930000Y-59050000D03*
X114930000Y-56510000D03*
X112390000Y-59050000D03*
X112390000Y-56510000D03*
X109850000Y-59050000D03*
X109850000Y-56510000D03*
X107310000Y-59050000D03*
X107310000Y-56510000D03*
X104770000Y-59050000D03*
X104770000Y-56510000D03*
X102230000Y-59050000D03*
X102230000Y-56510000D03*
X99690000Y-59050000D03*
X99690000Y-56510000D03*
X97150000Y-59050000D03*
X97150000Y-56510000D03*
X94610000Y-59050000D03*
X94610000Y-56510000D03*
X92070000Y-59050000D03*
X92070000Y-56510000D03*
X114935000Y-77475000D03*
X114935000Y-74935000D03*
X117475000Y-77475000D03*
X117475000Y-74935000D03*
X120015000Y-77475000D03*
X120015000Y-74935000D03*
X122555000Y-77475000D03*
X122555000Y-74935000D03*
X125095000Y-77475000D03*
X125095000Y-74935000D03*
X127635000Y-77475000D03*
X127635000Y-74935000D03*
D11*
X168275000Y-81275000D03*
D12*
X165735000Y-81275000D03*
X163195000Y-81275000D03*
X160655000Y-81275000D03*
X158115000Y-81275000D03*
X155575000Y-81275000D03*
X153035000Y-81275000D03*
X150495000Y-81275000D03*
X147955000Y-81275000D03*
X145415000Y-81275000D03*
X142875000Y-81275000D03*
X140335000Y-81275000D03*
X137795000Y-81275000D03*
X135255000Y-81275000D03*
X132715000Y-81275000D03*
X130175000Y-81275000D03*
X127635000Y-81275000D03*
X125095000Y-81275000D03*
X122555000Y-81275000D03*
X120015000Y-81275000D03*
X117475000Y-81275000D03*
X114935000Y-81275000D03*
X112395000Y-81275000D03*
X109855000Y-81275000D03*
X107315000Y-81275000D03*
X104775000Y-81275000D03*
X102235000Y-81275000D03*
X99695000Y-81275000D03*
X97155000Y-81275000D03*
X94615000Y-81275000D03*
X92075000Y-81275000D03*
X168275000Y-83815000D03*
X165735000Y-83815000D03*
X163195000Y-83815000D03*
X160655000Y-83815000D03*
X158115000Y-83815000D03*
X155575000Y-83815000D03*
X153035000Y-83815000D03*
X150495000Y-83815000D03*
X147955000Y-83815000D03*
X145415000Y-83815000D03*
X142875000Y-83815000D03*
X140335000Y-83815000D03*
X137795000Y-83815000D03*
X135255000Y-83815000D03*
X132715000Y-83815000D03*
X130175000Y-83815000D03*
X127635000Y-83815000D03*
X125095000Y-83815000D03*
X122555000Y-83815000D03*
X120015000Y-83815000D03*
X117475000Y-83815000D03*
X114935000Y-83815000D03*
X112395000Y-83815000D03*
X109855000Y-83815000D03*
X107315000Y-83815000D03*
X104775000Y-83815000D03*
X102235000Y-83815000D03*
X99695000Y-83815000D03*
X97155000Y-83815000D03*
X94615000Y-83815000D03*
X92075000Y-83815000D03*
D13*
X106045000Y-78740000D03*
X106134500Y-75565000D03*
X104685500Y-74295000D03*
X106769500Y-74295000D03*
X139065000Y-62230000D03*
X103505000Y-73025000D03*
X118110000Y-72479500D03*
X121285000Y-67945000D03*
X105410000Y-69215000D03*
X144145000Y-59967500D03*
X147955000Y-69850000D03*
X93980000Y-67945000D03*
X145415000Y-72390000D03*
X108585000Y-67945000D03*
X147955000Y-64770000D03*
X95885000Y-85725000D03*
X161925000Y-85730000D03*
X121285000Y-66040000D03*
X106680000Y-67310000D03*
X102235000Y-64135000D03*
X96609500Y-64135000D03*
X96520000Y-62230000D03*
X104685500Y-63270989D03*
X99605500Y-69215000D03*
X133138051Y-54520500D03*
X135890000Y-66675000D03*
X109855000Y-53340000D03*
X141605000Y-67945000D03*
X137795000Y-68580000D03*
X112395000Y-53340000D03*
X112395000Y-62865000D03*
X120015000Y-64770000D03*
X124460000Y-63500000D03*
X114935000Y-62865000D03*
X134620000Y-62230000D03*
X134620000Y-69850000D03*
X99060000Y-70485000D03*
X106680000Y-62319500D03*
X100419500Y-62230000D03*
X99695000Y-60960000D03*
X113665000Y-66040000D03*
X93980000Y-66040000D03*
X116205000Y-72479500D03*
X95885000Y-71755000D03*
X138430000Y-71755000D03*
X143510000Y-55522500D03*
X110490000Y-71755000D03*
X108568817Y-68944371D03*
X122555000Y-62319500D03*
X115765517Y-64574483D03*
X109148245Y-69778245D03*
X116840000Y-64770000D03*
X109855000Y-70485000D03*
D14*
X106045000Y-78740000D02*
X106045000Y-75654500D01*
X106045000Y-75654500D02*
X106134500Y-75565000D01*
X104685500Y-74295000D02*
X106769500Y-74295000D01*
D15*
X90525489Y-85445489D02*
X92075000Y-86995000D01*
X169824511Y-82824511D02*
X169824511Y-84810489D01*
X145415000Y-86360000D02*
X145415000Y-90170000D01*
X168275000Y-81275000D02*
X169824511Y-82824511D01*
X92075000Y-81275000D02*
X90525489Y-82824511D01*
X90525489Y-82824511D02*
X90525489Y-85445489D01*
X168275000Y-86360000D02*
X168275000Y-90170000D01*
X92075000Y-86995000D02*
X92075000Y-90170000D01*
X142875000Y-83815000D02*
X145415000Y-81275000D01*
X145415000Y-86360000D02*
X145415000Y-86355000D01*
X145415000Y-86355000D02*
X142875000Y-83815000D01*
X169824511Y-84810489D02*
X168275000Y-86360000D01*
D16*
X163195000Y-81280000D02*
X161925000Y-82550000D01*
D15*
X97155000Y-85725000D02*
X97155000Y-90170000D01*
D16*
X97155000Y-81275000D02*
X95885000Y-82545000D01*
D15*
X161925000Y-85730000D02*
X163195000Y-85730000D01*
D17*
X161925000Y-82550000D02*
X161925000Y-85730000D01*
D15*
X95885000Y-85725000D02*
X97155000Y-85725000D01*
X163195000Y-85730000D02*
X163195000Y-90175000D01*
D17*
X95885000Y-82545000D02*
X95885000Y-85725000D01*
D18*
X135255000Y-85725000D02*
X135255000Y-90170000D01*
X133985000Y-82545000D02*
X133985000Y-84455000D01*
X133985000Y-84455000D02*
X135255000Y-85725000D01*
X135255000Y-81275000D02*
X133985000Y-82545000D01*
X136525000Y-82545000D02*
X136525000Y-84455000D01*
X137795000Y-85725000D02*
X137795000Y-90170000D01*
X137795000Y-81275000D02*
X136525000Y-82545000D01*
X136525000Y-84455000D02*
X137795000Y-85725000D01*
X96609500Y-64135000D02*
X102235000Y-64135000D01*
D14*
X104685500Y-63270989D02*
X97560989Y-63270989D01*
X97560989Y-63270989D02*
X96520000Y-62230000D01*
X97150000Y-59050000D02*
X95245000Y-60955000D01*
X95250000Y-64859500D02*
X95250000Y-63500000D01*
X95250000Y-64859500D02*
X99605500Y-69215000D01*
X95245000Y-60955000D02*
X95245000Y-63495000D01*
X133985000Y-59690000D02*
X135890000Y-61595000D01*
X133138051Y-54520500D02*
X133985000Y-55367449D01*
X133985000Y-55367449D02*
X133985000Y-59690000D01*
X135890000Y-61595000D02*
X135890000Y-66675000D01*
X139065000Y-55880000D02*
X139065000Y-60134022D01*
X109855000Y-53340000D02*
X110579511Y-52615489D01*
X135800489Y-52615489D02*
X139065000Y-55880000D01*
X141605000Y-62674022D02*
X141605000Y-67945000D01*
X139065000Y-60134022D02*
X141605000Y-62674022D01*
X110579511Y-52615489D02*
X135800489Y-52615489D01*
X112395000Y-53340000D02*
X133741010Y-53340000D01*
X133741010Y-53340000D02*
X136525000Y-56123990D01*
X136525000Y-66285386D02*
X136614511Y-66374897D01*
X136525000Y-67310000D02*
X137795000Y-68580000D01*
X136614511Y-66374897D02*
X136614511Y-66975103D01*
X136525000Y-56123990D02*
X136525000Y-66285386D01*
X136525000Y-67064614D02*
X136525000Y-67310000D01*
X136614511Y-66975103D02*
X136525000Y-67064614D01*
X112395000Y-62865000D02*
X113119511Y-63589511D01*
X118834511Y-63589511D02*
X120015000Y-64770000D01*
X113119511Y-63589511D02*
X118834511Y-63589511D01*
X114935000Y-62865000D02*
X121285000Y-62865000D01*
X121285000Y-62865000D02*
X121920000Y-63500000D01*
X121920000Y-63500000D02*
X124460000Y-63500000D01*
X134620000Y-62230000D02*
X134620000Y-69850000D01*
X107014886Y-60960000D02*
X105410000Y-62564886D01*
X105410000Y-64770000D02*
X99695000Y-70485000D01*
X124841010Y-60960000D02*
X107014886Y-60960000D01*
X126365000Y-59436010D02*
X124841010Y-60960000D01*
X99695000Y-70485000D02*
X99060000Y-70485000D01*
X126365000Y-57775000D02*
X126365000Y-59436010D01*
X127630000Y-56510000D02*
X126365000Y-57775000D01*
X105410000Y-62564886D02*
X105410000Y-64770000D01*
X125085000Y-61595000D02*
X127630000Y-59050000D01*
X106680000Y-62319500D02*
X107404500Y-61595000D01*
X107404500Y-61595000D02*
X125085000Y-61595000D01*
X100419500Y-62230000D02*
X100965000Y-61684500D01*
X103505000Y-55880000D02*
X104325480Y-55059520D01*
X101600000Y-57785000D02*
X102870000Y-57785000D01*
X128719520Y-55059520D02*
X130170000Y-56510000D01*
X100965000Y-58420000D02*
X101600000Y-57785000D01*
X102870000Y-57785000D02*
X103505000Y-57150000D01*
X100965000Y-61684500D02*
X100965000Y-58420000D01*
X104325480Y-55059520D02*
X128719520Y-55059520D01*
X103505000Y-57150000D02*
X103505000Y-55880000D01*
X99060000Y-54610000D02*
X130810000Y-54610000D01*
X98425000Y-55245000D02*
X99060000Y-54610000D01*
X98425000Y-59690000D02*
X98425000Y-55245000D01*
X130810000Y-54610000D02*
X132710000Y-56510000D01*
X99695000Y-60960000D02*
X98425000Y-59690000D01*
D18*
X114210500Y-72479500D02*
X106680000Y-80010000D01*
X100965000Y-82545000D02*
X100965000Y-84455000D01*
X103500000Y-80010000D02*
X102235000Y-81275000D01*
X102235000Y-81275000D02*
X100965000Y-82545000D01*
X102235000Y-85725000D02*
X102235000Y-90170000D01*
X106680000Y-80010000D02*
X103500000Y-80010000D01*
X116205000Y-72479500D02*
X114210500Y-72479500D01*
X100965000Y-84455000D02*
X102235000Y-85725000D01*
X112395000Y-81275000D02*
X111125000Y-82545000D01*
X111125000Y-84455000D02*
X112395000Y-85725000D01*
X111125000Y-82545000D02*
X111125000Y-84455000D01*
X112395000Y-80015000D02*
X114935000Y-77475000D01*
X112395000Y-85725000D02*
X112395000Y-90170000D01*
X112395000Y-81275000D02*
X112395000Y-80015000D01*
X116205000Y-84455000D02*
X117475000Y-85725000D01*
X117475000Y-81275000D02*
X116205000Y-82545000D01*
X116205000Y-82545000D02*
X116205000Y-84455000D01*
X117475000Y-85725000D02*
X117475000Y-90170000D01*
X117475000Y-81275000D02*
X117475000Y-77475000D01*
X125095000Y-85725000D02*
X125095000Y-90170000D01*
X121285000Y-79375000D02*
X120015000Y-78105000D01*
X123825000Y-84455000D02*
X125095000Y-85725000D01*
X123195000Y-79375000D02*
X121285000Y-79375000D01*
X125095000Y-81275000D02*
X123825000Y-82545000D01*
X123825000Y-82545000D02*
X123825000Y-84455000D01*
X125095000Y-81275000D02*
X123195000Y-79375000D01*
X127635000Y-81275000D02*
X126365000Y-82545000D01*
X127635000Y-85725000D02*
X127635000Y-90170000D01*
X127635000Y-81275000D02*
X125735000Y-79375000D01*
X126365000Y-82545000D02*
X126365000Y-84455000D01*
X124455000Y-79375000D02*
X122555000Y-77475000D01*
X126365000Y-84455000D02*
X127635000Y-85725000D01*
X125735000Y-79375000D02*
X124455000Y-79375000D01*
X126995000Y-79375000D02*
X125095000Y-77475000D01*
X130175000Y-81275000D02*
X128275000Y-79375000D01*
X128275000Y-79375000D02*
X126995000Y-79375000D01*
X130175000Y-81275000D02*
X128905000Y-82545000D01*
X130175000Y-85725000D02*
X130175000Y-90170000D01*
X128905000Y-84455000D02*
X130175000Y-85725000D01*
X128905000Y-82545000D02*
X128905000Y-84455000D01*
X132715000Y-81275000D02*
X131445000Y-82545000D01*
X131445000Y-82545000D02*
X131445000Y-84455000D01*
X128915000Y-77475000D02*
X127635000Y-77475000D01*
X131445000Y-84455000D02*
X132715000Y-85725000D01*
X132715000Y-85725000D02*
X132715000Y-90170000D01*
X132715000Y-81275000D02*
X128915000Y-77475000D01*
X165735000Y-81275000D02*
X164465000Y-82545000D01*
X164465000Y-84455000D02*
X165735000Y-85725000D01*
X164465000Y-82545000D02*
X164465000Y-84455000D01*
X165735000Y-85725000D02*
X165735000Y-90170000D01*
X160655000Y-85725000D02*
X160655000Y-90170000D01*
X159385000Y-84455000D02*
X160655000Y-85725000D01*
X160655000Y-81275000D02*
X159385000Y-82545000D01*
X159385000Y-82545000D02*
X159385000Y-84455000D01*
D14*
X110490000Y-71755000D02*
X100084614Y-71755000D01*
X96609511Y-72479511D02*
X95885000Y-71755000D01*
X142329511Y-56702989D02*
X142329511Y-68490489D01*
X110490000Y-71755000D02*
X138430000Y-71755000D01*
X99360103Y-72479511D02*
X96609511Y-72479511D01*
X143510000Y-55522500D02*
X142329511Y-56702989D01*
X139065000Y-71755000D02*
X138430000Y-71755000D01*
X100084614Y-71755000D02*
X99360103Y-72479511D01*
X142329511Y-68490489D02*
X139065000Y-71755000D01*
X111945480Y-62044520D02*
X111125000Y-62865000D01*
X122280020Y-62044520D02*
X122555000Y-62319500D01*
X111125000Y-67555386D02*
X111125000Y-62865000D01*
X111945480Y-62044520D02*
X122280020Y-62044520D01*
X108568817Y-68944371D02*
X109736015Y-68944371D01*
X109736015Y-68944371D02*
X111125000Y-67555386D01*
X111213793Y-69760489D02*
X109166001Y-69760489D01*
X115765517Y-64574483D02*
X115570000Y-64770000D01*
X115570000Y-64770000D02*
X115570000Y-65404282D01*
X109166001Y-69760489D02*
X109148245Y-69778245D01*
X115570000Y-65404282D02*
X111213793Y-69760489D01*
X111125000Y-70485000D02*
X116840000Y-64770000D01*
X109855000Y-70485000D02*
X111125000Y-70485000D01*
D18*
X156845000Y-82545000D02*
X156845000Y-84455000D01*
X158115000Y-81275000D02*
X156845000Y-82545000D01*
X156845000Y-84455000D02*
X158115000Y-85725000D01*
X158115000Y-85725000D02*
X158115000Y-90170000D01*
D14*
X122555000Y-74935000D02*
X123729511Y-76109511D01*
X126460489Y-76109511D02*
X127635000Y-74935000D01*
X123729511Y-76109511D02*
X126460489Y-76109511D01*
D18*
X154305000Y-84455000D02*
X155575000Y-85725000D01*
X155575000Y-81275000D02*
X154305000Y-82545000D01*
X155575000Y-85725000D02*
X155575000Y-90170000D01*
X154305000Y-82545000D02*
X154305000Y-84455000D01*
X151765000Y-82545000D02*
X151765000Y-84455000D01*
X153035000Y-81275000D02*
X151765000Y-82545000D01*
X151765000Y-84455000D02*
X153035000Y-85725000D01*
X153035000Y-85725000D02*
X153035000Y-90170000D01*
X150495000Y-81275000D02*
X149225000Y-82545000D01*
X149225000Y-84455000D02*
X150495000Y-85725000D01*
X150495000Y-85725000D02*
X150495000Y-90170000D01*
X149225000Y-82545000D02*
X149225000Y-84455000D01*
X147955000Y-85725000D02*
X147955000Y-90170000D01*
X146685000Y-84455000D02*
X147955000Y-85725000D01*
X147955000Y-81275000D02*
X146685000Y-82545000D01*
X146685000Y-82545000D02*
X146685000Y-84455000D01*
X142875000Y-81275000D02*
X141605000Y-82545000D01*
X141605000Y-82545000D02*
X141605000Y-84455000D01*
X142875000Y-85725000D02*
X142875000Y-90170000D01*
X141605000Y-84455000D02*
X142875000Y-85725000D01*
X140335000Y-85725000D02*
X140335000Y-90170000D01*
X140335000Y-81275000D02*
X139065000Y-82545000D01*
X139065000Y-84455000D02*
X140335000Y-85725000D01*
X139065000Y-82545000D02*
X139065000Y-84455000D01*
X121285000Y-82545000D02*
X121285000Y-84455000D01*
X122555000Y-85725000D02*
X122555000Y-90170000D01*
X122555000Y-81275000D02*
X121285000Y-82545000D01*
X121285000Y-84455000D02*
X122555000Y-85725000D01*
X120015000Y-81275000D02*
X118745000Y-82545000D01*
X120015000Y-85725000D02*
X120015000Y-90170000D01*
X118745000Y-82545000D02*
X118745000Y-84455000D01*
X118745000Y-84455000D02*
X120015000Y-85725000D01*
X113665000Y-82545000D02*
X113665000Y-84455000D01*
X113665000Y-84455000D02*
X114935000Y-85725000D01*
X114935000Y-81275000D02*
X113665000Y-82545000D01*
X114935000Y-85725000D02*
X114935000Y-90170000D01*
X108585000Y-84455000D02*
X109855000Y-85725000D01*
X109855000Y-85725000D02*
X109855000Y-90170000D01*
X109855000Y-81275000D02*
X108585000Y-82545000D01*
X108585000Y-82545000D02*
X108585000Y-84455000D01*
X107315000Y-81275000D02*
X106045000Y-82545000D01*
X107315000Y-85725000D02*
X107315000Y-90170000D01*
X106045000Y-82545000D02*
X106045000Y-84455000D01*
X106045000Y-84455000D02*
X107315000Y-85725000D01*
X104775000Y-85725000D02*
X104775000Y-90170000D01*
X103505000Y-82545000D02*
X103505000Y-84455000D01*
X104775000Y-81275000D02*
X103505000Y-82545000D01*
X103505000Y-84455000D02*
X104775000Y-85725000D01*
X98425000Y-84455000D02*
X99695000Y-85725000D01*
X99695000Y-85725000D02*
X99695000Y-90170000D01*
X98425000Y-82545000D02*
X98425000Y-84455000D01*
X99695000Y-81275000D02*
X98425000Y-82545000D01*
X94615000Y-86995000D02*
X94615000Y-90170000D01*
X93345000Y-82545000D02*
X93345000Y-85725000D01*
X93345000Y-85725000D02*
X94615000Y-86995000D01*
X94615000Y-81275000D02*
X93345000Y-82545000D01*
M02*
