G04 #@! TF.GenerationSoftware,KiCad,Pcbnew,(6.0.5-0)*
G04 #@! TF.CreationDate,2022-06-11T14:47:18-06:00*
G04 #@! TF.ProjectId,PiGUS,50694755-532e-46b6-9963-61645f706362,rev?*
G04 #@! TF.SameCoordinates,Original*
G04 #@! TF.FileFunction,Copper,L2,Inr*
G04 #@! TF.FilePolarity,Positive*
%FSLAX46Y46*%
G04 Gerber Fmt 4.6, Leading zero omitted, Abs format (unit mm)*
G04 Created by KiCad (PCBNEW (6.0.5-0)) date 2022-06-11 14:47:18*
%MOMM*%
%LPD*%
G01*
G04 APERTURE LIST*
G04 #@! TA.AperFunction,ComponentPad*
%ADD10R,1.700000X1.700000*%
G04 #@! TD*
G04 #@! TA.AperFunction,ComponentPad*
%ADD11O,1.700000X1.700000*%
G04 #@! TD*
G04 #@! TA.AperFunction,ViaPad*
%ADD12C,0.800000*%
G04 #@! TD*
G04 APERTURE END LIST*
D10*
X140330000Y-59050000D03*
D11*
X140330000Y-56510000D03*
X137790000Y-59050000D03*
X137790000Y-56510000D03*
X135250000Y-59050000D03*
X135250000Y-56510000D03*
X132710000Y-59050000D03*
X132710000Y-56510000D03*
X130170000Y-59050000D03*
X130170000Y-56510000D03*
X127630000Y-59050000D03*
X127630000Y-56510000D03*
X125090000Y-59050000D03*
X125090000Y-56510000D03*
X122550000Y-59050000D03*
X122550000Y-56510000D03*
X120010000Y-59050000D03*
X120010000Y-56510000D03*
X117470000Y-59050000D03*
X117470000Y-56510000D03*
X114930000Y-59050000D03*
X114930000Y-56510000D03*
X112390000Y-59050000D03*
X112390000Y-56510000D03*
X109850000Y-59050000D03*
X109850000Y-56510000D03*
X107310000Y-59050000D03*
X107310000Y-56510000D03*
X104770000Y-59050000D03*
X104770000Y-56510000D03*
X102230000Y-59050000D03*
X102230000Y-56510000D03*
X99690000Y-59050000D03*
X99690000Y-56510000D03*
X97150000Y-59050000D03*
X97150000Y-56510000D03*
X94610000Y-59050000D03*
X94610000Y-56510000D03*
X92070000Y-59050000D03*
X92070000Y-56510000D03*
X114935000Y-77475000D03*
X114935000Y-74935000D03*
X117475000Y-77475000D03*
X117475000Y-74935000D03*
X120015000Y-77475000D03*
X120015000Y-74935000D03*
X122555000Y-77475000D03*
X122555000Y-74935000D03*
X125095000Y-77475000D03*
X125095000Y-74935000D03*
X127635000Y-77475000D03*
X127635000Y-74935000D03*
D10*
X168275000Y-81275000D03*
D11*
X165735000Y-81275000D03*
X163195000Y-81275000D03*
X160655000Y-81275000D03*
X158115000Y-81275000D03*
X155575000Y-81275000D03*
X153035000Y-81275000D03*
X150495000Y-81275000D03*
X147955000Y-81275000D03*
X145415000Y-81275000D03*
X142875000Y-81275000D03*
X140335000Y-81275000D03*
X137795000Y-81275000D03*
X135255000Y-81275000D03*
X132715000Y-81275000D03*
X130175000Y-81275000D03*
X127635000Y-81275000D03*
X125095000Y-81275000D03*
X122555000Y-81275000D03*
X120015000Y-81275000D03*
X117475000Y-81275000D03*
X114935000Y-81275000D03*
X112395000Y-81275000D03*
X109855000Y-81275000D03*
X107315000Y-81275000D03*
X104775000Y-81275000D03*
X102235000Y-81275000D03*
X99695000Y-81275000D03*
X97155000Y-81275000D03*
X94615000Y-81275000D03*
X92075000Y-81275000D03*
X168275000Y-83815000D03*
X165735000Y-83815000D03*
X163195000Y-83815000D03*
X160655000Y-83815000D03*
X158115000Y-83815000D03*
X155575000Y-83815000D03*
X153035000Y-83815000D03*
X150495000Y-83815000D03*
X147955000Y-83815000D03*
X145415000Y-83815000D03*
X142875000Y-83815000D03*
X140335000Y-83815000D03*
X137795000Y-83815000D03*
X135255000Y-83815000D03*
X132715000Y-83815000D03*
X130175000Y-83815000D03*
X127635000Y-83815000D03*
X125095000Y-83815000D03*
X122555000Y-83815000D03*
X120015000Y-83815000D03*
X117475000Y-83815000D03*
X114935000Y-83815000D03*
X112395000Y-83815000D03*
X109855000Y-83815000D03*
X107315000Y-83815000D03*
X104775000Y-83815000D03*
X102235000Y-83815000D03*
X99695000Y-83815000D03*
X97155000Y-83815000D03*
X94615000Y-83815000D03*
X92075000Y-83815000D03*
D12*
X106045000Y-78740000D03*
X106134500Y-75565000D03*
X104685500Y-74295000D03*
X106769500Y-74295000D03*
X139065000Y-62230000D03*
X103505000Y-73025000D03*
X118110000Y-72479500D03*
X121285000Y-67945000D03*
X105410000Y-69215000D03*
X144145000Y-59967500D03*
X147955000Y-69850000D03*
X93980000Y-67945000D03*
X145415000Y-72390000D03*
X108585000Y-67945000D03*
X147955000Y-64770000D03*
X95885000Y-85725000D03*
X161925000Y-85730000D03*
X121285000Y-66040000D03*
X106680000Y-67310000D03*
X102235000Y-64135000D03*
X96609500Y-64135000D03*
X96520000Y-62230000D03*
X104685500Y-63270989D03*
X99605500Y-69215000D03*
X133138051Y-54520500D03*
X135890000Y-66675000D03*
X109855000Y-53340000D03*
X141605000Y-67945000D03*
X137795000Y-68580000D03*
X112395000Y-53340000D03*
X112395000Y-62865000D03*
X120015000Y-64770000D03*
X124460000Y-63500000D03*
X114935000Y-62865000D03*
X134620000Y-62230000D03*
X134620000Y-69850000D03*
X99060000Y-70485000D03*
X106680000Y-62319500D03*
X100419500Y-62230000D03*
X99695000Y-60960000D03*
X113665000Y-66040000D03*
X93980000Y-66040000D03*
X116205000Y-72479500D03*
X95885000Y-71755000D03*
X138430000Y-71755000D03*
X143510000Y-55522500D03*
X110490000Y-71755000D03*
X108568817Y-68944371D03*
X122555000Y-62319500D03*
X115765517Y-64574483D03*
X109148245Y-69778245D03*
X116840000Y-64770000D03*
X109855000Y-70485000D03*
G04 #@! TA.AperFunction,Conductor*
G36*
X170258467Y-51328502D02*
G01*
X170304960Y-51382158D01*
X170316346Y-51434531D01*
X170313354Y-63787246D01*
X170307761Y-86869034D01*
X170287743Y-86937146D01*
X170234077Y-86983626D01*
X170181762Y-86995000D01*
X90168149Y-86995000D01*
X90100028Y-86974998D01*
X90053535Y-86921342D01*
X90042149Y-86869030D01*
X90042094Y-86637128D01*
X90041409Y-83781695D01*
X90712251Y-83781695D01*
X90712548Y-83786848D01*
X90712548Y-83786851D01*
X90718011Y-83881590D01*
X90725110Y-84004715D01*
X90726247Y-84009761D01*
X90726248Y-84009767D01*
X90746119Y-84097939D01*
X90774222Y-84222639D01*
X90858266Y-84429616D01*
X90909019Y-84512438D01*
X90972291Y-84615688D01*
X90974987Y-84620088D01*
X91121250Y-84788938D01*
X91293126Y-84931632D01*
X91486000Y-85044338D01*
X91694692Y-85124030D01*
X91699760Y-85125061D01*
X91699763Y-85125062D01*
X91807003Y-85146880D01*
X91913597Y-85168567D01*
X91918772Y-85168757D01*
X91918774Y-85168757D01*
X92131673Y-85176564D01*
X92131677Y-85176564D01*
X92136837Y-85176753D01*
X92141957Y-85176097D01*
X92141959Y-85176097D01*
X92353288Y-85149025D01*
X92353289Y-85149025D01*
X92358416Y-85148368D01*
X92363366Y-85146883D01*
X92567429Y-85085661D01*
X92567434Y-85085659D01*
X92572384Y-85084174D01*
X92772994Y-84985896D01*
X92954860Y-84856173D01*
X92989655Y-84821500D01*
X93109435Y-84702137D01*
X93113096Y-84698489D01*
X93168721Y-84621079D01*
X93243453Y-84517077D01*
X93244776Y-84518028D01*
X93291645Y-84474857D01*
X93361580Y-84462625D01*
X93427026Y-84490144D01*
X93454875Y-84521994D01*
X93514987Y-84620088D01*
X93661250Y-84788938D01*
X93833126Y-84931632D01*
X94026000Y-85044338D01*
X94234692Y-85124030D01*
X94239760Y-85125061D01*
X94239763Y-85125062D01*
X94347003Y-85146880D01*
X94453597Y-85168567D01*
X94458772Y-85168757D01*
X94458774Y-85168757D01*
X94671673Y-85176564D01*
X94671677Y-85176564D01*
X94676837Y-85176753D01*
X94681957Y-85176097D01*
X94681959Y-85176097D01*
X94893288Y-85149025D01*
X94893289Y-85149025D01*
X94898416Y-85148368D01*
X94903370Y-85146882D01*
X94903378Y-85146880D01*
X94921496Y-85141445D01*
X94992491Y-85141029D01*
X95052441Y-85179063D01*
X95082311Y-85243470D01*
X95072619Y-85313802D01*
X95066819Y-85325132D01*
X95050473Y-85353444D01*
X94991458Y-85535072D01*
X94990768Y-85541633D01*
X94990768Y-85541635D01*
X94972186Y-85718435D01*
X94971496Y-85725000D01*
X94991458Y-85914928D01*
X95050473Y-86096556D01*
X95145960Y-86261944D01*
X95273747Y-86403866D01*
X95428248Y-86516118D01*
X95434276Y-86518802D01*
X95434278Y-86518803D01*
X95596681Y-86591109D01*
X95602712Y-86593794D01*
X95696113Y-86613647D01*
X95783056Y-86632128D01*
X95783061Y-86632128D01*
X95789513Y-86633500D01*
X95980487Y-86633500D01*
X95986939Y-86632128D01*
X95986944Y-86632128D01*
X96073887Y-86613647D01*
X96167288Y-86593794D01*
X96173319Y-86591109D01*
X96335722Y-86518803D01*
X96335724Y-86518802D01*
X96341752Y-86516118D01*
X96496253Y-86403866D01*
X96624040Y-86261944D01*
X96719527Y-86096556D01*
X96778542Y-85914928D01*
X96798504Y-85725000D01*
X96797814Y-85718435D01*
X96779232Y-85541635D01*
X96779232Y-85541633D01*
X96778542Y-85535072D01*
X96719527Y-85353444D01*
X96701957Y-85323013D01*
X96685220Y-85254019D01*
X96708440Y-85186927D01*
X96764247Y-85143040D01*
X96836196Y-85136543D01*
X96993597Y-85168567D01*
X96998772Y-85168757D01*
X96998774Y-85168757D01*
X97211673Y-85176564D01*
X97211677Y-85176564D01*
X97216837Y-85176753D01*
X97221957Y-85176097D01*
X97221959Y-85176097D01*
X97433288Y-85149025D01*
X97433289Y-85149025D01*
X97438416Y-85148368D01*
X97443366Y-85146883D01*
X97647429Y-85085661D01*
X97647434Y-85085659D01*
X97652384Y-85084174D01*
X97852994Y-84985896D01*
X98034860Y-84856173D01*
X98069655Y-84821500D01*
X98189435Y-84702137D01*
X98193096Y-84698489D01*
X98248721Y-84621079D01*
X98323453Y-84517077D01*
X98324776Y-84518028D01*
X98371645Y-84474857D01*
X98441580Y-84462625D01*
X98507026Y-84490144D01*
X98534875Y-84521994D01*
X98594987Y-84620088D01*
X98741250Y-84788938D01*
X98913126Y-84931632D01*
X99106000Y-85044338D01*
X99314692Y-85124030D01*
X99319760Y-85125061D01*
X99319763Y-85125062D01*
X99427003Y-85146880D01*
X99533597Y-85168567D01*
X99538772Y-85168757D01*
X99538774Y-85168757D01*
X99751673Y-85176564D01*
X99751677Y-85176564D01*
X99756837Y-85176753D01*
X99761957Y-85176097D01*
X99761959Y-85176097D01*
X99973288Y-85149025D01*
X99973289Y-85149025D01*
X99978416Y-85148368D01*
X99983366Y-85146883D01*
X100187429Y-85085661D01*
X100187434Y-85085659D01*
X100192384Y-85084174D01*
X100392994Y-84985896D01*
X100574860Y-84856173D01*
X100609655Y-84821500D01*
X100729435Y-84702137D01*
X100733096Y-84698489D01*
X100788721Y-84621079D01*
X100863453Y-84517077D01*
X100864776Y-84518028D01*
X100911645Y-84474857D01*
X100981580Y-84462625D01*
X101047026Y-84490144D01*
X101074875Y-84521994D01*
X101134987Y-84620088D01*
X101281250Y-84788938D01*
X101453126Y-84931632D01*
X101646000Y-85044338D01*
X101854692Y-85124030D01*
X101859760Y-85125061D01*
X101859763Y-85125062D01*
X101967003Y-85146880D01*
X102073597Y-85168567D01*
X102078772Y-85168757D01*
X102078774Y-85168757D01*
X102291673Y-85176564D01*
X102291677Y-85176564D01*
X102296837Y-85176753D01*
X102301957Y-85176097D01*
X102301959Y-85176097D01*
X102513288Y-85149025D01*
X102513289Y-85149025D01*
X102518416Y-85148368D01*
X102523366Y-85146883D01*
X102727429Y-85085661D01*
X102727434Y-85085659D01*
X102732384Y-85084174D01*
X102932994Y-84985896D01*
X103114860Y-84856173D01*
X103149655Y-84821500D01*
X103269435Y-84702137D01*
X103273096Y-84698489D01*
X103328721Y-84621079D01*
X103403453Y-84517077D01*
X103404776Y-84518028D01*
X103451645Y-84474857D01*
X103521580Y-84462625D01*
X103587026Y-84490144D01*
X103614875Y-84521994D01*
X103674987Y-84620088D01*
X103821250Y-84788938D01*
X103993126Y-84931632D01*
X104186000Y-85044338D01*
X104394692Y-85124030D01*
X104399760Y-85125061D01*
X104399763Y-85125062D01*
X104507003Y-85146880D01*
X104613597Y-85168567D01*
X104618772Y-85168757D01*
X104618774Y-85168757D01*
X104831673Y-85176564D01*
X104831677Y-85176564D01*
X104836837Y-85176753D01*
X104841957Y-85176097D01*
X104841959Y-85176097D01*
X105053288Y-85149025D01*
X105053289Y-85149025D01*
X105058416Y-85148368D01*
X105063366Y-85146883D01*
X105267429Y-85085661D01*
X105267434Y-85085659D01*
X105272384Y-85084174D01*
X105472994Y-84985896D01*
X105654860Y-84856173D01*
X105689655Y-84821500D01*
X105809435Y-84702137D01*
X105813096Y-84698489D01*
X105868721Y-84621079D01*
X105943453Y-84517077D01*
X105944776Y-84518028D01*
X105991645Y-84474857D01*
X106061580Y-84462625D01*
X106127026Y-84490144D01*
X106154875Y-84521994D01*
X106214987Y-84620088D01*
X106361250Y-84788938D01*
X106533126Y-84931632D01*
X106726000Y-85044338D01*
X106934692Y-85124030D01*
X106939760Y-85125061D01*
X106939763Y-85125062D01*
X107047003Y-85146880D01*
X107153597Y-85168567D01*
X107158772Y-85168757D01*
X107158774Y-85168757D01*
X107371673Y-85176564D01*
X107371677Y-85176564D01*
X107376837Y-85176753D01*
X107381957Y-85176097D01*
X107381959Y-85176097D01*
X107593288Y-85149025D01*
X107593289Y-85149025D01*
X107598416Y-85148368D01*
X107603366Y-85146883D01*
X107807429Y-85085661D01*
X107807434Y-85085659D01*
X107812384Y-85084174D01*
X108012994Y-84985896D01*
X108194860Y-84856173D01*
X108229655Y-84821500D01*
X108349435Y-84702137D01*
X108353096Y-84698489D01*
X108408721Y-84621079D01*
X108483453Y-84517077D01*
X108484776Y-84518028D01*
X108531645Y-84474857D01*
X108601580Y-84462625D01*
X108667026Y-84490144D01*
X108694875Y-84521994D01*
X108754987Y-84620088D01*
X108901250Y-84788938D01*
X109073126Y-84931632D01*
X109266000Y-85044338D01*
X109474692Y-85124030D01*
X109479760Y-85125061D01*
X109479763Y-85125062D01*
X109587003Y-85146880D01*
X109693597Y-85168567D01*
X109698772Y-85168757D01*
X109698774Y-85168757D01*
X109911673Y-85176564D01*
X109911677Y-85176564D01*
X109916837Y-85176753D01*
X109921957Y-85176097D01*
X109921959Y-85176097D01*
X110133288Y-85149025D01*
X110133289Y-85149025D01*
X110138416Y-85148368D01*
X110143366Y-85146883D01*
X110347429Y-85085661D01*
X110347434Y-85085659D01*
X110352384Y-85084174D01*
X110552994Y-84985896D01*
X110734860Y-84856173D01*
X110769655Y-84821500D01*
X110889435Y-84702137D01*
X110893096Y-84698489D01*
X110948721Y-84621079D01*
X111023453Y-84517077D01*
X111024776Y-84518028D01*
X111071645Y-84474857D01*
X111141580Y-84462625D01*
X111207026Y-84490144D01*
X111234875Y-84521994D01*
X111294987Y-84620088D01*
X111441250Y-84788938D01*
X111613126Y-84931632D01*
X111806000Y-85044338D01*
X112014692Y-85124030D01*
X112019760Y-85125061D01*
X112019763Y-85125062D01*
X112127003Y-85146880D01*
X112233597Y-85168567D01*
X112238772Y-85168757D01*
X112238774Y-85168757D01*
X112451673Y-85176564D01*
X112451677Y-85176564D01*
X112456837Y-85176753D01*
X112461957Y-85176097D01*
X112461959Y-85176097D01*
X112673288Y-85149025D01*
X112673289Y-85149025D01*
X112678416Y-85148368D01*
X112683366Y-85146883D01*
X112887429Y-85085661D01*
X112887434Y-85085659D01*
X112892384Y-85084174D01*
X113092994Y-84985896D01*
X113274860Y-84856173D01*
X113309655Y-84821500D01*
X113429435Y-84702137D01*
X113433096Y-84698489D01*
X113488721Y-84621079D01*
X113563453Y-84517077D01*
X113564776Y-84518028D01*
X113611645Y-84474857D01*
X113681580Y-84462625D01*
X113747026Y-84490144D01*
X113774875Y-84521994D01*
X113834987Y-84620088D01*
X113981250Y-84788938D01*
X114153126Y-84931632D01*
X114346000Y-85044338D01*
X114554692Y-85124030D01*
X114559760Y-85125061D01*
X114559763Y-85125062D01*
X114667003Y-85146880D01*
X114773597Y-85168567D01*
X114778772Y-85168757D01*
X114778774Y-85168757D01*
X114991673Y-85176564D01*
X114991677Y-85176564D01*
X114996837Y-85176753D01*
X115001957Y-85176097D01*
X115001959Y-85176097D01*
X115213288Y-85149025D01*
X115213289Y-85149025D01*
X115218416Y-85148368D01*
X115223366Y-85146883D01*
X115427429Y-85085661D01*
X115427434Y-85085659D01*
X115432384Y-85084174D01*
X115632994Y-84985896D01*
X115814860Y-84856173D01*
X115849655Y-84821500D01*
X115969435Y-84702137D01*
X115973096Y-84698489D01*
X116028721Y-84621079D01*
X116103453Y-84517077D01*
X116104776Y-84518028D01*
X116151645Y-84474857D01*
X116221580Y-84462625D01*
X116287026Y-84490144D01*
X116314875Y-84521994D01*
X116374987Y-84620088D01*
X116521250Y-84788938D01*
X116693126Y-84931632D01*
X116886000Y-85044338D01*
X117094692Y-85124030D01*
X117099760Y-85125061D01*
X117099763Y-85125062D01*
X117207003Y-85146880D01*
X117313597Y-85168567D01*
X117318772Y-85168757D01*
X117318774Y-85168757D01*
X117531673Y-85176564D01*
X117531677Y-85176564D01*
X117536837Y-85176753D01*
X117541957Y-85176097D01*
X117541959Y-85176097D01*
X117753288Y-85149025D01*
X117753289Y-85149025D01*
X117758416Y-85148368D01*
X117763366Y-85146883D01*
X117967429Y-85085661D01*
X117967434Y-85085659D01*
X117972384Y-85084174D01*
X118172994Y-84985896D01*
X118354860Y-84856173D01*
X118389655Y-84821500D01*
X118509435Y-84702137D01*
X118513096Y-84698489D01*
X118568721Y-84621079D01*
X118643453Y-84517077D01*
X118644776Y-84518028D01*
X118691645Y-84474857D01*
X118761580Y-84462625D01*
X118827026Y-84490144D01*
X118854875Y-84521994D01*
X118914987Y-84620088D01*
X119061250Y-84788938D01*
X119233126Y-84931632D01*
X119426000Y-85044338D01*
X119634692Y-85124030D01*
X119639760Y-85125061D01*
X119639763Y-85125062D01*
X119747003Y-85146880D01*
X119853597Y-85168567D01*
X119858772Y-85168757D01*
X119858774Y-85168757D01*
X120071673Y-85176564D01*
X120071677Y-85176564D01*
X120076837Y-85176753D01*
X120081957Y-85176097D01*
X120081959Y-85176097D01*
X120293288Y-85149025D01*
X120293289Y-85149025D01*
X120298416Y-85148368D01*
X120303366Y-85146883D01*
X120507429Y-85085661D01*
X120507434Y-85085659D01*
X120512384Y-85084174D01*
X120712994Y-84985896D01*
X120894860Y-84856173D01*
X120929655Y-84821500D01*
X121049435Y-84702137D01*
X121053096Y-84698489D01*
X121108721Y-84621079D01*
X121183453Y-84517077D01*
X121184776Y-84518028D01*
X121231645Y-84474857D01*
X121301580Y-84462625D01*
X121367026Y-84490144D01*
X121394875Y-84521994D01*
X121454987Y-84620088D01*
X121601250Y-84788938D01*
X121773126Y-84931632D01*
X121966000Y-85044338D01*
X122174692Y-85124030D01*
X122179760Y-85125061D01*
X122179763Y-85125062D01*
X122287003Y-85146880D01*
X122393597Y-85168567D01*
X122398772Y-85168757D01*
X122398774Y-85168757D01*
X122611673Y-85176564D01*
X122611677Y-85176564D01*
X122616837Y-85176753D01*
X122621957Y-85176097D01*
X122621959Y-85176097D01*
X122833288Y-85149025D01*
X122833289Y-85149025D01*
X122838416Y-85148368D01*
X122843366Y-85146883D01*
X123047429Y-85085661D01*
X123047434Y-85085659D01*
X123052384Y-85084174D01*
X123252994Y-84985896D01*
X123434860Y-84856173D01*
X123469655Y-84821500D01*
X123589435Y-84702137D01*
X123593096Y-84698489D01*
X123648721Y-84621079D01*
X123723453Y-84517077D01*
X123724776Y-84518028D01*
X123771645Y-84474857D01*
X123841580Y-84462625D01*
X123907026Y-84490144D01*
X123934875Y-84521994D01*
X123994987Y-84620088D01*
X124141250Y-84788938D01*
X124313126Y-84931632D01*
X124506000Y-85044338D01*
X124714692Y-85124030D01*
X124719760Y-85125061D01*
X124719763Y-85125062D01*
X124827003Y-85146880D01*
X124933597Y-85168567D01*
X124938772Y-85168757D01*
X124938774Y-85168757D01*
X125151673Y-85176564D01*
X125151677Y-85176564D01*
X125156837Y-85176753D01*
X125161957Y-85176097D01*
X125161959Y-85176097D01*
X125373288Y-85149025D01*
X125373289Y-85149025D01*
X125378416Y-85148368D01*
X125383366Y-85146883D01*
X125587429Y-85085661D01*
X125587434Y-85085659D01*
X125592384Y-85084174D01*
X125792994Y-84985896D01*
X125974860Y-84856173D01*
X126009655Y-84821500D01*
X126129435Y-84702137D01*
X126133096Y-84698489D01*
X126188721Y-84621079D01*
X126263453Y-84517077D01*
X126264776Y-84518028D01*
X126311645Y-84474857D01*
X126381580Y-84462625D01*
X126447026Y-84490144D01*
X126474875Y-84521994D01*
X126534987Y-84620088D01*
X126681250Y-84788938D01*
X126853126Y-84931632D01*
X127046000Y-85044338D01*
X127254692Y-85124030D01*
X127259760Y-85125061D01*
X127259763Y-85125062D01*
X127367003Y-85146880D01*
X127473597Y-85168567D01*
X127478772Y-85168757D01*
X127478774Y-85168757D01*
X127691673Y-85176564D01*
X127691677Y-85176564D01*
X127696837Y-85176753D01*
X127701957Y-85176097D01*
X127701959Y-85176097D01*
X127913288Y-85149025D01*
X127913289Y-85149025D01*
X127918416Y-85148368D01*
X127923366Y-85146883D01*
X128127429Y-85085661D01*
X128127434Y-85085659D01*
X128132384Y-85084174D01*
X128332994Y-84985896D01*
X128514860Y-84856173D01*
X128549655Y-84821500D01*
X128669435Y-84702137D01*
X128673096Y-84698489D01*
X128728721Y-84621079D01*
X128803453Y-84517077D01*
X128804776Y-84518028D01*
X128851645Y-84474857D01*
X128921580Y-84462625D01*
X128987026Y-84490144D01*
X129014875Y-84521994D01*
X129074987Y-84620088D01*
X129221250Y-84788938D01*
X129393126Y-84931632D01*
X129586000Y-85044338D01*
X129794692Y-85124030D01*
X129799760Y-85125061D01*
X129799763Y-85125062D01*
X129907003Y-85146880D01*
X130013597Y-85168567D01*
X130018772Y-85168757D01*
X130018774Y-85168757D01*
X130231673Y-85176564D01*
X130231677Y-85176564D01*
X130236837Y-85176753D01*
X130241957Y-85176097D01*
X130241959Y-85176097D01*
X130453288Y-85149025D01*
X130453289Y-85149025D01*
X130458416Y-85148368D01*
X130463366Y-85146883D01*
X130667429Y-85085661D01*
X130667434Y-85085659D01*
X130672384Y-85084174D01*
X130872994Y-84985896D01*
X131054860Y-84856173D01*
X131089655Y-84821500D01*
X131209435Y-84702137D01*
X131213096Y-84698489D01*
X131268721Y-84621079D01*
X131343453Y-84517077D01*
X131344776Y-84518028D01*
X131391645Y-84474857D01*
X131461580Y-84462625D01*
X131527026Y-84490144D01*
X131554875Y-84521994D01*
X131614987Y-84620088D01*
X131761250Y-84788938D01*
X131933126Y-84931632D01*
X132126000Y-85044338D01*
X132334692Y-85124030D01*
X132339760Y-85125061D01*
X132339763Y-85125062D01*
X132447003Y-85146880D01*
X132553597Y-85168567D01*
X132558772Y-85168757D01*
X132558774Y-85168757D01*
X132771673Y-85176564D01*
X132771677Y-85176564D01*
X132776837Y-85176753D01*
X132781957Y-85176097D01*
X132781959Y-85176097D01*
X132993288Y-85149025D01*
X132993289Y-85149025D01*
X132998416Y-85148368D01*
X133003366Y-85146883D01*
X133207429Y-85085661D01*
X133207434Y-85085659D01*
X133212384Y-85084174D01*
X133412994Y-84985896D01*
X133594860Y-84856173D01*
X133629655Y-84821500D01*
X133749435Y-84702137D01*
X133753096Y-84698489D01*
X133808721Y-84621079D01*
X133883453Y-84517077D01*
X133884776Y-84518028D01*
X133931645Y-84474857D01*
X134001580Y-84462625D01*
X134067026Y-84490144D01*
X134094875Y-84521994D01*
X134154987Y-84620088D01*
X134301250Y-84788938D01*
X134473126Y-84931632D01*
X134666000Y-85044338D01*
X134874692Y-85124030D01*
X134879760Y-85125061D01*
X134879763Y-85125062D01*
X134987003Y-85146880D01*
X135093597Y-85168567D01*
X135098772Y-85168757D01*
X135098774Y-85168757D01*
X135311673Y-85176564D01*
X135311677Y-85176564D01*
X135316837Y-85176753D01*
X135321957Y-85176097D01*
X135321959Y-85176097D01*
X135533288Y-85149025D01*
X135533289Y-85149025D01*
X135538416Y-85148368D01*
X135543366Y-85146883D01*
X135747429Y-85085661D01*
X135747434Y-85085659D01*
X135752384Y-85084174D01*
X135952994Y-84985896D01*
X136134860Y-84856173D01*
X136169655Y-84821500D01*
X136289435Y-84702137D01*
X136293096Y-84698489D01*
X136348721Y-84621079D01*
X136423453Y-84517077D01*
X136424776Y-84518028D01*
X136471645Y-84474857D01*
X136541580Y-84462625D01*
X136607026Y-84490144D01*
X136634875Y-84521994D01*
X136694987Y-84620088D01*
X136841250Y-84788938D01*
X137013126Y-84931632D01*
X137206000Y-85044338D01*
X137414692Y-85124030D01*
X137419760Y-85125061D01*
X137419763Y-85125062D01*
X137527003Y-85146880D01*
X137633597Y-85168567D01*
X137638772Y-85168757D01*
X137638774Y-85168757D01*
X137851673Y-85176564D01*
X137851677Y-85176564D01*
X137856837Y-85176753D01*
X137861957Y-85176097D01*
X137861959Y-85176097D01*
X138073288Y-85149025D01*
X138073289Y-85149025D01*
X138078416Y-85148368D01*
X138083366Y-85146883D01*
X138287429Y-85085661D01*
X138287434Y-85085659D01*
X138292384Y-85084174D01*
X138492994Y-84985896D01*
X138674860Y-84856173D01*
X138709655Y-84821500D01*
X138829435Y-84702137D01*
X138833096Y-84698489D01*
X138888721Y-84621079D01*
X138963453Y-84517077D01*
X138964776Y-84518028D01*
X139011645Y-84474857D01*
X139081580Y-84462625D01*
X139147026Y-84490144D01*
X139174875Y-84521994D01*
X139234987Y-84620088D01*
X139381250Y-84788938D01*
X139553126Y-84931632D01*
X139746000Y-85044338D01*
X139954692Y-85124030D01*
X139959760Y-85125061D01*
X139959763Y-85125062D01*
X140067003Y-85146880D01*
X140173597Y-85168567D01*
X140178772Y-85168757D01*
X140178774Y-85168757D01*
X140391673Y-85176564D01*
X140391677Y-85176564D01*
X140396837Y-85176753D01*
X140401957Y-85176097D01*
X140401959Y-85176097D01*
X140613288Y-85149025D01*
X140613289Y-85149025D01*
X140618416Y-85148368D01*
X140623366Y-85146883D01*
X140827429Y-85085661D01*
X140827434Y-85085659D01*
X140832384Y-85084174D01*
X141032994Y-84985896D01*
X141214860Y-84856173D01*
X141249655Y-84821500D01*
X141369435Y-84702137D01*
X141373096Y-84698489D01*
X141428721Y-84621079D01*
X141503453Y-84517077D01*
X141504640Y-84517930D01*
X141551960Y-84474362D01*
X141621897Y-84462145D01*
X141687338Y-84489678D01*
X141715166Y-84521511D01*
X141772694Y-84615388D01*
X141778777Y-84623699D01*
X141918213Y-84784667D01*
X141925580Y-84791883D01*
X142089434Y-84927916D01*
X142097881Y-84933831D01*
X142281756Y-85041279D01*
X142291043Y-85045729D01*
X142358078Y-85071327D01*
X142372134Y-85072442D01*
X142375000Y-85067290D01*
X142375000Y-83441000D01*
X142395002Y-83372879D01*
X142448658Y-83326386D01*
X142501000Y-83315000D01*
X143249000Y-83315000D01*
X143317121Y-83335002D01*
X143363614Y-83388658D01*
X143375000Y-83441000D01*
X143375000Y-85064221D01*
X143378973Y-85077752D01*
X143382842Y-85078308D01*
X143383867Y-85077992D01*
X143568095Y-84987739D01*
X143576945Y-84982464D01*
X143750328Y-84858792D01*
X143758200Y-84852139D01*
X143909052Y-84701812D01*
X143915730Y-84693965D01*
X144043022Y-84516819D01*
X144044279Y-84517722D01*
X144091373Y-84474362D01*
X144161311Y-84462145D01*
X144226751Y-84489678D01*
X144254579Y-84521511D01*
X144314987Y-84620088D01*
X144461250Y-84788938D01*
X144633126Y-84931632D01*
X144826000Y-85044338D01*
X145034692Y-85124030D01*
X145039760Y-85125061D01*
X145039763Y-85125062D01*
X145147003Y-85146880D01*
X145253597Y-85168567D01*
X145258772Y-85168757D01*
X145258774Y-85168757D01*
X145471673Y-85176564D01*
X145471677Y-85176564D01*
X145476837Y-85176753D01*
X145481957Y-85176097D01*
X145481959Y-85176097D01*
X145693288Y-85149025D01*
X145693289Y-85149025D01*
X145698416Y-85148368D01*
X145703366Y-85146883D01*
X145907429Y-85085661D01*
X145907434Y-85085659D01*
X145912384Y-85084174D01*
X146112994Y-84985896D01*
X146294860Y-84856173D01*
X146329655Y-84821500D01*
X146449435Y-84702137D01*
X146453096Y-84698489D01*
X146508721Y-84621079D01*
X146583453Y-84517077D01*
X146584776Y-84518028D01*
X146631645Y-84474857D01*
X146701580Y-84462625D01*
X146767026Y-84490144D01*
X146794875Y-84521994D01*
X146854987Y-84620088D01*
X147001250Y-84788938D01*
X147173126Y-84931632D01*
X147366000Y-85044338D01*
X147574692Y-85124030D01*
X147579760Y-85125061D01*
X147579763Y-85125062D01*
X147687003Y-85146880D01*
X147793597Y-85168567D01*
X147798772Y-85168757D01*
X147798774Y-85168757D01*
X148011673Y-85176564D01*
X148011677Y-85176564D01*
X148016837Y-85176753D01*
X148021957Y-85176097D01*
X148021959Y-85176097D01*
X148233288Y-85149025D01*
X148233289Y-85149025D01*
X148238416Y-85148368D01*
X148243366Y-85146883D01*
X148447429Y-85085661D01*
X148447434Y-85085659D01*
X148452384Y-85084174D01*
X148652994Y-84985896D01*
X148834860Y-84856173D01*
X148869655Y-84821500D01*
X148989435Y-84702137D01*
X148993096Y-84698489D01*
X149048721Y-84621079D01*
X149123453Y-84517077D01*
X149124776Y-84518028D01*
X149171645Y-84474857D01*
X149241580Y-84462625D01*
X149307026Y-84490144D01*
X149334875Y-84521994D01*
X149394987Y-84620088D01*
X149541250Y-84788938D01*
X149713126Y-84931632D01*
X149906000Y-85044338D01*
X150114692Y-85124030D01*
X150119760Y-85125061D01*
X150119763Y-85125062D01*
X150227003Y-85146880D01*
X150333597Y-85168567D01*
X150338772Y-85168757D01*
X150338774Y-85168757D01*
X150551673Y-85176564D01*
X150551677Y-85176564D01*
X150556837Y-85176753D01*
X150561957Y-85176097D01*
X150561959Y-85176097D01*
X150773288Y-85149025D01*
X150773289Y-85149025D01*
X150778416Y-85148368D01*
X150783366Y-85146883D01*
X150987429Y-85085661D01*
X150987434Y-85085659D01*
X150992384Y-85084174D01*
X151192994Y-84985896D01*
X151374860Y-84856173D01*
X151409655Y-84821500D01*
X151529435Y-84702137D01*
X151533096Y-84698489D01*
X151588721Y-84621079D01*
X151663453Y-84517077D01*
X151664776Y-84518028D01*
X151711645Y-84474857D01*
X151781580Y-84462625D01*
X151847026Y-84490144D01*
X151874875Y-84521994D01*
X151934987Y-84620088D01*
X152081250Y-84788938D01*
X152253126Y-84931632D01*
X152446000Y-85044338D01*
X152654692Y-85124030D01*
X152659760Y-85125061D01*
X152659763Y-85125062D01*
X152767003Y-85146880D01*
X152873597Y-85168567D01*
X152878772Y-85168757D01*
X152878774Y-85168757D01*
X153091673Y-85176564D01*
X153091677Y-85176564D01*
X153096837Y-85176753D01*
X153101957Y-85176097D01*
X153101959Y-85176097D01*
X153313288Y-85149025D01*
X153313289Y-85149025D01*
X153318416Y-85148368D01*
X153323366Y-85146883D01*
X153527429Y-85085661D01*
X153527434Y-85085659D01*
X153532384Y-85084174D01*
X153732994Y-84985896D01*
X153914860Y-84856173D01*
X153949655Y-84821500D01*
X154069435Y-84702137D01*
X154073096Y-84698489D01*
X154128721Y-84621079D01*
X154203453Y-84517077D01*
X154204776Y-84518028D01*
X154251645Y-84474857D01*
X154321580Y-84462625D01*
X154387026Y-84490144D01*
X154414875Y-84521994D01*
X154474987Y-84620088D01*
X154621250Y-84788938D01*
X154793126Y-84931632D01*
X154986000Y-85044338D01*
X155194692Y-85124030D01*
X155199760Y-85125061D01*
X155199763Y-85125062D01*
X155307003Y-85146880D01*
X155413597Y-85168567D01*
X155418772Y-85168757D01*
X155418774Y-85168757D01*
X155631673Y-85176564D01*
X155631677Y-85176564D01*
X155636837Y-85176753D01*
X155641957Y-85176097D01*
X155641959Y-85176097D01*
X155853288Y-85149025D01*
X155853289Y-85149025D01*
X155858416Y-85148368D01*
X155863366Y-85146883D01*
X156067429Y-85085661D01*
X156067434Y-85085659D01*
X156072384Y-85084174D01*
X156272994Y-84985896D01*
X156454860Y-84856173D01*
X156489655Y-84821500D01*
X156609435Y-84702137D01*
X156613096Y-84698489D01*
X156668721Y-84621079D01*
X156743453Y-84517077D01*
X156744776Y-84518028D01*
X156791645Y-84474857D01*
X156861580Y-84462625D01*
X156927026Y-84490144D01*
X156954875Y-84521994D01*
X157014987Y-84620088D01*
X157161250Y-84788938D01*
X157333126Y-84931632D01*
X157526000Y-85044338D01*
X157734692Y-85124030D01*
X157739760Y-85125061D01*
X157739763Y-85125062D01*
X157847003Y-85146880D01*
X157953597Y-85168567D01*
X157958772Y-85168757D01*
X157958774Y-85168757D01*
X158171673Y-85176564D01*
X158171677Y-85176564D01*
X158176837Y-85176753D01*
X158181957Y-85176097D01*
X158181959Y-85176097D01*
X158393288Y-85149025D01*
X158393289Y-85149025D01*
X158398416Y-85148368D01*
X158403366Y-85146883D01*
X158607429Y-85085661D01*
X158607434Y-85085659D01*
X158612384Y-85084174D01*
X158812994Y-84985896D01*
X158994860Y-84856173D01*
X159029655Y-84821500D01*
X159149435Y-84702137D01*
X159153096Y-84698489D01*
X159208721Y-84621079D01*
X159283453Y-84517077D01*
X159284776Y-84518028D01*
X159331645Y-84474857D01*
X159401580Y-84462625D01*
X159467026Y-84490144D01*
X159494875Y-84521994D01*
X159554987Y-84620088D01*
X159701250Y-84788938D01*
X159873126Y-84931632D01*
X160066000Y-85044338D01*
X160274692Y-85124030D01*
X160279760Y-85125061D01*
X160279763Y-85125062D01*
X160387003Y-85146880D01*
X160493597Y-85168567D01*
X160498772Y-85168757D01*
X160498774Y-85168757D01*
X160711673Y-85176564D01*
X160711677Y-85176564D01*
X160716837Y-85176753D01*
X160721957Y-85176097D01*
X160721959Y-85176097D01*
X160933288Y-85149025D01*
X160933289Y-85149025D01*
X160938416Y-85148368D01*
X160943361Y-85146884D01*
X160943377Y-85146881D01*
X160964984Y-85140398D01*
X161035979Y-85139980D01*
X161095930Y-85178012D01*
X161125802Y-85242419D01*
X161116111Y-85312751D01*
X161110312Y-85324081D01*
X161090473Y-85358444D01*
X161031458Y-85540072D01*
X161011496Y-85730000D01*
X161012186Y-85736565D01*
X161030243Y-85908365D01*
X161031458Y-85919928D01*
X161090473Y-86101556D01*
X161185960Y-86266944D01*
X161313747Y-86408866D01*
X161468248Y-86521118D01*
X161474276Y-86523802D01*
X161474278Y-86523803D01*
X161634563Y-86595166D01*
X161642712Y-86598794D01*
X161736112Y-86618647D01*
X161823056Y-86637128D01*
X161823061Y-86637128D01*
X161829513Y-86638500D01*
X162020487Y-86638500D01*
X162026939Y-86637128D01*
X162026944Y-86637128D01*
X162113888Y-86618647D01*
X162207288Y-86598794D01*
X162215437Y-86595166D01*
X162375722Y-86523803D01*
X162375724Y-86523802D01*
X162381752Y-86521118D01*
X162536253Y-86408866D01*
X162664040Y-86266944D01*
X162759527Y-86101556D01*
X162818542Y-85919928D01*
X162819758Y-85908365D01*
X162837814Y-85736565D01*
X162838504Y-85730000D01*
X162818542Y-85540072D01*
X162759527Y-85358444D01*
X162738687Y-85322348D01*
X162721949Y-85253353D01*
X162745169Y-85186261D01*
X162800977Y-85142374D01*
X162872927Y-85135878D01*
X163033597Y-85168567D01*
X163038772Y-85168757D01*
X163038774Y-85168757D01*
X163251673Y-85176564D01*
X163251677Y-85176564D01*
X163256837Y-85176753D01*
X163261957Y-85176097D01*
X163261959Y-85176097D01*
X163473288Y-85149025D01*
X163473289Y-85149025D01*
X163478416Y-85148368D01*
X163483366Y-85146883D01*
X163687429Y-85085661D01*
X163687434Y-85085659D01*
X163692384Y-85084174D01*
X163892994Y-84985896D01*
X164074860Y-84856173D01*
X164109655Y-84821500D01*
X164229435Y-84702137D01*
X164233096Y-84698489D01*
X164288721Y-84621079D01*
X164363453Y-84517077D01*
X164364776Y-84518028D01*
X164411645Y-84474857D01*
X164481580Y-84462625D01*
X164547026Y-84490144D01*
X164574875Y-84521994D01*
X164634987Y-84620088D01*
X164781250Y-84788938D01*
X164953126Y-84931632D01*
X165146000Y-85044338D01*
X165354692Y-85124030D01*
X165359760Y-85125061D01*
X165359763Y-85125062D01*
X165467003Y-85146880D01*
X165573597Y-85168567D01*
X165578772Y-85168757D01*
X165578774Y-85168757D01*
X165791673Y-85176564D01*
X165791677Y-85176564D01*
X165796837Y-85176753D01*
X165801957Y-85176097D01*
X165801959Y-85176097D01*
X166013288Y-85149025D01*
X166013289Y-85149025D01*
X166018416Y-85148368D01*
X166023366Y-85146883D01*
X166227429Y-85085661D01*
X166227434Y-85085659D01*
X166232384Y-85084174D01*
X166432994Y-84985896D01*
X166614860Y-84856173D01*
X166649655Y-84821500D01*
X166769435Y-84702137D01*
X166773096Y-84698489D01*
X166828721Y-84621079D01*
X166903453Y-84517077D01*
X166904776Y-84518028D01*
X166951645Y-84474857D01*
X167021580Y-84462625D01*
X167087026Y-84490144D01*
X167114875Y-84521994D01*
X167174987Y-84620088D01*
X167321250Y-84788938D01*
X167493126Y-84931632D01*
X167686000Y-85044338D01*
X167894692Y-85124030D01*
X167899760Y-85125061D01*
X167899763Y-85125062D01*
X168007003Y-85146880D01*
X168113597Y-85168567D01*
X168118772Y-85168757D01*
X168118774Y-85168757D01*
X168331673Y-85176564D01*
X168331677Y-85176564D01*
X168336837Y-85176753D01*
X168341957Y-85176097D01*
X168341959Y-85176097D01*
X168553288Y-85149025D01*
X168553289Y-85149025D01*
X168558416Y-85148368D01*
X168563366Y-85146883D01*
X168767429Y-85085661D01*
X168767434Y-85085659D01*
X168772384Y-85084174D01*
X168972994Y-84985896D01*
X169154860Y-84856173D01*
X169189655Y-84821500D01*
X169309435Y-84702137D01*
X169313096Y-84698489D01*
X169368721Y-84621079D01*
X169440435Y-84521277D01*
X169443453Y-84517077D01*
X169456995Y-84489678D01*
X169540136Y-84321453D01*
X169540137Y-84321451D01*
X169542430Y-84316811D01*
X169607370Y-84103069D01*
X169636529Y-83881590D01*
X169638156Y-83815000D01*
X169619852Y-83592361D01*
X169565431Y-83375702D01*
X169476354Y-83170840D01*
X169355014Y-82983277D01*
X169351538Y-82979457D01*
X169351533Y-82979450D01*
X169207435Y-82821088D01*
X169176383Y-82757242D01*
X169184779Y-82686744D01*
X169229956Y-82631976D01*
X169256400Y-82618307D01*
X169363052Y-82578325D01*
X169378649Y-82569786D01*
X169480724Y-82493285D01*
X169493285Y-82480724D01*
X169569786Y-82378649D01*
X169578324Y-82363054D01*
X169623478Y-82242606D01*
X169627105Y-82227351D01*
X169632631Y-82176486D01*
X169633000Y-82169672D01*
X169633000Y-81793115D01*
X169628525Y-81777876D01*
X169627135Y-81776671D01*
X169619452Y-81775000D01*
X167901000Y-81775000D01*
X167832879Y-81754998D01*
X167786386Y-81701342D01*
X167775000Y-81649000D01*
X167775000Y-80756885D01*
X168775000Y-80756885D01*
X168779475Y-80772124D01*
X168780865Y-80773329D01*
X168788548Y-80775000D01*
X169614884Y-80775000D01*
X169630123Y-80770525D01*
X169631328Y-80769135D01*
X169632999Y-80761452D01*
X169632999Y-80380331D01*
X169632629Y-80373510D01*
X169627105Y-80322648D01*
X169623479Y-80307396D01*
X169578324Y-80186946D01*
X169569786Y-80171351D01*
X169493285Y-80069276D01*
X169480724Y-80056715D01*
X169378649Y-79980214D01*
X169363054Y-79971676D01*
X169242606Y-79926522D01*
X169227351Y-79922895D01*
X169176486Y-79917369D01*
X169169672Y-79917000D01*
X168793115Y-79917000D01*
X168777876Y-79921475D01*
X168776671Y-79922865D01*
X168775000Y-79930548D01*
X168775000Y-80756885D01*
X167775000Y-80756885D01*
X167775000Y-79935116D01*
X167770525Y-79919877D01*
X167769135Y-79918672D01*
X167761452Y-79917001D01*
X167380331Y-79917001D01*
X167373510Y-79917371D01*
X167322648Y-79922895D01*
X167307396Y-79926521D01*
X167186946Y-79971676D01*
X167171351Y-79980214D01*
X167069276Y-80056715D01*
X167056715Y-80069276D01*
X166980214Y-80171351D01*
X166971676Y-80186946D01*
X166930297Y-80297322D01*
X166887655Y-80354087D01*
X166821093Y-80378786D01*
X166751744Y-80363578D01*
X166719121Y-80337891D01*
X166668151Y-80281876D01*
X166668145Y-80281870D01*
X166664670Y-80278051D01*
X166660619Y-80274852D01*
X166660615Y-80274848D01*
X166493414Y-80142800D01*
X166493410Y-80142798D01*
X166489359Y-80139598D01*
X166453028Y-80119542D01*
X166361970Y-80069276D01*
X166293789Y-80031638D01*
X166288920Y-80029914D01*
X166288916Y-80029912D01*
X166088087Y-79958795D01*
X166088083Y-79958794D01*
X166083212Y-79957069D01*
X166078119Y-79956162D01*
X166078116Y-79956161D01*
X165868373Y-79918800D01*
X165868367Y-79918799D01*
X165863284Y-79917894D01*
X165789452Y-79916992D01*
X165645081Y-79915228D01*
X165645079Y-79915228D01*
X165639911Y-79915165D01*
X165419091Y-79948955D01*
X165206756Y-80018357D01*
X165008607Y-80121507D01*
X165004474Y-80124610D01*
X165004471Y-80124612D01*
X164921450Y-80186946D01*
X164829965Y-80255635D01*
X164675629Y-80417138D01*
X164568201Y-80574621D01*
X164513293Y-80619621D01*
X164442768Y-80627792D01*
X164379021Y-80596538D01*
X164358324Y-80572054D01*
X164277822Y-80447617D01*
X164277820Y-80447614D01*
X164275014Y-80443277D01*
X164124670Y-80278051D01*
X164120619Y-80274852D01*
X164120615Y-80274848D01*
X163953414Y-80142800D01*
X163953410Y-80142798D01*
X163949359Y-80139598D01*
X163913028Y-80119542D01*
X163821970Y-80069276D01*
X163753789Y-80031638D01*
X163748920Y-80029914D01*
X163748916Y-80029912D01*
X163548087Y-79958795D01*
X163548083Y-79958794D01*
X163543212Y-79957069D01*
X163538119Y-79956162D01*
X163538116Y-79956161D01*
X163328373Y-79918800D01*
X163328367Y-79918799D01*
X163323284Y-79917894D01*
X163249452Y-79916992D01*
X163105081Y-79915228D01*
X163105079Y-79915228D01*
X163099911Y-79915165D01*
X162879091Y-79948955D01*
X162666756Y-80018357D01*
X162468607Y-80121507D01*
X162464474Y-80124610D01*
X162464471Y-80124612D01*
X162381450Y-80186946D01*
X162289965Y-80255635D01*
X162135629Y-80417138D01*
X162028201Y-80574621D01*
X161973293Y-80619621D01*
X161902768Y-80627792D01*
X161839021Y-80596538D01*
X161818324Y-80572054D01*
X161737822Y-80447617D01*
X161737820Y-80447614D01*
X161735014Y-80443277D01*
X161584670Y-80278051D01*
X161580619Y-80274852D01*
X161580615Y-80274848D01*
X161413414Y-80142800D01*
X161413410Y-80142798D01*
X161409359Y-80139598D01*
X161373028Y-80119542D01*
X161281970Y-80069276D01*
X161213789Y-80031638D01*
X161208920Y-80029914D01*
X161208916Y-80029912D01*
X161008087Y-79958795D01*
X161008083Y-79958794D01*
X161003212Y-79957069D01*
X160998119Y-79956162D01*
X160998116Y-79956161D01*
X160788373Y-79918800D01*
X160788367Y-79918799D01*
X160783284Y-79917894D01*
X160709452Y-79916992D01*
X160565081Y-79915228D01*
X160565079Y-79915228D01*
X160559911Y-79915165D01*
X160339091Y-79948955D01*
X160126756Y-80018357D01*
X159928607Y-80121507D01*
X159924474Y-80124610D01*
X159924471Y-80124612D01*
X159841450Y-80186946D01*
X159749965Y-80255635D01*
X159595629Y-80417138D01*
X159488201Y-80574621D01*
X159433293Y-80619621D01*
X159362768Y-80627792D01*
X159299021Y-80596538D01*
X159278324Y-80572054D01*
X159197822Y-80447617D01*
X159197820Y-80447614D01*
X159195014Y-80443277D01*
X159044670Y-80278051D01*
X159040619Y-80274852D01*
X159040615Y-80274848D01*
X158873414Y-80142800D01*
X158873410Y-80142798D01*
X158869359Y-80139598D01*
X158833028Y-80119542D01*
X158741970Y-80069276D01*
X158673789Y-80031638D01*
X158668920Y-80029914D01*
X158668916Y-80029912D01*
X158468087Y-79958795D01*
X158468083Y-79958794D01*
X158463212Y-79957069D01*
X158458119Y-79956162D01*
X158458116Y-79956161D01*
X158248373Y-79918800D01*
X158248367Y-79918799D01*
X158243284Y-79917894D01*
X158169452Y-79916992D01*
X158025081Y-79915228D01*
X158025079Y-79915228D01*
X158019911Y-79915165D01*
X157799091Y-79948955D01*
X157586756Y-80018357D01*
X157388607Y-80121507D01*
X157384474Y-80124610D01*
X157384471Y-80124612D01*
X157301450Y-80186946D01*
X157209965Y-80255635D01*
X157055629Y-80417138D01*
X156948201Y-80574621D01*
X156893293Y-80619621D01*
X156822768Y-80627792D01*
X156759021Y-80596538D01*
X156738324Y-80572054D01*
X156657822Y-80447617D01*
X156657820Y-80447614D01*
X156655014Y-80443277D01*
X156504670Y-80278051D01*
X156500619Y-80274852D01*
X156500615Y-80274848D01*
X156333414Y-80142800D01*
X156333410Y-80142798D01*
X156329359Y-80139598D01*
X156293028Y-80119542D01*
X156201970Y-80069276D01*
X156133789Y-80031638D01*
X156128920Y-80029914D01*
X156128916Y-80029912D01*
X155928087Y-79958795D01*
X155928083Y-79958794D01*
X155923212Y-79957069D01*
X155918119Y-79956162D01*
X155918116Y-79956161D01*
X155708373Y-79918800D01*
X155708367Y-79918799D01*
X155703284Y-79917894D01*
X155629452Y-79916992D01*
X155485081Y-79915228D01*
X155485079Y-79915228D01*
X155479911Y-79915165D01*
X155259091Y-79948955D01*
X155046756Y-80018357D01*
X154848607Y-80121507D01*
X154844474Y-80124610D01*
X154844471Y-80124612D01*
X154761450Y-80186946D01*
X154669965Y-80255635D01*
X154515629Y-80417138D01*
X154408201Y-80574621D01*
X154353293Y-80619621D01*
X154282768Y-80627792D01*
X154219021Y-80596538D01*
X154198324Y-80572054D01*
X154117822Y-80447617D01*
X154117820Y-80447614D01*
X154115014Y-80443277D01*
X153964670Y-80278051D01*
X153960619Y-80274852D01*
X153960615Y-80274848D01*
X153793414Y-80142800D01*
X153793410Y-80142798D01*
X153789359Y-80139598D01*
X153753028Y-80119542D01*
X153661970Y-80069276D01*
X153593789Y-80031638D01*
X153588920Y-80029914D01*
X153588916Y-80029912D01*
X153388087Y-79958795D01*
X153388083Y-79958794D01*
X153383212Y-79957069D01*
X153378119Y-79956162D01*
X153378116Y-79956161D01*
X153168373Y-79918800D01*
X153168367Y-79918799D01*
X153163284Y-79917894D01*
X153089452Y-79916992D01*
X152945081Y-79915228D01*
X152945079Y-79915228D01*
X152939911Y-79915165D01*
X152719091Y-79948955D01*
X152506756Y-80018357D01*
X152308607Y-80121507D01*
X152304474Y-80124610D01*
X152304471Y-80124612D01*
X152221450Y-80186946D01*
X152129965Y-80255635D01*
X151975629Y-80417138D01*
X151868201Y-80574621D01*
X151813293Y-80619621D01*
X151742768Y-80627792D01*
X151679021Y-80596538D01*
X151658324Y-80572054D01*
X151577822Y-80447617D01*
X151577820Y-80447614D01*
X151575014Y-80443277D01*
X151424670Y-80278051D01*
X151420619Y-80274852D01*
X151420615Y-80274848D01*
X151253414Y-80142800D01*
X151253410Y-80142798D01*
X151249359Y-80139598D01*
X151213028Y-80119542D01*
X151121970Y-80069276D01*
X151053789Y-80031638D01*
X151048920Y-80029914D01*
X151048916Y-80029912D01*
X150848087Y-79958795D01*
X150848083Y-79958794D01*
X150843212Y-79957069D01*
X150838119Y-79956162D01*
X150838116Y-79956161D01*
X150628373Y-79918800D01*
X150628367Y-79918799D01*
X150623284Y-79917894D01*
X150549452Y-79916992D01*
X150405081Y-79915228D01*
X150405079Y-79915228D01*
X150399911Y-79915165D01*
X150179091Y-79948955D01*
X149966756Y-80018357D01*
X149768607Y-80121507D01*
X149764474Y-80124610D01*
X149764471Y-80124612D01*
X149681450Y-80186946D01*
X149589965Y-80255635D01*
X149435629Y-80417138D01*
X149328201Y-80574621D01*
X149273293Y-80619621D01*
X149202768Y-80627792D01*
X149139021Y-80596538D01*
X149118324Y-80572054D01*
X149037822Y-80447617D01*
X149037820Y-80447614D01*
X149035014Y-80443277D01*
X148884670Y-80278051D01*
X148880619Y-80274852D01*
X148880615Y-80274848D01*
X148713414Y-80142800D01*
X148713410Y-80142798D01*
X148709359Y-80139598D01*
X148673028Y-80119542D01*
X148581970Y-80069276D01*
X148513789Y-80031638D01*
X148508920Y-80029914D01*
X148508916Y-80029912D01*
X148308087Y-79958795D01*
X148308083Y-79958794D01*
X148303212Y-79957069D01*
X148298119Y-79956162D01*
X148298116Y-79956161D01*
X148088373Y-79918800D01*
X148088367Y-79918799D01*
X148083284Y-79917894D01*
X148009452Y-79916992D01*
X147865081Y-79915228D01*
X147865079Y-79915228D01*
X147859911Y-79915165D01*
X147639091Y-79948955D01*
X147426756Y-80018357D01*
X147228607Y-80121507D01*
X147224474Y-80124610D01*
X147224471Y-80124612D01*
X147141450Y-80186946D01*
X147049965Y-80255635D01*
X146895629Y-80417138D01*
X146892720Y-80421403D01*
X146892714Y-80421411D01*
X146880404Y-80439457D01*
X146788204Y-80574618D01*
X146787898Y-80575066D01*
X146732987Y-80620069D01*
X146662462Y-80628240D01*
X146598715Y-80596986D01*
X146578018Y-80572502D01*
X146497426Y-80447926D01*
X146491136Y-80439757D01*
X146347806Y-80282240D01*
X146340273Y-80275215D01*
X146173139Y-80143222D01*
X146164552Y-80137517D01*
X145978114Y-80034597D01*
X145968705Y-80030369D01*
X145932076Y-80017398D01*
X145917996Y-80016626D01*
X145915000Y-80022337D01*
X145915000Y-81649000D01*
X145894998Y-81717121D01*
X145841342Y-81763614D01*
X145789000Y-81775000D01*
X145041000Y-81775000D01*
X144972879Y-81754998D01*
X144926386Y-81701342D01*
X144915000Y-81649000D01*
X144915000Y-80027766D01*
X144911027Y-80014235D01*
X144904045Y-80013231D01*
X144891868Y-80017212D01*
X144882359Y-80021209D01*
X144693463Y-80119542D01*
X144684738Y-80125036D01*
X144514433Y-80252905D01*
X144506726Y-80259748D01*
X144359590Y-80413717D01*
X144353109Y-80421722D01*
X144248498Y-80575074D01*
X144193587Y-80620076D01*
X144123062Y-80628247D01*
X144059315Y-80596993D01*
X144038618Y-80572509D01*
X143957822Y-80447617D01*
X143957820Y-80447614D01*
X143955014Y-80443277D01*
X143804670Y-80278051D01*
X143800619Y-80274852D01*
X143800615Y-80274848D01*
X143633414Y-80142800D01*
X143633410Y-80142798D01*
X143629359Y-80139598D01*
X143593028Y-80119542D01*
X143501970Y-80069276D01*
X143433789Y-80031638D01*
X143428920Y-80029914D01*
X143428916Y-80029912D01*
X143228087Y-79958795D01*
X143228083Y-79958794D01*
X143223212Y-79957069D01*
X143218119Y-79956162D01*
X143218116Y-79956161D01*
X143008373Y-79918800D01*
X143008367Y-79918799D01*
X143003284Y-79917894D01*
X142929452Y-79916992D01*
X142785081Y-79915228D01*
X142785079Y-79915228D01*
X142779911Y-79915165D01*
X142559091Y-79948955D01*
X142346756Y-80018357D01*
X142148607Y-80121507D01*
X142144474Y-80124610D01*
X142144471Y-80124612D01*
X142061450Y-80186946D01*
X141969965Y-80255635D01*
X141815629Y-80417138D01*
X141708201Y-80574621D01*
X141653293Y-80619621D01*
X141582768Y-80627792D01*
X141519021Y-80596538D01*
X141498324Y-80572054D01*
X141417822Y-80447617D01*
X141417820Y-80447614D01*
X141415014Y-80443277D01*
X141264670Y-80278051D01*
X141260619Y-80274852D01*
X141260615Y-80274848D01*
X141093414Y-80142800D01*
X141093410Y-80142798D01*
X141089359Y-80139598D01*
X141053028Y-80119542D01*
X140961970Y-80069276D01*
X140893789Y-80031638D01*
X140888920Y-80029914D01*
X140888916Y-80029912D01*
X140688087Y-79958795D01*
X140688083Y-79958794D01*
X140683212Y-79957069D01*
X140678119Y-79956162D01*
X140678116Y-79956161D01*
X140468373Y-79918800D01*
X140468367Y-79918799D01*
X140463284Y-79917894D01*
X140389452Y-79916992D01*
X140245081Y-79915228D01*
X140245079Y-79915228D01*
X140239911Y-79915165D01*
X140019091Y-79948955D01*
X139806756Y-80018357D01*
X139608607Y-80121507D01*
X139604474Y-80124610D01*
X139604471Y-80124612D01*
X139521450Y-80186946D01*
X139429965Y-80255635D01*
X139275629Y-80417138D01*
X139168201Y-80574621D01*
X139113293Y-80619621D01*
X139042768Y-80627792D01*
X138979021Y-80596538D01*
X138958324Y-80572054D01*
X138877822Y-80447617D01*
X138877820Y-80447614D01*
X138875014Y-80443277D01*
X138724670Y-80278051D01*
X138720619Y-80274852D01*
X138720615Y-80274848D01*
X138553414Y-80142800D01*
X138553410Y-80142798D01*
X138549359Y-80139598D01*
X138513028Y-80119542D01*
X138421970Y-80069276D01*
X138353789Y-80031638D01*
X138348920Y-80029914D01*
X138348916Y-80029912D01*
X138148087Y-79958795D01*
X138148083Y-79958794D01*
X138143212Y-79957069D01*
X138138119Y-79956162D01*
X138138116Y-79956161D01*
X137928373Y-79918800D01*
X137928367Y-79918799D01*
X137923284Y-79917894D01*
X137849452Y-79916992D01*
X137705081Y-79915228D01*
X137705079Y-79915228D01*
X137699911Y-79915165D01*
X137479091Y-79948955D01*
X137266756Y-80018357D01*
X137068607Y-80121507D01*
X137064474Y-80124610D01*
X137064471Y-80124612D01*
X136981450Y-80186946D01*
X136889965Y-80255635D01*
X136735629Y-80417138D01*
X136628201Y-80574621D01*
X136573293Y-80619621D01*
X136502768Y-80627792D01*
X136439021Y-80596538D01*
X136418324Y-80572054D01*
X136337822Y-80447617D01*
X136337820Y-80447614D01*
X136335014Y-80443277D01*
X136184670Y-80278051D01*
X136180619Y-80274852D01*
X136180615Y-80274848D01*
X136013414Y-80142800D01*
X136013410Y-80142798D01*
X136009359Y-80139598D01*
X135973028Y-80119542D01*
X135881970Y-80069276D01*
X135813789Y-80031638D01*
X135808920Y-80029914D01*
X135808916Y-80029912D01*
X135608087Y-79958795D01*
X135608083Y-79958794D01*
X135603212Y-79957069D01*
X135598119Y-79956162D01*
X135598116Y-79956161D01*
X135388373Y-79918800D01*
X135388367Y-79918799D01*
X135383284Y-79917894D01*
X135309452Y-79916992D01*
X135165081Y-79915228D01*
X135165079Y-79915228D01*
X135159911Y-79915165D01*
X134939091Y-79948955D01*
X134726756Y-80018357D01*
X134528607Y-80121507D01*
X134524474Y-80124610D01*
X134524471Y-80124612D01*
X134441450Y-80186946D01*
X134349965Y-80255635D01*
X134195629Y-80417138D01*
X134088201Y-80574621D01*
X134033293Y-80619621D01*
X133962768Y-80627792D01*
X133899021Y-80596538D01*
X133878324Y-80572054D01*
X133797822Y-80447617D01*
X133797820Y-80447614D01*
X133795014Y-80443277D01*
X133644670Y-80278051D01*
X133640619Y-80274852D01*
X133640615Y-80274848D01*
X133473414Y-80142800D01*
X133473410Y-80142798D01*
X133469359Y-80139598D01*
X133433028Y-80119542D01*
X133341970Y-80069276D01*
X133273789Y-80031638D01*
X133268920Y-80029914D01*
X133268916Y-80029912D01*
X133068087Y-79958795D01*
X133068083Y-79958794D01*
X133063212Y-79957069D01*
X133058119Y-79956162D01*
X133058116Y-79956161D01*
X132848373Y-79918800D01*
X132848367Y-79918799D01*
X132843284Y-79917894D01*
X132769452Y-79916992D01*
X132625081Y-79915228D01*
X132625079Y-79915228D01*
X132619911Y-79915165D01*
X132399091Y-79948955D01*
X132186756Y-80018357D01*
X131988607Y-80121507D01*
X131984474Y-80124610D01*
X131984471Y-80124612D01*
X131901450Y-80186946D01*
X131809965Y-80255635D01*
X131655629Y-80417138D01*
X131548201Y-80574621D01*
X131493293Y-80619621D01*
X131422768Y-80627792D01*
X131359021Y-80596538D01*
X131338324Y-80572054D01*
X131257822Y-80447617D01*
X131257820Y-80447614D01*
X131255014Y-80443277D01*
X131104670Y-80278051D01*
X131100619Y-80274852D01*
X131100615Y-80274848D01*
X130933414Y-80142800D01*
X130933410Y-80142798D01*
X130929359Y-80139598D01*
X130893028Y-80119542D01*
X130801970Y-80069276D01*
X130733789Y-80031638D01*
X130728920Y-80029914D01*
X130728916Y-80029912D01*
X130528087Y-79958795D01*
X130528083Y-79958794D01*
X130523212Y-79957069D01*
X130518119Y-79956162D01*
X130518116Y-79956161D01*
X130308373Y-79918800D01*
X130308367Y-79918799D01*
X130303284Y-79917894D01*
X130229452Y-79916992D01*
X130085081Y-79915228D01*
X130085079Y-79915228D01*
X130079911Y-79915165D01*
X129859091Y-79948955D01*
X129646756Y-80018357D01*
X129448607Y-80121507D01*
X129444474Y-80124610D01*
X129444471Y-80124612D01*
X129361450Y-80186946D01*
X129269965Y-80255635D01*
X129115629Y-80417138D01*
X129008201Y-80574621D01*
X128953293Y-80619621D01*
X128882768Y-80627792D01*
X128819021Y-80596538D01*
X128798324Y-80572054D01*
X128717822Y-80447617D01*
X128717820Y-80447614D01*
X128715014Y-80443277D01*
X128564670Y-80278051D01*
X128560619Y-80274852D01*
X128560615Y-80274848D01*
X128393414Y-80142800D01*
X128393410Y-80142798D01*
X128389359Y-80139598D01*
X128353028Y-80119542D01*
X128261970Y-80069276D01*
X128193789Y-80031638D01*
X128188920Y-80029914D01*
X128188916Y-80029912D01*
X127988087Y-79958795D01*
X127988083Y-79958794D01*
X127983212Y-79957069D01*
X127978119Y-79956162D01*
X127978116Y-79956161D01*
X127768373Y-79918800D01*
X127768367Y-79918799D01*
X127763284Y-79917894D01*
X127689452Y-79916992D01*
X127545081Y-79915228D01*
X127545079Y-79915228D01*
X127539911Y-79915165D01*
X127319091Y-79948955D01*
X127106756Y-80018357D01*
X126908607Y-80121507D01*
X126904474Y-80124610D01*
X126904471Y-80124612D01*
X126821450Y-80186946D01*
X126729965Y-80255635D01*
X126575629Y-80417138D01*
X126468201Y-80574621D01*
X126413293Y-80619621D01*
X126342768Y-80627792D01*
X126279021Y-80596538D01*
X126258324Y-80572054D01*
X126177822Y-80447617D01*
X126177820Y-80447614D01*
X126175014Y-80443277D01*
X126024670Y-80278051D01*
X126020619Y-80274852D01*
X126020615Y-80274848D01*
X125853414Y-80142800D01*
X125853410Y-80142798D01*
X125849359Y-80139598D01*
X125813028Y-80119542D01*
X125721970Y-80069276D01*
X125653789Y-80031638D01*
X125648920Y-80029914D01*
X125648916Y-80029912D01*
X125448087Y-79958795D01*
X125448083Y-79958794D01*
X125443212Y-79957069D01*
X125438119Y-79956162D01*
X125438116Y-79956161D01*
X125228373Y-79918800D01*
X125228367Y-79918799D01*
X125223284Y-79917894D01*
X125149452Y-79916992D01*
X125005081Y-79915228D01*
X125005079Y-79915228D01*
X124999911Y-79915165D01*
X124779091Y-79948955D01*
X124566756Y-80018357D01*
X124368607Y-80121507D01*
X124364474Y-80124610D01*
X124364471Y-80124612D01*
X124281450Y-80186946D01*
X124189965Y-80255635D01*
X124035629Y-80417138D01*
X123928201Y-80574621D01*
X123873293Y-80619621D01*
X123802768Y-80627792D01*
X123739021Y-80596538D01*
X123718324Y-80572054D01*
X123637822Y-80447617D01*
X123637820Y-80447614D01*
X123635014Y-80443277D01*
X123484670Y-80278051D01*
X123480619Y-80274852D01*
X123480615Y-80274848D01*
X123313414Y-80142800D01*
X123313410Y-80142798D01*
X123309359Y-80139598D01*
X123273028Y-80119542D01*
X123181970Y-80069276D01*
X123113789Y-80031638D01*
X123108920Y-80029914D01*
X123108916Y-80029912D01*
X122908087Y-79958795D01*
X122908083Y-79958794D01*
X122903212Y-79957069D01*
X122898119Y-79956162D01*
X122898116Y-79956161D01*
X122688373Y-79918800D01*
X122688367Y-79918799D01*
X122683284Y-79917894D01*
X122609452Y-79916992D01*
X122465081Y-79915228D01*
X122465079Y-79915228D01*
X122459911Y-79915165D01*
X122239091Y-79948955D01*
X122026756Y-80018357D01*
X121828607Y-80121507D01*
X121824474Y-80124610D01*
X121824471Y-80124612D01*
X121741450Y-80186946D01*
X121649965Y-80255635D01*
X121495629Y-80417138D01*
X121388201Y-80574621D01*
X121333293Y-80619621D01*
X121262768Y-80627792D01*
X121199021Y-80596538D01*
X121178324Y-80572054D01*
X121097822Y-80447617D01*
X121097820Y-80447614D01*
X121095014Y-80443277D01*
X120944670Y-80278051D01*
X120940619Y-80274852D01*
X120940615Y-80274848D01*
X120773414Y-80142800D01*
X120773410Y-80142798D01*
X120769359Y-80139598D01*
X120733028Y-80119542D01*
X120641970Y-80069276D01*
X120573789Y-80031638D01*
X120568920Y-80029914D01*
X120568916Y-80029912D01*
X120368087Y-79958795D01*
X120368083Y-79958794D01*
X120363212Y-79957069D01*
X120358119Y-79956162D01*
X120358116Y-79956161D01*
X120148373Y-79918800D01*
X120148367Y-79918799D01*
X120143284Y-79917894D01*
X120069452Y-79916992D01*
X119925081Y-79915228D01*
X119925079Y-79915228D01*
X119919911Y-79915165D01*
X119699091Y-79948955D01*
X119486756Y-80018357D01*
X119288607Y-80121507D01*
X119284474Y-80124610D01*
X119284471Y-80124612D01*
X119201450Y-80186946D01*
X119109965Y-80255635D01*
X118955629Y-80417138D01*
X118848201Y-80574621D01*
X118793293Y-80619621D01*
X118722768Y-80627792D01*
X118659021Y-80596538D01*
X118638324Y-80572054D01*
X118557822Y-80447617D01*
X118557820Y-80447614D01*
X118555014Y-80443277D01*
X118404670Y-80278051D01*
X118400619Y-80274852D01*
X118400615Y-80274848D01*
X118233414Y-80142800D01*
X118233410Y-80142798D01*
X118229359Y-80139598D01*
X118193028Y-80119542D01*
X118101970Y-80069276D01*
X118033789Y-80031638D01*
X118028920Y-80029914D01*
X118028916Y-80029912D01*
X117828087Y-79958795D01*
X117828083Y-79958794D01*
X117823212Y-79957069D01*
X117818119Y-79956162D01*
X117818116Y-79956161D01*
X117608373Y-79918800D01*
X117608367Y-79918799D01*
X117603284Y-79917894D01*
X117529452Y-79916992D01*
X117385081Y-79915228D01*
X117385079Y-79915228D01*
X117379911Y-79915165D01*
X117159091Y-79948955D01*
X116946756Y-80018357D01*
X116748607Y-80121507D01*
X116744474Y-80124610D01*
X116744471Y-80124612D01*
X116661450Y-80186946D01*
X116569965Y-80255635D01*
X116415629Y-80417138D01*
X116308201Y-80574621D01*
X116253293Y-80619621D01*
X116182768Y-80627792D01*
X116119021Y-80596538D01*
X116098324Y-80572054D01*
X116017822Y-80447617D01*
X116017820Y-80447614D01*
X116015014Y-80443277D01*
X115864670Y-80278051D01*
X115860619Y-80274852D01*
X115860615Y-80274848D01*
X115693414Y-80142800D01*
X115693410Y-80142798D01*
X115689359Y-80139598D01*
X115653028Y-80119542D01*
X115561970Y-80069276D01*
X115493789Y-80031638D01*
X115488920Y-80029914D01*
X115488916Y-80029912D01*
X115288087Y-79958795D01*
X115288083Y-79958794D01*
X115283212Y-79957069D01*
X115278119Y-79956162D01*
X115278116Y-79956161D01*
X115068373Y-79918800D01*
X115068367Y-79918799D01*
X115063284Y-79917894D01*
X114989452Y-79916992D01*
X114845081Y-79915228D01*
X114845079Y-79915228D01*
X114839911Y-79915165D01*
X114619091Y-79948955D01*
X114406756Y-80018357D01*
X114208607Y-80121507D01*
X114204474Y-80124610D01*
X114204471Y-80124612D01*
X114121450Y-80186946D01*
X114029965Y-80255635D01*
X113875629Y-80417138D01*
X113768201Y-80574621D01*
X113713293Y-80619621D01*
X113642768Y-80627792D01*
X113579021Y-80596538D01*
X113558324Y-80572054D01*
X113477822Y-80447617D01*
X113477820Y-80447614D01*
X113475014Y-80443277D01*
X113324670Y-80278051D01*
X113320619Y-80274852D01*
X113320615Y-80274848D01*
X113153414Y-80142800D01*
X113153410Y-80142798D01*
X113149359Y-80139598D01*
X113113028Y-80119542D01*
X113021970Y-80069276D01*
X112953789Y-80031638D01*
X112948920Y-80029914D01*
X112948916Y-80029912D01*
X112748087Y-79958795D01*
X112748083Y-79958794D01*
X112743212Y-79957069D01*
X112738119Y-79956162D01*
X112738116Y-79956161D01*
X112528373Y-79918800D01*
X112528367Y-79918799D01*
X112523284Y-79917894D01*
X112449452Y-79916992D01*
X112305081Y-79915228D01*
X112305079Y-79915228D01*
X112299911Y-79915165D01*
X112079091Y-79948955D01*
X111866756Y-80018357D01*
X111668607Y-80121507D01*
X111664474Y-80124610D01*
X111664471Y-80124612D01*
X111581450Y-80186946D01*
X111489965Y-80255635D01*
X111335629Y-80417138D01*
X111228201Y-80574621D01*
X111173293Y-80619621D01*
X111102768Y-80627792D01*
X111039021Y-80596538D01*
X111018324Y-80572054D01*
X110937822Y-80447617D01*
X110937820Y-80447614D01*
X110935014Y-80443277D01*
X110784670Y-80278051D01*
X110780619Y-80274852D01*
X110780615Y-80274848D01*
X110613414Y-80142800D01*
X110613410Y-80142798D01*
X110609359Y-80139598D01*
X110573028Y-80119542D01*
X110481970Y-80069276D01*
X110413789Y-80031638D01*
X110408920Y-80029914D01*
X110408916Y-80029912D01*
X110208087Y-79958795D01*
X110208083Y-79958794D01*
X110203212Y-79957069D01*
X110198119Y-79956162D01*
X110198116Y-79956161D01*
X109988373Y-79918800D01*
X109988367Y-79918799D01*
X109983284Y-79917894D01*
X109909452Y-79916992D01*
X109765081Y-79915228D01*
X109765079Y-79915228D01*
X109759911Y-79915165D01*
X109539091Y-79948955D01*
X109326756Y-80018357D01*
X109128607Y-80121507D01*
X109124474Y-80124610D01*
X109124471Y-80124612D01*
X109041450Y-80186946D01*
X108949965Y-80255635D01*
X108795629Y-80417138D01*
X108688201Y-80574621D01*
X108633293Y-80619621D01*
X108562768Y-80627792D01*
X108499021Y-80596538D01*
X108478324Y-80572054D01*
X108397822Y-80447617D01*
X108397820Y-80447614D01*
X108395014Y-80443277D01*
X108244670Y-80278051D01*
X108240619Y-80274852D01*
X108240615Y-80274848D01*
X108073414Y-80142800D01*
X108073410Y-80142798D01*
X108069359Y-80139598D01*
X108033028Y-80119542D01*
X107941970Y-80069276D01*
X107873789Y-80031638D01*
X107868920Y-80029914D01*
X107868916Y-80029912D01*
X107668087Y-79958795D01*
X107668083Y-79958794D01*
X107663212Y-79957069D01*
X107658119Y-79956162D01*
X107658116Y-79956161D01*
X107448373Y-79918800D01*
X107448367Y-79918799D01*
X107443284Y-79917894D01*
X107369452Y-79916992D01*
X107225081Y-79915228D01*
X107225079Y-79915228D01*
X107219911Y-79915165D01*
X106999091Y-79948955D01*
X106786756Y-80018357D01*
X106588607Y-80121507D01*
X106584474Y-80124610D01*
X106584471Y-80124612D01*
X106501450Y-80186946D01*
X106409965Y-80255635D01*
X106255629Y-80417138D01*
X106148201Y-80574621D01*
X106093293Y-80619621D01*
X106022768Y-80627792D01*
X105959021Y-80596538D01*
X105938324Y-80572054D01*
X105857822Y-80447617D01*
X105857820Y-80447614D01*
X105855014Y-80443277D01*
X105704670Y-80278051D01*
X105700619Y-80274852D01*
X105700615Y-80274848D01*
X105533414Y-80142800D01*
X105533410Y-80142798D01*
X105529359Y-80139598D01*
X105493028Y-80119542D01*
X105401970Y-80069276D01*
X105333789Y-80031638D01*
X105328920Y-80029914D01*
X105328916Y-80029912D01*
X105128087Y-79958795D01*
X105128083Y-79958794D01*
X105123212Y-79957069D01*
X105118119Y-79956162D01*
X105118116Y-79956161D01*
X104908373Y-79918800D01*
X104908367Y-79918799D01*
X104903284Y-79917894D01*
X104829452Y-79916992D01*
X104685081Y-79915228D01*
X104685079Y-79915228D01*
X104679911Y-79915165D01*
X104459091Y-79948955D01*
X104246756Y-80018357D01*
X104048607Y-80121507D01*
X104044474Y-80124610D01*
X104044471Y-80124612D01*
X103961450Y-80186946D01*
X103869965Y-80255635D01*
X103715629Y-80417138D01*
X103608201Y-80574621D01*
X103553293Y-80619621D01*
X103482768Y-80627792D01*
X103419021Y-80596538D01*
X103398324Y-80572054D01*
X103317822Y-80447617D01*
X103317820Y-80447614D01*
X103315014Y-80443277D01*
X103164670Y-80278051D01*
X103160619Y-80274852D01*
X103160615Y-80274848D01*
X102993414Y-80142800D01*
X102993410Y-80142798D01*
X102989359Y-80139598D01*
X102953028Y-80119542D01*
X102861970Y-80069276D01*
X102793789Y-80031638D01*
X102788920Y-80029914D01*
X102788916Y-80029912D01*
X102588087Y-79958795D01*
X102588083Y-79958794D01*
X102583212Y-79957069D01*
X102578119Y-79956162D01*
X102578116Y-79956161D01*
X102368373Y-79918800D01*
X102368367Y-79918799D01*
X102363284Y-79917894D01*
X102289452Y-79916992D01*
X102145081Y-79915228D01*
X102145079Y-79915228D01*
X102139911Y-79915165D01*
X101919091Y-79948955D01*
X101706756Y-80018357D01*
X101508607Y-80121507D01*
X101504474Y-80124610D01*
X101504471Y-80124612D01*
X101421450Y-80186946D01*
X101329965Y-80255635D01*
X101175629Y-80417138D01*
X101068201Y-80574621D01*
X101013293Y-80619621D01*
X100942768Y-80627792D01*
X100879021Y-80596538D01*
X100858324Y-80572054D01*
X100777822Y-80447617D01*
X100777820Y-80447614D01*
X100775014Y-80443277D01*
X100624670Y-80278051D01*
X100620619Y-80274852D01*
X100620615Y-80274848D01*
X100453414Y-80142800D01*
X100453410Y-80142798D01*
X100449359Y-80139598D01*
X100413028Y-80119542D01*
X100321970Y-80069276D01*
X100253789Y-80031638D01*
X100248920Y-80029914D01*
X100248916Y-80029912D01*
X100048087Y-79958795D01*
X100048083Y-79958794D01*
X100043212Y-79957069D01*
X100038119Y-79956162D01*
X100038116Y-79956161D01*
X99828373Y-79918800D01*
X99828367Y-79918799D01*
X99823284Y-79917894D01*
X99749452Y-79916992D01*
X99605081Y-79915228D01*
X99605079Y-79915228D01*
X99599911Y-79915165D01*
X99379091Y-79948955D01*
X99166756Y-80018357D01*
X98968607Y-80121507D01*
X98964474Y-80124610D01*
X98964471Y-80124612D01*
X98881450Y-80186946D01*
X98789965Y-80255635D01*
X98635629Y-80417138D01*
X98528201Y-80574621D01*
X98473293Y-80619621D01*
X98402768Y-80627792D01*
X98339021Y-80596538D01*
X98318324Y-80572054D01*
X98237822Y-80447617D01*
X98237820Y-80447614D01*
X98235014Y-80443277D01*
X98084670Y-80278051D01*
X98080619Y-80274852D01*
X98080615Y-80274848D01*
X97913414Y-80142800D01*
X97913410Y-80142798D01*
X97909359Y-80139598D01*
X97873028Y-80119542D01*
X97781970Y-80069276D01*
X97713789Y-80031638D01*
X97708920Y-80029914D01*
X97708916Y-80029912D01*
X97508087Y-79958795D01*
X97508083Y-79958794D01*
X97503212Y-79957069D01*
X97498119Y-79956162D01*
X97498116Y-79956161D01*
X97288373Y-79918800D01*
X97288367Y-79918799D01*
X97283284Y-79917894D01*
X97209452Y-79916992D01*
X97065081Y-79915228D01*
X97065079Y-79915228D01*
X97059911Y-79915165D01*
X96839091Y-79948955D01*
X96626756Y-80018357D01*
X96428607Y-80121507D01*
X96424474Y-80124610D01*
X96424471Y-80124612D01*
X96341450Y-80186946D01*
X96249965Y-80255635D01*
X96095629Y-80417138D01*
X95988201Y-80574621D01*
X95933293Y-80619621D01*
X95862768Y-80627792D01*
X95799021Y-80596538D01*
X95778324Y-80572054D01*
X95697822Y-80447617D01*
X95697820Y-80447614D01*
X95695014Y-80443277D01*
X95544670Y-80278051D01*
X95540619Y-80274852D01*
X95540615Y-80274848D01*
X95373414Y-80142800D01*
X95373410Y-80142798D01*
X95369359Y-80139598D01*
X95333028Y-80119542D01*
X95241970Y-80069276D01*
X95173789Y-80031638D01*
X95168920Y-80029914D01*
X95168916Y-80029912D01*
X94968087Y-79958795D01*
X94968083Y-79958794D01*
X94963212Y-79957069D01*
X94958119Y-79956162D01*
X94958116Y-79956161D01*
X94748373Y-79918800D01*
X94748367Y-79918799D01*
X94743284Y-79917894D01*
X94669452Y-79916992D01*
X94525081Y-79915228D01*
X94525079Y-79915228D01*
X94519911Y-79915165D01*
X94299091Y-79948955D01*
X94086756Y-80018357D01*
X93888607Y-80121507D01*
X93884474Y-80124610D01*
X93884471Y-80124612D01*
X93801450Y-80186946D01*
X93709965Y-80255635D01*
X93555629Y-80417138D01*
X93552720Y-80421403D01*
X93552714Y-80421411D01*
X93540404Y-80439457D01*
X93448204Y-80574618D01*
X93447898Y-80575066D01*
X93392987Y-80620069D01*
X93322462Y-80628240D01*
X93258715Y-80596986D01*
X93238018Y-80572502D01*
X93157426Y-80447926D01*
X93151136Y-80439757D01*
X93007806Y-80282240D01*
X93000273Y-80275215D01*
X92833139Y-80143222D01*
X92824552Y-80137517D01*
X92638114Y-80034597D01*
X92628705Y-80030369D01*
X92592076Y-80017398D01*
X92577996Y-80016626D01*
X92575000Y-80022337D01*
X92575000Y-81649000D01*
X92554998Y-81717121D01*
X92501342Y-81763614D01*
X92449000Y-81775000D01*
X90830380Y-81775000D01*
X90816849Y-81778973D01*
X90816072Y-81784376D01*
X90856770Y-81884603D01*
X90861413Y-81893794D01*
X90972694Y-82075388D01*
X90978777Y-82083699D01*
X91118213Y-82244667D01*
X91125580Y-82251883D01*
X91289434Y-82387916D01*
X91297881Y-82393831D01*
X91366969Y-82434203D01*
X91415693Y-82485842D01*
X91428764Y-82555625D01*
X91402033Y-82621396D01*
X91361584Y-82654752D01*
X91348607Y-82661507D01*
X91344474Y-82664610D01*
X91344471Y-82664612D01*
X91174100Y-82792530D01*
X91169965Y-82795635D01*
X91015629Y-82957138D01*
X90889743Y-83141680D01*
X90874003Y-83175590D01*
X90804006Y-83326386D01*
X90795688Y-83344305D01*
X90735989Y-83559570D01*
X90712251Y-83781695D01*
X90041409Y-83781695D01*
X90040687Y-80772513D01*
X90815376Y-80772513D01*
X90819193Y-80775000D01*
X91556885Y-80775000D01*
X91572124Y-80770525D01*
X91573329Y-80769135D01*
X91575000Y-80761452D01*
X91575000Y-80027766D01*
X91571027Y-80014235D01*
X91564045Y-80013231D01*
X91551868Y-80017212D01*
X91542359Y-80021209D01*
X91353463Y-80119542D01*
X91344738Y-80125036D01*
X91174433Y-80252905D01*
X91166726Y-80259748D01*
X91019590Y-80413717D01*
X91013104Y-80421727D01*
X90893098Y-80597649D01*
X90888000Y-80606623D01*
X90817469Y-80758570D01*
X90815376Y-80772513D01*
X90040687Y-80772513D01*
X90040200Y-78740000D01*
X105131496Y-78740000D01*
X105151458Y-78929928D01*
X105210473Y-79111556D01*
X105305960Y-79276944D01*
X105433747Y-79418866D01*
X105588248Y-79531118D01*
X105594276Y-79533802D01*
X105594278Y-79533803D01*
X105756681Y-79606109D01*
X105762712Y-79608794D01*
X105856113Y-79628647D01*
X105943056Y-79647128D01*
X105943061Y-79647128D01*
X105949513Y-79648500D01*
X106140487Y-79648500D01*
X106146939Y-79647128D01*
X106146944Y-79647128D01*
X106233887Y-79628647D01*
X106327288Y-79608794D01*
X106333319Y-79606109D01*
X106495722Y-79533803D01*
X106495724Y-79533802D01*
X106501752Y-79531118D01*
X106656253Y-79418866D01*
X106784040Y-79276944D01*
X106879527Y-79111556D01*
X106938542Y-78929928D01*
X106958504Y-78740000D01*
X106948298Y-78642892D01*
X106939232Y-78556635D01*
X106939232Y-78556633D01*
X106938542Y-78550072D01*
X106879527Y-78368444D01*
X106873780Y-78358489D01*
X106830767Y-78283990D01*
X106784040Y-78203056D01*
X106760649Y-78177077D01*
X106660675Y-78066045D01*
X106660674Y-78066044D01*
X106656253Y-78061134D01*
X106501752Y-77948882D01*
X106495724Y-77946198D01*
X106495722Y-77946197D01*
X106333319Y-77873891D01*
X106333318Y-77873891D01*
X106327288Y-77871206D01*
X106233888Y-77851353D01*
X106146944Y-77832872D01*
X106146939Y-77832872D01*
X106140487Y-77831500D01*
X105949513Y-77831500D01*
X105943061Y-77832872D01*
X105943056Y-77832872D01*
X105856112Y-77851353D01*
X105762712Y-77871206D01*
X105756682Y-77873891D01*
X105756681Y-77873891D01*
X105594278Y-77946197D01*
X105594276Y-77946198D01*
X105588248Y-77948882D01*
X105433747Y-78061134D01*
X105429326Y-78066044D01*
X105429325Y-78066045D01*
X105329352Y-78177077D01*
X105305960Y-78203056D01*
X105259233Y-78283990D01*
X105216221Y-78358489D01*
X105210473Y-78368444D01*
X105151458Y-78550072D01*
X105150768Y-78556633D01*
X105150768Y-78556635D01*
X105141702Y-78642892D01*
X105131496Y-78740000D01*
X90040200Y-78740000D01*
X90039889Y-77441695D01*
X113572251Y-77441695D01*
X113572548Y-77446848D01*
X113572548Y-77446851D01*
X113578011Y-77541590D01*
X113585110Y-77664715D01*
X113586247Y-77669761D01*
X113586248Y-77669767D01*
X113606119Y-77757939D01*
X113634222Y-77882639D01*
X113718266Y-78089616D01*
X113769019Y-78172438D01*
X113832291Y-78275688D01*
X113834987Y-78280088D01*
X113981250Y-78448938D01*
X114153126Y-78591632D01*
X114346000Y-78704338D01*
X114554692Y-78784030D01*
X114559760Y-78785061D01*
X114559763Y-78785062D01*
X114667017Y-78806883D01*
X114773597Y-78828567D01*
X114778772Y-78828757D01*
X114778774Y-78828757D01*
X114991673Y-78836564D01*
X114991677Y-78836564D01*
X114996837Y-78836753D01*
X115001957Y-78836097D01*
X115001959Y-78836097D01*
X115213288Y-78809025D01*
X115213289Y-78809025D01*
X115218416Y-78808368D01*
X115223366Y-78806883D01*
X115427429Y-78745661D01*
X115427434Y-78745659D01*
X115432384Y-78744174D01*
X115632994Y-78645896D01*
X115814860Y-78516173D01*
X115973096Y-78358489D01*
X116032594Y-78275689D01*
X116103453Y-78177077D01*
X116104776Y-78178028D01*
X116151645Y-78134857D01*
X116221580Y-78122625D01*
X116287026Y-78150144D01*
X116314875Y-78181994D01*
X116374987Y-78280088D01*
X116521250Y-78448938D01*
X116693126Y-78591632D01*
X116886000Y-78704338D01*
X117094692Y-78784030D01*
X117099760Y-78785061D01*
X117099763Y-78785062D01*
X117207017Y-78806883D01*
X117313597Y-78828567D01*
X117318772Y-78828757D01*
X117318774Y-78828757D01*
X117531673Y-78836564D01*
X117531677Y-78836564D01*
X117536837Y-78836753D01*
X117541957Y-78836097D01*
X117541959Y-78836097D01*
X117753288Y-78809025D01*
X117753289Y-78809025D01*
X117758416Y-78808368D01*
X117763366Y-78806883D01*
X117967429Y-78745661D01*
X117967434Y-78745659D01*
X117972384Y-78744174D01*
X118172994Y-78645896D01*
X118354860Y-78516173D01*
X118513096Y-78358489D01*
X118572594Y-78275689D01*
X118643453Y-78177077D01*
X118644776Y-78178028D01*
X118691645Y-78134857D01*
X118761580Y-78122625D01*
X118827026Y-78150144D01*
X118854875Y-78181994D01*
X118914987Y-78280088D01*
X119061250Y-78448938D01*
X119233126Y-78591632D01*
X119426000Y-78704338D01*
X119634692Y-78784030D01*
X119639760Y-78785061D01*
X119639763Y-78785062D01*
X119747017Y-78806883D01*
X119853597Y-78828567D01*
X119858772Y-78828757D01*
X119858774Y-78828757D01*
X120071673Y-78836564D01*
X120071677Y-78836564D01*
X120076837Y-78836753D01*
X120081957Y-78836097D01*
X120081959Y-78836097D01*
X120293288Y-78809025D01*
X120293289Y-78809025D01*
X120298416Y-78808368D01*
X120303366Y-78806883D01*
X120507429Y-78745661D01*
X120507434Y-78745659D01*
X120512384Y-78744174D01*
X120712994Y-78645896D01*
X120894860Y-78516173D01*
X121053096Y-78358489D01*
X121112594Y-78275689D01*
X121183453Y-78177077D01*
X121184776Y-78178028D01*
X121231645Y-78134857D01*
X121301580Y-78122625D01*
X121367026Y-78150144D01*
X121394875Y-78181994D01*
X121454987Y-78280088D01*
X121601250Y-78448938D01*
X121773126Y-78591632D01*
X121966000Y-78704338D01*
X122174692Y-78784030D01*
X122179760Y-78785061D01*
X122179763Y-78785062D01*
X122287017Y-78806883D01*
X122393597Y-78828567D01*
X122398772Y-78828757D01*
X122398774Y-78828757D01*
X122611673Y-78836564D01*
X122611677Y-78836564D01*
X122616837Y-78836753D01*
X122621957Y-78836097D01*
X122621959Y-78836097D01*
X122833288Y-78809025D01*
X122833289Y-78809025D01*
X122838416Y-78808368D01*
X122843366Y-78806883D01*
X123047429Y-78745661D01*
X123047434Y-78745659D01*
X123052384Y-78744174D01*
X123252994Y-78645896D01*
X123434860Y-78516173D01*
X123593096Y-78358489D01*
X123652594Y-78275689D01*
X123723453Y-78177077D01*
X123724776Y-78178028D01*
X123771645Y-78134857D01*
X123841580Y-78122625D01*
X123907026Y-78150144D01*
X123934875Y-78181994D01*
X123994987Y-78280088D01*
X124141250Y-78448938D01*
X124313126Y-78591632D01*
X124506000Y-78704338D01*
X124714692Y-78784030D01*
X124719760Y-78785061D01*
X124719763Y-78785062D01*
X124827017Y-78806883D01*
X124933597Y-78828567D01*
X124938772Y-78828757D01*
X124938774Y-78828757D01*
X125151673Y-78836564D01*
X125151677Y-78836564D01*
X125156837Y-78836753D01*
X125161957Y-78836097D01*
X125161959Y-78836097D01*
X125373288Y-78809025D01*
X125373289Y-78809025D01*
X125378416Y-78808368D01*
X125383366Y-78806883D01*
X125587429Y-78745661D01*
X125587434Y-78745659D01*
X125592384Y-78744174D01*
X125792994Y-78645896D01*
X125974860Y-78516173D01*
X126133096Y-78358489D01*
X126192594Y-78275689D01*
X126263453Y-78177077D01*
X126264776Y-78178028D01*
X126311645Y-78134857D01*
X126381580Y-78122625D01*
X126447026Y-78150144D01*
X126474875Y-78181994D01*
X126534987Y-78280088D01*
X126681250Y-78448938D01*
X126853126Y-78591632D01*
X127046000Y-78704338D01*
X127254692Y-78784030D01*
X127259760Y-78785061D01*
X127259763Y-78785062D01*
X127367017Y-78806883D01*
X127473597Y-78828567D01*
X127478772Y-78828757D01*
X127478774Y-78828757D01*
X127691673Y-78836564D01*
X127691677Y-78836564D01*
X127696837Y-78836753D01*
X127701957Y-78836097D01*
X127701959Y-78836097D01*
X127913288Y-78809025D01*
X127913289Y-78809025D01*
X127918416Y-78808368D01*
X127923366Y-78806883D01*
X128127429Y-78745661D01*
X128127434Y-78745659D01*
X128132384Y-78744174D01*
X128332994Y-78645896D01*
X128514860Y-78516173D01*
X128673096Y-78358489D01*
X128732594Y-78275689D01*
X128800435Y-78181277D01*
X128803453Y-78177077D01*
X128824320Y-78134857D01*
X128900136Y-77981453D01*
X128900137Y-77981451D01*
X128902430Y-77976811D01*
X128967370Y-77763069D01*
X128996529Y-77541590D01*
X128998156Y-77475000D01*
X128979852Y-77252361D01*
X128925431Y-77035702D01*
X128836354Y-76830840D01*
X128715014Y-76643277D01*
X128564670Y-76478051D01*
X128560619Y-76474852D01*
X128560615Y-76474848D01*
X128393414Y-76342800D01*
X128393410Y-76342798D01*
X128389359Y-76339598D01*
X128348053Y-76316796D01*
X128298084Y-76266364D01*
X128283312Y-76196921D01*
X128308428Y-76130516D01*
X128335780Y-76103909D01*
X128379603Y-76072650D01*
X128514860Y-75976173D01*
X128673096Y-75818489D01*
X128732594Y-75735689D01*
X128800435Y-75641277D01*
X128803453Y-75637077D01*
X128824320Y-75594857D01*
X128900136Y-75441453D01*
X128900137Y-75441451D01*
X128902430Y-75436811D01*
X128967370Y-75223069D01*
X128996529Y-75001590D01*
X128997112Y-74977749D01*
X128998074Y-74938365D01*
X128998074Y-74938361D01*
X128998156Y-74935000D01*
X128979852Y-74712361D01*
X128925431Y-74495702D01*
X128836354Y-74290840D01*
X128715014Y-74103277D01*
X128564670Y-73938051D01*
X128560619Y-73934852D01*
X128560615Y-73934848D01*
X128393414Y-73802800D01*
X128393410Y-73802798D01*
X128389359Y-73799598D01*
X128193789Y-73691638D01*
X128188920Y-73689914D01*
X128188916Y-73689912D01*
X127988087Y-73618795D01*
X127988083Y-73618794D01*
X127983212Y-73617069D01*
X127978119Y-73616162D01*
X127978116Y-73616161D01*
X127768373Y-73578800D01*
X127768367Y-73578799D01*
X127763284Y-73577894D01*
X127689452Y-73576992D01*
X127545081Y-73575228D01*
X127545079Y-73575228D01*
X127539911Y-73575165D01*
X127319091Y-73608955D01*
X127106756Y-73678357D01*
X126908607Y-73781507D01*
X126904474Y-73784610D01*
X126904471Y-73784612D01*
X126880247Y-73802800D01*
X126729965Y-73915635D01*
X126575629Y-74077138D01*
X126468201Y-74234621D01*
X126413293Y-74279621D01*
X126342768Y-74287792D01*
X126279021Y-74256538D01*
X126258324Y-74232054D01*
X126177822Y-74107617D01*
X126177820Y-74107614D01*
X126175014Y-74103277D01*
X126024670Y-73938051D01*
X126020619Y-73934852D01*
X126020615Y-73934848D01*
X125853414Y-73802800D01*
X125853410Y-73802798D01*
X125849359Y-73799598D01*
X125653789Y-73691638D01*
X125648920Y-73689914D01*
X125648916Y-73689912D01*
X125448087Y-73618795D01*
X125448083Y-73618794D01*
X125443212Y-73617069D01*
X125438119Y-73616162D01*
X125438116Y-73616161D01*
X125228373Y-73578800D01*
X125228367Y-73578799D01*
X125223284Y-73577894D01*
X125149452Y-73576992D01*
X125005081Y-73575228D01*
X125005079Y-73575228D01*
X124999911Y-73575165D01*
X124779091Y-73608955D01*
X124566756Y-73678357D01*
X124368607Y-73781507D01*
X124364474Y-73784610D01*
X124364471Y-73784612D01*
X124340247Y-73802800D01*
X124189965Y-73915635D01*
X124035629Y-74077138D01*
X123928201Y-74234621D01*
X123873293Y-74279621D01*
X123802768Y-74287792D01*
X123739021Y-74256538D01*
X123718324Y-74232054D01*
X123637822Y-74107617D01*
X123637820Y-74107614D01*
X123635014Y-74103277D01*
X123484670Y-73938051D01*
X123480619Y-73934852D01*
X123480615Y-73934848D01*
X123313414Y-73802800D01*
X123313410Y-73802798D01*
X123309359Y-73799598D01*
X123113789Y-73691638D01*
X123108920Y-73689914D01*
X123108916Y-73689912D01*
X122908087Y-73618795D01*
X122908083Y-73618794D01*
X122903212Y-73617069D01*
X122898119Y-73616162D01*
X122898116Y-73616161D01*
X122688373Y-73578800D01*
X122688367Y-73578799D01*
X122683284Y-73577894D01*
X122609452Y-73576992D01*
X122465081Y-73575228D01*
X122465079Y-73575228D01*
X122459911Y-73575165D01*
X122239091Y-73608955D01*
X122026756Y-73678357D01*
X121828607Y-73781507D01*
X121824474Y-73784610D01*
X121824471Y-73784612D01*
X121800247Y-73802800D01*
X121649965Y-73915635D01*
X121495629Y-74077138D01*
X121388201Y-74234621D01*
X121333293Y-74279621D01*
X121262768Y-74287792D01*
X121199021Y-74256538D01*
X121178324Y-74232054D01*
X121097822Y-74107617D01*
X121097820Y-74107614D01*
X121095014Y-74103277D01*
X120944670Y-73938051D01*
X120940619Y-73934852D01*
X120940615Y-73934848D01*
X120773414Y-73802800D01*
X120773410Y-73802798D01*
X120769359Y-73799598D01*
X120573789Y-73691638D01*
X120568920Y-73689914D01*
X120568916Y-73689912D01*
X120368087Y-73618795D01*
X120368083Y-73618794D01*
X120363212Y-73617069D01*
X120358119Y-73616162D01*
X120358116Y-73616161D01*
X120148373Y-73578800D01*
X120148367Y-73578799D01*
X120143284Y-73577894D01*
X120069452Y-73576992D01*
X119925081Y-73575228D01*
X119925079Y-73575228D01*
X119919911Y-73575165D01*
X119699091Y-73608955D01*
X119486756Y-73678357D01*
X119288607Y-73781507D01*
X119284474Y-73784610D01*
X119284471Y-73784612D01*
X119260247Y-73802800D01*
X119109965Y-73915635D01*
X118955629Y-74077138D01*
X118848201Y-74234621D01*
X118793293Y-74279621D01*
X118722768Y-74287792D01*
X118659021Y-74256538D01*
X118638324Y-74232054D01*
X118557822Y-74107617D01*
X118557820Y-74107614D01*
X118555014Y-74103277D01*
X118404670Y-73938051D01*
X118400619Y-73934852D01*
X118400615Y-73934848D01*
X118233414Y-73802800D01*
X118233410Y-73802798D01*
X118229359Y-73799598D01*
X118033789Y-73691638D01*
X118028920Y-73689914D01*
X118028916Y-73689912D01*
X117828087Y-73618795D01*
X117828083Y-73618794D01*
X117823212Y-73617069D01*
X117818119Y-73616162D01*
X117818116Y-73616161D01*
X117608373Y-73578800D01*
X117608367Y-73578799D01*
X117603284Y-73577894D01*
X117529452Y-73576992D01*
X117385081Y-73575228D01*
X117385079Y-73575228D01*
X117379911Y-73575165D01*
X117159091Y-73608955D01*
X116946756Y-73678357D01*
X116748607Y-73781507D01*
X116744474Y-73784610D01*
X116744471Y-73784612D01*
X116720247Y-73802800D01*
X116569965Y-73915635D01*
X116415629Y-74077138D01*
X116308201Y-74234621D01*
X116253293Y-74279621D01*
X116182768Y-74287792D01*
X116119021Y-74256538D01*
X116098324Y-74232054D01*
X116017822Y-74107617D01*
X116017820Y-74107614D01*
X116015014Y-74103277D01*
X115864670Y-73938051D01*
X115860619Y-73934852D01*
X115860615Y-73934848D01*
X115693414Y-73802800D01*
X115693410Y-73802798D01*
X115689359Y-73799598D01*
X115493789Y-73691638D01*
X115488920Y-73689914D01*
X115488916Y-73689912D01*
X115288087Y-73618795D01*
X115288083Y-73618794D01*
X115283212Y-73617069D01*
X115278119Y-73616162D01*
X115278116Y-73616161D01*
X115068373Y-73578800D01*
X115068367Y-73578799D01*
X115063284Y-73577894D01*
X114989452Y-73576992D01*
X114845081Y-73575228D01*
X114845079Y-73575228D01*
X114839911Y-73575165D01*
X114619091Y-73608955D01*
X114406756Y-73678357D01*
X114208607Y-73781507D01*
X114204474Y-73784610D01*
X114204471Y-73784612D01*
X114180247Y-73802800D01*
X114029965Y-73915635D01*
X113875629Y-74077138D01*
X113749743Y-74261680D01*
X113655688Y-74464305D01*
X113595989Y-74679570D01*
X113572251Y-74901695D01*
X113572548Y-74906848D01*
X113572548Y-74906851D01*
X113583039Y-75088803D01*
X113585110Y-75124715D01*
X113586247Y-75129761D01*
X113586248Y-75129767D01*
X113600599Y-75193444D01*
X113634222Y-75342639D01*
X113718266Y-75549616D01*
X113769019Y-75632438D01*
X113832291Y-75735688D01*
X113834987Y-75740088D01*
X113981250Y-75908938D01*
X114153126Y-76051632D01*
X114223595Y-76092811D01*
X114226445Y-76094476D01*
X114275169Y-76146114D01*
X114288240Y-76215897D01*
X114261509Y-76281669D01*
X114221055Y-76315027D01*
X114208607Y-76321507D01*
X114204474Y-76324610D01*
X114204471Y-76324612D01*
X114057227Y-76435166D01*
X114029965Y-76455635D01*
X113875629Y-76617138D01*
X113749743Y-76801680D01*
X113655688Y-77004305D01*
X113595989Y-77219570D01*
X113572251Y-77441695D01*
X90039889Y-77441695D01*
X90039134Y-74295000D01*
X103771996Y-74295000D01*
X103791958Y-74484928D01*
X103850973Y-74666556D01*
X103854276Y-74672278D01*
X103854277Y-74672279D01*
X103868091Y-74696206D01*
X103946460Y-74831944D01*
X104074247Y-74973866D01*
X104228748Y-75086118D01*
X104234776Y-75088802D01*
X104234778Y-75088803D01*
X104397181Y-75161109D01*
X104403212Y-75163794D01*
X104487622Y-75181736D01*
X104583556Y-75202128D01*
X104583561Y-75202128D01*
X104590013Y-75203500D01*
X104780987Y-75203500D01*
X104787439Y-75202128D01*
X104787444Y-75202128D01*
X104883378Y-75181736D01*
X104967788Y-75163794D01*
X104990714Y-75153587D01*
X105108885Y-75100974D01*
X105179252Y-75091540D01*
X105243549Y-75121647D01*
X105281363Y-75181736D01*
X105279967Y-75255015D01*
X105240958Y-75375072D01*
X105220996Y-75565000D01*
X105221686Y-75571565D01*
X105228572Y-75637077D01*
X105240958Y-75754928D01*
X105299973Y-75936556D01*
X105395460Y-76101944D01*
X105399878Y-76106851D01*
X105399879Y-76106852D01*
X105512237Y-76231638D01*
X105523247Y-76243866D01*
X105554213Y-76266364D01*
X105651578Y-76337104D01*
X105677748Y-76356118D01*
X105683776Y-76358802D01*
X105683778Y-76358803D01*
X105846181Y-76431109D01*
X105852212Y-76433794D01*
X105945613Y-76453647D01*
X106032556Y-76472128D01*
X106032561Y-76472128D01*
X106039013Y-76473500D01*
X106229987Y-76473500D01*
X106236439Y-76472128D01*
X106236444Y-76472128D01*
X106323387Y-76453647D01*
X106416788Y-76433794D01*
X106422819Y-76431109D01*
X106585222Y-76358803D01*
X106585224Y-76358802D01*
X106591252Y-76356118D01*
X106617423Y-76337104D01*
X106714787Y-76266364D01*
X106745753Y-76243866D01*
X106756763Y-76231638D01*
X106869121Y-76106852D01*
X106869122Y-76106851D01*
X106873540Y-76101944D01*
X106969027Y-75936556D01*
X107028042Y-75754928D01*
X107040429Y-75637077D01*
X107047314Y-75571565D01*
X107048004Y-75565000D01*
X107028042Y-75375072D01*
X107006129Y-75307630D01*
X107004102Y-75236662D01*
X107040764Y-75175864D01*
X107074714Y-75153587D01*
X107220219Y-75088805D01*
X107220226Y-75088801D01*
X107226252Y-75086118D01*
X107380753Y-74973866D01*
X107508540Y-74831944D01*
X107586909Y-74696206D01*
X107600723Y-74672279D01*
X107600724Y-74672278D01*
X107604027Y-74666556D01*
X107663042Y-74484928D01*
X107683004Y-74295000D01*
X107663042Y-74105072D01*
X107604027Y-73923444D01*
X107599519Y-73915635D01*
X107532524Y-73799598D01*
X107508540Y-73758056D01*
X107380753Y-73616134D01*
X107226252Y-73503882D01*
X107220224Y-73501198D01*
X107220222Y-73501197D01*
X107057819Y-73428891D01*
X107057818Y-73428891D01*
X107051788Y-73426206D01*
X106958387Y-73406353D01*
X106871444Y-73387872D01*
X106871439Y-73387872D01*
X106864987Y-73386500D01*
X106674013Y-73386500D01*
X106667561Y-73387872D01*
X106667556Y-73387872D01*
X106580613Y-73406353D01*
X106487212Y-73426206D01*
X106481182Y-73428891D01*
X106481181Y-73428891D01*
X106318778Y-73501197D01*
X106318776Y-73501198D01*
X106312748Y-73503882D01*
X106158247Y-73616134D01*
X106030460Y-73758056D01*
X106006476Y-73799598D01*
X105939482Y-73915635D01*
X105934973Y-73923444D01*
X105875958Y-74105072D01*
X105855996Y-74295000D01*
X105875958Y-74484928D01*
X105877997Y-74491202D01*
X105877998Y-74491206D01*
X105897871Y-74552370D01*
X105899898Y-74623338D01*
X105863236Y-74684136D01*
X105829286Y-74706413D01*
X105711114Y-74759026D01*
X105640747Y-74768460D01*
X105576450Y-74738353D01*
X105538637Y-74678264D01*
X105540033Y-74604985D01*
X105579042Y-74484928D01*
X105599004Y-74295000D01*
X105579042Y-74105072D01*
X105520027Y-73923444D01*
X105515519Y-73915635D01*
X105448524Y-73799598D01*
X105424540Y-73758056D01*
X105296753Y-73616134D01*
X105142252Y-73503882D01*
X105136224Y-73501198D01*
X105136222Y-73501197D01*
X104973819Y-73428891D01*
X104973818Y-73428891D01*
X104967788Y-73426206D01*
X104874387Y-73406353D01*
X104787444Y-73387872D01*
X104787439Y-73387872D01*
X104780987Y-73386500D01*
X104590013Y-73386500D01*
X104583561Y-73387872D01*
X104583556Y-73387872D01*
X104496613Y-73406353D01*
X104403212Y-73426206D01*
X104397182Y-73428891D01*
X104397181Y-73428891D01*
X104234778Y-73501197D01*
X104234776Y-73501198D01*
X104228748Y-73503882D01*
X104074247Y-73616134D01*
X103946460Y-73758056D01*
X103922476Y-73799598D01*
X103855482Y-73915635D01*
X103850973Y-73923444D01*
X103791958Y-74105072D01*
X103771996Y-74295000D01*
X90039134Y-74295000D01*
X90038525Y-71755000D01*
X94971496Y-71755000D01*
X94991458Y-71944928D01*
X95050473Y-72126556D01*
X95145960Y-72291944D01*
X95273747Y-72433866D01*
X95428248Y-72546118D01*
X95434276Y-72548802D01*
X95434278Y-72548803D01*
X95596681Y-72621109D01*
X95602712Y-72623794D01*
X95696113Y-72643647D01*
X95783056Y-72662128D01*
X95783061Y-72662128D01*
X95789513Y-72663500D01*
X95980487Y-72663500D01*
X95986939Y-72662128D01*
X95986944Y-72662128D01*
X96073887Y-72643647D01*
X96167288Y-72623794D01*
X96173319Y-72621109D01*
X96335722Y-72548803D01*
X96335724Y-72548802D01*
X96341752Y-72546118D01*
X96496253Y-72433866D01*
X96624040Y-72291944D01*
X96719527Y-72126556D01*
X96778542Y-71944928D01*
X96798504Y-71755000D01*
X96791220Y-71685697D01*
X96779232Y-71571635D01*
X96779232Y-71571633D01*
X96778542Y-71565072D01*
X96719527Y-71383444D01*
X96624040Y-71218056D01*
X96578744Y-71167749D01*
X96500675Y-71081045D01*
X96500674Y-71081044D01*
X96496253Y-71076134D01*
X96341752Y-70963882D01*
X96335724Y-70961198D01*
X96335722Y-70961197D01*
X96173319Y-70888891D01*
X96173318Y-70888891D01*
X96167288Y-70886206D01*
X96054721Y-70862279D01*
X95986944Y-70847872D01*
X95986939Y-70847872D01*
X95980487Y-70846500D01*
X95789513Y-70846500D01*
X95783061Y-70847872D01*
X95783056Y-70847872D01*
X95715279Y-70862279D01*
X95602712Y-70886206D01*
X95596682Y-70888891D01*
X95596681Y-70888891D01*
X95434278Y-70961197D01*
X95434276Y-70961198D01*
X95428248Y-70963882D01*
X95273747Y-71076134D01*
X95269326Y-71081044D01*
X95269325Y-71081045D01*
X95191257Y-71167749D01*
X95145960Y-71218056D01*
X95050473Y-71383444D01*
X94991458Y-71565072D01*
X94990768Y-71571633D01*
X94990768Y-71571635D01*
X94978780Y-71685697D01*
X94971496Y-71755000D01*
X90038525Y-71755000D01*
X90038220Y-70485000D01*
X98146496Y-70485000D01*
X98147186Y-70491565D01*
X98164012Y-70651652D01*
X98166458Y-70674928D01*
X98225473Y-70856556D01*
X98320960Y-71021944D01*
X98325378Y-71026851D01*
X98325379Y-71026852D01*
X98369753Y-71076134D01*
X98448747Y-71163866D01*
X98603248Y-71276118D01*
X98609276Y-71278802D01*
X98609278Y-71278803D01*
X98771681Y-71351109D01*
X98777712Y-71353794D01*
X98866676Y-71372704D01*
X98958056Y-71392128D01*
X98958061Y-71392128D01*
X98964513Y-71393500D01*
X99155487Y-71393500D01*
X99161939Y-71392128D01*
X99161944Y-71392128D01*
X99253324Y-71372704D01*
X99342288Y-71353794D01*
X99348319Y-71351109D01*
X99510722Y-71278803D01*
X99510724Y-71278802D01*
X99516752Y-71276118D01*
X99671253Y-71163866D01*
X99750247Y-71076134D01*
X99794621Y-71026852D01*
X99794622Y-71026851D01*
X99799040Y-71021944D01*
X99894527Y-70856556D01*
X99953542Y-70674928D01*
X99955989Y-70651652D01*
X99972814Y-70491565D01*
X99973504Y-70485000D01*
X99956172Y-70320097D01*
X99954232Y-70301635D01*
X99954232Y-70301633D01*
X99953542Y-70295072D01*
X99920318Y-70192819D01*
X99918291Y-70121851D01*
X99954953Y-70061054D01*
X99988902Y-70038777D01*
X100056214Y-70008807D01*
X100056219Y-70008804D01*
X100062252Y-70006118D01*
X100216753Y-69893866D01*
X100295747Y-69806134D01*
X100340121Y-69756852D01*
X100340122Y-69756851D01*
X100344540Y-69751944D01*
X100440027Y-69586556D01*
X100499042Y-69404928D01*
X100502314Y-69373803D01*
X100518314Y-69221565D01*
X100519004Y-69215000D01*
X100506444Y-69095496D01*
X100499732Y-69031635D01*
X100499732Y-69031633D01*
X100499042Y-69025072D01*
X100472820Y-68944371D01*
X107655313Y-68944371D01*
X107675275Y-69134299D01*
X107734290Y-69315927D01*
X107829777Y-69481315D01*
X107834195Y-69486222D01*
X107834196Y-69486223D01*
X107918877Y-69580271D01*
X107957564Y-69623237D01*
X108112065Y-69735489D01*
X108118098Y-69738175D01*
X108118103Y-69738178D01*
X108169592Y-69761103D01*
X108223688Y-69807083D01*
X108243653Y-69863038D01*
X108253190Y-69953774D01*
X108254703Y-69968173D01*
X108313718Y-70149801D01*
X108317021Y-70155523D01*
X108317022Y-70155524D01*
X108350931Y-70214255D01*
X108409205Y-70315189D01*
X108413623Y-70320096D01*
X108413624Y-70320097D01*
X108532570Y-70452200D01*
X108536992Y-70457111D01*
X108691493Y-70569363D01*
X108697521Y-70572047D01*
X108697523Y-70572048D01*
X108859926Y-70644354D01*
X108865957Y-70647039D01*
X108872418Y-70648412D01*
X108872420Y-70648413D01*
X108887655Y-70651652D01*
X108950128Y-70685381D01*
X108981289Y-70735961D01*
X109020473Y-70856556D01*
X109115960Y-71021944D01*
X109120378Y-71026851D01*
X109120379Y-71026852D01*
X109164753Y-71076134D01*
X109243747Y-71163866D01*
X109398248Y-71276118D01*
X109404274Y-71278801D01*
X109404281Y-71278805D01*
X109549786Y-71343587D01*
X109603882Y-71389567D01*
X109624532Y-71457494D01*
X109618371Y-71497630D01*
X109596458Y-71565072D01*
X109595768Y-71571633D01*
X109595768Y-71571635D01*
X109583780Y-71685697D01*
X109576496Y-71755000D01*
X109596458Y-71944928D01*
X109655473Y-72126556D01*
X109750960Y-72291944D01*
X109878747Y-72433866D01*
X110033248Y-72546118D01*
X110039276Y-72548802D01*
X110039278Y-72548803D01*
X110201681Y-72621109D01*
X110207712Y-72623794D01*
X110301113Y-72643647D01*
X110388056Y-72662128D01*
X110388061Y-72662128D01*
X110394513Y-72663500D01*
X110585487Y-72663500D01*
X110591939Y-72662128D01*
X110591944Y-72662128D01*
X110678887Y-72643647D01*
X110772288Y-72623794D01*
X110778319Y-72621109D01*
X110940722Y-72548803D01*
X110940724Y-72548802D01*
X110946752Y-72546118D01*
X111038443Y-72479500D01*
X115291496Y-72479500D01*
X115292186Y-72486065D01*
X115306380Y-72621109D01*
X115311458Y-72669428D01*
X115370473Y-72851056D01*
X115465960Y-73016444D01*
X115593747Y-73158366D01*
X115748248Y-73270618D01*
X115754276Y-73273302D01*
X115754278Y-73273303D01*
X115916681Y-73345609D01*
X115922712Y-73348294D01*
X116016112Y-73368147D01*
X116103056Y-73386628D01*
X116103061Y-73386628D01*
X116109513Y-73388000D01*
X116300487Y-73388000D01*
X116306939Y-73386628D01*
X116306944Y-73386628D01*
X116393888Y-73368147D01*
X116487288Y-73348294D01*
X116493319Y-73345609D01*
X116655722Y-73273303D01*
X116655724Y-73273302D01*
X116661752Y-73270618D01*
X116816253Y-73158366D01*
X116944040Y-73016444D01*
X117039527Y-72851056D01*
X117098542Y-72669428D01*
X117103621Y-72621109D01*
X117117814Y-72486065D01*
X117118504Y-72479500D01*
X117098542Y-72289572D01*
X117039527Y-72107944D01*
X116944040Y-71942556D01*
X116816253Y-71800634D01*
X116753443Y-71755000D01*
X137516496Y-71755000D01*
X137536458Y-71944928D01*
X137595473Y-72126556D01*
X137690960Y-72291944D01*
X137818747Y-72433866D01*
X137973248Y-72546118D01*
X137979276Y-72548802D01*
X137979278Y-72548803D01*
X138141681Y-72621109D01*
X138147712Y-72623794D01*
X138241113Y-72643647D01*
X138328056Y-72662128D01*
X138328061Y-72662128D01*
X138334513Y-72663500D01*
X138525487Y-72663500D01*
X138531939Y-72662128D01*
X138531944Y-72662128D01*
X138618887Y-72643647D01*
X138712288Y-72623794D01*
X138718319Y-72621109D01*
X138880722Y-72548803D01*
X138880724Y-72548802D01*
X138886752Y-72546118D01*
X139041253Y-72433866D01*
X139169040Y-72291944D01*
X139264527Y-72126556D01*
X139323542Y-71944928D01*
X139343504Y-71755000D01*
X139336220Y-71685697D01*
X139324232Y-71571635D01*
X139324232Y-71571633D01*
X139323542Y-71565072D01*
X139264527Y-71383444D01*
X139169040Y-71218056D01*
X139123744Y-71167749D01*
X139045675Y-71081045D01*
X139045674Y-71081044D01*
X139041253Y-71076134D01*
X138886752Y-70963882D01*
X138880724Y-70961198D01*
X138880722Y-70961197D01*
X138718319Y-70888891D01*
X138718318Y-70888891D01*
X138712288Y-70886206D01*
X138599721Y-70862279D01*
X138531944Y-70847872D01*
X138531939Y-70847872D01*
X138525487Y-70846500D01*
X138334513Y-70846500D01*
X138328061Y-70847872D01*
X138328056Y-70847872D01*
X138260279Y-70862279D01*
X138147712Y-70886206D01*
X138141682Y-70888891D01*
X138141681Y-70888891D01*
X137979278Y-70961197D01*
X137979276Y-70961198D01*
X137973248Y-70963882D01*
X137818747Y-71076134D01*
X137814326Y-71081044D01*
X137814325Y-71081045D01*
X137736257Y-71167749D01*
X137690960Y-71218056D01*
X137595473Y-71383444D01*
X137536458Y-71565072D01*
X137535768Y-71571633D01*
X137535768Y-71571635D01*
X137523780Y-71685697D01*
X137516496Y-71755000D01*
X116753443Y-71755000D01*
X116661752Y-71688382D01*
X116655724Y-71685698D01*
X116655722Y-71685697D01*
X116493319Y-71613391D01*
X116493318Y-71613391D01*
X116487288Y-71610706D01*
X116393888Y-71590853D01*
X116306944Y-71572372D01*
X116306939Y-71572372D01*
X116300487Y-71571000D01*
X116109513Y-71571000D01*
X116103061Y-71572372D01*
X116103056Y-71572372D01*
X116016112Y-71590853D01*
X115922712Y-71610706D01*
X115916682Y-71613391D01*
X115916681Y-71613391D01*
X115754278Y-71685697D01*
X115754276Y-71685698D01*
X115748248Y-71688382D01*
X115593747Y-71800634D01*
X115465960Y-71942556D01*
X115370473Y-72107944D01*
X115311458Y-72289572D01*
X115291496Y-72479500D01*
X111038443Y-72479500D01*
X111101253Y-72433866D01*
X111229040Y-72291944D01*
X111324527Y-72126556D01*
X111383542Y-71944928D01*
X111403504Y-71755000D01*
X111396220Y-71685697D01*
X111384232Y-71571635D01*
X111384232Y-71571633D01*
X111383542Y-71565072D01*
X111324527Y-71383444D01*
X111229040Y-71218056D01*
X111183744Y-71167749D01*
X111105675Y-71081045D01*
X111105674Y-71081044D01*
X111101253Y-71076134D01*
X110946752Y-70963882D01*
X110940726Y-70961199D01*
X110940719Y-70961195D01*
X110795214Y-70896413D01*
X110741118Y-70850433D01*
X110720468Y-70782506D01*
X110726629Y-70742370D01*
X110741554Y-70696434D01*
X110748542Y-70674928D01*
X110750989Y-70651652D01*
X110767814Y-70491565D01*
X110768504Y-70485000D01*
X110751172Y-70320097D01*
X110749232Y-70301635D01*
X110749232Y-70301633D01*
X110748542Y-70295072D01*
X110689527Y-70113444D01*
X110594040Y-69948056D01*
X110548744Y-69897749D01*
X110505750Y-69850000D01*
X133706496Y-69850000D01*
X133707186Y-69856565D01*
X133722497Y-70002237D01*
X133726458Y-70039928D01*
X133785473Y-70221556D01*
X133880960Y-70386944D01*
X133885378Y-70391851D01*
X133885379Y-70391852D01*
X133947635Y-70460994D01*
X134008747Y-70528866D01*
X134163248Y-70641118D01*
X134169276Y-70643802D01*
X134169278Y-70643803D01*
X134331681Y-70716109D01*
X134337712Y-70718794D01*
X134418476Y-70735961D01*
X134518056Y-70757128D01*
X134518061Y-70757128D01*
X134524513Y-70758500D01*
X134715487Y-70758500D01*
X134721939Y-70757128D01*
X134721944Y-70757128D01*
X134821524Y-70735961D01*
X134902288Y-70718794D01*
X134908319Y-70716109D01*
X135070722Y-70643803D01*
X135070724Y-70643802D01*
X135076752Y-70641118D01*
X135231253Y-70528866D01*
X135292365Y-70460994D01*
X135354621Y-70391852D01*
X135354622Y-70391851D01*
X135359040Y-70386944D01*
X135454527Y-70221556D01*
X135513542Y-70039928D01*
X135517504Y-70002237D01*
X135532814Y-69856565D01*
X135533504Y-69850000D01*
X135521061Y-69731608D01*
X135514232Y-69666635D01*
X135514232Y-69666633D01*
X135513542Y-69660072D01*
X135454527Y-69478444D01*
X135359040Y-69313056D01*
X135313744Y-69262749D01*
X135235675Y-69176045D01*
X135235674Y-69176044D01*
X135231253Y-69171134D01*
X135076752Y-69058882D01*
X135070724Y-69056198D01*
X135070722Y-69056197D01*
X134908319Y-68983891D01*
X134908318Y-68983891D01*
X134902288Y-68981206D01*
X134789721Y-68957279D01*
X134721944Y-68942872D01*
X134721939Y-68942872D01*
X134715487Y-68941500D01*
X134524513Y-68941500D01*
X134518061Y-68942872D01*
X134518056Y-68942872D01*
X134450279Y-68957279D01*
X134337712Y-68981206D01*
X134331682Y-68983891D01*
X134331681Y-68983891D01*
X134169278Y-69056197D01*
X134169276Y-69056198D01*
X134163248Y-69058882D01*
X134008747Y-69171134D01*
X134004326Y-69176044D01*
X134004325Y-69176045D01*
X133926257Y-69262749D01*
X133880960Y-69313056D01*
X133785473Y-69478444D01*
X133726458Y-69660072D01*
X133725768Y-69666633D01*
X133725768Y-69666635D01*
X133718939Y-69731608D01*
X133706496Y-69850000D01*
X110505750Y-69850000D01*
X110470675Y-69811045D01*
X110470674Y-69811044D01*
X110466253Y-69806134D01*
X110311752Y-69693882D01*
X110305724Y-69691198D01*
X110305722Y-69691197D01*
X110143319Y-69618891D01*
X110143318Y-69618891D01*
X110137288Y-69616206D01*
X110130827Y-69614833D01*
X110130825Y-69614832D01*
X110115590Y-69611593D01*
X110053117Y-69577864D01*
X110021956Y-69527284D01*
X109984813Y-69412971D01*
X109982772Y-69406689D01*
X109887285Y-69241301D01*
X109863604Y-69215000D01*
X109763920Y-69104290D01*
X109763919Y-69104289D01*
X109759498Y-69099379D01*
X109604997Y-68987127D01*
X109598964Y-68984441D01*
X109598959Y-68984438D01*
X109547470Y-68961513D01*
X109493374Y-68915533D01*
X109473409Y-68859578D01*
X109463049Y-68761005D01*
X109463048Y-68761002D01*
X109462359Y-68754443D01*
X109405679Y-68580000D01*
X136881496Y-68580000D01*
X136882186Y-68586565D01*
X136899171Y-68748165D01*
X136901458Y-68769928D01*
X136960473Y-68951556D01*
X137055960Y-69116944D01*
X137060378Y-69121851D01*
X137060379Y-69121852D01*
X137104753Y-69171134D01*
X137183747Y-69258866D01*
X137338248Y-69371118D01*
X137344276Y-69373802D01*
X137344278Y-69373803D01*
X137506681Y-69446109D01*
X137512712Y-69448794D01*
X137606112Y-69468647D01*
X137693056Y-69487128D01*
X137693061Y-69487128D01*
X137699513Y-69488500D01*
X137890487Y-69488500D01*
X137896939Y-69487128D01*
X137896944Y-69487128D01*
X137983888Y-69468647D01*
X138077288Y-69448794D01*
X138083319Y-69446109D01*
X138245722Y-69373803D01*
X138245724Y-69373802D01*
X138251752Y-69371118D01*
X138406253Y-69258866D01*
X138485247Y-69171134D01*
X138529621Y-69121852D01*
X138529622Y-69121851D01*
X138534040Y-69116944D01*
X138629527Y-68951556D01*
X138688542Y-68769928D01*
X138690830Y-68748165D01*
X138707814Y-68586565D01*
X138708504Y-68580000D01*
X138697597Y-68476226D01*
X138689232Y-68396635D01*
X138689232Y-68396633D01*
X138688542Y-68390072D01*
X138629527Y-68208444D01*
X138534040Y-68043056D01*
X138445750Y-67945000D01*
X140691496Y-67945000D01*
X140692186Y-67951565D01*
X140708187Y-68103803D01*
X140711458Y-68134928D01*
X140770473Y-68316556D01*
X140865960Y-68481944D01*
X140870378Y-68486851D01*
X140870379Y-68486852D01*
X140954250Y-68580000D01*
X140993747Y-68623866D01*
X141148248Y-68736118D01*
X141154276Y-68738802D01*
X141154278Y-68738803D01*
X141316681Y-68811109D01*
X141322712Y-68813794D01*
X141416113Y-68833647D01*
X141503056Y-68852128D01*
X141503061Y-68852128D01*
X141509513Y-68853500D01*
X141700487Y-68853500D01*
X141706939Y-68852128D01*
X141706944Y-68852128D01*
X141793887Y-68833647D01*
X141887288Y-68813794D01*
X141893319Y-68811109D01*
X142055722Y-68738803D01*
X142055724Y-68738802D01*
X142061752Y-68736118D01*
X142216253Y-68623866D01*
X142255750Y-68580000D01*
X142339621Y-68486852D01*
X142339622Y-68486851D01*
X142344040Y-68481944D01*
X142439527Y-68316556D01*
X142498542Y-68134928D01*
X142501814Y-68103803D01*
X142517814Y-67951565D01*
X142518504Y-67945000D01*
X142507597Y-67841226D01*
X142499232Y-67761635D01*
X142499232Y-67761633D01*
X142498542Y-67755072D01*
X142439527Y-67573444D01*
X142344040Y-67408056D01*
X142298744Y-67357749D01*
X142220675Y-67271045D01*
X142220674Y-67271044D01*
X142216253Y-67266134D01*
X142061752Y-67153882D01*
X142055724Y-67151198D01*
X142055722Y-67151197D01*
X141893319Y-67078891D01*
X141893318Y-67078891D01*
X141887288Y-67076206D01*
X141774721Y-67052279D01*
X141706944Y-67037872D01*
X141706939Y-67037872D01*
X141700487Y-67036500D01*
X141509513Y-67036500D01*
X141503061Y-67037872D01*
X141503056Y-67037872D01*
X141435279Y-67052279D01*
X141322712Y-67076206D01*
X141316682Y-67078891D01*
X141316681Y-67078891D01*
X141154278Y-67151197D01*
X141154276Y-67151198D01*
X141148248Y-67153882D01*
X140993747Y-67266134D01*
X140989326Y-67271044D01*
X140989325Y-67271045D01*
X140911257Y-67357749D01*
X140865960Y-67408056D01*
X140770473Y-67573444D01*
X140711458Y-67755072D01*
X140710768Y-67761633D01*
X140710768Y-67761635D01*
X140702403Y-67841226D01*
X140691496Y-67945000D01*
X138445750Y-67945000D01*
X138406253Y-67901134D01*
X138251752Y-67788882D01*
X138245724Y-67786198D01*
X138245722Y-67786197D01*
X138083319Y-67713891D01*
X138083318Y-67713891D01*
X138077288Y-67711206D01*
X137964721Y-67687279D01*
X137896944Y-67672872D01*
X137896939Y-67672872D01*
X137890487Y-67671500D01*
X137699513Y-67671500D01*
X137693061Y-67672872D01*
X137693056Y-67672872D01*
X137625279Y-67687279D01*
X137512712Y-67711206D01*
X137506682Y-67713891D01*
X137506681Y-67713891D01*
X137344278Y-67786197D01*
X137344276Y-67786198D01*
X137338248Y-67788882D01*
X137183747Y-67901134D01*
X137055960Y-68043056D01*
X136960473Y-68208444D01*
X136901458Y-68390072D01*
X136900768Y-68396633D01*
X136900768Y-68396635D01*
X136892403Y-68476226D01*
X136881496Y-68580000D01*
X109405679Y-68580000D01*
X109403344Y-68572815D01*
X109307857Y-68407427D01*
X109252734Y-68346206D01*
X109184492Y-68270416D01*
X109184491Y-68270415D01*
X109180070Y-68265505D01*
X109080974Y-68193507D01*
X109030911Y-68157134D01*
X109030910Y-68157133D01*
X109025569Y-68153253D01*
X109019541Y-68150569D01*
X109019539Y-68150568D01*
X108857136Y-68078262D01*
X108857135Y-68078262D01*
X108851105Y-68075577D01*
X108725008Y-68048774D01*
X108670761Y-68037243D01*
X108670756Y-68037243D01*
X108664304Y-68035871D01*
X108473330Y-68035871D01*
X108466878Y-68037243D01*
X108466873Y-68037243D01*
X108412626Y-68048774D01*
X108286529Y-68075577D01*
X108280499Y-68078262D01*
X108280498Y-68078262D01*
X108118095Y-68150568D01*
X108118093Y-68150569D01*
X108112065Y-68153253D01*
X108106724Y-68157133D01*
X108106723Y-68157134D01*
X108056660Y-68193507D01*
X107957564Y-68265505D01*
X107953143Y-68270415D01*
X107953142Y-68270416D01*
X107884901Y-68346206D01*
X107829777Y-68407427D01*
X107734290Y-68572815D01*
X107675275Y-68754443D01*
X107674585Y-68761004D01*
X107674585Y-68761006D01*
X107669319Y-68811109D01*
X107655313Y-68944371D01*
X100472820Y-68944371D01*
X100440027Y-68843444D01*
X100344540Y-68678056D01*
X100299244Y-68627749D01*
X100221175Y-68541045D01*
X100221174Y-68541044D01*
X100216753Y-68536134D01*
X100062252Y-68423882D01*
X100056224Y-68421198D01*
X100056222Y-68421197D01*
X99893819Y-68348891D01*
X99893818Y-68348891D01*
X99887788Y-68346206D01*
X99775221Y-68322279D01*
X99707444Y-68307872D01*
X99707439Y-68307872D01*
X99700987Y-68306500D01*
X99510013Y-68306500D01*
X99503561Y-68307872D01*
X99503556Y-68307872D01*
X99435779Y-68322279D01*
X99323212Y-68346206D01*
X99317182Y-68348891D01*
X99317181Y-68348891D01*
X99154778Y-68421197D01*
X99154776Y-68421198D01*
X99148748Y-68423882D01*
X98994247Y-68536134D01*
X98989826Y-68541044D01*
X98989825Y-68541045D01*
X98911757Y-68627749D01*
X98866460Y-68678056D01*
X98770973Y-68843444D01*
X98711958Y-69025072D01*
X98711268Y-69031633D01*
X98711268Y-69031635D01*
X98704556Y-69095496D01*
X98691996Y-69215000D01*
X98692686Y-69221565D01*
X98708687Y-69373803D01*
X98711958Y-69404928D01*
X98713998Y-69411206D01*
X98745182Y-69507181D01*
X98747209Y-69578149D01*
X98710547Y-69638946D01*
X98676598Y-69661223D01*
X98609286Y-69691193D01*
X98609281Y-69691196D01*
X98603248Y-69693882D01*
X98448747Y-69806134D01*
X98444326Y-69811044D01*
X98444325Y-69811045D01*
X98366257Y-69897749D01*
X98320960Y-69948056D01*
X98225473Y-70113444D01*
X98166458Y-70295072D01*
X98165768Y-70301633D01*
X98165768Y-70301635D01*
X98163828Y-70320097D01*
X98146496Y-70485000D01*
X90038220Y-70485000D01*
X90037459Y-67310000D01*
X105766496Y-67310000D01*
X105767186Y-67316565D01*
X105783187Y-67468803D01*
X105786458Y-67499928D01*
X105845473Y-67681556D01*
X105940960Y-67846944D01*
X105945378Y-67851851D01*
X105945379Y-67851852D01*
X105989753Y-67901134D01*
X106068747Y-67988866D01*
X106133444Y-68035871D01*
X106191790Y-68078262D01*
X106223248Y-68101118D01*
X106229276Y-68103802D01*
X106229278Y-68103803D01*
X106391681Y-68176109D01*
X106397712Y-68178794D01*
X106491112Y-68198647D01*
X106578056Y-68217128D01*
X106578061Y-68217128D01*
X106584513Y-68218500D01*
X106775487Y-68218500D01*
X106781939Y-68217128D01*
X106781944Y-68217128D01*
X106868888Y-68198647D01*
X106962288Y-68178794D01*
X106968319Y-68176109D01*
X107130722Y-68103803D01*
X107130724Y-68103802D01*
X107136752Y-68101118D01*
X107168211Y-68078262D01*
X107226556Y-68035871D01*
X107291253Y-67988866D01*
X107370247Y-67901134D01*
X107414621Y-67851852D01*
X107414622Y-67851851D01*
X107419040Y-67846944D01*
X107514527Y-67681556D01*
X107573542Y-67499928D01*
X107576814Y-67468803D01*
X107592814Y-67316565D01*
X107593504Y-67310000D01*
X107582597Y-67206226D01*
X107574232Y-67126635D01*
X107574232Y-67126633D01*
X107573542Y-67120072D01*
X107514527Y-66938444D01*
X107419040Y-66773056D01*
X107373744Y-66722749D01*
X107295675Y-66636045D01*
X107295674Y-66636044D01*
X107291253Y-66631134D01*
X107136752Y-66518882D01*
X107130724Y-66516198D01*
X107130722Y-66516197D01*
X106968319Y-66443891D01*
X106968318Y-66443891D01*
X106962288Y-66441206D01*
X106849721Y-66417279D01*
X106781944Y-66402872D01*
X106781939Y-66402872D01*
X106775487Y-66401500D01*
X106584513Y-66401500D01*
X106578061Y-66402872D01*
X106578056Y-66402872D01*
X106510279Y-66417279D01*
X106397712Y-66441206D01*
X106391682Y-66443891D01*
X106391681Y-66443891D01*
X106229278Y-66516197D01*
X106229276Y-66516198D01*
X106223248Y-66518882D01*
X106068747Y-66631134D01*
X106064326Y-66636044D01*
X106064325Y-66636045D01*
X105986257Y-66722749D01*
X105940960Y-66773056D01*
X105845473Y-66938444D01*
X105786458Y-67120072D01*
X105785768Y-67126633D01*
X105785768Y-67126635D01*
X105777403Y-67206226D01*
X105766496Y-67310000D01*
X90037459Y-67310000D01*
X90037154Y-66040000D01*
X93066496Y-66040000D01*
X93086458Y-66229928D01*
X93145473Y-66411556D01*
X93240960Y-66576944D01*
X93245378Y-66581851D01*
X93245379Y-66581852D01*
X93289753Y-66631134D01*
X93368747Y-66718866D01*
X93523248Y-66831118D01*
X93529276Y-66833802D01*
X93529278Y-66833803D01*
X93691681Y-66906109D01*
X93697712Y-66908794D01*
X93791112Y-66928647D01*
X93878056Y-66947128D01*
X93878061Y-66947128D01*
X93884513Y-66948500D01*
X94075487Y-66948500D01*
X94081939Y-66947128D01*
X94081944Y-66947128D01*
X94168888Y-66928647D01*
X94262288Y-66908794D01*
X94268319Y-66906109D01*
X94430722Y-66833803D01*
X94430724Y-66833802D01*
X94436752Y-66831118D01*
X94591253Y-66718866D01*
X94670247Y-66631134D01*
X94714621Y-66581852D01*
X94714622Y-66581851D01*
X94719040Y-66576944D01*
X94814527Y-66411556D01*
X94873542Y-66229928D01*
X94893504Y-66040000D01*
X112751496Y-66040000D01*
X112771458Y-66229928D01*
X112830473Y-66411556D01*
X112925960Y-66576944D01*
X112930378Y-66581851D01*
X112930379Y-66581852D01*
X112974753Y-66631134D01*
X113053747Y-66718866D01*
X113208248Y-66831118D01*
X113214276Y-66833802D01*
X113214278Y-66833803D01*
X113376681Y-66906109D01*
X113382712Y-66908794D01*
X113476112Y-66928647D01*
X113563056Y-66947128D01*
X113563061Y-66947128D01*
X113569513Y-66948500D01*
X113760487Y-66948500D01*
X113766939Y-66947128D01*
X113766944Y-66947128D01*
X113853888Y-66928647D01*
X113947288Y-66908794D01*
X113953319Y-66906109D01*
X114115722Y-66833803D01*
X114115724Y-66833802D01*
X114121752Y-66831118D01*
X114276253Y-66718866D01*
X114355247Y-66631134D01*
X114399621Y-66581852D01*
X114399622Y-66581851D01*
X114404040Y-66576944D01*
X114499527Y-66411556D01*
X114558542Y-66229928D01*
X114578504Y-66040000D01*
X114573485Y-65992251D01*
X114559232Y-65856635D01*
X114559232Y-65856633D01*
X114558542Y-65850072D01*
X114499527Y-65668444D01*
X114404040Y-65503056D01*
X114358744Y-65452749D01*
X114280675Y-65366045D01*
X114280674Y-65366044D01*
X114276253Y-65361134D01*
X114133245Y-65257232D01*
X114127094Y-65252763D01*
X114127093Y-65252762D01*
X114121752Y-65248882D01*
X114115724Y-65246198D01*
X114115722Y-65246197D01*
X113953319Y-65173891D01*
X113953318Y-65173891D01*
X113947288Y-65171206D01*
X113834721Y-65147279D01*
X113766944Y-65132872D01*
X113766939Y-65132872D01*
X113760487Y-65131500D01*
X113569513Y-65131500D01*
X113563061Y-65132872D01*
X113563056Y-65132872D01*
X113495279Y-65147279D01*
X113382712Y-65171206D01*
X113376682Y-65173891D01*
X113376681Y-65173891D01*
X113214278Y-65246197D01*
X113214276Y-65246198D01*
X113208248Y-65248882D01*
X113202907Y-65252762D01*
X113202906Y-65252763D01*
X113196755Y-65257232D01*
X113053747Y-65361134D01*
X113049326Y-65366044D01*
X113049325Y-65366045D01*
X112971257Y-65452749D01*
X112925960Y-65503056D01*
X112830473Y-65668444D01*
X112771458Y-65850072D01*
X112770768Y-65856633D01*
X112770768Y-65856635D01*
X112756515Y-65992251D01*
X112751496Y-66040000D01*
X94893504Y-66040000D01*
X94888485Y-65992251D01*
X94874232Y-65856635D01*
X94874232Y-65856633D01*
X94873542Y-65850072D01*
X94814527Y-65668444D01*
X94719040Y-65503056D01*
X94673744Y-65452749D01*
X94595675Y-65366045D01*
X94595674Y-65366044D01*
X94591253Y-65361134D01*
X94448245Y-65257232D01*
X94442094Y-65252763D01*
X94442093Y-65252762D01*
X94436752Y-65248882D01*
X94430724Y-65246198D01*
X94430722Y-65246197D01*
X94268319Y-65173891D01*
X94268318Y-65173891D01*
X94262288Y-65171206D01*
X94149721Y-65147279D01*
X94081944Y-65132872D01*
X94081939Y-65132872D01*
X94075487Y-65131500D01*
X93884513Y-65131500D01*
X93878061Y-65132872D01*
X93878056Y-65132872D01*
X93810279Y-65147279D01*
X93697712Y-65171206D01*
X93691682Y-65173891D01*
X93691681Y-65173891D01*
X93529278Y-65246197D01*
X93529276Y-65246198D01*
X93523248Y-65248882D01*
X93517907Y-65252762D01*
X93517906Y-65252763D01*
X93511755Y-65257232D01*
X93368747Y-65361134D01*
X93364326Y-65366044D01*
X93364325Y-65366045D01*
X93286257Y-65452749D01*
X93240960Y-65503056D01*
X93145473Y-65668444D01*
X93086458Y-65850072D01*
X93085768Y-65856633D01*
X93085768Y-65856635D01*
X93071515Y-65992251D01*
X93066496Y-66040000D01*
X90037154Y-66040000D01*
X90036240Y-62230000D01*
X95606496Y-62230000D01*
X95626458Y-62419928D01*
X95685473Y-62601556D01*
X95780960Y-62766944D01*
X95785378Y-62771851D01*
X95785379Y-62771852D01*
X95861546Y-62856444D01*
X95908747Y-62908866D01*
X96063248Y-63021118D01*
X96069276Y-63023802D01*
X96069278Y-63023803D01*
X96211934Y-63087317D01*
X96266030Y-63133297D01*
X96286679Y-63201224D01*
X96267327Y-63269532D01*
X96211933Y-63317531D01*
X96158781Y-63341195D01*
X96158774Y-63341199D01*
X96152748Y-63343882D01*
X95998247Y-63456134D01*
X95993826Y-63461044D01*
X95993825Y-63461045D01*
X95915757Y-63547749D01*
X95870460Y-63598056D01*
X95774973Y-63763444D01*
X95715958Y-63945072D01*
X95715268Y-63951633D01*
X95715268Y-63951635D01*
X95711886Y-63983811D01*
X95695996Y-64135000D01*
X95696686Y-64141565D01*
X95712687Y-64293803D01*
X95715958Y-64324928D01*
X95774973Y-64506556D01*
X95870460Y-64671944D01*
X95874878Y-64676851D01*
X95874879Y-64676852D01*
X95958750Y-64770000D01*
X95998247Y-64813866D01*
X96152748Y-64926118D01*
X96158776Y-64928802D01*
X96158778Y-64928803D01*
X96320541Y-65000824D01*
X96327212Y-65003794D01*
X96420613Y-65023647D01*
X96507556Y-65042128D01*
X96507561Y-65042128D01*
X96514013Y-65043500D01*
X96704987Y-65043500D01*
X96711439Y-65042128D01*
X96711444Y-65042128D01*
X96798387Y-65023647D01*
X96891788Y-65003794D01*
X96898459Y-65000824D01*
X97060222Y-64928803D01*
X97060224Y-64928802D01*
X97066252Y-64926118D01*
X97220753Y-64813866D01*
X97260250Y-64770000D01*
X97344121Y-64676852D01*
X97344122Y-64676851D01*
X97348540Y-64671944D01*
X97444027Y-64506556D01*
X97503042Y-64324928D01*
X97506314Y-64293803D01*
X97522314Y-64141565D01*
X97523004Y-64135000D01*
X101321496Y-64135000D01*
X101322186Y-64141565D01*
X101338187Y-64293803D01*
X101341458Y-64324928D01*
X101400473Y-64506556D01*
X101495960Y-64671944D01*
X101500378Y-64676851D01*
X101500379Y-64676852D01*
X101584250Y-64770000D01*
X101623747Y-64813866D01*
X101778248Y-64926118D01*
X101784276Y-64928802D01*
X101784278Y-64928803D01*
X101946041Y-65000824D01*
X101952712Y-65003794D01*
X102046113Y-65023647D01*
X102133056Y-65042128D01*
X102133061Y-65042128D01*
X102139513Y-65043500D01*
X102330487Y-65043500D01*
X102336939Y-65042128D01*
X102336944Y-65042128D01*
X102423887Y-65023647D01*
X102517288Y-65003794D01*
X102523959Y-65000824D01*
X102685722Y-64928803D01*
X102685724Y-64928802D01*
X102691752Y-64926118D01*
X102846253Y-64813866D01*
X102885750Y-64770000D01*
X102969621Y-64676852D01*
X102969622Y-64676851D01*
X102974040Y-64671944D01*
X103069527Y-64506556D01*
X103128542Y-64324928D01*
X103131814Y-64293803D01*
X103147814Y-64141565D01*
X103148504Y-64135000D01*
X103132614Y-63983811D01*
X103129232Y-63951635D01*
X103129232Y-63951633D01*
X103128542Y-63945072D01*
X103069527Y-63763444D01*
X102974040Y-63598056D01*
X102928744Y-63547749D01*
X102850675Y-63461045D01*
X102850674Y-63461044D01*
X102846253Y-63456134D01*
X102691752Y-63343882D01*
X102685724Y-63341198D01*
X102685722Y-63341197D01*
X102528031Y-63270989D01*
X103771996Y-63270989D01*
X103772686Y-63277554D01*
X103786276Y-63406852D01*
X103791958Y-63460917D01*
X103850973Y-63642545D01*
X103854276Y-63648267D01*
X103854277Y-63648268D01*
X103864505Y-63665983D01*
X103946460Y-63807933D01*
X103950878Y-63812840D01*
X103950879Y-63812841D01*
X104029207Y-63899833D01*
X104074247Y-63949855D01*
X104228748Y-64062107D01*
X104234776Y-64064791D01*
X104234778Y-64064792D01*
X104392469Y-64135000D01*
X104403212Y-64139783D01*
X104496613Y-64159636D01*
X104583556Y-64178117D01*
X104583561Y-64178117D01*
X104590013Y-64179489D01*
X104780987Y-64179489D01*
X104787439Y-64178117D01*
X104787444Y-64178117D01*
X104874387Y-64159636D01*
X104967788Y-64139783D01*
X104978531Y-64135000D01*
X105136222Y-64064792D01*
X105136224Y-64064791D01*
X105142252Y-64062107D01*
X105296753Y-63949855D01*
X105341793Y-63899833D01*
X105420121Y-63812841D01*
X105420122Y-63812840D01*
X105424540Y-63807933D01*
X105506495Y-63665983D01*
X105516723Y-63648268D01*
X105516724Y-63648267D01*
X105520027Y-63642545D01*
X105579042Y-63460917D01*
X105584725Y-63406852D01*
X105598314Y-63277554D01*
X105599004Y-63270989D01*
X105598314Y-63264424D01*
X105579732Y-63087624D01*
X105579732Y-63087622D01*
X105579042Y-63081061D01*
X105520027Y-62899433D01*
X105424540Y-62734045D01*
X105331944Y-62631206D01*
X105301175Y-62597034D01*
X105301174Y-62597033D01*
X105296753Y-62592123D01*
X105182934Y-62509428D01*
X105147594Y-62483752D01*
X105147593Y-62483751D01*
X105142252Y-62479871D01*
X105136224Y-62477187D01*
X105136222Y-62477186D01*
X104973819Y-62404880D01*
X104973818Y-62404880D01*
X104967788Y-62402195D01*
X104874388Y-62382342D01*
X104787444Y-62363861D01*
X104787439Y-62363861D01*
X104780987Y-62362489D01*
X104590013Y-62362489D01*
X104583561Y-62363861D01*
X104583556Y-62363861D01*
X104496612Y-62382342D01*
X104403212Y-62402195D01*
X104397182Y-62404880D01*
X104397181Y-62404880D01*
X104234778Y-62477186D01*
X104234776Y-62477187D01*
X104228748Y-62479871D01*
X104223407Y-62483751D01*
X104223406Y-62483752D01*
X104188066Y-62509428D01*
X104074247Y-62592123D01*
X104069826Y-62597033D01*
X104069825Y-62597034D01*
X104039057Y-62631206D01*
X103946460Y-62734045D01*
X103850973Y-62899433D01*
X103791958Y-63081061D01*
X103791268Y-63087622D01*
X103791268Y-63087624D01*
X103772686Y-63264424D01*
X103771996Y-63270989D01*
X102528031Y-63270989D01*
X102523319Y-63268891D01*
X102523318Y-63268891D01*
X102517288Y-63266206D01*
X102404721Y-63242279D01*
X102336944Y-63227872D01*
X102336939Y-63227872D01*
X102330487Y-63226500D01*
X102139513Y-63226500D01*
X102133061Y-63227872D01*
X102133056Y-63227872D01*
X102065279Y-63242279D01*
X101952712Y-63266206D01*
X101946682Y-63268891D01*
X101946681Y-63268891D01*
X101784278Y-63341197D01*
X101784276Y-63341198D01*
X101778248Y-63343882D01*
X101623747Y-63456134D01*
X101619326Y-63461044D01*
X101619325Y-63461045D01*
X101541257Y-63547749D01*
X101495960Y-63598056D01*
X101400473Y-63763444D01*
X101341458Y-63945072D01*
X101340768Y-63951633D01*
X101340768Y-63951635D01*
X101337386Y-63983811D01*
X101321496Y-64135000D01*
X97523004Y-64135000D01*
X97507114Y-63983811D01*
X97503732Y-63951635D01*
X97503732Y-63951633D01*
X97503042Y-63945072D01*
X97444027Y-63763444D01*
X97348540Y-63598056D01*
X97303244Y-63547749D01*
X97225175Y-63461045D01*
X97225174Y-63461044D01*
X97220753Y-63456134D01*
X97066252Y-63343882D01*
X97060224Y-63341198D01*
X97060222Y-63341197D01*
X96917566Y-63277683D01*
X96863470Y-63231703D01*
X96842821Y-63163776D01*
X96862173Y-63095468D01*
X96917567Y-63047469D01*
X96970719Y-63023805D01*
X96970726Y-63023801D01*
X96976752Y-63021118D01*
X97131253Y-62908866D01*
X97178454Y-62856444D01*
X97254621Y-62771852D01*
X97254622Y-62771851D01*
X97259040Y-62766944D01*
X97354527Y-62601556D01*
X97413542Y-62419928D01*
X97433504Y-62230000D01*
X97422289Y-62123294D01*
X97414232Y-62046635D01*
X97414232Y-62046633D01*
X97413542Y-62040072D01*
X97354527Y-61858444D01*
X97338203Y-61830169D01*
X97262341Y-61698774D01*
X97259040Y-61693056D01*
X97213744Y-61642749D01*
X97135675Y-61556045D01*
X97135674Y-61556044D01*
X97131253Y-61551134D01*
X96976752Y-61438882D01*
X96970724Y-61436198D01*
X96970722Y-61436197D01*
X96808319Y-61363891D01*
X96808318Y-61363891D01*
X96802288Y-61361206D01*
X96689721Y-61337279D01*
X96621944Y-61322872D01*
X96621939Y-61322872D01*
X96615487Y-61321500D01*
X96424513Y-61321500D01*
X96418061Y-61322872D01*
X96418056Y-61322872D01*
X96350279Y-61337279D01*
X96237712Y-61361206D01*
X96231682Y-61363891D01*
X96231681Y-61363891D01*
X96069278Y-61436197D01*
X96069276Y-61436198D01*
X96063248Y-61438882D01*
X95908747Y-61551134D01*
X95904326Y-61556044D01*
X95904325Y-61556045D01*
X95826257Y-61642749D01*
X95780960Y-61693056D01*
X95777659Y-61698774D01*
X95701798Y-61830169D01*
X95685473Y-61858444D01*
X95626458Y-62040072D01*
X95625768Y-62046633D01*
X95625768Y-62046635D01*
X95617711Y-62123294D01*
X95606496Y-62230000D01*
X90036240Y-62230000D01*
X90035600Y-59559376D01*
X90811072Y-59559376D01*
X90851770Y-59659603D01*
X90856413Y-59668794D01*
X90967694Y-59850388D01*
X90973777Y-59858699D01*
X91113213Y-60019667D01*
X91120580Y-60026883D01*
X91284434Y-60162916D01*
X91292881Y-60168831D01*
X91476756Y-60276279D01*
X91486043Y-60280729D01*
X91553078Y-60306327D01*
X91567134Y-60307442D01*
X91570000Y-60302290D01*
X91570000Y-59568115D01*
X91565525Y-59552876D01*
X91564135Y-59551671D01*
X91556452Y-59550000D01*
X90825380Y-59550000D01*
X90811849Y-59553973D01*
X90811072Y-59559376D01*
X90035600Y-59559376D01*
X90034861Y-56476695D01*
X90707251Y-56476695D01*
X90707548Y-56481848D01*
X90707548Y-56481851D01*
X90713011Y-56576590D01*
X90720110Y-56699715D01*
X90721247Y-56704761D01*
X90721248Y-56704767D01*
X90741119Y-56792939D01*
X90769222Y-56917639D01*
X90853266Y-57124616D01*
X90904019Y-57207438D01*
X90967291Y-57310688D01*
X90969987Y-57315088D01*
X91116250Y-57483938D01*
X91288126Y-57626632D01*
X91349196Y-57662318D01*
X91361955Y-57669774D01*
X91410679Y-57721412D01*
X91423750Y-57791195D01*
X91397019Y-57856967D01*
X91356562Y-57890327D01*
X91348457Y-57894546D01*
X91339738Y-57900036D01*
X91169433Y-58027905D01*
X91161726Y-58034748D01*
X91014590Y-58188717D01*
X91008104Y-58196727D01*
X90888098Y-58372649D01*
X90883000Y-58381623D01*
X90812469Y-58533570D01*
X90810376Y-58547513D01*
X90814193Y-58550000D01*
X92444000Y-58550000D01*
X92512121Y-58570002D01*
X92558614Y-58623658D01*
X92570000Y-58676000D01*
X92570000Y-60299221D01*
X92573973Y-60312752D01*
X92577842Y-60313308D01*
X92578867Y-60312992D01*
X92763095Y-60222739D01*
X92771945Y-60217464D01*
X92945328Y-60093792D01*
X92953200Y-60087139D01*
X93104052Y-59936812D01*
X93110730Y-59928965D01*
X93238022Y-59751819D01*
X93239279Y-59752722D01*
X93286373Y-59709362D01*
X93356311Y-59697145D01*
X93421751Y-59724678D01*
X93449579Y-59756511D01*
X93509987Y-59855088D01*
X93656250Y-60023938D01*
X93828126Y-60166632D01*
X94021000Y-60279338D01*
X94229692Y-60359030D01*
X94234760Y-60360061D01*
X94234763Y-60360062D01*
X94342017Y-60381883D01*
X94448597Y-60403567D01*
X94453772Y-60403757D01*
X94453774Y-60403757D01*
X94666673Y-60411564D01*
X94666677Y-60411564D01*
X94671837Y-60411753D01*
X94676957Y-60411097D01*
X94676959Y-60411097D01*
X94888288Y-60384025D01*
X94888289Y-60384025D01*
X94893416Y-60383368D01*
X94898366Y-60381883D01*
X95102429Y-60320661D01*
X95102434Y-60320659D01*
X95107384Y-60319174D01*
X95307994Y-60220896D01*
X95489860Y-60091173D01*
X95648096Y-59933489D01*
X95778453Y-59752077D01*
X95779776Y-59753028D01*
X95826645Y-59709857D01*
X95896580Y-59697625D01*
X95962026Y-59725144D01*
X95989875Y-59756994D01*
X96049987Y-59855088D01*
X96196250Y-60023938D01*
X96368126Y-60166632D01*
X96561000Y-60279338D01*
X96769692Y-60359030D01*
X96774760Y-60360061D01*
X96774763Y-60360062D01*
X96882017Y-60381883D01*
X96988597Y-60403567D01*
X96993772Y-60403757D01*
X96993774Y-60403757D01*
X97206673Y-60411564D01*
X97206677Y-60411564D01*
X97211837Y-60411753D01*
X97216957Y-60411097D01*
X97216959Y-60411097D01*
X97428288Y-60384025D01*
X97428289Y-60384025D01*
X97433416Y-60383368D01*
X97438366Y-60381883D01*
X97642429Y-60320661D01*
X97642434Y-60320659D01*
X97647384Y-60319174D01*
X97847994Y-60220896D01*
X98029860Y-60091173D01*
X98188096Y-59933489D01*
X98318453Y-59752077D01*
X98319776Y-59753028D01*
X98366645Y-59709857D01*
X98436580Y-59697625D01*
X98502026Y-59725144D01*
X98529875Y-59756994D01*
X98589987Y-59855088D01*
X98736250Y-60023938D01*
X98908126Y-60166632D01*
X98912594Y-60169243D01*
X98912597Y-60169245D01*
X98957129Y-60195267D01*
X99005853Y-60246905D01*
X99018925Y-60316687D01*
X98992194Y-60382460D01*
X98987212Y-60388347D01*
X98955960Y-60423056D01*
X98860473Y-60588444D01*
X98801458Y-60770072D01*
X98781496Y-60960000D01*
X98801458Y-61149928D01*
X98860473Y-61331556D01*
X98863776Y-61337278D01*
X98863777Y-61337279D01*
X98876799Y-61359834D01*
X98955960Y-61496944D01*
X98960378Y-61501851D01*
X98960379Y-61501852D01*
X99004753Y-61551134D01*
X99083747Y-61638866D01*
X99238248Y-61751118D01*
X99244276Y-61753802D01*
X99244278Y-61753803D01*
X99308859Y-61782556D01*
X99412712Y-61828794D01*
X99419167Y-61830166D01*
X99419176Y-61830169D01*
X99445978Y-61835866D01*
X99508451Y-61869594D01*
X99542772Y-61931744D01*
X99539613Y-61998046D01*
X99525958Y-62040072D01*
X99525268Y-62046633D01*
X99525268Y-62046635D01*
X99517211Y-62123294D01*
X99505996Y-62230000D01*
X99525958Y-62419928D01*
X99584973Y-62601556D01*
X99680460Y-62766944D01*
X99684878Y-62771851D01*
X99684879Y-62771852D01*
X99761046Y-62856444D01*
X99808247Y-62908866D01*
X99962748Y-63021118D01*
X99968776Y-63023802D01*
X99968778Y-63023803D01*
X100131181Y-63096109D01*
X100137212Y-63098794D01*
X100230613Y-63118647D01*
X100317556Y-63137128D01*
X100317561Y-63137128D01*
X100324013Y-63138500D01*
X100514987Y-63138500D01*
X100521439Y-63137128D01*
X100521444Y-63137128D01*
X100608387Y-63118647D01*
X100701788Y-63098794D01*
X100707819Y-63096109D01*
X100870222Y-63023803D01*
X100870224Y-63023802D01*
X100876252Y-63021118D01*
X101030753Y-62908866D01*
X101077954Y-62856444D01*
X101154121Y-62771852D01*
X101154122Y-62771851D01*
X101158540Y-62766944D01*
X101254027Y-62601556D01*
X101313042Y-62419928D01*
X101323597Y-62319500D01*
X105766496Y-62319500D01*
X105767186Y-62326065D01*
X105785439Y-62499729D01*
X105786458Y-62509428D01*
X105845473Y-62691056D01*
X105848776Y-62696778D01*
X105848777Y-62696779D01*
X105867459Y-62729137D01*
X105940960Y-62856444D01*
X105945378Y-62861351D01*
X105945379Y-62861352D01*
X106036954Y-62963056D01*
X106068747Y-62998366D01*
X106167843Y-63070364D01*
X106191600Y-63087624D01*
X106223248Y-63110618D01*
X106229276Y-63113302D01*
X106229278Y-63113303D01*
X106285872Y-63138500D01*
X106397712Y-63188294D01*
X106458543Y-63201224D01*
X106578056Y-63226628D01*
X106578061Y-63226628D01*
X106584513Y-63228000D01*
X106775487Y-63228000D01*
X106781939Y-63226628D01*
X106781944Y-63226628D01*
X106901457Y-63201224D01*
X106962288Y-63188294D01*
X107074128Y-63138500D01*
X107130722Y-63113303D01*
X107130724Y-63113302D01*
X107136752Y-63110618D01*
X107168401Y-63087624D01*
X107192157Y-63070364D01*
X107291253Y-62998366D01*
X107323046Y-62963056D01*
X107411336Y-62865000D01*
X111481496Y-62865000D01*
X111482186Y-62871565D01*
X111498187Y-63023803D01*
X111501458Y-63054928D01*
X111560473Y-63236556D01*
X111655960Y-63401944D01*
X111660375Y-63406847D01*
X111660379Y-63406852D01*
X111703150Y-63454354D01*
X111783747Y-63543866D01*
X111850445Y-63592325D01*
X111924296Y-63645981D01*
X111938248Y-63656118D01*
X111944276Y-63658802D01*
X111944278Y-63658803D01*
X112055617Y-63708374D01*
X112112712Y-63733794D01*
X112206113Y-63753647D01*
X112293056Y-63772128D01*
X112293061Y-63772128D01*
X112299513Y-63773500D01*
X112490487Y-63773500D01*
X112496939Y-63772128D01*
X112496944Y-63772128D01*
X112583887Y-63753647D01*
X112677288Y-63733794D01*
X112734383Y-63708374D01*
X112845722Y-63658803D01*
X112845724Y-63658802D01*
X112851752Y-63656118D01*
X112865705Y-63645981D01*
X112939555Y-63592325D01*
X113006253Y-63543866D01*
X113086850Y-63454354D01*
X113129621Y-63406852D01*
X113129625Y-63406847D01*
X113134040Y-63401944D01*
X113229527Y-63236556D01*
X113288542Y-63054928D01*
X113291814Y-63023803D01*
X113307814Y-62871565D01*
X113308504Y-62865000D01*
X114021496Y-62865000D01*
X114022186Y-62871565D01*
X114038187Y-63023803D01*
X114041458Y-63054928D01*
X114100473Y-63236556D01*
X114195960Y-63401944D01*
X114200375Y-63406847D01*
X114200379Y-63406852D01*
X114243150Y-63454354D01*
X114323747Y-63543866D01*
X114390445Y-63592325D01*
X114464296Y-63645981D01*
X114478248Y-63656118D01*
X114484276Y-63658802D01*
X114484278Y-63658803D01*
X114595617Y-63708374D01*
X114652712Y-63733794D01*
X114746113Y-63753647D01*
X114833056Y-63772128D01*
X114833061Y-63772128D01*
X114839513Y-63773500D01*
X114981219Y-63773500D01*
X115049340Y-63793502D01*
X115095833Y-63847158D01*
X115105937Y-63917432D01*
X115074856Y-63983808D01*
X115026477Y-64037539D01*
X114930990Y-64202927D01*
X114871975Y-64384555D01*
X114871285Y-64391116D01*
X114871285Y-64391118D01*
X114869458Y-64408500D01*
X114852013Y-64574483D01*
X114871975Y-64764411D01*
X114930990Y-64946039D01*
X114934293Y-64951761D01*
X114934294Y-64951762D01*
X114939009Y-64959928D01*
X115026477Y-65111427D01*
X115154264Y-65253349D01*
X115220161Y-65301226D01*
X115302617Y-65361134D01*
X115308765Y-65365601D01*
X115314793Y-65368285D01*
X115314795Y-65368286D01*
X115477196Y-65440591D01*
X115483229Y-65443277D01*
X115576629Y-65463130D01*
X115663573Y-65481611D01*
X115663578Y-65481611D01*
X115670030Y-65482983D01*
X115861004Y-65482983D01*
X115867456Y-65481611D01*
X115867461Y-65481611D01*
X116021511Y-65448866D01*
X116047805Y-65443277D01*
X116090667Y-65424194D01*
X116161032Y-65414760D01*
X116225600Y-65445371D01*
X116228747Y-65448866D01*
X116234089Y-65452747D01*
X116234091Y-65452749D01*
X116311203Y-65508774D01*
X116383248Y-65561118D01*
X116389276Y-65563802D01*
X116389278Y-65563803D01*
X116551681Y-65636109D01*
X116557712Y-65638794D01*
X116651112Y-65658647D01*
X116738056Y-65677128D01*
X116738061Y-65677128D01*
X116744513Y-65678500D01*
X116935487Y-65678500D01*
X116941939Y-65677128D01*
X116941944Y-65677128D01*
X117028888Y-65658647D01*
X117122288Y-65638794D01*
X117128319Y-65636109D01*
X117290722Y-65563803D01*
X117290724Y-65563802D01*
X117296752Y-65561118D01*
X117451253Y-65448866D01*
X117506624Y-65387370D01*
X117574621Y-65311852D01*
X117574622Y-65311851D01*
X117579040Y-65306944D01*
X117674527Y-65141556D01*
X117733542Y-64959928D01*
X117735663Y-64939754D01*
X117752814Y-64776565D01*
X117753504Y-64770000D01*
X119101496Y-64770000D01*
X119102186Y-64776565D01*
X119119338Y-64939754D01*
X119121458Y-64959928D01*
X119180473Y-65141556D01*
X119275960Y-65306944D01*
X119280378Y-65311851D01*
X119280379Y-65311852D01*
X119348376Y-65387370D01*
X119403747Y-65448866D01*
X119558248Y-65561118D01*
X119564276Y-65563802D01*
X119564278Y-65563803D01*
X119726681Y-65636109D01*
X119732712Y-65638794D01*
X119826112Y-65658647D01*
X119913056Y-65677128D01*
X119913061Y-65677128D01*
X119919513Y-65678500D01*
X120110487Y-65678500D01*
X120116939Y-65677128D01*
X120116944Y-65677128D01*
X120258716Y-65646993D01*
X120329507Y-65652395D01*
X120386139Y-65695212D01*
X120410633Y-65761850D01*
X120404746Y-65809176D01*
X120391458Y-65850072D01*
X120390768Y-65856633D01*
X120390768Y-65856635D01*
X120376515Y-65992251D01*
X120371496Y-66040000D01*
X120391458Y-66229928D01*
X120450473Y-66411556D01*
X120545960Y-66576944D01*
X120550378Y-66581851D01*
X120550379Y-66581852D01*
X120594753Y-66631134D01*
X120673747Y-66718866D01*
X120828248Y-66831118D01*
X120834276Y-66833802D01*
X120834278Y-66833803D01*
X120996681Y-66906109D01*
X121002712Y-66908794D01*
X121096112Y-66928647D01*
X121183056Y-66947128D01*
X121183061Y-66947128D01*
X121189513Y-66948500D01*
X121380487Y-66948500D01*
X121386939Y-66947128D01*
X121386944Y-66947128D01*
X121473888Y-66928647D01*
X121567288Y-66908794D01*
X121573319Y-66906109D01*
X121735722Y-66833803D01*
X121735724Y-66833802D01*
X121741752Y-66831118D01*
X121896253Y-66718866D01*
X121935750Y-66675000D01*
X134976496Y-66675000D01*
X134977186Y-66681565D01*
X134993187Y-66833803D01*
X134996458Y-66864928D01*
X135055473Y-67046556D01*
X135150960Y-67211944D01*
X135155378Y-67216851D01*
X135155379Y-67216852D01*
X135199753Y-67266134D01*
X135278747Y-67353866D01*
X135433248Y-67466118D01*
X135439276Y-67468802D01*
X135439278Y-67468803D01*
X135601681Y-67541109D01*
X135607712Y-67543794D01*
X135701112Y-67563647D01*
X135788056Y-67582128D01*
X135788061Y-67582128D01*
X135794513Y-67583500D01*
X135985487Y-67583500D01*
X135991939Y-67582128D01*
X135991944Y-67582128D01*
X136078888Y-67563647D01*
X136172288Y-67543794D01*
X136178319Y-67541109D01*
X136340722Y-67468803D01*
X136340724Y-67468802D01*
X136346752Y-67466118D01*
X136501253Y-67353866D01*
X136580247Y-67266134D01*
X136624621Y-67216852D01*
X136624622Y-67216851D01*
X136629040Y-67211944D01*
X136724527Y-67046556D01*
X136783542Y-66864928D01*
X136786814Y-66833803D01*
X136802814Y-66681565D01*
X136803504Y-66675000D01*
X136792597Y-66571226D01*
X136784232Y-66491635D01*
X136784232Y-66491633D01*
X136783542Y-66485072D01*
X136724527Y-66303444D01*
X136629040Y-66138056D01*
X136501253Y-65996134D01*
X136346752Y-65883882D01*
X136340724Y-65881198D01*
X136340722Y-65881197D01*
X136178319Y-65808891D01*
X136178318Y-65808891D01*
X136172288Y-65806206D01*
X136078888Y-65786353D01*
X135991944Y-65767872D01*
X135991939Y-65767872D01*
X135985487Y-65766500D01*
X135794513Y-65766500D01*
X135788061Y-65767872D01*
X135788056Y-65767872D01*
X135701112Y-65786353D01*
X135607712Y-65806206D01*
X135601682Y-65808891D01*
X135601681Y-65808891D01*
X135439278Y-65881197D01*
X135439276Y-65881198D01*
X135433248Y-65883882D01*
X135278747Y-65996134D01*
X135150960Y-66138056D01*
X135055473Y-66303444D01*
X134996458Y-66485072D01*
X134995768Y-66491633D01*
X134995768Y-66491635D01*
X134987403Y-66571226D01*
X134976496Y-66675000D01*
X121935750Y-66675000D01*
X121975247Y-66631134D01*
X122019621Y-66581852D01*
X122019622Y-66581851D01*
X122024040Y-66576944D01*
X122119527Y-66411556D01*
X122178542Y-66229928D01*
X122198504Y-66040000D01*
X122193485Y-65992251D01*
X122179232Y-65856635D01*
X122179232Y-65856633D01*
X122178542Y-65850072D01*
X122119527Y-65668444D01*
X122024040Y-65503056D01*
X121978744Y-65452749D01*
X121900675Y-65366045D01*
X121900674Y-65366044D01*
X121896253Y-65361134D01*
X121753245Y-65257232D01*
X121747094Y-65252763D01*
X121747093Y-65252762D01*
X121741752Y-65248882D01*
X121735724Y-65246198D01*
X121735722Y-65246197D01*
X121573319Y-65173891D01*
X121573318Y-65173891D01*
X121567288Y-65171206D01*
X121454721Y-65147279D01*
X121386944Y-65132872D01*
X121386939Y-65132872D01*
X121380487Y-65131500D01*
X121189513Y-65131500D01*
X121183061Y-65132872D01*
X121183056Y-65132872D01*
X121041284Y-65163007D01*
X120970493Y-65157605D01*
X120913861Y-65114788D01*
X120889367Y-65048150D01*
X120895254Y-65000824D01*
X120906502Y-64966206D01*
X120908542Y-64959928D01*
X120910663Y-64939754D01*
X120927814Y-64776565D01*
X120928504Y-64770000D01*
X147041496Y-64770000D01*
X147042186Y-64776565D01*
X147059338Y-64939754D01*
X147061458Y-64959928D01*
X147120473Y-65141556D01*
X147215960Y-65306944D01*
X147220378Y-65311851D01*
X147220379Y-65311852D01*
X147288376Y-65387370D01*
X147343747Y-65448866D01*
X147498248Y-65561118D01*
X147504276Y-65563802D01*
X147504278Y-65563803D01*
X147666681Y-65636109D01*
X147672712Y-65638794D01*
X147766112Y-65658647D01*
X147853056Y-65677128D01*
X147853061Y-65677128D01*
X147859513Y-65678500D01*
X148050487Y-65678500D01*
X148056939Y-65677128D01*
X148056944Y-65677128D01*
X148143888Y-65658647D01*
X148237288Y-65638794D01*
X148243319Y-65636109D01*
X148405722Y-65563803D01*
X148405724Y-65563802D01*
X148411752Y-65561118D01*
X148566253Y-65448866D01*
X148621624Y-65387370D01*
X148689621Y-65311852D01*
X148689622Y-65311851D01*
X148694040Y-65306944D01*
X148789527Y-65141556D01*
X148848542Y-64959928D01*
X148850663Y-64939754D01*
X148867814Y-64776565D01*
X148868504Y-64770000D01*
X148848542Y-64580072D01*
X148789527Y-64398444D01*
X148785298Y-64391118D01*
X148697341Y-64238774D01*
X148694040Y-64233056D01*
X148648744Y-64182749D01*
X148570675Y-64096045D01*
X148570674Y-64096044D01*
X148566253Y-64091134D01*
X148411752Y-63978882D01*
X148405724Y-63976198D01*
X148405722Y-63976197D01*
X148243319Y-63903891D01*
X148243318Y-63903891D01*
X148237288Y-63901206D01*
X148124721Y-63877279D01*
X148056944Y-63862872D01*
X148056939Y-63862872D01*
X148050487Y-63861500D01*
X147859513Y-63861500D01*
X147853061Y-63862872D01*
X147853056Y-63862872D01*
X147785279Y-63877279D01*
X147672712Y-63901206D01*
X147666682Y-63903891D01*
X147666681Y-63903891D01*
X147504278Y-63976197D01*
X147504276Y-63976198D01*
X147498248Y-63978882D01*
X147343747Y-64091134D01*
X147339326Y-64096044D01*
X147339325Y-64096045D01*
X147261257Y-64182749D01*
X147215960Y-64233056D01*
X147212659Y-64238774D01*
X147124703Y-64391118D01*
X147120473Y-64398444D01*
X147061458Y-64580072D01*
X147041496Y-64770000D01*
X120928504Y-64770000D01*
X120908542Y-64580072D01*
X120849527Y-64398444D01*
X120845298Y-64391118D01*
X120757341Y-64238774D01*
X120754040Y-64233056D01*
X120708744Y-64182749D01*
X120630675Y-64096045D01*
X120630674Y-64096044D01*
X120626253Y-64091134D01*
X120471752Y-63978882D01*
X120465724Y-63976198D01*
X120465722Y-63976197D01*
X120303319Y-63903891D01*
X120303318Y-63903891D01*
X120297288Y-63901206D01*
X120184721Y-63877279D01*
X120116944Y-63862872D01*
X120116939Y-63862872D01*
X120110487Y-63861500D01*
X119919513Y-63861500D01*
X119913061Y-63862872D01*
X119913056Y-63862872D01*
X119845279Y-63877279D01*
X119732712Y-63901206D01*
X119726682Y-63903891D01*
X119726681Y-63903891D01*
X119564278Y-63976197D01*
X119564276Y-63976198D01*
X119558248Y-63978882D01*
X119403747Y-64091134D01*
X119399326Y-64096044D01*
X119399325Y-64096045D01*
X119321257Y-64182749D01*
X119275960Y-64233056D01*
X119272659Y-64238774D01*
X119184703Y-64391118D01*
X119180473Y-64398444D01*
X119121458Y-64580072D01*
X119101496Y-64770000D01*
X117753504Y-64770000D01*
X117733542Y-64580072D01*
X117674527Y-64398444D01*
X117670298Y-64391118D01*
X117582341Y-64238774D01*
X117579040Y-64233056D01*
X117533744Y-64182749D01*
X117455675Y-64096045D01*
X117455674Y-64096044D01*
X117451253Y-64091134D01*
X117296752Y-63978882D01*
X117290724Y-63976198D01*
X117290722Y-63976197D01*
X117128319Y-63903891D01*
X117128318Y-63903891D01*
X117122288Y-63901206D01*
X117009721Y-63877279D01*
X116941944Y-63862872D01*
X116941939Y-63862872D01*
X116935487Y-63861500D01*
X116744513Y-63861500D01*
X116738061Y-63862872D01*
X116738056Y-63862872D01*
X116602274Y-63891734D01*
X116557712Y-63901206D01*
X116514850Y-63920289D01*
X116444485Y-63929723D01*
X116379917Y-63899112D01*
X116376770Y-63895617D01*
X116335003Y-63865271D01*
X116227611Y-63787246D01*
X116227610Y-63787245D01*
X116222269Y-63783365D01*
X116216241Y-63780681D01*
X116216239Y-63780680D01*
X116053836Y-63708374D01*
X116053835Y-63708374D01*
X116047805Y-63705689D01*
X115954404Y-63685836D01*
X115867461Y-63667355D01*
X115867456Y-63667355D01*
X115861004Y-63665983D01*
X115719298Y-63665983D01*
X115651177Y-63645981D01*
X115604684Y-63592325D01*
X115594580Y-63522051D01*
X115604906Y-63500000D01*
X123546496Y-63500000D01*
X123547186Y-63506565D01*
X123564086Y-63667355D01*
X123566458Y-63689928D01*
X123625473Y-63871556D01*
X123720960Y-64036944D01*
X123725378Y-64041851D01*
X123725379Y-64041852D01*
X123814792Y-64141155D01*
X123848747Y-64178866D01*
X124003248Y-64291118D01*
X124009276Y-64293802D01*
X124009278Y-64293803D01*
X124171681Y-64366109D01*
X124177712Y-64368794D01*
X124271113Y-64388647D01*
X124358056Y-64407128D01*
X124358061Y-64407128D01*
X124364513Y-64408500D01*
X124555487Y-64408500D01*
X124561939Y-64407128D01*
X124561944Y-64407128D01*
X124648887Y-64388647D01*
X124742288Y-64368794D01*
X124748319Y-64366109D01*
X124910722Y-64293803D01*
X124910724Y-64293802D01*
X124916752Y-64291118D01*
X125071253Y-64178866D01*
X125105208Y-64141155D01*
X125194621Y-64041852D01*
X125194622Y-64041851D01*
X125199040Y-64036944D01*
X125294527Y-63871556D01*
X125353542Y-63689928D01*
X125355915Y-63667355D01*
X125372814Y-63506565D01*
X125373504Y-63500000D01*
X125368845Y-63455672D01*
X125354232Y-63316635D01*
X125354232Y-63316633D01*
X125353542Y-63310072D01*
X125294527Y-63128444D01*
X125281995Y-63106737D01*
X125247776Y-63047469D01*
X125199040Y-62963056D01*
X125153744Y-62912749D01*
X125075675Y-62826045D01*
X125075674Y-62826044D01*
X125071253Y-62821134D01*
X124916752Y-62708882D01*
X124910724Y-62706198D01*
X124910722Y-62706197D01*
X124748319Y-62633891D01*
X124748318Y-62633891D01*
X124742288Y-62631206D01*
X124629721Y-62607279D01*
X124561944Y-62592872D01*
X124561939Y-62592872D01*
X124555487Y-62591500D01*
X124364513Y-62591500D01*
X124358061Y-62592872D01*
X124358056Y-62592872D01*
X124290279Y-62607279D01*
X124177712Y-62631206D01*
X124171682Y-62633891D01*
X124171681Y-62633891D01*
X124009278Y-62706197D01*
X124009276Y-62706198D01*
X124003248Y-62708882D01*
X123848747Y-62821134D01*
X123844326Y-62826044D01*
X123844325Y-62826045D01*
X123766257Y-62912749D01*
X123720960Y-62963056D01*
X123672224Y-63047469D01*
X123638006Y-63106737D01*
X123625473Y-63128444D01*
X123566458Y-63310072D01*
X123565768Y-63316633D01*
X123565768Y-63316635D01*
X123551155Y-63455672D01*
X123546496Y-63500000D01*
X115604906Y-63500000D01*
X115625661Y-63455675D01*
X115674040Y-63401944D01*
X115769527Y-63236556D01*
X115828542Y-63054928D01*
X115831814Y-63023803D01*
X115847814Y-62871565D01*
X115848504Y-62865000D01*
X115834740Y-62734045D01*
X115829232Y-62681635D01*
X115829232Y-62681633D01*
X115828542Y-62675072D01*
X115769527Y-62493444D01*
X115760141Y-62477186D01*
X115677341Y-62333774D01*
X115674040Y-62328056D01*
X115666336Y-62319500D01*
X121641496Y-62319500D01*
X121642186Y-62326065D01*
X121660439Y-62499729D01*
X121661458Y-62509428D01*
X121720473Y-62691056D01*
X121723776Y-62696778D01*
X121723777Y-62696779D01*
X121742459Y-62729137D01*
X121815960Y-62856444D01*
X121820378Y-62861351D01*
X121820379Y-62861352D01*
X121911954Y-62963056D01*
X121943747Y-62998366D01*
X122042843Y-63070364D01*
X122066600Y-63087624D01*
X122098248Y-63110618D01*
X122104276Y-63113302D01*
X122104278Y-63113303D01*
X122160872Y-63138500D01*
X122272712Y-63188294D01*
X122333543Y-63201224D01*
X122453056Y-63226628D01*
X122453061Y-63226628D01*
X122459513Y-63228000D01*
X122650487Y-63228000D01*
X122656939Y-63226628D01*
X122656944Y-63226628D01*
X122776457Y-63201224D01*
X122837288Y-63188294D01*
X122949128Y-63138500D01*
X123005722Y-63113303D01*
X123005724Y-63113302D01*
X123011752Y-63110618D01*
X123043401Y-63087624D01*
X123067157Y-63070364D01*
X123166253Y-62998366D01*
X123198046Y-62963056D01*
X123289621Y-62861352D01*
X123289622Y-62861351D01*
X123294040Y-62856444D01*
X123367541Y-62729137D01*
X123386223Y-62696779D01*
X123386224Y-62696778D01*
X123389527Y-62691056D01*
X123448542Y-62509428D01*
X123449562Y-62499729D01*
X123467814Y-62326065D01*
X123468504Y-62319500D01*
X123459097Y-62230000D01*
X133706496Y-62230000D01*
X133726458Y-62419928D01*
X133785473Y-62601556D01*
X133880960Y-62766944D01*
X133885378Y-62771851D01*
X133885379Y-62771852D01*
X133961546Y-62856444D01*
X134008747Y-62908866D01*
X134163248Y-63021118D01*
X134169276Y-63023802D01*
X134169278Y-63023803D01*
X134331681Y-63096109D01*
X134337712Y-63098794D01*
X134431113Y-63118647D01*
X134518056Y-63137128D01*
X134518061Y-63137128D01*
X134524513Y-63138500D01*
X134715487Y-63138500D01*
X134721939Y-63137128D01*
X134721944Y-63137128D01*
X134808887Y-63118647D01*
X134902288Y-63098794D01*
X134908319Y-63096109D01*
X135070722Y-63023803D01*
X135070724Y-63023802D01*
X135076752Y-63021118D01*
X135231253Y-62908866D01*
X135278454Y-62856444D01*
X135354621Y-62771852D01*
X135354622Y-62771851D01*
X135359040Y-62766944D01*
X135454527Y-62601556D01*
X135513542Y-62419928D01*
X135533504Y-62230000D01*
X135522289Y-62123294D01*
X135514232Y-62046635D01*
X135514232Y-62046633D01*
X135513542Y-62040072D01*
X135454527Y-61858444D01*
X135438203Y-61830169D01*
X135362341Y-61698774D01*
X135359040Y-61693056D01*
X135313744Y-61642749D01*
X135235675Y-61556045D01*
X135235674Y-61556044D01*
X135231253Y-61551134D01*
X135076752Y-61438882D01*
X135070724Y-61436198D01*
X135070722Y-61436197D01*
X134908319Y-61363891D01*
X134908318Y-61363891D01*
X134902288Y-61361206D01*
X134789721Y-61337279D01*
X134721944Y-61322872D01*
X134721939Y-61322872D01*
X134715487Y-61321500D01*
X134524513Y-61321500D01*
X134518061Y-61322872D01*
X134518056Y-61322872D01*
X134450279Y-61337279D01*
X134337712Y-61361206D01*
X134331682Y-61363891D01*
X134331681Y-61363891D01*
X134169278Y-61436197D01*
X134169276Y-61436198D01*
X134163248Y-61438882D01*
X134008747Y-61551134D01*
X134004326Y-61556044D01*
X134004325Y-61556045D01*
X133926257Y-61642749D01*
X133880960Y-61693056D01*
X133877659Y-61698774D01*
X133801798Y-61830169D01*
X133785473Y-61858444D01*
X133726458Y-62040072D01*
X133725768Y-62046633D01*
X133725768Y-62046635D01*
X133717711Y-62123294D01*
X133706496Y-62230000D01*
X123459097Y-62230000D01*
X123448542Y-62129572D01*
X123389527Y-61947944D01*
X123294040Y-61782556D01*
X123218603Y-61698774D01*
X123170675Y-61645545D01*
X123170674Y-61645544D01*
X123166253Y-61640634D01*
X123011752Y-61528382D01*
X123005724Y-61525698D01*
X123005722Y-61525697D01*
X122843319Y-61453391D01*
X122843318Y-61453391D01*
X122837288Y-61450706D01*
X122743887Y-61430853D01*
X122656944Y-61412372D01*
X122656939Y-61412372D01*
X122650487Y-61411000D01*
X122459513Y-61411000D01*
X122453061Y-61412372D01*
X122453056Y-61412372D01*
X122366113Y-61430853D01*
X122272712Y-61450706D01*
X122266682Y-61453391D01*
X122266681Y-61453391D01*
X122104278Y-61525697D01*
X122104276Y-61525698D01*
X122098248Y-61528382D01*
X121943747Y-61640634D01*
X121939326Y-61645544D01*
X121939325Y-61645545D01*
X121891398Y-61698774D01*
X121815960Y-61782556D01*
X121720473Y-61947944D01*
X121661458Y-62129572D01*
X121641496Y-62319500D01*
X115666336Y-62319500D01*
X115546253Y-62186134D01*
X115391752Y-62073882D01*
X115385724Y-62071198D01*
X115385722Y-62071197D01*
X115223319Y-61998891D01*
X115223318Y-61998891D01*
X115217288Y-61996206D01*
X115123888Y-61976353D01*
X115036944Y-61957872D01*
X115036939Y-61957872D01*
X115030487Y-61956500D01*
X114839513Y-61956500D01*
X114833061Y-61957872D01*
X114833056Y-61957872D01*
X114746112Y-61976353D01*
X114652712Y-61996206D01*
X114646682Y-61998891D01*
X114646681Y-61998891D01*
X114484278Y-62071197D01*
X114484276Y-62071198D01*
X114478248Y-62073882D01*
X114323747Y-62186134D01*
X114195960Y-62328056D01*
X114192659Y-62333774D01*
X114109860Y-62477186D01*
X114100473Y-62493444D01*
X114041458Y-62675072D01*
X114040768Y-62681633D01*
X114040768Y-62681635D01*
X114035260Y-62734045D01*
X114021496Y-62865000D01*
X113308504Y-62865000D01*
X113294740Y-62734045D01*
X113289232Y-62681635D01*
X113289232Y-62681633D01*
X113288542Y-62675072D01*
X113229527Y-62493444D01*
X113220141Y-62477186D01*
X113137341Y-62333774D01*
X113134040Y-62328056D01*
X113006253Y-62186134D01*
X112851752Y-62073882D01*
X112845724Y-62071198D01*
X112845722Y-62071197D01*
X112683319Y-61998891D01*
X112683318Y-61998891D01*
X112677288Y-61996206D01*
X112583888Y-61976353D01*
X112496944Y-61957872D01*
X112496939Y-61957872D01*
X112490487Y-61956500D01*
X112299513Y-61956500D01*
X112293061Y-61957872D01*
X112293056Y-61957872D01*
X112206112Y-61976353D01*
X112112712Y-61996206D01*
X112106682Y-61998891D01*
X112106681Y-61998891D01*
X111944278Y-62071197D01*
X111944276Y-62071198D01*
X111938248Y-62073882D01*
X111783747Y-62186134D01*
X111655960Y-62328056D01*
X111652659Y-62333774D01*
X111569860Y-62477186D01*
X111560473Y-62493444D01*
X111501458Y-62675072D01*
X111500768Y-62681633D01*
X111500768Y-62681635D01*
X111495260Y-62734045D01*
X111481496Y-62865000D01*
X107411336Y-62865000D01*
X107414621Y-62861352D01*
X107414622Y-62861351D01*
X107419040Y-62856444D01*
X107492541Y-62729137D01*
X107511223Y-62696779D01*
X107511224Y-62696778D01*
X107514527Y-62691056D01*
X107573542Y-62509428D01*
X107574562Y-62499729D01*
X107592814Y-62326065D01*
X107593504Y-62319500D01*
X107573542Y-62129572D01*
X107514527Y-61947944D01*
X107419040Y-61782556D01*
X107343603Y-61698774D01*
X107295675Y-61645545D01*
X107295674Y-61645544D01*
X107291253Y-61640634D01*
X107136752Y-61528382D01*
X107130724Y-61525698D01*
X107130722Y-61525697D01*
X106968319Y-61453391D01*
X106968318Y-61453391D01*
X106962288Y-61450706D01*
X106868887Y-61430853D01*
X106781944Y-61412372D01*
X106781939Y-61412372D01*
X106775487Y-61411000D01*
X106584513Y-61411000D01*
X106578061Y-61412372D01*
X106578056Y-61412372D01*
X106491113Y-61430853D01*
X106397712Y-61450706D01*
X106391682Y-61453391D01*
X106391681Y-61453391D01*
X106229278Y-61525697D01*
X106229276Y-61525698D01*
X106223248Y-61528382D01*
X106068747Y-61640634D01*
X106064326Y-61645544D01*
X106064325Y-61645545D01*
X106016398Y-61698774D01*
X105940960Y-61782556D01*
X105845473Y-61947944D01*
X105786458Y-62129572D01*
X105766496Y-62319500D01*
X101323597Y-62319500D01*
X101333004Y-62230000D01*
X101321789Y-62123294D01*
X101313732Y-62046635D01*
X101313732Y-62046633D01*
X101313042Y-62040072D01*
X101254027Y-61858444D01*
X101237703Y-61830169D01*
X101161841Y-61698774D01*
X101158540Y-61693056D01*
X101113244Y-61642749D01*
X101035175Y-61556045D01*
X101035174Y-61556044D01*
X101030753Y-61551134D01*
X100876252Y-61438882D01*
X100870224Y-61436198D01*
X100870222Y-61436197D01*
X100707819Y-61363891D01*
X100707818Y-61363891D01*
X100701788Y-61361206D01*
X100695333Y-61359834D01*
X100695324Y-61359831D01*
X100668522Y-61354134D01*
X100606049Y-61320406D01*
X100571728Y-61258256D01*
X100574887Y-61191954D01*
X100588542Y-61149928D01*
X100608504Y-60960000D01*
X100588542Y-60770072D01*
X100529527Y-60588444D01*
X100434040Y-60423056D01*
X100399654Y-60384866D01*
X100368938Y-60320862D01*
X100377701Y-60250408D01*
X100420123Y-60197979D01*
X100565656Y-60094172D01*
X100565659Y-60094170D01*
X100569860Y-60091173D01*
X100728096Y-59933489D01*
X100858453Y-59752077D01*
X100859776Y-59753028D01*
X100906645Y-59709857D01*
X100976580Y-59697625D01*
X101042026Y-59725144D01*
X101069875Y-59756994D01*
X101129987Y-59855088D01*
X101276250Y-60023938D01*
X101448126Y-60166632D01*
X101641000Y-60279338D01*
X101849692Y-60359030D01*
X101854760Y-60360061D01*
X101854763Y-60360062D01*
X101962017Y-60381883D01*
X102068597Y-60403567D01*
X102073772Y-60403757D01*
X102073774Y-60403757D01*
X102286673Y-60411564D01*
X102286677Y-60411564D01*
X102291837Y-60411753D01*
X102296957Y-60411097D01*
X102296959Y-60411097D01*
X102508288Y-60384025D01*
X102508289Y-60384025D01*
X102513416Y-60383368D01*
X102518366Y-60381883D01*
X102722429Y-60320661D01*
X102722434Y-60320659D01*
X102727384Y-60319174D01*
X102927994Y-60220896D01*
X103109860Y-60091173D01*
X103268096Y-59933489D01*
X103398453Y-59752077D01*
X103399776Y-59753028D01*
X103446645Y-59709857D01*
X103516580Y-59697625D01*
X103582026Y-59725144D01*
X103609875Y-59756994D01*
X103669987Y-59855088D01*
X103816250Y-60023938D01*
X103988126Y-60166632D01*
X104181000Y-60279338D01*
X104389692Y-60359030D01*
X104394760Y-60360061D01*
X104394763Y-60360062D01*
X104502017Y-60381883D01*
X104608597Y-60403567D01*
X104613772Y-60403757D01*
X104613774Y-60403757D01*
X104826673Y-60411564D01*
X104826677Y-60411564D01*
X104831837Y-60411753D01*
X104836957Y-60411097D01*
X104836959Y-60411097D01*
X105048288Y-60384025D01*
X105048289Y-60384025D01*
X105053416Y-60383368D01*
X105058366Y-60381883D01*
X105262429Y-60320661D01*
X105262434Y-60320659D01*
X105267384Y-60319174D01*
X105467994Y-60220896D01*
X105649860Y-60091173D01*
X105808096Y-59933489D01*
X105938453Y-59752077D01*
X105939776Y-59753028D01*
X105986645Y-59709857D01*
X106056580Y-59697625D01*
X106122026Y-59725144D01*
X106149875Y-59756994D01*
X106209987Y-59855088D01*
X106356250Y-60023938D01*
X106528126Y-60166632D01*
X106721000Y-60279338D01*
X106929692Y-60359030D01*
X106934760Y-60360061D01*
X106934763Y-60360062D01*
X107042017Y-60381883D01*
X107148597Y-60403567D01*
X107153772Y-60403757D01*
X107153774Y-60403757D01*
X107366673Y-60411564D01*
X107366677Y-60411564D01*
X107371837Y-60411753D01*
X107376957Y-60411097D01*
X107376959Y-60411097D01*
X107588288Y-60384025D01*
X107588289Y-60384025D01*
X107593416Y-60383368D01*
X107598366Y-60381883D01*
X107802429Y-60320661D01*
X107802434Y-60320659D01*
X107807384Y-60319174D01*
X108007994Y-60220896D01*
X108189860Y-60091173D01*
X108348096Y-59933489D01*
X108478453Y-59752077D01*
X108479640Y-59752930D01*
X108526960Y-59709362D01*
X108596897Y-59697145D01*
X108662338Y-59724678D01*
X108690166Y-59756511D01*
X108747694Y-59850388D01*
X108753777Y-59858699D01*
X108893213Y-60019667D01*
X108900580Y-60026883D01*
X109064434Y-60162916D01*
X109072881Y-60168831D01*
X109256756Y-60276279D01*
X109266043Y-60280729D01*
X109333078Y-60306327D01*
X109347134Y-60307442D01*
X109350000Y-60302290D01*
X109350000Y-58676000D01*
X109370002Y-58607879D01*
X109423658Y-58561386D01*
X109476000Y-58550000D01*
X110224000Y-58550000D01*
X110292121Y-58570002D01*
X110338614Y-58623658D01*
X110350000Y-58676000D01*
X110350000Y-60299221D01*
X110353973Y-60312752D01*
X110357842Y-60313308D01*
X110358867Y-60312992D01*
X110543095Y-60222739D01*
X110551945Y-60217464D01*
X110725328Y-60093792D01*
X110733200Y-60087139D01*
X110884052Y-59936812D01*
X110890730Y-59928965D01*
X111018022Y-59751819D01*
X111019279Y-59752722D01*
X111066373Y-59709362D01*
X111136311Y-59697145D01*
X111201751Y-59724678D01*
X111229579Y-59756511D01*
X111289987Y-59855088D01*
X111436250Y-60023938D01*
X111608126Y-60166632D01*
X111801000Y-60279338D01*
X112009692Y-60359030D01*
X112014760Y-60360061D01*
X112014763Y-60360062D01*
X112122017Y-60381883D01*
X112228597Y-60403567D01*
X112233772Y-60403757D01*
X112233774Y-60403757D01*
X112446673Y-60411564D01*
X112446677Y-60411564D01*
X112451837Y-60411753D01*
X112456957Y-60411097D01*
X112456959Y-60411097D01*
X112668288Y-60384025D01*
X112668289Y-60384025D01*
X112673416Y-60383368D01*
X112678366Y-60381883D01*
X112882429Y-60320661D01*
X112882434Y-60320659D01*
X112887384Y-60319174D01*
X113087994Y-60220896D01*
X113269860Y-60091173D01*
X113428096Y-59933489D01*
X113558453Y-59752077D01*
X113559776Y-59753028D01*
X113606645Y-59709857D01*
X113676580Y-59697625D01*
X113742026Y-59725144D01*
X113769875Y-59756994D01*
X113829987Y-59855088D01*
X113976250Y-60023938D01*
X114148126Y-60166632D01*
X114341000Y-60279338D01*
X114549692Y-60359030D01*
X114554760Y-60360061D01*
X114554763Y-60360062D01*
X114662017Y-60381883D01*
X114768597Y-60403567D01*
X114773772Y-60403757D01*
X114773774Y-60403757D01*
X114986673Y-60411564D01*
X114986677Y-60411564D01*
X114991837Y-60411753D01*
X114996957Y-60411097D01*
X114996959Y-60411097D01*
X115208288Y-60384025D01*
X115208289Y-60384025D01*
X115213416Y-60383368D01*
X115218366Y-60381883D01*
X115422429Y-60320661D01*
X115422434Y-60320659D01*
X115427384Y-60319174D01*
X115627994Y-60220896D01*
X115809860Y-60091173D01*
X115968096Y-59933489D01*
X116098453Y-59752077D01*
X116099776Y-59753028D01*
X116146645Y-59709857D01*
X116216580Y-59697625D01*
X116282026Y-59725144D01*
X116309875Y-59756994D01*
X116369987Y-59855088D01*
X116516250Y-60023938D01*
X116688126Y-60166632D01*
X116881000Y-60279338D01*
X117089692Y-60359030D01*
X117094760Y-60360061D01*
X117094763Y-60360062D01*
X117202017Y-60381883D01*
X117308597Y-60403567D01*
X117313772Y-60403757D01*
X117313774Y-60403757D01*
X117526673Y-60411564D01*
X117526677Y-60411564D01*
X117531837Y-60411753D01*
X117536957Y-60411097D01*
X117536959Y-60411097D01*
X117748288Y-60384025D01*
X117748289Y-60384025D01*
X117753416Y-60383368D01*
X117758366Y-60381883D01*
X117962429Y-60320661D01*
X117962434Y-60320659D01*
X117967384Y-60319174D01*
X118167994Y-60220896D01*
X118349860Y-60091173D01*
X118508096Y-59933489D01*
X118638453Y-59752077D01*
X118639776Y-59753028D01*
X118686645Y-59709857D01*
X118756580Y-59697625D01*
X118822026Y-59725144D01*
X118849875Y-59756994D01*
X118909987Y-59855088D01*
X119056250Y-60023938D01*
X119228126Y-60166632D01*
X119421000Y-60279338D01*
X119629692Y-60359030D01*
X119634760Y-60360061D01*
X119634763Y-60360062D01*
X119742017Y-60381883D01*
X119848597Y-60403567D01*
X119853772Y-60403757D01*
X119853774Y-60403757D01*
X120066673Y-60411564D01*
X120066677Y-60411564D01*
X120071837Y-60411753D01*
X120076957Y-60411097D01*
X120076959Y-60411097D01*
X120288288Y-60384025D01*
X120288289Y-60384025D01*
X120293416Y-60383368D01*
X120298366Y-60381883D01*
X120502429Y-60320661D01*
X120502434Y-60320659D01*
X120507384Y-60319174D01*
X120707994Y-60220896D01*
X120889860Y-60091173D01*
X121048096Y-59933489D01*
X121178453Y-59752077D01*
X121179776Y-59753028D01*
X121226645Y-59709857D01*
X121296580Y-59697625D01*
X121362026Y-59725144D01*
X121389875Y-59756994D01*
X121449987Y-59855088D01*
X121596250Y-60023938D01*
X121768126Y-60166632D01*
X121961000Y-60279338D01*
X122169692Y-60359030D01*
X122174760Y-60360061D01*
X122174763Y-60360062D01*
X122282017Y-60381883D01*
X122388597Y-60403567D01*
X122393772Y-60403757D01*
X122393774Y-60403757D01*
X122606673Y-60411564D01*
X122606677Y-60411564D01*
X122611837Y-60411753D01*
X122616957Y-60411097D01*
X122616959Y-60411097D01*
X122828288Y-60384025D01*
X122828289Y-60384025D01*
X122833416Y-60383368D01*
X122838366Y-60381883D01*
X123042429Y-60320661D01*
X123042434Y-60320659D01*
X123047384Y-60319174D01*
X123247994Y-60220896D01*
X123429860Y-60091173D01*
X123588096Y-59933489D01*
X123718453Y-59752077D01*
X123719776Y-59753028D01*
X123766645Y-59709857D01*
X123836580Y-59697625D01*
X123902026Y-59725144D01*
X123929875Y-59756994D01*
X123989987Y-59855088D01*
X124136250Y-60023938D01*
X124308126Y-60166632D01*
X124501000Y-60279338D01*
X124709692Y-60359030D01*
X124714760Y-60360061D01*
X124714763Y-60360062D01*
X124822017Y-60381883D01*
X124928597Y-60403567D01*
X124933772Y-60403757D01*
X124933774Y-60403757D01*
X125146673Y-60411564D01*
X125146677Y-60411564D01*
X125151837Y-60411753D01*
X125156957Y-60411097D01*
X125156959Y-60411097D01*
X125368288Y-60384025D01*
X125368289Y-60384025D01*
X125373416Y-60383368D01*
X125378366Y-60381883D01*
X125582429Y-60320661D01*
X125582434Y-60320659D01*
X125587384Y-60319174D01*
X125787994Y-60220896D01*
X125969860Y-60091173D01*
X126128096Y-59933489D01*
X126258453Y-59752077D01*
X126259776Y-59753028D01*
X126306645Y-59709857D01*
X126376580Y-59697625D01*
X126442026Y-59725144D01*
X126469875Y-59756994D01*
X126529987Y-59855088D01*
X126676250Y-60023938D01*
X126848126Y-60166632D01*
X127041000Y-60279338D01*
X127249692Y-60359030D01*
X127254760Y-60360061D01*
X127254763Y-60360062D01*
X127362017Y-60381883D01*
X127468597Y-60403567D01*
X127473772Y-60403757D01*
X127473774Y-60403757D01*
X127686673Y-60411564D01*
X127686677Y-60411564D01*
X127691837Y-60411753D01*
X127696957Y-60411097D01*
X127696959Y-60411097D01*
X127908288Y-60384025D01*
X127908289Y-60384025D01*
X127913416Y-60383368D01*
X127918366Y-60381883D01*
X128122429Y-60320661D01*
X128122434Y-60320659D01*
X128127384Y-60319174D01*
X128327994Y-60220896D01*
X128509860Y-60091173D01*
X128668096Y-59933489D01*
X128798453Y-59752077D01*
X128799640Y-59752930D01*
X128846960Y-59709362D01*
X128916897Y-59697145D01*
X128982338Y-59724678D01*
X129010166Y-59756511D01*
X129067694Y-59850388D01*
X129073777Y-59858699D01*
X129213213Y-60019667D01*
X129220580Y-60026883D01*
X129384434Y-60162916D01*
X129392881Y-60168831D01*
X129576756Y-60276279D01*
X129586043Y-60280729D01*
X129653078Y-60306327D01*
X129667134Y-60307442D01*
X129670000Y-60302290D01*
X129670000Y-58676000D01*
X129690002Y-58607879D01*
X129743658Y-58561386D01*
X129796000Y-58550000D01*
X130544000Y-58550000D01*
X130612121Y-58570002D01*
X130658614Y-58623658D01*
X130670000Y-58676000D01*
X130670000Y-60299221D01*
X130673973Y-60312752D01*
X130677842Y-60313308D01*
X130678867Y-60312992D01*
X130863095Y-60222739D01*
X130871945Y-60217464D01*
X131045328Y-60093792D01*
X131053200Y-60087139D01*
X131204052Y-59936812D01*
X131210730Y-59928965D01*
X131338022Y-59751819D01*
X131339279Y-59752722D01*
X131386373Y-59709362D01*
X131456311Y-59697145D01*
X131521751Y-59724678D01*
X131549579Y-59756511D01*
X131609987Y-59855088D01*
X131756250Y-60023938D01*
X131928126Y-60166632D01*
X132121000Y-60279338D01*
X132329692Y-60359030D01*
X132334760Y-60360061D01*
X132334763Y-60360062D01*
X132442017Y-60381883D01*
X132548597Y-60403567D01*
X132553772Y-60403757D01*
X132553774Y-60403757D01*
X132766673Y-60411564D01*
X132766677Y-60411564D01*
X132771837Y-60411753D01*
X132776957Y-60411097D01*
X132776959Y-60411097D01*
X132988288Y-60384025D01*
X132988289Y-60384025D01*
X132993416Y-60383368D01*
X132998366Y-60381883D01*
X133202429Y-60320661D01*
X133202434Y-60320659D01*
X133207384Y-60319174D01*
X133407994Y-60220896D01*
X133589860Y-60091173D01*
X133748096Y-59933489D01*
X133878453Y-59752077D01*
X133879776Y-59753028D01*
X133926645Y-59709857D01*
X133996580Y-59697625D01*
X134062026Y-59725144D01*
X134089875Y-59756994D01*
X134149987Y-59855088D01*
X134296250Y-60023938D01*
X134468126Y-60166632D01*
X134661000Y-60279338D01*
X134869692Y-60359030D01*
X134874760Y-60360061D01*
X134874763Y-60360062D01*
X134982017Y-60381883D01*
X135088597Y-60403567D01*
X135093772Y-60403757D01*
X135093774Y-60403757D01*
X135306673Y-60411564D01*
X135306677Y-60411564D01*
X135311837Y-60411753D01*
X135316957Y-60411097D01*
X135316959Y-60411097D01*
X135528288Y-60384025D01*
X135528289Y-60384025D01*
X135533416Y-60383368D01*
X135538366Y-60381883D01*
X135742429Y-60320661D01*
X135742434Y-60320659D01*
X135747384Y-60319174D01*
X135947994Y-60220896D01*
X136129860Y-60091173D01*
X136288096Y-59933489D01*
X136418453Y-59752077D01*
X136419776Y-59753028D01*
X136466645Y-59709857D01*
X136536580Y-59697625D01*
X136602026Y-59725144D01*
X136629875Y-59756994D01*
X136689987Y-59855088D01*
X136836250Y-60023938D01*
X137008126Y-60166632D01*
X137201000Y-60279338D01*
X137409692Y-60359030D01*
X137414760Y-60360061D01*
X137414763Y-60360062D01*
X137522017Y-60381883D01*
X137628597Y-60403567D01*
X137633772Y-60403757D01*
X137633774Y-60403757D01*
X137846673Y-60411564D01*
X137846677Y-60411564D01*
X137851837Y-60411753D01*
X137856957Y-60411097D01*
X137856959Y-60411097D01*
X138068288Y-60384025D01*
X138068289Y-60384025D01*
X138073416Y-60383368D01*
X138078366Y-60381883D01*
X138282429Y-60320661D01*
X138282434Y-60320659D01*
X138287384Y-60319174D01*
X138487994Y-60220896D01*
X138669860Y-60091173D01*
X138778091Y-59983319D01*
X138840462Y-59949404D01*
X138911268Y-59954592D01*
X138968030Y-59997238D01*
X138985012Y-60028341D01*
X139029385Y-60146705D01*
X139116739Y-60263261D01*
X139233295Y-60350615D01*
X139369684Y-60401745D01*
X139431866Y-60408500D01*
X141228134Y-60408500D01*
X141290316Y-60401745D01*
X141426705Y-60350615D01*
X141543261Y-60263261D01*
X141630615Y-60146705D01*
X141681745Y-60010316D01*
X141688500Y-59948134D01*
X141688500Y-58151866D01*
X141681745Y-58089684D01*
X141630615Y-57953295D01*
X141543261Y-57836739D01*
X141426705Y-57749385D01*
X141358871Y-57723955D01*
X141308203Y-57704960D01*
X141251439Y-57662318D01*
X141226739Y-57595756D01*
X141241947Y-57526408D01*
X141263493Y-57497727D01*
X141364435Y-57397137D01*
X141368096Y-57393489D01*
X141427594Y-57310689D01*
X141495435Y-57216277D01*
X141498453Y-57212077D01*
X141511995Y-57184678D01*
X141595136Y-57016453D01*
X141595137Y-57016451D01*
X141597430Y-57011811D01*
X141662370Y-56798069D01*
X141691529Y-56576590D01*
X141693156Y-56510000D01*
X141674852Y-56287361D01*
X141620431Y-56070702D01*
X141531354Y-55865840D01*
X141436169Y-55718706D01*
X141412822Y-55682617D01*
X141412820Y-55682614D01*
X141410014Y-55678277D01*
X141268268Y-55522500D01*
X142596496Y-55522500D01*
X142597186Y-55529065D01*
X142612869Y-55678277D01*
X142616458Y-55712428D01*
X142675473Y-55894056D01*
X142770960Y-56059444D01*
X142775378Y-56064351D01*
X142775379Y-56064352D01*
X142781097Y-56070702D01*
X142898747Y-56201366D01*
X143053248Y-56313618D01*
X143059276Y-56316302D01*
X143059278Y-56316303D01*
X143221681Y-56388609D01*
X143227712Y-56391294D01*
X143321112Y-56411147D01*
X143408056Y-56429628D01*
X143408061Y-56429628D01*
X143414513Y-56431000D01*
X143605487Y-56431000D01*
X143611939Y-56429628D01*
X143611944Y-56429628D01*
X143698888Y-56411147D01*
X143792288Y-56391294D01*
X143798319Y-56388609D01*
X143960722Y-56316303D01*
X143960724Y-56316302D01*
X143966752Y-56313618D01*
X144121253Y-56201366D01*
X144238903Y-56070702D01*
X144244621Y-56064352D01*
X144244622Y-56064351D01*
X144249040Y-56059444D01*
X144344527Y-55894056D01*
X144403542Y-55712428D01*
X144407132Y-55678277D01*
X144422814Y-55529065D01*
X144423504Y-55522500D01*
X144407959Y-55374598D01*
X144404232Y-55339135D01*
X144404232Y-55339133D01*
X144403542Y-55332572D01*
X144344527Y-55150944D01*
X144249040Y-54985556D01*
X144121253Y-54843634D01*
X143966752Y-54731382D01*
X143960724Y-54728698D01*
X143960722Y-54728697D01*
X143798319Y-54656391D01*
X143798318Y-54656391D01*
X143792288Y-54653706D01*
X143698887Y-54633853D01*
X143611944Y-54615372D01*
X143611939Y-54615372D01*
X143605487Y-54614000D01*
X143414513Y-54614000D01*
X143408061Y-54615372D01*
X143408056Y-54615372D01*
X143321113Y-54633853D01*
X143227712Y-54653706D01*
X143221682Y-54656391D01*
X143221681Y-54656391D01*
X143059278Y-54728697D01*
X143059276Y-54728698D01*
X143053248Y-54731382D01*
X142898747Y-54843634D01*
X142770960Y-54985556D01*
X142675473Y-55150944D01*
X142616458Y-55332572D01*
X142615768Y-55339133D01*
X142615768Y-55339135D01*
X142612041Y-55374598D01*
X142596496Y-55522500D01*
X141268268Y-55522500D01*
X141259670Y-55513051D01*
X141255619Y-55509852D01*
X141255615Y-55509848D01*
X141088414Y-55377800D01*
X141088410Y-55377798D01*
X141084359Y-55374598D01*
X141067672Y-55365386D01*
X140956425Y-55303975D01*
X140888789Y-55266638D01*
X140883920Y-55264914D01*
X140883916Y-55264912D01*
X140683087Y-55193795D01*
X140683083Y-55193794D01*
X140678212Y-55192069D01*
X140673119Y-55191162D01*
X140673116Y-55191161D01*
X140463373Y-55153800D01*
X140463367Y-55153799D01*
X140458284Y-55152894D01*
X140384452Y-55151992D01*
X140240081Y-55150228D01*
X140240079Y-55150228D01*
X140234911Y-55150165D01*
X140014091Y-55183955D01*
X139801756Y-55253357D01*
X139771443Y-55269137D01*
X139649586Y-55332572D01*
X139603607Y-55356507D01*
X139599474Y-55359610D01*
X139599471Y-55359612D01*
X139429100Y-55487530D01*
X139424965Y-55490635D01*
X139270629Y-55652138D01*
X139163201Y-55809621D01*
X139108293Y-55854621D01*
X139037768Y-55862792D01*
X138974021Y-55831538D01*
X138953324Y-55807054D01*
X138872822Y-55682617D01*
X138872820Y-55682614D01*
X138870014Y-55678277D01*
X138719670Y-55513051D01*
X138715619Y-55509852D01*
X138715615Y-55509848D01*
X138548414Y-55377800D01*
X138548410Y-55377798D01*
X138544359Y-55374598D01*
X138527672Y-55365386D01*
X138416425Y-55303975D01*
X138348789Y-55266638D01*
X138343920Y-55264914D01*
X138343916Y-55264912D01*
X138143087Y-55193795D01*
X138143083Y-55193794D01*
X138138212Y-55192069D01*
X138133119Y-55191162D01*
X138133116Y-55191161D01*
X137923373Y-55153800D01*
X137923367Y-55153799D01*
X137918284Y-55152894D01*
X137844452Y-55151992D01*
X137700081Y-55150228D01*
X137700079Y-55150228D01*
X137694911Y-55150165D01*
X137474091Y-55183955D01*
X137261756Y-55253357D01*
X137231443Y-55269137D01*
X137109586Y-55332572D01*
X137063607Y-55356507D01*
X137059474Y-55359610D01*
X137059471Y-55359612D01*
X136889100Y-55487530D01*
X136884965Y-55490635D01*
X136730629Y-55652138D01*
X136623204Y-55809618D01*
X136622898Y-55810066D01*
X136567987Y-55855069D01*
X136497462Y-55863240D01*
X136433715Y-55831986D01*
X136413018Y-55807502D01*
X136332426Y-55682926D01*
X136326136Y-55674757D01*
X136182806Y-55517240D01*
X136175273Y-55510215D01*
X136008139Y-55378222D01*
X135999552Y-55372517D01*
X135813114Y-55269597D01*
X135803705Y-55265369D01*
X135767076Y-55252398D01*
X135752996Y-55251626D01*
X135750000Y-55257337D01*
X135750000Y-56884000D01*
X135729998Y-56952121D01*
X135676342Y-56998614D01*
X135624000Y-57010000D01*
X134876000Y-57010000D01*
X134807879Y-56989998D01*
X134761386Y-56936342D01*
X134750000Y-56884000D01*
X134750000Y-55262766D01*
X134746027Y-55249235D01*
X134739045Y-55248231D01*
X134726868Y-55252212D01*
X134717359Y-55256209D01*
X134528463Y-55354542D01*
X134519738Y-55360036D01*
X134349433Y-55487905D01*
X134341726Y-55494748D01*
X134194590Y-55648717D01*
X134188109Y-55656722D01*
X134083498Y-55810074D01*
X134028587Y-55855076D01*
X133958062Y-55863247D01*
X133894315Y-55831993D01*
X133873618Y-55807509D01*
X133792822Y-55682617D01*
X133792820Y-55682614D01*
X133790014Y-55678277D01*
X133639670Y-55513051D01*
X133615834Y-55494226D01*
X133574772Y-55436309D01*
X133571540Y-55365386D01*
X133607166Y-55303975D01*
X133619866Y-55293409D01*
X133683738Y-55247003D01*
X133749304Y-55199366D01*
X133877091Y-55057444D01*
X133972578Y-54892056D01*
X134031593Y-54710428D01*
X134037273Y-54656391D01*
X134050865Y-54527065D01*
X134051555Y-54520500D01*
X134031593Y-54330572D01*
X133972578Y-54148944D01*
X133960046Y-54127237D01*
X133880392Y-53989274D01*
X133877091Y-53983556D01*
X133785517Y-53881852D01*
X133753726Y-53846545D01*
X133753725Y-53846544D01*
X133749304Y-53841634D01*
X133594803Y-53729382D01*
X133588775Y-53726698D01*
X133588773Y-53726697D01*
X133426370Y-53654391D01*
X133426369Y-53654391D01*
X133420339Y-53651706D01*
X133326939Y-53631853D01*
X133239995Y-53613372D01*
X133239990Y-53613372D01*
X133233538Y-53612000D01*
X133042564Y-53612000D01*
X133036112Y-53613372D01*
X133036107Y-53613372D01*
X132949164Y-53631853D01*
X132855763Y-53651706D01*
X132849733Y-53654391D01*
X132849732Y-53654391D01*
X132687329Y-53726697D01*
X132687327Y-53726698D01*
X132681299Y-53729382D01*
X132526798Y-53841634D01*
X132522377Y-53846544D01*
X132522376Y-53846545D01*
X132490586Y-53881852D01*
X132399011Y-53983556D01*
X132395710Y-53989274D01*
X132316057Y-54127237D01*
X132303524Y-54148944D01*
X132244509Y-54330572D01*
X132224547Y-54520500D01*
X132225237Y-54527065D01*
X132238830Y-54656391D01*
X132244509Y-54710428D01*
X132303524Y-54892056D01*
X132306827Y-54897778D01*
X132306828Y-54897779D01*
X132382016Y-55028008D01*
X132398754Y-55097003D01*
X132375534Y-55164095D01*
X132319727Y-55207982D01*
X132312047Y-55210771D01*
X132181756Y-55253357D01*
X132151443Y-55269137D01*
X132029586Y-55332572D01*
X131983607Y-55356507D01*
X131979474Y-55359610D01*
X131979471Y-55359612D01*
X131809100Y-55487530D01*
X131804965Y-55490635D01*
X131650629Y-55652138D01*
X131543201Y-55809621D01*
X131488293Y-55854621D01*
X131417768Y-55862792D01*
X131354021Y-55831538D01*
X131333324Y-55807054D01*
X131252822Y-55682617D01*
X131252820Y-55682614D01*
X131250014Y-55678277D01*
X131099670Y-55513051D01*
X131095619Y-55509852D01*
X131095615Y-55509848D01*
X130928414Y-55377800D01*
X130928410Y-55377798D01*
X130924359Y-55374598D01*
X130907672Y-55365386D01*
X130796425Y-55303975D01*
X130728789Y-55266638D01*
X130723920Y-55264914D01*
X130723916Y-55264912D01*
X130523087Y-55193795D01*
X130523083Y-55193794D01*
X130518212Y-55192069D01*
X130513119Y-55191162D01*
X130513116Y-55191161D01*
X130303373Y-55153800D01*
X130303367Y-55153799D01*
X130298284Y-55152894D01*
X130224452Y-55151992D01*
X130080081Y-55150228D01*
X130080079Y-55150228D01*
X130074911Y-55150165D01*
X129854091Y-55183955D01*
X129641756Y-55253357D01*
X129611443Y-55269137D01*
X129489586Y-55332572D01*
X129443607Y-55356507D01*
X129439474Y-55359610D01*
X129439471Y-55359612D01*
X129269100Y-55487530D01*
X129264965Y-55490635D01*
X129110629Y-55652138D01*
X129003201Y-55809621D01*
X128948293Y-55854621D01*
X128877768Y-55862792D01*
X128814021Y-55831538D01*
X128793324Y-55807054D01*
X128712822Y-55682617D01*
X128712820Y-55682614D01*
X128710014Y-55678277D01*
X128559670Y-55513051D01*
X128555619Y-55509852D01*
X128555615Y-55509848D01*
X128388414Y-55377800D01*
X128388410Y-55377798D01*
X128384359Y-55374598D01*
X128367672Y-55365386D01*
X128256425Y-55303975D01*
X128188789Y-55266638D01*
X128183920Y-55264914D01*
X128183916Y-55264912D01*
X127983087Y-55193795D01*
X127983083Y-55193794D01*
X127978212Y-55192069D01*
X127973119Y-55191162D01*
X127973116Y-55191161D01*
X127763373Y-55153800D01*
X127763367Y-55153799D01*
X127758284Y-55152894D01*
X127684452Y-55151992D01*
X127540081Y-55150228D01*
X127540079Y-55150228D01*
X127534911Y-55150165D01*
X127314091Y-55183955D01*
X127101756Y-55253357D01*
X127071443Y-55269137D01*
X126949586Y-55332572D01*
X126903607Y-55356507D01*
X126899474Y-55359610D01*
X126899471Y-55359612D01*
X126729100Y-55487530D01*
X126724965Y-55490635D01*
X126570629Y-55652138D01*
X126463204Y-55809618D01*
X126462898Y-55810066D01*
X126407987Y-55855069D01*
X126337462Y-55863240D01*
X126273715Y-55831986D01*
X126253018Y-55807502D01*
X126172426Y-55682926D01*
X126166136Y-55674757D01*
X126022806Y-55517240D01*
X126015273Y-55510215D01*
X125848139Y-55378222D01*
X125839552Y-55372517D01*
X125653114Y-55269597D01*
X125643705Y-55265369D01*
X125607076Y-55252398D01*
X125592996Y-55251626D01*
X125590000Y-55257337D01*
X125590000Y-56884000D01*
X125569998Y-56952121D01*
X125516342Y-56998614D01*
X125464000Y-57010000D01*
X124716000Y-57010000D01*
X124647879Y-56989998D01*
X124601386Y-56936342D01*
X124590000Y-56884000D01*
X124590000Y-55262766D01*
X124586027Y-55249235D01*
X124579045Y-55248231D01*
X124566868Y-55252212D01*
X124557359Y-55256209D01*
X124368463Y-55354542D01*
X124359738Y-55360036D01*
X124189433Y-55487905D01*
X124181726Y-55494748D01*
X124034590Y-55648717D01*
X124028109Y-55656722D01*
X123923498Y-55810074D01*
X123868587Y-55855076D01*
X123798062Y-55863247D01*
X123734315Y-55831993D01*
X123713618Y-55807509D01*
X123632822Y-55682617D01*
X123632820Y-55682614D01*
X123630014Y-55678277D01*
X123479670Y-55513051D01*
X123475619Y-55509852D01*
X123475615Y-55509848D01*
X123308414Y-55377800D01*
X123308410Y-55377798D01*
X123304359Y-55374598D01*
X123287672Y-55365386D01*
X123176425Y-55303975D01*
X123108789Y-55266638D01*
X123103920Y-55264914D01*
X123103916Y-55264912D01*
X122903087Y-55193795D01*
X122903083Y-55193794D01*
X122898212Y-55192069D01*
X122893119Y-55191162D01*
X122893116Y-55191161D01*
X122683373Y-55153800D01*
X122683367Y-55153799D01*
X122678284Y-55152894D01*
X122604452Y-55151992D01*
X122460081Y-55150228D01*
X122460079Y-55150228D01*
X122454911Y-55150165D01*
X122234091Y-55183955D01*
X122021756Y-55253357D01*
X121991443Y-55269137D01*
X121869586Y-55332572D01*
X121823607Y-55356507D01*
X121819474Y-55359610D01*
X121819471Y-55359612D01*
X121649100Y-55487530D01*
X121644965Y-55490635D01*
X121490629Y-55652138D01*
X121383201Y-55809621D01*
X121328293Y-55854621D01*
X121257768Y-55862792D01*
X121194021Y-55831538D01*
X121173324Y-55807054D01*
X121092822Y-55682617D01*
X121092820Y-55682614D01*
X121090014Y-55678277D01*
X120939670Y-55513051D01*
X120935619Y-55509852D01*
X120935615Y-55509848D01*
X120768414Y-55377800D01*
X120768410Y-55377798D01*
X120764359Y-55374598D01*
X120747672Y-55365386D01*
X120636425Y-55303975D01*
X120568789Y-55266638D01*
X120563920Y-55264914D01*
X120563916Y-55264912D01*
X120363087Y-55193795D01*
X120363083Y-55193794D01*
X120358212Y-55192069D01*
X120353119Y-55191162D01*
X120353116Y-55191161D01*
X120143373Y-55153800D01*
X120143367Y-55153799D01*
X120138284Y-55152894D01*
X120064452Y-55151992D01*
X119920081Y-55150228D01*
X119920079Y-55150228D01*
X119914911Y-55150165D01*
X119694091Y-55183955D01*
X119481756Y-55253357D01*
X119451443Y-55269137D01*
X119329586Y-55332572D01*
X119283607Y-55356507D01*
X119279474Y-55359610D01*
X119279471Y-55359612D01*
X119109100Y-55487530D01*
X119104965Y-55490635D01*
X118950629Y-55652138D01*
X118843204Y-55809618D01*
X118842898Y-55810066D01*
X118787987Y-55855069D01*
X118717462Y-55863240D01*
X118653715Y-55831986D01*
X118633018Y-55807502D01*
X118552426Y-55682926D01*
X118546136Y-55674757D01*
X118402806Y-55517240D01*
X118395273Y-55510215D01*
X118228139Y-55378222D01*
X118219552Y-55372517D01*
X118033114Y-55269597D01*
X118023705Y-55265369D01*
X117987076Y-55252398D01*
X117972996Y-55251626D01*
X117970000Y-55257337D01*
X117970000Y-56884000D01*
X117949998Y-56952121D01*
X117896342Y-56998614D01*
X117844000Y-57010000D01*
X117096000Y-57010000D01*
X117027879Y-56989998D01*
X116981386Y-56936342D01*
X116970000Y-56884000D01*
X116970000Y-55262766D01*
X116966027Y-55249235D01*
X116959045Y-55248231D01*
X116946868Y-55252212D01*
X116937359Y-55256209D01*
X116748463Y-55354542D01*
X116739738Y-55360036D01*
X116569433Y-55487905D01*
X116561726Y-55494748D01*
X116414590Y-55648717D01*
X116408109Y-55656722D01*
X116303498Y-55810074D01*
X116248587Y-55855076D01*
X116178062Y-55863247D01*
X116114315Y-55831993D01*
X116093618Y-55807509D01*
X116012822Y-55682617D01*
X116012820Y-55682614D01*
X116010014Y-55678277D01*
X115859670Y-55513051D01*
X115855619Y-55509852D01*
X115855615Y-55509848D01*
X115688414Y-55377800D01*
X115688410Y-55377798D01*
X115684359Y-55374598D01*
X115667672Y-55365386D01*
X115556425Y-55303975D01*
X115488789Y-55266638D01*
X115483920Y-55264914D01*
X115483916Y-55264912D01*
X115283087Y-55193795D01*
X115283083Y-55193794D01*
X115278212Y-55192069D01*
X115273119Y-55191162D01*
X115273116Y-55191161D01*
X115063373Y-55153800D01*
X115063367Y-55153799D01*
X115058284Y-55152894D01*
X114984452Y-55151992D01*
X114840081Y-55150228D01*
X114840079Y-55150228D01*
X114834911Y-55150165D01*
X114614091Y-55183955D01*
X114401756Y-55253357D01*
X114371443Y-55269137D01*
X114249586Y-55332572D01*
X114203607Y-55356507D01*
X114199474Y-55359610D01*
X114199471Y-55359612D01*
X114029100Y-55487530D01*
X114024965Y-55490635D01*
X113870629Y-55652138D01*
X113763201Y-55809621D01*
X113708293Y-55854621D01*
X113637768Y-55862792D01*
X113574021Y-55831538D01*
X113553324Y-55807054D01*
X113472822Y-55682617D01*
X113472820Y-55682614D01*
X113470014Y-55678277D01*
X113319670Y-55513051D01*
X113315619Y-55509852D01*
X113315615Y-55509848D01*
X113148414Y-55377800D01*
X113148410Y-55377798D01*
X113144359Y-55374598D01*
X113127672Y-55365386D01*
X113016425Y-55303975D01*
X112948789Y-55266638D01*
X112943920Y-55264914D01*
X112943916Y-55264912D01*
X112743087Y-55193795D01*
X112743083Y-55193794D01*
X112738212Y-55192069D01*
X112733119Y-55191162D01*
X112733116Y-55191161D01*
X112523373Y-55153800D01*
X112523367Y-55153799D01*
X112518284Y-55152894D01*
X112444452Y-55151992D01*
X112300081Y-55150228D01*
X112300079Y-55150228D01*
X112294911Y-55150165D01*
X112074091Y-55183955D01*
X111861756Y-55253357D01*
X111831443Y-55269137D01*
X111709586Y-55332572D01*
X111663607Y-55356507D01*
X111659474Y-55359610D01*
X111659471Y-55359612D01*
X111489100Y-55487530D01*
X111484965Y-55490635D01*
X111330629Y-55652138D01*
X111223201Y-55809621D01*
X111168293Y-55854621D01*
X111097768Y-55862792D01*
X111034021Y-55831538D01*
X111013324Y-55807054D01*
X110932822Y-55682617D01*
X110932820Y-55682614D01*
X110930014Y-55678277D01*
X110779670Y-55513051D01*
X110775619Y-55509852D01*
X110775615Y-55509848D01*
X110608414Y-55377800D01*
X110608410Y-55377798D01*
X110604359Y-55374598D01*
X110587672Y-55365386D01*
X110476425Y-55303975D01*
X110408789Y-55266638D01*
X110403920Y-55264914D01*
X110403916Y-55264912D01*
X110203087Y-55193795D01*
X110203083Y-55193794D01*
X110198212Y-55192069D01*
X110193119Y-55191162D01*
X110193116Y-55191161D01*
X109983373Y-55153800D01*
X109983367Y-55153799D01*
X109978284Y-55152894D01*
X109904452Y-55151992D01*
X109760081Y-55150228D01*
X109760079Y-55150228D01*
X109754911Y-55150165D01*
X109534091Y-55183955D01*
X109321756Y-55253357D01*
X109291443Y-55269137D01*
X109169586Y-55332572D01*
X109123607Y-55356507D01*
X109119474Y-55359610D01*
X109119471Y-55359612D01*
X108949100Y-55487530D01*
X108944965Y-55490635D01*
X108790629Y-55652138D01*
X108683201Y-55809621D01*
X108628293Y-55854621D01*
X108557768Y-55862792D01*
X108494021Y-55831538D01*
X108473324Y-55807054D01*
X108392822Y-55682617D01*
X108392820Y-55682614D01*
X108390014Y-55678277D01*
X108239670Y-55513051D01*
X108235619Y-55509852D01*
X108235615Y-55509848D01*
X108068414Y-55377800D01*
X108068410Y-55377798D01*
X108064359Y-55374598D01*
X108047672Y-55365386D01*
X107936425Y-55303975D01*
X107868789Y-55266638D01*
X107863920Y-55264914D01*
X107863916Y-55264912D01*
X107663087Y-55193795D01*
X107663083Y-55193794D01*
X107658212Y-55192069D01*
X107653119Y-55191162D01*
X107653116Y-55191161D01*
X107443373Y-55153800D01*
X107443367Y-55153799D01*
X107438284Y-55152894D01*
X107364452Y-55151992D01*
X107220081Y-55150228D01*
X107220079Y-55150228D01*
X107214911Y-55150165D01*
X106994091Y-55183955D01*
X106781756Y-55253357D01*
X106751443Y-55269137D01*
X106629586Y-55332572D01*
X106583607Y-55356507D01*
X106579474Y-55359610D01*
X106579471Y-55359612D01*
X106409100Y-55487530D01*
X106404965Y-55490635D01*
X106250629Y-55652138D01*
X106143204Y-55809618D01*
X106142898Y-55810066D01*
X106087987Y-55855069D01*
X106017462Y-55863240D01*
X105953715Y-55831986D01*
X105933018Y-55807502D01*
X105852426Y-55682926D01*
X105846136Y-55674757D01*
X105702806Y-55517240D01*
X105695273Y-55510215D01*
X105528139Y-55378222D01*
X105519552Y-55372517D01*
X105333114Y-55269597D01*
X105323705Y-55265369D01*
X105287076Y-55252398D01*
X105272996Y-55251626D01*
X105270000Y-55257337D01*
X105270000Y-56884000D01*
X105249998Y-56952121D01*
X105196342Y-56998614D01*
X105144000Y-57010000D01*
X104396000Y-57010000D01*
X104327879Y-56989998D01*
X104281386Y-56936342D01*
X104270000Y-56884000D01*
X104270000Y-55262766D01*
X104266027Y-55249235D01*
X104259045Y-55248231D01*
X104246868Y-55252212D01*
X104237359Y-55256209D01*
X104048463Y-55354542D01*
X104039738Y-55360036D01*
X103869433Y-55487905D01*
X103861726Y-55494748D01*
X103714590Y-55648717D01*
X103708109Y-55656722D01*
X103603498Y-55810074D01*
X103548587Y-55855076D01*
X103478062Y-55863247D01*
X103414315Y-55831993D01*
X103393618Y-55807509D01*
X103312822Y-55682617D01*
X103312820Y-55682614D01*
X103310014Y-55678277D01*
X103159670Y-55513051D01*
X103155619Y-55509852D01*
X103155615Y-55509848D01*
X102988414Y-55377800D01*
X102988410Y-55377798D01*
X102984359Y-55374598D01*
X102967672Y-55365386D01*
X102856425Y-55303975D01*
X102788789Y-55266638D01*
X102783920Y-55264914D01*
X102783916Y-55264912D01*
X102583087Y-55193795D01*
X102583083Y-55193794D01*
X102578212Y-55192069D01*
X102573119Y-55191162D01*
X102573116Y-55191161D01*
X102363373Y-55153800D01*
X102363367Y-55153799D01*
X102358284Y-55152894D01*
X102284452Y-55151992D01*
X102140081Y-55150228D01*
X102140079Y-55150228D01*
X102134911Y-55150165D01*
X101914091Y-55183955D01*
X101701756Y-55253357D01*
X101671443Y-55269137D01*
X101549586Y-55332572D01*
X101503607Y-55356507D01*
X101499474Y-55359610D01*
X101499471Y-55359612D01*
X101329100Y-55487530D01*
X101324965Y-55490635D01*
X101170629Y-55652138D01*
X101063204Y-55809618D01*
X101062898Y-55810066D01*
X101007987Y-55855069D01*
X100937462Y-55863240D01*
X100873715Y-55831986D01*
X100853018Y-55807502D01*
X100772426Y-55682926D01*
X100766136Y-55674757D01*
X100622806Y-55517240D01*
X100615273Y-55510215D01*
X100448139Y-55378222D01*
X100439552Y-55372517D01*
X100253114Y-55269597D01*
X100243705Y-55265369D01*
X100207076Y-55252398D01*
X100192996Y-55251626D01*
X100190000Y-55257337D01*
X100190000Y-56884000D01*
X100169998Y-56952121D01*
X100116342Y-56998614D01*
X100064000Y-57010000D01*
X99316000Y-57010000D01*
X99247879Y-56989998D01*
X99201386Y-56936342D01*
X99190000Y-56884000D01*
X99190000Y-55262766D01*
X99186027Y-55249235D01*
X99179045Y-55248231D01*
X99166868Y-55252212D01*
X99157359Y-55256209D01*
X98968463Y-55354542D01*
X98959738Y-55360036D01*
X98789433Y-55487905D01*
X98781726Y-55494748D01*
X98634590Y-55648717D01*
X98628109Y-55656722D01*
X98523498Y-55810074D01*
X98468587Y-55855076D01*
X98398062Y-55863247D01*
X98334315Y-55831993D01*
X98313618Y-55807509D01*
X98232822Y-55682617D01*
X98232820Y-55682614D01*
X98230014Y-55678277D01*
X98079670Y-55513051D01*
X98075619Y-55509852D01*
X98075615Y-55509848D01*
X97908414Y-55377800D01*
X97908410Y-55377798D01*
X97904359Y-55374598D01*
X97887672Y-55365386D01*
X97776425Y-55303975D01*
X97708789Y-55266638D01*
X97703920Y-55264914D01*
X97703916Y-55264912D01*
X97503087Y-55193795D01*
X97503083Y-55193794D01*
X97498212Y-55192069D01*
X97493119Y-55191162D01*
X97493116Y-55191161D01*
X97283373Y-55153800D01*
X97283367Y-55153799D01*
X97278284Y-55152894D01*
X97204452Y-55151992D01*
X97060081Y-55150228D01*
X97060079Y-55150228D01*
X97054911Y-55150165D01*
X96834091Y-55183955D01*
X96621756Y-55253357D01*
X96591443Y-55269137D01*
X96469586Y-55332572D01*
X96423607Y-55356507D01*
X96419474Y-55359610D01*
X96419471Y-55359612D01*
X96249100Y-55487530D01*
X96244965Y-55490635D01*
X96090629Y-55652138D01*
X95983201Y-55809621D01*
X95928293Y-55854621D01*
X95857768Y-55862792D01*
X95794021Y-55831538D01*
X95773324Y-55807054D01*
X95692822Y-55682617D01*
X95692820Y-55682614D01*
X95690014Y-55678277D01*
X95539670Y-55513051D01*
X95535619Y-55509852D01*
X95535615Y-55509848D01*
X95368414Y-55377800D01*
X95368410Y-55377798D01*
X95364359Y-55374598D01*
X95347672Y-55365386D01*
X95236425Y-55303975D01*
X95168789Y-55266638D01*
X95163920Y-55264914D01*
X95163916Y-55264912D01*
X94963087Y-55193795D01*
X94963083Y-55193794D01*
X94958212Y-55192069D01*
X94953119Y-55191162D01*
X94953116Y-55191161D01*
X94743373Y-55153800D01*
X94743367Y-55153799D01*
X94738284Y-55152894D01*
X94664452Y-55151992D01*
X94520081Y-55150228D01*
X94520079Y-55150228D01*
X94514911Y-55150165D01*
X94294091Y-55183955D01*
X94081756Y-55253357D01*
X94051443Y-55269137D01*
X93929586Y-55332572D01*
X93883607Y-55356507D01*
X93879474Y-55359610D01*
X93879471Y-55359612D01*
X93709100Y-55487530D01*
X93704965Y-55490635D01*
X93550629Y-55652138D01*
X93443201Y-55809621D01*
X93388293Y-55854621D01*
X93317768Y-55862792D01*
X93254021Y-55831538D01*
X93233324Y-55807054D01*
X93152822Y-55682617D01*
X93152820Y-55682614D01*
X93150014Y-55678277D01*
X92999670Y-55513051D01*
X92995619Y-55509852D01*
X92995615Y-55509848D01*
X92828414Y-55377800D01*
X92828410Y-55377798D01*
X92824359Y-55374598D01*
X92807672Y-55365386D01*
X92696425Y-55303975D01*
X92628789Y-55266638D01*
X92623920Y-55264914D01*
X92623916Y-55264912D01*
X92423087Y-55193795D01*
X92423083Y-55193794D01*
X92418212Y-55192069D01*
X92413119Y-55191162D01*
X92413116Y-55191161D01*
X92203373Y-55153800D01*
X92203367Y-55153799D01*
X92198284Y-55152894D01*
X92124452Y-55151992D01*
X91980081Y-55150228D01*
X91980079Y-55150228D01*
X91974911Y-55150165D01*
X91754091Y-55183955D01*
X91541756Y-55253357D01*
X91511443Y-55269137D01*
X91389586Y-55332572D01*
X91343607Y-55356507D01*
X91339474Y-55359610D01*
X91339471Y-55359612D01*
X91169100Y-55487530D01*
X91164965Y-55490635D01*
X91010629Y-55652138D01*
X90884743Y-55836680D01*
X90790688Y-56039305D01*
X90730989Y-56254570D01*
X90707251Y-56476695D01*
X90034861Y-56476695D01*
X90034109Y-53340000D01*
X108941496Y-53340000D01*
X108961458Y-53529928D01*
X109020473Y-53711556D01*
X109023776Y-53717278D01*
X109023777Y-53717279D01*
X109057686Y-53776010D01*
X109115960Y-53876944D01*
X109120378Y-53881851D01*
X109120379Y-53881852D01*
X109211954Y-53983556D01*
X109243747Y-54018866D01*
X109398248Y-54131118D01*
X109404276Y-54133802D01*
X109404278Y-54133803D01*
X109572712Y-54208794D01*
X109666112Y-54228647D01*
X109753056Y-54247128D01*
X109753061Y-54247128D01*
X109759513Y-54248500D01*
X109950487Y-54248500D01*
X109956939Y-54247128D01*
X109956944Y-54247128D01*
X110043888Y-54228647D01*
X110137288Y-54208794D01*
X110305722Y-54133803D01*
X110305724Y-54133802D01*
X110311752Y-54131118D01*
X110466253Y-54018866D01*
X110498046Y-53983556D01*
X110589621Y-53881852D01*
X110589622Y-53881851D01*
X110594040Y-53876944D01*
X110652314Y-53776010D01*
X110686223Y-53717279D01*
X110686224Y-53717278D01*
X110689527Y-53711556D01*
X110748542Y-53529928D01*
X110768504Y-53340000D01*
X111481496Y-53340000D01*
X111501458Y-53529928D01*
X111560473Y-53711556D01*
X111563776Y-53717278D01*
X111563777Y-53717279D01*
X111597686Y-53776010D01*
X111655960Y-53876944D01*
X111660378Y-53881851D01*
X111660379Y-53881852D01*
X111751954Y-53983556D01*
X111783747Y-54018866D01*
X111938248Y-54131118D01*
X111944276Y-54133802D01*
X111944278Y-54133803D01*
X112112712Y-54208794D01*
X112206112Y-54228647D01*
X112293056Y-54247128D01*
X112293061Y-54247128D01*
X112299513Y-54248500D01*
X112490487Y-54248500D01*
X112496939Y-54247128D01*
X112496944Y-54247128D01*
X112583888Y-54228647D01*
X112677288Y-54208794D01*
X112845722Y-54133803D01*
X112845724Y-54133802D01*
X112851752Y-54131118D01*
X113006253Y-54018866D01*
X113038046Y-53983556D01*
X113129621Y-53881852D01*
X113129622Y-53881851D01*
X113134040Y-53876944D01*
X113192314Y-53776010D01*
X113226223Y-53717279D01*
X113226224Y-53717278D01*
X113229527Y-53711556D01*
X113288542Y-53529928D01*
X113308504Y-53340000D01*
X113288542Y-53150072D01*
X113229527Y-52968444D01*
X113134040Y-52803056D01*
X113006253Y-52661134D01*
X112851752Y-52548882D01*
X112845724Y-52546198D01*
X112845722Y-52546197D01*
X112683319Y-52473891D01*
X112683318Y-52473891D01*
X112677288Y-52471206D01*
X112583887Y-52451353D01*
X112496944Y-52432872D01*
X112496939Y-52432872D01*
X112490487Y-52431500D01*
X112299513Y-52431500D01*
X112293061Y-52432872D01*
X112293056Y-52432872D01*
X112206113Y-52451353D01*
X112112712Y-52471206D01*
X112106682Y-52473891D01*
X112106681Y-52473891D01*
X111944278Y-52546197D01*
X111944276Y-52546198D01*
X111938248Y-52548882D01*
X111783747Y-52661134D01*
X111655960Y-52803056D01*
X111560473Y-52968444D01*
X111501458Y-53150072D01*
X111481496Y-53340000D01*
X110768504Y-53340000D01*
X110748542Y-53150072D01*
X110689527Y-52968444D01*
X110594040Y-52803056D01*
X110466253Y-52661134D01*
X110311752Y-52548882D01*
X110305724Y-52546198D01*
X110305722Y-52546197D01*
X110143319Y-52473891D01*
X110143318Y-52473891D01*
X110137288Y-52471206D01*
X110043887Y-52451353D01*
X109956944Y-52432872D01*
X109956939Y-52432872D01*
X109950487Y-52431500D01*
X109759513Y-52431500D01*
X109753061Y-52432872D01*
X109753056Y-52432872D01*
X109666113Y-52451353D01*
X109572712Y-52471206D01*
X109566682Y-52473891D01*
X109566681Y-52473891D01*
X109404278Y-52546197D01*
X109404276Y-52546198D01*
X109398248Y-52548882D01*
X109243747Y-52661134D01*
X109115960Y-52803056D01*
X109020473Y-52968444D01*
X108961458Y-53150072D01*
X108941496Y-53340000D01*
X90034109Y-53340000D01*
X90033652Y-51434529D01*
X90053638Y-51366405D01*
X90107282Y-51319899D01*
X90159652Y-51308500D01*
X170190346Y-51308500D01*
X170258467Y-51328502D01*
G37*
G04 #@! TD.AperFunction*
M02*
