G04 #@! TF.GenerationSoftware,KiCad,Pcbnew,(6.0.5-0)*
G04 #@! TF.CreationDate,2022-06-11T14:47:18-06:00*
G04 #@! TF.ProjectId,PiGUS,50694755-532e-46b6-9963-61645f706362,rev?*
G04 #@! TF.SameCoordinates,Original*
G04 #@! TF.FileFunction,Copper,L3,Inr*
G04 #@! TF.FilePolarity,Positive*
%FSLAX46Y46*%
G04 Gerber Fmt 4.6, Leading zero omitted, Abs format (unit mm)*
G04 Created by KiCad (PCBNEW (6.0.5-0)) date 2022-06-11 14:47:18*
%MOMM*%
%LPD*%
G01*
G04 APERTURE LIST*
G04 #@! TA.AperFunction,ComponentPad*
%ADD10R,1.700000X1.700000*%
G04 #@! TD*
G04 #@! TA.AperFunction,ComponentPad*
%ADD11O,1.700000X1.700000*%
G04 #@! TD*
G04 #@! TA.AperFunction,ViaPad*
%ADD12C,0.800000*%
G04 #@! TD*
G04 #@! TA.AperFunction,Conductor*
%ADD13C,0.300000*%
G04 #@! TD*
G04 #@! TA.AperFunction,Conductor*
%ADD14C,0.500000*%
G04 #@! TD*
G04 APERTURE END LIST*
D10*
X140330000Y-59050000D03*
D11*
X140330000Y-56510000D03*
X137790000Y-59050000D03*
X137790000Y-56510000D03*
X135250000Y-59050000D03*
X135250000Y-56510000D03*
X132710000Y-59050000D03*
X132710000Y-56510000D03*
X130170000Y-59050000D03*
X130170000Y-56510000D03*
X127630000Y-59050000D03*
X127630000Y-56510000D03*
X125090000Y-59050000D03*
X125090000Y-56510000D03*
X122550000Y-59050000D03*
X122550000Y-56510000D03*
X120010000Y-59050000D03*
X120010000Y-56510000D03*
X117470000Y-59050000D03*
X117470000Y-56510000D03*
X114930000Y-59050000D03*
X114930000Y-56510000D03*
X112390000Y-59050000D03*
X112390000Y-56510000D03*
X109850000Y-59050000D03*
X109850000Y-56510000D03*
X107310000Y-59050000D03*
X107310000Y-56510000D03*
X104770000Y-59050000D03*
X104770000Y-56510000D03*
X102230000Y-59050000D03*
X102230000Y-56510000D03*
X99690000Y-59050000D03*
X99690000Y-56510000D03*
X97150000Y-59050000D03*
X97150000Y-56510000D03*
X94610000Y-59050000D03*
X94610000Y-56510000D03*
X92070000Y-59050000D03*
X92070000Y-56510000D03*
X114935000Y-77475000D03*
X114935000Y-74935000D03*
X117475000Y-77475000D03*
X117475000Y-74935000D03*
X120015000Y-77475000D03*
X120015000Y-74935000D03*
X122555000Y-77475000D03*
X122555000Y-74935000D03*
X125095000Y-77475000D03*
X125095000Y-74935000D03*
X127635000Y-77475000D03*
X127635000Y-74935000D03*
D10*
X168275000Y-81275000D03*
D11*
X165735000Y-81275000D03*
X163195000Y-81275000D03*
X160655000Y-81275000D03*
X158115000Y-81275000D03*
X155575000Y-81275000D03*
X153035000Y-81275000D03*
X150495000Y-81275000D03*
X147955000Y-81275000D03*
X145415000Y-81275000D03*
X142875000Y-81275000D03*
X140335000Y-81275000D03*
X137795000Y-81275000D03*
X135255000Y-81275000D03*
X132715000Y-81275000D03*
X130175000Y-81275000D03*
X127635000Y-81275000D03*
X125095000Y-81275000D03*
X122555000Y-81275000D03*
X120015000Y-81275000D03*
X117475000Y-81275000D03*
X114935000Y-81275000D03*
X112395000Y-81275000D03*
X109855000Y-81275000D03*
X107315000Y-81275000D03*
X104775000Y-81275000D03*
X102235000Y-81275000D03*
X99695000Y-81275000D03*
X97155000Y-81275000D03*
X94615000Y-81275000D03*
X92075000Y-81275000D03*
X168275000Y-83815000D03*
X165735000Y-83815000D03*
X163195000Y-83815000D03*
X160655000Y-83815000D03*
X158115000Y-83815000D03*
X155575000Y-83815000D03*
X153035000Y-83815000D03*
X150495000Y-83815000D03*
X147955000Y-83815000D03*
X145415000Y-83815000D03*
X142875000Y-83815000D03*
X140335000Y-83815000D03*
X137795000Y-83815000D03*
X135255000Y-83815000D03*
X132715000Y-83815000D03*
X130175000Y-83815000D03*
X127635000Y-83815000D03*
X125095000Y-83815000D03*
X122555000Y-83815000D03*
X120015000Y-83815000D03*
X117475000Y-83815000D03*
X114935000Y-83815000D03*
X112395000Y-83815000D03*
X109855000Y-83815000D03*
X107315000Y-83815000D03*
X104775000Y-83815000D03*
X102235000Y-83815000D03*
X99695000Y-83815000D03*
X97155000Y-83815000D03*
X94615000Y-83815000D03*
X92075000Y-83815000D03*
D12*
X106045000Y-78740000D03*
X106134500Y-75565000D03*
X104685500Y-74295000D03*
X106769500Y-74295000D03*
X139065000Y-62230000D03*
X103505000Y-73025000D03*
X118110000Y-72479500D03*
X121285000Y-67945000D03*
X105410000Y-69215000D03*
X144145000Y-59967500D03*
X147955000Y-69850000D03*
X93980000Y-67945000D03*
X145415000Y-72390000D03*
X108585000Y-67945000D03*
X147955000Y-64770000D03*
X95885000Y-85725000D03*
X161925000Y-85730000D03*
X121285000Y-66040000D03*
X106680000Y-67310000D03*
X102235000Y-64135000D03*
X96609500Y-64135000D03*
X96520000Y-62230000D03*
X104685500Y-63270989D03*
X99605500Y-69215000D03*
X133138051Y-54520500D03*
X135890000Y-66675000D03*
X109855000Y-53340000D03*
X141605000Y-67945000D03*
X137795000Y-68580000D03*
X112395000Y-53340000D03*
X112395000Y-62865000D03*
X120015000Y-64770000D03*
X124460000Y-63500000D03*
X114935000Y-62865000D03*
X134620000Y-62230000D03*
X134620000Y-69850000D03*
X99060000Y-70485000D03*
X106680000Y-62319500D03*
X100419500Y-62230000D03*
X99695000Y-60960000D03*
X113665000Y-66040000D03*
X93980000Y-66040000D03*
X116205000Y-72479500D03*
X95885000Y-71755000D03*
X138430000Y-71755000D03*
X143510000Y-55522500D03*
X110490000Y-71755000D03*
X108568817Y-68944371D03*
X122555000Y-62319500D03*
X115765517Y-64574483D03*
X109148245Y-69778245D03*
X116840000Y-64770000D03*
X109855000Y-70485000D03*
D13*
X113665000Y-65395000D02*
X113665000Y-66040000D01*
D14*
X120010000Y-59050000D02*
X121920000Y-60960000D01*
D13*
X120010000Y-59050000D02*
X113665000Y-65395000D01*
D14*
X121920000Y-60960000D02*
X138420000Y-60960000D01*
D13*
X94094511Y-66154511D02*
X113550489Y-66154511D01*
D14*
X138420000Y-60960000D02*
X140330000Y-59050000D01*
D13*
X93980000Y-66040000D02*
X94094511Y-66154511D01*
X113550489Y-66154511D02*
X113665000Y-66040000D01*
G04 #@! TA.AperFunction,Conductor*
G36*
X170258467Y-51328502D02*
G01*
X170304960Y-51382158D01*
X170316346Y-51434531D01*
X170313350Y-63802215D01*
X170307761Y-86869034D01*
X170287743Y-86937146D01*
X170234077Y-86983626D01*
X170181762Y-86995000D01*
X90168149Y-86995000D01*
X90100028Y-86974998D01*
X90053535Y-86921342D01*
X90042149Y-86869030D01*
X90041742Y-85168757D01*
X90041409Y-83781695D01*
X90712251Y-83781695D01*
X90712548Y-83786848D01*
X90712548Y-83786851D01*
X90718011Y-83881590D01*
X90725110Y-84004715D01*
X90726247Y-84009761D01*
X90726248Y-84009767D01*
X90746119Y-84097939D01*
X90774222Y-84222639D01*
X90858266Y-84429616D01*
X90909019Y-84512438D01*
X90972291Y-84615688D01*
X90974987Y-84620088D01*
X91121250Y-84788938D01*
X91293126Y-84931632D01*
X91486000Y-85044338D01*
X91694692Y-85124030D01*
X91699760Y-85125061D01*
X91699763Y-85125062D01*
X91807017Y-85146883D01*
X91913597Y-85168567D01*
X91918772Y-85168757D01*
X91918774Y-85168757D01*
X92131673Y-85176564D01*
X92131677Y-85176564D01*
X92136837Y-85176753D01*
X92141957Y-85176097D01*
X92141959Y-85176097D01*
X92353288Y-85149025D01*
X92353289Y-85149025D01*
X92358416Y-85148368D01*
X92363366Y-85146883D01*
X92567429Y-85085661D01*
X92567434Y-85085659D01*
X92572384Y-85084174D01*
X92772994Y-84985896D01*
X92954860Y-84856173D01*
X93113096Y-84698489D01*
X93172594Y-84615689D01*
X93243453Y-84517077D01*
X93244776Y-84518028D01*
X93291645Y-84474857D01*
X93361580Y-84462625D01*
X93427026Y-84490144D01*
X93454875Y-84521994D01*
X93514987Y-84620088D01*
X93661250Y-84788938D01*
X93833126Y-84931632D01*
X94026000Y-85044338D01*
X94234692Y-85124030D01*
X94239760Y-85125061D01*
X94239763Y-85125062D01*
X94347017Y-85146883D01*
X94453597Y-85168567D01*
X94458772Y-85168757D01*
X94458774Y-85168757D01*
X94671673Y-85176564D01*
X94671677Y-85176564D01*
X94676837Y-85176753D01*
X94681957Y-85176097D01*
X94681959Y-85176097D01*
X94893288Y-85149025D01*
X94893289Y-85149025D01*
X94898416Y-85148368D01*
X94903366Y-85146883D01*
X95107429Y-85085661D01*
X95107434Y-85085659D01*
X95112384Y-85084174D01*
X95312994Y-84985896D01*
X95494860Y-84856173D01*
X95653096Y-84698489D01*
X95712594Y-84615689D01*
X95783453Y-84517077D01*
X95784776Y-84518028D01*
X95831645Y-84474857D01*
X95901580Y-84462625D01*
X95967026Y-84490144D01*
X95994875Y-84521994D01*
X96054987Y-84620088D01*
X96201250Y-84788938D01*
X96373126Y-84931632D01*
X96566000Y-85044338D01*
X96774692Y-85124030D01*
X96779760Y-85125061D01*
X96779763Y-85125062D01*
X96887017Y-85146883D01*
X96993597Y-85168567D01*
X96998772Y-85168757D01*
X96998774Y-85168757D01*
X97211673Y-85176564D01*
X97211677Y-85176564D01*
X97216837Y-85176753D01*
X97221957Y-85176097D01*
X97221959Y-85176097D01*
X97433288Y-85149025D01*
X97433289Y-85149025D01*
X97438416Y-85148368D01*
X97443366Y-85146883D01*
X97647429Y-85085661D01*
X97647434Y-85085659D01*
X97652384Y-85084174D01*
X97852994Y-84985896D01*
X98034860Y-84856173D01*
X98193096Y-84698489D01*
X98252594Y-84615689D01*
X98323453Y-84517077D01*
X98324776Y-84518028D01*
X98371645Y-84474857D01*
X98441580Y-84462625D01*
X98507026Y-84490144D01*
X98534875Y-84521994D01*
X98594987Y-84620088D01*
X98741250Y-84788938D01*
X98913126Y-84931632D01*
X99106000Y-85044338D01*
X99314692Y-85124030D01*
X99319760Y-85125061D01*
X99319763Y-85125062D01*
X99427017Y-85146883D01*
X99533597Y-85168567D01*
X99538772Y-85168757D01*
X99538774Y-85168757D01*
X99751673Y-85176564D01*
X99751677Y-85176564D01*
X99756837Y-85176753D01*
X99761957Y-85176097D01*
X99761959Y-85176097D01*
X99973288Y-85149025D01*
X99973289Y-85149025D01*
X99978416Y-85148368D01*
X99983366Y-85146883D01*
X100187429Y-85085661D01*
X100187434Y-85085659D01*
X100192384Y-85084174D01*
X100392994Y-84985896D01*
X100574860Y-84856173D01*
X100733096Y-84698489D01*
X100792594Y-84615689D01*
X100863453Y-84517077D01*
X100864776Y-84518028D01*
X100911645Y-84474857D01*
X100981580Y-84462625D01*
X101047026Y-84490144D01*
X101074875Y-84521994D01*
X101134987Y-84620088D01*
X101281250Y-84788938D01*
X101453126Y-84931632D01*
X101646000Y-85044338D01*
X101854692Y-85124030D01*
X101859760Y-85125061D01*
X101859763Y-85125062D01*
X101967017Y-85146883D01*
X102073597Y-85168567D01*
X102078772Y-85168757D01*
X102078774Y-85168757D01*
X102291673Y-85176564D01*
X102291677Y-85176564D01*
X102296837Y-85176753D01*
X102301957Y-85176097D01*
X102301959Y-85176097D01*
X102513288Y-85149025D01*
X102513289Y-85149025D01*
X102518416Y-85148368D01*
X102523366Y-85146883D01*
X102727429Y-85085661D01*
X102727434Y-85085659D01*
X102732384Y-85084174D01*
X102932994Y-84985896D01*
X103114860Y-84856173D01*
X103273096Y-84698489D01*
X103332594Y-84615689D01*
X103403453Y-84517077D01*
X103404776Y-84518028D01*
X103451645Y-84474857D01*
X103521580Y-84462625D01*
X103587026Y-84490144D01*
X103614875Y-84521994D01*
X103674987Y-84620088D01*
X103821250Y-84788938D01*
X103993126Y-84931632D01*
X104186000Y-85044338D01*
X104394692Y-85124030D01*
X104399760Y-85125061D01*
X104399763Y-85125062D01*
X104507017Y-85146883D01*
X104613597Y-85168567D01*
X104618772Y-85168757D01*
X104618774Y-85168757D01*
X104831673Y-85176564D01*
X104831677Y-85176564D01*
X104836837Y-85176753D01*
X104841957Y-85176097D01*
X104841959Y-85176097D01*
X105053288Y-85149025D01*
X105053289Y-85149025D01*
X105058416Y-85148368D01*
X105063366Y-85146883D01*
X105267429Y-85085661D01*
X105267434Y-85085659D01*
X105272384Y-85084174D01*
X105472994Y-84985896D01*
X105654860Y-84856173D01*
X105813096Y-84698489D01*
X105872594Y-84615689D01*
X105943453Y-84517077D01*
X105944776Y-84518028D01*
X105991645Y-84474857D01*
X106061580Y-84462625D01*
X106127026Y-84490144D01*
X106154875Y-84521994D01*
X106214987Y-84620088D01*
X106361250Y-84788938D01*
X106533126Y-84931632D01*
X106726000Y-85044338D01*
X106934692Y-85124030D01*
X106939760Y-85125061D01*
X106939763Y-85125062D01*
X107047017Y-85146883D01*
X107153597Y-85168567D01*
X107158772Y-85168757D01*
X107158774Y-85168757D01*
X107371673Y-85176564D01*
X107371677Y-85176564D01*
X107376837Y-85176753D01*
X107381957Y-85176097D01*
X107381959Y-85176097D01*
X107593288Y-85149025D01*
X107593289Y-85149025D01*
X107598416Y-85148368D01*
X107603366Y-85146883D01*
X107807429Y-85085661D01*
X107807434Y-85085659D01*
X107812384Y-85084174D01*
X108012994Y-84985896D01*
X108194860Y-84856173D01*
X108353096Y-84698489D01*
X108412594Y-84615689D01*
X108483453Y-84517077D01*
X108484776Y-84518028D01*
X108531645Y-84474857D01*
X108601580Y-84462625D01*
X108667026Y-84490144D01*
X108694875Y-84521994D01*
X108754987Y-84620088D01*
X108901250Y-84788938D01*
X109073126Y-84931632D01*
X109266000Y-85044338D01*
X109474692Y-85124030D01*
X109479760Y-85125061D01*
X109479763Y-85125062D01*
X109587017Y-85146883D01*
X109693597Y-85168567D01*
X109698772Y-85168757D01*
X109698774Y-85168757D01*
X109911673Y-85176564D01*
X109911677Y-85176564D01*
X109916837Y-85176753D01*
X109921957Y-85176097D01*
X109921959Y-85176097D01*
X110133288Y-85149025D01*
X110133289Y-85149025D01*
X110138416Y-85148368D01*
X110143366Y-85146883D01*
X110347429Y-85085661D01*
X110347434Y-85085659D01*
X110352384Y-85084174D01*
X110552994Y-84985896D01*
X110734860Y-84856173D01*
X110893096Y-84698489D01*
X110952594Y-84615689D01*
X111023453Y-84517077D01*
X111024776Y-84518028D01*
X111071645Y-84474857D01*
X111141580Y-84462625D01*
X111207026Y-84490144D01*
X111234875Y-84521994D01*
X111294987Y-84620088D01*
X111441250Y-84788938D01*
X111613126Y-84931632D01*
X111806000Y-85044338D01*
X112014692Y-85124030D01*
X112019760Y-85125061D01*
X112019763Y-85125062D01*
X112127017Y-85146883D01*
X112233597Y-85168567D01*
X112238772Y-85168757D01*
X112238774Y-85168757D01*
X112451673Y-85176564D01*
X112451677Y-85176564D01*
X112456837Y-85176753D01*
X112461957Y-85176097D01*
X112461959Y-85176097D01*
X112673288Y-85149025D01*
X112673289Y-85149025D01*
X112678416Y-85148368D01*
X112683366Y-85146883D01*
X112887429Y-85085661D01*
X112887434Y-85085659D01*
X112892384Y-85084174D01*
X113092994Y-84985896D01*
X113274860Y-84856173D01*
X113433096Y-84698489D01*
X113492594Y-84615689D01*
X113563453Y-84517077D01*
X113564776Y-84518028D01*
X113611645Y-84474857D01*
X113681580Y-84462625D01*
X113747026Y-84490144D01*
X113774875Y-84521994D01*
X113834987Y-84620088D01*
X113981250Y-84788938D01*
X114153126Y-84931632D01*
X114346000Y-85044338D01*
X114554692Y-85124030D01*
X114559760Y-85125061D01*
X114559763Y-85125062D01*
X114667017Y-85146883D01*
X114773597Y-85168567D01*
X114778772Y-85168757D01*
X114778774Y-85168757D01*
X114991673Y-85176564D01*
X114991677Y-85176564D01*
X114996837Y-85176753D01*
X115001957Y-85176097D01*
X115001959Y-85176097D01*
X115213288Y-85149025D01*
X115213289Y-85149025D01*
X115218416Y-85148368D01*
X115223366Y-85146883D01*
X115427429Y-85085661D01*
X115427434Y-85085659D01*
X115432384Y-85084174D01*
X115632994Y-84985896D01*
X115814860Y-84856173D01*
X115973096Y-84698489D01*
X116032594Y-84615689D01*
X116103453Y-84517077D01*
X116104776Y-84518028D01*
X116151645Y-84474857D01*
X116221580Y-84462625D01*
X116287026Y-84490144D01*
X116314875Y-84521994D01*
X116374987Y-84620088D01*
X116521250Y-84788938D01*
X116693126Y-84931632D01*
X116886000Y-85044338D01*
X117094692Y-85124030D01*
X117099760Y-85125061D01*
X117099763Y-85125062D01*
X117207017Y-85146883D01*
X117313597Y-85168567D01*
X117318772Y-85168757D01*
X117318774Y-85168757D01*
X117531673Y-85176564D01*
X117531677Y-85176564D01*
X117536837Y-85176753D01*
X117541957Y-85176097D01*
X117541959Y-85176097D01*
X117753288Y-85149025D01*
X117753289Y-85149025D01*
X117758416Y-85148368D01*
X117763366Y-85146883D01*
X117967429Y-85085661D01*
X117967434Y-85085659D01*
X117972384Y-85084174D01*
X118172994Y-84985896D01*
X118354860Y-84856173D01*
X118513096Y-84698489D01*
X118572594Y-84615689D01*
X118643453Y-84517077D01*
X118644776Y-84518028D01*
X118691645Y-84474857D01*
X118761580Y-84462625D01*
X118827026Y-84490144D01*
X118854875Y-84521994D01*
X118914987Y-84620088D01*
X119061250Y-84788938D01*
X119233126Y-84931632D01*
X119426000Y-85044338D01*
X119634692Y-85124030D01*
X119639760Y-85125061D01*
X119639763Y-85125062D01*
X119747017Y-85146883D01*
X119853597Y-85168567D01*
X119858772Y-85168757D01*
X119858774Y-85168757D01*
X120071673Y-85176564D01*
X120071677Y-85176564D01*
X120076837Y-85176753D01*
X120081957Y-85176097D01*
X120081959Y-85176097D01*
X120293288Y-85149025D01*
X120293289Y-85149025D01*
X120298416Y-85148368D01*
X120303366Y-85146883D01*
X120507429Y-85085661D01*
X120507434Y-85085659D01*
X120512384Y-85084174D01*
X120712994Y-84985896D01*
X120894860Y-84856173D01*
X121053096Y-84698489D01*
X121112594Y-84615689D01*
X121183453Y-84517077D01*
X121184776Y-84518028D01*
X121231645Y-84474857D01*
X121301580Y-84462625D01*
X121367026Y-84490144D01*
X121394875Y-84521994D01*
X121454987Y-84620088D01*
X121601250Y-84788938D01*
X121773126Y-84931632D01*
X121966000Y-85044338D01*
X122174692Y-85124030D01*
X122179760Y-85125061D01*
X122179763Y-85125062D01*
X122287017Y-85146883D01*
X122393597Y-85168567D01*
X122398772Y-85168757D01*
X122398774Y-85168757D01*
X122611673Y-85176564D01*
X122611677Y-85176564D01*
X122616837Y-85176753D01*
X122621957Y-85176097D01*
X122621959Y-85176097D01*
X122833288Y-85149025D01*
X122833289Y-85149025D01*
X122838416Y-85148368D01*
X122843366Y-85146883D01*
X123047429Y-85085661D01*
X123047434Y-85085659D01*
X123052384Y-85084174D01*
X123252994Y-84985896D01*
X123434860Y-84856173D01*
X123593096Y-84698489D01*
X123652594Y-84615689D01*
X123723453Y-84517077D01*
X123724776Y-84518028D01*
X123771645Y-84474857D01*
X123841580Y-84462625D01*
X123907026Y-84490144D01*
X123934875Y-84521994D01*
X123994987Y-84620088D01*
X124141250Y-84788938D01*
X124313126Y-84931632D01*
X124506000Y-85044338D01*
X124714692Y-85124030D01*
X124719760Y-85125061D01*
X124719763Y-85125062D01*
X124827017Y-85146883D01*
X124933597Y-85168567D01*
X124938772Y-85168757D01*
X124938774Y-85168757D01*
X125151673Y-85176564D01*
X125151677Y-85176564D01*
X125156837Y-85176753D01*
X125161957Y-85176097D01*
X125161959Y-85176097D01*
X125373288Y-85149025D01*
X125373289Y-85149025D01*
X125378416Y-85148368D01*
X125383366Y-85146883D01*
X125587429Y-85085661D01*
X125587434Y-85085659D01*
X125592384Y-85084174D01*
X125792994Y-84985896D01*
X125974860Y-84856173D01*
X126133096Y-84698489D01*
X126192594Y-84615689D01*
X126263453Y-84517077D01*
X126264776Y-84518028D01*
X126311645Y-84474857D01*
X126381580Y-84462625D01*
X126447026Y-84490144D01*
X126474875Y-84521994D01*
X126534987Y-84620088D01*
X126681250Y-84788938D01*
X126853126Y-84931632D01*
X127046000Y-85044338D01*
X127254692Y-85124030D01*
X127259760Y-85125061D01*
X127259763Y-85125062D01*
X127367017Y-85146883D01*
X127473597Y-85168567D01*
X127478772Y-85168757D01*
X127478774Y-85168757D01*
X127691673Y-85176564D01*
X127691677Y-85176564D01*
X127696837Y-85176753D01*
X127701957Y-85176097D01*
X127701959Y-85176097D01*
X127913288Y-85149025D01*
X127913289Y-85149025D01*
X127918416Y-85148368D01*
X127923366Y-85146883D01*
X128127429Y-85085661D01*
X128127434Y-85085659D01*
X128132384Y-85084174D01*
X128332994Y-84985896D01*
X128514860Y-84856173D01*
X128673096Y-84698489D01*
X128732594Y-84615689D01*
X128803453Y-84517077D01*
X128804776Y-84518028D01*
X128851645Y-84474857D01*
X128921580Y-84462625D01*
X128987026Y-84490144D01*
X129014875Y-84521994D01*
X129074987Y-84620088D01*
X129221250Y-84788938D01*
X129393126Y-84931632D01*
X129586000Y-85044338D01*
X129794692Y-85124030D01*
X129799760Y-85125061D01*
X129799763Y-85125062D01*
X129907017Y-85146883D01*
X130013597Y-85168567D01*
X130018772Y-85168757D01*
X130018774Y-85168757D01*
X130231673Y-85176564D01*
X130231677Y-85176564D01*
X130236837Y-85176753D01*
X130241957Y-85176097D01*
X130241959Y-85176097D01*
X130453288Y-85149025D01*
X130453289Y-85149025D01*
X130458416Y-85148368D01*
X130463366Y-85146883D01*
X130667429Y-85085661D01*
X130667434Y-85085659D01*
X130672384Y-85084174D01*
X130872994Y-84985896D01*
X131054860Y-84856173D01*
X131213096Y-84698489D01*
X131272594Y-84615689D01*
X131343453Y-84517077D01*
X131344776Y-84518028D01*
X131391645Y-84474857D01*
X131461580Y-84462625D01*
X131527026Y-84490144D01*
X131554875Y-84521994D01*
X131614987Y-84620088D01*
X131761250Y-84788938D01*
X131933126Y-84931632D01*
X132126000Y-85044338D01*
X132334692Y-85124030D01*
X132339760Y-85125061D01*
X132339763Y-85125062D01*
X132447017Y-85146883D01*
X132553597Y-85168567D01*
X132558772Y-85168757D01*
X132558774Y-85168757D01*
X132771673Y-85176564D01*
X132771677Y-85176564D01*
X132776837Y-85176753D01*
X132781957Y-85176097D01*
X132781959Y-85176097D01*
X132993288Y-85149025D01*
X132993289Y-85149025D01*
X132998416Y-85148368D01*
X133003366Y-85146883D01*
X133207429Y-85085661D01*
X133207434Y-85085659D01*
X133212384Y-85084174D01*
X133412994Y-84985896D01*
X133594860Y-84856173D01*
X133753096Y-84698489D01*
X133812594Y-84615689D01*
X133883453Y-84517077D01*
X133884776Y-84518028D01*
X133931645Y-84474857D01*
X134001580Y-84462625D01*
X134067026Y-84490144D01*
X134094875Y-84521994D01*
X134154987Y-84620088D01*
X134301250Y-84788938D01*
X134473126Y-84931632D01*
X134666000Y-85044338D01*
X134874692Y-85124030D01*
X134879760Y-85125061D01*
X134879763Y-85125062D01*
X134987017Y-85146883D01*
X135093597Y-85168567D01*
X135098772Y-85168757D01*
X135098774Y-85168757D01*
X135311673Y-85176564D01*
X135311677Y-85176564D01*
X135316837Y-85176753D01*
X135321957Y-85176097D01*
X135321959Y-85176097D01*
X135533288Y-85149025D01*
X135533289Y-85149025D01*
X135538416Y-85148368D01*
X135543366Y-85146883D01*
X135747429Y-85085661D01*
X135747434Y-85085659D01*
X135752384Y-85084174D01*
X135952994Y-84985896D01*
X136134860Y-84856173D01*
X136293096Y-84698489D01*
X136352594Y-84615689D01*
X136423453Y-84517077D01*
X136424776Y-84518028D01*
X136471645Y-84474857D01*
X136541580Y-84462625D01*
X136607026Y-84490144D01*
X136634875Y-84521994D01*
X136694987Y-84620088D01*
X136841250Y-84788938D01*
X137013126Y-84931632D01*
X137206000Y-85044338D01*
X137414692Y-85124030D01*
X137419760Y-85125061D01*
X137419763Y-85125062D01*
X137527017Y-85146883D01*
X137633597Y-85168567D01*
X137638772Y-85168757D01*
X137638774Y-85168757D01*
X137851673Y-85176564D01*
X137851677Y-85176564D01*
X137856837Y-85176753D01*
X137861957Y-85176097D01*
X137861959Y-85176097D01*
X138073288Y-85149025D01*
X138073289Y-85149025D01*
X138078416Y-85148368D01*
X138083366Y-85146883D01*
X138287429Y-85085661D01*
X138287434Y-85085659D01*
X138292384Y-85084174D01*
X138492994Y-84985896D01*
X138674860Y-84856173D01*
X138833096Y-84698489D01*
X138892594Y-84615689D01*
X138963453Y-84517077D01*
X138964776Y-84518028D01*
X139011645Y-84474857D01*
X139081580Y-84462625D01*
X139147026Y-84490144D01*
X139174875Y-84521994D01*
X139234987Y-84620088D01*
X139381250Y-84788938D01*
X139553126Y-84931632D01*
X139746000Y-85044338D01*
X139954692Y-85124030D01*
X139959760Y-85125061D01*
X139959763Y-85125062D01*
X140067017Y-85146883D01*
X140173597Y-85168567D01*
X140178772Y-85168757D01*
X140178774Y-85168757D01*
X140391673Y-85176564D01*
X140391677Y-85176564D01*
X140396837Y-85176753D01*
X140401957Y-85176097D01*
X140401959Y-85176097D01*
X140613288Y-85149025D01*
X140613289Y-85149025D01*
X140618416Y-85148368D01*
X140623366Y-85146883D01*
X140827429Y-85085661D01*
X140827434Y-85085659D01*
X140832384Y-85084174D01*
X141032994Y-84985896D01*
X141214860Y-84856173D01*
X141373096Y-84698489D01*
X141432594Y-84615689D01*
X141503453Y-84517077D01*
X141504776Y-84518028D01*
X141551645Y-84474857D01*
X141621580Y-84462625D01*
X141687026Y-84490144D01*
X141714875Y-84521994D01*
X141774987Y-84620088D01*
X141921250Y-84788938D01*
X142093126Y-84931632D01*
X142286000Y-85044338D01*
X142494692Y-85124030D01*
X142499760Y-85125061D01*
X142499763Y-85125062D01*
X142607017Y-85146883D01*
X142713597Y-85168567D01*
X142718772Y-85168757D01*
X142718774Y-85168757D01*
X142931673Y-85176564D01*
X142931677Y-85176564D01*
X142936837Y-85176753D01*
X142941957Y-85176097D01*
X142941959Y-85176097D01*
X143153288Y-85149025D01*
X143153289Y-85149025D01*
X143158416Y-85148368D01*
X143163366Y-85146883D01*
X143367429Y-85085661D01*
X143367434Y-85085659D01*
X143372384Y-85084174D01*
X143572994Y-84985896D01*
X143754860Y-84856173D01*
X143913096Y-84698489D01*
X143972594Y-84615689D01*
X144043453Y-84517077D01*
X144044776Y-84518028D01*
X144091645Y-84474857D01*
X144161580Y-84462625D01*
X144227026Y-84490144D01*
X144254875Y-84521994D01*
X144314987Y-84620088D01*
X144461250Y-84788938D01*
X144633126Y-84931632D01*
X144826000Y-85044338D01*
X145034692Y-85124030D01*
X145039760Y-85125061D01*
X145039763Y-85125062D01*
X145147017Y-85146883D01*
X145253597Y-85168567D01*
X145258772Y-85168757D01*
X145258774Y-85168757D01*
X145471673Y-85176564D01*
X145471677Y-85176564D01*
X145476837Y-85176753D01*
X145481957Y-85176097D01*
X145481959Y-85176097D01*
X145693288Y-85149025D01*
X145693289Y-85149025D01*
X145698416Y-85148368D01*
X145703366Y-85146883D01*
X145907429Y-85085661D01*
X145907434Y-85085659D01*
X145912384Y-85084174D01*
X146112994Y-84985896D01*
X146294860Y-84856173D01*
X146453096Y-84698489D01*
X146512594Y-84615689D01*
X146583453Y-84517077D01*
X146584776Y-84518028D01*
X146631645Y-84474857D01*
X146701580Y-84462625D01*
X146767026Y-84490144D01*
X146794875Y-84521994D01*
X146854987Y-84620088D01*
X147001250Y-84788938D01*
X147173126Y-84931632D01*
X147366000Y-85044338D01*
X147574692Y-85124030D01*
X147579760Y-85125061D01*
X147579763Y-85125062D01*
X147687017Y-85146883D01*
X147793597Y-85168567D01*
X147798772Y-85168757D01*
X147798774Y-85168757D01*
X148011673Y-85176564D01*
X148011677Y-85176564D01*
X148016837Y-85176753D01*
X148021957Y-85176097D01*
X148021959Y-85176097D01*
X148233288Y-85149025D01*
X148233289Y-85149025D01*
X148238416Y-85148368D01*
X148243366Y-85146883D01*
X148447429Y-85085661D01*
X148447434Y-85085659D01*
X148452384Y-85084174D01*
X148652994Y-84985896D01*
X148834860Y-84856173D01*
X148993096Y-84698489D01*
X149052594Y-84615689D01*
X149123453Y-84517077D01*
X149124776Y-84518028D01*
X149171645Y-84474857D01*
X149241580Y-84462625D01*
X149307026Y-84490144D01*
X149334875Y-84521994D01*
X149394987Y-84620088D01*
X149541250Y-84788938D01*
X149713126Y-84931632D01*
X149906000Y-85044338D01*
X150114692Y-85124030D01*
X150119760Y-85125061D01*
X150119763Y-85125062D01*
X150227017Y-85146883D01*
X150333597Y-85168567D01*
X150338772Y-85168757D01*
X150338774Y-85168757D01*
X150551673Y-85176564D01*
X150551677Y-85176564D01*
X150556837Y-85176753D01*
X150561957Y-85176097D01*
X150561959Y-85176097D01*
X150773288Y-85149025D01*
X150773289Y-85149025D01*
X150778416Y-85148368D01*
X150783366Y-85146883D01*
X150987429Y-85085661D01*
X150987434Y-85085659D01*
X150992384Y-85084174D01*
X151192994Y-84985896D01*
X151374860Y-84856173D01*
X151533096Y-84698489D01*
X151592594Y-84615689D01*
X151663453Y-84517077D01*
X151664776Y-84518028D01*
X151711645Y-84474857D01*
X151781580Y-84462625D01*
X151847026Y-84490144D01*
X151874875Y-84521994D01*
X151934987Y-84620088D01*
X152081250Y-84788938D01*
X152253126Y-84931632D01*
X152446000Y-85044338D01*
X152654692Y-85124030D01*
X152659760Y-85125061D01*
X152659763Y-85125062D01*
X152767017Y-85146883D01*
X152873597Y-85168567D01*
X152878772Y-85168757D01*
X152878774Y-85168757D01*
X153091673Y-85176564D01*
X153091677Y-85176564D01*
X153096837Y-85176753D01*
X153101957Y-85176097D01*
X153101959Y-85176097D01*
X153313288Y-85149025D01*
X153313289Y-85149025D01*
X153318416Y-85148368D01*
X153323366Y-85146883D01*
X153527429Y-85085661D01*
X153527434Y-85085659D01*
X153532384Y-85084174D01*
X153732994Y-84985896D01*
X153914860Y-84856173D01*
X154073096Y-84698489D01*
X154132594Y-84615689D01*
X154203453Y-84517077D01*
X154204776Y-84518028D01*
X154251645Y-84474857D01*
X154321580Y-84462625D01*
X154387026Y-84490144D01*
X154414875Y-84521994D01*
X154474987Y-84620088D01*
X154621250Y-84788938D01*
X154793126Y-84931632D01*
X154986000Y-85044338D01*
X155194692Y-85124030D01*
X155199760Y-85125061D01*
X155199763Y-85125062D01*
X155307017Y-85146883D01*
X155413597Y-85168567D01*
X155418772Y-85168757D01*
X155418774Y-85168757D01*
X155631673Y-85176564D01*
X155631677Y-85176564D01*
X155636837Y-85176753D01*
X155641957Y-85176097D01*
X155641959Y-85176097D01*
X155853288Y-85149025D01*
X155853289Y-85149025D01*
X155858416Y-85148368D01*
X155863366Y-85146883D01*
X156067429Y-85085661D01*
X156067434Y-85085659D01*
X156072384Y-85084174D01*
X156272994Y-84985896D01*
X156454860Y-84856173D01*
X156613096Y-84698489D01*
X156672594Y-84615689D01*
X156743453Y-84517077D01*
X156744776Y-84518028D01*
X156791645Y-84474857D01*
X156861580Y-84462625D01*
X156927026Y-84490144D01*
X156954875Y-84521994D01*
X157014987Y-84620088D01*
X157161250Y-84788938D01*
X157333126Y-84931632D01*
X157526000Y-85044338D01*
X157734692Y-85124030D01*
X157739760Y-85125061D01*
X157739763Y-85125062D01*
X157847017Y-85146883D01*
X157953597Y-85168567D01*
X157958772Y-85168757D01*
X157958774Y-85168757D01*
X158171673Y-85176564D01*
X158171677Y-85176564D01*
X158176837Y-85176753D01*
X158181957Y-85176097D01*
X158181959Y-85176097D01*
X158393288Y-85149025D01*
X158393289Y-85149025D01*
X158398416Y-85148368D01*
X158403366Y-85146883D01*
X158607429Y-85085661D01*
X158607434Y-85085659D01*
X158612384Y-85084174D01*
X158812994Y-84985896D01*
X158994860Y-84856173D01*
X159153096Y-84698489D01*
X159212594Y-84615689D01*
X159283453Y-84517077D01*
X159284776Y-84518028D01*
X159331645Y-84474857D01*
X159401580Y-84462625D01*
X159467026Y-84490144D01*
X159494875Y-84521994D01*
X159554987Y-84620088D01*
X159701250Y-84788938D01*
X159873126Y-84931632D01*
X160066000Y-85044338D01*
X160274692Y-85124030D01*
X160279760Y-85125061D01*
X160279763Y-85125062D01*
X160387017Y-85146883D01*
X160493597Y-85168567D01*
X160498772Y-85168757D01*
X160498774Y-85168757D01*
X160711673Y-85176564D01*
X160711677Y-85176564D01*
X160716837Y-85176753D01*
X160721957Y-85176097D01*
X160721959Y-85176097D01*
X160933288Y-85149025D01*
X160933289Y-85149025D01*
X160938416Y-85148368D01*
X160943366Y-85146883D01*
X161147429Y-85085661D01*
X161147434Y-85085659D01*
X161152384Y-85084174D01*
X161352994Y-84985896D01*
X161534860Y-84856173D01*
X161693096Y-84698489D01*
X161752594Y-84615689D01*
X161823453Y-84517077D01*
X161824776Y-84518028D01*
X161871645Y-84474857D01*
X161941580Y-84462625D01*
X162007026Y-84490144D01*
X162034875Y-84521994D01*
X162094987Y-84620088D01*
X162241250Y-84788938D01*
X162413126Y-84931632D01*
X162606000Y-85044338D01*
X162814692Y-85124030D01*
X162819760Y-85125061D01*
X162819763Y-85125062D01*
X162927017Y-85146883D01*
X163033597Y-85168567D01*
X163038772Y-85168757D01*
X163038774Y-85168757D01*
X163251673Y-85176564D01*
X163251677Y-85176564D01*
X163256837Y-85176753D01*
X163261957Y-85176097D01*
X163261959Y-85176097D01*
X163473288Y-85149025D01*
X163473289Y-85149025D01*
X163478416Y-85148368D01*
X163483366Y-85146883D01*
X163687429Y-85085661D01*
X163687434Y-85085659D01*
X163692384Y-85084174D01*
X163892994Y-84985896D01*
X164074860Y-84856173D01*
X164233096Y-84698489D01*
X164292594Y-84615689D01*
X164363453Y-84517077D01*
X164364776Y-84518028D01*
X164411645Y-84474857D01*
X164481580Y-84462625D01*
X164547026Y-84490144D01*
X164574875Y-84521994D01*
X164634987Y-84620088D01*
X164781250Y-84788938D01*
X164953126Y-84931632D01*
X165146000Y-85044338D01*
X165354692Y-85124030D01*
X165359760Y-85125061D01*
X165359763Y-85125062D01*
X165467017Y-85146883D01*
X165573597Y-85168567D01*
X165578772Y-85168757D01*
X165578774Y-85168757D01*
X165791673Y-85176564D01*
X165791677Y-85176564D01*
X165796837Y-85176753D01*
X165801957Y-85176097D01*
X165801959Y-85176097D01*
X166013288Y-85149025D01*
X166013289Y-85149025D01*
X166018416Y-85148368D01*
X166023366Y-85146883D01*
X166227429Y-85085661D01*
X166227434Y-85085659D01*
X166232384Y-85084174D01*
X166432994Y-84985896D01*
X166614860Y-84856173D01*
X166773096Y-84698489D01*
X166832594Y-84615689D01*
X166903453Y-84517077D01*
X166904776Y-84518028D01*
X166951645Y-84474857D01*
X167021580Y-84462625D01*
X167087026Y-84490144D01*
X167114875Y-84521994D01*
X167174987Y-84620088D01*
X167321250Y-84788938D01*
X167493126Y-84931632D01*
X167686000Y-85044338D01*
X167894692Y-85124030D01*
X167899760Y-85125061D01*
X167899763Y-85125062D01*
X168007017Y-85146883D01*
X168113597Y-85168567D01*
X168118772Y-85168757D01*
X168118774Y-85168757D01*
X168331673Y-85176564D01*
X168331677Y-85176564D01*
X168336837Y-85176753D01*
X168341957Y-85176097D01*
X168341959Y-85176097D01*
X168553288Y-85149025D01*
X168553289Y-85149025D01*
X168558416Y-85148368D01*
X168563366Y-85146883D01*
X168767429Y-85085661D01*
X168767434Y-85085659D01*
X168772384Y-85084174D01*
X168972994Y-84985896D01*
X169154860Y-84856173D01*
X169313096Y-84698489D01*
X169372594Y-84615689D01*
X169440435Y-84521277D01*
X169443453Y-84517077D01*
X169464320Y-84474857D01*
X169540136Y-84321453D01*
X169540137Y-84321451D01*
X169542430Y-84316811D01*
X169607370Y-84103069D01*
X169636529Y-83881590D01*
X169638156Y-83815000D01*
X169619852Y-83592361D01*
X169565431Y-83375702D01*
X169476354Y-83170840D01*
X169355014Y-82983277D01*
X169351532Y-82979450D01*
X169207798Y-82821488D01*
X169176746Y-82757642D01*
X169185141Y-82687143D01*
X169230317Y-82632375D01*
X169256761Y-82618706D01*
X169363297Y-82578767D01*
X169371705Y-82575615D01*
X169488261Y-82488261D01*
X169575615Y-82371705D01*
X169626745Y-82235316D01*
X169633500Y-82173134D01*
X169633500Y-80376866D01*
X169626745Y-80314684D01*
X169575615Y-80178295D01*
X169488261Y-80061739D01*
X169371705Y-79974385D01*
X169235316Y-79923255D01*
X169173134Y-79916500D01*
X167376866Y-79916500D01*
X167314684Y-79923255D01*
X167178295Y-79974385D01*
X167061739Y-80061739D01*
X166974385Y-80178295D01*
X166971233Y-80186703D01*
X166929919Y-80296907D01*
X166887277Y-80353671D01*
X166820716Y-80378371D01*
X166751367Y-80363163D01*
X166718743Y-80337476D01*
X166668151Y-80281875D01*
X166668142Y-80281866D01*
X166664670Y-80278051D01*
X166660619Y-80274852D01*
X166660615Y-80274848D01*
X166493414Y-80142800D01*
X166493410Y-80142798D01*
X166489359Y-80139598D01*
X166453028Y-80119542D01*
X166437136Y-80110769D01*
X166293789Y-80031638D01*
X166288920Y-80029914D01*
X166288916Y-80029912D01*
X166088087Y-79958795D01*
X166088083Y-79958794D01*
X166083212Y-79957069D01*
X166078119Y-79956162D01*
X166078116Y-79956161D01*
X165868373Y-79918800D01*
X165868367Y-79918799D01*
X165863284Y-79917894D01*
X165789452Y-79916992D01*
X165645081Y-79915228D01*
X165645079Y-79915228D01*
X165639911Y-79915165D01*
X165419091Y-79948955D01*
X165206756Y-80018357D01*
X165008607Y-80121507D01*
X165004474Y-80124610D01*
X165004471Y-80124612D01*
X164834100Y-80252530D01*
X164829965Y-80255635D01*
X164804541Y-80282240D01*
X164736280Y-80353671D01*
X164675629Y-80417138D01*
X164568204Y-80574618D01*
X164567898Y-80575066D01*
X164512987Y-80620069D01*
X164442462Y-80628240D01*
X164378715Y-80596986D01*
X164358018Y-80572502D01*
X164277426Y-80447926D01*
X164271136Y-80439757D01*
X164127806Y-80282240D01*
X164120273Y-80275215D01*
X163953139Y-80143222D01*
X163944552Y-80137517D01*
X163758114Y-80034597D01*
X163748705Y-80030369D01*
X163712076Y-80017398D01*
X163697996Y-80016626D01*
X163695000Y-80022337D01*
X163695000Y-81649000D01*
X163674998Y-81717121D01*
X163621342Y-81763614D01*
X163569000Y-81775000D01*
X162821000Y-81775000D01*
X162752879Y-81754998D01*
X162706386Y-81701342D01*
X162695000Y-81649000D01*
X162695000Y-80027766D01*
X162691027Y-80014235D01*
X162684045Y-80013231D01*
X162671868Y-80017212D01*
X162662359Y-80021209D01*
X162473463Y-80119542D01*
X162464738Y-80125036D01*
X162294433Y-80252905D01*
X162286726Y-80259748D01*
X162139590Y-80413717D01*
X162133109Y-80421722D01*
X162028498Y-80575074D01*
X161973587Y-80620076D01*
X161903062Y-80628247D01*
X161839315Y-80596993D01*
X161818618Y-80572509D01*
X161737822Y-80447617D01*
X161737820Y-80447614D01*
X161735014Y-80443277D01*
X161584670Y-80278051D01*
X161580619Y-80274852D01*
X161580615Y-80274848D01*
X161413414Y-80142800D01*
X161413410Y-80142798D01*
X161409359Y-80139598D01*
X161373028Y-80119542D01*
X161357136Y-80110769D01*
X161213789Y-80031638D01*
X161208920Y-80029914D01*
X161208916Y-80029912D01*
X161008087Y-79958795D01*
X161008083Y-79958794D01*
X161003212Y-79957069D01*
X160998119Y-79956162D01*
X160998116Y-79956161D01*
X160788373Y-79918800D01*
X160788367Y-79918799D01*
X160783284Y-79917894D01*
X160709452Y-79916992D01*
X160565081Y-79915228D01*
X160565079Y-79915228D01*
X160559911Y-79915165D01*
X160339091Y-79948955D01*
X160126756Y-80018357D01*
X159928607Y-80121507D01*
X159924474Y-80124610D01*
X159924471Y-80124612D01*
X159754100Y-80252530D01*
X159749965Y-80255635D01*
X159724541Y-80282240D01*
X159656280Y-80353671D01*
X159595629Y-80417138D01*
X159488201Y-80574621D01*
X159433293Y-80619621D01*
X159362768Y-80627792D01*
X159299021Y-80596538D01*
X159278324Y-80572054D01*
X159197822Y-80447617D01*
X159197820Y-80447614D01*
X159195014Y-80443277D01*
X159044670Y-80278051D01*
X159040619Y-80274852D01*
X159040615Y-80274848D01*
X158873414Y-80142800D01*
X158873410Y-80142798D01*
X158869359Y-80139598D01*
X158833028Y-80119542D01*
X158817136Y-80110769D01*
X158673789Y-80031638D01*
X158668920Y-80029914D01*
X158668916Y-80029912D01*
X158468087Y-79958795D01*
X158468083Y-79958794D01*
X158463212Y-79957069D01*
X158458119Y-79956162D01*
X158458116Y-79956161D01*
X158248373Y-79918800D01*
X158248367Y-79918799D01*
X158243284Y-79917894D01*
X158169452Y-79916992D01*
X158025081Y-79915228D01*
X158025079Y-79915228D01*
X158019911Y-79915165D01*
X157799091Y-79948955D01*
X157586756Y-80018357D01*
X157388607Y-80121507D01*
X157384474Y-80124610D01*
X157384471Y-80124612D01*
X157214100Y-80252530D01*
X157209965Y-80255635D01*
X157184541Y-80282240D01*
X157116280Y-80353671D01*
X157055629Y-80417138D01*
X156948201Y-80574621D01*
X156893293Y-80619621D01*
X156822768Y-80627792D01*
X156759021Y-80596538D01*
X156738324Y-80572054D01*
X156657822Y-80447617D01*
X156657820Y-80447614D01*
X156655014Y-80443277D01*
X156504670Y-80278051D01*
X156500619Y-80274852D01*
X156500615Y-80274848D01*
X156333414Y-80142800D01*
X156333410Y-80142798D01*
X156329359Y-80139598D01*
X156293028Y-80119542D01*
X156277136Y-80110769D01*
X156133789Y-80031638D01*
X156128920Y-80029914D01*
X156128916Y-80029912D01*
X155928087Y-79958795D01*
X155928083Y-79958794D01*
X155923212Y-79957069D01*
X155918119Y-79956162D01*
X155918116Y-79956161D01*
X155708373Y-79918800D01*
X155708367Y-79918799D01*
X155703284Y-79917894D01*
X155629452Y-79916992D01*
X155485081Y-79915228D01*
X155485079Y-79915228D01*
X155479911Y-79915165D01*
X155259091Y-79948955D01*
X155046756Y-80018357D01*
X154848607Y-80121507D01*
X154844474Y-80124610D01*
X154844471Y-80124612D01*
X154674100Y-80252530D01*
X154669965Y-80255635D01*
X154644541Y-80282240D01*
X154576280Y-80353671D01*
X154515629Y-80417138D01*
X154408201Y-80574621D01*
X154353293Y-80619621D01*
X154282768Y-80627792D01*
X154219021Y-80596538D01*
X154198324Y-80572054D01*
X154117822Y-80447617D01*
X154117820Y-80447614D01*
X154115014Y-80443277D01*
X153964670Y-80278051D01*
X153960619Y-80274852D01*
X153960615Y-80274848D01*
X153793414Y-80142800D01*
X153793410Y-80142798D01*
X153789359Y-80139598D01*
X153753028Y-80119542D01*
X153737136Y-80110769D01*
X153593789Y-80031638D01*
X153588920Y-80029914D01*
X153588916Y-80029912D01*
X153388087Y-79958795D01*
X153388083Y-79958794D01*
X153383212Y-79957069D01*
X153378119Y-79956162D01*
X153378116Y-79956161D01*
X153168373Y-79918800D01*
X153168367Y-79918799D01*
X153163284Y-79917894D01*
X153089452Y-79916992D01*
X152945081Y-79915228D01*
X152945079Y-79915228D01*
X152939911Y-79915165D01*
X152719091Y-79948955D01*
X152506756Y-80018357D01*
X152308607Y-80121507D01*
X152304474Y-80124610D01*
X152304471Y-80124612D01*
X152134100Y-80252530D01*
X152129965Y-80255635D01*
X152104541Y-80282240D01*
X152036280Y-80353671D01*
X151975629Y-80417138D01*
X151868201Y-80574621D01*
X151813293Y-80619621D01*
X151742768Y-80627792D01*
X151679021Y-80596538D01*
X151658324Y-80572054D01*
X151577822Y-80447617D01*
X151577820Y-80447614D01*
X151575014Y-80443277D01*
X151424670Y-80278051D01*
X151420619Y-80274852D01*
X151420615Y-80274848D01*
X151253414Y-80142800D01*
X151253410Y-80142798D01*
X151249359Y-80139598D01*
X151213028Y-80119542D01*
X151197136Y-80110769D01*
X151053789Y-80031638D01*
X151048920Y-80029914D01*
X151048916Y-80029912D01*
X150848087Y-79958795D01*
X150848083Y-79958794D01*
X150843212Y-79957069D01*
X150838119Y-79956162D01*
X150838116Y-79956161D01*
X150628373Y-79918800D01*
X150628367Y-79918799D01*
X150623284Y-79917894D01*
X150549452Y-79916992D01*
X150405081Y-79915228D01*
X150405079Y-79915228D01*
X150399911Y-79915165D01*
X150179091Y-79948955D01*
X149966756Y-80018357D01*
X149768607Y-80121507D01*
X149764474Y-80124610D01*
X149764471Y-80124612D01*
X149594100Y-80252530D01*
X149589965Y-80255635D01*
X149564541Y-80282240D01*
X149496280Y-80353671D01*
X149435629Y-80417138D01*
X149328201Y-80574621D01*
X149273293Y-80619621D01*
X149202768Y-80627792D01*
X149139021Y-80596538D01*
X149118324Y-80572054D01*
X149037822Y-80447617D01*
X149037820Y-80447614D01*
X149035014Y-80443277D01*
X148884670Y-80278051D01*
X148880619Y-80274852D01*
X148880615Y-80274848D01*
X148713414Y-80142800D01*
X148713410Y-80142798D01*
X148709359Y-80139598D01*
X148673028Y-80119542D01*
X148657136Y-80110769D01*
X148513789Y-80031638D01*
X148508920Y-80029914D01*
X148508916Y-80029912D01*
X148308087Y-79958795D01*
X148308083Y-79958794D01*
X148303212Y-79957069D01*
X148298119Y-79956162D01*
X148298116Y-79956161D01*
X148088373Y-79918800D01*
X148088367Y-79918799D01*
X148083284Y-79917894D01*
X148009452Y-79916992D01*
X147865081Y-79915228D01*
X147865079Y-79915228D01*
X147859911Y-79915165D01*
X147639091Y-79948955D01*
X147426756Y-80018357D01*
X147228607Y-80121507D01*
X147224474Y-80124610D01*
X147224471Y-80124612D01*
X147054100Y-80252530D01*
X147049965Y-80255635D01*
X147024541Y-80282240D01*
X146956280Y-80353671D01*
X146895629Y-80417138D01*
X146788201Y-80574621D01*
X146733293Y-80619621D01*
X146662768Y-80627792D01*
X146599021Y-80596538D01*
X146578324Y-80572054D01*
X146497822Y-80447617D01*
X146497820Y-80447614D01*
X146495014Y-80443277D01*
X146344670Y-80278051D01*
X146340619Y-80274852D01*
X146340615Y-80274848D01*
X146173414Y-80142800D01*
X146173410Y-80142798D01*
X146169359Y-80139598D01*
X146133028Y-80119542D01*
X146117136Y-80110769D01*
X145973789Y-80031638D01*
X145968920Y-80029914D01*
X145968916Y-80029912D01*
X145768087Y-79958795D01*
X145768083Y-79958794D01*
X145763212Y-79957069D01*
X145758119Y-79956162D01*
X145758116Y-79956161D01*
X145548373Y-79918800D01*
X145548367Y-79918799D01*
X145543284Y-79917894D01*
X145469452Y-79916992D01*
X145325081Y-79915228D01*
X145325079Y-79915228D01*
X145319911Y-79915165D01*
X145099091Y-79948955D01*
X144886756Y-80018357D01*
X144688607Y-80121507D01*
X144684474Y-80124610D01*
X144684471Y-80124612D01*
X144514100Y-80252530D01*
X144509965Y-80255635D01*
X144484541Y-80282240D01*
X144416280Y-80353671D01*
X144355629Y-80417138D01*
X144248201Y-80574621D01*
X144193293Y-80619621D01*
X144122768Y-80627792D01*
X144059021Y-80596538D01*
X144038324Y-80572054D01*
X143957822Y-80447617D01*
X143957820Y-80447614D01*
X143955014Y-80443277D01*
X143804670Y-80278051D01*
X143800619Y-80274852D01*
X143800615Y-80274848D01*
X143633414Y-80142800D01*
X143633410Y-80142798D01*
X143629359Y-80139598D01*
X143593028Y-80119542D01*
X143577136Y-80110769D01*
X143433789Y-80031638D01*
X143428920Y-80029914D01*
X143428916Y-80029912D01*
X143228087Y-79958795D01*
X143228083Y-79958794D01*
X143223212Y-79957069D01*
X143218119Y-79956162D01*
X143218116Y-79956161D01*
X143008373Y-79918800D01*
X143008367Y-79918799D01*
X143003284Y-79917894D01*
X142929452Y-79916992D01*
X142785081Y-79915228D01*
X142785079Y-79915228D01*
X142779911Y-79915165D01*
X142559091Y-79948955D01*
X142346756Y-80018357D01*
X142148607Y-80121507D01*
X142144474Y-80124610D01*
X142144471Y-80124612D01*
X141974100Y-80252530D01*
X141969965Y-80255635D01*
X141944541Y-80282240D01*
X141876280Y-80353671D01*
X141815629Y-80417138D01*
X141708201Y-80574621D01*
X141653293Y-80619621D01*
X141582768Y-80627792D01*
X141519021Y-80596538D01*
X141498324Y-80572054D01*
X141417822Y-80447617D01*
X141417820Y-80447614D01*
X141415014Y-80443277D01*
X141264670Y-80278051D01*
X141260619Y-80274852D01*
X141260615Y-80274848D01*
X141093414Y-80142800D01*
X141093410Y-80142798D01*
X141089359Y-80139598D01*
X141053028Y-80119542D01*
X141037136Y-80110769D01*
X140893789Y-80031638D01*
X140888920Y-80029914D01*
X140888916Y-80029912D01*
X140688087Y-79958795D01*
X140688083Y-79958794D01*
X140683212Y-79957069D01*
X140678119Y-79956162D01*
X140678116Y-79956161D01*
X140468373Y-79918800D01*
X140468367Y-79918799D01*
X140463284Y-79917894D01*
X140389452Y-79916992D01*
X140245081Y-79915228D01*
X140245079Y-79915228D01*
X140239911Y-79915165D01*
X140019091Y-79948955D01*
X139806756Y-80018357D01*
X139608607Y-80121507D01*
X139604474Y-80124610D01*
X139604471Y-80124612D01*
X139434100Y-80252530D01*
X139429965Y-80255635D01*
X139404541Y-80282240D01*
X139336280Y-80353671D01*
X139275629Y-80417138D01*
X139168201Y-80574621D01*
X139113293Y-80619621D01*
X139042768Y-80627792D01*
X138979021Y-80596538D01*
X138958324Y-80572054D01*
X138877822Y-80447617D01*
X138877820Y-80447614D01*
X138875014Y-80443277D01*
X138724670Y-80278051D01*
X138720619Y-80274852D01*
X138720615Y-80274848D01*
X138553414Y-80142800D01*
X138553410Y-80142798D01*
X138549359Y-80139598D01*
X138513028Y-80119542D01*
X138497136Y-80110769D01*
X138353789Y-80031638D01*
X138348920Y-80029914D01*
X138348916Y-80029912D01*
X138148087Y-79958795D01*
X138148083Y-79958794D01*
X138143212Y-79957069D01*
X138138119Y-79956162D01*
X138138116Y-79956161D01*
X137928373Y-79918800D01*
X137928367Y-79918799D01*
X137923284Y-79917894D01*
X137849452Y-79916992D01*
X137705081Y-79915228D01*
X137705079Y-79915228D01*
X137699911Y-79915165D01*
X137479091Y-79948955D01*
X137266756Y-80018357D01*
X137068607Y-80121507D01*
X137064474Y-80124610D01*
X137064471Y-80124612D01*
X136894100Y-80252530D01*
X136889965Y-80255635D01*
X136864541Y-80282240D01*
X136796280Y-80353671D01*
X136735629Y-80417138D01*
X136628201Y-80574621D01*
X136573293Y-80619621D01*
X136502768Y-80627792D01*
X136439021Y-80596538D01*
X136418324Y-80572054D01*
X136337822Y-80447617D01*
X136337820Y-80447614D01*
X136335014Y-80443277D01*
X136184670Y-80278051D01*
X136180619Y-80274852D01*
X136180615Y-80274848D01*
X136013414Y-80142800D01*
X136013410Y-80142798D01*
X136009359Y-80139598D01*
X135973028Y-80119542D01*
X135957136Y-80110769D01*
X135813789Y-80031638D01*
X135808920Y-80029914D01*
X135808916Y-80029912D01*
X135608087Y-79958795D01*
X135608083Y-79958794D01*
X135603212Y-79957069D01*
X135598119Y-79956162D01*
X135598116Y-79956161D01*
X135388373Y-79918800D01*
X135388367Y-79918799D01*
X135383284Y-79917894D01*
X135309452Y-79916992D01*
X135165081Y-79915228D01*
X135165079Y-79915228D01*
X135159911Y-79915165D01*
X134939091Y-79948955D01*
X134726756Y-80018357D01*
X134528607Y-80121507D01*
X134524474Y-80124610D01*
X134524471Y-80124612D01*
X134354100Y-80252530D01*
X134349965Y-80255635D01*
X134324541Y-80282240D01*
X134256280Y-80353671D01*
X134195629Y-80417138D01*
X134088201Y-80574621D01*
X134033293Y-80619621D01*
X133962768Y-80627792D01*
X133899021Y-80596538D01*
X133878324Y-80572054D01*
X133797822Y-80447617D01*
X133797820Y-80447614D01*
X133795014Y-80443277D01*
X133644670Y-80278051D01*
X133640619Y-80274852D01*
X133640615Y-80274848D01*
X133473414Y-80142800D01*
X133473410Y-80142798D01*
X133469359Y-80139598D01*
X133433028Y-80119542D01*
X133417136Y-80110769D01*
X133273789Y-80031638D01*
X133268920Y-80029914D01*
X133268916Y-80029912D01*
X133068087Y-79958795D01*
X133068083Y-79958794D01*
X133063212Y-79957069D01*
X133058119Y-79956162D01*
X133058116Y-79956161D01*
X132848373Y-79918800D01*
X132848367Y-79918799D01*
X132843284Y-79917894D01*
X132769452Y-79916992D01*
X132625081Y-79915228D01*
X132625079Y-79915228D01*
X132619911Y-79915165D01*
X132399091Y-79948955D01*
X132186756Y-80018357D01*
X131988607Y-80121507D01*
X131984474Y-80124610D01*
X131984471Y-80124612D01*
X131814100Y-80252530D01*
X131809965Y-80255635D01*
X131784541Y-80282240D01*
X131716280Y-80353671D01*
X131655629Y-80417138D01*
X131548201Y-80574621D01*
X131493293Y-80619621D01*
X131422768Y-80627792D01*
X131359021Y-80596538D01*
X131338324Y-80572054D01*
X131257822Y-80447617D01*
X131257820Y-80447614D01*
X131255014Y-80443277D01*
X131104670Y-80278051D01*
X131100619Y-80274852D01*
X131100615Y-80274848D01*
X130933414Y-80142800D01*
X130933410Y-80142798D01*
X130929359Y-80139598D01*
X130893028Y-80119542D01*
X130877136Y-80110769D01*
X130733789Y-80031638D01*
X130728920Y-80029914D01*
X130728916Y-80029912D01*
X130528087Y-79958795D01*
X130528083Y-79958794D01*
X130523212Y-79957069D01*
X130518119Y-79956162D01*
X130518116Y-79956161D01*
X130308373Y-79918800D01*
X130308367Y-79918799D01*
X130303284Y-79917894D01*
X130229452Y-79916992D01*
X130085081Y-79915228D01*
X130085079Y-79915228D01*
X130079911Y-79915165D01*
X129859091Y-79948955D01*
X129646756Y-80018357D01*
X129448607Y-80121507D01*
X129444474Y-80124610D01*
X129444471Y-80124612D01*
X129274100Y-80252530D01*
X129269965Y-80255635D01*
X129244541Y-80282240D01*
X129176280Y-80353671D01*
X129115629Y-80417138D01*
X129008201Y-80574621D01*
X128953293Y-80619621D01*
X128882768Y-80627792D01*
X128819021Y-80596538D01*
X128798324Y-80572054D01*
X128717822Y-80447617D01*
X128717820Y-80447614D01*
X128715014Y-80443277D01*
X128564670Y-80278051D01*
X128560619Y-80274852D01*
X128560615Y-80274848D01*
X128393414Y-80142800D01*
X128393410Y-80142798D01*
X128389359Y-80139598D01*
X128353028Y-80119542D01*
X128337136Y-80110769D01*
X128193789Y-80031638D01*
X128188920Y-80029914D01*
X128188916Y-80029912D01*
X127988087Y-79958795D01*
X127988083Y-79958794D01*
X127983212Y-79957069D01*
X127978119Y-79956162D01*
X127978116Y-79956161D01*
X127768373Y-79918800D01*
X127768367Y-79918799D01*
X127763284Y-79917894D01*
X127689452Y-79916992D01*
X127545081Y-79915228D01*
X127545079Y-79915228D01*
X127539911Y-79915165D01*
X127319091Y-79948955D01*
X127106756Y-80018357D01*
X126908607Y-80121507D01*
X126904474Y-80124610D01*
X126904471Y-80124612D01*
X126734100Y-80252530D01*
X126729965Y-80255635D01*
X126704541Y-80282240D01*
X126636280Y-80353671D01*
X126575629Y-80417138D01*
X126468201Y-80574621D01*
X126413293Y-80619621D01*
X126342768Y-80627792D01*
X126279021Y-80596538D01*
X126258324Y-80572054D01*
X126177822Y-80447617D01*
X126177820Y-80447614D01*
X126175014Y-80443277D01*
X126024670Y-80278051D01*
X126020619Y-80274852D01*
X126020615Y-80274848D01*
X125853414Y-80142800D01*
X125853410Y-80142798D01*
X125849359Y-80139598D01*
X125813028Y-80119542D01*
X125797136Y-80110769D01*
X125653789Y-80031638D01*
X125648920Y-80029914D01*
X125648916Y-80029912D01*
X125448087Y-79958795D01*
X125448083Y-79958794D01*
X125443212Y-79957069D01*
X125438119Y-79956162D01*
X125438116Y-79956161D01*
X125228373Y-79918800D01*
X125228367Y-79918799D01*
X125223284Y-79917894D01*
X125149452Y-79916992D01*
X125005081Y-79915228D01*
X125005079Y-79915228D01*
X124999911Y-79915165D01*
X124779091Y-79948955D01*
X124566756Y-80018357D01*
X124368607Y-80121507D01*
X124364474Y-80124610D01*
X124364471Y-80124612D01*
X124194100Y-80252530D01*
X124189965Y-80255635D01*
X124164541Y-80282240D01*
X124096280Y-80353671D01*
X124035629Y-80417138D01*
X123928201Y-80574621D01*
X123873293Y-80619621D01*
X123802768Y-80627792D01*
X123739021Y-80596538D01*
X123718324Y-80572054D01*
X123637822Y-80447617D01*
X123637820Y-80447614D01*
X123635014Y-80443277D01*
X123484670Y-80278051D01*
X123480619Y-80274852D01*
X123480615Y-80274848D01*
X123313414Y-80142800D01*
X123313410Y-80142798D01*
X123309359Y-80139598D01*
X123273028Y-80119542D01*
X123257136Y-80110769D01*
X123113789Y-80031638D01*
X123108920Y-80029914D01*
X123108916Y-80029912D01*
X122908087Y-79958795D01*
X122908083Y-79958794D01*
X122903212Y-79957069D01*
X122898119Y-79956162D01*
X122898116Y-79956161D01*
X122688373Y-79918800D01*
X122688367Y-79918799D01*
X122683284Y-79917894D01*
X122609452Y-79916992D01*
X122465081Y-79915228D01*
X122465079Y-79915228D01*
X122459911Y-79915165D01*
X122239091Y-79948955D01*
X122026756Y-80018357D01*
X121828607Y-80121507D01*
X121824474Y-80124610D01*
X121824471Y-80124612D01*
X121654100Y-80252530D01*
X121649965Y-80255635D01*
X121624541Y-80282240D01*
X121556280Y-80353671D01*
X121495629Y-80417138D01*
X121388201Y-80574621D01*
X121333293Y-80619621D01*
X121262768Y-80627792D01*
X121199021Y-80596538D01*
X121178324Y-80572054D01*
X121097822Y-80447617D01*
X121097820Y-80447614D01*
X121095014Y-80443277D01*
X120944670Y-80278051D01*
X120940619Y-80274852D01*
X120940615Y-80274848D01*
X120773414Y-80142800D01*
X120773410Y-80142798D01*
X120769359Y-80139598D01*
X120733028Y-80119542D01*
X120717136Y-80110769D01*
X120573789Y-80031638D01*
X120568920Y-80029914D01*
X120568916Y-80029912D01*
X120368087Y-79958795D01*
X120368083Y-79958794D01*
X120363212Y-79957069D01*
X120358119Y-79956162D01*
X120358116Y-79956161D01*
X120148373Y-79918800D01*
X120148367Y-79918799D01*
X120143284Y-79917894D01*
X120069452Y-79916992D01*
X119925081Y-79915228D01*
X119925079Y-79915228D01*
X119919911Y-79915165D01*
X119699091Y-79948955D01*
X119486756Y-80018357D01*
X119288607Y-80121507D01*
X119284474Y-80124610D01*
X119284471Y-80124612D01*
X119114100Y-80252530D01*
X119109965Y-80255635D01*
X119084541Y-80282240D01*
X119016280Y-80353671D01*
X118955629Y-80417138D01*
X118848201Y-80574621D01*
X118793293Y-80619621D01*
X118722768Y-80627792D01*
X118659021Y-80596538D01*
X118638324Y-80572054D01*
X118557822Y-80447617D01*
X118557820Y-80447614D01*
X118555014Y-80443277D01*
X118404670Y-80278051D01*
X118400619Y-80274852D01*
X118400615Y-80274848D01*
X118233414Y-80142800D01*
X118233410Y-80142798D01*
X118229359Y-80139598D01*
X118193028Y-80119542D01*
X118177136Y-80110769D01*
X118033789Y-80031638D01*
X118028920Y-80029914D01*
X118028916Y-80029912D01*
X117828087Y-79958795D01*
X117828083Y-79958794D01*
X117823212Y-79957069D01*
X117818119Y-79956162D01*
X117818116Y-79956161D01*
X117608373Y-79918800D01*
X117608367Y-79918799D01*
X117603284Y-79917894D01*
X117529452Y-79916992D01*
X117385081Y-79915228D01*
X117385079Y-79915228D01*
X117379911Y-79915165D01*
X117159091Y-79948955D01*
X116946756Y-80018357D01*
X116748607Y-80121507D01*
X116744474Y-80124610D01*
X116744471Y-80124612D01*
X116574100Y-80252530D01*
X116569965Y-80255635D01*
X116544541Y-80282240D01*
X116476280Y-80353671D01*
X116415629Y-80417138D01*
X116308201Y-80574621D01*
X116253293Y-80619621D01*
X116182768Y-80627792D01*
X116119021Y-80596538D01*
X116098324Y-80572054D01*
X116017822Y-80447617D01*
X116017820Y-80447614D01*
X116015014Y-80443277D01*
X115864670Y-80278051D01*
X115860619Y-80274852D01*
X115860615Y-80274848D01*
X115693414Y-80142800D01*
X115693410Y-80142798D01*
X115689359Y-80139598D01*
X115653028Y-80119542D01*
X115637136Y-80110769D01*
X115493789Y-80031638D01*
X115488920Y-80029914D01*
X115488916Y-80029912D01*
X115288087Y-79958795D01*
X115288083Y-79958794D01*
X115283212Y-79957069D01*
X115278119Y-79956162D01*
X115278116Y-79956161D01*
X115068373Y-79918800D01*
X115068367Y-79918799D01*
X115063284Y-79917894D01*
X114989452Y-79916992D01*
X114845081Y-79915228D01*
X114845079Y-79915228D01*
X114839911Y-79915165D01*
X114619091Y-79948955D01*
X114406756Y-80018357D01*
X114208607Y-80121507D01*
X114204474Y-80124610D01*
X114204471Y-80124612D01*
X114034100Y-80252530D01*
X114029965Y-80255635D01*
X114004541Y-80282240D01*
X113936280Y-80353671D01*
X113875629Y-80417138D01*
X113768201Y-80574621D01*
X113713293Y-80619621D01*
X113642768Y-80627792D01*
X113579021Y-80596538D01*
X113558324Y-80572054D01*
X113477822Y-80447617D01*
X113477820Y-80447614D01*
X113475014Y-80443277D01*
X113324670Y-80278051D01*
X113320619Y-80274852D01*
X113320615Y-80274848D01*
X113153414Y-80142800D01*
X113153410Y-80142798D01*
X113149359Y-80139598D01*
X113113028Y-80119542D01*
X113097136Y-80110769D01*
X112953789Y-80031638D01*
X112948920Y-80029914D01*
X112948916Y-80029912D01*
X112748087Y-79958795D01*
X112748083Y-79958794D01*
X112743212Y-79957069D01*
X112738119Y-79956162D01*
X112738116Y-79956161D01*
X112528373Y-79918800D01*
X112528367Y-79918799D01*
X112523284Y-79917894D01*
X112449452Y-79916992D01*
X112305081Y-79915228D01*
X112305079Y-79915228D01*
X112299911Y-79915165D01*
X112079091Y-79948955D01*
X111866756Y-80018357D01*
X111668607Y-80121507D01*
X111664474Y-80124610D01*
X111664471Y-80124612D01*
X111494100Y-80252530D01*
X111489965Y-80255635D01*
X111464541Y-80282240D01*
X111396280Y-80353671D01*
X111335629Y-80417138D01*
X111228201Y-80574621D01*
X111173293Y-80619621D01*
X111102768Y-80627792D01*
X111039021Y-80596538D01*
X111018324Y-80572054D01*
X110937822Y-80447617D01*
X110937820Y-80447614D01*
X110935014Y-80443277D01*
X110784670Y-80278051D01*
X110780619Y-80274852D01*
X110780615Y-80274848D01*
X110613414Y-80142800D01*
X110613410Y-80142798D01*
X110609359Y-80139598D01*
X110573028Y-80119542D01*
X110557136Y-80110769D01*
X110413789Y-80031638D01*
X110408920Y-80029914D01*
X110408916Y-80029912D01*
X110208087Y-79958795D01*
X110208083Y-79958794D01*
X110203212Y-79957069D01*
X110198119Y-79956162D01*
X110198116Y-79956161D01*
X109988373Y-79918800D01*
X109988367Y-79918799D01*
X109983284Y-79917894D01*
X109909452Y-79916992D01*
X109765081Y-79915228D01*
X109765079Y-79915228D01*
X109759911Y-79915165D01*
X109539091Y-79948955D01*
X109326756Y-80018357D01*
X109128607Y-80121507D01*
X109124474Y-80124610D01*
X109124471Y-80124612D01*
X108954100Y-80252530D01*
X108949965Y-80255635D01*
X108924541Y-80282240D01*
X108856280Y-80353671D01*
X108795629Y-80417138D01*
X108688201Y-80574621D01*
X108633293Y-80619621D01*
X108562768Y-80627792D01*
X108499021Y-80596538D01*
X108478324Y-80572054D01*
X108397822Y-80447617D01*
X108397820Y-80447614D01*
X108395014Y-80443277D01*
X108244670Y-80278051D01*
X108240619Y-80274852D01*
X108240615Y-80274848D01*
X108073414Y-80142800D01*
X108073410Y-80142798D01*
X108069359Y-80139598D01*
X108033028Y-80119542D01*
X108017136Y-80110769D01*
X107873789Y-80031638D01*
X107868920Y-80029914D01*
X107868916Y-80029912D01*
X107668087Y-79958795D01*
X107668083Y-79958794D01*
X107663212Y-79957069D01*
X107658119Y-79956162D01*
X107658116Y-79956161D01*
X107448373Y-79918800D01*
X107448367Y-79918799D01*
X107443284Y-79917894D01*
X107369452Y-79916992D01*
X107225081Y-79915228D01*
X107225079Y-79915228D01*
X107219911Y-79915165D01*
X106999091Y-79948955D01*
X106786756Y-80018357D01*
X106588607Y-80121507D01*
X106584474Y-80124610D01*
X106584471Y-80124612D01*
X106414100Y-80252530D01*
X106409965Y-80255635D01*
X106384541Y-80282240D01*
X106316280Y-80353671D01*
X106255629Y-80417138D01*
X106148201Y-80574621D01*
X106093293Y-80619621D01*
X106022768Y-80627792D01*
X105959021Y-80596538D01*
X105938324Y-80572054D01*
X105857822Y-80447617D01*
X105857820Y-80447614D01*
X105855014Y-80443277D01*
X105704670Y-80278051D01*
X105700619Y-80274852D01*
X105700615Y-80274848D01*
X105533414Y-80142800D01*
X105533410Y-80142798D01*
X105529359Y-80139598D01*
X105493028Y-80119542D01*
X105477136Y-80110769D01*
X105333789Y-80031638D01*
X105328920Y-80029914D01*
X105328916Y-80029912D01*
X105128087Y-79958795D01*
X105128083Y-79958794D01*
X105123212Y-79957069D01*
X105118119Y-79956162D01*
X105118116Y-79956161D01*
X104908373Y-79918800D01*
X104908367Y-79918799D01*
X104903284Y-79917894D01*
X104829452Y-79916992D01*
X104685081Y-79915228D01*
X104685079Y-79915228D01*
X104679911Y-79915165D01*
X104459091Y-79948955D01*
X104246756Y-80018357D01*
X104048607Y-80121507D01*
X104044474Y-80124610D01*
X104044471Y-80124612D01*
X103874100Y-80252530D01*
X103869965Y-80255635D01*
X103844541Y-80282240D01*
X103776280Y-80353671D01*
X103715629Y-80417138D01*
X103608201Y-80574621D01*
X103553293Y-80619621D01*
X103482768Y-80627792D01*
X103419021Y-80596538D01*
X103398324Y-80572054D01*
X103317822Y-80447617D01*
X103317820Y-80447614D01*
X103315014Y-80443277D01*
X103164670Y-80278051D01*
X103160619Y-80274852D01*
X103160615Y-80274848D01*
X102993414Y-80142800D01*
X102993410Y-80142798D01*
X102989359Y-80139598D01*
X102953028Y-80119542D01*
X102937136Y-80110769D01*
X102793789Y-80031638D01*
X102788920Y-80029914D01*
X102788916Y-80029912D01*
X102588087Y-79958795D01*
X102588083Y-79958794D01*
X102583212Y-79957069D01*
X102578119Y-79956162D01*
X102578116Y-79956161D01*
X102368373Y-79918800D01*
X102368367Y-79918799D01*
X102363284Y-79917894D01*
X102289452Y-79916992D01*
X102145081Y-79915228D01*
X102145079Y-79915228D01*
X102139911Y-79915165D01*
X101919091Y-79948955D01*
X101706756Y-80018357D01*
X101508607Y-80121507D01*
X101504474Y-80124610D01*
X101504471Y-80124612D01*
X101334100Y-80252530D01*
X101329965Y-80255635D01*
X101304541Y-80282240D01*
X101236280Y-80353671D01*
X101175629Y-80417138D01*
X101068201Y-80574621D01*
X101013293Y-80619621D01*
X100942768Y-80627792D01*
X100879021Y-80596538D01*
X100858324Y-80572054D01*
X100777822Y-80447617D01*
X100777820Y-80447614D01*
X100775014Y-80443277D01*
X100624670Y-80278051D01*
X100620619Y-80274852D01*
X100620615Y-80274848D01*
X100453414Y-80142800D01*
X100453410Y-80142798D01*
X100449359Y-80139598D01*
X100413028Y-80119542D01*
X100397136Y-80110769D01*
X100253789Y-80031638D01*
X100248920Y-80029914D01*
X100248916Y-80029912D01*
X100048087Y-79958795D01*
X100048083Y-79958794D01*
X100043212Y-79957069D01*
X100038119Y-79956162D01*
X100038116Y-79956161D01*
X99828373Y-79918800D01*
X99828367Y-79918799D01*
X99823284Y-79917894D01*
X99749452Y-79916992D01*
X99605081Y-79915228D01*
X99605079Y-79915228D01*
X99599911Y-79915165D01*
X99379091Y-79948955D01*
X99166756Y-80018357D01*
X98968607Y-80121507D01*
X98964474Y-80124610D01*
X98964471Y-80124612D01*
X98794100Y-80252530D01*
X98789965Y-80255635D01*
X98764541Y-80282240D01*
X98696280Y-80353671D01*
X98635629Y-80417138D01*
X98528204Y-80574618D01*
X98527898Y-80575066D01*
X98472987Y-80620069D01*
X98402462Y-80628240D01*
X98338715Y-80596986D01*
X98318018Y-80572502D01*
X98237426Y-80447926D01*
X98231136Y-80439757D01*
X98087806Y-80282240D01*
X98080273Y-80275215D01*
X97913139Y-80143222D01*
X97904552Y-80137517D01*
X97718114Y-80034597D01*
X97708705Y-80030369D01*
X97672076Y-80017398D01*
X97657996Y-80016626D01*
X97655000Y-80022337D01*
X97655000Y-81649000D01*
X97634998Y-81717121D01*
X97581342Y-81763614D01*
X97529000Y-81775000D01*
X96781000Y-81775000D01*
X96712879Y-81754998D01*
X96666386Y-81701342D01*
X96655000Y-81649000D01*
X96655000Y-80027766D01*
X96651027Y-80014235D01*
X96644045Y-80013231D01*
X96631868Y-80017212D01*
X96622359Y-80021209D01*
X96433463Y-80119542D01*
X96424738Y-80125036D01*
X96254433Y-80252905D01*
X96246726Y-80259748D01*
X96099590Y-80413717D01*
X96093109Y-80421722D01*
X95988498Y-80575074D01*
X95933587Y-80620076D01*
X95863062Y-80628247D01*
X95799315Y-80596993D01*
X95778618Y-80572509D01*
X95697822Y-80447617D01*
X95697820Y-80447614D01*
X95695014Y-80443277D01*
X95544670Y-80278051D01*
X95540619Y-80274852D01*
X95540615Y-80274848D01*
X95373414Y-80142800D01*
X95373410Y-80142798D01*
X95369359Y-80139598D01*
X95333028Y-80119542D01*
X95317136Y-80110769D01*
X95173789Y-80031638D01*
X95168920Y-80029914D01*
X95168916Y-80029912D01*
X94968087Y-79958795D01*
X94968083Y-79958794D01*
X94963212Y-79957069D01*
X94958119Y-79956162D01*
X94958116Y-79956161D01*
X94748373Y-79918800D01*
X94748367Y-79918799D01*
X94743284Y-79917894D01*
X94669452Y-79916992D01*
X94525081Y-79915228D01*
X94525079Y-79915228D01*
X94519911Y-79915165D01*
X94299091Y-79948955D01*
X94086756Y-80018357D01*
X93888607Y-80121507D01*
X93884474Y-80124610D01*
X93884471Y-80124612D01*
X93714100Y-80252530D01*
X93709965Y-80255635D01*
X93684541Y-80282240D01*
X93616280Y-80353671D01*
X93555629Y-80417138D01*
X93448201Y-80574621D01*
X93393293Y-80619621D01*
X93322768Y-80627792D01*
X93259021Y-80596538D01*
X93238324Y-80572054D01*
X93157822Y-80447617D01*
X93157820Y-80447614D01*
X93155014Y-80443277D01*
X93004670Y-80278051D01*
X93000619Y-80274852D01*
X93000615Y-80274848D01*
X92833414Y-80142800D01*
X92833410Y-80142798D01*
X92829359Y-80139598D01*
X92793028Y-80119542D01*
X92777136Y-80110769D01*
X92633789Y-80031638D01*
X92628920Y-80029914D01*
X92628916Y-80029912D01*
X92428087Y-79958795D01*
X92428083Y-79958794D01*
X92423212Y-79957069D01*
X92418119Y-79956162D01*
X92418116Y-79956161D01*
X92208373Y-79918800D01*
X92208367Y-79918799D01*
X92203284Y-79917894D01*
X92129452Y-79916992D01*
X91985081Y-79915228D01*
X91985079Y-79915228D01*
X91979911Y-79915165D01*
X91759091Y-79948955D01*
X91546756Y-80018357D01*
X91348607Y-80121507D01*
X91344474Y-80124610D01*
X91344471Y-80124612D01*
X91174100Y-80252530D01*
X91169965Y-80255635D01*
X91144541Y-80282240D01*
X91076280Y-80353671D01*
X91015629Y-80417138D01*
X90889743Y-80601680D01*
X90795688Y-80804305D01*
X90735989Y-81019570D01*
X90712251Y-81241695D01*
X90725110Y-81464715D01*
X90726247Y-81469761D01*
X90726248Y-81469767D01*
X90747275Y-81563069D01*
X90774222Y-81682639D01*
X90858266Y-81889616D01*
X90895685Y-81950678D01*
X90972291Y-82075688D01*
X90974987Y-82080088D01*
X91121250Y-82248938D01*
X91293126Y-82391632D01*
X91363595Y-82432811D01*
X91366445Y-82434476D01*
X91415169Y-82486114D01*
X91428240Y-82555897D01*
X91401509Y-82621669D01*
X91361055Y-82655027D01*
X91348607Y-82661507D01*
X91344474Y-82664610D01*
X91344471Y-82664612D01*
X91220567Y-82757642D01*
X91169965Y-82795635D01*
X91015629Y-82957138D01*
X90889743Y-83141680D01*
X90795688Y-83344305D01*
X90735989Y-83559570D01*
X90712251Y-83781695D01*
X90041409Y-83781695D01*
X90040200Y-78740000D01*
X105131496Y-78740000D01*
X105151458Y-78929928D01*
X105210473Y-79111556D01*
X105305960Y-79276944D01*
X105433747Y-79418866D01*
X105588248Y-79531118D01*
X105594276Y-79533802D01*
X105594278Y-79533803D01*
X105756681Y-79606109D01*
X105762712Y-79608794D01*
X105856113Y-79628647D01*
X105943056Y-79647128D01*
X105943061Y-79647128D01*
X105949513Y-79648500D01*
X106140487Y-79648500D01*
X106146939Y-79647128D01*
X106146944Y-79647128D01*
X106233887Y-79628647D01*
X106327288Y-79608794D01*
X106333319Y-79606109D01*
X106495722Y-79533803D01*
X106495724Y-79533802D01*
X106501752Y-79531118D01*
X106656253Y-79418866D01*
X106784040Y-79276944D01*
X106879527Y-79111556D01*
X106938542Y-78929928D01*
X106958504Y-78740000D01*
X106948298Y-78642892D01*
X106939232Y-78556635D01*
X106939232Y-78556633D01*
X106938542Y-78550072D01*
X106879527Y-78368444D01*
X106873780Y-78358489D01*
X106830767Y-78283990D01*
X106784040Y-78203056D01*
X106760649Y-78177077D01*
X106660675Y-78066045D01*
X106660674Y-78066044D01*
X106656253Y-78061134D01*
X106501752Y-77948882D01*
X106495724Y-77946198D01*
X106495722Y-77946197D01*
X106333319Y-77873891D01*
X106333318Y-77873891D01*
X106327288Y-77871206D01*
X106233888Y-77851353D01*
X106146944Y-77832872D01*
X106146939Y-77832872D01*
X106140487Y-77831500D01*
X105949513Y-77831500D01*
X105943061Y-77832872D01*
X105943056Y-77832872D01*
X105856112Y-77851353D01*
X105762712Y-77871206D01*
X105756682Y-77873891D01*
X105756681Y-77873891D01*
X105594278Y-77946197D01*
X105594276Y-77946198D01*
X105588248Y-77948882D01*
X105433747Y-78061134D01*
X105429326Y-78066044D01*
X105429325Y-78066045D01*
X105329352Y-78177077D01*
X105305960Y-78203056D01*
X105259233Y-78283990D01*
X105216221Y-78358489D01*
X105210473Y-78368444D01*
X105151458Y-78550072D01*
X105150768Y-78556633D01*
X105150768Y-78556635D01*
X105141702Y-78642892D01*
X105131496Y-78740000D01*
X90040200Y-78740000D01*
X90039889Y-77441695D01*
X113572251Y-77441695D01*
X113572548Y-77446848D01*
X113572548Y-77446851D01*
X113578011Y-77541590D01*
X113585110Y-77664715D01*
X113586247Y-77669761D01*
X113586248Y-77669767D01*
X113606119Y-77757939D01*
X113634222Y-77882639D01*
X113718266Y-78089616D01*
X113769019Y-78172438D01*
X113832291Y-78275688D01*
X113834987Y-78280088D01*
X113981250Y-78448938D01*
X114153126Y-78591632D01*
X114346000Y-78704338D01*
X114554692Y-78784030D01*
X114559760Y-78785061D01*
X114559763Y-78785062D01*
X114667017Y-78806883D01*
X114773597Y-78828567D01*
X114778772Y-78828757D01*
X114778774Y-78828757D01*
X114991673Y-78836564D01*
X114991677Y-78836564D01*
X114996837Y-78836753D01*
X115001957Y-78836097D01*
X115001959Y-78836097D01*
X115213288Y-78809025D01*
X115213289Y-78809025D01*
X115218416Y-78808368D01*
X115223366Y-78806883D01*
X115427429Y-78745661D01*
X115427434Y-78745659D01*
X115432384Y-78744174D01*
X115632994Y-78645896D01*
X115814860Y-78516173D01*
X115973096Y-78358489D01*
X116032594Y-78275689D01*
X116103453Y-78177077D01*
X116104776Y-78178028D01*
X116151645Y-78134857D01*
X116221580Y-78122625D01*
X116287026Y-78150144D01*
X116314875Y-78181994D01*
X116374987Y-78280088D01*
X116521250Y-78448938D01*
X116693126Y-78591632D01*
X116886000Y-78704338D01*
X117094692Y-78784030D01*
X117099760Y-78785061D01*
X117099763Y-78785062D01*
X117207017Y-78806883D01*
X117313597Y-78828567D01*
X117318772Y-78828757D01*
X117318774Y-78828757D01*
X117531673Y-78836564D01*
X117531677Y-78836564D01*
X117536837Y-78836753D01*
X117541957Y-78836097D01*
X117541959Y-78836097D01*
X117753288Y-78809025D01*
X117753289Y-78809025D01*
X117758416Y-78808368D01*
X117763366Y-78806883D01*
X117967429Y-78745661D01*
X117967434Y-78745659D01*
X117972384Y-78744174D01*
X118172994Y-78645896D01*
X118354860Y-78516173D01*
X118513096Y-78358489D01*
X118572594Y-78275689D01*
X118643453Y-78177077D01*
X118644776Y-78178028D01*
X118691645Y-78134857D01*
X118761580Y-78122625D01*
X118827026Y-78150144D01*
X118854875Y-78181994D01*
X118914987Y-78280088D01*
X119061250Y-78448938D01*
X119233126Y-78591632D01*
X119426000Y-78704338D01*
X119634692Y-78784030D01*
X119639760Y-78785061D01*
X119639763Y-78785062D01*
X119747017Y-78806883D01*
X119853597Y-78828567D01*
X119858772Y-78828757D01*
X119858774Y-78828757D01*
X120071673Y-78836564D01*
X120071677Y-78836564D01*
X120076837Y-78836753D01*
X120081957Y-78836097D01*
X120081959Y-78836097D01*
X120293288Y-78809025D01*
X120293289Y-78809025D01*
X120298416Y-78808368D01*
X120303366Y-78806883D01*
X120507429Y-78745661D01*
X120507434Y-78745659D01*
X120512384Y-78744174D01*
X120712994Y-78645896D01*
X120894860Y-78516173D01*
X121053096Y-78358489D01*
X121112594Y-78275689D01*
X121183453Y-78177077D01*
X121184776Y-78178028D01*
X121231645Y-78134857D01*
X121301580Y-78122625D01*
X121367026Y-78150144D01*
X121394875Y-78181994D01*
X121454987Y-78280088D01*
X121601250Y-78448938D01*
X121773126Y-78591632D01*
X121966000Y-78704338D01*
X122174692Y-78784030D01*
X122179760Y-78785061D01*
X122179763Y-78785062D01*
X122287017Y-78806883D01*
X122393597Y-78828567D01*
X122398772Y-78828757D01*
X122398774Y-78828757D01*
X122611673Y-78836564D01*
X122611677Y-78836564D01*
X122616837Y-78836753D01*
X122621957Y-78836097D01*
X122621959Y-78836097D01*
X122833288Y-78809025D01*
X122833289Y-78809025D01*
X122838416Y-78808368D01*
X122843366Y-78806883D01*
X123047429Y-78745661D01*
X123047434Y-78745659D01*
X123052384Y-78744174D01*
X123252994Y-78645896D01*
X123434860Y-78516173D01*
X123593096Y-78358489D01*
X123652594Y-78275689D01*
X123723453Y-78177077D01*
X123724776Y-78178028D01*
X123771645Y-78134857D01*
X123841580Y-78122625D01*
X123907026Y-78150144D01*
X123934875Y-78181994D01*
X123994987Y-78280088D01*
X124141250Y-78448938D01*
X124313126Y-78591632D01*
X124506000Y-78704338D01*
X124714692Y-78784030D01*
X124719760Y-78785061D01*
X124719763Y-78785062D01*
X124827017Y-78806883D01*
X124933597Y-78828567D01*
X124938772Y-78828757D01*
X124938774Y-78828757D01*
X125151673Y-78836564D01*
X125151677Y-78836564D01*
X125156837Y-78836753D01*
X125161957Y-78836097D01*
X125161959Y-78836097D01*
X125373288Y-78809025D01*
X125373289Y-78809025D01*
X125378416Y-78808368D01*
X125383366Y-78806883D01*
X125587429Y-78745661D01*
X125587434Y-78745659D01*
X125592384Y-78744174D01*
X125792994Y-78645896D01*
X125974860Y-78516173D01*
X126133096Y-78358489D01*
X126192594Y-78275689D01*
X126263453Y-78177077D01*
X126264776Y-78178028D01*
X126311645Y-78134857D01*
X126381580Y-78122625D01*
X126447026Y-78150144D01*
X126474875Y-78181994D01*
X126534987Y-78280088D01*
X126681250Y-78448938D01*
X126853126Y-78591632D01*
X127046000Y-78704338D01*
X127254692Y-78784030D01*
X127259760Y-78785061D01*
X127259763Y-78785062D01*
X127367017Y-78806883D01*
X127473597Y-78828567D01*
X127478772Y-78828757D01*
X127478774Y-78828757D01*
X127691673Y-78836564D01*
X127691677Y-78836564D01*
X127696837Y-78836753D01*
X127701957Y-78836097D01*
X127701959Y-78836097D01*
X127913288Y-78809025D01*
X127913289Y-78809025D01*
X127918416Y-78808368D01*
X127923366Y-78806883D01*
X128127429Y-78745661D01*
X128127434Y-78745659D01*
X128132384Y-78744174D01*
X128332994Y-78645896D01*
X128514860Y-78516173D01*
X128673096Y-78358489D01*
X128732594Y-78275689D01*
X128800435Y-78181277D01*
X128803453Y-78177077D01*
X128824320Y-78134857D01*
X128900136Y-77981453D01*
X128900137Y-77981451D01*
X128902430Y-77976811D01*
X128967370Y-77763069D01*
X128996529Y-77541590D01*
X128998156Y-77475000D01*
X128979852Y-77252361D01*
X128925431Y-77035702D01*
X128836354Y-76830840D01*
X128715014Y-76643277D01*
X128564670Y-76478051D01*
X128560619Y-76474852D01*
X128560615Y-76474848D01*
X128393414Y-76342800D01*
X128393410Y-76342798D01*
X128389359Y-76339598D01*
X128348053Y-76316796D01*
X128298084Y-76266364D01*
X128283312Y-76196921D01*
X128308428Y-76130516D01*
X128335780Y-76103909D01*
X128379603Y-76072650D01*
X128514860Y-75976173D01*
X128673096Y-75818489D01*
X128732594Y-75735689D01*
X128800435Y-75641277D01*
X128803453Y-75637077D01*
X128824320Y-75594857D01*
X128900136Y-75441453D01*
X128900137Y-75441451D01*
X128902430Y-75436811D01*
X128967370Y-75223069D01*
X128996529Y-75001590D01*
X128997112Y-74977749D01*
X128998074Y-74938365D01*
X128998074Y-74938361D01*
X128998156Y-74935000D01*
X128979852Y-74712361D01*
X128925431Y-74495702D01*
X128836354Y-74290840D01*
X128715014Y-74103277D01*
X128564670Y-73938051D01*
X128560619Y-73934852D01*
X128560615Y-73934848D01*
X128393414Y-73802800D01*
X128393410Y-73802798D01*
X128389359Y-73799598D01*
X128193789Y-73691638D01*
X128188920Y-73689914D01*
X128188916Y-73689912D01*
X127988087Y-73618795D01*
X127988083Y-73618794D01*
X127983212Y-73617069D01*
X127978119Y-73616162D01*
X127978116Y-73616161D01*
X127768373Y-73578800D01*
X127768367Y-73578799D01*
X127763284Y-73577894D01*
X127689452Y-73576992D01*
X127545081Y-73575228D01*
X127545079Y-73575228D01*
X127539911Y-73575165D01*
X127319091Y-73608955D01*
X127106756Y-73678357D01*
X126908607Y-73781507D01*
X126904474Y-73784610D01*
X126904471Y-73784612D01*
X126757227Y-73895166D01*
X126729965Y-73915635D01*
X126575629Y-74077138D01*
X126468201Y-74234621D01*
X126413293Y-74279621D01*
X126342768Y-74287792D01*
X126279021Y-74256538D01*
X126258324Y-74232054D01*
X126177822Y-74107617D01*
X126177820Y-74107614D01*
X126175014Y-74103277D01*
X126024670Y-73938051D01*
X126020619Y-73934852D01*
X126020615Y-73934848D01*
X125853414Y-73802800D01*
X125853410Y-73802798D01*
X125849359Y-73799598D01*
X125653789Y-73691638D01*
X125648920Y-73689914D01*
X125648916Y-73689912D01*
X125448087Y-73618795D01*
X125448083Y-73618794D01*
X125443212Y-73617069D01*
X125438119Y-73616162D01*
X125438116Y-73616161D01*
X125228373Y-73578800D01*
X125228367Y-73578799D01*
X125223284Y-73577894D01*
X125149452Y-73576992D01*
X125005081Y-73575228D01*
X125005079Y-73575228D01*
X124999911Y-73575165D01*
X124779091Y-73608955D01*
X124566756Y-73678357D01*
X124368607Y-73781507D01*
X124364474Y-73784610D01*
X124364471Y-73784612D01*
X124217227Y-73895166D01*
X124189965Y-73915635D01*
X124035629Y-74077138D01*
X123928201Y-74234621D01*
X123873293Y-74279621D01*
X123802768Y-74287792D01*
X123739021Y-74256538D01*
X123718324Y-74232054D01*
X123637822Y-74107617D01*
X123637820Y-74107614D01*
X123635014Y-74103277D01*
X123484670Y-73938051D01*
X123480619Y-73934852D01*
X123480615Y-73934848D01*
X123313414Y-73802800D01*
X123313410Y-73802798D01*
X123309359Y-73799598D01*
X123113789Y-73691638D01*
X123108920Y-73689914D01*
X123108916Y-73689912D01*
X122908087Y-73618795D01*
X122908083Y-73618794D01*
X122903212Y-73617069D01*
X122898119Y-73616162D01*
X122898116Y-73616161D01*
X122688373Y-73578800D01*
X122688367Y-73578799D01*
X122683284Y-73577894D01*
X122609452Y-73576992D01*
X122465081Y-73575228D01*
X122465079Y-73575228D01*
X122459911Y-73575165D01*
X122239091Y-73608955D01*
X122026756Y-73678357D01*
X121828607Y-73781507D01*
X121824474Y-73784610D01*
X121824471Y-73784612D01*
X121677227Y-73895166D01*
X121649965Y-73915635D01*
X121495629Y-74077138D01*
X121388201Y-74234621D01*
X121333293Y-74279621D01*
X121262768Y-74287792D01*
X121199021Y-74256538D01*
X121178324Y-74232054D01*
X121097822Y-74107617D01*
X121097820Y-74107614D01*
X121095014Y-74103277D01*
X120944670Y-73938051D01*
X120940619Y-73934852D01*
X120940615Y-73934848D01*
X120773414Y-73802800D01*
X120773410Y-73802798D01*
X120769359Y-73799598D01*
X120573789Y-73691638D01*
X120568920Y-73689914D01*
X120568916Y-73689912D01*
X120368087Y-73618795D01*
X120368083Y-73618794D01*
X120363212Y-73617069D01*
X120358119Y-73616162D01*
X120358116Y-73616161D01*
X120148373Y-73578800D01*
X120148367Y-73578799D01*
X120143284Y-73577894D01*
X120069452Y-73576992D01*
X119925081Y-73575228D01*
X119925079Y-73575228D01*
X119919911Y-73575165D01*
X119699091Y-73608955D01*
X119486756Y-73678357D01*
X119288607Y-73781507D01*
X119284474Y-73784610D01*
X119284471Y-73784612D01*
X119137227Y-73895166D01*
X119109965Y-73915635D01*
X118955629Y-74077138D01*
X118848201Y-74234621D01*
X118793293Y-74279621D01*
X118722768Y-74287792D01*
X118659021Y-74256538D01*
X118638324Y-74232054D01*
X118557822Y-74107617D01*
X118557820Y-74107614D01*
X118555014Y-74103277D01*
X118404670Y-73938051D01*
X118400619Y-73934852D01*
X118400615Y-73934848D01*
X118233414Y-73802800D01*
X118233410Y-73802798D01*
X118229359Y-73799598D01*
X118033789Y-73691638D01*
X118028920Y-73689914D01*
X118028916Y-73689912D01*
X117828087Y-73618795D01*
X117828083Y-73618794D01*
X117823212Y-73617069D01*
X117818119Y-73616162D01*
X117818116Y-73616161D01*
X117608373Y-73578800D01*
X117608367Y-73578799D01*
X117603284Y-73577894D01*
X117529452Y-73576992D01*
X117385081Y-73575228D01*
X117385079Y-73575228D01*
X117379911Y-73575165D01*
X117159091Y-73608955D01*
X116946756Y-73678357D01*
X116748607Y-73781507D01*
X116744474Y-73784610D01*
X116744471Y-73784612D01*
X116597227Y-73895166D01*
X116569965Y-73915635D01*
X116415629Y-74077138D01*
X116308201Y-74234621D01*
X116253293Y-74279621D01*
X116182768Y-74287792D01*
X116119021Y-74256538D01*
X116098324Y-74232054D01*
X116017822Y-74107617D01*
X116017820Y-74107614D01*
X116015014Y-74103277D01*
X115864670Y-73938051D01*
X115860619Y-73934852D01*
X115860615Y-73934848D01*
X115693414Y-73802800D01*
X115693410Y-73802798D01*
X115689359Y-73799598D01*
X115493789Y-73691638D01*
X115488920Y-73689914D01*
X115488916Y-73689912D01*
X115288087Y-73618795D01*
X115288083Y-73618794D01*
X115283212Y-73617069D01*
X115278119Y-73616162D01*
X115278116Y-73616161D01*
X115068373Y-73578800D01*
X115068367Y-73578799D01*
X115063284Y-73577894D01*
X114989452Y-73576992D01*
X114845081Y-73575228D01*
X114845079Y-73575228D01*
X114839911Y-73575165D01*
X114619091Y-73608955D01*
X114406756Y-73678357D01*
X114208607Y-73781507D01*
X114204474Y-73784610D01*
X114204471Y-73784612D01*
X114057227Y-73895166D01*
X114029965Y-73915635D01*
X113875629Y-74077138D01*
X113749743Y-74261680D01*
X113655688Y-74464305D01*
X113595989Y-74679570D01*
X113572251Y-74901695D01*
X113572548Y-74906848D01*
X113572548Y-74906851D01*
X113583039Y-75088803D01*
X113585110Y-75124715D01*
X113586247Y-75129761D01*
X113586248Y-75129767D01*
X113600599Y-75193444D01*
X113634222Y-75342639D01*
X113718266Y-75549616D01*
X113769019Y-75632438D01*
X113832291Y-75735688D01*
X113834987Y-75740088D01*
X113981250Y-75908938D01*
X114153126Y-76051632D01*
X114223595Y-76092811D01*
X114226445Y-76094476D01*
X114275169Y-76146114D01*
X114288240Y-76215897D01*
X114261509Y-76281669D01*
X114221055Y-76315027D01*
X114208607Y-76321507D01*
X114204474Y-76324610D01*
X114204471Y-76324612D01*
X114057227Y-76435166D01*
X114029965Y-76455635D01*
X113875629Y-76617138D01*
X113749743Y-76801680D01*
X113655688Y-77004305D01*
X113595989Y-77219570D01*
X113572251Y-77441695D01*
X90039889Y-77441695D01*
X90038830Y-73025000D01*
X102591496Y-73025000D01*
X102592186Y-73031565D01*
X102608187Y-73183803D01*
X102611458Y-73214928D01*
X102670473Y-73396556D01*
X102765960Y-73561944D01*
X102770378Y-73566851D01*
X102770379Y-73566852D01*
X102881183Y-73689912D01*
X102893747Y-73703866D01*
X103048248Y-73816118D01*
X103054276Y-73818802D01*
X103054278Y-73818803D01*
X103216681Y-73891109D01*
X103222712Y-73893794D01*
X103316112Y-73913647D01*
X103403056Y-73932128D01*
X103403061Y-73932128D01*
X103409513Y-73933500D01*
X103600487Y-73933500D01*
X103606939Y-73932128D01*
X103606944Y-73932128D01*
X103652576Y-73922428D01*
X103723367Y-73927830D01*
X103779999Y-73970647D01*
X103804493Y-74037284D01*
X103798606Y-74084610D01*
X103793998Y-74098791D01*
X103793996Y-74098798D01*
X103791958Y-74105072D01*
X103771996Y-74295000D01*
X103791958Y-74484928D01*
X103850973Y-74666556D01*
X103854276Y-74672278D01*
X103854277Y-74672279D01*
X103868091Y-74696206D01*
X103946460Y-74831944D01*
X104074247Y-74973866D01*
X104228748Y-75086118D01*
X104234776Y-75088802D01*
X104234778Y-75088803D01*
X104397181Y-75161109D01*
X104403212Y-75163794D01*
X104487622Y-75181736D01*
X104583556Y-75202128D01*
X104583561Y-75202128D01*
X104590013Y-75203500D01*
X104780987Y-75203500D01*
X104787439Y-75202128D01*
X104787444Y-75202128D01*
X104883378Y-75181736D01*
X104967788Y-75163794D01*
X104990714Y-75153587D01*
X105108885Y-75100974D01*
X105179252Y-75091540D01*
X105243549Y-75121647D01*
X105281363Y-75181736D01*
X105279967Y-75255015D01*
X105240958Y-75375072D01*
X105220996Y-75565000D01*
X105221686Y-75571565D01*
X105228572Y-75637077D01*
X105240958Y-75754928D01*
X105299973Y-75936556D01*
X105395460Y-76101944D01*
X105399878Y-76106851D01*
X105399879Y-76106852D01*
X105512237Y-76231638D01*
X105523247Y-76243866D01*
X105554213Y-76266364D01*
X105651578Y-76337104D01*
X105677748Y-76356118D01*
X105683776Y-76358802D01*
X105683778Y-76358803D01*
X105846181Y-76431109D01*
X105852212Y-76433794D01*
X105945613Y-76453647D01*
X106032556Y-76472128D01*
X106032561Y-76472128D01*
X106039013Y-76473500D01*
X106229987Y-76473500D01*
X106236439Y-76472128D01*
X106236444Y-76472128D01*
X106323387Y-76453647D01*
X106416788Y-76433794D01*
X106422819Y-76431109D01*
X106585222Y-76358803D01*
X106585224Y-76358802D01*
X106591252Y-76356118D01*
X106617423Y-76337104D01*
X106714787Y-76266364D01*
X106745753Y-76243866D01*
X106756763Y-76231638D01*
X106869121Y-76106852D01*
X106869122Y-76106851D01*
X106873540Y-76101944D01*
X106969027Y-75936556D01*
X107028042Y-75754928D01*
X107040429Y-75637077D01*
X107047314Y-75571565D01*
X107048004Y-75565000D01*
X107028042Y-75375072D01*
X107006129Y-75307630D01*
X107004102Y-75236662D01*
X107040764Y-75175864D01*
X107074714Y-75153587D01*
X107220219Y-75088805D01*
X107220226Y-75088801D01*
X107226252Y-75086118D01*
X107380753Y-74973866D01*
X107508540Y-74831944D01*
X107586909Y-74696206D01*
X107600723Y-74672279D01*
X107600724Y-74672278D01*
X107604027Y-74666556D01*
X107663042Y-74484928D01*
X107683004Y-74295000D01*
X107663042Y-74105072D01*
X107604027Y-73923444D01*
X107599519Y-73915635D01*
X107532524Y-73799598D01*
X107508540Y-73758056D01*
X107463244Y-73707749D01*
X107385175Y-73621045D01*
X107385174Y-73621044D01*
X107380753Y-73616134D01*
X107226252Y-73503882D01*
X107220224Y-73501198D01*
X107220222Y-73501197D01*
X107057819Y-73428891D01*
X107057818Y-73428891D01*
X107051788Y-73426206D01*
X106939221Y-73402279D01*
X106871444Y-73387872D01*
X106871439Y-73387872D01*
X106864987Y-73386500D01*
X106674013Y-73386500D01*
X106667561Y-73387872D01*
X106667556Y-73387872D01*
X106599779Y-73402279D01*
X106487212Y-73426206D01*
X106481182Y-73428891D01*
X106481181Y-73428891D01*
X106318778Y-73501197D01*
X106318776Y-73501198D01*
X106312748Y-73503882D01*
X106158247Y-73616134D01*
X106153826Y-73621044D01*
X106153825Y-73621045D01*
X106075757Y-73707749D01*
X106030460Y-73758056D01*
X106006476Y-73799598D01*
X105939482Y-73915635D01*
X105934973Y-73923444D01*
X105875958Y-74105072D01*
X105855996Y-74295000D01*
X105875958Y-74484928D01*
X105877997Y-74491202D01*
X105877998Y-74491206D01*
X105897871Y-74552370D01*
X105899898Y-74623338D01*
X105863236Y-74684136D01*
X105829286Y-74706413D01*
X105711114Y-74759026D01*
X105640747Y-74768460D01*
X105576450Y-74738353D01*
X105538637Y-74678264D01*
X105540033Y-74604985D01*
X105579042Y-74484928D01*
X105599004Y-74295000D01*
X105579042Y-74105072D01*
X105520027Y-73923444D01*
X105515519Y-73915635D01*
X105448524Y-73799598D01*
X105424540Y-73758056D01*
X105379244Y-73707749D01*
X105301175Y-73621045D01*
X105301174Y-73621044D01*
X105296753Y-73616134D01*
X105142252Y-73503882D01*
X105136224Y-73501198D01*
X105136222Y-73501197D01*
X104973819Y-73428891D01*
X104973818Y-73428891D01*
X104967788Y-73426206D01*
X104855221Y-73402279D01*
X104787444Y-73387872D01*
X104787439Y-73387872D01*
X104780987Y-73386500D01*
X104590013Y-73386500D01*
X104583561Y-73387872D01*
X104583556Y-73387872D01*
X104537924Y-73397572D01*
X104467133Y-73392170D01*
X104410501Y-73349353D01*
X104386007Y-73282716D01*
X104391894Y-73235390D01*
X104396502Y-73221209D01*
X104396504Y-73221202D01*
X104398542Y-73214928D01*
X104401814Y-73183803D01*
X104417814Y-73031565D01*
X104418504Y-73025000D01*
X104407597Y-72921226D01*
X104399232Y-72841635D01*
X104399232Y-72841633D01*
X104398542Y-72835072D01*
X104339527Y-72653444D01*
X104244040Y-72488056D01*
X104198744Y-72437749D01*
X104120675Y-72351045D01*
X104120674Y-72351044D01*
X104116253Y-72346134D01*
X103961752Y-72233882D01*
X103955724Y-72231198D01*
X103955722Y-72231197D01*
X103793319Y-72158891D01*
X103793318Y-72158891D01*
X103787288Y-72156206D01*
X103674721Y-72132279D01*
X103606944Y-72117872D01*
X103606939Y-72117872D01*
X103600487Y-72116500D01*
X103409513Y-72116500D01*
X103403061Y-72117872D01*
X103403056Y-72117872D01*
X103335279Y-72132279D01*
X103222712Y-72156206D01*
X103216682Y-72158891D01*
X103216681Y-72158891D01*
X103054278Y-72231197D01*
X103054276Y-72231198D01*
X103048248Y-72233882D01*
X102893747Y-72346134D01*
X102889326Y-72351044D01*
X102889325Y-72351045D01*
X102811257Y-72437749D01*
X102765960Y-72488056D01*
X102670473Y-72653444D01*
X102611458Y-72835072D01*
X102610768Y-72841633D01*
X102610768Y-72841635D01*
X102602403Y-72921226D01*
X102591496Y-73025000D01*
X90038830Y-73025000D01*
X90038525Y-71755000D01*
X94971496Y-71755000D01*
X94991458Y-71944928D01*
X95050473Y-72126556D01*
X95145960Y-72291944D01*
X95150378Y-72296851D01*
X95150379Y-72296852D01*
X95194753Y-72346134D01*
X95273747Y-72433866D01*
X95428248Y-72546118D01*
X95434276Y-72548802D01*
X95434278Y-72548803D01*
X95596681Y-72621109D01*
X95602712Y-72623794D01*
X95696113Y-72643647D01*
X95783056Y-72662128D01*
X95783061Y-72662128D01*
X95789513Y-72663500D01*
X95980487Y-72663500D01*
X95986939Y-72662128D01*
X95986944Y-72662128D01*
X96073887Y-72643647D01*
X96167288Y-72623794D01*
X96173319Y-72621109D01*
X96335722Y-72548803D01*
X96335724Y-72548802D01*
X96341752Y-72546118D01*
X96496253Y-72433866D01*
X96575247Y-72346134D01*
X96619621Y-72296852D01*
X96619622Y-72296851D01*
X96624040Y-72291944D01*
X96719527Y-72126556D01*
X96778542Y-71944928D01*
X96798504Y-71755000D01*
X96791220Y-71685697D01*
X96779232Y-71571635D01*
X96779232Y-71571633D01*
X96778542Y-71565072D01*
X96719527Y-71383444D01*
X96624040Y-71218056D01*
X96578744Y-71167749D01*
X96500675Y-71081045D01*
X96500674Y-71081044D01*
X96496253Y-71076134D01*
X96341752Y-70963882D01*
X96335724Y-70961198D01*
X96335722Y-70961197D01*
X96173319Y-70888891D01*
X96173318Y-70888891D01*
X96167288Y-70886206D01*
X96054721Y-70862279D01*
X95986944Y-70847872D01*
X95986939Y-70847872D01*
X95980487Y-70846500D01*
X95789513Y-70846500D01*
X95783061Y-70847872D01*
X95783056Y-70847872D01*
X95715279Y-70862279D01*
X95602712Y-70886206D01*
X95596682Y-70888891D01*
X95596681Y-70888891D01*
X95434278Y-70961197D01*
X95434276Y-70961198D01*
X95428248Y-70963882D01*
X95273747Y-71076134D01*
X95269326Y-71081044D01*
X95269325Y-71081045D01*
X95191257Y-71167749D01*
X95145960Y-71218056D01*
X95050473Y-71383444D01*
X94991458Y-71565072D01*
X94990768Y-71571633D01*
X94990768Y-71571635D01*
X94978780Y-71685697D01*
X94971496Y-71755000D01*
X90038525Y-71755000D01*
X90038220Y-70485000D01*
X98146496Y-70485000D01*
X98147186Y-70491565D01*
X98164012Y-70651652D01*
X98166458Y-70674928D01*
X98225473Y-70856556D01*
X98320960Y-71021944D01*
X98325378Y-71026851D01*
X98325379Y-71026852D01*
X98369753Y-71076134D01*
X98448747Y-71163866D01*
X98603248Y-71276118D01*
X98609276Y-71278802D01*
X98609278Y-71278803D01*
X98771681Y-71351109D01*
X98777712Y-71353794D01*
X98866676Y-71372704D01*
X98958056Y-71392128D01*
X98958061Y-71392128D01*
X98964513Y-71393500D01*
X99155487Y-71393500D01*
X99161939Y-71392128D01*
X99161944Y-71392128D01*
X99253324Y-71372704D01*
X99342288Y-71353794D01*
X99348319Y-71351109D01*
X99510722Y-71278803D01*
X99510724Y-71278802D01*
X99516752Y-71276118D01*
X99671253Y-71163866D01*
X99750247Y-71076134D01*
X99794621Y-71026852D01*
X99794622Y-71026851D01*
X99799040Y-71021944D01*
X99894527Y-70856556D01*
X99953542Y-70674928D01*
X99955989Y-70651652D01*
X99972814Y-70491565D01*
X99973504Y-70485000D01*
X99956172Y-70320097D01*
X99954232Y-70301635D01*
X99954232Y-70301633D01*
X99953542Y-70295072D01*
X99920318Y-70192819D01*
X99918291Y-70121851D01*
X99954953Y-70061054D01*
X99988902Y-70038777D01*
X100056214Y-70008807D01*
X100056221Y-70008803D01*
X100062252Y-70006118D01*
X100216753Y-69893866D01*
X100295747Y-69806134D01*
X100340121Y-69756852D01*
X100340122Y-69756851D01*
X100344540Y-69751944D01*
X100440027Y-69586556D01*
X100499042Y-69404928D01*
X100502314Y-69373803D01*
X100518314Y-69221565D01*
X100519004Y-69215000D01*
X104496496Y-69215000D01*
X104497186Y-69221565D01*
X104513187Y-69373803D01*
X104516458Y-69404928D01*
X104575473Y-69586556D01*
X104670960Y-69751944D01*
X104675378Y-69756851D01*
X104675379Y-69756852D01*
X104719753Y-69806134D01*
X104798747Y-69893866D01*
X104953248Y-70006118D01*
X104959276Y-70008802D01*
X104959278Y-70008803D01*
X105121681Y-70081109D01*
X105127712Y-70083794D01*
X105221112Y-70103647D01*
X105308056Y-70122128D01*
X105308061Y-70122128D01*
X105314513Y-70123500D01*
X105505487Y-70123500D01*
X105511939Y-70122128D01*
X105511944Y-70122128D01*
X105598888Y-70103647D01*
X105692288Y-70083794D01*
X105698319Y-70081109D01*
X105860722Y-70008803D01*
X105860724Y-70008802D01*
X105866752Y-70006118D01*
X106021253Y-69893866D01*
X106100247Y-69806134D01*
X106144621Y-69756852D01*
X106144622Y-69756851D01*
X106149040Y-69751944D01*
X106244527Y-69586556D01*
X106303542Y-69404928D01*
X106306814Y-69373803D01*
X106322814Y-69221565D01*
X106323504Y-69215000D01*
X106310944Y-69095496D01*
X106304232Y-69031635D01*
X106304232Y-69031633D01*
X106303542Y-69025072D01*
X106244527Y-68843444D01*
X106149040Y-68678056D01*
X106103744Y-68627749D01*
X106025675Y-68541045D01*
X106025674Y-68541044D01*
X106021253Y-68536134D01*
X105866752Y-68423882D01*
X105860724Y-68421198D01*
X105860722Y-68421197D01*
X105698319Y-68348891D01*
X105698318Y-68348891D01*
X105692288Y-68346206D01*
X105579721Y-68322279D01*
X105511944Y-68307872D01*
X105511939Y-68307872D01*
X105505487Y-68306500D01*
X105314513Y-68306500D01*
X105308061Y-68307872D01*
X105308056Y-68307872D01*
X105240279Y-68322279D01*
X105127712Y-68346206D01*
X105121682Y-68348891D01*
X105121681Y-68348891D01*
X104959278Y-68421197D01*
X104959276Y-68421198D01*
X104953248Y-68423882D01*
X104798747Y-68536134D01*
X104794326Y-68541044D01*
X104794325Y-68541045D01*
X104716257Y-68627749D01*
X104670960Y-68678056D01*
X104575473Y-68843444D01*
X104516458Y-69025072D01*
X104515768Y-69031633D01*
X104515768Y-69031635D01*
X104509056Y-69095496D01*
X104496496Y-69215000D01*
X100519004Y-69215000D01*
X100506444Y-69095496D01*
X100499732Y-69031635D01*
X100499732Y-69031633D01*
X100499042Y-69025072D01*
X100440027Y-68843444D01*
X100344540Y-68678056D01*
X100299244Y-68627749D01*
X100221175Y-68541045D01*
X100221174Y-68541044D01*
X100216753Y-68536134D01*
X100062252Y-68423882D01*
X100056224Y-68421198D01*
X100056222Y-68421197D01*
X99893819Y-68348891D01*
X99893818Y-68348891D01*
X99887788Y-68346206D01*
X99775221Y-68322279D01*
X99707444Y-68307872D01*
X99707439Y-68307872D01*
X99700987Y-68306500D01*
X99510013Y-68306500D01*
X99503561Y-68307872D01*
X99503556Y-68307872D01*
X99435779Y-68322279D01*
X99323212Y-68346206D01*
X99317182Y-68348891D01*
X99317181Y-68348891D01*
X99154778Y-68421197D01*
X99154776Y-68421198D01*
X99148748Y-68423882D01*
X98994247Y-68536134D01*
X98989826Y-68541044D01*
X98989825Y-68541045D01*
X98911757Y-68627749D01*
X98866460Y-68678056D01*
X98770973Y-68843444D01*
X98711958Y-69025072D01*
X98711268Y-69031633D01*
X98711268Y-69031635D01*
X98704556Y-69095496D01*
X98691996Y-69215000D01*
X98692686Y-69221565D01*
X98708687Y-69373803D01*
X98711958Y-69404928D01*
X98713998Y-69411206D01*
X98745182Y-69507181D01*
X98747209Y-69578149D01*
X98710547Y-69638946D01*
X98676598Y-69661223D01*
X98609286Y-69691193D01*
X98609281Y-69691196D01*
X98603248Y-69693882D01*
X98448747Y-69806134D01*
X98444326Y-69811044D01*
X98444325Y-69811045D01*
X98366257Y-69897749D01*
X98320960Y-69948056D01*
X98225473Y-70113444D01*
X98166458Y-70295072D01*
X98165768Y-70301633D01*
X98165768Y-70301635D01*
X98163828Y-70320097D01*
X98146496Y-70485000D01*
X90038220Y-70485000D01*
X90036241Y-62230000D01*
X95606496Y-62230000D01*
X95607186Y-62236565D01*
X95625241Y-62408345D01*
X95626458Y-62419928D01*
X95685473Y-62601556D01*
X95780960Y-62766944D01*
X95785378Y-62771851D01*
X95785379Y-62771852D01*
X95861546Y-62856444D01*
X95908747Y-62908866D01*
X96063248Y-63021118D01*
X96069276Y-63023802D01*
X96069278Y-63023803D01*
X96211934Y-63087317D01*
X96266030Y-63133297D01*
X96286679Y-63201224D01*
X96267327Y-63269532D01*
X96211933Y-63317531D01*
X96158781Y-63341195D01*
X96158774Y-63341199D01*
X96152748Y-63343882D01*
X95998247Y-63456134D01*
X95993826Y-63461044D01*
X95993825Y-63461045D01*
X95915757Y-63547749D01*
X95870460Y-63598056D01*
X95774973Y-63763444D01*
X95715958Y-63945072D01*
X95715268Y-63951633D01*
X95715268Y-63951635D01*
X95706903Y-64031226D01*
X95695996Y-64135000D01*
X95696686Y-64141565D01*
X95712687Y-64293803D01*
X95715958Y-64324928D01*
X95774973Y-64506556D01*
X95870460Y-64671944D01*
X95998247Y-64813866D01*
X96152748Y-64926118D01*
X96158776Y-64928802D01*
X96158778Y-64928803D01*
X96321181Y-65001109D01*
X96327212Y-65003794D01*
X96420613Y-65023647D01*
X96507556Y-65042128D01*
X96507561Y-65042128D01*
X96514013Y-65043500D01*
X96704987Y-65043500D01*
X96711439Y-65042128D01*
X96711444Y-65042128D01*
X96798387Y-65023647D01*
X96891788Y-65003794D01*
X96897819Y-65001109D01*
X97060222Y-64928803D01*
X97060224Y-64928802D01*
X97066252Y-64926118D01*
X97220753Y-64813866D01*
X97348540Y-64671944D01*
X97444027Y-64506556D01*
X97503042Y-64324928D01*
X97506314Y-64293803D01*
X97522314Y-64141565D01*
X97523004Y-64135000D01*
X101321496Y-64135000D01*
X101322186Y-64141565D01*
X101338187Y-64293803D01*
X101341458Y-64324928D01*
X101400473Y-64506556D01*
X101495960Y-64671944D01*
X101623747Y-64813866D01*
X101778248Y-64926118D01*
X101784276Y-64928802D01*
X101784278Y-64928803D01*
X101946681Y-65001109D01*
X101952712Y-65003794D01*
X102046113Y-65023647D01*
X102133056Y-65042128D01*
X102133061Y-65042128D01*
X102139513Y-65043500D01*
X102330487Y-65043500D01*
X102336939Y-65042128D01*
X102336944Y-65042128D01*
X102423887Y-65023647D01*
X102517288Y-65003794D01*
X102523319Y-65001109D01*
X102685722Y-64928803D01*
X102685724Y-64928802D01*
X102691752Y-64926118D01*
X102846253Y-64813866D01*
X102974040Y-64671944D01*
X103069527Y-64506556D01*
X103128542Y-64324928D01*
X103131814Y-64293803D01*
X103147814Y-64141565D01*
X103148504Y-64135000D01*
X103137597Y-64031226D01*
X103129232Y-63951635D01*
X103129232Y-63951633D01*
X103128542Y-63945072D01*
X103069527Y-63763444D01*
X102974040Y-63598056D01*
X102928744Y-63547749D01*
X102850675Y-63461045D01*
X102850674Y-63461044D01*
X102846253Y-63456134D01*
X102691752Y-63343882D01*
X102685724Y-63341198D01*
X102685722Y-63341197D01*
X102528031Y-63270989D01*
X103771996Y-63270989D01*
X103772686Y-63277554D01*
X103786276Y-63406852D01*
X103791958Y-63460917D01*
X103850973Y-63642545D01*
X103854276Y-63648267D01*
X103854277Y-63648268D01*
X103868556Y-63672999D01*
X103946460Y-63807933D01*
X103950878Y-63812840D01*
X103950879Y-63812841D01*
X104029207Y-63899833D01*
X104074247Y-63949855D01*
X104228748Y-64062107D01*
X104234776Y-64064791D01*
X104234778Y-64064792D01*
X104392469Y-64135000D01*
X104403212Y-64139783D01*
X104496613Y-64159636D01*
X104583556Y-64178117D01*
X104583561Y-64178117D01*
X104590013Y-64179489D01*
X104780987Y-64179489D01*
X104787439Y-64178117D01*
X104787444Y-64178117D01*
X104874387Y-64159636D01*
X104967788Y-64139783D01*
X104978531Y-64135000D01*
X105136222Y-64064792D01*
X105136224Y-64064791D01*
X105142252Y-64062107D01*
X105296753Y-63949855D01*
X105341793Y-63899833D01*
X105420121Y-63812841D01*
X105420122Y-63812840D01*
X105424540Y-63807933D01*
X105502444Y-63672999D01*
X105516723Y-63648268D01*
X105516724Y-63648267D01*
X105520027Y-63642545D01*
X105579042Y-63460917D01*
X105584725Y-63406852D01*
X105598314Y-63277554D01*
X105599004Y-63270989D01*
X105598314Y-63264424D01*
X105579732Y-63087624D01*
X105579732Y-63087622D01*
X105579042Y-63081061D01*
X105520027Y-62899433D01*
X105424540Y-62734045D01*
X105331944Y-62631206D01*
X105301175Y-62597034D01*
X105301174Y-62597033D01*
X105296753Y-62592123D01*
X105182934Y-62509428D01*
X105147594Y-62483752D01*
X105147593Y-62483751D01*
X105142252Y-62479871D01*
X105136224Y-62477187D01*
X105136222Y-62477186D01*
X104973819Y-62404880D01*
X104973818Y-62404880D01*
X104967788Y-62402195D01*
X104874388Y-62382342D01*
X104787444Y-62363861D01*
X104787439Y-62363861D01*
X104780987Y-62362489D01*
X104590013Y-62362489D01*
X104583561Y-62363861D01*
X104583556Y-62363861D01*
X104496612Y-62382342D01*
X104403212Y-62402195D01*
X104397182Y-62404880D01*
X104397181Y-62404880D01*
X104234778Y-62477186D01*
X104234776Y-62477187D01*
X104228748Y-62479871D01*
X104223407Y-62483751D01*
X104223406Y-62483752D01*
X104188066Y-62509428D01*
X104074247Y-62592123D01*
X104069826Y-62597033D01*
X104069825Y-62597034D01*
X104039057Y-62631206D01*
X103946460Y-62734045D01*
X103850973Y-62899433D01*
X103791958Y-63081061D01*
X103791268Y-63087622D01*
X103791268Y-63087624D01*
X103772686Y-63264424D01*
X103771996Y-63270989D01*
X102528031Y-63270989D01*
X102523319Y-63268891D01*
X102523318Y-63268891D01*
X102517288Y-63266206D01*
X102404721Y-63242279D01*
X102336944Y-63227872D01*
X102336939Y-63227872D01*
X102330487Y-63226500D01*
X102139513Y-63226500D01*
X102133061Y-63227872D01*
X102133056Y-63227872D01*
X102065279Y-63242279D01*
X101952712Y-63266206D01*
X101946682Y-63268891D01*
X101946681Y-63268891D01*
X101784278Y-63341197D01*
X101784276Y-63341198D01*
X101778248Y-63343882D01*
X101623747Y-63456134D01*
X101619326Y-63461044D01*
X101619325Y-63461045D01*
X101541257Y-63547749D01*
X101495960Y-63598056D01*
X101400473Y-63763444D01*
X101341458Y-63945072D01*
X101340768Y-63951633D01*
X101340768Y-63951635D01*
X101332403Y-64031226D01*
X101321496Y-64135000D01*
X97523004Y-64135000D01*
X97512097Y-64031226D01*
X97503732Y-63951635D01*
X97503732Y-63951633D01*
X97503042Y-63945072D01*
X97444027Y-63763444D01*
X97348540Y-63598056D01*
X97303244Y-63547749D01*
X97225175Y-63461045D01*
X97225174Y-63461044D01*
X97220753Y-63456134D01*
X97066252Y-63343882D01*
X97060224Y-63341198D01*
X97060222Y-63341197D01*
X96917566Y-63277683D01*
X96863470Y-63231703D01*
X96842821Y-63163776D01*
X96862173Y-63095468D01*
X96917567Y-63047469D01*
X96970719Y-63023805D01*
X96970726Y-63023801D01*
X96976752Y-63021118D01*
X97131253Y-62908866D01*
X97178454Y-62856444D01*
X97254621Y-62771852D01*
X97254622Y-62771851D01*
X97259040Y-62766944D01*
X97354527Y-62601556D01*
X97413542Y-62419928D01*
X97414760Y-62408345D01*
X97432814Y-62236565D01*
X97433504Y-62230000D01*
X97422289Y-62123294D01*
X97414232Y-62046635D01*
X97414232Y-62046633D01*
X97413542Y-62040072D01*
X97354527Y-61858444D01*
X97338203Y-61830169D01*
X97278941Y-61727525D01*
X97259040Y-61693056D01*
X97246931Y-61679607D01*
X97135675Y-61556045D01*
X97135674Y-61556044D01*
X97131253Y-61551134D01*
X96976752Y-61438882D01*
X96970724Y-61436198D01*
X96970722Y-61436197D01*
X96808319Y-61363891D01*
X96808316Y-61363890D01*
X96802288Y-61361206D01*
X96689721Y-61337279D01*
X96621944Y-61322872D01*
X96621939Y-61322872D01*
X96615487Y-61321500D01*
X96424513Y-61321500D01*
X96418061Y-61322872D01*
X96418056Y-61322872D01*
X96350279Y-61337279D01*
X96237712Y-61361206D01*
X96231684Y-61363890D01*
X96231681Y-61363891D01*
X96069278Y-61436197D01*
X96069276Y-61436198D01*
X96063248Y-61438882D01*
X95908747Y-61551134D01*
X95904326Y-61556044D01*
X95904325Y-61556045D01*
X95793070Y-61679607D01*
X95780960Y-61693056D01*
X95761059Y-61727525D01*
X95701798Y-61830169D01*
X95685473Y-61858444D01*
X95626458Y-62040072D01*
X95625768Y-62046633D01*
X95625768Y-62046635D01*
X95617711Y-62123294D01*
X95606496Y-62230000D01*
X90036241Y-62230000D01*
X90035470Y-59016695D01*
X90707251Y-59016695D01*
X90707548Y-59021848D01*
X90707548Y-59021851D01*
X90716458Y-59176382D01*
X90720110Y-59239715D01*
X90721247Y-59244761D01*
X90721248Y-59244767D01*
X90732241Y-59293545D01*
X90769222Y-59457639D01*
X90853266Y-59664616D01*
X90904942Y-59748944D01*
X90967291Y-59850688D01*
X90969987Y-59855088D01*
X91116250Y-60023938D01*
X91288126Y-60166632D01*
X91481000Y-60279338D01*
X91689692Y-60359030D01*
X91694760Y-60360061D01*
X91694763Y-60360062D01*
X91759860Y-60373306D01*
X91908597Y-60403567D01*
X91913772Y-60403757D01*
X91913774Y-60403757D01*
X92126673Y-60411564D01*
X92126677Y-60411564D01*
X92131837Y-60411753D01*
X92136957Y-60411097D01*
X92136959Y-60411097D01*
X92348288Y-60384025D01*
X92348289Y-60384025D01*
X92353416Y-60383368D01*
X92358366Y-60381883D01*
X92562429Y-60320661D01*
X92562434Y-60320659D01*
X92567384Y-60319174D01*
X92767994Y-60220896D01*
X92949860Y-60091173D01*
X93108096Y-59933489D01*
X93167594Y-59850689D01*
X93238453Y-59752077D01*
X93239776Y-59753028D01*
X93286645Y-59709857D01*
X93356580Y-59697625D01*
X93422026Y-59725144D01*
X93449875Y-59756994D01*
X93509987Y-59855088D01*
X93656250Y-60023938D01*
X93828126Y-60166632D01*
X94021000Y-60279338D01*
X94229692Y-60359030D01*
X94234760Y-60360061D01*
X94234763Y-60360062D01*
X94299860Y-60373306D01*
X94448597Y-60403567D01*
X94453772Y-60403757D01*
X94453774Y-60403757D01*
X94666673Y-60411564D01*
X94666677Y-60411564D01*
X94671837Y-60411753D01*
X94676957Y-60411097D01*
X94676959Y-60411097D01*
X94888288Y-60384025D01*
X94888289Y-60384025D01*
X94893416Y-60383368D01*
X94898366Y-60381883D01*
X95102429Y-60320661D01*
X95102434Y-60320659D01*
X95107384Y-60319174D01*
X95307994Y-60220896D01*
X95489860Y-60091173D01*
X95648096Y-59933489D01*
X95707594Y-59850689D01*
X95778453Y-59752077D01*
X95779776Y-59753028D01*
X95826645Y-59709857D01*
X95896580Y-59697625D01*
X95962026Y-59725144D01*
X95989875Y-59756994D01*
X96049987Y-59855088D01*
X96196250Y-60023938D01*
X96368126Y-60166632D01*
X96561000Y-60279338D01*
X96769692Y-60359030D01*
X96774760Y-60360061D01*
X96774763Y-60360062D01*
X96839860Y-60373306D01*
X96988597Y-60403567D01*
X96993772Y-60403757D01*
X96993774Y-60403757D01*
X97206673Y-60411564D01*
X97206677Y-60411564D01*
X97211837Y-60411753D01*
X97216957Y-60411097D01*
X97216959Y-60411097D01*
X97428288Y-60384025D01*
X97428289Y-60384025D01*
X97433416Y-60383368D01*
X97438366Y-60381883D01*
X97642429Y-60320661D01*
X97642434Y-60320659D01*
X97647384Y-60319174D01*
X97847994Y-60220896D01*
X98029860Y-60091173D01*
X98188096Y-59933489D01*
X98247594Y-59850689D01*
X98318453Y-59752077D01*
X98319776Y-59753028D01*
X98366645Y-59709857D01*
X98436580Y-59697625D01*
X98502026Y-59725144D01*
X98529875Y-59756994D01*
X98589987Y-59855088D01*
X98736250Y-60023938D01*
X98908126Y-60166632D01*
X98912594Y-60169243D01*
X98912597Y-60169245D01*
X98957129Y-60195267D01*
X99005853Y-60246905D01*
X99018925Y-60316687D01*
X98992194Y-60382460D01*
X98987212Y-60388347D01*
X98955960Y-60423056D01*
X98860473Y-60588444D01*
X98801458Y-60770072D01*
X98781496Y-60960000D01*
X98801458Y-61149928D01*
X98860473Y-61331556D01*
X98863776Y-61337278D01*
X98863777Y-61337279D01*
X98876799Y-61359834D01*
X98955960Y-61496944D01*
X98960378Y-61501851D01*
X98960379Y-61501852D01*
X99001996Y-61548072D01*
X99083747Y-61638866D01*
X99182843Y-61710864D01*
X99220884Y-61738502D01*
X99238248Y-61751118D01*
X99244276Y-61753802D01*
X99244278Y-61753803D01*
X99376045Y-61812469D01*
X99412712Y-61828794D01*
X99419167Y-61830166D01*
X99419176Y-61830169D01*
X99445978Y-61835866D01*
X99508451Y-61869594D01*
X99542772Y-61931744D01*
X99539613Y-61998046D01*
X99525958Y-62040072D01*
X99525268Y-62046633D01*
X99525268Y-62046635D01*
X99517211Y-62123294D01*
X99505996Y-62230000D01*
X99506686Y-62236565D01*
X99524741Y-62408345D01*
X99525958Y-62419928D01*
X99584973Y-62601556D01*
X99680460Y-62766944D01*
X99684878Y-62771851D01*
X99684879Y-62771852D01*
X99761046Y-62856444D01*
X99808247Y-62908866D01*
X99962748Y-63021118D01*
X99968776Y-63023802D01*
X99968778Y-63023803D01*
X100131181Y-63096109D01*
X100137212Y-63098794D01*
X100230613Y-63118647D01*
X100317556Y-63137128D01*
X100317561Y-63137128D01*
X100324013Y-63138500D01*
X100514987Y-63138500D01*
X100521439Y-63137128D01*
X100521444Y-63137128D01*
X100608387Y-63118647D01*
X100701788Y-63098794D01*
X100707819Y-63096109D01*
X100870222Y-63023803D01*
X100870224Y-63023802D01*
X100876252Y-63021118D01*
X101030753Y-62908866D01*
X101077954Y-62856444D01*
X101154121Y-62771852D01*
X101154122Y-62771851D01*
X101158540Y-62766944D01*
X101254027Y-62601556D01*
X101313042Y-62419928D01*
X101314260Y-62408345D01*
X101323598Y-62319500D01*
X105766496Y-62319500D01*
X105767186Y-62326065D01*
X105785439Y-62499729D01*
X105786458Y-62509428D01*
X105845473Y-62691056D01*
X105848776Y-62696778D01*
X105848777Y-62696779D01*
X105867459Y-62729137D01*
X105940960Y-62856444D01*
X105945378Y-62861351D01*
X105945379Y-62861352D01*
X106036954Y-62963056D01*
X106068747Y-62998366D01*
X106167843Y-63070364D01*
X106191600Y-63087624D01*
X106223248Y-63110618D01*
X106229276Y-63113302D01*
X106229278Y-63113303D01*
X106285872Y-63138500D01*
X106397712Y-63188294D01*
X106458543Y-63201224D01*
X106578056Y-63226628D01*
X106578061Y-63226628D01*
X106584513Y-63228000D01*
X106775487Y-63228000D01*
X106781939Y-63226628D01*
X106781944Y-63226628D01*
X106901457Y-63201224D01*
X106962288Y-63188294D01*
X107074128Y-63138500D01*
X107130722Y-63113303D01*
X107130724Y-63113302D01*
X107136752Y-63110618D01*
X107168401Y-63087624D01*
X107192157Y-63070364D01*
X107291253Y-62998366D01*
X107323046Y-62963056D01*
X107411336Y-62865000D01*
X111481496Y-62865000D01*
X111482186Y-62871565D01*
X111498187Y-63023803D01*
X111501458Y-63054928D01*
X111560473Y-63236556D01*
X111655960Y-63401944D01*
X111660378Y-63406851D01*
X111660379Y-63406852D01*
X111703150Y-63454354D01*
X111783747Y-63543866D01*
X111938248Y-63656118D01*
X111944276Y-63658802D01*
X111944278Y-63658803D01*
X112106681Y-63731109D01*
X112112712Y-63733794D01*
X112206113Y-63753647D01*
X112293056Y-63772128D01*
X112293061Y-63772128D01*
X112299513Y-63773500D01*
X112490487Y-63773500D01*
X112496939Y-63772128D01*
X112496944Y-63772128D01*
X112583887Y-63753647D01*
X112677288Y-63733794D01*
X112683319Y-63731109D01*
X112845722Y-63658803D01*
X112845724Y-63658802D01*
X112851752Y-63656118D01*
X113006253Y-63543866D01*
X113086850Y-63454354D01*
X113129621Y-63406852D01*
X113129622Y-63406851D01*
X113134040Y-63401944D01*
X113229527Y-63236556D01*
X113288542Y-63054928D01*
X113291814Y-63023803D01*
X113307814Y-62871565D01*
X113308504Y-62865000D01*
X113294740Y-62734045D01*
X113289232Y-62681635D01*
X113289232Y-62681633D01*
X113288542Y-62675072D01*
X113229527Y-62493444D01*
X113220141Y-62477186D01*
X113137341Y-62333774D01*
X113134040Y-62328056D01*
X113006253Y-62186134D01*
X112851752Y-62073882D01*
X112845724Y-62071198D01*
X112845722Y-62071197D01*
X112683319Y-61998891D01*
X112683318Y-61998891D01*
X112677288Y-61996206D01*
X112583888Y-61976353D01*
X112496944Y-61957872D01*
X112496939Y-61957872D01*
X112490487Y-61956500D01*
X112299513Y-61956500D01*
X112293061Y-61957872D01*
X112293056Y-61957872D01*
X112206112Y-61976353D01*
X112112712Y-61996206D01*
X112106682Y-61998891D01*
X112106681Y-61998891D01*
X111944278Y-62071197D01*
X111944276Y-62071198D01*
X111938248Y-62073882D01*
X111783747Y-62186134D01*
X111655960Y-62328056D01*
X111652659Y-62333774D01*
X111569860Y-62477186D01*
X111560473Y-62493444D01*
X111501458Y-62675072D01*
X111500768Y-62681633D01*
X111500768Y-62681635D01*
X111495260Y-62734045D01*
X111481496Y-62865000D01*
X107411336Y-62865000D01*
X107414621Y-62861352D01*
X107414622Y-62861351D01*
X107419040Y-62856444D01*
X107492541Y-62729137D01*
X107511223Y-62696779D01*
X107511224Y-62696778D01*
X107514527Y-62691056D01*
X107573542Y-62509428D01*
X107574562Y-62499729D01*
X107592814Y-62326065D01*
X107593504Y-62319500D01*
X107573542Y-62129572D01*
X107514527Y-61947944D01*
X107419040Y-61782556D01*
X107343603Y-61698774D01*
X107295675Y-61645545D01*
X107295674Y-61645544D01*
X107291253Y-61640634D01*
X107161896Y-61546650D01*
X107142094Y-61532263D01*
X107142093Y-61532262D01*
X107136752Y-61528382D01*
X107130724Y-61525698D01*
X107130722Y-61525697D01*
X106968319Y-61453391D01*
X106968318Y-61453391D01*
X106962288Y-61450706D01*
X106868887Y-61430853D01*
X106781944Y-61412372D01*
X106781939Y-61412372D01*
X106775487Y-61411000D01*
X106584513Y-61411000D01*
X106578061Y-61412372D01*
X106578056Y-61412372D01*
X106491113Y-61430853D01*
X106397712Y-61450706D01*
X106391682Y-61453391D01*
X106391681Y-61453391D01*
X106229278Y-61525697D01*
X106229276Y-61525698D01*
X106223248Y-61528382D01*
X106217907Y-61532262D01*
X106217906Y-61532263D01*
X106198104Y-61546650D01*
X106068747Y-61640634D01*
X106064326Y-61645544D01*
X106064325Y-61645545D01*
X106016398Y-61698774D01*
X105940960Y-61782556D01*
X105845473Y-61947944D01*
X105786458Y-62129572D01*
X105766496Y-62319500D01*
X101323598Y-62319500D01*
X101332314Y-62236565D01*
X101333004Y-62230000D01*
X101321789Y-62123294D01*
X101313732Y-62046635D01*
X101313732Y-62046633D01*
X101313042Y-62040072D01*
X101254027Y-61858444D01*
X101237703Y-61830169D01*
X101178441Y-61727525D01*
X101158540Y-61693056D01*
X101146431Y-61679607D01*
X101035175Y-61556045D01*
X101035174Y-61556044D01*
X101030753Y-61551134D01*
X100876252Y-61438882D01*
X100870224Y-61436198D01*
X100870222Y-61436197D01*
X100707819Y-61363891D01*
X100707816Y-61363890D01*
X100701788Y-61361206D01*
X100695333Y-61359834D01*
X100695324Y-61359831D01*
X100668522Y-61354134D01*
X100606049Y-61320406D01*
X100571728Y-61258256D01*
X100574887Y-61191954D01*
X100588542Y-61149928D01*
X100608504Y-60960000D01*
X100588542Y-60770072D01*
X100529527Y-60588444D01*
X100434040Y-60423056D01*
X100399654Y-60384866D01*
X100368938Y-60320862D01*
X100377701Y-60250408D01*
X100420123Y-60197979D01*
X100565656Y-60094172D01*
X100565659Y-60094170D01*
X100569860Y-60091173D01*
X100728096Y-59933489D01*
X100787594Y-59850689D01*
X100858453Y-59752077D01*
X100859776Y-59753028D01*
X100906645Y-59709857D01*
X100976580Y-59697625D01*
X101042026Y-59725144D01*
X101069875Y-59756994D01*
X101129987Y-59855088D01*
X101276250Y-60023938D01*
X101448126Y-60166632D01*
X101641000Y-60279338D01*
X101849692Y-60359030D01*
X101854760Y-60360061D01*
X101854763Y-60360062D01*
X101919860Y-60373306D01*
X102068597Y-60403567D01*
X102073772Y-60403757D01*
X102073774Y-60403757D01*
X102286673Y-60411564D01*
X102286677Y-60411564D01*
X102291837Y-60411753D01*
X102296957Y-60411097D01*
X102296959Y-60411097D01*
X102508288Y-60384025D01*
X102508289Y-60384025D01*
X102513416Y-60383368D01*
X102518366Y-60381883D01*
X102722429Y-60320661D01*
X102722434Y-60320659D01*
X102727384Y-60319174D01*
X102927994Y-60220896D01*
X103109860Y-60091173D01*
X103268096Y-59933489D01*
X103327594Y-59850689D01*
X103398453Y-59752077D01*
X103399776Y-59753028D01*
X103446645Y-59709857D01*
X103516580Y-59697625D01*
X103582026Y-59725144D01*
X103609875Y-59756994D01*
X103669987Y-59855088D01*
X103816250Y-60023938D01*
X103988126Y-60166632D01*
X104181000Y-60279338D01*
X104389692Y-60359030D01*
X104394760Y-60360061D01*
X104394763Y-60360062D01*
X104459860Y-60373306D01*
X104608597Y-60403567D01*
X104613772Y-60403757D01*
X104613774Y-60403757D01*
X104826673Y-60411564D01*
X104826677Y-60411564D01*
X104831837Y-60411753D01*
X104836957Y-60411097D01*
X104836959Y-60411097D01*
X105048288Y-60384025D01*
X105048289Y-60384025D01*
X105053416Y-60383368D01*
X105058366Y-60381883D01*
X105262429Y-60320661D01*
X105262434Y-60320659D01*
X105267384Y-60319174D01*
X105467994Y-60220896D01*
X105649860Y-60091173D01*
X105808096Y-59933489D01*
X105867594Y-59850689D01*
X105938453Y-59752077D01*
X105939776Y-59753028D01*
X105986645Y-59709857D01*
X106056580Y-59697625D01*
X106122026Y-59725144D01*
X106149875Y-59756994D01*
X106209987Y-59855088D01*
X106356250Y-60023938D01*
X106528126Y-60166632D01*
X106721000Y-60279338D01*
X106929692Y-60359030D01*
X106934760Y-60360061D01*
X106934763Y-60360062D01*
X106999860Y-60373306D01*
X107148597Y-60403567D01*
X107153772Y-60403757D01*
X107153774Y-60403757D01*
X107366673Y-60411564D01*
X107366677Y-60411564D01*
X107371837Y-60411753D01*
X107376957Y-60411097D01*
X107376959Y-60411097D01*
X107588288Y-60384025D01*
X107588289Y-60384025D01*
X107593416Y-60383368D01*
X107598366Y-60381883D01*
X107802429Y-60320661D01*
X107802434Y-60320659D01*
X107807384Y-60319174D01*
X108007994Y-60220896D01*
X108189860Y-60091173D01*
X108348096Y-59933489D01*
X108407594Y-59850689D01*
X108478453Y-59752077D01*
X108479776Y-59753028D01*
X108526645Y-59709857D01*
X108596580Y-59697625D01*
X108662026Y-59725144D01*
X108689875Y-59756994D01*
X108749987Y-59855088D01*
X108896250Y-60023938D01*
X109068126Y-60166632D01*
X109261000Y-60279338D01*
X109469692Y-60359030D01*
X109474760Y-60360061D01*
X109474763Y-60360062D01*
X109539860Y-60373306D01*
X109688597Y-60403567D01*
X109693772Y-60403757D01*
X109693774Y-60403757D01*
X109906673Y-60411564D01*
X109906677Y-60411564D01*
X109911837Y-60411753D01*
X109916957Y-60411097D01*
X109916959Y-60411097D01*
X110128288Y-60384025D01*
X110128289Y-60384025D01*
X110133416Y-60383368D01*
X110138366Y-60381883D01*
X110342429Y-60320661D01*
X110342434Y-60320659D01*
X110347384Y-60319174D01*
X110547994Y-60220896D01*
X110729860Y-60091173D01*
X110888096Y-59933489D01*
X110947594Y-59850689D01*
X111018453Y-59752077D01*
X111019776Y-59753028D01*
X111066645Y-59709857D01*
X111136580Y-59697625D01*
X111202026Y-59725144D01*
X111229875Y-59756994D01*
X111289987Y-59855088D01*
X111436250Y-60023938D01*
X111608126Y-60166632D01*
X111801000Y-60279338D01*
X112009692Y-60359030D01*
X112014760Y-60360061D01*
X112014763Y-60360062D01*
X112079860Y-60373306D01*
X112228597Y-60403567D01*
X112233772Y-60403757D01*
X112233774Y-60403757D01*
X112446673Y-60411564D01*
X112446677Y-60411564D01*
X112451837Y-60411753D01*
X112456957Y-60411097D01*
X112456959Y-60411097D01*
X112668288Y-60384025D01*
X112668289Y-60384025D01*
X112673416Y-60383368D01*
X112678366Y-60381883D01*
X112882429Y-60320661D01*
X112882434Y-60320659D01*
X112887384Y-60319174D01*
X113087994Y-60220896D01*
X113269860Y-60091173D01*
X113428096Y-59933489D01*
X113487594Y-59850689D01*
X113558453Y-59752077D01*
X113559776Y-59753028D01*
X113606645Y-59709857D01*
X113676580Y-59697625D01*
X113742026Y-59725144D01*
X113769875Y-59756994D01*
X113829987Y-59855088D01*
X113976250Y-60023938D01*
X114148126Y-60166632D01*
X114341000Y-60279338D01*
X114549692Y-60359030D01*
X114554760Y-60360061D01*
X114554763Y-60360062D01*
X114619860Y-60373306D01*
X114768597Y-60403567D01*
X114773772Y-60403757D01*
X114773774Y-60403757D01*
X114986673Y-60411564D01*
X114986677Y-60411564D01*
X114991837Y-60411753D01*
X114996957Y-60411097D01*
X114996959Y-60411097D01*
X115208288Y-60384025D01*
X115208289Y-60384025D01*
X115213416Y-60383368D01*
X115218366Y-60381883D01*
X115422429Y-60320661D01*
X115422434Y-60320659D01*
X115427384Y-60319174D01*
X115627994Y-60220896D01*
X115809860Y-60091173D01*
X115968096Y-59933489D01*
X116027594Y-59850689D01*
X116098453Y-59752077D01*
X116099776Y-59753028D01*
X116146645Y-59709857D01*
X116216580Y-59697625D01*
X116282026Y-59725144D01*
X116309875Y-59756994D01*
X116369987Y-59855088D01*
X116516250Y-60023938D01*
X116688126Y-60166632D01*
X116881000Y-60279338D01*
X117089692Y-60359030D01*
X117094760Y-60360061D01*
X117094763Y-60360062D01*
X117159860Y-60373306D01*
X117308597Y-60403567D01*
X117313771Y-60403757D01*
X117313773Y-60403757D01*
X117421544Y-60407709D01*
X117488886Y-60430194D01*
X117533381Y-60485517D01*
X117540903Y-60556114D01*
X117506021Y-60622719D01*
X115827930Y-62300810D01*
X115765618Y-62334836D01*
X115694803Y-62329771D01*
X115645199Y-62296025D01*
X115550675Y-62191045D01*
X115550674Y-62191044D01*
X115546253Y-62186134D01*
X115391752Y-62073882D01*
X115385724Y-62071198D01*
X115385722Y-62071197D01*
X115223319Y-61998891D01*
X115223318Y-61998891D01*
X115217288Y-61996206D01*
X115123888Y-61976353D01*
X115036944Y-61957872D01*
X115036939Y-61957872D01*
X115030487Y-61956500D01*
X114839513Y-61956500D01*
X114833061Y-61957872D01*
X114833056Y-61957872D01*
X114746112Y-61976353D01*
X114652712Y-61996206D01*
X114646682Y-61998891D01*
X114646681Y-61998891D01*
X114484278Y-62071197D01*
X114484276Y-62071198D01*
X114478248Y-62073882D01*
X114323747Y-62186134D01*
X114195960Y-62328056D01*
X114192659Y-62333774D01*
X114109860Y-62477186D01*
X114100473Y-62493444D01*
X114041458Y-62675072D01*
X114040768Y-62681633D01*
X114040768Y-62681635D01*
X114035260Y-62734045D01*
X114021496Y-62865000D01*
X114022186Y-62871565D01*
X114038187Y-63023803D01*
X114041458Y-63054928D01*
X114100473Y-63236556D01*
X114195960Y-63401944D01*
X114200378Y-63406851D01*
X114200379Y-63406852D01*
X114243150Y-63454354D01*
X114323747Y-63543866D01*
X114352813Y-63564984D01*
X114355640Y-63567038D01*
X114398993Y-63623261D01*
X114405067Y-63693998D01*
X114370672Y-63758068D01*
X113257395Y-64871345D01*
X113248615Y-64879335D01*
X113248613Y-64879337D01*
X113241920Y-64883584D01*
X113236494Y-64889362D01*
X113236493Y-64889363D01*
X113193396Y-64935257D01*
X113190641Y-64938099D01*
X113170073Y-64958667D01*
X113167356Y-64962170D01*
X113159648Y-64971195D01*
X113128028Y-65004867D01*
X113124207Y-65011818D01*
X113124206Y-65011819D01*
X113117697Y-65023658D01*
X113106843Y-65040182D01*
X113105334Y-65042128D01*
X113093696Y-65057132D01*
X113090549Y-65064404D01*
X113090548Y-65064406D01*
X113075346Y-65099535D01*
X113070124Y-65110195D01*
X113060254Y-65128149D01*
X113047876Y-65150663D01*
X113042541Y-65171441D01*
X113036142Y-65190131D01*
X113027620Y-65209824D01*
X113026380Y-65217655D01*
X113020394Y-65255448D01*
X113017987Y-65267071D01*
X113006500Y-65311812D01*
X113006500Y-65333259D01*
X113004949Y-65352969D01*
X113001594Y-65374152D01*
X113001770Y-65376010D01*
X112980478Y-65440908D01*
X112970327Y-65453781D01*
X112969859Y-65454301D01*
X112909421Y-65491554D01*
X112876204Y-65496011D01*
X94768796Y-65496011D01*
X94700675Y-65476009D01*
X94675160Y-65454322D01*
X94595668Y-65366037D01*
X94595666Y-65366036D01*
X94591253Y-65361134D01*
X94534281Y-65319741D01*
X94442094Y-65252763D01*
X94442093Y-65252762D01*
X94436752Y-65248882D01*
X94430724Y-65246198D01*
X94430722Y-65246197D01*
X94268319Y-65173891D01*
X94268318Y-65173891D01*
X94262288Y-65171206D01*
X94149721Y-65147279D01*
X94081944Y-65132872D01*
X94081939Y-65132872D01*
X94075487Y-65131500D01*
X93884513Y-65131500D01*
X93878061Y-65132872D01*
X93878056Y-65132872D01*
X93810279Y-65147279D01*
X93697712Y-65171206D01*
X93691682Y-65173891D01*
X93691681Y-65173891D01*
X93529278Y-65246197D01*
X93529276Y-65246198D01*
X93523248Y-65248882D01*
X93517907Y-65252762D01*
X93517906Y-65252763D01*
X93498213Y-65267071D01*
X93368747Y-65361134D01*
X93364326Y-65366044D01*
X93364325Y-65366045D01*
X93286257Y-65452749D01*
X93240960Y-65503056D01*
X93145473Y-65668444D01*
X93086458Y-65850072D01*
X93085768Y-65856633D01*
X93085768Y-65856635D01*
X93071515Y-65992251D01*
X93066496Y-66040000D01*
X93086458Y-66229928D01*
X93145473Y-66411556D01*
X93240960Y-66576944D01*
X93368747Y-66718866D01*
X93523248Y-66831118D01*
X93529276Y-66833802D01*
X93529278Y-66833803D01*
X93627184Y-66877393D01*
X93681279Y-66923373D01*
X93701929Y-66991300D01*
X93682577Y-67059608D01*
X93627184Y-67107607D01*
X93529278Y-67151197D01*
X93529276Y-67151198D01*
X93523248Y-67153882D01*
X93368747Y-67266134D01*
X93364326Y-67271044D01*
X93364325Y-67271045D01*
X93286257Y-67357749D01*
X93240960Y-67408056D01*
X93145473Y-67573444D01*
X93086458Y-67755072D01*
X93085768Y-67761633D01*
X93085768Y-67761635D01*
X93071515Y-67897251D01*
X93066496Y-67945000D01*
X93086458Y-68134928D01*
X93145473Y-68316556D01*
X93240960Y-68481944D01*
X93245378Y-68486851D01*
X93245379Y-68486852D01*
X93329250Y-68580000D01*
X93368747Y-68623866D01*
X93523248Y-68736118D01*
X93529276Y-68738802D01*
X93529278Y-68738803D01*
X93691681Y-68811109D01*
X93697712Y-68813794D01*
X93791113Y-68833647D01*
X93878056Y-68852128D01*
X93878061Y-68852128D01*
X93884513Y-68853500D01*
X94075487Y-68853500D01*
X94081939Y-68852128D01*
X94081944Y-68852128D01*
X94168887Y-68833647D01*
X94262288Y-68813794D01*
X94268319Y-68811109D01*
X94430722Y-68738803D01*
X94430724Y-68738802D01*
X94436752Y-68736118D01*
X94591253Y-68623866D01*
X94630750Y-68580000D01*
X94714621Y-68486852D01*
X94714622Y-68486851D01*
X94719040Y-68481944D01*
X94814527Y-68316556D01*
X94873542Y-68134928D01*
X94893504Y-67945000D01*
X94888485Y-67897251D01*
X94874232Y-67761635D01*
X94874232Y-67761633D01*
X94873542Y-67755072D01*
X94814527Y-67573444D01*
X94719040Y-67408056D01*
X94673744Y-67357749D01*
X94595675Y-67271045D01*
X94595674Y-67271044D01*
X94591253Y-67266134D01*
X94436752Y-67153882D01*
X94430724Y-67151198D01*
X94430722Y-67151197D01*
X94332816Y-67107607D01*
X94278721Y-67061627D01*
X94258071Y-66993700D01*
X94277423Y-66925392D01*
X94332816Y-66877393D01*
X94430724Y-66833802D01*
X94430725Y-66833801D01*
X94436752Y-66831118D01*
X94438991Y-66829491D01*
X94500496Y-66813011D01*
X108342135Y-66813011D01*
X108410256Y-66833013D01*
X108456749Y-66886669D01*
X108466853Y-66956943D01*
X108437359Y-67021523D01*
X108377633Y-67059907D01*
X108368333Y-67062258D01*
X108302712Y-67076206D01*
X108296682Y-67078891D01*
X108296681Y-67078891D01*
X108134278Y-67151197D01*
X108134276Y-67151198D01*
X108128248Y-67153882D01*
X107973747Y-67266134D01*
X107969326Y-67271044D01*
X107969325Y-67271045D01*
X107891257Y-67357749D01*
X107845960Y-67408056D01*
X107750473Y-67573444D01*
X107691458Y-67755072D01*
X107690768Y-67761633D01*
X107690768Y-67761635D01*
X107676515Y-67897251D01*
X107671496Y-67945000D01*
X107691458Y-68134928D01*
X107750473Y-68316556D01*
X107753776Y-68322278D01*
X107753777Y-68322279D01*
X107779984Y-68367671D01*
X107796722Y-68436667D01*
X107779984Y-68493671D01*
X107734290Y-68572815D01*
X107675275Y-68754443D01*
X107674585Y-68761004D01*
X107674585Y-68761006D01*
X107669319Y-68811109D01*
X107655313Y-68944371D01*
X107675275Y-69134299D01*
X107734290Y-69315927D01*
X107829777Y-69481315D01*
X107834195Y-69486222D01*
X107834196Y-69486223D01*
X107918877Y-69580271D01*
X107957564Y-69623237D01*
X108112065Y-69735489D01*
X108118098Y-69738175D01*
X108118103Y-69738178D01*
X108169592Y-69761103D01*
X108223688Y-69807083D01*
X108243653Y-69863038D01*
X108253190Y-69953774D01*
X108254703Y-69968173D01*
X108313718Y-70149801D01*
X108317021Y-70155523D01*
X108317022Y-70155524D01*
X108350931Y-70214255D01*
X108409205Y-70315189D01*
X108413623Y-70320096D01*
X108413624Y-70320097D01*
X108532570Y-70452200D01*
X108536992Y-70457111D01*
X108691493Y-70569363D01*
X108697521Y-70572047D01*
X108697523Y-70572048D01*
X108859926Y-70644354D01*
X108865957Y-70647039D01*
X108872418Y-70648412D01*
X108872420Y-70648413D01*
X108887655Y-70651652D01*
X108950128Y-70685381D01*
X108981289Y-70735961D01*
X109020473Y-70856556D01*
X109115960Y-71021944D01*
X109120378Y-71026851D01*
X109120379Y-71026852D01*
X109164753Y-71076134D01*
X109243747Y-71163866D01*
X109398248Y-71276118D01*
X109404274Y-71278801D01*
X109404281Y-71278805D01*
X109549786Y-71343587D01*
X109603882Y-71389567D01*
X109624532Y-71457494D01*
X109618371Y-71497630D01*
X109603446Y-71543566D01*
X109596458Y-71565072D01*
X109595768Y-71571633D01*
X109595768Y-71571635D01*
X109583780Y-71685697D01*
X109576496Y-71755000D01*
X109596458Y-71944928D01*
X109655473Y-72126556D01*
X109750960Y-72291944D01*
X109755378Y-72296851D01*
X109755379Y-72296852D01*
X109799753Y-72346134D01*
X109878747Y-72433866D01*
X110033248Y-72546118D01*
X110039276Y-72548802D01*
X110039278Y-72548803D01*
X110201681Y-72621109D01*
X110207712Y-72623794D01*
X110301113Y-72643647D01*
X110388056Y-72662128D01*
X110388061Y-72662128D01*
X110394513Y-72663500D01*
X110585487Y-72663500D01*
X110591939Y-72662128D01*
X110591944Y-72662128D01*
X110678887Y-72643647D01*
X110772288Y-72623794D01*
X110778319Y-72621109D01*
X110940722Y-72548803D01*
X110940724Y-72548802D01*
X110946752Y-72546118D01*
X111038443Y-72479500D01*
X115291496Y-72479500D01*
X115292186Y-72486065D01*
X115310439Y-72659729D01*
X115311458Y-72669428D01*
X115370473Y-72851056D01*
X115465960Y-73016444D01*
X115593747Y-73158366D01*
X115748248Y-73270618D01*
X115754276Y-73273302D01*
X115754278Y-73273303D01*
X115810872Y-73298500D01*
X115922712Y-73348294D01*
X116016112Y-73368147D01*
X116103056Y-73386628D01*
X116103061Y-73386628D01*
X116109513Y-73388000D01*
X116300487Y-73388000D01*
X116306939Y-73386628D01*
X116306944Y-73386628D01*
X116393888Y-73368147D01*
X116487288Y-73348294D01*
X116599128Y-73298500D01*
X116655722Y-73273303D01*
X116655724Y-73273302D01*
X116661752Y-73270618D01*
X116816253Y-73158366D01*
X116944040Y-73016444D01*
X117039527Y-72851056D01*
X117041567Y-72844777D01*
X117042394Y-72842920D01*
X117088374Y-72788825D01*
X117156301Y-72768176D01*
X117224609Y-72787529D01*
X117272606Y-72842920D01*
X117273433Y-72844777D01*
X117275473Y-72851056D01*
X117370960Y-73016444D01*
X117498747Y-73158366D01*
X117653248Y-73270618D01*
X117659276Y-73273302D01*
X117659278Y-73273303D01*
X117715872Y-73298500D01*
X117827712Y-73348294D01*
X117921112Y-73368147D01*
X118008056Y-73386628D01*
X118008061Y-73386628D01*
X118014513Y-73388000D01*
X118205487Y-73388000D01*
X118211939Y-73386628D01*
X118211944Y-73386628D01*
X118298888Y-73368147D01*
X118392288Y-73348294D01*
X118504128Y-73298500D01*
X118560722Y-73273303D01*
X118560724Y-73273302D01*
X118566752Y-73270618D01*
X118721253Y-73158366D01*
X118849040Y-73016444D01*
X118944527Y-72851056D01*
X119003542Y-72669428D01*
X119004562Y-72659729D01*
X119022814Y-72486065D01*
X119023504Y-72479500D01*
X119003542Y-72289572D01*
X118944527Y-72107944D01*
X118849040Y-71942556D01*
X118773603Y-71858774D01*
X118725675Y-71805545D01*
X118725674Y-71805544D01*
X118721253Y-71800634D01*
X118658443Y-71755000D01*
X137516496Y-71755000D01*
X137536458Y-71944928D01*
X137595473Y-72126556D01*
X137690960Y-72291944D01*
X137695378Y-72296851D01*
X137695379Y-72296852D01*
X137739753Y-72346134D01*
X137818747Y-72433866D01*
X137973248Y-72546118D01*
X137979276Y-72548802D01*
X137979278Y-72548803D01*
X138141681Y-72621109D01*
X138147712Y-72623794D01*
X138241113Y-72643647D01*
X138328056Y-72662128D01*
X138328061Y-72662128D01*
X138334513Y-72663500D01*
X138525487Y-72663500D01*
X138531939Y-72662128D01*
X138531944Y-72662128D01*
X138618887Y-72643647D01*
X138712288Y-72623794D01*
X138718319Y-72621109D01*
X138880722Y-72548803D01*
X138880724Y-72548802D01*
X138886752Y-72546118D01*
X139041253Y-72433866D01*
X139080750Y-72390000D01*
X144501496Y-72390000D01*
X144502186Y-72396565D01*
X144518187Y-72548803D01*
X144521458Y-72579928D01*
X144580473Y-72761556D01*
X144583776Y-72767278D01*
X144583777Y-72767279D01*
X144596217Y-72788825D01*
X144675960Y-72926944D01*
X144680378Y-72931851D01*
X144680379Y-72931852D01*
X144756546Y-73016444D01*
X144803747Y-73068866D01*
X144958248Y-73181118D01*
X144964276Y-73183802D01*
X144964278Y-73183803D01*
X145048294Y-73221209D01*
X145132712Y-73258794D01*
X145226113Y-73278647D01*
X145313056Y-73297128D01*
X145313061Y-73297128D01*
X145319513Y-73298500D01*
X145510487Y-73298500D01*
X145516939Y-73297128D01*
X145516944Y-73297128D01*
X145603887Y-73278647D01*
X145697288Y-73258794D01*
X145781706Y-73221209D01*
X145865722Y-73183803D01*
X145865724Y-73183802D01*
X145871752Y-73181118D01*
X146026253Y-73068866D01*
X146073454Y-73016444D01*
X146149621Y-72931852D01*
X146149622Y-72931851D01*
X146154040Y-72926944D01*
X146233783Y-72788825D01*
X146246223Y-72767279D01*
X146246224Y-72767278D01*
X146249527Y-72761556D01*
X146308542Y-72579928D01*
X146311814Y-72548803D01*
X146327814Y-72396565D01*
X146328504Y-72390000D01*
X146317289Y-72283294D01*
X146309232Y-72206635D01*
X146309232Y-72206633D01*
X146308542Y-72200072D01*
X146249527Y-72018444D01*
X146154040Y-71853056D01*
X146026253Y-71711134D01*
X145871752Y-71598882D01*
X145865724Y-71596198D01*
X145865722Y-71596197D01*
X145703319Y-71523891D01*
X145703318Y-71523891D01*
X145697288Y-71521206D01*
X145603887Y-71501353D01*
X145516944Y-71482872D01*
X145516939Y-71482872D01*
X145510487Y-71481500D01*
X145319513Y-71481500D01*
X145313061Y-71482872D01*
X145313056Y-71482872D01*
X145226113Y-71501353D01*
X145132712Y-71521206D01*
X145126682Y-71523891D01*
X145126681Y-71523891D01*
X144964278Y-71596197D01*
X144964276Y-71596198D01*
X144958248Y-71598882D01*
X144803747Y-71711134D01*
X144675960Y-71853056D01*
X144580473Y-72018444D01*
X144521458Y-72200072D01*
X144520768Y-72206633D01*
X144520768Y-72206635D01*
X144512711Y-72283294D01*
X144501496Y-72390000D01*
X139080750Y-72390000D01*
X139120247Y-72346134D01*
X139164621Y-72296852D01*
X139164622Y-72296851D01*
X139169040Y-72291944D01*
X139264527Y-72126556D01*
X139323542Y-71944928D01*
X139343504Y-71755000D01*
X139336220Y-71685697D01*
X139324232Y-71571635D01*
X139324232Y-71571633D01*
X139323542Y-71565072D01*
X139264527Y-71383444D01*
X139169040Y-71218056D01*
X139123744Y-71167749D01*
X139045675Y-71081045D01*
X139045674Y-71081044D01*
X139041253Y-71076134D01*
X138886752Y-70963882D01*
X138880724Y-70961198D01*
X138880722Y-70961197D01*
X138718319Y-70888891D01*
X138718318Y-70888891D01*
X138712288Y-70886206D01*
X138599721Y-70862279D01*
X138531944Y-70847872D01*
X138531939Y-70847872D01*
X138525487Y-70846500D01*
X138334513Y-70846500D01*
X138328061Y-70847872D01*
X138328056Y-70847872D01*
X138260279Y-70862279D01*
X138147712Y-70886206D01*
X138141682Y-70888891D01*
X138141681Y-70888891D01*
X137979278Y-70961197D01*
X137979276Y-70961198D01*
X137973248Y-70963882D01*
X137818747Y-71076134D01*
X137814326Y-71081044D01*
X137814325Y-71081045D01*
X137736257Y-71167749D01*
X137690960Y-71218056D01*
X137595473Y-71383444D01*
X137536458Y-71565072D01*
X137535768Y-71571633D01*
X137535768Y-71571635D01*
X137523780Y-71685697D01*
X137516496Y-71755000D01*
X118658443Y-71755000D01*
X118566752Y-71688382D01*
X118560724Y-71685698D01*
X118560722Y-71685697D01*
X118398319Y-71613391D01*
X118398318Y-71613391D01*
X118392288Y-71610706D01*
X118298888Y-71590853D01*
X118211944Y-71572372D01*
X118211939Y-71572372D01*
X118205487Y-71571000D01*
X118014513Y-71571000D01*
X118008061Y-71572372D01*
X118008056Y-71572372D01*
X117921112Y-71590853D01*
X117827712Y-71610706D01*
X117821682Y-71613391D01*
X117821681Y-71613391D01*
X117659278Y-71685697D01*
X117659276Y-71685698D01*
X117653248Y-71688382D01*
X117498747Y-71800634D01*
X117494326Y-71805544D01*
X117494325Y-71805545D01*
X117446398Y-71858774D01*
X117370960Y-71942556D01*
X117275473Y-72107944D01*
X117273433Y-72114223D01*
X117272606Y-72116080D01*
X117226626Y-72170175D01*
X117158699Y-72190824D01*
X117090391Y-72171471D01*
X117042394Y-72116080D01*
X117041567Y-72114223D01*
X117039527Y-72107944D01*
X116944040Y-71942556D01*
X116868603Y-71858774D01*
X116820675Y-71805545D01*
X116820674Y-71805544D01*
X116816253Y-71800634D01*
X116661752Y-71688382D01*
X116655724Y-71685698D01*
X116655722Y-71685697D01*
X116493319Y-71613391D01*
X116493318Y-71613391D01*
X116487288Y-71610706D01*
X116393888Y-71590853D01*
X116306944Y-71572372D01*
X116306939Y-71572372D01*
X116300487Y-71571000D01*
X116109513Y-71571000D01*
X116103061Y-71572372D01*
X116103056Y-71572372D01*
X116016112Y-71590853D01*
X115922712Y-71610706D01*
X115916682Y-71613391D01*
X115916681Y-71613391D01*
X115754278Y-71685697D01*
X115754276Y-71685698D01*
X115748248Y-71688382D01*
X115593747Y-71800634D01*
X115589326Y-71805544D01*
X115589325Y-71805545D01*
X115541398Y-71858774D01*
X115465960Y-71942556D01*
X115370473Y-72107944D01*
X115311458Y-72289572D01*
X115291496Y-72479500D01*
X111038443Y-72479500D01*
X111101253Y-72433866D01*
X111180247Y-72346134D01*
X111224621Y-72296852D01*
X111224622Y-72296851D01*
X111229040Y-72291944D01*
X111324527Y-72126556D01*
X111383542Y-71944928D01*
X111403504Y-71755000D01*
X111396220Y-71685697D01*
X111384232Y-71571635D01*
X111384232Y-71571633D01*
X111383542Y-71565072D01*
X111324527Y-71383444D01*
X111229040Y-71218056D01*
X111183744Y-71167749D01*
X111105675Y-71081045D01*
X111105674Y-71081044D01*
X111101253Y-71076134D01*
X110946752Y-70963882D01*
X110940726Y-70961199D01*
X110940719Y-70961195D01*
X110795214Y-70896413D01*
X110741118Y-70850433D01*
X110720468Y-70782506D01*
X110726629Y-70742370D01*
X110741554Y-70696434D01*
X110748542Y-70674928D01*
X110750989Y-70651652D01*
X110767814Y-70491565D01*
X110768504Y-70485000D01*
X110751172Y-70320097D01*
X110749232Y-70301635D01*
X110749232Y-70301633D01*
X110748542Y-70295072D01*
X110689527Y-70113444D01*
X110594040Y-69948056D01*
X110548744Y-69897749D01*
X110505750Y-69850000D01*
X133706496Y-69850000D01*
X133707186Y-69856565D01*
X133723187Y-70008803D01*
X133726458Y-70039928D01*
X133785473Y-70221556D01*
X133880960Y-70386944D01*
X133885378Y-70391851D01*
X133885379Y-70391852D01*
X133947635Y-70460994D01*
X134008747Y-70528866D01*
X134163248Y-70641118D01*
X134169276Y-70643802D01*
X134169278Y-70643803D01*
X134331681Y-70716109D01*
X134337712Y-70718794D01*
X134418476Y-70735961D01*
X134518056Y-70757128D01*
X134518061Y-70757128D01*
X134524513Y-70758500D01*
X134715487Y-70758500D01*
X134721939Y-70757128D01*
X134721944Y-70757128D01*
X134821524Y-70735961D01*
X134902288Y-70718794D01*
X134908319Y-70716109D01*
X135070722Y-70643803D01*
X135070724Y-70643802D01*
X135076752Y-70641118D01*
X135231253Y-70528866D01*
X135292365Y-70460994D01*
X135354621Y-70391852D01*
X135354622Y-70391851D01*
X135359040Y-70386944D01*
X135454527Y-70221556D01*
X135513542Y-70039928D01*
X135516814Y-70008803D01*
X135532814Y-69856565D01*
X135533504Y-69850000D01*
X147041496Y-69850000D01*
X147042186Y-69856565D01*
X147058187Y-70008803D01*
X147061458Y-70039928D01*
X147120473Y-70221556D01*
X147215960Y-70386944D01*
X147220378Y-70391851D01*
X147220379Y-70391852D01*
X147282635Y-70460994D01*
X147343747Y-70528866D01*
X147498248Y-70641118D01*
X147504276Y-70643802D01*
X147504278Y-70643803D01*
X147666681Y-70716109D01*
X147672712Y-70718794D01*
X147753476Y-70735961D01*
X147853056Y-70757128D01*
X147853061Y-70757128D01*
X147859513Y-70758500D01*
X148050487Y-70758500D01*
X148056939Y-70757128D01*
X148056944Y-70757128D01*
X148156524Y-70735961D01*
X148237288Y-70718794D01*
X148243319Y-70716109D01*
X148405722Y-70643803D01*
X148405724Y-70643802D01*
X148411752Y-70641118D01*
X148566253Y-70528866D01*
X148627365Y-70460994D01*
X148689621Y-70391852D01*
X148689622Y-70391851D01*
X148694040Y-70386944D01*
X148789527Y-70221556D01*
X148848542Y-70039928D01*
X148851814Y-70008803D01*
X148867814Y-69856565D01*
X148868504Y-69850000D01*
X148856061Y-69731608D01*
X148849232Y-69666635D01*
X148849232Y-69666633D01*
X148848542Y-69660072D01*
X148789527Y-69478444D01*
X148694040Y-69313056D01*
X148648744Y-69262749D01*
X148570675Y-69176045D01*
X148570674Y-69176044D01*
X148566253Y-69171134D01*
X148411752Y-69058882D01*
X148405724Y-69056198D01*
X148405722Y-69056197D01*
X148243319Y-68983891D01*
X148243318Y-68983891D01*
X148237288Y-68981206D01*
X148124721Y-68957279D01*
X148056944Y-68942872D01*
X148056939Y-68942872D01*
X148050487Y-68941500D01*
X147859513Y-68941500D01*
X147853061Y-68942872D01*
X147853056Y-68942872D01*
X147785279Y-68957279D01*
X147672712Y-68981206D01*
X147666682Y-68983891D01*
X147666681Y-68983891D01*
X147504278Y-69056197D01*
X147504276Y-69056198D01*
X147498248Y-69058882D01*
X147343747Y-69171134D01*
X147339326Y-69176044D01*
X147339325Y-69176045D01*
X147261257Y-69262749D01*
X147215960Y-69313056D01*
X147120473Y-69478444D01*
X147061458Y-69660072D01*
X147060768Y-69666633D01*
X147060768Y-69666635D01*
X147053939Y-69731608D01*
X147041496Y-69850000D01*
X135533504Y-69850000D01*
X135521061Y-69731608D01*
X135514232Y-69666635D01*
X135514232Y-69666633D01*
X135513542Y-69660072D01*
X135454527Y-69478444D01*
X135359040Y-69313056D01*
X135313744Y-69262749D01*
X135235675Y-69176045D01*
X135235674Y-69176044D01*
X135231253Y-69171134D01*
X135076752Y-69058882D01*
X135070724Y-69056198D01*
X135070722Y-69056197D01*
X134908319Y-68983891D01*
X134908318Y-68983891D01*
X134902288Y-68981206D01*
X134789721Y-68957279D01*
X134721944Y-68942872D01*
X134721939Y-68942872D01*
X134715487Y-68941500D01*
X134524513Y-68941500D01*
X134518061Y-68942872D01*
X134518056Y-68942872D01*
X134450279Y-68957279D01*
X134337712Y-68981206D01*
X134331682Y-68983891D01*
X134331681Y-68983891D01*
X134169278Y-69056197D01*
X134169276Y-69056198D01*
X134163248Y-69058882D01*
X134008747Y-69171134D01*
X134004326Y-69176044D01*
X134004325Y-69176045D01*
X133926257Y-69262749D01*
X133880960Y-69313056D01*
X133785473Y-69478444D01*
X133726458Y-69660072D01*
X133725768Y-69666633D01*
X133725768Y-69666635D01*
X133718939Y-69731608D01*
X133706496Y-69850000D01*
X110505750Y-69850000D01*
X110470675Y-69811045D01*
X110470674Y-69811044D01*
X110466253Y-69806134D01*
X110311752Y-69693882D01*
X110305724Y-69691198D01*
X110305722Y-69691197D01*
X110143319Y-69618891D01*
X110143318Y-69618891D01*
X110137288Y-69616206D01*
X110130827Y-69614833D01*
X110130825Y-69614832D01*
X110115590Y-69611593D01*
X110053117Y-69577864D01*
X110021956Y-69527284D01*
X109984813Y-69412971D01*
X109982772Y-69406689D01*
X109887285Y-69241301D01*
X109863604Y-69215000D01*
X109763920Y-69104290D01*
X109763919Y-69104289D01*
X109759498Y-69099379D01*
X109604997Y-68987127D01*
X109598964Y-68984441D01*
X109598959Y-68984438D01*
X109547470Y-68961513D01*
X109493374Y-68915533D01*
X109473409Y-68859578D01*
X109463049Y-68761005D01*
X109463048Y-68761002D01*
X109462359Y-68754443D01*
X109403344Y-68572815D01*
X109379925Y-68532251D01*
X109373833Y-68521700D01*
X109357095Y-68452704D01*
X109373833Y-68395700D01*
X109416223Y-68322279D01*
X109416224Y-68322278D01*
X109419527Y-68316556D01*
X109478542Y-68134928D01*
X109498504Y-67945000D01*
X120371496Y-67945000D01*
X120391458Y-68134928D01*
X120450473Y-68316556D01*
X120545960Y-68481944D01*
X120550378Y-68486851D01*
X120550379Y-68486852D01*
X120634250Y-68580000D01*
X120673747Y-68623866D01*
X120828248Y-68736118D01*
X120834276Y-68738802D01*
X120834278Y-68738803D01*
X120996681Y-68811109D01*
X121002712Y-68813794D01*
X121096113Y-68833647D01*
X121183056Y-68852128D01*
X121183061Y-68852128D01*
X121189513Y-68853500D01*
X121380487Y-68853500D01*
X121386939Y-68852128D01*
X121386944Y-68852128D01*
X121473887Y-68833647D01*
X121567288Y-68813794D01*
X121573319Y-68811109D01*
X121735722Y-68738803D01*
X121735724Y-68738802D01*
X121741752Y-68736118D01*
X121896253Y-68623866D01*
X121935750Y-68580000D01*
X136881496Y-68580000D01*
X136882186Y-68586565D01*
X136899171Y-68748165D01*
X136901458Y-68769928D01*
X136960473Y-68951556D01*
X137055960Y-69116944D01*
X137060378Y-69121851D01*
X137060379Y-69121852D01*
X137104753Y-69171134D01*
X137183747Y-69258866D01*
X137338248Y-69371118D01*
X137344276Y-69373802D01*
X137344278Y-69373803D01*
X137506681Y-69446109D01*
X137512712Y-69448794D01*
X137606112Y-69468647D01*
X137693056Y-69487128D01*
X137693061Y-69487128D01*
X137699513Y-69488500D01*
X137890487Y-69488500D01*
X137896939Y-69487128D01*
X137896944Y-69487128D01*
X137983888Y-69468647D01*
X138077288Y-69448794D01*
X138083319Y-69446109D01*
X138245722Y-69373803D01*
X138245724Y-69373802D01*
X138251752Y-69371118D01*
X138406253Y-69258866D01*
X138485247Y-69171134D01*
X138529621Y-69121852D01*
X138529622Y-69121851D01*
X138534040Y-69116944D01*
X138629527Y-68951556D01*
X138688542Y-68769928D01*
X138690830Y-68748165D01*
X138707814Y-68586565D01*
X138708504Y-68580000D01*
X138703485Y-68532251D01*
X138689232Y-68396635D01*
X138689232Y-68396633D01*
X138688542Y-68390072D01*
X138629527Y-68208444D01*
X138534040Y-68043056D01*
X138445750Y-67945000D01*
X140691496Y-67945000D01*
X140711458Y-68134928D01*
X140770473Y-68316556D01*
X140865960Y-68481944D01*
X140870378Y-68486851D01*
X140870379Y-68486852D01*
X140954250Y-68580000D01*
X140993747Y-68623866D01*
X141148248Y-68736118D01*
X141154276Y-68738802D01*
X141154278Y-68738803D01*
X141316681Y-68811109D01*
X141322712Y-68813794D01*
X141416113Y-68833647D01*
X141503056Y-68852128D01*
X141503061Y-68852128D01*
X141509513Y-68853500D01*
X141700487Y-68853500D01*
X141706939Y-68852128D01*
X141706944Y-68852128D01*
X141793887Y-68833647D01*
X141887288Y-68813794D01*
X141893319Y-68811109D01*
X142055722Y-68738803D01*
X142055724Y-68738802D01*
X142061752Y-68736118D01*
X142216253Y-68623866D01*
X142255750Y-68580000D01*
X142339621Y-68486852D01*
X142339622Y-68486851D01*
X142344040Y-68481944D01*
X142439527Y-68316556D01*
X142498542Y-68134928D01*
X142518504Y-67945000D01*
X142513485Y-67897251D01*
X142499232Y-67761635D01*
X142499232Y-67761633D01*
X142498542Y-67755072D01*
X142439527Y-67573444D01*
X142344040Y-67408056D01*
X142298744Y-67357749D01*
X142220675Y-67271045D01*
X142220674Y-67271044D01*
X142216253Y-67266134D01*
X142061752Y-67153882D01*
X142055724Y-67151198D01*
X142055722Y-67151197D01*
X141893319Y-67078891D01*
X141893318Y-67078891D01*
X141887288Y-67076206D01*
X141774721Y-67052279D01*
X141706944Y-67037872D01*
X141706939Y-67037872D01*
X141700487Y-67036500D01*
X141509513Y-67036500D01*
X141503061Y-67037872D01*
X141503056Y-67037872D01*
X141435279Y-67052279D01*
X141322712Y-67076206D01*
X141316682Y-67078891D01*
X141316681Y-67078891D01*
X141154278Y-67151197D01*
X141154276Y-67151198D01*
X141148248Y-67153882D01*
X140993747Y-67266134D01*
X140989326Y-67271044D01*
X140989325Y-67271045D01*
X140911257Y-67357749D01*
X140865960Y-67408056D01*
X140770473Y-67573444D01*
X140711458Y-67755072D01*
X140710768Y-67761633D01*
X140710768Y-67761635D01*
X140696515Y-67897251D01*
X140691496Y-67945000D01*
X138445750Y-67945000D01*
X138406253Y-67901134D01*
X138251752Y-67788882D01*
X138245724Y-67786198D01*
X138245722Y-67786197D01*
X138083319Y-67713891D01*
X138083318Y-67713891D01*
X138077288Y-67711206D01*
X137983888Y-67691353D01*
X137896944Y-67672872D01*
X137896939Y-67672872D01*
X137890487Y-67671500D01*
X137699513Y-67671500D01*
X137693061Y-67672872D01*
X137693056Y-67672872D01*
X137606112Y-67691353D01*
X137512712Y-67711206D01*
X137506682Y-67713891D01*
X137506681Y-67713891D01*
X137344278Y-67786197D01*
X137344276Y-67786198D01*
X137338248Y-67788882D01*
X137183747Y-67901134D01*
X137055960Y-68043056D01*
X136960473Y-68208444D01*
X136901458Y-68390072D01*
X136900768Y-68396633D01*
X136900768Y-68396635D01*
X136886515Y-68532251D01*
X136881496Y-68580000D01*
X121935750Y-68580000D01*
X122019621Y-68486852D01*
X122019622Y-68486851D01*
X122024040Y-68481944D01*
X122119527Y-68316556D01*
X122178542Y-68134928D01*
X122198504Y-67945000D01*
X122193485Y-67897251D01*
X122179232Y-67761635D01*
X122179232Y-67761633D01*
X122178542Y-67755072D01*
X122119527Y-67573444D01*
X122024040Y-67408056D01*
X121978744Y-67357749D01*
X121900675Y-67271045D01*
X121900674Y-67271044D01*
X121896253Y-67266134D01*
X121741752Y-67153882D01*
X121735724Y-67151198D01*
X121735722Y-67151197D01*
X121573319Y-67078891D01*
X121573318Y-67078891D01*
X121567288Y-67076206D01*
X121454721Y-67052279D01*
X121386944Y-67037872D01*
X121386939Y-67037872D01*
X121380487Y-67036500D01*
X121189513Y-67036500D01*
X121183061Y-67037872D01*
X121183056Y-67037872D01*
X121115279Y-67052279D01*
X121002712Y-67076206D01*
X120996682Y-67078891D01*
X120996681Y-67078891D01*
X120834278Y-67151197D01*
X120834276Y-67151198D01*
X120828248Y-67153882D01*
X120673747Y-67266134D01*
X120669326Y-67271044D01*
X120669325Y-67271045D01*
X120591257Y-67357749D01*
X120545960Y-67408056D01*
X120450473Y-67573444D01*
X120391458Y-67755072D01*
X120390768Y-67761633D01*
X120390768Y-67761635D01*
X120376515Y-67897251D01*
X120371496Y-67945000D01*
X109498504Y-67945000D01*
X109493485Y-67897251D01*
X109479232Y-67761635D01*
X109479232Y-67761633D01*
X109478542Y-67755072D01*
X109419527Y-67573444D01*
X109324040Y-67408056D01*
X109278744Y-67357749D01*
X109200675Y-67271045D01*
X109200674Y-67271044D01*
X109196253Y-67266134D01*
X109041752Y-67153882D01*
X109035724Y-67151198D01*
X109035722Y-67151197D01*
X108873319Y-67078891D01*
X108873318Y-67078891D01*
X108867288Y-67076206D01*
X108801668Y-67062258D01*
X108739195Y-67028529D01*
X108704873Y-66966380D01*
X108709601Y-66895541D01*
X108751877Y-66838503D01*
X108818278Y-66813376D01*
X108827865Y-66813011D01*
X113144504Y-66813011D01*
X113206009Y-66829491D01*
X113208248Y-66831118D01*
X113214275Y-66833801D01*
X113214276Y-66833802D01*
X113333018Y-66886669D01*
X113382712Y-66908794D01*
X113460799Y-66925392D01*
X113563056Y-66947128D01*
X113563061Y-66947128D01*
X113569513Y-66948500D01*
X113760487Y-66948500D01*
X113766939Y-66947128D01*
X113766944Y-66947128D01*
X113869201Y-66925392D01*
X113947288Y-66908794D01*
X113996982Y-66886669D01*
X114115722Y-66833803D01*
X114115724Y-66833802D01*
X114121752Y-66831118D01*
X114276253Y-66718866D01*
X114315750Y-66675000D01*
X134976496Y-66675000D01*
X134977186Y-66681565D01*
X134993681Y-66838503D01*
X134996458Y-66864928D01*
X135055473Y-67046556D01*
X135058776Y-67052278D01*
X135058777Y-67052279D01*
X135071799Y-67074834D01*
X135150960Y-67211944D01*
X135155378Y-67216851D01*
X135155379Y-67216852D01*
X135199753Y-67266134D01*
X135278747Y-67353866D01*
X135433248Y-67466118D01*
X135439276Y-67468802D01*
X135439278Y-67468803D01*
X135601681Y-67541109D01*
X135607712Y-67543794D01*
X135701112Y-67563647D01*
X135788056Y-67582128D01*
X135788061Y-67582128D01*
X135794513Y-67583500D01*
X135985487Y-67583500D01*
X135991939Y-67582128D01*
X135991944Y-67582128D01*
X136078888Y-67563647D01*
X136172288Y-67543794D01*
X136178319Y-67541109D01*
X136340722Y-67468803D01*
X136340724Y-67468802D01*
X136346752Y-67466118D01*
X136501253Y-67353866D01*
X136580247Y-67266134D01*
X136624621Y-67216852D01*
X136624622Y-67216851D01*
X136629040Y-67211944D01*
X136708201Y-67074834D01*
X136721223Y-67052279D01*
X136721224Y-67052278D01*
X136724527Y-67046556D01*
X136783542Y-66864928D01*
X136786320Y-66838503D01*
X136802814Y-66681565D01*
X136803504Y-66675000D01*
X136783542Y-66485072D01*
X136724527Y-66303444D01*
X136629040Y-66138056D01*
X136501253Y-65996134D01*
X136346752Y-65883882D01*
X136340724Y-65881198D01*
X136340722Y-65881197D01*
X136178319Y-65808891D01*
X136178318Y-65808891D01*
X136172288Y-65806206D01*
X136078888Y-65786353D01*
X135991944Y-65767872D01*
X135991939Y-65767872D01*
X135985487Y-65766500D01*
X135794513Y-65766500D01*
X135788061Y-65767872D01*
X135788056Y-65767872D01*
X135701112Y-65786353D01*
X135607712Y-65806206D01*
X135601682Y-65808891D01*
X135601681Y-65808891D01*
X135439278Y-65881197D01*
X135439276Y-65881198D01*
X135433248Y-65883882D01*
X135278747Y-65996134D01*
X135150960Y-66138056D01*
X135055473Y-66303444D01*
X134996458Y-66485072D01*
X134976496Y-66675000D01*
X114315750Y-66675000D01*
X114404040Y-66576944D01*
X114499527Y-66411556D01*
X114558542Y-66229928D01*
X114578504Y-66040000D01*
X114573485Y-65992251D01*
X114559232Y-65856635D01*
X114559232Y-65856633D01*
X114558542Y-65850072D01*
X114499527Y-65668444D01*
X114483201Y-65640166D01*
X114483187Y-65640141D01*
X114466450Y-65571146D01*
X114489672Y-65504054D01*
X114503212Y-65488048D01*
X114863111Y-65128149D01*
X114925423Y-65094123D01*
X114996238Y-65099188D01*
X115045842Y-65132934D01*
X115097350Y-65190139D01*
X115154264Y-65253349D01*
X115173151Y-65267071D01*
X115302617Y-65361134D01*
X115308765Y-65365601D01*
X115314793Y-65368285D01*
X115314795Y-65368286D01*
X115477196Y-65440591D01*
X115483229Y-65443277D01*
X115576629Y-65463130D01*
X115663573Y-65481611D01*
X115663578Y-65481611D01*
X115670030Y-65482983D01*
X115861004Y-65482983D01*
X115867456Y-65481611D01*
X115867461Y-65481611D01*
X116021511Y-65448866D01*
X116047805Y-65443277D01*
X116090667Y-65424194D01*
X116161032Y-65414760D01*
X116225600Y-65445371D01*
X116228747Y-65448866D01*
X116234089Y-65452747D01*
X116234091Y-65452749D01*
X116377906Y-65557237D01*
X116383248Y-65561118D01*
X116389276Y-65563802D01*
X116389278Y-65563803D01*
X116405771Y-65571146D01*
X116557712Y-65638794D01*
X116651112Y-65658647D01*
X116738056Y-65677128D01*
X116738061Y-65677128D01*
X116744513Y-65678500D01*
X116935487Y-65678500D01*
X116941939Y-65677128D01*
X116941944Y-65677128D01*
X117028888Y-65658647D01*
X117122288Y-65638794D01*
X117274229Y-65571146D01*
X117290722Y-65563803D01*
X117290724Y-65563802D01*
X117296752Y-65561118D01*
X117303227Y-65556414D01*
X117368797Y-65508774D01*
X117451253Y-65448866D01*
X117456285Y-65443277D01*
X117574621Y-65311852D01*
X117574622Y-65311851D01*
X117579040Y-65306944D01*
X117674527Y-65141556D01*
X117733542Y-64959928D01*
X117736814Y-64928803D01*
X117752814Y-64776565D01*
X117753504Y-64770000D01*
X119101496Y-64770000D01*
X119102186Y-64776565D01*
X119118187Y-64928803D01*
X119121458Y-64959928D01*
X119180473Y-65141556D01*
X119275960Y-65306944D01*
X119280378Y-65311851D01*
X119280379Y-65311852D01*
X119398715Y-65443277D01*
X119403747Y-65448866D01*
X119486203Y-65508774D01*
X119551774Y-65556414D01*
X119558248Y-65561118D01*
X119564276Y-65563802D01*
X119564278Y-65563803D01*
X119580771Y-65571146D01*
X119732712Y-65638794D01*
X119826112Y-65658647D01*
X119913056Y-65677128D01*
X119913061Y-65677128D01*
X119919513Y-65678500D01*
X120110487Y-65678500D01*
X120116939Y-65677128D01*
X120116944Y-65677128D01*
X120203888Y-65658647D01*
X120297288Y-65638794D01*
X120449229Y-65571146D01*
X120465722Y-65563803D01*
X120465724Y-65563802D01*
X120471752Y-65561118D01*
X120478227Y-65556414D01*
X120543797Y-65508774D01*
X120626253Y-65448866D01*
X120631285Y-65443277D01*
X120749621Y-65311852D01*
X120749622Y-65311851D01*
X120754040Y-65306944D01*
X120849527Y-65141556D01*
X120908542Y-64959928D01*
X120911814Y-64928803D01*
X120927814Y-64776565D01*
X120928504Y-64770000D01*
X120908542Y-64580072D01*
X120849527Y-64398444D01*
X120754040Y-64233056D01*
X120708744Y-64182749D01*
X120630675Y-64096045D01*
X120630674Y-64096044D01*
X120626253Y-64091134D01*
X120471752Y-63978882D01*
X120465724Y-63976198D01*
X120465722Y-63976197D01*
X120303319Y-63903891D01*
X120303318Y-63903891D01*
X120297288Y-63901206D01*
X120184721Y-63877279D01*
X120116944Y-63862872D01*
X120116939Y-63862872D01*
X120110487Y-63861500D01*
X119919513Y-63861500D01*
X119913061Y-63862872D01*
X119913056Y-63862872D01*
X119845279Y-63877279D01*
X119732712Y-63901206D01*
X119726682Y-63903891D01*
X119726681Y-63903891D01*
X119564278Y-63976197D01*
X119564276Y-63976198D01*
X119558248Y-63978882D01*
X119403747Y-64091134D01*
X119399326Y-64096044D01*
X119399325Y-64096045D01*
X119321257Y-64182749D01*
X119275960Y-64233056D01*
X119180473Y-64398444D01*
X119121458Y-64580072D01*
X119101496Y-64770000D01*
X117753504Y-64770000D01*
X117733542Y-64580072D01*
X117674527Y-64398444D01*
X117579040Y-64233056D01*
X117533744Y-64182749D01*
X117455675Y-64096045D01*
X117455674Y-64096044D01*
X117451253Y-64091134D01*
X117296752Y-63978882D01*
X117290724Y-63976198D01*
X117290722Y-63976197D01*
X117128319Y-63903891D01*
X117128318Y-63903891D01*
X117122288Y-63901206D01*
X117009721Y-63877279D01*
X116941944Y-63862872D01*
X116941939Y-63862872D01*
X116935487Y-63861500D01*
X116744513Y-63861500D01*
X116738061Y-63862872D01*
X116738056Y-63862872D01*
X116602255Y-63891738D01*
X116557712Y-63901206D01*
X116514850Y-63920289D01*
X116444485Y-63929723D01*
X116379917Y-63899112D01*
X116376770Y-63895617D01*
X116333293Y-63864029D01*
X116289941Y-63807807D01*
X116283866Y-63737071D01*
X116318261Y-63672999D01*
X116491260Y-63500000D01*
X123546496Y-63500000D01*
X123547186Y-63506565D01*
X123563187Y-63658803D01*
X123566458Y-63689928D01*
X123625473Y-63871556D01*
X123720960Y-64036944D01*
X123725378Y-64041851D01*
X123725379Y-64041852D01*
X123814792Y-64141155D01*
X123848747Y-64178866D01*
X124003248Y-64291118D01*
X124009276Y-64293802D01*
X124009278Y-64293803D01*
X124171681Y-64366109D01*
X124177712Y-64368794D01*
X124271113Y-64388647D01*
X124358056Y-64407128D01*
X124358061Y-64407128D01*
X124364513Y-64408500D01*
X124555487Y-64408500D01*
X124561939Y-64407128D01*
X124561944Y-64407128D01*
X124648887Y-64388647D01*
X124742288Y-64368794D01*
X124748319Y-64366109D01*
X124910722Y-64293803D01*
X124910724Y-64293802D01*
X124916752Y-64291118D01*
X125071253Y-64178866D01*
X125105208Y-64141155D01*
X125194621Y-64041852D01*
X125194622Y-64041851D01*
X125199040Y-64036944D01*
X125294527Y-63871556D01*
X125353542Y-63689928D01*
X125356814Y-63658803D01*
X125372814Y-63506565D01*
X125373504Y-63500000D01*
X125368894Y-63456134D01*
X125354232Y-63316635D01*
X125354232Y-63316633D01*
X125353542Y-63310072D01*
X125294527Y-63128444D01*
X125281995Y-63106737D01*
X125247776Y-63047469D01*
X125199040Y-62963056D01*
X125153744Y-62912749D01*
X125075675Y-62826045D01*
X125075674Y-62826044D01*
X125071253Y-62821134D01*
X124916752Y-62708882D01*
X124910724Y-62706198D01*
X124910722Y-62706197D01*
X124748319Y-62633891D01*
X124748318Y-62633891D01*
X124742288Y-62631206D01*
X124629721Y-62607279D01*
X124561944Y-62592872D01*
X124561939Y-62592872D01*
X124555487Y-62591500D01*
X124364513Y-62591500D01*
X124358061Y-62592872D01*
X124358056Y-62592872D01*
X124290279Y-62607279D01*
X124177712Y-62631206D01*
X124171682Y-62633891D01*
X124171681Y-62633891D01*
X124009278Y-62706197D01*
X124009276Y-62706198D01*
X124003248Y-62708882D01*
X123848747Y-62821134D01*
X123844326Y-62826044D01*
X123844325Y-62826045D01*
X123766257Y-62912749D01*
X123720960Y-62963056D01*
X123672224Y-63047469D01*
X123638006Y-63106737D01*
X123625473Y-63128444D01*
X123566458Y-63310072D01*
X123565768Y-63316633D01*
X123565768Y-63316635D01*
X123551106Y-63456134D01*
X123546496Y-63500000D01*
X116491260Y-63500000D01*
X119583928Y-60407332D01*
X119646240Y-60373306D01*
X119698140Y-60372956D01*
X119848597Y-60403567D01*
X119853772Y-60403757D01*
X119853774Y-60403757D01*
X120066673Y-60411564D01*
X120066677Y-60411564D01*
X120071837Y-60411753D01*
X120211908Y-60393809D01*
X120282017Y-60404993D01*
X120317012Y-60429693D01*
X121336230Y-61448911D01*
X121348616Y-61463323D01*
X121357149Y-61474918D01*
X121357154Y-61474923D01*
X121361492Y-61480818D01*
X121367070Y-61485557D01*
X121367073Y-61485560D01*
X121401768Y-61515035D01*
X121409284Y-61521965D01*
X121414979Y-61527660D01*
X121417861Y-61529940D01*
X121437251Y-61545281D01*
X121440655Y-61548072D01*
X121490703Y-61590591D01*
X121496285Y-61595333D01*
X121502801Y-61598661D01*
X121507850Y-61602028D01*
X121512979Y-61605195D01*
X121518716Y-61609734D01*
X121584875Y-61640655D01*
X121588769Y-61642558D01*
X121653808Y-61675769D01*
X121660916Y-61677508D01*
X121666559Y-61679607D01*
X121672322Y-61681524D01*
X121678950Y-61684622D01*
X121686112Y-61686112D01*
X121693066Y-61688425D01*
X121692216Y-61690979D01*
X121743813Y-61718555D01*
X121778395Y-61780560D01*
X121773966Y-61851418D01*
X121764639Y-61871446D01*
X121720473Y-61947944D01*
X121661458Y-62129572D01*
X121641496Y-62319500D01*
X121642186Y-62326065D01*
X121660439Y-62499729D01*
X121661458Y-62509428D01*
X121720473Y-62691056D01*
X121723776Y-62696778D01*
X121723777Y-62696779D01*
X121742459Y-62729137D01*
X121815960Y-62856444D01*
X121820378Y-62861351D01*
X121820379Y-62861352D01*
X121911954Y-62963056D01*
X121943747Y-62998366D01*
X122042843Y-63070364D01*
X122066600Y-63087624D01*
X122098248Y-63110618D01*
X122104276Y-63113302D01*
X122104278Y-63113303D01*
X122160872Y-63138500D01*
X122272712Y-63188294D01*
X122333543Y-63201224D01*
X122453056Y-63226628D01*
X122453061Y-63226628D01*
X122459513Y-63228000D01*
X122650487Y-63228000D01*
X122656939Y-63226628D01*
X122656944Y-63226628D01*
X122776457Y-63201224D01*
X122837288Y-63188294D01*
X122949128Y-63138500D01*
X123005722Y-63113303D01*
X123005724Y-63113302D01*
X123011752Y-63110618D01*
X123043401Y-63087624D01*
X123067157Y-63070364D01*
X123166253Y-62998366D01*
X123198046Y-62963056D01*
X123289621Y-62861352D01*
X123289622Y-62861351D01*
X123294040Y-62856444D01*
X123367541Y-62729137D01*
X123386223Y-62696779D01*
X123386224Y-62696778D01*
X123389527Y-62691056D01*
X123448542Y-62509428D01*
X123449562Y-62499729D01*
X123467814Y-62326065D01*
X123468504Y-62319500D01*
X123448542Y-62129572D01*
X123389527Y-61947944D01*
X123366176Y-61907499D01*
X123349439Y-61838504D01*
X123372660Y-61771412D01*
X123428467Y-61727525D01*
X123475296Y-61718500D01*
X133657520Y-61718500D01*
X133725641Y-61738502D01*
X133772134Y-61792158D01*
X133782238Y-61862432D01*
X133777355Y-61883429D01*
X133726458Y-62040072D01*
X133725768Y-62046633D01*
X133725768Y-62046635D01*
X133717711Y-62123294D01*
X133706496Y-62230000D01*
X133707186Y-62236565D01*
X133725241Y-62408345D01*
X133726458Y-62419928D01*
X133785473Y-62601556D01*
X133880960Y-62766944D01*
X133885378Y-62771851D01*
X133885379Y-62771852D01*
X133961546Y-62856444D01*
X134008747Y-62908866D01*
X134163248Y-63021118D01*
X134169276Y-63023802D01*
X134169278Y-63023803D01*
X134331681Y-63096109D01*
X134337712Y-63098794D01*
X134431113Y-63118647D01*
X134518056Y-63137128D01*
X134518061Y-63137128D01*
X134524513Y-63138500D01*
X134715487Y-63138500D01*
X134721939Y-63137128D01*
X134721944Y-63137128D01*
X134808887Y-63118647D01*
X134902288Y-63098794D01*
X134908319Y-63096109D01*
X135070722Y-63023803D01*
X135070724Y-63023802D01*
X135076752Y-63021118D01*
X135231253Y-62908866D01*
X135278454Y-62856444D01*
X135354621Y-62771852D01*
X135354622Y-62771851D01*
X135359040Y-62766944D01*
X135454527Y-62601556D01*
X135513542Y-62419928D01*
X135514760Y-62408345D01*
X135532814Y-62236565D01*
X135533504Y-62230000D01*
X135522289Y-62123294D01*
X135514232Y-62046635D01*
X135514232Y-62046633D01*
X135513542Y-62040072D01*
X135462647Y-61883434D01*
X135460619Y-61812469D01*
X135497281Y-61751671D01*
X135560994Y-61720346D01*
X135582480Y-61718500D01*
X138102520Y-61718500D01*
X138170641Y-61738502D01*
X138217134Y-61792158D01*
X138227238Y-61862432D01*
X138222355Y-61883429D01*
X138171458Y-62040072D01*
X138170768Y-62046633D01*
X138170768Y-62046635D01*
X138162711Y-62123294D01*
X138151496Y-62230000D01*
X138152186Y-62236565D01*
X138170241Y-62408345D01*
X138171458Y-62419928D01*
X138230473Y-62601556D01*
X138325960Y-62766944D01*
X138330378Y-62771851D01*
X138330379Y-62771852D01*
X138406546Y-62856444D01*
X138453747Y-62908866D01*
X138608248Y-63021118D01*
X138614276Y-63023802D01*
X138614278Y-63023803D01*
X138776681Y-63096109D01*
X138782712Y-63098794D01*
X138876113Y-63118647D01*
X138963056Y-63137128D01*
X138963061Y-63137128D01*
X138969513Y-63138500D01*
X139160487Y-63138500D01*
X139166939Y-63137128D01*
X139166944Y-63137128D01*
X139253887Y-63118647D01*
X139347288Y-63098794D01*
X139353319Y-63096109D01*
X139515722Y-63023803D01*
X139515724Y-63023802D01*
X139521752Y-63021118D01*
X139676253Y-62908866D01*
X139723454Y-62856444D01*
X139799621Y-62771852D01*
X139799622Y-62771851D01*
X139804040Y-62766944D01*
X139899527Y-62601556D01*
X139958542Y-62419928D01*
X139959760Y-62408345D01*
X139977814Y-62236565D01*
X139978504Y-62230000D01*
X139967289Y-62123294D01*
X139959232Y-62046635D01*
X139959232Y-62046633D01*
X139958542Y-62040072D01*
X139899527Y-61858444D01*
X139883203Y-61830169D01*
X139823941Y-61727525D01*
X139804040Y-61693056D01*
X139791931Y-61679607D01*
X139680675Y-61556045D01*
X139680674Y-61556044D01*
X139676253Y-61551134D01*
X139521752Y-61438882D01*
X139515724Y-61436198D01*
X139515722Y-61436197D01*
X139353317Y-61363890D01*
X139353315Y-61363889D01*
X139347288Y-61361206D01*
X139347212Y-61361190D01*
X139290603Y-61322479D01*
X139262969Y-61257081D01*
X139275078Y-61187125D01*
X139299053Y-61153628D01*
X140007276Y-60445405D01*
X140069588Y-60411379D01*
X140096371Y-60408500D01*
X141228134Y-60408500D01*
X141290316Y-60401745D01*
X141426705Y-60350615D01*
X141543261Y-60263261D01*
X141630615Y-60146705D01*
X141681745Y-60010316D01*
X141686396Y-59967500D01*
X143231496Y-59967500D01*
X143232186Y-59974065D01*
X143244810Y-60094172D01*
X143251458Y-60157428D01*
X143310473Y-60339056D01*
X143313776Y-60344778D01*
X143313777Y-60344779D01*
X143318966Y-60353767D01*
X143405960Y-60504444D01*
X143533747Y-60646366D01*
X143688248Y-60758618D01*
X143694276Y-60761302D01*
X143694278Y-60761303D01*
X143856681Y-60833609D01*
X143862712Y-60836294D01*
X143956113Y-60856147D01*
X144043056Y-60874628D01*
X144043061Y-60874628D01*
X144049513Y-60876000D01*
X144240487Y-60876000D01*
X144246939Y-60874628D01*
X144246944Y-60874628D01*
X144333887Y-60856147D01*
X144427288Y-60836294D01*
X144433319Y-60833609D01*
X144595722Y-60761303D01*
X144595724Y-60761302D01*
X144601752Y-60758618D01*
X144756253Y-60646366D01*
X144884040Y-60504444D01*
X144971034Y-60353767D01*
X144976223Y-60344779D01*
X144976224Y-60344778D01*
X144979527Y-60339056D01*
X145038542Y-60157428D01*
X145045191Y-60094172D01*
X145057814Y-59974065D01*
X145058504Y-59967500D01*
X145056109Y-59944717D01*
X145039232Y-59784135D01*
X145039232Y-59784133D01*
X145038542Y-59777572D01*
X144979527Y-59595944D01*
X144884040Y-59430556D01*
X144756253Y-59288634D01*
X144601752Y-59176382D01*
X144595724Y-59173698D01*
X144595722Y-59173697D01*
X144433319Y-59101391D01*
X144433318Y-59101391D01*
X144427288Y-59098706D01*
X144333888Y-59078853D01*
X144246944Y-59060372D01*
X144246939Y-59060372D01*
X144240487Y-59059000D01*
X144049513Y-59059000D01*
X144043061Y-59060372D01*
X144043056Y-59060372D01*
X143956112Y-59078853D01*
X143862712Y-59098706D01*
X143856682Y-59101391D01*
X143856681Y-59101391D01*
X143694278Y-59173697D01*
X143694276Y-59173698D01*
X143688248Y-59176382D01*
X143533747Y-59288634D01*
X143405960Y-59430556D01*
X143310473Y-59595944D01*
X143251458Y-59777572D01*
X143250768Y-59784133D01*
X143250768Y-59784135D01*
X143233891Y-59944717D01*
X143231496Y-59967500D01*
X141686396Y-59967500D01*
X141688500Y-59948134D01*
X141688500Y-58151866D01*
X141681745Y-58089684D01*
X141630615Y-57953295D01*
X141543261Y-57836739D01*
X141426705Y-57749385D01*
X141307687Y-57704767D01*
X141250923Y-57662125D01*
X141226223Y-57595564D01*
X141241430Y-57526215D01*
X141262977Y-57497535D01*
X141364052Y-57396812D01*
X141370730Y-57388965D01*
X141495003Y-57216020D01*
X141500313Y-57207183D01*
X141592250Y-57021164D01*
X141592324Y-57013233D01*
X141585416Y-57010000D01*
X139067266Y-57010000D01*
X139067266Y-57009008D01*
X139055659Y-57010229D01*
X139052657Y-57010000D01*
X137416000Y-57010000D01*
X137347879Y-56989998D01*
X137301386Y-56936342D01*
X137290000Y-56884000D01*
X137290000Y-55991885D01*
X138290000Y-55991885D01*
X138294475Y-56007124D01*
X138295865Y-56008329D01*
X138303548Y-56010000D01*
X139053491Y-56010000D01*
X139053491Y-56011775D01*
X139064842Y-56010981D01*
X139064842Y-56010000D01*
X139811885Y-56010000D01*
X139827124Y-56005525D01*
X139828329Y-56004135D01*
X139830000Y-55996452D01*
X139830000Y-55991885D01*
X140830000Y-55991885D01*
X140834475Y-56007124D01*
X140835865Y-56008329D01*
X140843548Y-56010000D01*
X141575376Y-56010000D01*
X141588907Y-56006027D01*
X141589617Y-56001089D01*
X141532972Y-55870814D01*
X141528105Y-55861739D01*
X141412426Y-55682926D01*
X141406136Y-55674757D01*
X141267592Y-55522500D01*
X142596496Y-55522500D01*
X142597186Y-55529065D01*
X142612869Y-55678277D01*
X142616458Y-55712428D01*
X142675473Y-55894056D01*
X142770960Y-56059444D01*
X142898747Y-56201366D01*
X143053248Y-56313618D01*
X143059276Y-56316302D01*
X143059278Y-56316303D01*
X143221681Y-56388609D01*
X143227712Y-56391294D01*
X143321112Y-56411147D01*
X143408056Y-56429628D01*
X143408061Y-56429628D01*
X143414513Y-56431000D01*
X143605487Y-56431000D01*
X143611939Y-56429628D01*
X143611944Y-56429628D01*
X143698888Y-56411147D01*
X143792288Y-56391294D01*
X143798319Y-56388609D01*
X143960722Y-56316303D01*
X143960724Y-56316302D01*
X143966752Y-56313618D01*
X144121253Y-56201366D01*
X144249040Y-56059444D01*
X144344527Y-55894056D01*
X144403542Y-55712428D01*
X144407132Y-55678277D01*
X144422814Y-55529065D01*
X144423504Y-55522500D01*
X144407959Y-55374598D01*
X144404232Y-55339135D01*
X144404232Y-55339133D01*
X144403542Y-55332572D01*
X144344527Y-55150944D01*
X144249040Y-54985556D01*
X144121253Y-54843634D01*
X143966752Y-54731382D01*
X143960724Y-54728698D01*
X143960722Y-54728697D01*
X143798319Y-54656391D01*
X143798318Y-54656391D01*
X143792288Y-54653706D01*
X143698887Y-54633853D01*
X143611944Y-54615372D01*
X143611939Y-54615372D01*
X143605487Y-54614000D01*
X143414513Y-54614000D01*
X143408061Y-54615372D01*
X143408056Y-54615372D01*
X143321113Y-54633853D01*
X143227712Y-54653706D01*
X143221682Y-54656391D01*
X143221681Y-54656391D01*
X143059278Y-54728697D01*
X143059276Y-54728698D01*
X143053248Y-54731382D01*
X142898747Y-54843634D01*
X142770960Y-54985556D01*
X142675473Y-55150944D01*
X142616458Y-55332572D01*
X142615768Y-55339133D01*
X142615768Y-55339135D01*
X142612041Y-55374598D01*
X142596496Y-55522500D01*
X141267592Y-55522500D01*
X141262806Y-55517240D01*
X141255273Y-55510215D01*
X141088139Y-55378222D01*
X141079552Y-55372517D01*
X140893114Y-55269597D01*
X140883705Y-55265369D01*
X140847076Y-55252398D01*
X140832996Y-55251626D01*
X140830000Y-55257337D01*
X140830000Y-55991885D01*
X139830000Y-55991885D01*
X139830000Y-55262766D01*
X139826027Y-55249235D01*
X139819045Y-55248231D01*
X139806868Y-55252212D01*
X139797359Y-55256209D01*
X139608463Y-55354542D01*
X139599738Y-55360036D01*
X139429433Y-55487905D01*
X139421726Y-55494748D01*
X139274590Y-55648717D01*
X139268104Y-55656727D01*
X139163193Y-55810521D01*
X139108282Y-55855524D01*
X139037757Y-55863695D01*
X138974010Y-55832441D01*
X138953313Y-55807957D01*
X138872427Y-55682926D01*
X138866136Y-55674757D01*
X138722806Y-55517240D01*
X138715273Y-55510215D01*
X138548139Y-55378222D01*
X138539552Y-55372517D01*
X138353114Y-55269597D01*
X138343705Y-55265369D01*
X138307076Y-55252398D01*
X138292996Y-55251626D01*
X138290000Y-55257337D01*
X138290000Y-55991885D01*
X137290000Y-55991885D01*
X137290000Y-55262766D01*
X137286027Y-55249235D01*
X137279045Y-55248231D01*
X137266868Y-55252212D01*
X137257359Y-55256209D01*
X137068463Y-55354542D01*
X137059738Y-55360036D01*
X136889433Y-55487905D01*
X136881726Y-55494748D01*
X136734590Y-55648717D01*
X136728109Y-55656722D01*
X136623498Y-55810074D01*
X136568587Y-55855076D01*
X136498062Y-55863247D01*
X136434315Y-55831993D01*
X136413618Y-55807509D01*
X136332822Y-55682617D01*
X136332820Y-55682614D01*
X136330014Y-55678277D01*
X136179670Y-55513051D01*
X136175619Y-55509852D01*
X136175615Y-55509848D01*
X136008414Y-55377800D01*
X136008410Y-55377798D01*
X136004359Y-55374598D01*
X135987672Y-55365386D01*
X135876425Y-55303975D01*
X135808789Y-55266638D01*
X135803920Y-55264914D01*
X135803916Y-55264912D01*
X135603087Y-55193795D01*
X135603083Y-55193794D01*
X135598212Y-55192069D01*
X135593119Y-55191162D01*
X135593116Y-55191161D01*
X135383373Y-55153800D01*
X135383367Y-55153799D01*
X135378284Y-55152894D01*
X135304452Y-55151992D01*
X135160081Y-55150228D01*
X135160079Y-55150228D01*
X135154911Y-55150165D01*
X134934091Y-55183955D01*
X134721756Y-55253357D01*
X134691443Y-55269137D01*
X134569586Y-55332572D01*
X134523607Y-55356507D01*
X134519474Y-55359610D01*
X134519471Y-55359612D01*
X134349100Y-55487530D01*
X134344965Y-55490635D01*
X134190629Y-55652138D01*
X134083201Y-55809621D01*
X134028293Y-55854621D01*
X133957768Y-55862792D01*
X133894021Y-55831538D01*
X133873324Y-55807054D01*
X133792822Y-55682617D01*
X133792820Y-55682614D01*
X133790014Y-55678277D01*
X133639670Y-55513051D01*
X133615834Y-55494226D01*
X133574772Y-55436309D01*
X133571540Y-55365386D01*
X133607166Y-55303975D01*
X133619866Y-55293409D01*
X133683738Y-55247003D01*
X133749304Y-55199366D01*
X133877091Y-55057444D01*
X133972578Y-54892056D01*
X134031593Y-54710428D01*
X134037273Y-54656391D01*
X134050865Y-54527065D01*
X134051555Y-54520500D01*
X134031593Y-54330572D01*
X133972578Y-54148944D01*
X133960046Y-54127237D01*
X133880392Y-53989274D01*
X133877091Y-53983556D01*
X133785517Y-53881852D01*
X133753726Y-53846545D01*
X133753725Y-53846544D01*
X133749304Y-53841634D01*
X133594803Y-53729382D01*
X133588775Y-53726698D01*
X133588773Y-53726697D01*
X133426370Y-53654391D01*
X133426369Y-53654391D01*
X133420339Y-53651706D01*
X133326939Y-53631853D01*
X133239995Y-53613372D01*
X133239990Y-53613372D01*
X133233538Y-53612000D01*
X133042564Y-53612000D01*
X133036112Y-53613372D01*
X133036107Y-53613372D01*
X132949164Y-53631853D01*
X132855763Y-53651706D01*
X132849733Y-53654391D01*
X132849732Y-53654391D01*
X132687329Y-53726697D01*
X132687327Y-53726698D01*
X132681299Y-53729382D01*
X132526798Y-53841634D01*
X132522377Y-53846544D01*
X132522376Y-53846545D01*
X132490586Y-53881852D01*
X132399011Y-53983556D01*
X132395710Y-53989274D01*
X132316057Y-54127237D01*
X132303524Y-54148944D01*
X132244509Y-54330572D01*
X132224547Y-54520500D01*
X132225237Y-54527065D01*
X132238830Y-54656391D01*
X132244509Y-54710428D01*
X132303524Y-54892056D01*
X132306827Y-54897778D01*
X132306828Y-54897779D01*
X132382016Y-55028008D01*
X132398754Y-55097003D01*
X132375534Y-55164095D01*
X132319727Y-55207982D01*
X132312047Y-55210771D01*
X132181756Y-55253357D01*
X132151443Y-55269137D01*
X132029586Y-55332572D01*
X131983607Y-55356507D01*
X131979474Y-55359610D01*
X131979471Y-55359612D01*
X131809100Y-55487530D01*
X131804965Y-55490635D01*
X131650629Y-55652138D01*
X131543201Y-55809621D01*
X131488293Y-55854621D01*
X131417768Y-55862792D01*
X131354021Y-55831538D01*
X131333324Y-55807054D01*
X131252822Y-55682617D01*
X131252820Y-55682614D01*
X131250014Y-55678277D01*
X131099670Y-55513051D01*
X131095619Y-55509852D01*
X131095615Y-55509848D01*
X130928414Y-55377800D01*
X130928410Y-55377798D01*
X130924359Y-55374598D01*
X130907672Y-55365386D01*
X130796425Y-55303975D01*
X130728789Y-55266638D01*
X130723920Y-55264914D01*
X130723916Y-55264912D01*
X130523087Y-55193795D01*
X130523083Y-55193794D01*
X130518212Y-55192069D01*
X130513119Y-55191162D01*
X130513116Y-55191161D01*
X130303373Y-55153800D01*
X130303367Y-55153799D01*
X130298284Y-55152894D01*
X130224452Y-55151992D01*
X130080081Y-55150228D01*
X130080079Y-55150228D01*
X130074911Y-55150165D01*
X129854091Y-55183955D01*
X129641756Y-55253357D01*
X129611443Y-55269137D01*
X129489586Y-55332572D01*
X129443607Y-55356507D01*
X129439474Y-55359610D01*
X129439471Y-55359612D01*
X129269100Y-55487530D01*
X129264965Y-55490635D01*
X129110629Y-55652138D01*
X129003201Y-55809621D01*
X128948293Y-55854621D01*
X128877768Y-55862792D01*
X128814021Y-55831538D01*
X128793324Y-55807054D01*
X128712822Y-55682617D01*
X128712820Y-55682614D01*
X128710014Y-55678277D01*
X128559670Y-55513051D01*
X128555619Y-55509852D01*
X128555615Y-55509848D01*
X128388414Y-55377800D01*
X128388410Y-55377798D01*
X128384359Y-55374598D01*
X128367672Y-55365386D01*
X128256425Y-55303975D01*
X128188789Y-55266638D01*
X128183920Y-55264914D01*
X128183916Y-55264912D01*
X127983087Y-55193795D01*
X127983083Y-55193794D01*
X127978212Y-55192069D01*
X127973119Y-55191162D01*
X127973116Y-55191161D01*
X127763373Y-55153800D01*
X127763367Y-55153799D01*
X127758284Y-55152894D01*
X127684452Y-55151992D01*
X127540081Y-55150228D01*
X127540079Y-55150228D01*
X127534911Y-55150165D01*
X127314091Y-55183955D01*
X127101756Y-55253357D01*
X127071443Y-55269137D01*
X126949586Y-55332572D01*
X126903607Y-55356507D01*
X126899474Y-55359610D01*
X126899471Y-55359612D01*
X126729100Y-55487530D01*
X126724965Y-55490635D01*
X126570629Y-55652138D01*
X126463201Y-55809621D01*
X126408293Y-55854621D01*
X126337768Y-55862792D01*
X126274021Y-55831538D01*
X126253324Y-55807054D01*
X126172822Y-55682617D01*
X126172820Y-55682614D01*
X126170014Y-55678277D01*
X126019670Y-55513051D01*
X126015619Y-55509852D01*
X126015615Y-55509848D01*
X125848414Y-55377800D01*
X125848410Y-55377798D01*
X125844359Y-55374598D01*
X125827672Y-55365386D01*
X125716425Y-55303975D01*
X125648789Y-55266638D01*
X125643920Y-55264914D01*
X125643916Y-55264912D01*
X125443087Y-55193795D01*
X125443083Y-55193794D01*
X125438212Y-55192069D01*
X125433119Y-55191162D01*
X125433116Y-55191161D01*
X125223373Y-55153800D01*
X125223367Y-55153799D01*
X125218284Y-55152894D01*
X125144452Y-55151992D01*
X125000081Y-55150228D01*
X125000079Y-55150228D01*
X124994911Y-55150165D01*
X124774091Y-55183955D01*
X124561756Y-55253357D01*
X124531443Y-55269137D01*
X124409586Y-55332572D01*
X124363607Y-55356507D01*
X124359474Y-55359610D01*
X124359471Y-55359612D01*
X124189100Y-55487530D01*
X124184965Y-55490635D01*
X124030629Y-55652138D01*
X123923201Y-55809621D01*
X123868293Y-55854621D01*
X123797768Y-55862792D01*
X123734021Y-55831538D01*
X123713324Y-55807054D01*
X123632822Y-55682617D01*
X123632820Y-55682614D01*
X123630014Y-55678277D01*
X123479670Y-55513051D01*
X123475619Y-55509852D01*
X123475615Y-55509848D01*
X123308414Y-55377800D01*
X123308410Y-55377798D01*
X123304359Y-55374598D01*
X123287672Y-55365386D01*
X123176425Y-55303975D01*
X123108789Y-55266638D01*
X123103920Y-55264914D01*
X123103916Y-55264912D01*
X122903087Y-55193795D01*
X122903083Y-55193794D01*
X122898212Y-55192069D01*
X122893119Y-55191162D01*
X122893116Y-55191161D01*
X122683373Y-55153800D01*
X122683367Y-55153799D01*
X122678284Y-55152894D01*
X122604452Y-55151992D01*
X122460081Y-55150228D01*
X122460079Y-55150228D01*
X122454911Y-55150165D01*
X122234091Y-55183955D01*
X122021756Y-55253357D01*
X121991443Y-55269137D01*
X121869586Y-55332572D01*
X121823607Y-55356507D01*
X121819474Y-55359610D01*
X121819471Y-55359612D01*
X121649100Y-55487530D01*
X121644965Y-55490635D01*
X121490629Y-55652138D01*
X121383201Y-55809621D01*
X121328293Y-55854621D01*
X121257768Y-55862792D01*
X121194021Y-55831538D01*
X121173324Y-55807054D01*
X121092822Y-55682617D01*
X121092820Y-55682614D01*
X121090014Y-55678277D01*
X120939670Y-55513051D01*
X120935619Y-55509852D01*
X120935615Y-55509848D01*
X120768414Y-55377800D01*
X120768410Y-55377798D01*
X120764359Y-55374598D01*
X120747672Y-55365386D01*
X120636425Y-55303975D01*
X120568789Y-55266638D01*
X120563920Y-55264914D01*
X120563916Y-55264912D01*
X120363087Y-55193795D01*
X120363083Y-55193794D01*
X120358212Y-55192069D01*
X120353119Y-55191162D01*
X120353116Y-55191161D01*
X120143373Y-55153800D01*
X120143367Y-55153799D01*
X120138284Y-55152894D01*
X120064452Y-55151992D01*
X119920081Y-55150228D01*
X119920079Y-55150228D01*
X119914911Y-55150165D01*
X119694091Y-55183955D01*
X119481756Y-55253357D01*
X119451443Y-55269137D01*
X119329586Y-55332572D01*
X119283607Y-55356507D01*
X119279474Y-55359610D01*
X119279471Y-55359612D01*
X119109100Y-55487530D01*
X119104965Y-55490635D01*
X118950629Y-55652138D01*
X118843201Y-55809621D01*
X118788293Y-55854621D01*
X118717768Y-55862792D01*
X118654021Y-55831538D01*
X118633324Y-55807054D01*
X118552822Y-55682617D01*
X118552820Y-55682614D01*
X118550014Y-55678277D01*
X118399670Y-55513051D01*
X118395619Y-55509852D01*
X118395615Y-55509848D01*
X118228414Y-55377800D01*
X118228410Y-55377798D01*
X118224359Y-55374598D01*
X118207672Y-55365386D01*
X118096425Y-55303975D01*
X118028789Y-55266638D01*
X118023920Y-55264914D01*
X118023916Y-55264912D01*
X117823087Y-55193795D01*
X117823083Y-55193794D01*
X117818212Y-55192069D01*
X117813119Y-55191162D01*
X117813116Y-55191161D01*
X117603373Y-55153800D01*
X117603367Y-55153799D01*
X117598284Y-55152894D01*
X117524452Y-55151992D01*
X117380081Y-55150228D01*
X117380079Y-55150228D01*
X117374911Y-55150165D01*
X117154091Y-55183955D01*
X116941756Y-55253357D01*
X116911443Y-55269137D01*
X116789586Y-55332572D01*
X116743607Y-55356507D01*
X116739474Y-55359610D01*
X116739471Y-55359612D01*
X116569100Y-55487530D01*
X116564965Y-55490635D01*
X116410629Y-55652138D01*
X116303201Y-55809621D01*
X116248293Y-55854621D01*
X116177768Y-55862792D01*
X116114021Y-55831538D01*
X116093324Y-55807054D01*
X116012822Y-55682617D01*
X116012820Y-55682614D01*
X116010014Y-55678277D01*
X115859670Y-55513051D01*
X115855619Y-55509852D01*
X115855615Y-55509848D01*
X115688414Y-55377800D01*
X115688410Y-55377798D01*
X115684359Y-55374598D01*
X115667672Y-55365386D01*
X115556425Y-55303975D01*
X115488789Y-55266638D01*
X115483920Y-55264914D01*
X115483916Y-55264912D01*
X115283087Y-55193795D01*
X115283083Y-55193794D01*
X115278212Y-55192069D01*
X115273119Y-55191162D01*
X115273116Y-55191161D01*
X115063373Y-55153800D01*
X115063367Y-55153799D01*
X115058284Y-55152894D01*
X114984452Y-55151992D01*
X114840081Y-55150228D01*
X114840079Y-55150228D01*
X114834911Y-55150165D01*
X114614091Y-55183955D01*
X114401756Y-55253357D01*
X114371443Y-55269137D01*
X114249586Y-55332572D01*
X114203607Y-55356507D01*
X114199474Y-55359610D01*
X114199471Y-55359612D01*
X114029100Y-55487530D01*
X114024965Y-55490635D01*
X113870629Y-55652138D01*
X113763201Y-55809621D01*
X113708293Y-55854621D01*
X113637768Y-55862792D01*
X113574021Y-55831538D01*
X113553324Y-55807054D01*
X113472822Y-55682617D01*
X113472820Y-55682614D01*
X113470014Y-55678277D01*
X113319670Y-55513051D01*
X113315619Y-55509852D01*
X113315615Y-55509848D01*
X113148414Y-55377800D01*
X113148410Y-55377798D01*
X113144359Y-55374598D01*
X113127672Y-55365386D01*
X113016425Y-55303975D01*
X112948789Y-55266638D01*
X112943920Y-55264914D01*
X112943916Y-55264912D01*
X112743087Y-55193795D01*
X112743083Y-55193794D01*
X112738212Y-55192069D01*
X112733119Y-55191162D01*
X112733116Y-55191161D01*
X112523373Y-55153800D01*
X112523367Y-55153799D01*
X112518284Y-55152894D01*
X112444452Y-55151992D01*
X112300081Y-55150228D01*
X112300079Y-55150228D01*
X112294911Y-55150165D01*
X112074091Y-55183955D01*
X111861756Y-55253357D01*
X111831443Y-55269137D01*
X111709586Y-55332572D01*
X111663607Y-55356507D01*
X111659474Y-55359610D01*
X111659471Y-55359612D01*
X111489100Y-55487530D01*
X111484965Y-55490635D01*
X111330629Y-55652138D01*
X111223201Y-55809621D01*
X111168293Y-55854621D01*
X111097768Y-55862792D01*
X111034021Y-55831538D01*
X111013324Y-55807054D01*
X110932822Y-55682617D01*
X110932820Y-55682614D01*
X110930014Y-55678277D01*
X110779670Y-55513051D01*
X110775619Y-55509852D01*
X110775615Y-55509848D01*
X110608414Y-55377800D01*
X110608410Y-55377798D01*
X110604359Y-55374598D01*
X110587672Y-55365386D01*
X110476425Y-55303975D01*
X110408789Y-55266638D01*
X110403920Y-55264914D01*
X110403916Y-55264912D01*
X110203087Y-55193795D01*
X110203083Y-55193794D01*
X110198212Y-55192069D01*
X110193119Y-55191162D01*
X110193116Y-55191161D01*
X109983373Y-55153800D01*
X109983367Y-55153799D01*
X109978284Y-55152894D01*
X109904452Y-55151992D01*
X109760081Y-55150228D01*
X109760079Y-55150228D01*
X109754911Y-55150165D01*
X109534091Y-55183955D01*
X109321756Y-55253357D01*
X109291443Y-55269137D01*
X109169586Y-55332572D01*
X109123607Y-55356507D01*
X109119474Y-55359610D01*
X109119471Y-55359612D01*
X108949100Y-55487530D01*
X108944965Y-55490635D01*
X108790629Y-55652138D01*
X108683201Y-55809621D01*
X108628293Y-55854621D01*
X108557768Y-55862792D01*
X108494021Y-55831538D01*
X108473324Y-55807054D01*
X108392822Y-55682617D01*
X108392820Y-55682614D01*
X108390014Y-55678277D01*
X108239670Y-55513051D01*
X108235619Y-55509852D01*
X108235615Y-55509848D01*
X108068414Y-55377800D01*
X108068410Y-55377798D01*
X108064359Y-55374598D01*
X108047672Y-55365386D01*
X107936425Y-55303975D01*
X107868789Y-55266638D01*
X107863920Y-55264914D01*
X107863916Y-55264912D01*
X107663087Y-55193795D01*
X107663083Y-55193794D01*
X107658212Y-55192069D01*
X107653119Y-55191162D01*
X107653116Y-55191161D01*
X107443373Y-55153800D01*
X107443367Y-55153799D01*
X107438284Y-55152894D01*
X107364452Y-55151992D01*
X107220081Y-55150228D01*
X107220079Y-55150228D01*
X107214911Y-55150165D01*
X106994091Y-55183955D01*
X106781756Y-55253357D01*
X106751443Y-55269137D01*
X106629586Y-55332572D01*
X106583607Y-55356507D01*
X106579474Y-55359610D01*
X106579471Y-55359612D01*
X106409100Y-55487530D01*
X106404965Y-55490635D01*
X106250629Y-55652138D01*
X106143201Y-55809621D01*
X106088293Y-55854621D01*
X106017768Y-55862792D01*
X105954021Y-55831538D01*
X105933324Y-55807054D01*
X105852822Y-55682617D01*
X105852820Y-55682614D01*
X105850014Y-55678277D01*
X105699670Y-55513051D01*
X105695619Y-55509852D01*
X105695615Y-55509848D01*
X105528414Y-55377800D01*
X105528410Y-55377798D01*
X105524359Y-55374598D01*
X105507672Y-55365386D01*
X105396425Y-55303975D01*
X105328789Y-55266638D01*
X105323920Y-55264914D01*
X105323916Y-55264912D01*
X105123087Y-55193795D01*
X105123083Y-55193794D01*
X105118212Y-55192069D01*
X105113119Y-55191162D01*
X105113116Y-55191161D01*
X104903373Y-55153800D01*
X104903367Y-55153799D01*
X104898284Y-55152894D01*
X104824452Y-55151992D01*
X104680081Y-55150228D01*
X104680079Y-55150228D01*
X104674911Y-55150165D01*
X104454091Y-55183955D01*
X104241756Y-55253357D01*
X104211443Y-55269137D01*
X104089586Y-55332572D01*
X104043607Y-55356507D01*
X104039474Y-55359610D01*
X104039471Y-55359612D01*
X103869100Y-55487530D01*
X103864965Y-55490635D01*
X103710629Y-55652138D01*
X103603201Y-55809621D01*
X103548293Y-55854621D01*
X103477768Y-55862792D01*
X103414021Y-55831538D01*
X103393324Y-55807054D01*
X103312822Y-55682617D01*
X103312820Y-55682614D01*
X103310014Y-55678277D01*
X103159670Y-55513051D01*
X103155619Y-55509852D01*
X103155615Y-55509848D01*
X102988414Y-55377800D01*
X102988410Y-55377798D01*
X102984359Y-55374598D01*
X102967672Y-55365386D01*
X102856425Y-55303975D01*
X102788789Y-55266638D01*
X102783920Y-55264914D01*
X102783916Y-55264912D01*
X102583087Y-55193795D01*
X102583083Y-55193794D01*
X102578212Y-55192069D01*
X102573119Y-55191162D01*
X102573116Y-55191161D01*
X102363373Y-55153800D01*
X102363367Y-55153799D01*
X102358284Y-55152894D01*
X102284452Y-55151992D01*
X102140081Y-55150228D01*
X102140079Y-55150228D01*
X102134911Y-55150165D01*
X101914091Y-55183955D01*
X101701756Y-55253357D01*
X101671443Y-55269137D01*
X101549586Y-55332572D01*
X101503607Y-55356507D01*
X101499474Y-55359610D01*
X101499471Y-55359612D01*
X101329100Y-55487530D01*
X101324965Y-55490635D01*
X101170629Y-55652138D01*
X101063201Y-55809621D01*
X101008293Y-55854621D01*
X100937768Y-55862792D01*
X100874021Y-55831538D01*
X100853324Y-55807054D01*
X100772822Y-55682617D01*
X100772820Y-55682614D01*
X100770014Y-55678277D01*
X100619670Y-55513051D01*
X100615619Y-55509852D01*
X100615615Y-55509848D01*
X100448414Y-55377800D01*
X100448410Y-55377798D01*
X100444359Y-55374598D01*
X100427672Y-55365386D01*
X100316425Y-55303975D01*
X100248789Y-55266638D01*
X100243920Y-55264914D01*
X100243916Y-55264912D01*
X100043087Y-55193795D01*
X100043083Y-55193794D01*
X100038212Y-55192069D01*
X100033119Y-55191162D01*
X100033116Y-55191161D01*
X99823373Y-55153800D01*
X99823367Y-55153799D01*
X99818284Y-55152894D01*
X99744452Y-55151992D01*
X99600081Y-55150228D01*
X99600079Y-55150228D01*
X99594911Y-55150165D01*
X99374091Y-55183955D01*
X99161756Y-55253357D01*
X99131443Y-55269137D01*
X99009586Y-55332572D01*
X98963607Y-55356507D01*
X98959474Y-55359610D01*
X98959471Y-55359612D01*
X98789100Y-55487530D01*
X98784965Y-55490635D01*
X98630629Y-55652138D01*
X98523201Y-55809621D01*
X98468293Y-55854621D01*
X98397768Y-55862792D01*
X98334021Y-55831538D01*
X98313324Y-55807054D01*
X98232822Y-55682617D01*
X98232820Y-55682614D01*
X98230014Y-55678277D01*
X98079670Y-55513051D01*
X98075619Y-55509852D01*
X98075615Y-55509848D01*
X97908414Y-55377800D01*
X97908410Y-55377798D01*
X97904359Y-55374598D01*
X97887672Y-55365386D01*
X97776425Y-55303975D01*
X97708789Y-55266638D01*
X97703920Y-55264914D01*
X97703916Y-55264912D01*
X97503087Y-55193795D01*
X97503083Y-55193794D01*
X97498212Y-55192069D01*
X97493119Y-55191162D01*
X97493116Y-55191161D01*
X97283373Y-55153800D01*
X97283367Y-55153799D01*
X97278284Y-55152894D01*
X97204452Y-55151992D01*
X97060081Y-55150228D01*
X97060079Y-55150228D01*
X97054911Y-55150165D01*
X96834091Y-55183955D01*
X96621756Y-55253357D01*
X96591443Y-55269137D01*
X96469586Y-55332572D01*
X96423607Y-55356507D01*
X96419474Y-55359610D01*
X96419471Y-55359612D01*
X96249100Y-55487530D01*
X96244965Y-55490635D01*
X96090629Y-55652138D01*
X95983201Y-55809621D01*
X95928293Y-55854621D01*
X95857768Y-55862792D01*
X95794021Y-55831538D01*
X95773324Y-55807054D01*
X95692822Y-55682617D01*
X95692820Y-55682614D01*
X95690014Y-55678277D01*
X95539670Y-55513051D01*
X95535619Y-55509852D01*
X95535615Y-55509848D01*
X95368414Y-55377800D01*
X95368410Y-55377798D01*
X95364359Y-55374598D01*
X95347672Y-55365386D01*
X95236425Y-55303975D01*
X95168789Y-55266638D01*
X95163920Y-55264914D01*
X95163916Y-55264912D01*
X94963087Y-55193795D01*
X94963083Y-55193794D01*
X94958212Y-55192069D01*
X94953119Y-55191162D01*
X94953116Y-55191161D01*
X94743373Y-55153800D01*
X94743367Y-55153799D01*
X94738284Y-55152894D01*
X94664452Y-55151992D01*
X94520081Y-55150228D01*
X94520079Y-55150228D01*
X94514911Y-55150165D01*
X94294091Y-55183955D01*
X94081756Y-55253357D01*
X94051443Y-55269137D01*
X93929586Y-55332572D01*
X93883607Y-55356507D01*
X93879474Y-55359610D01*
X93879471Y-55359612D01*
X93709100Y-55487530D01*
X93704965Y-55490635D01*
X93550629Y-55652138D01*
X93443201Y-55809621D01*
X93388293Y-55854621D01*
X93317768Y-55862792D01*
X93254021Y-55831538D01*
X93233324Y-55807054D01*
X93152822Y-55682617D01*
X93152820Y-55682614D01*
X93150014Y-55678277D01*
X92999670Y-55513051D01*
X92995619Y-55509852D01*
X92995615Y-55509848D01*
X92828414Y-55377800D01*
X92828410Y-55377798D01*
X92824359Y-55374598D01*
X92807672Y-55365386D01*
X92696425Y-55303975D01*
X92628789Y-55266638D01*
X92623920Y-55264914D01*
X92623916Y-55264912D01*
X92423087Y-55193795D01*
X92423083Y-55193794D01*
X92418212Y-55192069D01*
X92413119Y-55191162D01*
X92413116Y-55191161D01*
X92203373Y-55153800D01*
X92203367Y-55153799D01*
X92198284Y-55152894D01*
X92124452Y-55151992D01*
X91980081Y-55150228D01*
X91980079Y-55150228D01*
X91974911Y-55150165D01*
X91754091Y-55183955D01*
X91541756Y-55253357D01*
X91511443Y-55269137D01*
X91389586Y-55332572D01*
X91343607Y-55356507D01*
X91339474Y-55359610D01*
X91339471Y-55359612D01*
X91169100Y-55487530D01*
X91164965Y-55490635D01*
X91010629Y-55652138D01*
X91007720Y-55656403D01*
X91007714Y-55656411D01*
X90995404Y-55674457D01*
X90884743Y-55836680D01*
X90858110Y-55894056D01*
X90803836Y-56010981D01*
X90790688Y-56039305D01*
X90730989Y-56254570D01*
X90707251Y-56476695D01*
X90720110Y-56699715D01*
X90721247Y-56704761D01*
X90721248Y-56704767D01*
X90742275Y-56798069D01*
X90769222Y-56917639D01*
X90853266Y-57124616D01*
X90903863Y-57207183D01*
X90967291Y-57310688D01*
X90969987Y-57315088D01*
X91116250Y-57483938D01*
X91288126Y-57626632D01*
X91348865Y-57662125D01*
X91361445Y-57669476D01*
X91410169Y-57721114D01*
X91423240Y-57790897D01*
X91396509Y-57856669D01*
X91356055Y-57890027D01*
X91343607Y-57896507D01*
X91339474Y-57899610D01*
X91339471Y-57899612D01*
X91169100Y-58027530D01*
X91164965Y-58030635D01*
X91125525Y-58071907D01*
X91071280Y-58128671D01*
X91010629Y-58192138D01*
X90884743Y-58376680D01*
X90790688Y-58579305D01*
X90730989Y-58794570D01*
X90707251Y-59016695D01*
X90035470Y-59016695D01*
X90034109Y-53340000D01*
X108941496Y-53340000D01*
X108961458Y-53529928D01*
X109020473Y-53711556D01*
X109023776Y-53717278D01*
X109023777Y-53717279D01*
X109057686Y-53776010D01*
X109115960Y-53876944D01*
X109120378Y-53881851D01*
X109120379Y-53881852D01*
X109211954Y-53983556D01*
X109243747Y-54018866D01*
X109398248Y-54131118D01*
X109404276Y-54133802D01*
X109404278Y-54133803D01*
X109572712Y-54208794D01*
X109666112Y-54228647D01*
X109753056Y-54247128D01*
X109753061Y-54247128D01*
X109759513Y-54248500D01*
X109950487Y-54248500D01*
X109956939Y-54247128D01*
X109956944Y-54247128D01*
X110043888Y-54228647D01*
X110137288Y-54208794D01*
X110305722Y-54133803D01*
X110305724Y-54133802D01*
X110311752Y-54131118D01*
X110466253Y-54018866D01*
X110498046Y-53983556D01*
X110589621Y-53881852D01*
X110589622Y-53881851D01*
X110594040Y-53876944D01*
X110652314Y-53776010D01*
X110686223Y-53717279D01*
X110686224Y-53717278D01*
X110689527Y-53711556D01*
X110748542Y-53529928D01*
X110768504Y-53340000D01*
X111481496Y-53340000D01*
X111501458Y-53529928D01*
X111560473Y-53711556D01*
X111563776Y-53717278D01*
X111563777Y-53717279D01*
X111597686Y-53776010D01*
X111655960Y-53876944D01*
X111660378Y-53881851D01*
X111660379Y-53881852D01*
X111751954Y-53983556D01*
X111783747Y-54018866D01*
X111938248Y-54131118D01*
X111944276Y-54133802D01*
X111944278Y-54133803D01*
X112112712Y-54208794D01*
X112206112Y-54228647D01*
X112293056Y-54247128D01*
X112293061Y-54247128D01*
X112299513Y-54248500D01*
X112490487Y-54248500D01*
X112496939Y-54247128D01*
X112496944Y-54247128D01*
X112583888Y-54228647D01*
X112677288Y-54208794D01*
X112845722Y-54133803D01*
X112845724Y-54133802D01*
X112851752Y-54131118D01*
X113006253Y-54018866D01*
X113038046Y-53983556D01*
X113129621Y-53881852D01*
X113129622Y-53881851D01*
X113134040Y-53876944D01*
X113192314Y-53776010D01*
X113226223Y-53717279D01*
X113226224Y-53717278D01*
X113229527Y-53711556D01*
X113288542Y-53529928D01*
X113308504Y-53340000D01*
X113288542Y-53150072D01*
X113229527Y-52968444D01*
X113134040Y-52803056D01*
X113006253Y-52661134D01*
X112851752Y-52548882D01*
X112845724Y-52546198D01*
X112845722Y-52546197D01*
X112683319Y-52473891D01*
X112683318Y-52473891D01*
X112677288Y-52471206D01*
X112583887Y-52451353D01*
X112496944Y-52432872D01*
X112496939Y-52432872D01*
X112490487Y-52431500D01*
X112299513Y-52431500D01*
X112293061Y-52432872D01*
X112293056Y-52432872D01*
X112206113Y-52451353D01*
X112112712Y-52471206D01*
X112106682Y-52473891D01*
X112106681Y-52473891D01*
X111944278Y-52546197D01*
X111944276Y-52546198D01*
X111938248Y-52548882D01*
X111783747Y-52661134D01*
X111655960Y-52803056D01*
X111560473Y-52968444D01*
X111501458Y-53150072D01*
X111481496Y-53340000D01*
X110768504Y-53340000D01*
X110748542Y-53150072D01*
X110689527Y-52968444D01*
X110594040Y-52803056D01*
X110466253Y-52661134D01*
X110311752Y-52548882D01*
X110305724Y-52546198D01*
X110305722Y-52546197D01*
X110143319Y-52473891D01*
X110143318Y-52473891D01*
X110137288Y-52471206D01*
X110043887Y-52451353D01*
X109956944Y-52432872D01*
X109956939Y-52432872D01*
X109950487Y-52431500D01*
X109759513Y-52431500D01*
X109753061Y-52432872D01*
X109753056Y-52432872D01*
X109666113Y-52451353D01*
X109572712Y-52471206D01*
X109566682Y-52473891D01*
X109566681Y-52473891D01*
X109404278Y-52546197D01*
X109404276Y-52546198D01*
X109398248Y-52548882D01*
X109243747Y-52661134D01*
X109115960Y-52803056D01*
X109020473Y-52968444D01*
X108961458Y-53150072D01*
X108941496Y-53340000D01*
X90034109Y-53340000D01*
X90033652Y-51434529D01*
X90053638Y-51366405D01*
X90107282Y-51319899D01*
X90159652Y-51308500D01*
X170190346Y-51308500D01*
X170258467Y-51328502D01*
G37*
G04 #@! TD.AperFunction*
M02*
