G04 #@! TF.GenerationSoftware,KiCad,Pcbnew,(6.0.5-0)*
G04 #@! TF.CreationDate,2022-07-12T21:34:34-06:00*
G04 #@! TF.ProjectId,PiGUS,50694755-532e-46b6-9963-61645f706362,rev?*
G04 #@! TF.SameCoordinates,Original*
G04 #@! TF.FileFunction,Copper,L4,Bot*
G04 #@! TF.FilePolarity,Positive*
%FSLAX46Y46*%
G04 Gerber Fmt 4.6, Leading zero omitted, Abs format (unit mm)*
G04 Created by KiCad (PCBNEW (6.0.5-0)) date 2022-07-12 21:34:34*
%MOMM*%
%LPD*%
G01*
G04 APERTURE LIST*
G04 #@! TA.AperFunction,ComponentPad*
%ADD10R,1.700000X1.700000*%
G04 #@! TD*
G04 #@! TA.AperFunction,ComponentPad*
%ADD11O,1.700000X1.700000*%
G04 #@! TD*
G04 #@! TA.AperFunction,ConnectorPad*
%ADD12R,1.524000X6.858000*%
G04 #@! TD*
G04 #@! TA.AperFunction,ComponentPad*
%ADD13R,1.600000X1.600000*%
G04 #@! TD*
G04 #@! TA.AperFunction,ComponentPad*
%ADD14C,1.600000*%
G04 #@! TD*
G04 #@! TA.AperFunction,ComponentPad*
%ADD15O,1.700000X1.300000*%
G04 #@! TD*
G04 #@! TA.AperFunction,ComponentPad*
%ADD16O,1.400000X1.000000*%
G04 #@! TD*
G04 #@! TA.AperFunction,ComponentPad*
%ADD17C,6.400000*%
G04 #@! TD*
G04 #@! TA.AperFunction,ComponentPad*
%ADD18C,1.524000*%
G04 #@! TD*
G04 #@! TA.AperFunction,ViaPad*
%ADD19C,0.500000*%
G04 #@! TD*
G04 #@! TA.AperFunction,ViaPad*
%ADD20C,0.508000*%
G04 #@! TD*
G04 #@! TA.AperFunction,ViaPad*
%ADD21C,0.800000*%
G04 #@! TD*
G04 #@! TA.AperFunction,Conductor*
%ADD22C,0.200000*%
G04 #@! TD*
G04 #@! TA.AperFunction,Conductor*
%ADD23C,0.250000*%
G04 #@! TD*
G04 #@! TA.AperFunction,Conductor*
%ADD24C,0.500000*%
G04 #@! TD*
G04 #@! TA.AperFunction,Conductor*
%ADD25C,1.000000*%
G04 #@! TD*
G04 #@! TA.AperFunction,Conductor*
%ADD26C,0.440000*%
G04 #@! TD*
G04 #@! TA.AperFunction,Conductor*
%ADD27C,0.300000*%
G04 #@! TD*
G04 #@! TA.AperFunction,Conductor*
%ADD28C,0.750000*%
G04 #@! TD*
G04 #@! TA.AperFunction,Conductor*
%ADD29C,0.600000*%
G04 #@! TD*
G04 APERTURE END LIST*
D10*
X110848792Y-119070471D03*
D11*
X113388792Y-119070471D03*
X110848792Y-116530471D03*
X113388792Y-116530471D03*
X110848792Y-113990471D03*
X113388792Y-113990471D03*
X110848792Y-111450471D03*
X113388792Y-111450471D03*
X110848792Y-108910471D03*
X113388792Y-108910471D03*
X110848792Y-106370471D03*
X113388792Y-106370471D03*
X110848792Y-103830471D03*
X113388792Y-103830471D03*
X110848792Y-101290471D03*
X113388792Y-101290471D03*
X110848792Y-98750471D03*
X113388792Y-98750471D03*
X110848792Y-96210471D03*
X113388792Y-96210471D03*
X110848792Y-93670471D03*
X113388792Y-93670471D03*
X110848792Y-91130471D03*
X113388792Y-91130471D03*
X110848792Y-88590471D03*
X113388792Y-88590471D03*
X110848792Y-86050471D03*
X113388792Y-86050471D03*
X110848792Y-83510471D03*
X113388792Y-83510471D03*
X110848792Y-80970471D03*
X113388792Y-80970471D03*
X110848792Y-78430471D03*
X113388792Y-78430471D03*
X110848792Y-75890471D03*
X113388792Y-75890471D03*
X110848792Y-73350471D03*
X113388792Y-73350471D03*
X110848792Y-70810471D03*
X113388792Y-70810471D03*
D12*
X195262500Y-132397500D03*
X192722500Y-132397500D03*
X190182500Y-132397500D03*
X187642500Y-132397500D03*
X185102500Y-132397500D03*
X182562500Y-132397500D03*
X180022500Y-132397500D03*
X177482500Y-132397500D03*
X174942500Y-132397500D03*
X172402500Y-132397500D03*
X169862500Y-132397500D03*
X167322500Y-132397500D03*
X164782500Y-132397500D03*
X162242500Y-132397500D03*
X159702500Y-132397500D03*
X157162500Y-132397500D03*
X154622500Y-132397500D03*
X152082500Y-132397500D03*
X149542500Y-132397500D03*
X147002500Y-132397500D03*
X144462500Y-132397500D03*
X141922500Y-132397500D03*
X139382500Y-132397500D03*
X136842500Y-132397500D03*
X134302500Y-132397500D03*
X131762500Y-132397500D03*
X129222500Y-132397500D03*
X126682500Y-132397500D03*
X124142500Y-132397500D03*
X121602500Y-132397500D03*
X119062500Y-132397500D03*
D13*
X200342500Y-123190000D03*
D14*
X200342500Y-125190000D03*
D10*
X174700000Y-64725000D03*
D11*
X174700000Y-67265000D03*
D13*
X204800000Y-80700000D03*
D14*
X204800000Y-82700000D03*
D15*
X217001697Y-73316465D03*
D16*
X213971697Y-73616465D03*
X213971697Y-78466465D03*
D15*
X217001697Y-78766465D03*
D11*
X180340000Y-63500000D03*
X180340000Y-66040000D03*
D10*
X180340000Y-68580000D03*
D11*
X180340000Y-71120000D03*
X180340000Y-73660000D03*
X180340000Y-76200000D03*
X180340000Y-78740000D03*
D10*
X180340000Y-81280000D03*
D11*
X180340000Y-83820000D03*
X180340000Y-86360000D03*
X180340000Y-88900000D03*
X180340000Y-91440000D03*
D10*
X180340000Y-93980000D03*
D11*
X180340000Y-96520000D03*
X180340000Y-99060000D03*
X180340000Y-101600000D03*
X180340000Y-104140000D03*
D10*
X180340000Y-106680000D03*
D11*
X180340000Y-109220000D03*
X180340000Y-111760000D03*
X198120000Y-111760000D03*
X198120000Y-109220000D03*
D10*
X198120000Y-106680000D03*
D11*
X198120000Y-104140000D03*
X198120000Y-101600000D03*
X198120000Y-99060000D03*
X198120000Y-96520000D03*
D10*
X198120000Y-93980000D03*
D11*
X198120000Y-91440000D03*
X198120000Y-88900000D03*
X198120000Y-86360000D03*
X198120000Y-83820000D03*
D10*
X198120000Y-81280000D03*
D11*
X198120000Y-78740000D03*
X198120000Y-76200000D03*
X198120000Y-73660000D03*
X198120000Y-71120000D03*
D10*
X198120000Y-68580000D03*
D11*
X198120000Y-66040000D03*
X198120000Y-63500000D03*
X186690000Y-111530000D03*
D10*
X189230000Y-111530000D03*
D11*
X191770000Y-111530000D03*
D17*
X215658700Y-124008000D03*
D18*
X204269050Y-115582931D03*
X206809050Y-115582931D03*
X209349050Y-115582931D03*
X211889050Y-115582931D03*
X214429050Y-115582931D03*
X216969050Y-115582931D03*
X203489050Y-109142931D03*
X203489050Y-106602931D03*
X203489050Y-104062931D03*
X203489050Y-101522931D03*
X203489050Y-98982931D03*
X203489050Y-96442931D03*
X203489050Y-93902931D03*
X203489050Y-91362931D03*
X203489050Y-88822931D03*
D11*
X175577500Y-119697500D03*
X175577500Y-117157500D03*
X178117500Y-119697500D03*
X178117500Y-117157500D03*
X180657500Y-119697500D03*
X180657500Y-117157500D03*
X183197500Y-119697500D03*
X183197500Y-117157500D03*
X185737500Y-119697500D03*
X185737500Y-117157500D03*
X188277500Y-119697500D03*
X188277500Y-117157500D03*
D10*
X195262500Y-123502500D03*
D11*
X192722500Y-123502500D03*
X190182500Y-123502500D03*
X187642500Y-123502500D03*
X185102500Y-123502500D03*
X182562500Y-123502500D03*
X180022500Y-123502500D03*
X177482500Y-123502500D03*
X174942500Y-123502500D03*
X172402500Y-123502500D03*
X169862500Y-123502500D03*
X167322500Y-123502500D03*
X164782500Y-123502500D03*
X162242500Y-123502500D03*
X159702500Y-123502500D03*
X157162500Y-123502500D03*
X154622500Y-123502500D03*
X152082500Y-123502500D03*
X149542500Y-123502500D03*
X147002500Y-123502500D03*
X144462500Y-123502500D03*
X141922500Y-123502500D03*
X139382500Y-123502500D03*
X136842500Y-123502500D03*
X134302500Y-123502500D03*
X131762500Y-123502500D03*
X129222500Y-123502500D03*
X126682500Y-123502500D03*
X124142500Y-123502500D03*
X121602500Y-123502500D03*
X119062500Y-123502500D03*
X195262500Y-126042500D03*
X192722500Y-126042500D03*
X190182500Y-126042500D03*
X187642500Y-126042500D03*
X185102500Y-126042500D03*
X182562500Y-126042500D03*
X180022500Y-126042500D03*
X177482500Y-126042500D03*
X174942500Y-126042500D03*
X172402500Y-126042500D03*
X169862500Y-126042500D03*
X167322500Y-126042500D03*
X164782500Y-126042500D03*
X162242500Y-126042500D03*
X159702500Y-126042500D03*
X157162500Y-126042500D03*
X154622500Y-126042500D03*
X152082500Y-126042500D03*
X149542500Y-126042500D03*
X147002500Y-126042500D03*
X144462500Y-126042500D03*
X141922500Y-126042500D03*
X139382500Y-126042500D03*
X136842500Y-126042500D03*
X134302500Y-126042500D03*
X131762500Y-126042500D03*
X129222500Y-126042500D03*
X126682500Y-126042500D03*
X124142500Y-126042500D03*
X121602500Y-126042500D03*
X119062500Y-126042500D03*
D17*
X215658700Y-67493000D03*
D19*
X129700000Y-76077500D03*
X118900000Y-65200000D03*
X121400000Y-74700000D03*
X130300000Y-65200000D03*
X129000000Y-70700000D03*
X128000000Y-71200000D03*
X126800000Y-65200000D03*
X124142500Y-117157500D03*
X118745000Y-117157500D03*
X130175000Y-106362500D03*
X126365000Y-106362500D03*
X120015000Y-106680000D03*
X119380000Y-120332500D03*
X123190000Y-106680000D03*
X131445000Y-121345500D03*
X124460000Y-109855000D03*
X118110000Y-109855000D03*
X118110000Y-120332500D03*
X133032500Y-121602500D03*
X131445000Y-112712500D03*
X127000000Y-112712500D03*
X126365000Y-101282500D03*
X140652500Y-101282500D03*
X142500000Y-100800000D03*
X125412500Y-100647500D03*
X163830000Y-116840000D03*
X124460000Y-115887500D03*
X122555000Y-115252500D03*
X164465000Y-116205000D03*
X121920000Y-120895980D03*
X166052500Y-117475000D03*
X155500000Y-119900000D03*
X157162500Y-118110000D03*
X171767500Y-118110000D03*
X123825000Y-118427500D03*
X124767148Y-106680000D03*
X174307500Y-108200000D03*
X121285000Y-107950000D03*
X175227143Y-113783000D03*
X191452500Y-115252500D03*
X124820416Y-108585000D03*
X193992500Y-115252500D03*
X121920000Y-108622500D03*
X167000000Y-95400000D03*
X131147500Y-85725000D03*
X171699751Y-83800000D03*
X122777711Y-77900000D03*
X169200000Y-89600000D03*
X167000000Y-86300000D03*
X171900000Y-91700000D03*
X134900000Y-84000000D03*
D20*
X212101697Y-76341465D03*
D19*
X168700000Y-87849500D03*
X171699751Y-96600000D03*
X131147500Y-93980000D03*
X133100000Y-87600000D03*
X172000000Y-93400000D03*
X174000000Y-88600000D03*
X120650000Y-105410000D03*
X167000249Y-78600000D03*
X167000000Y-85000000D03*
X118768750Y-80650000D03*
X171699751Y-95400000D03*
X129540000Y-111125000D03*
X167000000Y-97472500D03*
X131127500Y-80645000D03*
X134900000Y-80400000D03*
X167000000Y-83400000D03*
X171699751Y-86200000D03*
X134600000Y-96400000D03*
X171699751Y-85000000D03*
X203517500Y-64452500D03*
X118700000Y-89100000D03*
X135500000Y-78600000D03*
X129540000Y-119697500D03*
X136200000Y-87600000D03*
X120650000Y-114300000D03*
X171700000Y-97472500D03*
X135500000Y-85800000D03*
X136000000Y-84000000D03*
X168600000Y-91800000D03*
X129540000Y-102552500D03*
X119380000Y-102552500D03*
X204787500Y-73025000D03*
X167000000Y-96600000D03*
X136100000Y-80400000D03*
X129800000Y-96400000D03*
X136200000Y-92400000D03*
X168600000Y-93800000D03*
X136300000Y-96655000D03*
X171699751Y-87400000D03*
X135500000Y-82200000D03*
X134600000Y-92400000D03*
X121920000Y-82550000D03*
X160972500Y-83502500D03*
X160020000Y-82867500D03*
X124460000Y-82550000D03*
X141922500Y-92710000D03*
X124460000Y-91440000D03*
X112077500Y-89852500D03*
X141400000Y-109800000D03*
X167000000Y-110000000D03*
X123825000Y-95567500D03*
X142557500Y-94932500D03*
X120300000Y-87400000D03*
X126365000Y-92710000D03*
X118745000Y-84137500D03*
X173800000Y-109200000D03*
X118427500Y-81915000D03*
X125412500Y-90487500D03*
X126200000Y-95800000D03*
X121300000Y-90170000D03*
X173600000Y-92200000D03*
X141900000Y-109000000D03*
X127635000Y-93980000D03*
X126360000Y-111130000D03*
D21*
X115252500Y-117475000D03*
D19*
X127635000Y-85725000D03*
X126360000Y-119702500D03*
D21*
X113665000Y-120967500D03*
D19*
X120650000Y-86800000D03*
X127635000Y-95885000D03*
D21*
X114617500Y-120967500D03*
D19*
X206692500Y-73025000D03*
X167060000Y-81500000D03*
X123190000Y-86995000D03*
D21*
X116205000Y-117475000D03*
D19*
X167060000Y-80900000D03*
X162560000Y-106680000D03*
X124142500Y-103822500D03*
X171700000Y-80600000D03*
D21*
X189230000Y-127952500D03*
X125095000Y-127952500D03*
D19*
X127635000Y-103505000D03*
D21*
X123190000Y-127952500D03*
D19*
X171700000Y-81100000D03*
X171700000Y-82600000D03*
X212600000Y-77700000D03*
X171700000Y-81600000D03*
D21*
X191130000Y-127957500D03*
D19*
X171700000Y-82100000D03*
X117792500Y-86042500D03*
X117792500Y-69215000D03*
X118427500Y-87312500D03*
X162560000Y-62547500D03*
X162627500Y-90872500D03*
X165700000Y-90900000D03*
X120650000Y-100965000D03*
X133032500Y-99498489D03*
X157162500Y-119583000D03*
X159702500Y-118833500D03*
X163212500Y-77787500D03*
X176800000Y-78200000D03*
X119062500Y-100012500D03*
X129857500Y-79057500D03*
X184100000Y-77500000D03*
X144200000Y-101400000D03*
X165900000Y-87800000D03*
X144200000Y-87500000D03*
X122640519Y-95653019D03*
X144200000Y-95800000D03*
X120421002Y-99579291D03*
X122400000Y-98200000D03*
X169400000Y-99400000D03*
X120650000Y-98807003D03*
X169800000Y-98107500D03*
X133000000Y-89500000D03*
X133000000Y-96800000D03*
X173900000Y-89400000D03*
X120650000Y-98107500D03*
X115252500Y-97155000D03*
X173037500Y-100012500D03*
X122555000Y-100647500D03*
X184467500Y-105410000D03*
X184562989Y-115982989D03*
X130492500Y-103187500D03*
X121920000Y-103565500D03*
X121285000Y-101282500D03*
X187007500Y-118427500D03*
X185102500Y-102870000D03*
X131700000Y-89000000D03*
X168800000Y-89000000D03*
X123190000Y-98742500D03*
X131762500Y-98742500D03*
X127900000Y-88300000D03*
X161607500Y-88900000D03*
X175000000Y-88300000D03*
X175000000Y-107600000D03*
X172800000Y-88800000D03*
X175700000Y-79400000D03*
X168600000Y-93000000D03*
X175600000Y-91500000D03*
X175700000Y-72200000D03*
X194945000Y-82867500D03*
X195500000Y-69700000D03*
X195580000Y-92720000D03*
X173000000Y-92700000D03*
X162200000Y-93400000D03*
X115887500Y-113347500D03*
X115887500Y-104775000D03*
X135700000Y-87100000D03*
X126365000Y-104775000D03*
X135572500Y-104775000D03*
X126365000Y-113982500D03*
X162000000Y-87200000D03*
X167000000Y-93400000D03*
X132080000Y-82232500D03*
X125730000Y-82232500D03*
X211100000Y-68900000D03*
X209550000Y-72390000D03*
X182600000Y-74400000D03*
X196532500Y-71120000D03*
X125800000Y-71500000D03*
X166200000Y-74200000D03*
X163600000Y-73500000D03*
X122600000Y-72600000D03*
X123600000Y-72000000D03*
X164300000Y-74100000D03*
X166200000Y-72400000D03*
X166200000Y-71300000D03*
X170300000Y-74100000D03*
X139300000Y-76500000D03*
X209500000Y-76800000D03*
X123190000Y-108267500D03*
X168800000Y-104200000D03*
X138430000Y-104140000D03*
X135255000Y-107632500D03*
X117792500Y-107315000D03*
X117792500Y-92392500D03*
X163800000Y-89600000D03*
X166800000Y-89600000D03*
X132715000Y-111760000D03*
X164000000Y-102200000D03*
X138112500Y-102235000D03*
X120650000Y-111125000D03*
X115252500Y-111125000D03*
X115252500Y-93662500D03*
X145415000Y-100647500D03*
X145415000Y-93980000D03*
X112077500Y-107632500D03*
X169552500Y-100647500D03*
X118745000Y-106362500D03*
X120967500Y-90805000D03*
X140335000Y-90805000D03*
X118427500Y-104140000D03*
X172300000Y-90300000D03*
X120015000Y-91757500D03*
X122872500Y-104140000D03*
X176700000Y-90700000D03*
X117792500Y-91122500D03*
X140335000Y-98742500D03*
X116522500Y-115887500D03*
X122277861Y-118110000D03*
X116522500Y-88582500D03*
X173200000Y-90700000D03*
X163407500Y-79692500D03*
X121285000Y-118427500D03*
X117157500Y-82232500D03*
X176530000Y-81915000D03*
X117157500Y-118427500D03*
X112165018Y-115252500D03*
X120332500Y-115252500D03*
X165000000Y-88400000D03*
X166300000Y-86500000D03*
X135100000Y-86500000D03*
X122237500Y-112712500D03*
X132080000Y-113347500D03*
X209502400Y-75897600D03*
X138100000Y-75900000D03*
D22*
X170300000Y-74100000D02*
X169600000Y-74800000D01*
X169600000Y-74800000D02*
X121500000Y-74800000D01*
X121500000Y-74800000D02*
X121400000Y-74700000D01*
X129000000Y-70700000D02*
X129200000Y-70900000D01*
X129200000Y-70900000D02*
X165800000Y-70900000D01*
X165800000Y-70900000D02*
X166200000Y-71300000D01*
X128000000Y-71200000D02*
X128200000Y-71400000D01*
X128200000Y-71400000D02*
X165200000Y-71400000D01*
X165200000Y-71400000D02*
X166200000Y-72400000D01*
X122600000Y-72600000D02*
X162700000Y-72600000D01*
X162700000Y-72600000D02*
X163600000Y-73500000D01*
X125800000Y-71500000D02*
X126100000Y-71800000D01*
X164500000Y-71800000D02*
X166200000Y-73500000D01*
X166200000Y-73500000D02*
X166200000Y-74200000D01*
X126100000Y-71800000D02*
X164500000Y-71800000D01*
X163900000Y-72200000D02*
X164300000Y-72600000D01*
X164300000Y-72600000D02*
X164300000Y-74100000D01*
X123600000Y-72000000D02*
X123800000Y-72200000D01*
X123800000Y-72200000D02*
X163900000Y-72200000D01*
D23*
X171767500Y-118110000D02*
X159385718Y-118110000D01*
X159385718Y-118110000D02*
X158695718Y-118800000D01*
X158695718Y-118800000D02*
X156800000Y-118800000D01*
X156800000Y-118800000D02*
X156300000Y-119300000D01*
X156300000Y-119300000D02*
X131365000Y-119300000D01*
X131365000Y-119300000D02*
X129222500Y-117157500D01*
X129222500Y-117157500D02*
X125095000Y-117157500D01*
X125095000Y-117157500D02*
X123825000Y-118427500D01*
X144462500Y-123502500D02*
X146865000Y-121100000D01*
X146865000Y-121100000D02*
X176715000Y-121100000D01*
X176715000Y-121100000D02*
X178117500Y-119697500D01*
X124460000Y-115887500D02*
X128905000Y-115887500D01*
X128905000Y-115887500D02*
X131817500Y-118800000D01*
X131817500Y-118800000D02*
X155520000Y-118800000D01*
X155520000Y-118800000D02*
X157480000Y-116840000D01*
X157480000Y-116840000D02*
X163830000Y-116840000D01*
X155500000Y-119900000D02*
X141720000Y-119900000D01*
X141287500Y-120332500D02*
X129857500Y-120332500D01*
X129857500Y-120332500D02*
X129294020Y-120895980D01*
X141720000Y-119900000D02*
X141287500Y-120332500D01*
X129294020Y-120895980D02*
X121920000Y-120895980D01*
X139382500Y-123502500D02*
X139387500Y-123502500D01*
X139387500Y-123502500D02*
X142390000Y-120500000D01*
X174775000Y-120500000D02*
X175577500Y-119697500D01*
X142390000Y-120500000D02*
X174775000Y-120500000D01*
X122555000Y-115252500D02*
X129222500Y-115252500D01*
X129222500Y-115252500D02*
X132195020Y-118225020D01*
X132195020Y-118225020D02*
X155301230Y-118225020D01*
X155301230Y-118225020D02*
X157321250Y-116205000D01*
X157321250Y-116205000D02*
X164465000Y-116205000D01*
X142500000Y-100800000D02*
X142347500Y-100647500D01*
X142347500Y-100647500D02*
X125412500Y-100647500D01*
X180340000Y-109220000D02*
X142120000Y-109220000D01*
X142120000Y-109220000D02*
X141900000Y-109000000D01*
X141400000Y-109800000D02*
X141600000Y-110000000D01*
X141600000Y-110000000D02*
X175087500Y-110000000D01*
X175087500Y-110000000D02*
X176847500Y-111760000D01*
X176847500Y-111760000D02*
X180340000Y-111760000D01*
X124142500Y-117157500D02*
X123825000Y-116840000D01*
X119062500Y-116840000D02*
X118745000Y-117157500D01*
X123825000Y-116840000D02*
X119062500Y-116840000D01*
X130175000Y-106362500D02*
X126365000Y-106362500D01*
X121682029Y-121470491D02*
X121557038Y-121345500D01*
X131445000Y-121345500D02*
X122282962Y-121345500D01*
X121557038Y-121345500D02*
X119758000Y-121345500D01*
X122282962Y-121345500D02*
X122157971Y-121470491D01*
X119380000Y-120967500D02*
X119380000Y-120332500D01*
X120015000Y-106680000D02*
X123190000Y-106680000D01*
X119758000Y-121345500D02*
X119380000Y-120967500D01*
X122157971Y-121470491D02*
X121682029Y-121470491D01*
X124460000Y-109855000D02*
X118110000Y-109855000D01*
X118110000Y-120332500D02*
X118110000Y-120333217D01*
X132715000Y-121920000D02*
X133032500Y-121602500D01*
X119696783Y-121920000D02*
X132715000Y-121920000D01*
X118110000Y-120333217D02*
X119696783Y-121920000D01*
X127000000Y-112712500D02*
X131445000Y-112712500D01*
X126365000Y-101282500D02*
X140652500Y-101282500D01*
X159385000Y-117475000D02*
X166052500Y-117475000D01*
X158750000Y-118110000D02*
X159385000Y-117475000D01*
X157162500Y-118110000D02*
X158750000Y-118110000D01*
X124767148Y-106680000D02*
X125138108Y-107050960D01*
X136895960Y-107050960D02*
X138112500Y-108267500D01*
X174240000Y-108267500D02*
X174307500Y-108200000D01*
X138112500Y-108267500D02*
X174240000Y-108267500D01*
X125138108Y-107050960D02*
X136895960Y-107050960D01*
X121285000Y-108799982D02*
X121837038Y-109352020D01*
X133304375Y-111325479D02*
X172769622Y-111325479D01*
X121285000Y-107950000D02*
X121285000Y-108799982D01*
X123734084Y-109220000D02*
X131198896Y-109220000D01*
X172769622Y-111325479D02*
X175227143Y-113783000D01*
X121837038Y-109352020D02*
X123602064Y-109352020D01*
X123602064Y-109352020D02*
X123734084Y-109220000D01*
X131198896Y-109220000D02*
X133304375Y-111325479D01*
X173523459Y-110975959D02*
X177165000Y-114617500D01*
X124820416Y-108585000D02*
X131199614Y-108585000D01*
X133590573Y-110975959D02*
X173523459Y-110975959D01*
X131199614Y-108585000D02*
X133590573Y-110975959D01*
X177165000Y-114617500D02*
X190817500Y-114617500D01*
X190817500Y-114617500D02*
X191452500Y-115252500D01*
X122732518Y-108902500D02*
X122452518Y-108622500D01*
X122452518Y-108622500D02*
X121920000Y-108622500D01*
X123415866Y-108902500D02*
X122732518Y-108902500D01*
X192405000Y-113665000D02*
X177482500Y-113665000D01*
X124368366Y-107950000D02*
X123415866Y-108902500D01*
X133876771Y-110626439D02*
X131200332Y-107950000D01*
X131200332Y-107950000D02*
X124368366Y-107950000D01*
X193992500Y-115252500D02*
X192405000Y-113665000D01*
X177482500Y-113665000D02*
X174443939Y-110626439D01*
X174443939Y-110626439D02*
X133876771Y-110626439D01*
D24*
X171132500Y-127000000D02*
X172402500Y-128270000D01*
X172402500Y-123507500D02*
X171132500Y-124777500D01*
D25*
X196812011Y-125052011D02*
X196812011Y-127037989D01*
X119062500Y-123502500D02*
X117512989Y-125052011D01*
X195262500Y-123502500D02*
X196812011Y-125052011D01*
X195262500Y-128587500D02*
X195262500Y-132397500D01*
D26*
X171132500Y-124777500D02*
X171132500Y-127000000D01*
D25*
X117512989Y-127037989D02*
X119062500Y-128587500D01*
X117512989Y-125052011D02*
X117512989Y-127037989D01*
D24*
X172402500Y-128270000D02*
X172402500Y-132397500D01*
D25*
X119062500Y-128587500D02*
X119062500Y-132397500D01*
X196812011Y-127037989D02*
X195262500Y-128587500D01*
D23*
X160972500Y-83502500D02*
X122872500Y-83502500D01*
X163512500Y-124772500D02*
X163512500Y-126682500D01*
X164782500Y-127952500D02*
X164782500Y-132397500D01*
X122872500Y-83502500D02*
X121920000Y-82550000D01*
X164782500Y-123502500D02*
X163512500Y-124772500D01*
X163512500Y-126682500D02*
X164782500Y-127952500D01*
X162242500Y-127952500D02*
X162242500Y-132397500D01*
X160972500Y-124772500D02*
X160972500Y-126682500D01*
X124777500Y-82867500D02*
X124460000Y-82550000D01*
X160020000Y-82867500D02*
X124777500Y-82867500D01*
X160972500Y-126682500D02*
X162242500Y-127952500D01*
X162242500Y-123502500D02*
X160972500Y-124772500D01*
X140652500Y-91440000D02*
X141922500Y-92710000D01*
X119062500Y-89852500D02*
X112077500Y-89852500D01*
X124460000Y-91440000D02*
X120650000Y-91440000D01*
X120650000Y-91440000D02*
X119062500Y-89852500D01*
X124460000Y-91440000D02*
X140652500Y-91440000D01*
X117482971Y-80970471D02*
X118427500Y-81915000D01*
X142557500Y-94932500D02*
X127067500Y-94932500D01*
X116707953Y-80970471D02*
X117482971Y-80970471D01*
X125095000Y-90170000D02*
X121300000Y-90170000D01*
X127067500Y-94932500D02*
X126200000Y-95800000D01*
X116707953Y-80970471D02*
X113388792Y-80970471D01*
X119343261Y-86443261D02*
X119343261Y-84735761D01*
X125412500Y-90487500D02*
X125095000Y-90170000D01*
X120300000Y-87400000D02*
X119343261Y-86443261D01*
X119343261Y-84735761D02*
X118745000Y-84137500D01*
X126200000Y-92875000D02*
X126365000Y-92710000D01*
X126200000Y-95800000D02*
X126200000Y-92875000D01*
X162560000Y-106680000D02*
X138430000Y-106680000D01*
X124460000Y-104140000D02*
X124142500Y-103822500D01*
X138430000Y-106680000D02*
X135890000Y-104140000D01*
X135890000Y-104140000D02*
X124460000Y-104140000D01*
D25*
X124142500Y-127952500D02*
X124142500Y-132397500D01*
D26*
X188912500Y-124777500D02*
X188912500Y-127957500D01*
D25*
X189235000Y-127957500D02*
X191130000Y-127957500D01*
D24*
X190182500Y-123507500D02*
X188912500Y-124777500D01*
X124142500Y-123502500D02*
X122872500Y-124772500D01*
D25*
X190182500Y-127957500D02*
X190182500Y-132402500D01*
X123190000Y-127952500D02*
X125095000Y-127952500D01*
X189230000Y-127952500D02*
X189235000Y-127957500D01*
D26*
X122872500Y-124772500D02*
X122872500Y-127952500D01*
D23*
X177625479Y-63325479D02*
X123682021Y-63325479D01*
X180340000Y-66040000D02*
X177625479Y-63325479D01*
X117784529Y-86050471D02*
X113388792Y-86050471D01*
X123682021Y-63325479D02*
X117792500Y-69215000D01*
X117792500Y-86042500D02*
X117784529Y-86050471D01*
D22*
X162655000Y-90900000D02*
X162627500Y-90872500D01*
D23*
X108902500Y-71120000D02*
X108902500Y-84104179D01*
X180340000Y-63500000D02*
X179387500Y-62547500D01*
X108902500Y-84104179D02*
X110848792Y-86050471D01*
X118427500Y-87312500D02*
X112110821Y-87312500D01*
X120015000Y-62547500D02*
X113030000Y-69532500D01*
X112110821Y-87312500D02*
X110848792Y-86050471D01*
X179387500Y-62547500D02*
X120015000Y-62547500D01*
X110490000Y-69532500D02*
X108902500Y-71120000D01*
X113030000Y-69532500D02*
X110490000Y-69532500D01*
D22*
X165700000Y-90900000D02*
X162655000Y-90900000D01*
D23*
X192722500Y-127952500D02*
X192722500Y-132397500D01*
X193992500Y-124772500D02*
X193992500Y-126682500D01*
X193992500Y-126682500D02*
X192722500Y-127952500D01*
X192722500Y-123502500D02*
X193992500Y-124772500D01*
X187642500Y-127952500D02*
X187642500Y-132397500D01*
X186372500Y-126682500D02*
X187642500Y-127952500D01*
X187642500Y-123502500D02*
X186372500Y-124772500D01*
X186372500Y-124772500D02*
X186372500Y-126682500D01*
X183832500Y-124772500D02*
X183832500Y-126682500D01*
X185102500Y-123502500D02*
X183832500Y-124772500D01*
X183832500Y-126682500D02*
X185102500Y-127952500D01*
X185102500Y-127952500D02*
X185102500Y-132397500D01*
X122116511Y-99498489D02*
X133032500Y-99498489D01*
X127952500Y-124772500D02*
X127952500Y-126682500D01*
X129222500Y-123502500D02*
X127952500Y-124772500D01*
X129222500Y-127952500D02*
X129222500Y-132397500D01*
X120650000Y-100965000D02*
X122116511Y-99498489D01*
X127952500Y-126682500D02*
X129222500Y-127952500D01*
X139382500Y-123502500D02*
X138112500Y-124772500D01*
X138112500Y-126682500D02*
X139382500Y-127952500D01*
X138112500Y-124772500D02*
X138112500Y-126682500D01*
X139382500Y-127952500D02*
X139382500Y-132397500D01*
X143192500Y-126682500D02*
X144462500Y-127952500D01*
X144462500Y-123502500D02*
X143192500Y-124772500D01*
X143192500Y-124772500D02*
X143192500Y-126682500D01*
X144462500Y-127952500D02*
X144462500Y-132397500D01*
X178752500Y-121602500D02*
X180657500Y-119697500D01*
X152082500Y-127952500D02*
X152082500Y-132397500D01*
X150812500Y-126682500D02*
X152082500Y-127952500D01*
X152082500Y-123502500D02*
X150812500Y-124772500D01*
X150812500Y-124772500D02*
X150812500Y-126682500D01*
X153982500Y-121602500D02*
X178752500Y-121602500D01*
X152082500Y-123502500D02*
X153982500Y-121602500D01*
X154622500Y-123502500D02*
X153352500Y-124772500D01*
X154622500Y-127952500D02*
X154622500Y-132397500D01*
D27*
X154622500Y-123502500D02*
X155887500Y-122237500D01*
D23*
X153352500Y-124772500D02*
X153352500Y-126682500D01*
D27*
X155887500Y-122237500D02*
X180657500Y-122237500D01*
X180657500Y-122237500D02*
X183197500Y-119697500D01*
D23*
X153352500Y-126682500D02*
X154622500Y-127952500D01*
X173995634Y-119583000D02*
X175151134Y-118427500D01*
X183832500Y-118427500D02*
X185102500Y-119697500D01*
X185102500Y-119697500D02*
X185737500Y-119697500D01*
X157162500Y-123502500D02*
X155892500Y-124772500D01*
X157162500Y-127952500D02*
X157162500Y-132397500D01*
X155892500Y-126682500D02*
X157162500Y-127952500D01*
X175151134Y-118427500D02*
X183832500Y-118427500D01*
X155892500Y-124772500D02*
X155892500Y-126682500D01*
X157162500Y-119583000D02*
X173995634Y-119583000D01*
X159702500Y-123502500D02*
X158432500Y-124772500D01*
X158432500Y-124772500D02*
X158432500Y-126682500D01*
X158432500Y-126682500D02*
X159702500Y-127952500D01*
X189865000Y-116205000D02*
X189865000Y-118110000D01*
X172205134Y-118833500D02*
X175786134Y-115252500D01*
X175786134Y-115252500D02*
X188912500Y-115252500D01*
X159702500Y-127952500D02*
X159702500Y-132397500D01*
X159702500Y-118833500D02*
X172205134Y-118833500D01*
X188912500Y-115252500D02*
X189865000Y-116205000D01*
X189865000Y-118110000D02*
X188277500Y-119697500D01*
X181292500Y-126682500D02*
X182562500Y-127952500D01*
X182562500Y-123502500D02*
X181292500Y-124772500D01*
X182562500Y-127952500D02*
X182562500Y-132397500D01*
X181292500Y-124772500D02*
X181292500Y-126682500D01*
X178752500Y-124772500D02*
X178752500Y-126682500D01*
X180022500Y-123502500D02*
X178752500Y-124772500D01*
X178752500Y-126682500D02*
X180022500Y-127952500D01*
X180022500Y-127952500D02*
X180022500Y-132397500D01*
X163212500Y-77787500D02*
X131127500Y-77787500D01*
X119062500Y-100012500D02*
X116610018Y-102464982D01*
X112214281Y-102464982D02*
X110848792Y-103830471D01*
X131127500Y-77787500D02*
X129857500Y-79057500D01*
X116610018Y-102464982D02*
X112214281Y-102464982D01*
X176387500Y-77787500D02*
X163212500Y-77787500D01*
X176800000Y-78200000D02*
X176387500Y-77787500D01*
X184100000Y-77500000D02*
X185340000Y-78740000D01*
X185340000Y-78740000D02*
X198120000Y-78740000D01*
X109537500Y-95567500D02*
X109537500Y-99979179D01*
X122640519Y-95653019D02*
X123587500Y-96600000D01*
X129600000Y-95800000D02*
X144200000Y-95800000D01*
X121920000Y-94932500D02*
X110172500Y-94932500D01*
D22*
X144400000Y-87700000D02*
X165800000Y-87700000D01*
D23*
X122640519Y-95653019D02*
X121920000Y-94932500D01*
X174800000Y-100400000D02*
X183600000Y-100400000D01*
X110172500Y-94932500D02*
X109537500Y-95567500D01*
X173800000Y-101400000D02*
X174800000Y-100400000D01*
D22*
X144200000Y-87500000D02*
X144400000Y-87700000D01*
D23*
X184800000Y-101600000D02*
X198120000Y-101600000D01*
X109537500Y-99979179D02*
X110848792Y-101290471D01*
D22*
X165800000Y-87700000D02*
X165900000Y-87800000D01*
D23*
X183600000Y-100400000D02*
X184800000Y-101600000D01*
X128800000Y-96600000D02*
X129600000Y-95800000D01*
X144200000Y-101400000D02*
X173800000Y-101400000D01*
X123587500Y-96600000D02*
X128800000Y-96600000D01*
X134200000Y-99400000D02*
X133000000Y-98200000D01*
X120421002Y-99579291D02*
X120412029Y-99570318D01*
X115301763Y-99377500D02*
X113388792Y-101290471D01*
X133000000Y-98200000D02*
X122400000Y-98200000D01*
X182660000Y-99060000D02*
X198120000Y-99060000D01*
X120408015Y-99377500D02*
X115301763Y-99377500D01*
X174600000Y-97800000D02*
X181400000Y-97800000D01*
X173000000Y-99400000D02*
X174600000Y-97800000D01*
X181400000Y-97800000D02*
X182660000Y-99060000D01*
X169400000Y-99400000D02*
X134200000Y-99400000D01*
X120412029Y-99381514D02*
X120408015Y-99377500D01*
X120412029Y-99570318D02*
X120412029Y-99381514D01*
X169400000Y-99400000D02*
X173000000Y-99400000D01*
X120593468Y-98750471D02*
X113388792Y-98750471D01*
X181360000Y-95200000D02*
X182680000Y-96520000D01*
X169800000Y-98107500D02*
X135707500Y-98107500D01*
X172492500Y-98107500D02*
X175400000Y-95200000D01*
X175400000Y-95200000D02*
X181360000Y-95200000D01*
X120650000Y-98807003D02*
X120593468Y-98750471D01*
X122000000Y-97600000D02*
X120792997Y-98807003D01*
X120792997Y-98807003D02*
X120650000Y-98807003D01*
X169800000Y-98107500D02*
X172492500Y-98107500D01*
X182680000Y-96520000D02*
X198120000Y-96520000D01*
X135200000Y-97600000D02*
X122000000Y-97600000D01*
X135707500Y-98107500D02*
X135200000Y-97600000D01*
X161100000Y-90200000D02*
X162800000Y-90200000D01*
X160400000Y-89500000D02*
X161100000Y-90200000D01*
X133000000Y-96800000D02*
X132800000Y-97000000D01*
X120692500Y-98107500D02*
X120650000Y-98107500D01*
X174500000Y-90000000D02*
X196680000Y-90000000D01*
X132800000Y-97000000D02*
X121800000Y-97000000D01*
X162800000Y-90200000D02*
X163000000Y-90400000D01*
X116205000Y-98107500D02*
X115252500Y-97155000D01*
X173900000Y-89400000D02*
X174500000Y-90000000D01*
X120650000Y-98107500D02*
X116205000Y-98107500D01*
X121800000Y-97000000D02*
X120692500Y-98107500D01*
X170400000Y-89400000D02*
X173900000Y-89400000D01*
X133000000Y-89500000D02*
X160400000Y-89500000D01*
X163000000Y-90400000D02*
X169400000Y-90400000D01*
X169400000Y-90400000D02*
X170400000Y-89400000D01*
X196680000Y-90000000D02*
X198120000Y-91440000D01*
X177482500Y-123502500D02*
X176212500Y-124772500D01*
X176212500Y-126682500D02*
X177482500Y-127952500D01*
X177482500Y-127952500D02*
X177482500Y-132397500D01*
X176212500Y-124772500D02*
X176212500Y-126682500D01*
X172977011Y-100072989D02*
X123129511Y-100072989D01*
X173037500Y-100012500D02*
X172977011Y-100072989D01*
X123129511Y-100072989D02*
X122555000Y-100647500D01*
X175577500Y-117157500D02*
X178117500Y-117157500D01*
X127952500Y-102552500D02*
X122819040Y-102552500D01*
X130492500Y-103187500D02*
X128587500Y-103187500D01*
X136207500Y-103505000D02*
X138112500Y-105410000D01*
X130492500Y-103187500D02*
X131126782Y-103187500D01*
X121920000Y-103451540D02*
X121920000Y-103565500D01*
X122819040Y-102552500D02*
X121920000Y-103451540D01*
X131444282Y-103505000D02*
X136207500Y-103505000D01*
X181832011Y-115982989D02*
X184562989Y-115982989D01*
X184562989Y-115982989D02*
X185737500Y-117157500D01*
X180657500Y-117157500D02*
X181832011Y-115982989D01*
X138112500Y-105410000D02*
X184467500Y-105410000D01*
X128587500Y-103187500D02*
X127952500Y-102552500D01*
X131126782Y-103187500D02*
X131444282Y-103505000D01*
X131445000Y-102870000D02*
X185102500Y-102870000D01*
X121285000Y-101282500D02*
X125412500Y-101282500D01*
X187007500Y-118427500D02*
X188277500Y-117157500D01*
X126047500Y-101917500D02*
X130492500Y-101917500D01*
X125412500Y-101282500D02*
X126047500Y-101917500D01*
X130492500Y-101917500D02*
X131445000Y-102870000D01*
X185102500Y-118427500D02*
X187007500Y-118427500D01*
X183197500Y-117157500D02*
X183832500Y-117157500D01*
X183832500Y-117157500D02*
X185102500Y-118427500D01*
X174942500Y-127952500D02*
X174942500Y-132397500D01*
X173672500Y-126682500D02*
X174942500Y-127952500D01*
X174942500Y-123502500D02*
X173672500Y-124772500D01*
X173672500Y-124772500D02*
X173672500Y-126682500D01*
X169862500Y-123502500D02*
X168592500Y-124772500D01*
X168592500Y-124772500D02*
X168592500Y-126682500D01*
X169862500Y-127952500D02*
X169862500Y-132397500D01*
X168592500Y-126682500D02*
X169862500Y-127952500D01*
X167322500Y-127952500D02*
X167322500Y-132397500D01*
X167322500Y-123502500D02*
X166052500Y-124772500D01*
X166052500Y-126682500D02*
X167322500Y-127952500D01*
X166052500Y-124772500D02*
X166052500Y-126682500D01*
X148272500Y-124772500D02*
X148272500Y-126682500D01*
X149542500Y-127952500D02*
X149542500Y-132397500D01*
X149542500Y-123502500D02*
X148272500Y-124772500D01*
X148272500Y-126682500D02*
X149542500Y-127952500D01*
X147002500Y-123502500D02*
X145732500Y-124772500D01*
X147002500Y-127952500D02*
X147002500Y-132397500D01*
X145732500Y-124772500D02*
X145732500Y-126682500D01*
X145732500Y-126682500D02*
X147002500Y-127952500D01*
X140652500Y-124772500D02*
X140652500Y-126682500D01*
X140652500Y-126682500D02*
X141922500Y-127952500D01*
X141922500Y-123502500D02*
X140652500Y-124772500D01*
X141922500Y-127952500D02*
X141922500Y-132397500D01*
X135572500Y-126682500D02*
X136842500Y-127952500D01*
X136842500Y-127952500D02*
X136842500Y-132397500D01*
X136842500Y-123502500D02*
X135572500Y-124772500D01*
X135572500Y-124772500D02*
X135572500Y-126682500D01*
X134302500Y-123502500D02*
X133032500Y-124772500D01*
X134302500Y-127952500D02*
X134302500Y-132397500D01*
X133032500Y-124772500D02*
X133032500Y-126682500D01*
X133032500Y-126682500D02*
X134302500Y-127952500D01*
X131762500Y-127952500D02*
X131762500Y-132397500D01*
X130492500Y-124772500D02*
X130492500Y-126682500D01*
X131762500Y-123502500D02*
X130492500Y-124772500D01*
X130492500Y-126682500D02*
X131762500Y-127952500D01*
X125412500Y-126682500D02*
X126682500Y-127952500D01*
X126682500Y-127952500D02*
X126682500Y-132397500D01*
X125412500Y-124772500D02*
X125412500Y-126682500D01*
X126682500Y-123502500D02*
X125412500Y-124772500D01*
X120332500Y-124772500D02*
X120332500Y-127952500D01*
X120332500Y-127952500D02*
X121602500Y-129222500D01*
X121602500Y-123502500D02*
X120332500Y-124772500D01*
X123190000Y-98742500D02*
X123507500Y-99060000D01*
X122162702Y-98742500D02*
X120514713Y-100390489D01*
X160700000Y-89000000D02*
X160649520Y-88949520D01*
X198120000Y-86360000D02*
X182840000Y-86360000D01*
X169000000Y-88800000D02*
X168800000Y-89000000D01*
X114043887Y-105092500D02*
X112126763Y-105092500D01*
X169400000Y-88800000D02*
X169000000Y-88800000D01*
X119954511Y-100390489D02*
X116522500Y-103822500D01*
X182840000Y-86360000D02*
X181600000Y-87600000D01*
X161100000Y-89400000D02*
X160700000Y-89000000D01*
X181600000Y-87600000D02*
X173244296Y-87600000D01*
X115313887Y-103822500D02*
X114043887Y-105092500D01*
X161900000Y-89500000D02*
X162400000Y-89000000D01*
X173244296Y-87600000D02*
X172044296Y-88800000D01*
X120514713Y-100390489D02*
X119954511Y-100390489D01*
X116522500Y-103822500D02*
X115313887Y-103822500D01*
X112126763Y-105092500D02*
X110848792Y-106370471D01*
X172044296Y-88800000D02*
X169400000Y-88800000D01*
X161900000Y-89500000D02*
X161200000Y-89500000D01*
X123190000Y-98742500D02*
X122162702Y-98742500D01*
X162400000Y-89000000D02*
X168800000Y-89000000D01*
X123507500Y-99060000D02*
X131445000Y-99060000D01*
X161200000Y-89500000D02*
X161100000Y-89400000D01*
X160649520Y-88949520D02*
X131700000Y-88949520D01*
X131445000Y-99060000D02*
X131762500Y-98742500D01*
X161607500Y-88900000D02*
X161307500Y-88600000D01*
X128200000Y-88600000D02*
X127900000Y-88300000D01*
X161307500Y-88600000D02*
X128200000Y-88600000D01*
X169862500Y-107632500D02*
X176847500Y-107632500D01*
X138430000Y-107632500D02*
X169862500Y-107632500D01*
D22*
X174800000Y-88100000D02*
X173500000Y-88100000D01*
D23*
X136207500Y-105410000D02*
X138430000Y-107632500D01*
X125730000Y-105410000D02*
X136207500Y-105410000D01*
X168909282Y-107632500D02*
X169862500Y-107632500D01*
X177165000Y-107950000D02*
X194310000Y-107950000D01*
D22*
X175000000Y-88300000D02*
X174800000Y-88100000D01*
D23*
X176847500Y-107632500D02*
X177165000Y-107950000D01*
X114238792Y-105520471D02*
X119947989Y-105520471D01*
X194310000Y-107950000D02*
X198120000Y-111760000D01*
X120412029Y-105984511D02*
X125155489Y-105984511D01*
X125155489Y-105984511D02*
X125730000Y-105410000D01*
X113388792Y-106370471D02*
X114238792Y-105520471D01*
D22*
X173500000Y-88100000D02*
X172800000Y-88800000D01*
D23*
X119947989Y-105520471D02*
X120412029Y-105984511D01*
X117682491Y-70100000D02*
X115709991Y-72072500D01*
D22*
X175600000Y-91500000D02*
X175400000Y-91700000D01*
X171700000Y-93000000D02*
X168600000Y-93000000D01*
X175400000Y-91700000D02*
X173000000Y-91700000D01*
D23*
X175700000Y-72200000D02*
X173600000Y-70100000D01*
D22*
X173000000Y-91700000D02*
X171700000Y-93000000D01*
D23*
X115709991Y-72072500D02*
X110172500Y-72072500D01*
X173600000Y-70100000D02*
X117682491Y-70100000D01*
X109537500Y-74579179D02*
X110848792Y-75890471D01*
X110172500Y-72072500D02*
X109537500Y-72707500D01*
X194627500Y-82550000D02*
X194945000Y-82867500D01*
X109537500Y-72707500D02*
X109537500Y-74579179D01*
X175700000Y-79400000D02*
X178850000Y-82550000D01*
X178850000Y-82550000D02*
X194627500Y-82550000D01*
D22*
X173000000Y-92700000D02*
X195600000Y-92700000D01*
X113388792Y-70810471D02*
X114499263Y-69700000D01*
X114499263Y-69700000D02*
X195600000Y-69700000D01*
D23*
X165200000Y-87200000D02*
X167400000Y-87200000D01*
X167400000Y-87200000D02*
X169000000Y-85600000D01*
X196850000Y-85090000D02*
X198120000Y-83820000D01*
D22*
X167000000Y-93400000D02*
X162200000Y-93400000D01*
D23*
X135900000Y-86900000D02*
X164900000Y-86900000D01*
X135812500Y-87100000D02*
X135700000Y-87100000D01*
X126365000Y-104775000D02*
X115887500Y-104775000D01*
X172600000Y-85600000D02*
X172720000Y-85480000D01*
X164900000Y-86900000D02*
X165200000Y-87200000D01*
X126365000Y-113982500D02*
X125730000Y-113347500D01*
X172720000Y-85480000D02*
X172720000Y-85407500D01*
X173037500Y-85090000D02*
X196850000Y-85090000D01*
X135572500Y-104775000D02*
X126365000Y-104775000D01*
X125730000Y-113347500D02*
X115887500Y-113347500D01*
X172720000Y-85407500D02*
X173037500Y-85090000D01*
X135700000Y-87100000D02*
X135900000Y-86900000D01*
X169000000Y-85600000D02*
X172600000Y-85600000D01*
X132080000Y-82232500D02*
X125730000Y-82232500D01*
X210690000Y-80010000D02*
X181610000Y-80010000D01*
X211100000Y-79600000D02*
X210690000Y-80010000D01*
X211100000Y-79600000D02*
X211100000Y-68925000D01*
X181610000Y-80010000D02*
X180340000Y-78740000D01*
X184610000Y-72390000D02*
X182600000Y-74400000D01*
X209550000Y-72390000D02*
X184610000Y-72390000D01*
X180800000Y-76200000D02*
X180340000Y-76200000D01*
X196532500Y-71120000D02*
X180340000Y-71120000D01*
D28*
X139300000Y-76500000D02*
X139302400Y-76502400D01*
X181921250Y-76800000D02*
X181251250Y-77470000D01*
X191678750Y-76800000D02*
X181921250Y-76800000D01*
X178394950Y-76516200D02*
X179362550Y-77483800D01*
X209500000Y-76800000D02*
X209518745Y-76800000D01*
D29*
X181251250Y-77470000D02*
X179346250Y-77470000D01*
D28*
X199742500Y-76800000D02*
X199072500Y-77470000D01*
X196589900Y-76786200D02*
X197259900Y-77456200D01*
X186818600Y-76800000D02*
X196576100Y-76800000D01*
X139302400Y-76502400D02*
X178402400Y-76502400D01*
X209500000Y-76800000D02*
X199742500Y-76800000D01*
D29*
X199072500Y-77470000D02*
X197167500Y-77470000D01*
D23*
X180340000Y-104140000D02*
X138430000Y-104140000D01*
X123190000Y-108267500D02*
X123190000Y-107772518D01*
X117792500Y-92392500D02*
X112110821Y-92392500D01*
X122732482Y-107315000D02*
X117792500Y-107315000D01*
X112110821Y-92392500D02*
X110848792Y-91130471D01*
X123857020Y-107600480D02*
X123190000Y-108267500D01*
X123190000Y-107772518D02*
X122732482Y-107315000D01*
X135222980Y-107600480D02*
X123857020Y-107600480D01*
X135255000Y-107632500D02*
X135222980Y-107600480D01*
D22*
X166800000Y-89600000D02*
X163800000Y-89600000D01*
D23*
X175895000Y-102235000D02*
X149542500Y-102235000D01*
X120650000Y-111125000D02*
X115252500Y-111125000D01*
X176530000Y-101600000D02*
X175895000Y-102235000D01*
X180340000Y-101600000D02*
X176530000Y-101600000D01*
X132715000Y-111760000D02*
X121285000Y-111760000D01*
X121285000Y-111760000D02*
X120650000Y-111125000D01*
X149542500Y-102235000D02*
X138112500Y-102235000D01*
X125412500Y-92075000D02*
X123825000Y-93662500D01*
X113982500Y-107632500D02*
X112077500Y-107632500D01*
X123825000Y-93662500D02*
X115252500Y-93662500D01*
X133985000Y-93980000D02*
X132080000Y-92075000D01*
X132080000Y-92075000D02*
X125412500Y-92075000D01*
X118745000Y-106362500D02*
X115252500Y-106362500D01*
X115252500Y-106362500D02*
X113982500Y-107632500D01*
X180340000Y-99060000D02*
X175260000Y-99060000D01*
X173672500Y-100647500D02*
X169552500Y-100647500D01*
X169552500Y-100647500D02*
X145415000Y-100647500D01*
X175260000Y-99060000D02*
X173672500Y-100647500D01*
X145415000Y-93980000D02*
X133985000Y-93980000D01*
X118427500Y-91757500D02*
X117792500Y-91122500D01*
X124777500Y-90805000D02*
X122237500Y-90805000D01*
X170805480Y-98742500D02*
X140335000Y-98742500D01*
D22*
X176700000Y-90700000D02*
X176575480Y-90575480D01*
D23*
X180340000Y-96520000D02*
X175260000Y-96520000D01*
D22*
X172600000Y-90300000D02*
X172300000Y-90300000D01*
D23*
X125095000Y-91090480D02*
X125062980Y-91090480D01*
X125062980Y-91090480D02*
X124777500Y-90805000D01*
X117784529Y-91130471D02*
X113388792Y-91130471D01*
X122237500Y-90805000D02*
X120967500Y-90805000D01*
X122872500Y-104140000D02*
X118427500Y-104140000D01*
X125762020Y-91090480D02*
X125095000Y-91090480D01*
X173037500Y-98742500D02*
X170805480Y-98742500D01*
X117792500Y-91122500D02*
X117784529Y-91130471D01*
X140335000Y-90805000D02*
X126047500Y-90805000D01*
X120015000Y-91757500D02*
X118427500Y-91757500D01*
X175260000Y-96520000D02*
X173037500Y-98742500D01*
D22*
X173600000Y-90000000D02*
X172900000Y-90000000D01*
X174175480Y-90575480D02*
X173600000Y-90000000D01*
D23*
X126047500Y-90805000D02*
X125762020Y-91090480D01*
D22*
X172900000Y-90000000D02*
X172600000Y-90300000D01*
X176575480Y-90575480D02*
X174175480Y-90575480D01*
D23*
X142200000Y-91600000D02*
X141600000Y-91000000D01*
X173200000Y-90700000D02*
X173400000Y-90900000D01*
X172700000Y-91200000D02*
X169200000Y-91200000D01*
X116522500Y-88582500D02*
X116514529Y-88590471D01*
X118487989Y-117852989D02*
X122020850Y-117852989D01*
X140800000Y-90200000D02*
X141600000Y-91000000D01*
X116514529Y-88590471D02*
X113388792Y-88590471D01*
X122020850Y-117852989D02*
X122277861Y-118110000D01*
X117700000Y-88400000D02*
X125900000Y-88400000D01*
X166400000Y-91600000D02*
X142200000Y-91600000D01*
X127700000Y-90200000D02*
X140800000Y-90200000D01*
X173200000Y-90700000D02*
X172700000Y-91200000D01*
X116522500Y-115887500D02*
X118487989Y-117852989D01*
X169200000Y-91200000D02*
X166800000Y-91200000D01*
X116522500Y-88582500D02*
X117517500Y-88582500D01*
X166800000Y-91200000D02*
X166400000Y-91600000D01*
X117517500Y-88582500D02*
X117700000Y-88400000D01*
X173400000Y-90900000D02*
X175800000Y-90900000D01*
X176340000Y-91440000D02*
X180340000Y-91440000D01*
X125900000Y-88400000D02*
X127700000Y-90200000D01*
X175800000Y-90900000D02*
X176340000Y-91440000D01*
X174625000Y-79692500D02*
X176530000Y-81597500D01*
X118427500Y-82867500D02*
X119697500Y-82867500D01*
X117157500Y-82232500D02*
X112110821Y-82232500D01*
X163407500Y-79692500D02*
X174625000Y-79692500D01*
X119697500Y-82867500D02*
X121285000Y-81280000D01*
X112110821Y-82232500D02*
X110848792Y-80970471D01*
X121285000Y-81280000D02*
X122872500Y-79692500D01*
X122872500Y-79692500D02*
X163407500Y-79692500D01*
X176530000Y-81597500D02*
X176530000Y-81915000D01*
X117792500Y-82867500D02*
X118427500Y-82867500D01*
X121285000Y-118427500D02*
X117157500Y-118427500D01*
X117157500Y-82232500D02*
X117792500Y-82867500D01*
X115570000Y-83502500D02*
X114300000Y-84772500D01*
X120332500Y-115252500D02*
X112165018Y-115252500D01*
X180340000Y-86360000D02*
X173990000Y-86360000D01*
X120000000Y-84200000D02*
X119302500Y-83502500D01*
X171950000Y-88400000D02*
X162000000Y-88400000D01*
X161700000Y-88100000D02*
X135100000Y-88100000D01*
X119302500Y-83502500D02*
X115570000Y-83502500D01*
X162000000Y-88400000D02*
X161700000Y-88100000D01*
X112165018Y-115252500D02*
X112077500Y-115252500D01*
X112110821Y-84772500D02*
X110848792Y-83510471D01*
X114300000Y-84772500D02*
X112110821Y-84772500D01*
X135100000Y-88100000D02*
X131200000Y-84200000D01*
X131200000Y-84200000D02*
X120000000Y-84200000D01*
X173990000Y-86360000D02*
X171950000Y-88400000D01*
X166300000Y-86500000D02*
X166300000Y-86200000D01*
D22*
X180340000Y-83820000D02*
X179705000Y-84455000D01*
D23*
X122149982Y-112624982D02*
X112023303Y-112624982D01*
X168700000Y-84455000D02*
X167455000Y-85700000D01*
X167455000Y-85700000D02*
X166800000Y-85700000D01*
X132080000Y-113347500D02*
X126594470Y-113347500D01*
X122237500Y-112712500D02*
X122149982Y-112624982D01*
X166800000Y-85700000D02*
X166300000Y-86200000D01*
X126594470Y-113347500D02*
X125959470Y-112712500D01*
X166300000Y-86500000D02*
X135100000Y-86500000D01*
X125959470Y-112712500D02*
X122237500Y-112712500D01*
X179705000Y-84455000D02*
X168700000Y-84455000D01*
X112023303Y-112624982D02*
X110848792Y-111450471D01*
D28*
X196292300Y-75883800D02*
X197259900Y-74916200D01*
X209502400Y-75897600D02*
X209518745Y-75897600D01*
X182218850Y-75897600D02*
X181251250Y-74930000D01*
X178692550Y-75613800D02*
X179362550Y-74943800D01*
X200040100Y-75897600D02*
X199072500Y-74930000D01*
X191681150Y-75897600D02*
X182218850Y-75897600D01*
X186816200Y-75897600D02*
X196278500Y-75897600D01*
D29*
X199072500Y-74930000D02*
X197167500Y-74930000D01*
D28*
X138100000Y-75900000D02*
X138400000Y-75600000D01*
D29*
X181251250Y-74930000D02*
X179346250Y-74930000D01*
D28*
X138400000Y-75600000D02*
X178700000Y-75600000D01*
X209502400Y-75897600D02*
X200040100Y-75897600D01*
M02*
