G04 #@! TF.GenerationSoftware,KiCad,Pcbnew,(6.0.5-0)*
G04 #@! TF.CreationDate,2022-06-11T14:47:18-06:00*
G04 #@! TF.ProjectId,PiGUS,50694755-532e-46b6-9963-61645f706362,rev?*
G04 #@! TF.SameCoordinates,Original*
G04 #@! TF.FileFunction,Copper,L1,Top*
G04 #@! TF.FilePolarity,Positive*
%FSLAX46Y46*%
G04 Gerber Fmt 4.6, Leading zero omitted, Abs format (unit mm)*
G04 Created by KiCad (PCBNEW (6.0.5-0)) date 2022-06-11 14:47:18*
%MOMM*%
%LPD*%
G01*
G04 APERTURE LIST*
G04 Aperture macros list*
%AMRoundRect*
0 Rectangle with rounded corners*
0 $1 Rounding radius*
0 $2 $3 $4 $5 $6 $7 $8 $9 X,Y pos of 4 corners*
0 Add a 4 corners polygon primitive as box body*
4,1,4,$2,$3,$4,$5,$6,$7,$8,$9,$2,$3,0*
0 Add four circle primitives for the rounded corners*
1,1,$1+$1,$2,$3*
1,1,$1+$1,$4,$5*
1,1,$1+$1,$6,$7*
1,1,$1+$1,$8,$9*
0 Add four rect primitives between the rounded corners*
20,1,$1+$1,$2,$3,$4,$5,0*
20,1,$1+$1,$4,$5,$6,$7,0*
20,1,$1+$1,$6,$7,$8,$9,0*
20,1,$1+$1,$8,$9,$2,$3,0*%
G04 Aperture macros list end*
G04 #@! TA.AperFunction,ConnectorPad*
%ADD10R,1.524000X6.858000*%
G04 #@! TD*
G04 #@! TA.AperFunction,ComponentPad*
%ADD11R,1.700000X1.700000*%
G04 #@! TD*
G04 #@! TA.AperFunction,ComponentPad*
%ADD12O,1.700000X1.700000*%
G04 #@! TD*
G04 #@! TA.AperFunction,SMDPad,CuDef*
%ADD13RoundRect,0.250000X-0.450000X0.262500X-0.450000X-0.262500X0.450000X-0.262500X0.450000X0.262500X0*%
G04 #@! TD*
G04 #@! TA.AperFunction,SMDPad,CuDef*
%ADD14RoundRect,0.100000X-0.637500X-0.100000X0.637500X-0.100000X0.637500X0.100000X-0.637500X0.100000X0*%
G04 #@! TD*
G04 #@! TA.AperFunction,SMDPad,CuDef*
%ADD15RoundRect,0.250000X-0.475000X0.250000X-0.475000X-0.250000X0.475000X-0.250000X0.475000X0.250000X0*%
G04 #@! TD*
G04 #@! TA.AperFunction,SMDPad,CuDef*
%ADD16RoundRect,0.250000X0.475000X-0.250000X0.475000X0.250000X-0.475000X0.250000X-0.475000X-0.250000X0*%
G04 #@! TD*
G04 #@! TA.AperFunction,ViaPad*
%ADD17C,0.800000*%
G04 #@! TD*
G04 #@! TA.AperFunction,Conductor*
%ADD18C,0.250000*%
G04 #@! TD*
G04 #@! TA.AperFunction,Conductor*
%ADD19C,0.500000*%
G04 #@! TD*
G04 #@! TA.AperFunction,Conductor*
%ADD20C,0.300000*%
G04 #@! TD*
G04 #@! TA.AperFunction,Conductor*
%ADD21C,1.000000*%
G04 #@! TD*
G04 APERTURE END LIST*
D10*
X168275000Y-90170000D03*
X165735000Y-90170000D03*
X163195000Y-90170000D03*
X160655000Y-90170000D03*
X158115000Y-90170000D03*
X155575000Y-90170000D03*
X153035000Y-90170000D03*
X150495000Y-90170000D03*
X147955000Y-90170000D03*
X145415000Y-90170000D03*
X142875000Y-90170000D03*
X140335000Y-90170000D03*
X137795000Y-90170000D03*
X135255000Y-90170000D03*
X132715000Y-90170000D03*
X130175000Y-90170000D03*
X127635000Y-90170000D03*
X125095000Y-90170000D03*
X122555000Y-90170000D03*
X120015000Y-90170000D03*
X117475000Y-90170000D03*
X114935000Y-90170000D03*
X112395000Y-90170000D03*
X109855000Y-90170000D03*
X107315000Y-90170000D03*
X104775000Y-90170000D03*
X102235000Y-90170000D03*
X99695000Y-90170000D03*
X97155000Y-90170000D03*
X94615000Y-90170000D03*
X92075000Y-90170000D03*
D11*
X140330000Y-59050000D03*
D12*
X140330000Y-56510000D03*
X137790000Y-59050000D03*
X137790000Y-56510000D03*
X135250000Y-59050000D03*
X135250000Y-56510000D03*
X132710000Y-59050000D03*
X132710000Y-56510000D03*
X130170000Y-59050000D03*
X130170000Y-56510000D03*
X127630000Y-59050000D03*
X127630000Y-56510000D03*
X125090000Y-59050000D03*
X125090000Y-56510000D03*
X122550000Y-59050000D03*
X122550000Y-56510000D03*
X120010000Y-59050000D03*
X120010000Y-56510000D03*
X117470000Y-59050000D03*
X117470000Y-56510000D03*
X114930000Y-59050000D03*
X114930000Y-56510000D03*
X112390000Y-59050000D03*
X112390000Y-56510000D03*
X109850000Y-59050000D03*
X109850000Y-56510000D03*
X107310000Y-59050000D03*
X107310000Y-56510000D03*
X104770000Y-59050000D03*
X104770000Y-56510000D03*
X102230000Y-59050000D03*
X102230000Y-56510000D03*
X99690000Y-59050000D03*
X99690000Y-56510000D03*
X97150000Y-59050000D03*
X97150000Y-56510000D03*
X94610000Y-59050000D03*
X94610000Y-56510000D03*
X92070000Y-59050000D03*
X92070000Y-56510000D03*
D13*
X144145000Y-56872500D03*
X144145000Y-58697500D03*
D14*
X112072500Y-65655000D03*
X112072500Y-66305000D03*
X112072500Y-66955000D03*
X112072500Y-67605000D03*
X112072500Y-68255000D03*
X112072500Y-68905000D03*
X112072500Y-69555000D03*
X112072500Y-70205000D03*
X112072500Y-70855000D03*
X112072500Y-71505000D03*
X117797500Y-71505000D03*
X117797500Y-70855000D03*
X117797500Y-70205000D03*
X117797500Y-69555000D03*
X117797500Y-68905000D03*
X117797500Y-68255000D03*
X117797500Y-67605000D03*
X117797500Y-66955000D03*
X117797500Y-66305000D03*
X117797500Y-65655000D03*
D15*
X109855000Y-66097500D03*
X109855000Y-67997500D03*
D14*
X97467500Y-65655000D03*
X97467500Y-66305000D03*
X97467500Y-66955000D03*
X97467500Y-67605000D03*
X97467500Y-68255000D03*
X97467500Y-68905000D03*
X97467500Y-69555000D03*
X97467500Y-70205000D03*
X97467500Y-70855000D03*
X97467500Y-71505000D03*
X103192500Y-71505000D03*
X103192500Y-70855000D03*
X103192500Y-70205000D03*
X103192500Y-69555000D03*
X103192500Y-68905000D03*
X103192500Y-68255000D03*
X103192500Y-67605000D03*
X103192500Y-66955000D03*
X103192500Y-66305000D03*
X103192500Y-65655000D03*
D15*
X120015000Y-66040000D03*
X120015000Y-67940000D03*
D14*
X140012500Y-65655000D03*
X140012500Y-66305000D03*
X140012500Y-66955000D03*
X140012500Y-67605000D03*
X140012500Y-68255000D03*
X140012500Y-68905000D03*
X140012500Y-69555000D03*
X140012500Y-70205000D03*
X140012500Y-70855000D03*
X140012500Y-71505000D03*
X145737500Y-71505000D03*
X145737500Y-70855000D03*
X145737500Y-70205000D03*
X145737500Y-69555000D03*
X145737500Y-68905000D03*
X145737500Y-68255000D03*
X145737500Y-67605000D03*
X145737500Y-66955000D03*
X145737500Y-66305000D03*
X145737500Y-65655000D03*
D15*
X105410000Y-66097500D03*
X105410000Y-67997500D03*
D12*
X114935000Y-77475000D03*
X114935000Y-74935000D03*
X117475000Y-77475000D03*
X117475000Y-74935000D03*
X120015000Y-77475000D03*
X120015000Y-74935000D03*
X122555000Y-77475000D03*
X122555000Y-74935000D03*
X125095000Y-77475000D03*
X125095000Y-74935000D03*
X127635000Y-77475000D03*
X127635000Y-74935000D03*
D15*
X95250000Y-66097500D03*
X95250000Y-67997500D03*
D16*
X137795000Y-65085000D03*
X137795000Y-63185000D03*
D11*
X168275000Y-81275000D03*
D12*
X165735000Y-81275000D03*
X163195000Y-81275000D03*
X160655000Y-81275000D03*
X158115000Y-81275000D03*
X155575000Y-81275000D03*
X153035000Y-81275000D03*
X150495000Y-81275000D03*
X147955000Y-81275000D03*
X145415000Y-81275000D03*
X142875000Y-81275000D03*
X140335000Y-81275000D03*
X137795000Y-81275000D03*
X135255000Y-81275000D03*
X132715000Y-81275000D03*
X130175000Y-81275000D03*
X127635000Y-81275000D03*
X125095000Y-81275000D03*
X122555000Y-81275000D03*
X120015000Y-81275000D03*
X117475000Y-81275000D03*
X114935000Y-81275000D03*
X112395000Y-81275000D03*
X109855000Y-81275000D03*
X107315000Y-81275000D03*
X104775000Y-81275000D03*
X102235000Y-81275000D03*
X99695000Y-81275000D03*
X97155000Y-81275000D03*
X94615000Y-81275000D03*
X92075000Y-81275000D03*
X168275000Y-83815000D03*
X165735000Y-83815000D03*
X163195000Y-83815000D03*
X160655000Y-83815000D03*
X158115000Y-83815000D03*
X155575000Y-83815000D03*
X153035000Y-83815000D03*
X150495000Y-83815000D03*
X147955000Y-83815000D03*
X145415000Y-83815000D03*
X142875000Y-83815000D03*
X140335000Y-83815000D03*
X137795000Y-83815000D03*
X135255000Y-83815000D03*
X132715000Y-83815000D03*
X130175000Y-83815000D03*
X127635000Y-83815000D03*
X125095000Y-83815000D03*
X122555000Y-83815000D03*
X120015000Y-83815000D03*
X117475000Y-83815000D03*
X114935000Y-83815000D03*
X112395000Y-83815000D03*
X109855000Y-83815000D03*
X107315000Y-83815000D03*
X104775000Y-83815000D03*
X102235000Y-83815000D03*
X99695000Y-83815000D03*
X97155000Y-83815000D03*
X94615000Y-83815000D03*
X92075000Y-83815000D03*
D15*
X147955000Y-66360000D03*
X147955000Y-68260000D03*
D17*
X106045000Y-78740000D03*
X106134500Y-75565000D03*
X104685500Y-74295000D03*
X106769500Y-74295000D03*
X139065000Y-62230000D03*
X103505000Y-73025000D03*
X118110000Y-72479500D03*
X121285000Y-67945000D03*
X105410000Y-69215000D03*
X144145000Y-59967500D03*
X147955000Y-69850000D03*
X93980000Y-67945000D03*
X145415000Y-72390000D03*
X108585000Y-67945000D03*
X147955000Y-64770000D03*
X95885000Y-85725000D03*
X161925000Y-85730000D03*
X121285000Y-66040000D03*
X106680000Y-67310000D03*
X102235000Y-64135000D03*
X96609500Y-64135000D03*
X96520000Y-62230000D03*
X104685500Y-63270989D03*
X99605500Y-69215000D03*
X133138051Y-54520500D03*
X135890000Y-66675000D03*
X109855000Y-53340000D03*
X141605000Y-67945000D03*
X137795000Y-68580000D03*
X112395000Y-53340000D03*
X112395000Y-62865000D03*
X120015000Y-64770000D03*
X124460000Y-63500000D03*
X114935000Y-62865000D03*
X134620000Y-62230000D03*
X134620000Y-69850000D03*
X99060000Y-70485000D03*
X106680000Y-62319500D03*
X100419500Y-62230000D03*
X99695000Y-60960000D03*
X113665000Y-66040000D03*
X93980000Y-66040000D03*
X116205000Y-72479500D03*
X95885000Y-71755000D03*
X138430000Y-71755000D03*
X143510000Y-55522500D03*
X110490000Y-71755000D03*
X108568817Y-68944371D03*
X122555000Y-62319500D03*
X115765517Y-64574483D03*
X109148245Y-69778245D03*
X116840000Y-64770000D03*
X109855000Y-70485000D03*
D18*
X93345000Y-82545000D02*
X92075000Y-83815000D01*
X93345000Y-80645000D02*
X93345000Y-82545000D01*
X103192500Y-65655000D02*
X102504639Y-65655000D01*
X100330000Y-73660000D02*
X93345000Y-80645000D01*
X102504639Y-65655000D02*
X100330000Y-67829639D01*
D19*
X92075000Y-90170000D02*
X92075000Y-83815000D01*
D18*
X100330000Y-67829639D02*
X100330000Y-73660000D01*
X95885000Y-80010000D02*
X95885000Y-82545000D01*
X101955000Y-66955000D02*
X100779520Y-68130480D01*
X95885000Y-82545000D02*
X94615000Y-83815000D01*
D19*
X94615000Y-90170000D02*
X94615000Y-83815000D01*
D18*
X103192500Y-66955000D02*
X101955000Y-66955000D01*
X100779520Y-75115480D02*
X95885000Y-80010000D01*
X100779520Y-68130480D02*
X100779520Y-75115480D01*
X98425000Y-82550000D02*
X98420000Y-82550000D01*
X98420000Y-82550000D02*
X97155000Y-83815000D01*
X98425000Y-79375000D02*
X98425000Y-82550000D01*
X101229040Y-68316678D02*
X101940718Y-67605000D01*
X101229040Y-68316678D02*
X101229040Y-76570960D01*
D19*
X97155000Y-90170000D02*
X97155000Y-83815000D01*
D18*
X103192500Y-67605000D02*
X101940718Y-67605000D01*
X101229040Y-76570960D02*
X98425000Y-79375000D01*
X101678560Y-78661440D02*
X100965000Y-79375000D01*
X100965000Y-79375000D02*
X100965000Y-82550000D01*
X102184293Y-68255000D02*
X101678560Y-68760733D01*
D19*
X99695000Y-90170000D02*
X99695000Y-83815000D01*
D18*
X103192500Y-68255000D02*
X102184293Y-68255000D01*
X100965000Y-82550000D02*
X100960000Y-82550000D01*
X100960000Y-82550000D02*
X99695000Y-83815000D01*
X101678560Y-68760733D02*
X101678560Y-78661440D01*
X102504639Y-68905000D02*
X103192500Y-68905000D01*
X102130480Y-78635480D02*
X102130480Y-69279159D01*
D19*
X102235000Y-90170000D02*
X102235000Y-83815000D01*
D18*
X103505000Y-80010000D02*
X102130480Y-78635480D01*
X102130480Y-69279159D02*
X102504639Y-68905000D01*
X102235000Y-83815000D02*
X103505000Y-82545000D01*
X103505000Y-82545000D02*
X103505000Y-80010000D01*
D19*
X104775000Y-90170000D02*
X104775000Y-83815000D01*
D18*
X104725386Y-69555000D02*
X106045000Y-70874614D01*
X106045000Y-70874614D02*
X106045000Y-75565000D01*
X106045000Y-82545000D02*
X104775000Y-83815000D01*
X106045000Y-78740000D02*
X106045000Y-82545000D01*
X103192500Y-69555000D02*
X104725386Y-69555000D01*
X105410000Y-71120000D02*
X104495000Y-70205000D01*
X107315000Y-83815000D02*
X108585000Y-82545000D01*
X105410000Y-76200000D02*
X105410000Y-71120000D01*
X108585000Y-79375000D02*
X105410000Y-76200000D01*
X108585000Y-82545000D02*
X108585000Y-79375000D01*
D19*
X107315000Y-90170000D02*
X107315000Y-83815000D01*
D18*
X104495000Y-70205000D02*
X103192500Y-70205000D01*
X106769500Y-74295000D02*
X111125000Y-78650500D01*
X111125000Y-78650500D02*
X111125000Y-82545000D01*
X104685500Y-74295000D02*
X104685500Y-71660139D01*
X104685500Y-71660139D02*
X103880361Y-70855000D01*
D19*
X109855000Y-90170000D02*
X109855000Y-83815000D01*
D18*
X103880361Y-70855000D02*
X103192500Y-70855000D01*
X111125000Y-82545000D02*
X109855000Y-83815000D01*
D19*
X112395000Y-90170000D02*
X112395000Y-83815000D01*
D18*
X112395000Y-83815000D02*
X113694511Y-82515489D01*
X114300000Y-68580000D02*
X116205000Y-66675000D01*
X113030000Y-73660000D02*
X114300000Y-72390000D01*
X116590000Y-65655000D02*
X117797500Y-65655000D01*
X114300000Y-72390000D02*
X114300000Y-68580000D01*
X116205000Y-66040000D02*
X116590000Y-65655000D01*
X113030000Y-78740000D02*
X113030000Y-73660000D01*
X116205000Y-66675000D02*
X116205000Y-66040000D01*
X113694511Y-79404511D02*
X113030000Y-78740000D01*
X113694511Y-82515489D02*
X113694511Y-79404511D01*
D20*
X117797500Y-66955000D02*
X117010978Y-66955000D01*
X113735489Y-73660939D02*
X113735489Y-75431855D01*
X115570000Y-76200000D02*
X116200000Y-76830000D01*
X116200000Y-82550000D02*
X114935000Y-83815000D01*
X113735489Y-75431855D02*
X114503634Y-76200000D01*
X114503634Y-76200000D02*
X115570000Y-76200000D01*
X114935000Y-72461428D02*
X113735489Y-73660939D01*
X116200000Y-76830000D02*
X116200000Y-82550000D01*
X117010978Y-66955000D02*
X114935000Y-69030978D01*
D19*
X114935000Y-90170000D02*
X114935000Y-83815000D01*
D20*
X114935000Y-69030978D02*
X114935000Y-72461428D01*
D18*
X141978361Y-74668361D02*
X146685000Y-79375000D01*
X141978360Y-68726279D02*
X141978361Y-72390000D01*
X146685000Y-79375000D02*
X146685000Y-82550000D01*
D19*
X147955000Y-90170000D02*
X147955000Y-83815000D01*
D18*
X145737500Y-65655000D02*
X145049639Y-65655000D01*
X146685000Y-82545000D02*
X147955000Y-83815000D01*
X141978361Y-72390000D02*
X141978361Y-74668361D01*
X145049639Y-65655000D02*
X141978360Y-68726279D01*
X145737500Y-66955000D02*
X145034055Y-66955000D01*
X145034055Y-66955000D02*
X142427880Y-69561175D01*
X142427881Y-73851470D02*
X147316411Y-78740000D01*
X148590000Y-78740000D02*
X149320489Y-79470489D01*
D19*
X150495000Y-90170000D02*
X150495000Y-83815000D01*
D18*
X142427880Y-69561175D02*
X142427881Y-73851470D01*
X147316411Y-78740000D02*
X148590000Y-78740000D01*
X149320489Y-79470489D02*
X149320489Y-82640489D01*
X149320489Y-82640489D02*
X150495000Y-83815000D01*
X142877400Y-69747372D02*
X142877401Y-73665272D01*
X151130000Y-76200000D02*
X151765000Y-76835000D01*
X151765000Y-76835000D02*
X151765000Y-82550000D01*
D19*
X153035000Y-90170000D02*
X153035000Y-83815000D01*
D18*
X145737500Y-67605000D02*
X145019772Y-67605000D01*
X142877401Y-73665272D02*
X145096064Y-75883935D01*
X145412129Y-76200000D02*
X151130000Y-76200000D01*
X145019772Y-67605000D02*
X142877400Y-69747372D01*
X145096064Y-75883935D02*
X145412129Y-76200000D01*
X151765000Y-82545000D02*
X153035000Y-83815000D01*
X145412847Y-75565000D02*
X145415000Y-75565000D01*
X154305000Y-76200000D02*
X154305000Y-82550000D01*
X145737500Y-68255000D02*
X145005489Y-68255000D01*
X143326920Y-73479074D02*
X143590243Y-73742396D01*
X153670000Y-75565000D02*
X154305000Y-76200000D01*
X143590243Y-73742396D02*
X145412847Y-75565000D01*
X143326920Y-69933569D02*
X143326920Y-73479074D01*
D19*
X155575000Y-90170000D02*
X155575000Y-83815000D01*
D18*
X145005489Y-68255000D02*
X143326920Y-69933569D01*
X154305000Y-82545000D02*
X155575000Y-83815000D01*
X145415000Y-75565000D02*
X153670000Y-75565000D01*
X156845000Y-75379520D02*
X156845000Y-82550000D01*
X145413564Y-74930000D02*
X156395480Y-74930000D01*
X143776440Y-70178199D02*
X143776440Y-73292876D01*
X145049639Y-68905000D02*
X143776440Y-70178199D01*
X145737500Y-68905000D02*
X145049639Y-68905000D01*
X156845000Y-82545000D02*
X158115000Y-83815000D01*
X156395480Y-74930000D02*
X156845000Y-75379520D01*
D19*
X158115000Y-90170000D02*
X158115000Y-83815000D01*
D18*
X143776440Y-73292876D02*
X145413564Y-74930000D01*
X158750000Y-74295000D02*
X159385000Y-74930000D01*
X145414282Y-74295000D02*
X158750000Y-74295000D01*
X144225960Y-73106678D02*
X145414282Y-74295000D01*
D19*
X160655000Y-90170000D02*
X160655000Y-83815000D01*
D18*
X159385000Y-82545000D02*
X160655000Y-83815000D01*
X144225960Y-70378679D02*
X144225960Y-73106678D01*
X145049639Y-69555000D02*
X144225960Y-70378679D01*
X159385000Y-74930000D02*
X159385000Y-82545000D01*
X145737500Y-69555000D02*
X145049639Y-69555000D01*
X144675480Y-70579159D02*
X144675480Y-72920480D01*
X145737500Y-70205000D02*
X145049639Y-70205000D01*
X161290000Y-73660000D02*
X161925000Y-74295000D01*
X161925000Y-82545000D02*
X163195000Y-83815000D01*
X145049639Y-70205000D02*
X144675480Y-70579159D01*
X144675480Y-72920480D02*
X145415000Y-73660000D01*
X145415000Y-73660000D02*
X161290000Y-73660000D01*
D19*
X163195000Y-90170000D02*
X163195000Y-83815000D01*
D18*
X161925000Y-74295000D02*
X161925000Y-82545000D01*
X164200000Y-70855000D02*
X164465000Y-71120000D01*
X164465000Y-71120000D02*
X164465000Y-82545000D01*
D19*
X165735000Y-90170000D02*
X165735000Y-83815000D01*
D18*
X164465000Y-82545000D02*
X165735000Y-83815000D01*
X145737500Y-70855000D02*
X164200000Y-70855000D01*
X109855000Y-67997500D02*
X108637500Y-67997500D01*
X103192500Y-72712500D02*
X103505000Y-73025000D01*
D20*
X137795000Y-62838750D02*
X138456250Y-62838750D01*
X138456250Y-62838750D02*
X139065000Y-62230000D01*
D18*
X147955000Y-68580000D02*
X147955000Y-69850000D01*
D20*
X145737500Y-72067500D02*
X145737500Y-71505000D01*
D18*
X103192500Y-71505000D02*
X103192500Y-72712500D01*
D20*
X95197500Y-67945000D02*
X95250000Y-67997500D01*
X117797500Y-72167000D02*
X118110000Y-72479500D01*
D18*
X108637500Y-67997500D02*
X108585000Y-67945000D01*
D20*
X117797500Y-71505000D02*
X117797500Y-72167000D01*
X105410000Y-67997500D02*
X105410000Y-69215000D01*
X145415000Y-72390000D02*
X145737500Y-72067500D01*
D21*
X142875000Y-90170000D02*
X142875000Y-83815000D01*
D18*
X121285000Y-67945000D02*
X120067500Y-67945000D01*
D20*
X93980000Y-67945000D02*
X95197500Y-67945000D01*
D18*
X144145000Y-58697500D02*
X144145000Y-59967500D01*
X121285000Y-66040000D02*
X120015000Y-66040000D01*
X147955000Y-66360000D02*
X147955000Y-64770000D01*
X145737500Y-66305000D02*
X147900000Y-66305000D01*
X117797500Y-66305000D02*
X119750000Y-66305000D01*
X106680000Y-67310000D02*
X105467500Y-66097500D01*
X147900000Y-66305000D02*
X147955000Y-66360000D01*
X119750000Y-66305000D02*
X120015000Y-66040000D01*
X105467500Y-66097500D02*
X105410000Y-66097500D01*
X105410000Y-66097500D02*
X105202500Y-66305000D01*
X105202500Y-66305000D02*
X103192500Y-66305000D01*
D20*
X118544511Y-68255000D02*
X118745000Y-68455489D01*
X118784511Y-68455489D02*
X118784511Y-68518794D01*
X127572081Y-72390000D02*
X135255000Y-80072919D01*
X123825000Y-72390000D02*
X127572081Y-72390000D01*
X135255000Y-80072919D02*
X135255000Y-81275000D01*
X118784511Y-68518794D02*
X119346197Y-69080480D01*
X120515480Y-69080480D02*
X123825000Y-72390000D01*
X117797500Y-68255000D02*
X118544511Y-68255000D01*
X118745000Y-68455489D02*
X118784511Y-68455489D01*
X119346197Y-69080480D02*
X120515480Y-69080480D01*
X118777151Y-67605000D02*
X119291671Y-67090480D01*
X119291671Y-67090480D02*
X123610480Y-67090480D01*
X117797500Y-67605000D02*
X118777151Y-67605000D01*
X123610480Y-67090480D02*
X137795000Y-81275000D01*
X102349511Y-64020489D02*
X102235000Y-64135000D01*
X105930489Y-64020489D02*
X108865000Y-66955000D01*
X93345000Y-57785000D02*
X92070000Y-56510000D01*
X95250000Y-64135000D02*
X93345000Y-62230000D01*
X96609500Y-64135000D02*
X95250000Y-64135000D01*
X93345000Y-62230000D02*
X93345000Y-57785000D01*
X112072500Y-66955000D02*
X108865000Y-66955000D01*
X102349511Y-64020489D02*
X105930489Y-64020489D01*
D18*
X95885000Y-60960000D02*
X96520000Y-61595000D01*
X95885000Y-57785000D02*
X95885000Y-60960000D01*
X96520000Y-61595000D02*
X96520000Y-62230000D01*
X108990989Y-63270989D02*
X111375000Y-65655000D01*
X94610000Y-56510000D02*
X95885000Y-57785000D01*
X111375000Y-65655000D02*
X112072500Y-65655000D01*
X104685500Y-63270989D02*
X108990989Y-63270989D01*
X92620489Y-62140489D02*
X90805000Y-60325000D01*
X92620489Y-68490489D02*
X92620489Y-62140489D01*
X95885000Y-55245000D02*
X97150000Y-56510000D01*
X90805000Y-56113990D02*
X91673990Y-55245000D01*
X96591659Y-69092980D02*
X93222980Y-69092980D01*
X97467500Y-68905000D02*
X96779639Y-68905000D01*
X93222980Y-69092980D02*
X92620489Y-68490489D01*
X96779639Y-68905000D02*
X96591659Y-69092980D01*
X90805000Y-60325000D02*
X90805000Y-56113990D01*
X91673990Y-55245000D02*
X95885000Y-55245000D01*
X98155361Y-70855000D02*
X97467500Y-70855000D01*
X98509872Y-71209511D02*
X98155361Y-70855000D01*
X99605500Y-69215000D02*
X99605500Y-69760500D01*
X99605500Y-69760500D02*
X99880480Y-70035480D01*
X98509872Y-71209511D02*
X99605489Y-71209511D01*
X99880480Y-70035480D02*
X99880480Y-70934520D01*
X99605489Y-71209511D02*
X99880480Y-70934520D01*
X97467500Y-66955000D02*
X98492506Y-66955000D01*
X98970489Y-59769511D02*
X99690000Y-59050000D01*
X98492506Y-66955000D02*
X98970489Y-66477017D01*
X98970489Y-66477017D02*
X98970489Y-59769511D01*
X97467500Y-60647500D02*
X97467500Y-65655000D01*
X98425000Y-59690000D02*
X98425000Y-58420000D01*
X98425000Y-58420000D02*
X99060000Y-57785000D01*
X101094520Y-57785000D02*
X102230000Y-56649520D01*
X99060000Y-57785000D02*
X101094520Y-57785000D01*
X97467500Y-60647500D02*
X98425000Y-59690000D01*
X130810000Y-51435000D02*
X133138051Y-53763051D01*
X107950000Y-51435000D02*
X130810000Y-51435000D01*
X102230000Y-59050000D02*
X103505000Y-57775000D01*
X103505000Y-55880000D02*
X107950000Y-51435000D01*
X136820000Y-67605000D02*
X135890000Y-66675000D01*
X140012500Y-67605000D02*
X136820000Y-67605000D01*
X103505000Y-57775000D02*
X103505000Y-55880000D01*
X133138051Y-53763051D02*
X133138051Y-54520500D01*
X104770000Y-59050000D02*
X106045000Y-57775000D01*
X106045000Y-55880000D02*
X109855000Y-52070000D01*
X125095000Y-60960000D02*
X135255000Y-60960000D01*
X138127507Y-66955000D02*
X140012500Y-66955000D01*
X136525000Y-65352493D02*
X138127507Y-66955000D01*
X123825000Y-59690000D02*
X125095000Y-60960000D01*
X119771010Y-52070000D02*
X123825000Y-56123990D01*
X106045000Y-57775000D02*
X106045000Y-55880000D01*
X123825000Y-56123990D02*
X123825000Y-59690000D01*
X136525000Y-62230000D02*
X136525000Y-65352493D01*
X135255000Y-60960000D02*
X136525000Y-62230000D01*
X109855000Y-52070000D02*
X119771010Y-52070000D01*
X108585000Y-62230000D02*
X108585000Y-60325000D01*
X113406933Y-67322681D02*
X114389511Y-66340103D01*
X114389511Y-66340103D02*
X114389511Y-65494511D01*
X109177187Y-62821469D02*
X109176469Y-62821469D01*
X112072500Y-67605000D02*
X112760361Y-67605000D01*
X108585000Y-60325000D02*
X107310000Y-59050000D01*
X114389511Y-65494511D02*
X113665000Y-64770000D01*
X111125718Y-64770000D02*
X109177187Y-62821469D01*
X113042680Y-67322681D02*
X113406933Y-67322681D01*
X109176469Y-62821469D02*
X108585000Y-62230000D01*
X112760361Y-67605000D02*
X112985850Y-67379511D01*
X113665000Y-64770000D02*
X111125718Y-64770000D01*
X109850000Y-53980000D02*
X109855000Y-53975000D01*
X109855000Y-53975000D02*
X109855000Y-53340000D01*
X140012500Y-68255000D02*
X141295000Y-68255000D01*
X141295000Y-68255000D02*
X141605000Y-67945000D01*
X109850000Y-56510000D02*
X109850000Y-53980000D01*
X138120000Y-68905000D02*
X137795000Y-68580000D01*
X140012500Y-68905000D02*
X138120000Y-68905000D01*
X112390000Y-53345000D02*
X112395000Y-53340000D01*
X112390000Y-56510000D02*
X112390000Y-53345000D01*
X128640000Y-70855000D02*
X140012500Y-70855000D01*
X112390000Y-62860000D02*
X112395000Y-62865000D01*
X112390000Y-59050000D02*
X112390000Y-62860000D01*
X120015000Y-64770000D02*
X122555000Y-64770000D01*
X122555000Y-64770000D02*
X128640000Y-70855000D01*
X140012500Y-69555000D02*
X135349614Y-69555000D01*
X129294614Y-63500000D02*
X124460000Y-63500000D01*
X135349614Y-69555000D02*
X129294614Y-63500000D01*
X114930000Y-59050000D02*
X114930000Y-62860000D01*
X114930000Y-62860000D02*
X114935000Y-62865000D01*
X117470000Y-59050000D02*
X117470000Y-58171010D01*
X118745000Y-56896010D02*
X118745000Y-56113990D01*
X121285000Y-56123990D02*
X121285000Y-62074114D01*
X118745000Y-56113990D02*
X119613631Y-55245359D01*
X140012500Y-70205000D02*
X134975000Y-70205000D01*
X119613631Y-55245359D02*
X120406369Y-55245359D01*
X120406010Y-55245000D02*
X121285000Y-56123990D01*
X121285000Y-62074114D02*
X122254897Y-63044011D01*
X124460000Y-62230000D02*
X134620000Y-62230000D01*
X117470000Y-58171010D02*
X118745000Y-56896010D01*
X123645989Y-63044011D02*
X124460000Y-62230000D01*
X134975000Y-70205000D02*
X134620000Y-69850000D01*
X122254897Y-63044011D02*
X123645989Y-63044011D01*
D20*
X97467500Y-70205000D02*
X98780000Y-70205000D01*
X98780000Y-70205000D02*
X99060000Y-70485000D01*
D18*
X99060000Y-68650361D02*
X98155361Y-69555000D01*
X103025886Y-62319500D02*
X100965000Y-64380386D01*
X100965000Y-64380386D02*
X100965000Y-66425014D01*
X98155361Y-69555000D02*
X97467500Y-69555000D01*
X106680000Y-62319500D02*
X103025886Y-62319500D01*
X99060000Y-68330014D02*
X99060000Y-68650361D01*
X100965000Y-66425014D02*
X99060000Y-68330014D01*
X98499296Y-68255000D02*
X97467500Y-68255000D01*
X100330000Y-66424296D02*
X98499296Y-68255000D01*
X100312244Y-64752244D02*
X100330000Y-64770000D01*
X100330000Y-64770000D02*
X100330000Y-66424296D01*
X100312244Y-62337256D02*
X100312244Y-64752244D01*
X100419500Y-62230000D02*
X100312244Y-62337256D01*
X97467500Y-67605000D02*
X98513578Y-67605000D01*
X99695000Y-66423578D02*
X99695000Y-62230000D01*
X98513578Y-67605000D02*
X99695000Y-66423578D01*
X99605489Y-62140489D02*
X99605489Y-61049511D01*
X99605489Y-61049511D02*
X99695000Y-60960000D01*
X99695000Y-62230000D02*
X99605489Y-62140489D01*
X139065000Y-60325000D02*
X133985000Y-60325000D01*
X140012500Y-61272500D02*
X139065000Y-60325000D01*
X133985000Y-60325000D02*
X132710000Y-59050000D01*
X140012500Y-65655000D02*
X140012500Y-61272500D01*
X113665717Y-64135000D02*
X114839031Y-65308314D01*
X108585000Y-57785000D02*
X110490000Y-57785000D01*
X113593130Y-67772201D02*
X113243160Y-67772201D01*
X111125000Y-63500000D02*
X111760000Y-64135000D01*
X110490000Y-57785000D02*
X111125000Y-58420000D01*
X111125000Y-58420000D02*
X111125000Y-63500000D01*
X114839031Y-66526300D02*
X113593130Y-67772201D01*
X107310000Y-56510000D02*
X108585000Y-57785000D01*
X114839031Y-65308314D02*
X114839031Y-66526300D01*
X111760000Y-64135000D02*
X113665717Y-64135000D01*
X112760361Y-68255000D02*
X112072500Y-68255000D01*
X113243160Y-67772201D02*
X112760361Y-68255000D01*
D20*
X97467500Y-66305000D02*
X95457500Y-66305000D01*
D18*
X138695000Y-66305000D02*
X137795000Y-65405000D01*
D20*
X94037500Y-66097500D02*
X93980000Y-66040000D01*
D18*
X112072500Y-66305000D02*
X113400000Y-66305000D01*
X140012500Y-66305000D02*
X140705000Y-66305000D01*
X141605000Y-60325000D02*
X140330000Y-59050000D01*
D20*
X95457500Y-66305000D02*
X95250000Y-66097500D01*
D18*
X137795000Y-65405000D02*
X137795000Y-65085000D01*
D20*
X95250000Y-66097500D02*
X94037500Y-66097500D01*
D18*
X141605000Y-65405000D02*
X141605000Y-60325000D01*
X140012500Y-66305000D02*
X138695000Y-66305000D01*
X140705000Y-66305000D02*
X141605000Y-65405000D01*
X110062500Y-66305000D02*
X112072500Y-66305000D01*
X113400000Y-66305000D02*
X113665000Y-66040000D01*
X109855000Y-66097500D02*
X110062500Y-66305000D01*
X116205000Y-71759639D02*
X117109639Y-70855000D01*
X117109639Y-70855000D02*
X117797500Y-70855000D01*
X116205000Y-72479500D02*
X116205000Y-71759639D01*
X138680000Y-71505000D02*
X138430000Y-71755000D01*
X143510000Y-55522500D02*
X142875000Y-56157500D01*
X143510000Y-55522500D02*
X144145000Y-56157500D01*
X126365000Y-56113990D02*
X126365000Y-57775000D01*
X143510000Y-55522500D02*
X143232500Y-55245000D01*
X140012500Y-71505000D02*
X138680000Y-71505000D01*
X112072500Y-71505000D02*
X110740000Y-71505000D01*
X110740000Y-71505000D02*
X110490000Y-71755000D01*
X143232500Y-55245000D02*
X127233990Y-55245000D01*
X97467500Y-71505000D02*
X96135000Y-71505000D01*
X126365000Y-57775000D02*
X125090000Y-59050000D01*
X144145000Y-56157500D02*
X144145000Y-56872500D01*
X127233990Y-55245000D02*
X126365000Y-56113990D01*
X96135000Y-71505000D02*
X95885000Y-71755000D01*
X108608188Y-68905000D02*
X108568817Y-68944371D01*
X122555000Y-62319500D02*
X122550000Y-62314500D01*
X122550000Y-62314500D02*
X122550000Y-59050000D01*
X112072500Y-68905000D02*
X108608188Y-68905000D01*
X109371490Y-69555000D02*
X112072500Y-69555000D01*
X116205000Y-64135000D02*
X116205000Y-55880000D01*
X120650000Y-54610000D02*
X122550000Y-56510000D01*
X116205000Y-55880000D02*
X117475000Y-54610000D01*
X115765517Y-64574483D02*
X116205000Y-64135000D01*
X117475000Y-54610000D02*
X120650000Y-54610000D01*
X109148245Y-69778245D02*
X109371490Y-69555000D01*
X118745000Y-62865000D02*
X118745000Y-57775000D01*
X118745000Y-57775000D02*
X120010000Y-56510000D01*
X116840000Y-64770000D02*
X118745000Y-62865000D01*
X110135000Y-70205000D02*
X109855000Y-70485000D01*
X112072500Y-70205000D02*
X110135000Y-70205000D01*
X113825480Y-68383448D02*
X115570000Y-66638928D01*
X113665000Y-57775000D02*
X114930000Y-56510000D01*
X113665000Y-70485000D02*
X113665000Y-68580718D01*
X113825480Y-68420238D02*
X113825480Y-68383448D01*
X115570000Y-65403564D02*
X113665000Y-63498564D01*
X112072500Y-70855000D02*
X113295000Y-70855000D01*
X113665000Y-63498564D02*
X113665000Y-57775000D01*
X113295000Y-70855000D02*
X113665000Y-70485000D01*
X115570000Y-66638928D02*
X115570000Y-65403564D01*
X113665000Y-68580718D02*
X113825480Y-68420238D01*
D20*
X115455489Y-73774511D02*
X114935000Y-74295000D01*
X117797500Y-68905000D02*
X117074283Y-68905000D01*
X116205000Y-69774283D02*
X116205000Y-71088567D01*
X115455489Y-73774511D02*
X115455489Y-71838078D01*
X115455489Y-71838078D02*
X116205000Y-71088567D01*
X117074283Y-68905000D02*
X116205000Y-69774283D01*
X114935000Y-74935000D02*
X117475000Y-74935000D01*
D18*
X123920489Y-76109511D02*
X125095000Y-74935000D01*
X119715000Y-69555000D02*
X125095000Y-74935000D01*
X117797500Y-69555000D02*
X119715000Y-69555000D01*
X120015000Y-74935000D02*
X121189511Y-76109511D01*
X121189511Y-76109511D02*
X123920489Y-76109511D01*
X118485361Y-70205000D02*
X122555000Y-74274639D01*
X117797500Y-70205000D02*
X118485361Y-70205000D01*
X122555000Y-74274639D02*
X122555000Y-74935000D01*
D19*
X168275000Y-90170000D02*
X168275000Y-83815000D01*
X145415000Y-90170000D02*
X145415000Y-83815000D01*
X140335000Y-90170000D02*
X140335000Y-83815000D01*
X137795000Y-90170000D02*
X137795000Y-83815000D01*
X135255000Y-90170000D02*
X135255000Y-83815000D01*
X132715000Y-90170000D02*
X132715000Y-83815000D01*
X130175000Y-90170000D02*
X130175000Y-83815000D01*
X127635000Y-90170000D02*
X127635000Y-83815000D01*
X125095000Y-90170000D02*
X125095000Y-83815000D01*
X122555000Y-90170000D02*
X122555000Y-83815000D01*
X120015000Y-90170000D02*
X120015000Y-83815000D01*
X117475000Y-90170000D02*
X117475000Y-83815000D01*
M02*
