G04 #@! TF.GenerationSoftware,KiCad,Pcbnew,(6.0.5-0)*
G04 #@! TF.CreationDate,2022-07-12T21:34:34-06:00*
G04 #@! TF.ProjectId,PiGUS,50694755-532e-46b6-9963-61645f706362,rev?*
G04 #@! TF.SameCoordinates,Original*
G04 #@! TF.FileFunction,Legend,Top*
G04 #@! TF.FilePolarity,Positive*
%FSLAX46Y46*%
G04 Gerber Fmt 4.6, Leading zero omitted, Abs format (unit mm)*
G04 Created by KiCad (PCBNEW (6.0.5-0)) date 2022-07-12 21:34:34*
%MOMM*%
%LPD*%
G01*
G04 APERTURE LIST*
%ADD10C,0.500000*%
%ADD11C,0.150000*%
%ADD12C,0.330000*%
%ADD13C,0.254000*%
%ADD14C,0.120000*%
%ADD15C,0.100000*%
G04 APERTURE END LIST*
D10*
X208271428Y-84257142D02*
X208271428Y-81257142D01*
X209414285Y-81257142D01*
X209700000Y-81400000D01*
X209842857Y-81542857D01*
X209985714Y-81828571D01*
X209985714Y-82257142D01*
X209842857Y-82542857D01*
X209700000Y-82685714D01*
X209414285Y-82828571D01*
X208271428Y-82828571D01*
X211271428Y-84257142D02*
X211271428Y-82257142D01*
X211271428Y-81257142D02*
X211128571Y-81400000D01*
X211271428Y-81542857D01*
X211414285Y-81400000D01*
X211271428Y-81257142D01*
X211271428Y-81542857D01*
X212700000Y-84257142D02*
X212700000Y-81257142D01*
X213985714Y-84114285D02*
X214414285Y-84257142D01*
X215128571Y-84257142D01*
X215414285Y-84114285D01*
X215557142Y-83971428D01*
X215700000Y-83685714D01*
X215700000Y-83400000D01*
X215557142Y-83114285D01*
X215414285Y-82971428D01*
X215128571Y-82828571D01*
X214557142Y-82685714D01*
X214271428Y-82542857D01*
X214128571Y-82400000D01*
X213985714Y-82114285D01*
X213985714Y-81828571D01*
X214128571Y-81542857D01*
X214271428Y-81400000D01*
X214557142Y-81257142D01*
X215271428Y-81257142D01*
X215700000Y-81400000D01*
X216842857Y-83400000D02*
X218271428Y-83400000D01*
X216557142Y-84257142D02*
X217557142Y-81257142D01*
X218557142Y-84257142D01*
D11*
X251007619Y-89543095D02*
X251674285Y-89543095D01*
X251483809Y-89543095D02*
X251579047Y-89590714D01*
X251626666Y-89638333D01*
X251674285Y-89733571D01*
X251674285Y-89828809D01*
X251007619Y-90685952D02*
X251007619Y-90114523D01*
X251007619Y-90400238D02*
X252007619Y-90400238D01*
X251864761Y-90305000D01*
X251769523Y-90209761D01*
X251721904Y-90114523D01*
X251102857Y-91114523D02*
X251055238Y-91162142D01*
X251007619Y-91114523D01*
X251055238Y-91066904D01*
X251102857Y-91114523D01*
X251007619Y-91114523D01*
X252007619Y-91781190D02*
X252007619Y-91876428D01*
X251960000Y-91971666D01*
X251912380Y-92019285D01*
X251817142Y-92066904D01*
X251626666Y-92114523D01*
X251388571Y-92114523D01*
X251198095Y-92066904D01*
X251102857Y-92019285D01*
X251055238Y-91971666D01*
X251007619Y-91876428D01*
X251007619Y-91781190D01*
X251055238Y-91685952D01*
X251102857Y-91638333D01*
X251198095Y-91590714D01*
X251388571Y-91543095D01*
X251626666Y-91543095D01*
X251817142Y-91590714D01*
X251912380Y-91638333D01*
X251960000Y-91685952D01*
X252007619Y-91781190D01*
X191077380Y-119843095D02*
X190077380Y-119843095D01*
X190077380Y-119605000D01*
X190125000Y-119462142D01*
X190220238Y-119366904D01*
X190315476Y-119319285D01*
X190505952Y-119271666D01*
X190648809Y-119271666D01*
X190839285Y-119319285D01*
X190934523Y-119366904D01*
X191029761Y-119462142D01*
X191077380Y-119605000D01*
X191077380Y-119843095D01*
X191077380Y-118843095D02*
X190077380Y-118843095D01*
X190791666Y-118509761D01*
X190077380Y-118176428D01*
X191077380Y-118176428D01*
X190791666Y-117747857D02*
X190791666Y-117271666D01*
X191077380Y-117843095D02*
X190077380Y-117509761D01*
X191077380Y-117176428D01*
X191077380Y-116319285D02*
X191077380Y-116890714D01*
X191077380Y-116605000D02*
X190077380Y-116605000D01*
X190220238Y-116700238D01*
X190315476Y-116795476D01*
X190363095Y-116890714D01*
X192687380Y-119843095D02*
X191687380Y-119843095D01*
X191687380Y-119605000D01*
X191735000Y-119462142D01*
X191830238Y-119366904D01*
X191925476Y-119319285D01*
X192115952Y-119271666D01*
X192258809Y-119271666D01*
X192449285Y-119319285D01*
X192544523Y-119366904D01*
X192639761Y-119462142D01*
X192687380Y-119605000D01*
X192687380Y-119843095D01*
X192687380Y-118843095D02*
X191687380Y-118843095D01*
X192401666Y-118509761D01*
X191687380Y-118176428D01*
X192687380Y-118176428D01*
X192401666Y-117747857D02*
X192401666Y-117271666D01*
X192687380Y-117843095D02*
X191687380Y-117509761D01*
X192687380Y-117176428D01*
X192687380Y-116319285D02*
X192687380Y-116890714D01*
X192687380Y-116605000D02*
X191687380Y-116605000D01*
X191830238Y-116700238D01*
X191925476Y-116795476D01*
X191973095Y-116890714D01*
X194297380Y-119843095D02*
X193297380Y-119843095D01*
X193297380Y-119605000D01*
X193345000Y-119462142D01*
X193440238Y-119366904D01*
X193535476Y-119319285D01*
X193725952Y-119271666D01*
X193868809Y-119271666D01*
X194059285Y-119319285D01*
X194154523Y-119366904D01*
X194249761Y-119462142D01*
X194297380Y-119605000D01*
X194297380Y-119843095D01*
X194297380Y-118843095D02*
X193297380Y-118843095D01*
X194011666Y-118509761D01*
X193297380Y-118176428D01*
X194297380Y-118176428D01*
X194011666Y-117747857D02*
X194011666Y-117271666D01*
X194297380Y-117843095D02*
X193297380Y-117509761D01*
X194297380Y-117176428D01*
X193297380Y-116938333D02*
X193297380Y-116319285D01*
X193678333Y-116652619D01*
X193678333Y-116509761D01*
X193725952Y-116414523D01*
X193773571Y-116366904D01*
X193868809Y-116319285D01*
X194106904Y-116319285D01*
X194202142Y-116366904D01*
X194249761Y-116414523D01*
X194297380Y-116509761D01*
X194297380Y-116795476D01*
X194249761Y-116890714D01*
X194202142Y-116938333D01*
X195907380Y-119843095D02*
X194907380Y-119843095D01*
X194907380Y-119605000D01*
X194955000Y-119462142D01*
X195050238Y-119366904D01*
X195145476Y-119319285D01*
X195335952Y-119271666D01*
X195478809Y-119271666D01*
X195669285Y-119319285D01*
X195764523Y-119366904D01*
X195859761Y-119462142D01*
X195907380Y-119605000D01*
X195907380Y-119843095D01*
X195907380Y-118843095D02*
X194907380Y-118843095D01*
X195621666Y-118509761D01*
X194907380Y-118176428D01*
X195907380Y-118176428D01*
X195621666Y-117747857D02*
X195621666Y-117271666D01*
X195907380Y-117843095D02*
X194907380Y-117509761D01*
X195907380Y-117176428D01*
X194907380Y-116938333D02*
X194907380Y-116319285D01*
X195288333Y-116652619D01*
X195288333Y-116509761D01*
X195335952Y-116414523D01*
X195383571Y-116366904D01*
X195478809Y-116319285D01*
X195716904Y-116319285D01*
X195812142Y-116366904D01*
X195859761Y-116414523D01*
X195907380Y-116509761D01*
X195907380Y-116795476D01*
X195859761Y-116890714D01*
X195812142Y-116938333D01*
X171732380Y-119605000D02*
X170732380Y-119605000D01*
X171732380Y-118557380D02*
X171256190Y-118890714D01*
X171732380Y-119128809D02*
X170732380Y-119128809D01*
X170732380Y-118747857D01*
X170780000Y-118652619D01*
X170827619Y-118605000D01*
X170922857Y-118557380D01*
X171065714Y-118557380D01*
X171160952Y-118605000D01*
X171208571Y-118652619D01*
X171256190Y-118747857D01*
X171256190Y-119128809D01*
X171827619Y-117462142D02*
X171780000Y-117557380D01*
X171684761Y-117652619D01*
X171541904Y-117795476D01*
X171494285Y-117890714D01*
X171494285Y-117985952D01*
X171732380Y-117938333D02*
X171684761Y-118033571D01*
X171589523Y-118128809D01*
X171399047Y-118176428D01*
X171065714Y-118176428D01*
X170875238Y-118128809D01*
X170780000Y-118033571D01*
X170732380Y-117938333D01*
X170732380Y-117747857D01*
X170780000Y-117652619D01*
X170875238Y-117557380D01*
X171065714Y-117509761D01*
X171399047Y-117509761D01*
X171589523Y-117557380D01*
X171684761Y-117652619D01*
X171732380Y-117747857D01*
X171732380Y-117938333D01*
X170732380Y-116605000D02*
X170732380Y-117081190D01*
X171208571Y-117128809D01*
X171160952Y-117081190D01*
X171113333Y-116985952D01*
X171113333Y-116747857D01*
X171160952Y-116652619D01*
X171208571Y-116605000D01*
X171303809Y-116557380D01*
X171541904Y-116557380D01*
X171637142Y-116605000D01*
X171684761Y-116652619D01*
X171732380Y-116747857D01*
X171732380Y-116985952D01*
X171684761Y-117081190D01*
X171637142Y-117128809D01*
X173342380Y-119605000D02*
X172342380Y-119605000D01*
X173342380Y-118557380D02*
X172866190Y-118890714D01*
X173342380Y-119128809D02*
X172342380Y-119128809D01*
X172342380Y-118747857D01*
X172390000Y-118652619D01*
X172437619Y-118605000D01*
X172532857Y-118557380D01*
X172675714Y-118557380D01*
X172770952Y-118605000D01*
X172818571Y-118652619D01*
X172866190Y-118747857D01*
X172866190Y-119128809D01*
X173437619Y-117462142D02*
X173390000Y-117557380D01*
X173294761Y-117652619D01*
X173151904Y-117795476D01*
X173104285Y-117890714D01*
X173104285Y-117985952D01*
X173342380Y-117938333D02*
X173294761Y-118033571D01*
X173199523Y-118128809D01*
X173009047Y-118176428D01*
X172675714Y-118176428D01*
X172485238Y-118128809D01*
X172390000Y-118033571D01*
X172342380Y-117938333D01*
X172342380Y-117747857D01*
X172390000Y-117652619D01*
X172485238Y-117557380D01*
X172675714Y-117509761D01*
X173009047Y-117509761D01*
X173199523Y-117557380D01*
X173294761Y-117652619D01*
X173342380Y-117747857D01*
X173342380Y-117938333D01*
X172342380Y-117176428D02*
X172342380Y-116509761D01*
X173342380Y-116938333D01*
D12*
X198391071Y-119967261D02*
X197724404Y-119014880D01*
X197248214Y-119967261D02*
X197248214Y-117967261D01*
X198010119Y-117967261D01*
X198200595Y-118062500D01*
X198295833Y-118157738D01*
X198391071Y-118348214D01*
X198391071Y-118633928D01*
X198295833Y-118824404D01*
X198200595Y-118919642D01*
X198010119Y-119014880D01*
X197248214Y-119014880D01*
X199248214Y-118919642D02*
X199914880Y-118919642D01*
X200200595Y-119967261D02*
X199248214Y-119967261D01*
X199248214Y-117967261D01*
X200200595Y-117967261D01*
X200962500Y-119395833D02*
X201914880Y-119395833D01*
X200772023Y-119967261D02*
X201438690Y-117967261D01*
X202105357Y-119967261D01*
X203914880Y-119967261D02*
X203248214Y-119014880D01*
X202772023Y-119967261D02*
X202772023Y-117967261D01*
X203533928Y-117967261D01*
X203724404Y-118062500D01*
X203819642Y-118157738D01*
X203914880Y-118348214D01*
X203914880Y-118633928D01*
X203819642Y-118824404D01*
X203724404Y-118919642D01*
X203533928Y-119014880D01*
X202772023Y-119014880D01*
X206676785Y-117967261D02*
X207057738Y-117967261D01*
X207248214Y-118062500D01*
X207438690Y-118252976D01*
X207533928Y-118633928D01*
X207533928Y-119300595D01*
X207438690Y-119681547D01*
X207248214Y-119872023D01*
X207057738Y-119967261D01*
X206676785Y-119967261D01*
X206486309Y-119872023D01*
X206295833Y-119681547D01*
X206200595Y-119300595D01*
X206200595Y-118633928D01*
X206295833Y-118252976D01*
X206486309Y-118062500D01*
X206676785Y-117967261D01*
X209057738Y-118919642D02*
X208391071Y-118919642D01*
X208391071Y-119967261D02*
X208391071Y-117967261D01*
X209343452Y-117967261D01*
X211629166Y-119967261D02*
X211629166Y-117967261D01*
X212391071Y-117967261D01*
X212581547Y-118062500D01*
X212676785Y-118157738D01*
X212772023Y-118348214D01*
X212772023Y-118633928D01*
X212676785Y-118824404D01*
X212581547Y-118919642D01*
X212391071Y-119014880D01*
X211629166Y-119014880D01*
X214772023Y-119776785D02*
X214676785Y-119872023D01*
X214391071Y-119967261D01*
X214200595Y-119967261D01*
X213914880Y-119872023D01*
X213724404Y-119681547D01*
X213629166Y-119491071D01*
X213533928Y-119110119D01*
X213533928Y-118824404D01*
X213629166Y-118443452D01*
X213724404Y-118252976D01*
X213914880Y-118062500D01*
X214200595Y-117967261D01*
X214391071Y-117967261D01*
X214676785Y-118062500D01*
X214772023Y-118157738D01*
X217152976Y-118633928D02*
X218676785Y-119205357D01*
X217152976Y-119776785D01*
D11*
X249102619Y-85971666D02*
X250102619Y-85971666D01*
X249721666Y-85971666D02*
X249769285Y-86066904D01*
X249769285Y-86257380D01*
X249721666Y-86352619D01*
X249674047Y-86400238D01*
X249578809Y-86447857D01*
X249293095Y-86447857D01*
X249197857Y-86400238D01*
X249150238Y-86352619D01*
X249102619Y-86257380D01*
X249102619Y-86066904D01*
X249150238Y-85971666D01*
X249769285Y-86781190D02*
X249102619Y-87019285D01*
X249769285Y-87257380D02*
X249102619Y-87019285D01*
X248864523Y-86924047D01*
X248816904Y-86876428D01*
X248769285Y-86781190D01*
X249578809Y-89019285D02*
X249626428Y-88971666D01*
X249674047Y-88876428D01*
X249674047Y-88781190D01*
X249626428Y-88685952D01*
X249578809Y-88638333D01*
X249483571Y-88590714D01*
X249388333Y-88590714D01*
X249293095Y-88638333D01*
X249245476Y-88685952D01*
X249197857Y-88781190D01*
X249197857Y-88876428D01*
X249245476Y-88971666D01*
X249293095Y-89019285D01*
X249674047Y-89019285D02*
X249293095Y-89019285D01*
X249245476Y-89066904D01*
X249245476Y-89114523D01*
X249293095Y-89209761D01*
X249388333Y-89257380D01*
X249626428Y-89257380D01*
X249769285Y-89162142D01*
X249864523Y-89019285D01*
X249912142Y-88828809D01*
X249864523Y-88638333D01*
X249769285Y-88495476D01*
X249626428Y-88400238D01*
X249435952Y-88352619D01*
X249245476Y-88400238D01*
X249102619Y-88495476D01*
X249007380Y-88638333D01*
X248959761Y-88828809D01*
X249007380Y-89019285D01*
X249102619Y-89162142D01*
X249102619Y-89685952D02*
X249769285Y-89685952D01*
X250102619Y-89685952D02*
X250055000Y-89638333D01*
X250007380Y-89685952D01*
X250055000Y-89733571D01*
X250102619Y-89685952D01*
X250007380Y-89685952D01*
X249102619Y-90590714D02*
X249626428Y-90590714D01*
X249721666Y-90543095D01*
X249769285Y-90447857D01*
X249769285Y-90257380D01*
X249721666Y-90162142D01*
X249150238Y-90590714D02*
X249102619Y-90495476D01*
X249102619Y-90257380D01*
X249150238Y-90162142D01*
X249245476Y-90114523D01*
X249340714Y-90114523D01*
X249435952Y-90162142D01*
X249483571Y-90257380D01*
X249483571Y-90495476D01*
X249531190Y-90590714D01*
X249769285Y-91066904D02*
X249102619Y-91066904D01*
X249674047Y-91066904D02*
X249721666Y-91114523D01*
X249769285Y-91209761D01*
X249769285Y-91352619D01*
X249721666Y-91447857D01*
X249626428Y-91495476D01*
X249102619Y-91495476D01*
X249769285Y-91971666D02*
X248769285Y-91971666D01*
X249721666Y-91971666D02*
X249769285Y-92066904D01*
X249769285Y-92257380D01*
X249721666Y-92352619D01*
X249674047Y-92400238D01*
X249578809Y-92447857D01*
X249293095Y-92447857D01*
X249197857Y-92400238D01*
X249150238Y-92352619D01*
X249102619Y-92257380D01*
X249102619Y-92066904D01*
X249150238Y-91971666D01*
X249102619Y-93019285D02*
X249150238Y-92924047D01*
X249197857Y-92876428D01*
X249293095Y-92828809D01*
X249578809Y-92828809D01*
X249674047Y-92876428D01*
X249721666Y-92924047D01*
X249769285Y-93019285D01*
X249769285Y-93162142D01*
X249721666Y-93257380D01*
X249674047Y-93305000D01*
X249578809Y-93352619D01*
X249293095Y-93352619D01*
X249197857Y-93305000D01*
X249150238Y-93257380D01*
X249102619Y-93162142D01*
X249102619Y-93019285D01*
X249102619Y-93924047D02*
X249150238Y-93828809D01*
X249245476Y-93781190D01*
X250102619Y-93781190D01*
X249769285Y-94305000D02*
X248769285Y-94305000D01*
X249721666Y-94305000D02*
X249769285Y-94400238D01*
X249769285Y-94590714D01*
X249721666Y-94685952D01*
X249674047Y-94733571D01*
X249578809Y-94781190D01*
X249293095Y-94781190D01*
X249197857Y-94733571D01*
X249150238Y-94685952D01*
X249102619Y-94590714D01*
X249102619Y-94400238D01*
X249150238Y-94305000D01*
X249102619Y-95352619D02*
X249150238Y-95257380D01*
X249197857Y-95209761D01*
X249293095Y-95162142D01*
X249578809Y-95162142D01*
X249674047Y-95209761D01*
X249721666Y-95257380D01*
X249769285Y-95352619D01*
X249769285Y-95495476D01*
X249721666Y-95590714D01*
X249674047Y-95638333D01*
X249578809Y-95685952D01*
X249293095Y-95685952D01*
X249197857Y-95638333D01*
X249150238Y-95590714D01*
X249102619Y-95495476D01*
X249102619Y-95352619D01*
X117571172Y-95845232D02*
X117094982Y-96178566D01*
X117571172Y-96416661D02*
X116571172Y-96416661D01*
X116571172Y-96035709D01*
X116618792Y-95940471D01*
X116666411Y-95892851D01*
X116761649Y-95845232D01*
X116904506Y-95845232D01*
X116999744Y-95892851D01*
X117047363Y-95940471D01*
X117094982Y-96035709D01*
X117094982Y-96416661D01*
X117571172Y-95416661D02*
X116571172Y-95416661D01*
X116571172Y-95035709D01*
X116618792Y-94940471D01*
X116666411Y-94892851D01*
X116761649Y-94845232D01*
X116904506Y-94845232D01*
X116999744Y-94892851D01*
X117047363Y-94940471D01*
X117094982Y-95035709D01*
X117094982Y-95416661D01*
X117571172Y-94416661D02*
X116904506Y-94416661D01*
X116571172Y-94416661D02*
X116618792Y-94464280D01*
X116666411Y-94416661D01*
X116618792Y-94369042D01*
X116571172Y-94416661D01*
X116666411Y-94416661D01*
X117571172Y-93416661D02*
X117571172Y-93988090D01*
X117571172Y-93702375D02*
X116571172Y-93702375D01*
X116714030Y-93797613D01*
X116809268Y-93892851D01*
X116856887Y-93988090D01*
D13*
X124176666Y-68304523D02*
X124176666Y-69211666D01*
X124116190Y-69393095D01*
X123995238Y-69514047D01*
X123813809Y-69574523D01*
X123692857Y-69574523D01*
X125325714Y-68304523D02*
X125083809Y-68304523D01*
X124962857Y-68365000D01*
X124902380Y-68425476D01*
X124781428Y-68606904D01*
X124720952Y-68848809D01*
X124720952Y-69332619D01*
X124781428Y-69453571D01*
X124841904Y-69514047D01*
X124962857Y-69574523D01*
X125204761Y-69574523D01*
X125325714Y-69514047D01*
X125386190Y-69453571D01*
X125446666Y-69332619D01*
X125446666Y-69030238D01*
X125386190Y-68909285D01*
X125325714Y-68848809D01*
X125204761Y-68788333D01*
X124962857Y-68788333D01*
X124841904Y-68848809D01*
X124781428Y-68909285D01*
X124720952Y-69030238D01*
D11*
X150479166Y-136929880D02*
X150479166Y-137644166D01*
X150431547Y-137787023D01*
X150336309Y-137882261D01*
X150193452Y-137929880D01*
X150098214Y-137929880D01*
X150860119Y-136929880D02*
X151479166Y-136929880D01*
X151145833Y-137310833D01*
X151288690Y-137310833D01*
X151383928Y-137358452D01*
X151431547Y-137406071D01*
X151479166Y-137501309D01*
X151479166Y-137739404D01*
X151431547Y-137834642D01*
X151383928Y-137882261D01*
X151288690Y-137929880D01*
X151002976Y-137929880D01*
X150907738Y-137882261D01*
X150860119Y-137834642D01*
X124333095Y-74052380D02*
X124333095Y-74861904D01*
X124380714Y-74957142D01*
X124428333Y-75004761D01*
X124523571Y-75052380D01*
X124714047Y-75052380D01*
X124809285Y-75004761D01*
X124856904Y-74957142D01*
X124904523Y-74861904D01*
X124904523Y-74052380D01*
X125428333Y-75052380D02*
X125618809Y-75052380D01*
X125714047Y-75004761D01*
X125761666Y-74957142D01*
X125856904Y-74814285D01*
X125904523Y-74623809D01*
X125904523Y-74242857D01*
X125856904Y-74147619D01*
X125809285Y-74100000D01*
X125714047Y-74052380D01*
X125523571Y-74052380D01*
X125428333Y-74100000D01*
X125380714Y-74147619D01*
X125333095Y-74242857D01*
X125333095Y-74480952D01*
X125380714Y-74576190D01*
X125428333Y-74623809D01*
X125523571Y-74671428D01*
X125714047Y-74671428D01*
X125809285Y-74623809D01*
X125856904Y-74576190D01*
X125904523Y-74480952D01*
X209863601Y-77493845D02*
X209863601Y-78303369D01*
X209911220Y-78398607D01*
X209958839Y-78446226D01*
X210054077Y-78493845D01*
X210244554Y-78493845D01*
X210339792Y-78446226D01*
X210387411Y-78398607D01*
X210435030Y-78303369D01*
X210435030Y-77493845D01*
X211435030Y-78493845D02*
X210863601Y-78493845D01*
X211149316Y-78493845D02*
X211149316Y-77493845D01*
X211054077Y-77636703D01*
X210958839Y-77731941D01*
X210863601Y-77779560D01*
X212054077Y-77493845D02*
X212149316Y-77493845D01*
X212244554Y-77541465D01*
X212292173Y-77589084D01*
X212339792Y-77684322D01*
X212387411Y-77874798D01*
X212387411Y-78112893D01*
X212339792Y-78303369D01*
X212292173Y-78398607D01*
X212244554Y-78446226D01*
X212149316Y-78493845D01*
X212054077Y-78493845D01*
X211958839Y-78446226D01*
X211911220Y-78398607D01*
X211863601Y-78303369D01*
X211815982Y-78112893D01*
X211815982Y-77874798D01*
X211863601Y-77684322D01*
X211911220Y-77589084D01*
X211958839Y-77541465D01*
X212054077Y-77493845D01*
X204449642Y-124832857D02*
X204497261Y-124880476D01*
X204544880Y-125023333D01*
X204544880Y-125118571D01*
X204497261Y-125261428D01*
X204402023Y-125356666D01*
X204306785Y-125404285D01*
X204116309Y-125451904D01*
X203973452Y-125451904D01*
X203782976Y-125404285D01*
X203687738Y-125356666D01*
X203592500Y-125261428D01*
X203544880Y-125118571D01*
X203544880Y-125023333D01*
X203592500Y-124880476D01*
X203640119Y-124832857D01*
X204544880Y-123880476D02*
X204544880Y-124451904D01*
X204544880Y-124166190D02*
X203544880Y-124166190D01*
X203687738Y-124261428D01*
X203782976Y-124356666D01*
X203830595Y-124451904D01*
X203544880Y-123261428D02*
X203544880Y-123166190D01*
X203592500Y-123070952D01*
X203640119Y-123023333D01*
X203735357Y-122975714D01*
X203925833Y-122928095D01*
X204163928Y-122928095D01*
X204354404Y-122975714D01*
X204449642Y-123023333D01*
X204497261Y-123070952D01*
X204544880Y-123166190D01*
X204544880Y-123261428D01*
X204497261Y-123356666D01*
X204449642Y-123404285D01*
X204354404Y-123451904D01*
X204163928Y-123499523D01*
X203925833Y-123499523D01*
X203735357Y-123451904D01*
X203640119Y-123404285D01*
X203592500Y-123356666D01*
X203544880Y-123261428D01*
X129992380Y-78906666D02*
X129516190Y-79240000D01*
X129992380Y-79478095D02*
X128992380Y-79478095D01*
X128992380Y-79097142D01*
X129040000Y-79001904D01*
X129087619Y-78954285D01*
X129182857Y-78906666D01*
X129325714Y-78906666D01*
X129420952Y-78954285D01*
X129468571Y-79001904D01*
X129516190Y-79097142D01*
X129516190Y-79478095D01*
X129992380Y-77954285D02*
X129992380Y-78525714D01*
X129992380Y-78240000D02*
X128992380Y-78240000D01*
X129135238Y-78335238D01*
X129230476Y-78430476D01*
X129278095Y-78525714D01*
X205570833Y-73792142D02*
X205523214Y-73839761D01*
X205380357Y-73887380D01*
X205285119Y-73887380D01*
X205142261Y-73839761D01*
X205047023Y-73744523D01*
X204999404Y-73649285D01*
X204951785Y-73458809D01*
X204951785Y-73315952D01*
X204999404Y-73125476D01*
X205047023Y-73030238D01*
X205142261Y-72935000D01*
X205285119Y-72887380D01*
X205380357Y-72887380D01*
X205523214Y-72935000D01*
X205570833Y-72982619D01*
X206142261Y-73315952D02*
X206047023Y-73268333D01*
X205999404Y-73220714D01*
X205951785Y-73125476D01*
X205951785Y-73077857D01*
X205999404Y-72982619D01*
X206047023Y-72935000D01*
X206142261Y-72887380D01*
X206332738Y-72887380D01*
X206427976Y-72935000D01*
X206475595Y-72982619D01*
X206523214Y-73077857D01*
X206523214Y-73125476D01*
X206475595Y-73220714D01*
X206427976Y-73268333D01*
X206332738Y-73315952D01*
X206142261Y-73315952D01*
X206047023Y-73363571D01*
X205999404Y-73411190D01*
X205951785Y-73506428D01*
X205951785Y-73696904D01*
X205999404Y-73792142D01*
X206047023Y-73839761D01*
X206142261Y-73887380D01*
X206332738Y-73887380D01*
X206427976Y-73839761D01*
X206475595Y-73792142D01*
X206523214Y-73696904D01*
X206523214Y-73506428D01*
X206475595Y-73411190D01*
X206427976Y-73363571D01*
X206332738Y-73315952D01*
X130687380Y-77166666D02*
X130211190Y-77500000D01*
X130687380Y-77738095D02*
X129687380Y-77738095D01*
X129687380Y-77357142D01*
X129735000Y-77261904D01*
X129782619Y-77214285D01*
X129877857Y-77166666D01*
X130020714Y-77166666D01*
X130115952Y-77214285D01*
X130163571Y-77261904D01*
X130211190Y-77357142D01*
X130211190Y-77738095D01*
X129782619Y-76785714D02*
X129735000Y-76738095D01*
X129687380Y-76642857D01*
X129687380Y-76404761D01*
X129735000Y-76309523D01*
X129782619Y-76261904D01*
X129877857Y-76214285D01*
X129973095Y-76214285D01*
X130115952Y-76261904D01*
X130687380Y-76833333D01*
X130687380Y-76214285D01*
X126032142Y-102719166D02*
X126079761Y-102766785D01*
X126127380Y-102909642D01*
X126127380Y-103004880D01*
X126079761Y-103147738D01*
X125984523Y-103242976D01*
X125889285Y-103290595D01*
X125698809Y-103338214D01*
X125555952Y-103338214D01*
X125365476Y-103290595D01*
X125270238Y-103242976D01*
X125175000Y-103147738D01*
X125127380Y-103004880D01*
X125127380Y-102909642D01*
X125175000Y-102766785D01*
X125222619Y-102719166D01*
X126127380Y-101766785D02*
X126127380Y-102338214D01*
X126127380Y-102052500D02*
X125127380Y-102052500D01*
X125270238Y-102147738D01*
X125365476Y-102242976D01*
X125413095Y-102338214D01*
X127922380Y-92201904D02*
X128731904Y-92201904D01*
X128827142Y-92154285D01*
X128874761Y-92106666D01*
X128922380Y-92011428D01*
X128922380Y-91820952D01*
X128874761Y-91725714D01*
X128827142Y-91678095D01*
X128731904Y-91630476D01*
X127922380Y-91630476D01*
X127922380Y-90725714D02*
X127922380Y-90916190D01*
X127970000Y-91011428D01*
X128017619Y-91059047D01*
X128160476Y-91154285D01*
X128350952Y-91201904D01*
X128731904Y-91201904D01*
X128827142Y-91154285D01*
X128874761Y-91106666D01*
X128922380Y-91011428D01*
X128922380Y-90820952D01*
X128874761Y-90725714D01*
X128827142Y-90678095D01*
X128731904Y-90630476D01*
X128493809Y-90630476D01*
X128398571Y-90678095D01*
X128350952Y-90725714D01*
X128303333Y-90820952D01*
X128303333Y-91011428D01*
X128350952Y-91106666D01*
X128398571Y-91154285D01*
X128493809Y-91201904D01*
X174366666Y-61847380D02*
X174366666Y-62561666D01*
X174319047Y-62704523D01*
X174223809Y-62799761D01*
X174080952Y-62847380D01*
X173985714Y-62847380D01*
X174985714Y-62275952D02*
X174890476Y-62228333D01*
X174842857Y-62180714D01*
X174795238Y-62085476D01*
X174795238Y-62037857D01*
X174842857Y-61942619D01*
X174890476Y-61895000D01*
X174985714Y-61847380D01*
X175176190Y-61847380D01*
X175271428Y-61895000D01*
X175319047Y-61942619D01*
X175366666Y-62037857D01*
X175366666Y-62085476D01*
X175319047Y-62180714D01*
X175271428Y-62228333D01*
X175176190Y-62275952D01*
X174985714Y-62275952D01*
X174890476Y-62323571D01*
X174842857Y-62371190D01*
X174795238Y-62466428D01*
X174795238Y-62656904D01*
X174842857Y-62752142D01*
X174890476Y-62799761D01*
X174985714Y-62847380D01*
X175176190Y-62847380D01*
X175271428Y-62799761D01*
X175319047Y-62752142D01*
X175366666Y-62656904D01*
X175366666Y-62466428D01*
X175319047Y-62371190D01*
X175271428Y-62323571D01*
X175176190Y-62275952D01*
X126032142Y-97004166D02*
X126079761Y-97051785D01*
X126127380Y-97194642D01*
X126127380Y-97289880D01*
X126079761Y-97432738D01*
X125984523Y-97527976D01*
X125889285Y-97575595D01*
X125698809Y-97623214D01*
X125555952Y-97623214D01*
X125365476Y-97575595D01*
X125270238Y-97527976D01*
X125175000Y-97432738D01*
X125127380Y-97289880D01*
X125127380Y-97194642D01*
X125175000Y-97051785D01*
X125222619Y-97004166D01*
X125460714Y-96147023D02*
X126127380Y-96147023D01*
X125079761Y-96385119D02*
X125794047Y-96623214D01*
X125794047Y-96004166D01*
X208907142Y-82342857D02*
X208954761Y-82390476D01*
X209002380Y-82533333D01*
X209002380Y-82628571D01*
X208954761Y-82771428D01*
X208859523Y-82866666D01*
X208764285Y-82914285D01*
X208573809Y-82961904D01*
X208430952Y-82961904D01*
X208240476Y-82914285D01*
X208145238Y-82866666D01*
X208050000Y-82771428D01*
X208002380Y-82628571D01*
X208002380Y-82533333D01*
X208050000Y-82390476D01*
X208097619Y-82342857D01*
X209002380Y-81390476D02*
X209002380Y-81961904D01*
X209002380Y-81676190D02*
X208002380Y-81676190D01*
X208145238Y-81771428D01*
X208240476Y-81866666D01*
X208288095Y-81961904D01*
X209002380Y-80438095D02*
X209002380Y-81009523D01*
X209002380Y-80723809D02*
X208002380Y-80723809D01*
X208145238Y-80819047D01*
X208240476Y-80914285D01*
X208288095Y-81009523D01*
X211454077Y-72874798D02*
X212168363Y-72874798D01*
X212311220Y-72922417D01*
X212406458Y-73017655D01*
X212454077Y-73160512D01*
X212454077Y-73255750D01*
X211454077Y-72493845D02*
X211454077Y-71827179D01*
X212454077Y-72255750D01*
X128309642Y-109386666D02*
X128357261Y-109434285D01*
X128404880Y-109577142D01*
X128404880Y-109672380D01*
X128357261Y-109815238D01*
X128262023Y-109910476D01*
X128166785Y-109958095D01*
X127976309Y-110005714D01*
X127833452Y-110005714D01*
X127642976Y-109958095D01*
X127547738Y-109910476D01*
X127452500Y-109815238D01*
X127404880Y-109672380D01*
X127404880Y-109577142D01*
X127452500Y-109434285D01*
X127500119Y-109386666D01*
X127404880Y-108481904D02*
X127404880Y-108958095D01*
X127881071Y-109005714D01*
X127833452Y-108958095D01*
X127785833Y-108862857D01*
X127785833Y-108624761D01*
X127833452Y-108529523D01*
X127881071Y-108481904D01*
X127976309Y-108434285D01*
X128214404Y-108434285D01*
X128309642Y-108481904D01*
X128357261Y-108529523D01*
X128404880Y-108624761D01*
X128404880Y-108862857D01*
X128357261Y-108958095D01*
X128309642Y-109005714D01*
X126524880Y-100456904D02*
X127334404Y-100456904D01*
X127429642Y-100409285D01*
X127477261Y-100361666D01*
X127524880Y-100266428D01*
X127524880Y-100075952D01*
X127477261Y-99980714D01*
X127429642Y-99933095D01*
X127334404Y-99885476D01*
X126524880Y-99885476D01*
X127524880Y-98885476D02*
X127524880Y-99456904D01*
X127524880Y-99171190D02*
X126524880Y-99171190D01*
X126667738Y-99266428D01*
X126762976Y-99361666D01*
X126810595Y-99456904D01*
X126409880Y-109029404D02*
X127219404Y-109029404D01*
X127314642Y-108981785D01*
X127362261Y-108934166D01*
X127409880Y-108838928D01*
X127409880Y-108648452D01*
X127362261Y-108553214D01*
X127314642Y-108505595D01*
X127219404Y-108457976D01*
X126409880Y-108457976D01*
X126743214Y-107553214D02*
X127409880Y-107553214D01*
X126362261Y-107791309D02*
X127076547Y-108029404D01*
X127076547Y-107410357D01*
X188468095Y-87082380D02*
X188468095Y-87891904D01*
X188515714Y-87987142D01*
X188563333Y-88034761D01*
X188658571Y-88082380D01*
X188849047Y-88082380D01*
X188944285Y-88034761D01*
X188991904Y-87987142D01*
X189039523Y-87891904D01*
X189039523Y-87082380D01*
X189420476Y-87082380D02*
X190087142Y-87082380D01*
X189658571Y-88082380D01*
X207639880Y-67754404D02*
X208449404Y-67754404D01*
X208544642Y-67706785D01*
X208592261Y-67659166D01*
X208639880Y-67563928D01*
X208639880Y-67373452D01*
X208592261Y-67278214D01*
X208544642Y-67230595D01*
X208449404Y-67182976D01*
X207639880Y-67182976D01*
X208068452Y-66563928D02*
X208020833Y-66659166D01*
X207973214Y-66706785D01*
X207877976Y-66754404D01*
X207830357Y-66754404D01*
X207735119Y-66706785D01*
X207687500Y-66659166D01*
X207639880Y-66563928D01*
X207639880Y-66373452D01*
X207687500Y-66278214D01*
X207735119Y-66230595D01*
X207830357Y-66182976D01*
X207877976Y-66182976D01*
X207973214Y-66230595D01*
X208020833Y-66278214D01*
X208068452Y-66373452D01*
X208068452Y-66563928D01*
X208116071Y-66659166D01*
X208163690Y-66706785D01*
X208258928Y-66754404D01*
X208449404Y-66754404D01*
X208544642Y-66706785D01*
X208592261Y-66659166D01*
X208639880Y-66563928D01*
X208639880Y-66373452D01*
X208592261Y-66278214D01*
X208544642Y-66230595D01*
X208449404Y-66182976D01*
X208258928Y-66182976D01*
X208163690Y-66230595D01*
X208116071Y-66278214D01*
X208068452Y-66373452D01*
X214896795Y-129992380D02*
X214896795Y-128992380D01*
X214896795Y-129468571D02*
X215468223Y-129468571D01*
X215468223Y-129992380D02*
X215468223Y-128992380D01*
X215896795Y-129087619D02*
X215944414Y-129040000D01*
X216039652Y-128992380D01*
X216277747Y-128992380D01*
X216372985Y-129040000D01*
X216420604Y-129087619D01*
X216468223Y-129182857D01*
X216468223Y-129278095D01*
X216420604Y-129420952D01*
X215849176Y-129992380D01*
X216468223Y-129992380D01*
X129375833Y-84402142D02*
X129328214Y-84449761D01*
X129185357Y-84497380D01*
X129090119Y-84497380D01*
X128947261Y-84449761D01*
X128852023Y-84354523D01*
X128804404Y-84259285D01*
X128756785Y-84068809D01*
X128756785Y-83925952D01*
X128804404Y-83735476D01*
X128852023Y-83640238D01*
X128947261Y-83545000D01*
X129090119Y-83497380D01*
X129185357Y-83497380D01*
X129328214Y-83545000D01*
X129375833Y-83592619D01*
X129709166Y-83497380D02*
X130375833Y-83497380D01*
X129947261Y-84497380D01*
X129375833Y-92657142D02*
X129328214Y-92704761D01*
X129185357Y-92752380D01*
X129090119Y-92752380D01*
X128947261Y-92704761D01*
X128852023Y-92609523D01*
X128804404Y-92514285D01*
X128756785Y-92323809D01*
X128756785Y-92180952D01*
X128804404Y-91990476D01*
X128852023Y-91895238D01*
X128947261Y-91800000D01*
X129090119Y-91752380D01*
X129185357Y-91752380D01*
X129328214Y-91800000D01*
X129375833Y-91847619D01*
X130232976Y-91752380D02*
X130042500Y-91752380D01*
X129947261Y-91800000D01*
X129899642Y-91847619D01*
X129804404Y-91990476D01*
X129756785Y-92180952D01*
X129756785Y-92561904D01*
X129804404Y-92657142D01*
X129852023Y-92704761D01*
X129947261Y-92752380D01*
X130137738Y-92752380D01*
X130232976Y-92704761D01*
X130280595Y-92657142D01*
X130328214Y-92561904D01*
X130328214Y-92323809D01*
X130280595Y-92228571D01*
X130232976Y-92180952D01*
X130137738Y-92133333D01*
X129947261Y-92133333D01*
X129852023Y-92180952D01*
X129804404Y-92228571D01*
X129756785Y-92323809D01*
X149972380Y-71913333D02*
X150686666Y-71913333D01*
X150829523Y-71960952D01*
X150924761Y-72056190D01*
X150972380Y-72199047D01*
X150972380Y-72294285D01*
X149972380Y-70960952D02*
X149972380Y-71437142D01*
X150448571Y-71484761D01*
X150400952Y-71437142D01*
X150353333Y-71341904D01*
X150353333Y-71103809D01*
X150400952Y-71008571D01*
X150448571Y-70960952D01*
X150543809Y-70913333D01*
X150781904Y-70913333D01*
X150877142Y-70960952D01*
X150924761Y-71008571D01*
X150972380Y-71103809D01*
X150972380Y-71341904D01*
X150924761Y-71437142D01*
X150877142Y-71484761D01*
X211407380Y-104901595D02*
X210407380Y-104901595D01*
X210502619Y-104473023D02*
X210455000Y-104425404D01*
X210407380Y-104330166D01*
X210407380Y-104092071D01*
X210455000Y-103996833D01*
X210502619Y-103949214D01*
X210597857Y-103901595D01*
X210693095Y-103901595D01*
X210835952Y-103949214D01*
X211407380Y-104520642D01*
X211407380Y-103901595D01*
X211359761Y-103520642D02*
X211407380Y-103377785D01*
X211407380Y-103139690D01*
X211359761Y-103044452D01*
X211312142Y-102996833D01*
X211216904Y-102949214D01*
X211121666Y-102949214D01*
X211026428Y-102996833D01*
X210978809Y-103044452D01*
X210931190Y-103139690D01*
X210883571Y-103330166D01*
X210835952Y-103425404D01*
X210788333Y-103473023D01*
X210693095Y-103520642D01*
X210597857Y-103520642D01*
X210502619Y-103473023D01*
X210455000Y-103425404D01*
X210407380Y-103330166D01*
X210407380Y-103092071D01*
X210455000Y-102949214D01*
X211502619Y-102758738D02*
X211502619Y-101996833D01*
X211407380Y-101758738D02*
X210407380Y-101758738D01*
X210407380Y-101520642D01*
X210455000Y-101377785D01*
X210550238Y-101282547D01*
X210645476Y-101234928D01*
X210835952Y-101187309D01*
X210978809Y-101187309D01*
X211169285Y-101234928D01*
X211264523Y-101282547D01*
X211359761Y-101377785D01*
X211407380Y-101520642D01*
X211407380Y-101758738D01*
X211121666Y-100806357D02*
X211121666Y-100330166D01*
X211407380Y-100901595D02*
X210407380Y-100568261D01*
X211407380Y-100234928D01*
X211312142Y-99330166D02*
X211359761Y-99377785D01*
X211407380Y-99520642D01*
X211407380Y-99615880D01*
X211359761Y-99758738D01*
X211264523Y-99853976D01*
X211169285Y-99901595D01*
X210978809Y-99949214D01*
X210835952Y-99949214D01*
X210645476Y-99901595D01*
X210550238Y-99853976D01*
X210455000Y-99758738D01*
X210407380Y-99615880D01*
X210407380Y-99520642D01*
X210455000Y-99377785D01*
X210502619Y-99330166D01*
X211407380Y-98377785D02*
X211407380Y-98949214D01*
X211407380Y-98663500D02*
X210407380Y-98663500D01*
X210550238Y-98758738D01*
X210645476Y-98853976D01*
X210693095Y-98949214D01*
X181594166Y-114064880D02*
X181594166Y-114779166D01*
X181546547Y-114922023D01*
X181451309Y-115017261D01*
X181308452Y-115064880D01*
X181213214Y-115064880D01*
X182594166Y-115064880D02*
X182022738Y-115064880D01*
X182308452Y-115064880D02*
X182308452Y-114064880D01*
X182213214Y-114207738D01*
X182117976Y-114302976D01*
X182022738Y-114350595D01*
X127922380Y-83946904D02*
X128731904Y-83946904D01*
X128827142Y-83899285D01*
X128874761Y-83851666D01*
X128922380Y-83756428D01*
X128922380Y-83565952D01*
X128874761Y-83470714D01*
X128827142Y-83423095D01*
X128731904Y-83375476D01*
X127922380Y-83375476D01*
X127922380Y-82423095D02*
X127922380Y-82899285D01*
X128398571Y-82946904D01*
X128350952Y-82899285D01*
X128303333Y-82804047D01*
X128303333Y-82565952D01*
X128350952Y-82470714D01*
X128398571Y-82423095D01*
X128493809Y-82375476D01*
X128731904Y-82375476D01*
X128827142Y-82423095D01*
X128874761Y-82470714D01*
X128922380Y-82565952D01*
X128922380Y-82804047D01*
X128874761Y-82899285D01*
X128827142Y-82946904D01*
X194929166Y-120419880D02*
X194929166Y-121134166D01*
X194881547Y-121277023D01*
X194786309Y-121372261D01*
X194643452Y-121419880D01*
X194548214Y-121419880D01*
X195357738Y-120515119D02*
X195405357Y-120467500D01*
X195500595Y-120419880D01*
X195738690Y-120419880D01*
X195833928Y-120467500D01*
X195881547Y-120515119D01*
X195929166Y-120610357D01*
X195929166Y-120705595D01*
X195881547Y-120848452D01*
X195310119Y-121419880D01*
X195929166Y-121419880D01*
X214820595Y-60459880D02*
X214820595Y-59459880D01*
X214820595Y-59936071D02*
X215392023Y-59936071D01*
X215392023Y-60459880D02*
X215392023Y-59459880D01*
X216392023Y-60459880D02*
X215820595Y-60459880D01*
X216106309Y-60459880D02*
X216106309Y-59459880D01*
X216011071Y-59602738D01*
X215915833Y-59697976D01*
X215820595Y-59745595D01*
X123737142Y-77166666D02*
X123784761Y-77214285D01*
X123832380Y-77357142D01*
X123832380Y-77452380D01*
X123784761Y-77595238D01*
X123689523Y-77690476D01*
X123594285Y-77738095D01*
X123403809Y-77785714D01*
X123260952Y-77785714D01*
X123070476Y-77738095D01*
X122975238Y-77690476D01*
X122880000Y-77595238D01*
X122832380Y-77452380D01*
X122832380Y-77357142D01*
X122880000Y-77214285D01*
X122927619Y-77166666D01*
X123832380Y-76690476D02*
X123832380Y-76500000D01*
X123784761Y-76404761D01*
X123737142Y-76357142D01*
X123594285Y-76261904D01*
X123403809Y-76214285D01*
X123022857Y-76214285D01*
X122927619Y-76261904D01*
X122880000Y-76309523D01*
X122832380Y-76404761D01*
X122832380Y-76595238D01*
X122880000Y-76690476D01*
X122927619Y-76738095D01*
X123022857Y-76785714D01*
X123260952Y-76785714D01*
X123356190Y-76738095D01*
X123403809Y-76690476D01*
X123451428Y-76595238D01*
X123451428Y-76404761D01*
X123403809Y-76309523D01*
X123356190Y-76261904D01*
X123260952Y-76214285D01*
X126032142Y-119864166D02*
X126079761Y-119911785D01*
X126127380Y-120054642D01*
X126127380Y-120149880D01*
X126079761Y-120292738D01*
X125984523Y-120387976D01*
X125889285Y-120435595D01*
X125698809Y-120483214D01*
X125555952Y-120483214D01*
X125365476Y-120435595D01*
X125270238Y-120387976D01*
X125175000Y-120292738D01*
X125127380Y-120149880D01*
X125127380Y-120054642D01*
X125175000Y-119911785D01*
X125222619Y-119864166D01*
X125127380Y-119530833D02*
X125127380Y-118911785D01*
X125508333Y-119245119D01*
X125508333Y-119102261D01*
X125555952Y-119007023D01*
X125603571Y-118959404D01*
X125698809Y-118911785D01*
X125936904Y-118911785D01*
X126032142Y-118959404D01*
X126079761Y-119007023D01*
X126127380Y-119102261D01*
X126127380Y-119387976D01*
X126079761Y-119483214D01*
X126032142Y-119530833D01*
D14*
X84858792Y-109330471D02*
X84858792Y-120750471D01*
X83758792Y-69380471D02*
X83758792Y-77500471D01*
X114718792Y-120400471D02*
X112118792Y-120400471D01*
X85558792Y-69380471D02*
X83758792Y-69380471D01*
X109178792Y-62380471D02*
X112618792Y-62380471D01*
X109178792Y-62380471D02*
X109178792Y-61180471D01*
X85558792Y-120750471D02*
X85558792Y-124440471D01*
X85558792Y-77500471D02*
X85558792Y-81980471D01*
X110848792Y-120400471D02*
X109518792Y-120400471D01*
X92058792Y-61180471D02*
X92058792Y-62380471D01*
X85558792Y-65440471D02*
X85558792Y-69380471D01*
X84858792Y-120750471D02*
X85558792Y-120750471D01*
X85558792Y-109330471D02*
X84858792Y-109330471D01*
X83758792Y-90100471D02*
X85558792Y-90100471D01*
X112118792Y-117800471D02*
X109518792Y-117800471D01*
X85558792Y-81980471D02*
X83758792Y-81980471D01*
X114718792Y-120400471D02*
X114718792Y-69480471D01*
X85558792Y-90100471D02*
X85558792Y-109330471D01*
X92058792Y-62380471D02*
X88618792Y-62380471D01*
X109178792Y-61180471D02*
X92058792Y-61180471D01*
X112618792Y-127500471D02*
X88618792Y-127500471D01*
X114718792Y-69480471D02*
X109518792Y-69480471D01*
X109518792Y-120400471D02*
X109518792Y-119070471D01*
X115678792Y-65440471D02*
X115678792Y-124440471D01*
X109518792Y-117800471D02*
X109518792Y-69480471D01*
X83758792Y-77500471D02*
X85558792Y-77500471D01*
X112118792Y-120400471D02*
X112118792Y-117800471D01*
X83758792Y-81980471D02*
X83758792Y-90100471D01*
X88618792Y-62380471D02*
G75*
G03*
X85558792Y-65440471I0J-3060000D01*
G01*
X85558792Y-124440471D02*
G75*
G03*
X88618792Y-127500471I3060000J0D01*
G01*
X115678792Y-65440471D02*
G75*
G03*
X112618792Y-62380471I-3059999J1D01*
G01*
X112618792Y-127500471D02*
G75*
G03*
X115678792Y-124440471I1J3059999D01*
G01*
D15*
X130500000Y-70025000D02*
X130500000Y-65025000D01*
X121400000Y-62400000D02*
X121400000Y-62400000D01*
X130500000Y-74025000D02*
X130500000Y-74725000D01*
X118550000Y-71025000D02*
X118550000Y-65025000D01*
X130500000Y-74725000D02*
X120425000Y-74725000D01*
X121300000Y-62400000D02*
X121300000Y-62400000D01*
X121400000Y-62400000D02*
G75*
G03*
X121300000Y-62400000I-50000J0D01*
G01*
X121300000Y-62400000D02*
G75*
G03*
X121400000Y-62400000I50000J0D01*
G01*
D14*
X125095000Y-75440000D02*
X123295000Y-75440000D01*
X125095000Y-78560000D02*
X125895000Y-78560000D01*
X125095000Y-78560000D02*
X124295000Y-78560000D01*
X125095000Y-75440000D02*
X125895000Y-75440000D01*
X211651697Y-75691465D02*
X211651697Y-75891465D01*
X211101697Y-76991465D02*
X211651697Y-76991465D01*
X211101697Y-75691465D02*
X211651697Y-75691465D01*
X211651697Y-76991465D02*
X211651697Y-76791465D01*
X120772500Y-116840000D02*
X120772500Y-119040000D01*
X126242500Y-116840000D02*
X126242500Y-113240000D01*
X126242500Y-116840000D02*
X126242500Y-119040000D01*
X120772500Y-116840000D02*
X120772500Y-114640000D01*
X202313500Y-125871000D02*
X201382500Y-125871000D01*
X199302500Y-126111000D02*
X198599500Y-126111000D01*
X199302500Y-124350000D02*
X197766500Y-124350000D01*
X202822500Y-124911000D02*
X201382500Y-124911000D01*
X199302500Y-124430000D02*
X197773500Y-124430000D01*
X199302500Y-125911000D02*
X198405500Y-125911000D01*
X202085500Y-126111000D02*
X201382500Y-126111000D01*
X199302500Y-125431000D02*
X198074500Y-125431000D01*
X202724500Y-125191000D02*
X201382500Y-125191000D01*
X202517500Y-125591000D02*
X201382500Y-125591000D01*
X202491500Y-125631000D02*
X201382500Y-125631000D01*
X199302500Y-125591000D02*
X198167500Y-125591000D01*
X202243500Y-125951000D02*
X201382500Y-125951000D01*
X199302500Y-124190000D02*
X197762500Y-124190000D01*
X199302500Y-124870000D02*
X197851500Y-124870000D01*
X202915500Y-124390000D02*
X201382500Y-124390000D01*
X199302500Y-125751000D02*
X198277500Y-125751000D01*
X199302500Y-125111000D02*
X197928500Y-125111000D01*
X202464500Y-125671000D02*
X201382500Y-125671000D01*
X202707500Y-125231000D02*
X201382500Y-125231000D01*
X202770500Y-125071000D02*
X201382500Y-125071000D01*
X200860500Y-126751000D02*
X199824500Y-126751000D01*
X202740500Y-125151000D02*
X201382500Y-125151000D01*
X202921500Y-124270000D02*
X201382500Y-124270000D01*
X200626500Y-126791000D02*
X200058500Y-126791000D01*
X202566500Y-125511000D02*
X201382500Y-125511000D01*
X201785500Y-126351000D02*
X198899500Y-126351000D01*
X199302500Y-125351000D02*
X198032500Y-125351000D01*
X202911500Y-124430000D02*
X201382500Y-124430000D01*
X202920500Y-124310000D02*
X201382500Y-124310000D01*
X201817500Y-121385225D02*
X201817500Y-121885225D01*
X199302500Y-125631000D02*
X198193500Y-125631000D01*
X202892500Y-124590000D02*
X201382500Y-124590000D01*
X201257500Y-126631000D02*
X199427500Y-126631000D01*
X199302500Y-125511000D02*
X198118500Y-125511000D01*
X202853500Y-124790000D02*
X201382500Y-124790000D01*
X202610500Y-125431000D02*
X201382500Y-125431000D01*
X199302500Y-124270000D02*
X197763500Y-124270000D01*
X201147500Y-126671000D02*
X199537500Y-126671000D01*
X202206500Y-125991000D02*
X201382500Y-125991000D01*
X202885500Y-124630000D02*
X201382500Y-124630000D01*
X201593500Y-126471000D02*
X199091500Y-126471000D01*
X199302500Y-124951000D02*
X197874500Y-124951000D01*
X202843500Y-124830000D02*
X201382500Y-124830000D01*
X199302500Y-124550000D02*
X197786500Y-124550000D01*
X202690500Y-125271000D02*
X201382500Y-125271000D01*
X202870500Y-124710000D02*
X201382500Y-124710000D01*
X202067500Y-121635225D02*
X201567500Y-121635225D01*
X202922500Y-124190000D02*
X201382500Y-124190000D01*
X199302500Y-125711000D02*
X198247500Y-125711000D01*
X201896500Y-126271000D02*
X198788500Y-126271000D01*
X199302500Y-126071000D02*
X198557500Y-126071000D01*
X202652500Y-125351000D02*
X201382500Y-125351000D01*
X199302500Y-125031000D02*
X197900500Y-125031000D01*
X199302500Y-124630000D02*
X197799500Y-124630000D01*
X201947500Y-126231000D02*
X198737500Y-126231000D01*
X199302500Y-124830000D02*
X197841500Y-124830000D01*
X201995500Y-126191000D02*
X201382500Y-126191000D01*
X201520500Y-126511000D02*
X199164500Y-126511000D01*
X202168500Y-126031000D02*
X201382500Y-126031000D01*
X202898500Y-124550000D02*
X201382500Y-124550000D01*
X199302500Y-124470000D02*
X197777500Y-124470000D01*
X202542500Y-125551000D02*
X201382500Y-125551000D01*
X202922500Y-124230000D02*
X201382500Y-124230000D01*
X199302500Y-125391000D02*
X198052500Y-125391000D01*
X199302500Y-124710000D02*
X197814500Y-124710000D01*
X199302500Y-125151000D02*
X197944500Y-125151000D01*
X199302500Y-125791000D02*
X198307500Y-125791000D01*
X201725500Y-126391000D02*
X198959500Y-126391000D01*
X202279500Y-125911000D02*
X201382500Y-125911000D01*
X202797500Y-124991000D02*
X201382500Y-124991000D01*
X202810500Y-124951000D02*
X201382500Y-124951000D01*
X199302500Y-125471000D02*
X198095500Y-125471000D01*
X202918500Y-124350000D02*
X201382500Y-124350000D01*
X202041500Y-126151000D02*
X201382500Y-126151000D01*
X199302500Y-125271000D02*
X197994500Y-125271000D01*
X202784500Y-125031000D02*
X201382500Y-125031000D01*
X202903500Y-124510000D02*
X201382500Y-124510000D01*
X199302500Y-124310000D02*
X197764500Y-124310000D01*
X199302500Y-124230000D02*
X197762500Y-124230000D01*
X202377500Y-125791000D02*
X201382500Y-125791000D01*
X201019500Y-126711000D02*
X199665500Y-126711000D01*
X202589500Y-125471000D02*
X201382500Y-125471000D01*
X199302500Y-124790000D02*
X197831500Y-124790000D01*
X202437500Y-125711000D02*
X201382500Y-125711000D01*
X202756500Y-125111000D02*
X201382500Y-125111000D01*
X199302500Y-125311000D02*
X198013500Y-125311000D01*
X201661500Y-126431000D02*
X199023500Y-126431000D01*
X199302500Y-125071000D02*
X197914500Y-125071000D01*
X201353500Y-126591000D02*
X199331500Y-126591000D01*
X199302500Y-125991000D02*
X198478500Y-125991000D01*
X199302500Y-125551000D02*
X198142500Y-125551000D01*
X202878500Y-124670000D02*
X201382500Y-124670000D01*
X199302500Y-126151000D02*
X198643500Y-126151000D01*
X199302500Y-124670000D02*
X197806500Y-124670000D01*
X199302500Y-126191000D02*
X198689500Y-126191000D01*
X202127500Y-126071000D02*
X201382500Y-126071000D01*
X199302500Y-125231000D02*
X197977500Y-125231000D01*
X199302500Y-125951000D02*
X198441500Y-125951000D01*
X199302500Y-125831000D02*
X198338500Y-125831000D01*
X202632500Y-125391000D02*
X201382500Y-125391000D01*
X199302500Y-124750000D02*
X197822500Y-124750000D01*
X202346500Y-125831000D02*
X201382500Y-125831000D01*
X199302500Y-124991000D02*
X197887500Y-124991000D01*
X199302500Y-124590000D02*
X197792500Y-124590000D01*
X199302500Y-125191000D02*
X197960500Y-125191000D01*
X199302500Y-125671000D02*
X198220500Y-125671000D01*
X199302500Y-124510000D02*
X197781500Y-124510000D01*
X202671500Y-125311000D02*
X201382500Y-125311000D01*
X201440500Y-126551000D02*
X199244500Y-126551000D01*
X202407500Y-125751000D02*
X201382500Y-125751000D01*
X201842500Y-126311000D02*
X198842500Y-126311000D01*
X202907500Y-124470000D02*
X201382500Y-124470000D01*
X199302500Y-125871000D02*
X198371500Y-125871000D01*
X199302500Y-124911000D02*
X197862500Y-124911000D01*
X202862500Y-124750000D02*
X201382500Y-124750000D01*
X202833500Y-124870000D02*
X201382500Y-124870000D01*
X199302500Y-126031000D02*
X198516500Y-126031000D01*
X199302500Y-124390000D02*
X197769500Y-124390000D01*
X202962500Y-124190000D02*
G75*
G03*
X202962500Y-124190000I-2620000J0D01*
G01*
X129312936Y-79910000D02*
X129767064Y-79910000D01*
X129312936Y-81380000D02*
X129767064Y-81380000D01*
X205998752Y-72490000D02*
X205476248Y-72490000D01*
X205998752Y-71020000D02*
X205476248Y-71020000D01*
X129320000Y-76772936D02*
X129320000Y-77227064D01*
X127850000Y-76772936D02*
X127850000Y-77227064D01*
X127691248Y-103287500D02*
X128213752Y-103287500D01*
X127691248Y-101817500D02*
X128213752Y-101817500D01*
X127625000Y-91440000D02*
X127625000Y-93390000D01*
X127625000Y-91440000D02*
X127625000Y-87990000D01*
X118755000Y-91440000D02*
X118755000Y-89490000D01*
X118755000Y-91440000D02*
X118755000Y-93390000D01*
X176030000Y-65995000D02*
X176030000Y-68595000D01*
X173370000Y-64725000D02*
X173370000Y-63395000D01*
X173370000Y-63395000D02*
X174700000Y-63395000D01*
X173370000Y-68595000D02*
X176030000Y-68595000D01*
X173370000Y-65995000D02*
X173370000Y-68595000D01*
X173370000Y-65995000D02*
X176030000Y-65995000D01*
X127691248Y-97572500D02*
X128213752Y-97572500D01*
X127691248Y-96102500D02*
X128213752Y-96102500D01*
X206453000Y-83701000D02*
X205840000Y-83701000D01*
X203760000Y-83501000D02*
X202936000Y-83501000D01*
X203760000Y-82300000D02*
X202289000Y-82300000D01*
X206119000Y-83941000D02*
X203481000Y-83941000D01*
X203760000Y-83621000D02*
X203057000Y-83621000D01*
X203760000Y-82661000D02*
X202402000Y-82661000D01*
X206895000Y-83221000D02*
X205840000Y-83221000D01*
X203760000Y-82461000D02*
X202332000Y-82461000D01*
X203760000Y-83061000D02*
X202600000Y-83061000D01*
X203760000Y-82981000D02*
X202553000Y-82981000D01*
X207280000Y-82421000D02*
X205840000Y-82421000D01*
X203760000Y-82781000D02*
X202452000Y-82781000D01*
X206835000Y-83301000D02*
X205840000Y-83301000D01*
X203760000Y-82100000D02*
X202250000Y-82100000D01*
X203760000Y-83141000D02*
X202651000Y-83141000D01*
X203760000Y-81860000D02*
X202224000Y-81860000D01*
X207336000Y-82180000D02*
X205840000Y-82180000D01*
X205605000Y-84181000D02*
X203995000Y-84181000D01*
X203760000Y-82901000D02*
X202510000Y-82901000D01*
X203760000Y-82020000D02*
X202239000Y-82020000D01*
X206626000Y-83541000D02*
X205840000Y-83541000D01*
X203760000Y-83461000D02*
X202899000Y-83461000D01*
X203760000Y-82380000D02*
X202309000Y-82380000D01*
X203760000Y-82340000D02*
X202299000Y-82340000D01*
X207356000Y-82060000D02*
X205840000Y-82060000D01*
X206737000Y-83421000D02*
X205840000Y-83421000D01*
X206405000Y-83741000D02*
X203195000Y-83741000D01*
X203760000Y-83581000D02*
X203015000Y-83581000D01*
X205318000Y-84261000D02*
X204282000Y-84261000D01*
X207380000Y-81700000D02*
X205840000Y-81700000D01*
X207350000Y-82100000D02*
X205840000Y-82100000D01*
X207380000Y-81740000D02*
X205840000Y-81740000D01*
X207255000Y-82501000D02*
X205840000Y-82501000D01*
X206354000Y-83781000D02*
X203246000Y-83781000D01*
X206865000Y-83261000D02*
X205840000Y-83261000D01*
X203760000Y-83541000D02*
X202974000Y-83541000D01*
X203760000Y-82220000D02*
X202272000Y-82220000D01*
X203760000Y-83381000D02*
X202829000Y-83381000D01*
X207365000Y-81980000D02*
X205840000Y-81980000D01*
X207182000Y-82701000D02*
X205840000Y-82701000D01*
X203760000Y-83101000D02*
X202625000Y-83101000D01*
X203760000Y-83221000D02*
X202705000Y-83221000D01*
X206701000Y-83461000D02*
X205840000Y-83461000D01*
X206300000Y-83821000D02*
X203300000Y-83821000D01*
X203760000Y-82260000D02*
X202280000Y-82260000D01*
X206664000Y-83501000D02*
X205840000Y-83501000D01*
X207373000Y-81900000D02*
X205840000Y-81900000D01*
X203760000Y-82821000D02*
X202471000Y-82821000D01*
X206543000Y-83621000D02*
X205840000Y-83621000D01*
X207343000Y-82140000D02*
X205840000Y-82140000D01*
X206585000Y-83581000D02*
X205840000Y-83581000D01*
X203760000Y-83701000D02*
X203147000Y-83701000D01*
X207301000Y-82340000D02*
X205840000Y-82340000D01*
X206771000Y-83381000D02*
X205840000Y-83381000D01*
X203760000Y-82621000D02*
X202386000Y-82621000D01*
X203760000Y-82941000D02*
X202532000Y-82941000D01*
X207198000Y-82661000D02*
X205840000Y-82661000D01*
X205811000Y-84101000D02*
X203789000Y-84101000D01*
X207328000Y-82220000D02*
X205840000Y-82220000D01*
X203760000Y-82701000D02*
X202418000Y-82701000D01*
X207047000Y-82981000D02*
X205840000Y-82981000D01*
X203760000Y-81980000D02*
X202235000Y-81980000D01*
X203760000Y-82541000D02*
X202358000Y-82541000D01*
X203760000Y-83021000D02*
X202576000Y-83021000D01*
X207376000Y-81860000D02*
X205840000Y-81860000D01*
X207361000Y-82020000D02*
X205840000Y-82020000D01*
X203760000Y-83261000D02*
X202735000Y-83261000D01*
X203760000Y-83341000D02*
X202796000Y-83341000D01*
X205715000Y-84141000D02*
X203885000Y-84141000D01*
X206243000Y-83861000D02*
X203357000Y-83861000D01*
X203760000Y-82741000D02*
X202435000Y-82741000D01*
X203760000Y-82180000D02*
X202264000Y-82180000D01*
X207379000Y-81780000D02*
X205840000Y-81780000D01*
X203760000Y-83301000D02*
X202765000Y-83301000D01*
X206275000Y-78895225D02*
X206275000Y-79395225D01*
X207268000Y-82461000D02*
X205840000Y-82461000D01*
X203760000Y-83181000D02*
X202678000Y-83181000D01*
X206525000Y-79145225D02*
X206025000Y-79145225D01*
X205084000Y-84301000D02*
X204516000Y-84301000D01*
X206949000Y-83141000D02*
X205840000Y-83141000D01*
X207148000Y-82781000D02*
X205840000Y-82781000D01*
X207110000Y-82861000D02*
X205840000Y-82861000D01*
X207214000Y-82621000D02*
X205840000Y-82621000D01*
X203760000Y-82581000D02*
X202372000Y-82581000D01*
X207291000Y-82380000D02*
X205840000Y-82380000D01*
X206804000Y-83341000D02*
X205840000Y-83341000D01*
X207228000Y-82581000D02*
X205840000Y-82581000D01*
X203760000Y-81700000D02*
X202220000Y-81700000D01*
X206499000Y-83661000D02*
X205840000Y-83661000D01*
X203760000Y-83661000D02*
X203101000Y-83661000D01*
X207165000Y-82741000D02*
X205840000Y-82741000D01*
X207068000Y-82941000D02*
X205840000Y-82941000D01*
X205978000Y-84021000D02*
X203622000Y-84021000D01*
X203760000Y-81900000D02*
X202227000Y-81900000D01*
X207311000Y-82300000D02*
X205840000Y-82300000D01*
X203760000Y-81940000D02*
X202231000Y-81940000D01*
X207000000Y-83061000D02*
X205840000Y-83061000D01*
X203760000Y-82861000D02*
X202490000Y-82861000D01*
X203760000Y-81820000D02*
X202222000Y-81820000D01*
X207024000Y-83021000D02*
X205840000Y-83021000D01*
X206051000Y-83981000D02*
X203549000Y-83981000D01*
X206183000Y-83901000D02*
X203417000Y-83901000D01*
X203760000Y-82421000D02*
X202320000Y-82421000D01*
X203760000Y-83421000D02*
X202863000Y-83421000D01*
X205477000Y-84221000D02*
X204123000Y-84221000D01*
X207129000Y-82821000D02*
X205840000Y-82821000D01*
X207369000Y-81940000D02*
X205840000Y-81940000D01*
X205898000Y-84061000D02*
X203702000Y-84061000D01*
X206975000Y-83101000D02*
X205840000Y-83101000D01*
X207378000Y-81820000D02*
X205840000Y-81820000D01*
X206922000Y-83181000D02*
X205840000Y-83181000D01*
X203760000Y-82501000D02*
X202345000Y-82501000D01*
X207242000Y-82541000D02*
X205840000Y-82541000D01*
X203760000Y-81740000D02*
X202220000Y-81740000D01*
X207320000Y-82260000D02*
X205840000Y-82260000D01*
X203760000Y-82060000D02*
X202244000Y-82060000D01*
X203760000Y-81780000D02*
X202221000Y-81780000D01*
X203760000Y-82140000D02*
X202257000Y-82140000D01*
X207090000Y-82901000D02*
X205840000Y-82901000D01*
X207420000Y-81700000D02*
G75*
G03*
X207420000Y-81700000I-2620000J0D01*
G01*
X218621697Y-79891465D02*
X215821697Y-79891465D01*
X212571697Y-77741465D02*
X212571697Y-76941465D01*
X215821697Y-80191465D02*
X214271697Y-80191465D01*
X218621697Y-72191465D02*
X215821697Y-72191465D01*
X215821697Y-71891465D02*
X214271697Y-71891465D01*
X215821697Y-72191465D02*
X215821697Y-71891465D01*
X212571697Y-76941465D02*
X213021697Y-77341465D01*
X213021697Y-77341465D02*
X212571697Y-77741465D01*
X215821697Y-80191465D02*
X215821697Y-79891465D01*
X127691248Y-111860000D02*
X128213752Y-111860000D01*
X127691248Y-110390000D02*
X128213752Y-110390000D01*
X119487500Y-99695000D02*
X119487500Y-97495000D01*
X126257500Y-99695000D02*
X126257500Y-96095000D01*
X119487500Y-99695000D02*
X119487500Y-101895000D01*
X126257500Y-99695000D02*
X126257500Y-101895000D01*
X126242500Y-108267500D02*
X126242500Y-104667500D01*
X126242500Y-108267500D02*
X126242500Y-110467500D01*
X120772500Y-108267500D02*
X120772500Y-110467500D01*
X120772500Y-108267500D02*
X120772500Y-106067500D01*
X178730000Y-67130000D02*
X178730000Y-67530000D01*
X178730000Y-87430000D02*
X178730000Y-87830000D01*
X199730000Y-97630000D02*
X199730000Y-98030000D01*
X199730000Y-110330000D02*
X199730000Y-110730000D01*
X178730000Y-100130000D02*
X178730000Y-100530000D01*
X178730000Y-74730000D02*
X178730000Y-75130000D01*
X178730000Y-79830000D02*
X178730000Y-80230000D01*
X178730000Y-105230000D02*
X178730000Y-105630000D01*
X199730000Y-67130000D02*
X199730000Y-67530000D01*
X181737000Y-64797000D02*
X181737000Y-62130000D01*
X178730000Y-64530000D02*
X178730000Y-64930000D01*
X199730000Y-105230000D02*
X199730000Y-105630000D01*
X199730000Y-72230000D02*
X199730000Y-72630000D01*
X178730000Y-92530000D02*
X178730000Y-92930000D01*
X187730000Y-113130000D02*
X188130000Y-113130000D01*
X199730000Y-102730000D02*
X199730000Y-103130000D01*
X178730000Y-107730000D02*
X178730000Y-108130000D01*
X178730000Y-89930000D02*
X178730000Y-90330000D01*
X178730000Y-64797000D02*
X181737000Y-64797000D01*
X178730000Y-82330000D02*
X178730000Y-82730000D01*
X190330000Y-113130000D02*
X190730000Y-113130000D01*
X178730000Y-110330000D02*
X178730000Y-110730000D01*
X199730000Y-62130000D02*
X199730000Y-62430000D01*
X199730000Y-74730000D02*
X199730000Y-75130000D01*
X199730000Y-100130000D02*
X199730000Y-100530000D01*
X178730000Y-62130000D02*
X178730000Y-62430000D01*
X199730000Y-82330000D02*
X199730000Y-82730000D01*
X185530000Y-113130000D02*
X178730000Y-113130000D01*
X178730000Y-72230000D02*
X178730000Y-72630000D01*
X199730000Y-92530000D02*
X199730000Y-92930000D01*
X199730000Y-113130000D02*
X192930000Y-113130000D01*
X178730000Y-69630000D02*
X178730000Y-70030000D01*
X199730000Y-89930000D02*
X199730000Y-90330000D01*
X199730000Y-64530000D02*
X199730000Y-64930000D01*
X178730000Y-62130000D02*
X199730000Y-62130000D01*
X199730000Y-87430000D02*
X199730000Y-87830000D01*
X199730000Y-107730000D02*
X199730000Y-108130000D01*
X199730000Y-84930000D02*
X199730000Y-85330000D01*
X178730000Y-77230000D02*
X178730000Y-77630000D01*
X199730000Y-79830000D02*
X199730000Y-80230000D01*
X199730000Y-95030000D02*
X199730000Y-95430000D01*
X178730000Y-95030000D02*
X178730000Y-95430000D01*
X178730000Y-84930000D02*
X178730000Y-85330000D01*
X178730000Y-102730000D02*
X178730000Y-103130000D01*
X178730000Y-97630000D02*
X178730000Y-98030000D01*
X199730000Y-77230000D02*
X199730000Y-77630000D01*
X199730000Y-69630000D02*
X199730000Y-70030000D01*
X202227500Y-66992500D02*
X202227500Y-68942500D01*
X207347500Y-66992500D02*
X207347500Y-68942500D01*
X207347500Y-66992500D02*
X207347500Y-63542500D01*
X202227500Y-66992500D02*
X202227500Y-65042500D01*
X129281248Y-86460000D02*
X129803752Y-86460000D01*
X129281248Y-84990000D02*
X129803752Y-84990000D01*
X129281248Y-93245000D02*
X129803752Y-93245000D01*
X129281248Y-94715000D02*
X129803752Y-94715000D01*
X137330000Y-99400000D02*
X133550000Y-99400000D01*
X171250000Y-76600000D02*
X171250000Y-77600000D01*
X133550000Y-99400000D02*
X133550000Y-98400000D01*
X133550000Y-76600000D02*
X133550000Y-77600000D01*
X135900000Y-118000000D02*
X168900000Y-118000000D01*
X137330000Y-76600000D02*
X133550000Y-76600000D01*
X168900000Y-63000000D02*
X135900000Y-63000000D01*
X137330000Y-76600000D02*
X137330000Y-77600000D01*
X172400000Y-114500000D02*
X172400000Y-66500000D01*
X171250000Y-99400000D02*
X167470000Y-99400000D01*
X132400000Y-66500000D02*
X132400000Y-114500000D01*
X137330000Y-99400000D02*
X137330000Y-98400000D01*
X171250000Y-76600000D02*
X167470000Y-76600000D01*
X167470000Y-76600000D02*
X167470000Y-77600000D01*
X132400000Y-114500000D02*
G75*
G03*
X135900000Y-118000000I3500000J0D01*
G01*
X135900000Y-63000000D02*
G75*
G03*
X132400000Y-66500000I0J-3500000D01*
G01*
X172400000Y-66500000D02*
G75*
G03*
X168900000Y-63000000I-3499999J1D01*
G01*
X168900000Y-118000000D02*
G75*
G03*
X172400000Y-114500000I1J3499999D01*
G01*
X219329000Y-85153500D02*
X219329000Y-88049523D01*
X220878400Y-93103700D02*
X219309549Y-93107554D01*
X202057000Y-85153500D02*
X219329000Y-85153500D01*
X220903800Y-88049100D02*
X220878400Y-93103700D01*
X202104050Y-116943531D02*
X202057000Y-85153500D01*
X219252800Y-116954300D02*
X202104050Y-116943531D01*
X219309549Y-93107554D02*
X219241579Y-111674563D01*
X219329000Y-88049523D02*
X220903800Y-88049100D01*
X219241579Y-111674563D02*
X219252800Y-116954300D01*
X174247500Y-118427500D02*
X174247500Y-115827500D01*
X176847500Y-121027500D02*
X176847500Y-118427500D01*
X176847500Y-121027500D02*
X189607500Y-121027500D01*
X175577500Y-121027500D02*
X174247500Y-121027500D01*
X189607500Y-121027500D02*
X189607500Y-115827500D01*
X174247500Y-115827500D02*
X189607500Y-115827500D01*
X176847500Y-118427500D02*
X174247500Y-118427500D01*
X174247500Y-121027500D02*
X174247500Y-119697500D01*
X127625000Y-83185000D02*
X127625000Y-85135000D01*
X118755000Y-83185000D02*
X118755000Y-85135000D01*
X118755000Y-83185000D02*
X118755000Y-81235000D01*
X127625000Y-83185000D02*
X127625000Y-79735000D01*
X196592500Y-127372500D02*
X117732500Y-127372500D01*
X196592500Y-124772500D02*
X196592500Y-127372500D01*
X117732500Y-122172500D02*
X117732500Y-127372500D01*
X196592500Y-122172500D02*
X196592500Y-123502500D01*
X195262500Y-122172500D02*
X196592500Y-122172500D01*
X193992500Y-124772500D02*
X196592500Y-124772500D01*
X193992500Y-122172500D02*
X117732500Y-122172500D01*
X193992500Y-122172500D02*
X193992500Y-124772500D01*
X122435000Y-76738748D02*
X122435000Y-77261252D01*
X120965000Y-76738748D02*
X120965000Y-77261252D01*
X127691248Y-120432500D02*
X128213752Y-120432500D01*
X127691248Y-118962500D02*
X128213752Y-118962500D01*
M02*
