G04 #@! TF.GenerationSoftware,KiCad,Pcbnew,(6.0.5-0)*
G04 #@! TF.CreationDate,2022-06-11T14:47:18-06:00*
G04 #@! TF.ProjectId,PiGUS,50694755-532e-46b6-9963-61645f706362,rev?*
G04 #@! TF.SameCoordinates,Original*
G04 #@! TF.FileFunction,Legend,Bot*
G04 #@! TF.FilePolarity,Positive*
%FSLAX46Y46*%
G04 Gerber Fmt 4.6, Leading zero omitted, Abs format (unit mm)*
G04 Created by KiCad (PCBNEW (6.0.5-0)) date 2022-06-11 14:47:18*
%MOMM*%
%LPD*%
G01*
G04 APERTURE LIST*
%ADD10C,0.330000*%
G04 APERTURE END LIST*
D10*
X167844761Y-75136428D02*
X169368571Y-75707857D01*
X167844761Y-76279285D01*
X165368571Y-75136428D02*
X166892380Y-75707857D01*
X165368571Y-76279285D01*
X162892380Y-75136428D02*
X164416190Y-75707857D01*
X162892380Y-76279285D01*
X160416190Y-75136428D02*
X161940000Y-75707857D01*
X160416190Y-76279285D01*
X156797142Y-76469761D02*
X157463809Y-75517380D01*
X157940000Y-76469761D02*
X157940000Y-74469761D01*
X157178095Y-74469761D01*
X156987619Y-74565000D01*
X156892380Y-74660238D01*
X156797142Y-74850714D01*
X156797142Y-75136428D01*
X156892380Y-75326904D01*
X156987619Y-75422142D01*
X157178095Y-75517380D01*
X157940000Y-75517380D01*
X155940000Y-75422142D02*
X155273333Y-75422142D01*
X154987619Y-76469761D02*
X155940000Y-76469761D01*
X155940000Y-74469761D01*
X154987619Y-74469761D01*
X154225714Y-75898333D02*
X153273333Y-75898333D01*
X154416190Y-76469761D02*
X153749523Y-74469761D01*
X153082857Y-76469761D01*
X151273333Y-76469761D02*
X151940000Y-75517380D01*
X152416190Y-76469761D02*
X152416190Y-74469761D01*
X151654285Y-74469761D01*
X151463809Y-74565000D01*
X151368571Y-74660238D01*
X151273333Y-74850714D01*
X151273333Y-75136428D01*
X151368571Y-75326904D01*
X151463809Y-75422142D01*
X151654285Y-75517380D01*
X152416190Y-75517380D01*
X148511428Y-74469761D02*
X148130476Y-74469761D01*
X147940000Y-74565000D01*
X147749523Y-74755476D01*
X147654285Y-75136428D01*
X147654285Y-75803095D01*
X147749523Y-76184047D01*
X147940000Y-76374523D01*
X148130476Y-76469761D01*
X148511428Y-76469761D01*
X148701904Y-76374523D01*
X148892380Y-76184047D01*
X148987619Y-75803095D01*
X148987619Y-75136428D01*
X148892380Y-74755476D01*
X148701904Y-74565000D01*
X148511428Y-74469761D01*
X146130476Y-75422142D02*
X146797142Y-75422142D01*
X146797142Y-76469761D02*
X146797142Y-74469761D01*
X145844761Y-74469761D01*
X143559047Y-76469761D02*
X143559047Y-74469761D01*
X142797142Y-74469761D01*
X142606666Y-74565000D01*
X142511428Y-74660238D01*
X142416190Y-74850714D01*
X142416190Y-75136428D01*
X142511428Y-75326904D01*
X142606666Y-75422142D01*
X142797142Y-75517380D01*
X143559047Y-75517380D01*
X140416190Y-76279285D02*
X140511428Y-76374523D01*
X140797142Y-76469761D01*
X140987619Y-76469761D01*
X141273333Y-76374523D01*
X141463809Y-76184047D01*
X141559047Y-75993571D01*
X141654285Y-75612619D01*
X141654285Y-75326904D01*
X141559047Y-74945952D01*
X141463809Y-74755476D01*
X141273333Y-74565000D01*
X140987619Y-74469761D01*
X140797142Y-74469761D01*
X140511428Y-74565000D01*
X140416190Y-74660238D01*
M02*
