M48
; DRILL file {KiCad (6.0.5-0)} date Saturday, June 11, 2022 at 02:47:14 PM
; FORMAT={-:-/ absolute / inch / decimal}
; #@! TF.CreationDate,2022-06-11T14:47:14-06:00
; #@! TF.GenerationSoftware,Kicad,Pcbnew,(6.0.5-0)
; #@! TF.FileFunction,Plated,1,4,PTH
FMAT,2
INCH
; #@! TA.AperFunction,Plated,PTH,ViaDrill
T1C0.0157
; #@! TA.AperFunction,Plated,PTH,ComponentDrill
T2C0.0394
%
G90
G05
T1
X3.7Y-2.6
X3.7Y-2.675
X3.775Y-2.825
X3.775Y-3.375
X3.8Y-2.45
X3.8035Y-2.525
X3.9Y-2.775
X3.9215Y-2.725
X3.925Y-2.4
X3.9535Y-2.45
X4.025Y-2.525
X4.075Y-2.875
X4.1215Y-2.491
X4.1215Y-2.925
X4.15Y-2.725
X4.175Y-3.1
X4.1785Y-2.975
X4.2Y-2.4535
X4.2Y-2.65
X4.2035Y-2.925
X4.2744Y-2.7143
X4.275Y-2.675
X4.2972Y-2.7472
X4.325Y-2.1
X4.325Y-2.775
X4.35Y-2.825
X4.425Y-2.1
X4.425Y-2.475
X4.475Y-2.6
X4.525Y-2.475
X4.5577Y-2.5423
X4.575Y-2.8535
X4.6Y-2.55
X4.65Y-2.8535
X4.725Y-2.55
X4.775Y-2.6
X4.775Y-2.675
X4.825Y-2.4535
X4.9Y-2.5
X5.2417Y-2.1465
X5.3Y-2.45
X5.3Y-2.75
X5.35Y-2.625
X5.425Y-2.7
X5.45Y-2.825
X5.475Y-2.45
X5.575Y-2.675
X5.65Y-2.1859
X5.675Y-2.3609
X5.725Y-2.85
X5.825Y-2.55
X5.825Y-2.75
X6.375Y-3.3752
T2
X3.6248Y-2.2248
X3.6248Y-2.3248
X3.625Y-3.1998
X3.625Y-3.2998
X3.7248Y-2.2248
X3.7248Y-2.3248
X3.725Y-3.1998
X3.725Y-3.2998
X3.8248Y-2.2248
X3.8248Y-2.3248
X3.825Y-3.1998
X3.825Y-3.2998
X3.9248Y-2.2248
X3.9248Y-2.3248
X3.925Y-3.1998
X3.925Y-3.2998
X4.0248Y-2.2248
X4.0248Y-2.3248
X4.025Y-3.1998
X4.025Y-3.2998
X4.1248Y-2.2248
X4.1248Y-2.3248
X4.125Y-3.1998
X4.125Y-3.2998
X4.2248Y-2.2248
X4.2248Y-2.3248
X4.225Y-3.1998
X4.225Y-3.2998
X4.3248Y-2.2248
X4.3248Y-2.3248
X4.325Y-3.1998
X4.325Y-3.2998
X4.4248Y-2.2248
X4.4248Y-2.3248
X4.425Y-3.1998
X4.425Y-3.2998
X4.5248Y-2.2248
X4.5248Y-2.3248
X4.525Y-2.9502
X4.525Y-3.0502
X4.525Y-3.1998
X4.525Y-3.2998
X4.6248Y-2.2248
X4.6248Y-2.3248
X4.625Y-2.9502
X4.625Y-3.0502
X4.625Y-3.1998
X4.625Y-3.2998
X4.7248Y-2.2248
X4.7248Y-2.3248
X4.725Y-2.9502
X4.725Y-3.0502
X4.725Y-3.1998
X4.725Y-3.2998
X4.8248Y-2.2248
X4.8248Y-2.3248
X4.825Y-2.9502
X4.825Y-3.0502
X4.825Y-3.1998
X4.825Y-3.2998
X4.9248Y-2.2248
X4.9248Y-2.3248
X4.925Y-2.9502
X4.925Y-3.0502
X4.925Y-3.1998
X4.925Y-3.2998
X5.0248Y-2.2248
X5.0248Y-2.3248
X5.025Y-2.9502
X5.025Y-3.0502
X5.025Y-3.1998
X5.025Y-3.2998
X5.1248Y-2.2248
X5.1248Y-2.3248
X5.125Y-3.1998
X5.125Y-3.2998
X5.2248Y-2.2248
X5.2248Y-2.3248
X5.225Y-3.1998
X5.225Y-3.2998
X5.3248Y-2.2248
X5.3248Y-2.3248
X5.325Y-3.1998
X5.325Y-3.2998
X5.4248Y-2.2248
X5.4248Y-2.3248
X5.425Y-3.1998
X5.425Y-3.2998
X5.5248Y-2.2248
X5.5248Y-2.3248
X5.525Y-3.1998
X5.525Y-3.2998
X5.625Y-3.1998
X5.625Y-3.2998
X5.725Y-3.1998
X5.725Y-3.2998
X5.825Y-3.1998
X5.825Y-3.2998
X5.925Y-3.1998
X5.925Y-3.2998
X6.025Y-3.1998
X6.025Y-3.2998
X6.125Y-3.1998
X6.125Y-3.2998
X6.225Y-3.1998
X6.225Y-3.2998
X6.325Y-3.1998
X6.325Y-3.2998
X6.425Y-3.1998
X6.425Y-3.2998
X6.525Y-3.1998
X6.525Y-3.2998
X6.625Y-3.1998
X6.625Y-3.2998
T0
M30
