G04 #@! TF.GenerationSoftware,KiCad,Pcbnew,(6.0.5-0)*
G04 #@! TF.CreationDate,2022-07-12T21:34:34-06:00*
G04 #@! TF.ProjectId,PiGUS,50694755-532e-46b6-9963-61645f706362,rev?*
G04 #@! TF.SameCoordinates,Original*
G04 #@! TF.FileFunction,Legend,Bot*
G04 #@! TF.FilePolarity,Positive*
%FSLAX46Y46*%
G04 Gerber Fmt 4.6, Leading zero omitted, Abs format (unit mm)*
G04 Created by KiCad (PCBNEW (6.0.5-0)) date 2022-07-12 21:34:34*
%MOMM*%
%LPD*%
G01*
G04 APERTURE LIST*
%ADD10C,0.330000*%
%ADD11C,0.150000*%
G04 APERTURE END LIST*
D10*
X217152976Y-118633928D02*
X218676785Y-119205357D01*
X217152976Y-119776785D01*
X213533928Y-119967261D02*
X214200595Y-119014880D01*
X214676785Y-119967261D02*
X214676785Y-117967261D01*
X213914880Y-117967261D01*
X213724404Y-118062500D01*
X213629166Y-118157738D01*
X213533928Y-118348214D01*
X213533928Y-118633928D01*
X213629166Y-118824404D01*
X213724404Y-118919642D01*
X213914880Y-119014880D01*
X214676785Y-119014880D01*
X212676785Y-118919642D02*
X212010119Y-118919642D01*
X211724404Y-119967261D02*
X212676785Y-119967261D01*
X212676785Y-117967261D01*
X211724404Y-117967261D01*
X210962500Y-119395833D02*
X210010119Y-119395833D01*
X211152976Y-119967261D02*
X210486309Y-117967261D01*
X209819642Y-119967261D01*
X208010119Y-119967261D02*
X208676785Y-119014880D01*
X209152976Y-119967261D02*
X209152976Y-117967261D01*
X208391071Y-117967261D01*
X208200595Y-118062500D01*
X208105357Y-118157738D01*
X208010119Y-118348214D01*
X208010119Y-118633928D01*
X208105357Y-118824404D01*
X208200595Y-118919642D01*
X208391071Y-119014880D01*
X209152976Y-119014880D01*
X205248214Y-117967261D02*
X204867261Y-117967261D01*
X204676785Y-118062500D01*
X204486309Y-118252976D01*
X204391071Y-118633928D01*
X204391071Y-119300595D01*
X204486309Y-119681547D01*
X204676785Y-119872023D01*
X204867261Y-119967261D01*
X205248214Y-119967261D01*
X205438690Y-119872023D01*
X205629166Y-119681547D01*
X205724404Y-119300595D01*
X205724404Y-118633928D01*
X205629166Y-118252976D01*
X205438690Y-118062500D01*
X205248214Y-117967261D01*
X202867261Y-118919642D02*
X203533928Y-118919642D01*
X203533928Y-119967261D02*
X203533928Y-117967261D01*
X202581547Y-117967261D01*
X200295833Y-119967261D02*
X200295833Y-117967261D01*
X199533928Y-117967261D01*
X199343452Y-118062500D01*
X199248214Y-118157738D01*
X199152976Y-118348214D01*
X199152976Y-118633928D01*
X199248214Y-118824404D01*
X199343452Y-118919642D01*
X199533928Y-119014880D01*
X200295833Y-119014880D01*
X197152976Y-119776785D02*
X197248214Y-119872023D01*
X197533928Y-119967261D01*
X197724404Y-119967261D01*
X198010119Y-119872023D01*
X198200595Y-119681547D01*
X198295833Y-119491071D01*
X198391071Y-119110119D01*
X198391071Y-118824404D01*
X198295833Y-118443452D01*
X198200595Y-118252976D01*
X198010119Y-118062500D01*
X197724404Y-117967261D01*
X197533928Y-117967261D01*
X197248214Y-118062500D01*
X197152976Y-118157738D01*
D11*
X126409880Y-116078095D02*
X127219404Y-116078095D01*
X127314642Y-116125714D01*
X127362261Y-116173333D01*
X127409880Y-116268571D01*
X127409880Y-116459047D01*
X127362261Y-116554285D01*
X127314642Y-116601904D01*
X127219404Y-116649523D01*
X126409880Y-116649523D01*
X126409880Y-117030476D02*
X126409880Y-117649523D01*
X126790833Y-117316190D01*
X126790833Y-117459047D01*
X126838452Y-117554285D01*
X126886071Y-117601904D01*
X126981309Y-117649523D01*
X127219404Y-117649523D01*
X127314642Y-117601904D01*
X127362261Y-117554285D01*
X127409880Y-117459047D01*
X127409880Y-117173333D01*
X127362261Y-117078095D01*
X127314642Y-117030476D01*
M02*
