G04 #@! TF.GenerationSoftware,KiCad,Pcbnew,(6.0.5-0)*
G04 #@! TF.CreationDate,2022-07-12T21:34:34-06:00*
G04 #@! TF.ProjectId,PiGUS,50694755-532e-46b6-9963-61645f706362,rev?*
G04 #@! TF.SameCoordinates,Original*
G04 #@! TF.FileFunction,Copper,L1,Top*
G04 #@! TF.FilePolarity,Positive*
%FSLAX46Y46*%
G04 Gerber Fmt 4.6, Leading zero omitted, Abs format (unit mm)*
G04 Created by KiCad (PCBNEW (6.0.5-0)) date 2022-07-12 21:34:34*
%MOMM*%
%LPD*%
G01*
G04 APERTURE LIST*
G04 Aperture macros list*
%AMRoundRect*
0 Rectangle with rounded corners*
0 $1 Rounding radius*
0 $2 $3 $4 $5 $6 $7 $8 $9 X,Y pos of 4 corners*
0 Add a 4 corners polygon primitive as box body*
4,1,4,$2,$3,$4,$5,$6,$7,$8,$9,$2,$3,0*
0 Add four circle primitives for the rounded corners*
1,1,$1+$1,$2,$3*
1,1,$1+$1,$4,$5*
1,1,$1+$1,$6,$7*
1,1,$1+$1,$8,$9*
0 Add four rect primitives between the rounded corners*
20,1,$1+$1,$2,$3,$4,$5,0*
20,1,$1+$1,$4,$5,$6,$7,0*
20,1,$1+$1,$6,$7,$8,$9,0*
20,1,$1+$1,$8,$9,$2,$3,0*%
G04 Aperture macros list end*
G04 #@! TA.AperFunction,ComponentPad*
%ADD10R,1.700000X1.700000*%
G04 #@! TD*
G04 #@! TA.AperFunction,ComponentPad*
%ADD11O,1.700000X1.700000*%
G04 #@! TD*
G04 #@! TA.AperFunction,SMDPad,CuDef*
%ADD12R,0.700000X1.750000*%
G04 #@! TD*
G04 #@! TA.AperFunction,SMDPad,CuDef*
%ADD13R,1.500000X1.300000*%
G04 #@! TD*
G04 #@! TA.AperFunction,SMDPad,CuDef*
%ADD14R,0.800000X1.500000*%
G04 #@! TD*
G04 #@! TA.AperFunction,SMDPad,CuDef*
%ADD15R,0.800000X1.400000*%
G04 #@! TD*
G04 #@! TA.AperFunction,SMDPad,CuDef*
%ADD16R,1.550000X1.000000*%
G04 #@! TD*
G04 #@! TA.AperFunction,SMDPad,CuDef*
%ADD17R,1.000000X1.550000*%
G04 #@! TD*
G04 #@! TA.AperFunction,ConnectorPad*
%ADD18R,1.524000X6.858000*%
G04 #@! TD*
G04 #@! TA.AperFunction,SMDPad,CuDef*
%ADD19RoundRect,0.150000X-0.512500X-0.150000X0.512500X-0.150000X0.512500X0.150000X-0.512500X0.150000X0*%
G04 #@! TD*
G04 #@! TA.AperFunction,SMDPad,CuDef*
%ADD20R,0.300000X0.300000*%
G04 #@! TD*
G04 #@! TA.AperFunction,SMDPad,CuDef*
%ADD21RoundRect,0.100000X-0.100000X0.637500X-0.100000X-0.637500X0.100000X-0.637500X0.100000X0.637500X0*%
G04 #@! TD*
G04 #@! TA.AperFunction,ComponentPad*
%ADD22R,1.600000X1.600000*%
G04 #@! TD*
G04 #@! TA.AperFunction,ComponentPad*
%ADD23C,1.600000*%
G04 #@! TD*
G04 #@! TA.AperFunction,SMDPad,CuDef*
%ADD24RoundRect,0.250000X-0.262500X-0.450000X0.262500X-0.450000X0.262500X0.450000X-0.262500X0.450000X0*%
G04 #@! TD*
G04 #@! TA.AperFunction,SMDPad,CuDef*
%ADD25RoundRect,0.250000X0.250000X0.475000X-0.250000X0.475000X-0.250000X-0.475000X0.250000X-0.475000X0*%
G04 #@! TD*
G04 #@! TA.AperFunction,SMDPad,CuDef*
%ADD26RoundRect,0.250000X-0.450000X0.262500X-0.450000X-0.262500X0.450000X-0.262500X0.450000X0.262500X0*%
G04 #@! TD*
G04 #@! TA.AperFunction,SMDPad,CuDef*
%ADD27RoundRect,0.250000X-0.250000X-0.475000X0.250000X-0.475000X0.250000X0.475000X-0.250000X0.475000X0*%
G04 #@! TD*
G04 #@! TA.AperFunction,SMDPad,CuDef*
%ADD28RoundRect,0.150000X-0.150000X0.825000X-0.150000X-0.825000X0.150000X-0.825000X0.150000X0.825000X0*%
G04 #@! TD*
G04 #@! TA.AperFunction,SMDPad,CuDef*
%ADD29R,1.750000X0.400000*%
G04 #@! TD*
G04 #@! TA.AperFunction,SMDPad,CuDef*
%ADD30R,2.000000X1.300000*%
G04 #@! TD*
G04 #@! TA.AperFunction,ComponentPad*
%ADD31O,1.700000X1.300000*%
G04 #@! TD*
G04 #@! TA.AperFunction,SMDPad,CuDef*
%ADD32R,1.400000X2.000000*%
G04 #@! TD*
G04 #@! TA.AperFunction,SMDPad,CuDef*
%ADD33R,2.500000X1.425000*%
G04 #@! TD*
G04 #@! TA.AperFunction,ComponentPad*
%ADD34O,1.400000X1.000000*%
G04 #@! TD*
G04 #@! TA.AperFunction,SMDPad,CuDef*
%ADD35R,0.700000X1.825000*%
G04 #@! TD*
G04 #@! TA.AperFunction,SMDPad,CuDef*
%ADD36R,3.500000X1.700000*%
G04 #@! TD*
G04 #@! TA.AperFunction,SMDPad,CuDef*
%ADD37R,1.700000X3.500000*%
G04 #@! TD*
G04 #@! TA.AperFunction,ComponentPad*
%ADD38C,6.400000*%
G04 #@! TD*
G04 #@! TA.AperFunction,SMDPad,CuDef*
%ADD39R,0.700000X0.200000*%
G04 #@! TD*
G04 #@! TA.AperFunction,ComponentPad*
%ADD40C,1.524000*%
G04 #@! TD*
G04 #@! TA.AperFunction,SMDPad,CuDef*
%ADD41RoundRect,0.250000X-0.475000X0.250000X-0.475000X-0.250000X0.475000X-0.250000X0.475000X0.250000X0*%
G04 #@! TD*
G04 #@! TA.AperFunction,ViaPad*
%ADD42C,0.500000*%
G04 #@! TD*
G04 #@! TA.AperFunction,ViaPad*
%ADD43C,0.508000*%
G04 #@! TD*
G04 #@! TA.AperFunction,ViaPad*
%ADD44C,0.800000*%
G04 #@! TD*
G04 #@! TA.AperFunction,Conductor*
%ADD45C,0.250000*%
G04 #@! TD*
G04 #@! TA.AperFunction,Conductor*
%ADD46C,0.200000*%
G04 #@! TD*
G04 #@! TA.AperFunction,Conductor*
%ADD47C,0.500000*%
G04 #@! TD*
G04 #@! TA.AperFunction,Conductor*
%ADD48C,0.400000*%
G04 #@! TD*
G04 #@! TA.AperFunction,Conductor*
%ADD49C,0.960000*%
G04 #@! TD*
G04 #@! TA.AperFunction,Conductor*
%ADD50C,0.750000*%
G04 #@! TD*
G04 APERTURE END LIST*
D10*
X110848792Y-119070471D03*
D11*
X113388792Y-119070471D03*
X110848792Y-116530471D03*
X113388792Y-116530471D03*
X110848792Y-113990471D03*
X113388792Y-113990471D03*
X110848792Y-111450471D03*
X113388792Y-111450471D03*
X110848792Y-108910471D03*
X113388792Y-108910471D03*
X110848792Y-106370471D03*
X113388792Y-106370471D03*
X110848792Y-103830471D03*
X113388792Y-103830471D03*
X110848792Y-101290471D03*
X113388792Y-101290471D03*
X110848792Y-98750471D03*
X113388792Y-98750471D03*
X110848792Y-96210471D03*
X113388792Y-96210471D03*
X110848792Y-93670471D03*
X113388792Y-93670471D03*
X110848792Y-91130471D03*
X113388792Y-91130471D03*
X110848792Y-88590471D03*
X113388792Y-88590471D03*
X110848792Y-86050471D03*
X113388792Y-86050471D03*
X110848792Y-83510471D03*
X113388792Y-83510471D03*
X110848792Y-80970471D03*
X113388792Y-80970471D03*
X110848792Y-78430471D03*
X113388792Y-78430471D03*
X110848792Y-75890471D03*
X113388792Y-75890471D03*
X110848792Y-73350471D03*
X113388792Y-73350471D03*
X110848792Y-70810471D03*
X113388792Y-70810471D03*
D12*
X121325000Y-63650000D03*
X122425000Y-63650000D03*
X123525000Y-63650000D03*
X124625000Y-63650000D03*
X125725000Y-63650000D03*
X126825000Y-63650000D03*
X127925000Y-63650000D03*
X129025000Y-63650000D03*
D13*
X130325000Y-63875000D03*
X118875000Y-63875000D03*
D14*
X130500000Y-71375000D03*
D15*
X118550000Y-72025000D03*
D16*
X130200000Y-72875000D03*
D17*
X118950000Y-74450000D03*
D18*
X195262500Y-132397500D03*
X192722500Y-132397500D03*
X190182500Y-132397500D03*
X187642500Y-132397500D03*
X185102500Y-132397500D03*
X182562500Y-132397500D03*
X180022500Y-132397500D03*
X177482500Y-132397500D03*
X174942500Y-132397500D03*
X172402500Y-132397500D03*
X169862500Y-132397500D03*
X167322500Y-132397500D03*
X164782500Y-132397500D03*
X162242500Y-132397500D03*
X159702500Y-132397500D03*
X157162500Y-132397500D03*
X154622500Y-132397500D03*
X152082500Y-132397500D03*
X149542500Y-132397500D03*
X147002500Y-132397500D03*
X144462500Y-132397500D03*
X141922500Y-132397500D03*
X139382500Y-132397500D03*
X136842500Y-132397500D03*
X134302500Y-132397500D03*
X131762500Y-132397500D03*
X129222500Y-132397500D03*
X126682500Y-132397500D03*
X124142500Y-132397500D03*
X121602500Y-132397500D03*
X119062500Y-132397500D03*
D19*
X123957500Y-76050000D03*
X123957500Y-77000000D03*
X123957500Y-77950000D03*
X126232500Y-77950000D03*
X126232500Y-76050000D03*
D20*
X210676697Y-75991465D03*
X210676697Y-76691465D03*
X211526697Y-76341465D03*
D21*
X125782500Y-113977500D03*
X125132500Y-113977500D03*
X124482500Y-113977500D03*
X123832500Y-113977500D03*
X123182500Y-113977500D03*
X122532500Y-113977500D03*
X121882500Y-113977500D03*
X121232500Y-113977500D03*
X121232500Y-119702500D03*
X121882500Y-119702500D03*
X122532500Y-119702500D03*
X123182500Y-119702500D03*
X123832500Y-119702500D03*
X124482500Y-119702500D03*
X125132500Y-119702500D03*
X125782500Y-119702500D03*
D22*
X200342500Y-123190000D03*
D23*
X200342500Y-125190000D03*
D24*
X128627500Y-80645000D03*
X130452500Y-80645000D03*
D25*
X206687500Y-71755000D03*
X204787500Y-71755000D03*
D26*
X128585000Y-76087500D03*
X128585000Y-77912500D03*
D27*
X127002500Y-102552500D03*
X128902500Y-102552500D03*
D28*
X127000000Y-88965000D03*
X125730000Y-88965000D03*
X124460000Y-88965000D03*
X123190000Y-88965000D03*
X121920000Y-88965000D03*
X120650000Y-88965000D03*
X119380000Y-88965000D03*
X119380000Y-93915000D03*
X120650000Y-93915000D03*
X121920000Y-93915000D03*
X123190000Y-93915000D03*
X124460000Y-93915000D03*
X125730000Y-93915000D03*
X127000000Y-93915000D03*
D10*
X174700000Y-64725000D03*
D11*
X174700000Y-67265000D03*
D27*
X127002500Y-96837500D03*
X128902500Y-96837500D03*
D22*
X204800000Y-80700000D03*
D23*
X204800000Y-82700000D03*
D29*
X214181697Y-77341465D03*
X214181697Y-76691465D03*
X214181697Y-76041465D03*
X214181697Y-75391465D03*
X214181697Y-74741465D03*
D30*
X216071697Y-78766465D03*
D31*
X217001697Y-73316465D03*
D32*
X213941697Y-78891465D03*
D33*
X217251697Y-75078965D03*
D34*
X213971697Y-73616465D03*
D35*
X215301697Y-73053965D03*
D30*
X216071697Y-73316465D03*
D33*
X217251697Y-77003965D03*
D32*
X213941697Y-73141465D03*
D34*
X213971697Y-78466465D03*
D31*
X217001697Y-78766465D03*
D35*
X215301697Y-79028965D03*
D27*
X127002500Y-111125000D03*
X128902500Y-111125000D03*
D21*
X125797500Y-96832500D03*
X125147500Y-96832500D03*
X124497500Y-96832500D03*
X123847500Y-96832500D03*
X123197500Y-96832500D03*
X122547500Y-96832500D03*
X121897500Y-96832500D03*
X121247500Y-96832500D03*
X120597500Y-96832500D03*
X119947500Y-96832500D03*
X119947500Y-102557500D03*
X120597500Y-102557500D03*
X121247500Y-102557500D03*
X121897500Y-102557500D03*
X122547500Y-102557500D03*
X123197500Y-102557500D03*
X123847500Y-102557500D03*
X124497500Y-102557500D03*
X125147500Y-102557500D03*
X125797500Y-102557500D03*
X125782500Y-105405000D03*
X125132500Y-105405000D03*
X124482500Y-105405000D03*
X123832500Y-105405000D03*
X123182500Y-105405000D03*
X122532500Y-105405000D03*
X121882500Y-105405000D03*
X121232500Y-105405000D03*
X121232500Y-111130000D03*
X121882500Y-111130000D03*
X122532500Y-111130000D03*
X123182500Y-111130000D03*
X123832500Y-111130000D03*
X124482500Y-111130000D03*
X125132500Y-111130000D03*
X125782500Y-111130000D03*
D11*
X180340000Y-63500000D03*
D36*
X179440000Y-63500000D03*
D11*
X180340000Y-66040000D03*
D36*
X179440000Y-66040000D03*
D10*
X180340000Y-68580000D03*
D36*
X179440000Y-68580000D03*
D11*
X180340000Y-71120000D03*
D36*
X179440000Y-71120000D03*
D11*
X180340000Y-73660000D03*
D36*
X179440000Y-73660000D03*
X179440000Y-76200000D03*
D11*
X180340000Y-76200000D03*
D36*
X179440000Y-78740000D03*
D11*
X180340000Y-78740000D03*
D36*
X179440000Y-81280000D03*
D10*
X180340000Y-81280000D03*
D11*
X180340000Y-83820000D03*
D36*
X179440000Y-83820000D03*
D11*
X180340000Y-86360000D03*
D36*
X179440000Y-86360000D03*
D11*
X180340000Y-88900000D03*
D36*
X179440000Y-88900000D03*
X179440000Y-91440000D03*
D11*
X180340000Y-91440000D03*
D36*
X179440000Y-93980000D03*
D10*
X180340000Y-93980000D03*
D36*
X179440000Y-96520000D03*
D11*
X180340000Y-96520000D03*
D36*
X179440000Y-99060000D03*
D11*
X180340000Y-99060000D03*
X180340000Y-101600000D03*
D36*
X179440000Y-101600000D03*
D11*
X180340000Y-104140000D03*
D36*
X179440000Y-104140000D03*
D10*
X180340000Y-106680000D03*
D36*
X179440000Y-106680000D03*
D11*
X180340000Y-109220000D03*
D36*
X179440000Y-109220000D03*
X179440000Y-111760000D03*
D11*
X180340000Y-111760000D03*
D36*
X199020000Y-111760000D03*
D11*
X198120000Y-111760000D03*
D36*
X199020000Y-109220000D03*
D11*
X198120000Y-109220000D03*
D10*
X198120000Y-106680000D03*
D36*
X199020000Y-106680000D03*
D11*
X198120000Y-104140000D03*
D36*
X199020000Y-104140000D03*
X199020000Y-101600000D03*
D11*
X198120000Y-101600000D03*
X198120000Y-99060000D03*
D36*
X199020000Y-99060000D03*
X199020000Y-96520000D03*
D11*
X198120000Y-96520000D03*
D10*
X198120000Y-93980000D03*
D36*
X199020000Y-93980000D03*
X199020000Y-91440000D03*
D11*
X198120000Y-91440000D03*
D36*
X199020000Y-88900000D03*
D11*
X198120000Y-88900000D03*
D36*
X199020000Y-86360000D03*
D11*
X198120000Y-86360000D03*
X198120000Y-83820000D03*
D36*
X199020000Y-83820000D03*
X199020000Y-81280000D03*
D10*
X198120000Y-81280000D03*
D36*
X199020000Y-78740000D03*
D11*
X198120000Y-78740000D03*
X198120000Y-76200000D03*
D36*
X199020000Y-76200000D03*
D11*
X198120000Y-73660000D03*
D36*
X199020000Y-73660000D03*
X199020000Y-71120000D03*
D11*
X198120000Y-71120000D03*
D10*
X198120000Y-68580000D03*
D36*
X199020000Y-68580000D03*
D11*
X198120000Y-66040000D03*
D36*
X199020000Y-66040000D03*
X199020000Y-63500000D03*
D11*
X198120000Y-63500000D03*
X186690000Y-111530000D03*
D37*
X186690000Y-112430000D03*
D10*
X189230000Y-111530000D03*
D37*
X189230000Y-112430000D03*
X191770000Y-112430000D03*
D11*
X191770000Y-111530000D03*
D28*
X206692500Y-64517500D03*
X205422500Y-64517500D03*
X204152500Y-64517500D03*
X202882500Y-64517500D03*
X202882500Y-69467500D03*
X204152500Y-69467500D03*
X205422500Y-69467500D03*
X206692500Y-69467500D03*
D38*
X215658700Y-124008000D03*
D27*
X128592500Y-85725000D03*
X130492500Y-85725000D03*
X128592500Y-93980000D03*
X130492500Y-93980000D03*
D39*
X170900000Y-97800000D03*
X167820000Y-97800000D03*
X170900000Y-97400000D03*
X167820000Y-97400000D03*
X170900000Y-97000000D03*
X167820000Y-97000000D03*
X170900000Y-96600000D03*
X167820000Y-96600000D03*
X170900000Y-96200000D03*
X167820000Y-96200000D03*
X170900000Y-95800000D03*
X167820000Y-95800000D03*
X170900000Y-95400000D03*
X167820000Y-95400000D03*
X170900000Y-95000000D03*
X167820000Y-95000000D03*
X170900000Y-94600000D03*
X167820000Y-94600000D03*
X170900000Y-94200000D03*
X167820000Y-94200000D03*
X170900000Y-93800000D03*
X167820000Y-93800000D03*
X170900000Y-93400000D03*
X167820000Y-93400000D03*
X170900000Y-93000000D03*
X167820000Y-93000000D03*
X170900000Y-92600000D03*
X167820000Y-92600000D03*
X170900000Y-92200000D03*
X167820000Y-92200000D03*
X170900000Y-91800000D03*
X167820000Y-91800000D03*
X170900000Y-91400000D03*
X167820000Y-91400000D03*
X170900000Y-91000000D03*
X167820000Y-91000000D03*
X170900000Y-90600000D03*
X167820000Y-90600000D03*
X170900000Y-90200000D03*
X167820000Y-90200000D03*
X170900000Y-89800000D03*
X167820000Y-89800000D03*
X170900000Y-89400000D03*
X167820000Y-89400000D03*
X170900000Y-89000000D03*
X167820000Y-89000000D03*
X170900000Y-88600000D03*
X167820000Y-88600000D03*
X170900000Y-88200000D03*
X167820000Y-88200000D03*
X170900000Y-87800000D03*
X167820000Y-87800000D03*
X170900000Y-87400000D03*
X167820000Y-87400000D03*
X170900000Y-87000000D03*
X167820000Y-87000000D03*
X170900000Y-86600000D03*
X167820000Y-86600000D03*
X170900000Y-86200000D03*
X167820000Y-86200000D03*
X170900000Y-85800000D03*
X167820000Y-85800000D03*
X170900000Y-85400000D03*
X167820000Y-85400000D03*
X170900000Y-85000000D03*
X167820000Y-85000000D03*
X170900000Y-84600000D03*
X167820000Y-84600000D03*
X170900000Y-84200000D03*
X167820000Y-84200000D03*
X170900000Y-83800000D03*
X167820000Y-83800000D03*
X170900000Y-83400000D03*
X167820000Y-83400000D03*
X170900000Y-83000000D03*
X167820000Y-83000000D03*
X170900000Y-82600000D03*
X167820000Y-82600000D03*
X170900000Y-82200000D03*
X167820000Y-82200000D03*
X170900000Y-81800000D03*
X167820000Y-81800000D03*
X170900000Y-81400000D03*
X167820000Y-81400000D03*
X170900000Y-81000000D03*
X167820000Y-81000000D03*
X170900000Y-80600000D03*
X167820000Y-80600000D03*
X170900000Y-80200000D03*
X167820000Y-80200000D03*
X170900000Y-79800000D03*
X167820000Y-79800000D03*
X170900000Y-79400000D03*
X167820000Y-79400000D03*
X170900000Y-79000000D03*
X167820000Y-79000000D03*
X170900000Y-78600000D03*
X167820000Y-78600000D03*
X170900000Y-78200000D03*
X167820000Y-78200000D03*
X136980000Y-97800000D03*
X133900000Y-97800000D03*
X136980000Y-97400000D03*
X133900000Y-97400000D03*
X136980000Y-97000000D03*
X133900000Y-97000000D03*
X136980000Y-96600000D03*
X133900000Y-96600000D03*
X136980000Y-96200000D03*
X133900000Y-96200000D03*
X136980000Y-95800000D03*
X133900000Y-95800000D03*
X136980000Y-95400000D03*
X133900000Y-95400000D03*
X136980000Y-95000000D03*
X133900000Y-95000000D03*
X136980000Y-94600000D03*
X133900000Y-94600000D03*
X136980000Y-94200000D03*
X133900000Y-94200000D03*
X136980000Y-93800000D03*
X133900000Y-93800000D03*
X136980000Y-93400000D03*
X133900000Y-93400000D03*
X136980000Y-93000000D03*
X133900000Y-93000000D03*
X136980000Y-92600000D03*
X133900000Y-92600000D03*
X136980000Y-92200000D03*
X133900000Y-92200000D03*
X136980000Y-91800000D03*
X133900000Y-91800000D03*
X136980000Y-91400000D03*
X133900000Y-91400000D03*
X136980000Y-91000000D03*
X133900000Y-91000000D03*
X136980000Y-90600000D03*
X133900000Y-90600000D03*
X136980000Y-90200000D03*
X133900000Y-90200000D03*
X136980000Y-89800000D03*
X133900000Y-89800000D03*
X136980000Y-89400000D03*
X133900000Y-89400000D03*
X136980000Y-89000000D03*
X133900000Y-89000000D03*
X136980000Y-88600000D03*
X133900000Y-88600000D03*
X136980000Y-88200000D03*
X133900000Y-88200000D03*
X136980000Y-87800000D03*
X133900000Y-87800000D03*
X136980000Y-87400000D03*
X133900000Y-87400000D03*
X136980000Y-87000000D03*
X133900000Y-87000000D03*
X136980000Y-86600000D03*
X133900000Y-86600000D03*
X136980000Y-86200000D03*
X133900000Y-86200000D03*
X136980000Y-85800000D03*
X133900000Y-85800000D03*
X136980000Y-85400000D03*
X133900000Y-85400000D03*
X136980000Y-85000000D03*
X133900000Y-85000000D03*
X136980000Y-84600000D03*
X133900000Y-84600000D03*
X136980000Y-84200000D03*
X133900000Y-84200000D03*
X136980000Y-83800000D03*
X133900000Y-83800000D03*
X136980000Y-83400000D03*
X133900000Y-83400000D03*
X136980000Y-83000000D03*
X133900000Y-83000000D03*
X136980000Y-82600000D03*
X133900000Y-82600000D03*
X136980000Y-82200000D03*
X133900000Y-82200000D03*
X136980000Y-81800000D03*
X133900000Y-81800000D03*
X136980000Y-81400000D03*
X133900000Y-81400000D03*
X136980000Y-81000000D03*
X133900000Y-81000000D03*
X136980000Y-80600000D03*
X133900000Y-80600000D03*
X136980000Y-80200000D03*
X133900000Y-80200000D03*
X136980000Y-79800000D03*
X133900000Y-79800000D03*
X136980000Y-79400000D03*
X133900000Y-79400000D03*
X136980000Y-79000000D03*
X133900000Y-79000000D03*
X136980000Y-78600000D03*
X133900000Y-78600000D03*
X136980000Y-78200000D03*
X133900000Y-78200000D03*
D40*
X204269050Y-115582931D03*
X206809050Y-115582931D03*
X209349050Y-115582931D03*
X211889050Y-115582931D03*
X214429050Y-115582931D03*
X216969050Y-115582931D03*
X203489050Y-109142931D03*
X203489050Y-106602931D03*
X203489050Y-104062931D03*
X203489050Y-101522931D03*
X203489050Y-98982931D03*
X203489050Y-96442931D03*
X203489050Y-93902931D03*
X203489050Y-91362931D03*
X203489050Y-88822931D03*
D11*
X175577500Y-119697500D03*
X175577500Y-117157500D03*
X178117500Y-119697500D03*
X178117500Y-117157500D03*
X180657500Y-119697500D03*
X180657500Y-117157500D03*
X183197500Y-119697500D03*
X183197500Y-117157500D03*
X185737500Y-119697500D03*
X185737500Y-117157500D03*
X188277500Y-119697500D03*
X188277500Y-117157500D03*
D28*
X127000000Y-80710000D03*
X125730000Y-80710000D03*
X124460000Y-80710000D03*
X123190000Y-80710000D03*
X121920000Y-80710000D03*
X120650000Y-80710000D03*
X119380000Y-80710000D03*
X119380000Y-85660000D03*
X120650000Y-85660000D03*
X121920000Y-85660000D03*
X123190000Y-85660000D03*
X124460000Y-85660000D03*
X125730000Y-85660000D03*
X127000000Y-85660000D03*
D10*
X195262500Y-123502500D03*
D11*
X192722500Y-123502500D03*
X190182500Y-123502500D03*
X187642500Y-123502500D03*
X185102500Y-123502500D03*
X182562500Y-123502500D03*
X180022500Y-123502500D03*
X177482500Y-123502500D03*
X174942500Y-123502500D03*
X172402500Y-123502500D03*
X169862500Y-123502500D03*
X167322500Y-123502500D03*
X164782500Y-123502500D03*
X162242500Y-123502500D03*
X159702500Y-123502500D03*
X157162500Y-123502500D03*
X154622500Y-123502500D03*
X152082500Y-123502500D03*
X149542500Y-123502500D03*
X147002500Y-123502500D03*
X144462500Y-123502500D03*
X141922500Y-123502500D03*
X139382500Y-123502500D03*
X136842500Y-123502500D03*
X134302500Y-123502500D03*
X131762500Y-123502500D03*
X129222500Y-123502500D03*
X126682500Y-123502500D03*
X124142500Y-123502500D03*
X121602500Y-123502500D03*
X119062500Y-123502500D03*
X195262500Y-126042500D03*
X192722500Y-126042500D03*
X190182500Y-126042500D03*
X187642500Y-126042500D03*
X185102500Y-126042500D03*
X182562500Y-126042500D03*
X180022500Y-126042500D03*
X177482500Y-126042500D03*
X174942500Y-126042500D03*
X172402500Y-126042500D03*
X169862500Y-126042500D03*
X167322500Y-126042500D03*
X164782500Y-126042500D03*
X162242500Y-126042500D03*
X159702500Y-126042500D03*
X157162500Y-126042500D03*
X154622500Y-126042500D03*
X152082500Y-126042500D03*
X149542500Y-126042500D03*
X147002500Y-126042500D03*
X144462500Y-126042500D03*
X141922500Y-126042500D03*
X139382500Y-126042500D03*
X136842500Y-126042500D03*
X134302500Y-126042500D03*
X131762500Y-126042500D03*
X129222500Y-126042500D03*
X126682500Y-126042500D03*
X124142500Y-126042500D03*
X121602500Y-126042500D03*
X119062500Y-126042500D03*
D38*
X215658700Y-67493000D03*
D41*
X121700000Y-76050000D03*
X121700000Y-77950000D03*
D27*
X127002500Y-119697500D03*
X128902500Y-119697500D03*
D42*
X129700000Y-76077500D03*
X118900000Y-65200000D03*
X121400000Y-74700000D03*
X130300000Y-65200000D03*
X129000000Y-70700000D03*
X128000000Y-71200000D03*
X126800000Y-65200000D03*
X124142500Y-117157500D03*
X118745000Y-117157500D03*
X130175000Y-106362500D03*
X126365000Y-106362500D03*
X120015000Y-106680000D03*
X119380000Y-120332500D03*
X123190000Y-106680000D03*
X131445000Y-121345500D03*
X124460000Y-109855000D03*
X118110000Y-109855000D03*
X118110000Y-120332500D03*
X133032500Y-121602500D03*
X131445000Y-112712500D03*
X127000000Y-112712500D03*
X126365000Y-101282500D03*
X140652500Y-101282500D03*
X142500000Y-100800000D03*
X125412500Y-100647500D03*
X163830000Y-116840000D03*
X124460000Y-115887500D03*
X122555000Y-115252500D03*
X164465000Y-116205000D03*
X121920000Y-120895980D03*
X166052500Y-117475000D03*
X155500000Y-119900000D03*
X157162500Y-118110000D03*
X171767500Y-118110000D03*
X123825000Y-118427500D03*
X124767148Y-106680000D03*
X174307500Y-108200000D03*
X121285000Y-107950000D03*
X175227143Y-113783000D03*
X191452500Y-115252500D03*
X124820416Y-108585000D03*
X193992500Y-115252500D03*
X121920000Y-108622500D03*
X167000000Y-95400000D03*
X131147500Y-85725000D03*
X171699751Y-83800000D03*
X122777711Y-77900000D03*
X169200000Y-89600000D03*
X167000000Y-86300000D03*
X171900000Y-91700000D03*
X134900000Y-84000000D03*
D43*
X212101697Y-76341465D03*
D42*
X168700000Y-87849500D03*
X171699751Y-96600000D03*
X131147500Y-93980000D03*
X133100000Y-87600000D03*
X172000000Y-93400000D03*
X174000000Y-88600000D03*
X120650000Y-105410000D03*
X167000249Y-78600000D03*
X167000000Y-85000000D03*
X118768750Y-80650000D03*
X171699751Y-95400000D03*
X129540000Y-111125000D03*
X167000000Y-97472500D03*
X131127500Y-80645000D03*
X134900000Y-80400000D03*
X167000000Y-83400000D03*
X171699751Y-86200000D03*
X134600000Y-96400000D03*
X171699751Y-85000000D03*
X203517500Y-64452500D03*
X118700000Y-89100000D03*
X135500000Y-78600000D03*
X129540000Y-119697500D03*
X136200000Y-87600000D03*
X120650000Y-114300000D03*
X171700000Y-97472500D03*
X135500000Y-85800000D03*
X136000000Y-84000000D03*
X168600000Y-91800000D03*
X129540000Y-102552500D03*
X119380000Y-102552500D03*
X204787500Y-73025000D03*
X167000000Y-96600000D03*
X136100000Y-80400000D03*
X129800000Y-96400000D03*
X136200000Y-92400000D03*
X168600000Y-93800000D03*
X136300000Y-96655000D03*
X171699751Y-87400000D03*
X135500000Y-82200000D03*
X134600000Y-92400000D03*
X121920000Y-82550000D03*
X160972500Y-83502500D03*
X160020000Y-82867500D03*
X124460000Y-82550000D03*
X141922500Y-92710000D03*
X124460000Y-91440000D03*
X112077500Y-89852500D03*
X141400000Y-109800000D03*
X167000000Y-110000000D03*
X123825000Y-95567500D03*
X142557500Y-94932500D03*
X120300000Y-87400000D03*
X126365000Y-92710000D03*
X118745000Y-84137500D03*
X173800000Y-109200000D03*
X118427500Y-81915000D03*
X125412500Y-90487500D03*
X126200000Y-95800000D03*
X121300000Y-90170000D03*
X173600000Y-92200000D03*
X141900000Y-109000000D03*
X127635000Y-93980000D03*
X126360000Y-111130000D03*
D44*
X115252500Y-117475000D03*
D42*
X127635000Y-85725000D03*
X126360000Y-119702500D03*
D44*
X113665000Y-120967500D03*
D42*
X120650000Y-86800000D03*
X127635000Y-95885000D03*
D44*
X114617500Y-120967500D03*
D42*
X206692500Y-73025000D03*
X167060000Y-81500000D03*
X123190000Y-86995000D03*
D44*
X116205000Y-117475000D03*
D42*
X167060000Y-80900000D03*
X162560000Y-106680000D03*
X124142500Y-103822500D03*
X171700000Y-80600000D03*
D44*
X189230000Y-127952500D03*
X125095000Y-127952500D03*
D42*
X127635000Y-103505000D03*
D44*
X123190000Y-127952500D03*
D42*
X171700000Y-81100000D03*
X171700000Y-82600000D03*
X212600000Y-77700000D03*
X171700000Y-81600000D03*
D44*
X191130000Y-127957500D03*
D42*
X171700000Y-82100000D03*
X117792500Y-86042500D03*
X117792500Y-69215000D03*
X118427500Y-87312500D03*
X162560000Y-62547500D03*
X162627500Y-90872500D03*
X165700000Y-90900000D03*
X120650000Y-100965000D03*
X133032500Y-99498489D03*
X157162500Y-119583000D03*
X159702500Y-118833500D03*
X163212500Y-77787500D03*
X176800000Y-78200000D03*
X119062500Y-100012500D03*
X129857500Y-79057500D03*
X184100000Y-77500000D03*
X144200000Y-101400000D03*
X165900000Y-87800000D03*
X144200000Y-87500000D03*
X122640519Y-95653019D03*
X144200000Y-95800000D03*
X120421002Y-99579291D03*
X122400000Y-98200000D03*
X169400000Y-99400000D03*
X120650000Y-98807003D03*
X169800000Y-98107500D03*
X133000000Y-89500000D03*
X133000000Y-96800000D03*
X173900000Y-89400000D03*
X120650000Y-98107500D03*
X115252500Y-97155000D03*
X173037500Y-100012500D03*
X122555000Y-100647500D03*
X184467500Y-105410000D03*
X184562989Y-115982989D03*
X130492500Y-103187500D03*
X121920000Y-103565500D03*
X121285000Y-101282500D03*
X187007500Y-118427500D03*
X185102500Y-102870000D03*
X131700000Y-89000000D03*
X168800000Y-89000000D03*
X123190000Y-98742500D03*
X131762500Y-98742500D03*
X127900000Y-88300000D03*
X161607500Y-88900000D03*
X175000000Y-88300000D03*
X175000000Y-107600000D03*
X172800000Y-88800000D03*
X175700000Y-79400000D03*
X168600000Y-93000000D03*
X175600000Y-91500000D03*
X175700000Y-72200000D03*
X194945000Y-82867500D03*
X195500000Y-69700000D03*
X195580000Y-92720000D03*
X173000000Y-92700000D03*
X162200000Y-93400000D03*
X115887500Y-113347500D03*
X115887500Y-104775000D03*
X135700000Y-87100000D03*
X126365000Y-104775000D03*
X135572500Y-104775000D03*
X126365000Y-113982500D03*
X162000000Y-87200000D03*
X167000000Y-93400000D03*
X132080000Y-82232500D03*
X125730000Y-82232500D03*
X211100000Y-68900000D03*
X209550000Y-72390000D03*
X182600000Y-74400000D03*
X196532500Y-71120000D03*
X125800000Y-71500000D03*
X166200000Y-74200000D03*
X163600000Y-73500000D03*
X122600000Y-72600000D03*
X123600000Y-72000000D03*
X164300000Y-74100000D03*
X166200000Y-72400000D03*
X166200000Y-71300000D03*
X170300000Y-74100000D03*
X139300000Y-76500000D03*
X209500000Y-76800000D03*
X123190000Y-108267500D03*
X168800000Y-104200000D03*
X138430000Y-104140000D03*
X135255000Y-107632500D03*
X117792500Y-107315000D03*
X117792500Y-92392500D03*
X163800000Y-89600000D03*
X166800000Y-89600000D03*
X132715000Y-111760000D03*
X164000000Y-102200000D03*
X138112500Y-102235000D03*
X120650000Y-111125000D03*
X115252500Y-111125000D03*
X115252500Y-93662500D03*
X145415000Y-100647500D03*
X145415000Y-93980000D03*
X112077500Y-107632500D03*
X169552500Y-100647500D03*
X118745000Y-106362500D03*
X120967500Y-90805000D03*
X140335000Y-90805000D03*
X118427500Y-104140000D03*
X172300000Y-90300000D03*
X120015000Y-91757500D03*
X122872500Y-104140000D03*
X176700000Y-90700000D03*
X117792500Y-91122500D03*
X140335000Y-98742500D03*
X116522500Y-115887500D03*
X122277861Y-118110000D03*
X116522500Y-88582500D03*
X173200000Y-90700000D03*
X163407500Y-79692500D03*
X121285000Y-118427500D03*
X117157500Y-82232500D03*
X176530000Y-81915000D03*
X117157500Y-118427500D03*
X112165018Y-115252500D03*
X120332500Y-115252500D03*
X165000000Y-88400000D03*
X166300000Y-86500000D03*
X135100000Y-86500000D03*
X122237500Y-112712500D03*
X132080000Y-113347500D03*
X209502400Y-75897600D03*
X138100000Y-75900000D03*
D45*
X123955000Y-75882500D02*
X124600000Y-75237500D01*
X124600000Y-75237500D02*
X124600000Y-75190000D01*
X124625000Y-63650000D02*
X124625000Y-75200000D01*
X122777711Y-77900000D02*
X123677711Y-77000000D01*
X123677711Y-77000000D02*
X123957500Y-77000000D01*
D46*
X130300000Y-65200000D02*
X130300000Y-71100978D01*
X130300000Y-71100978D02*
X130500000Y-71300978D01*
X130500000Y-71300978D02*
X130500000Y-71375000D01*
X118900000Y-65200000D02*
X118550000Y-65550000D01*
X118550000Y-65550000D02*
X118550000Y-72025000D01*
X118925000Y-65175000D02*
X118925000Y-63875000D01*
D45*
X129677500Y-76100000D02*
X128585000Y-76100000D01*
D46*
X121325000Y-74625000D02*
X121400000Y-74700000D01*
X121325000Y-63650000D02*
X121325000Y-74625000D01*
X130325000Y-65175000D02*
X130325000Y-63875000D01*
X130300000Y-65200000D02*
X130325000Y-65175000D01*
X129025000Y-63650000D02*
X129025000Y-70675000D01*
X129025000Y-70675000D02*
X129000000Y-70700000D01*
X127925000Y-63650000D02*
X127925000Y-71125000D01*
X127925000Y-71125000D02*
X128000000Y-71200000D01*
X126825000Y-63650000D02*
X126825000Y-65175000D01*
X126825000Y-65175000D02*
X126800000Y-65200000D01*
D45*
X122425000Y-72425000D02*
X122425000Y-63650000D01*
D46*
X122600000Y-72600000D02*
X122425000Y-72425000D01*
D45*
X125725000Y-71425000D02*
X125725000Y-63650000D01*
D46*
X125800000Y-71500000D02*
X125725000Y-71425000D01*
D45*
X123525000Y-63650000D02*
X123525000Y-71925000D01*
D46*
X123525000Y-71925000D02*
X123600000Y-72000000D01*
D45*
X157162500Y-118110000D02*
X155500000Y-119772500D01*
X155500000Y-119772500D02*
X155500000Y-119900000D01*
X142500000Y-100800000D02*
X142500000Y-122560411D01*
X142500000Y-122560411D02*
X142997011Y-123057422D01*
X142997011Y-123057422D02*
X142997011Y-124972989D01*
X142997011Y-124972989D02*
X141927500Y-126042500D01*
X141900000Y-109000000D02*
X141900000Y-95590000D01*
X141900000Y-95590000D02*
X142557500Y-94932500D01*
X141400000Y-109800000D02*
X141300000Y-109700000D01*
X141300000Y-109700000D02*
X141300000Y-93332500D01*
X141300000Y-93332500D02*
X141922500Y-92710000D01*
X118745000Y-117157500D02*
X118745000Y-121920000D01*
X118745000Y-121920000D02*
X117887989Y-122777011D01*
X117887989Y-124867989D02*
X119062500Y-126042500D01*
X117887989Y-122777011D02*
X117887989Y-124867989D01*
D47*
X119062500Y-132397500D02*
X119062500Y-126042500D01*
D45*
X125132500Y-116167500D02*
X125132500Y-113977500D01*
X124142500Y-117157500D02*
X125132500Y-116167500D01*
X120650000Y-116205000D02*
X120650000Y-122793990D01*
X120967500Y-115887500D02*
X120650000Y-116205000D01*
X123190000Y-115570000D02*
X123182500Y-115562500D01*
X122872500Y-115887500D02*
X123190000Y-115570000D01*
X122872500Y-115887500D02*
X120967500Y-115887500D01*
D47*
X121602500Y-132397500D02*
X121602500Y-126042500D01*
D45*
X120337500Y-123106490D02*
X120337500Y-124777500D01*
X123182500Y-115562500D02*
X123182500Y-113977500D01*
X120337500Y-124777500D02*
X121602500Y-126042500D01*
X120650000Y-122793990D02*
X120337500Y-123106490D01*
X122872500Y-122920512D02*
X122872500Y-124772500D01*
X122532500Y-122580512D02*
X122872500Y-122920512D01*
D47*
X124142500Y-132397500D02*
X124142500Y-126042500D01*
D45*
X122532500Y-119702500D02*
X122532500Y-122580512D01*
X122872500Y-124772500D02*
X124142500Y-126042500D01*
X125412500Y-123111490D02*
X125412500Y-124772500D01*
D47*
X126682500Y-132397500D02*
X126682500Y-126042500D01*
D45*
X124482500Y-122181490D02*
X125412500Y-123111490D01*
X124482500Y-119702500D02*
X124482500Y-122181490D01*
X125412500Y-124772500D02*
X126682500Y-126042500D01*
X128047989Y-123016001D02*
X128047989Y-123988999D01*
X125506659Y-106467020D02*
X126260480Y-106467020D01*
X129222500Y-125163510D02*
X129222500Y-126042500D01*
X130175000Y-120888990D02*
X128047989Y-123016001D01*
X130175000Y-106362500D02*
X130175000Y-120888990D01*
X128047989Y-123988999D02*
X129222500Y-125163510D01*
X125132500Y-106092861D02*
X125506659Y-106467020D01*
D47*
X129222500Y-132397500D02*
X129222500Y-126042500D01*
D45*
X125132500Y-105405000D02*
X125132500Y-106092861D01*
X126260480Y-106467020D02*
X126365000Y-106362500D01*
X123190000Y-106680000D02*
X123182500Y-106672500D01*
D47*
X131762500Y-132397500D02*
X131762500Y-126042500D01*
D45*
X130587989Y-124867989D02*
X131762500Y-126042500D01*
X119380000Y-107315000D02*
X119380000Y-120332500D01*
X131445000Y-121345500D02*
X130587989Y-122202511D01*
X130587989Y-122202511D02*
X130587989Y-124867989D01*
X120015000Y-106680000D02*
X119380000Y-107315000D01*
X123182500Y-106672500D02*
X123182500Y-105405000D01*
X124482500Y-111130000D02*
X124482500Y-111817861D01*
X133032500Y-121602500D02*
X133032500Y-124772500D01*
X124482500Y-111130000D02*
X124460000Y-111107500D01*
X124482500Y-110150000D02*
X124482500Y-111130000D01*
X124460000Y-110127500D02*
X124482500Y-110150000D01*
D47*
X134302500Y-132397500D02*
X134302500Y-126042500D01*
D45*
X118110000Y-109855000D02*
X118110000Y-120332500D01*
X133032500Y-124772500D02*
X134302500Y-126042500D01*
X124460000Y-109855000D02*
X124460000Y-110127500D01*
X135572500Y-124772500D02*
X136842500Y-126042500D01*
X131445000Y-112712500D02*
X131445000Y-118427500D01*
X122532500Y-111130000D02*
X122532500Y-111817861D01*
X126682500Y-112395000D02*
X127000000Y-112712500D01*
X123109639Y-112395000D02*
X126682500Y-112395000D01*
X131445000Y-118427500D02*
X135572500Y-122555000D01*
D47*
X136842500Y-132397500D02*
X136842500Y-126042500D01*
D45*
X135572500Y-122555000D02*
X135572500Y-124772500D01*
X122532500Y-111817861D02*
X123109639Y-112395000D01*
D47*
X139382500Y-132397500D02*
X139382500Y-126042500D01*
D45*
X140652500Y-101282500D02*
X140647500Y-101287500D01*
X140647500Y-101287500D02*
X140647500Y-124777500D01*
X125797500Y-102557500D02*
X125797500Y-101850000D01*
X140647500Y-124777500D02*
X139382500Y-126042500D01*
X125797500Y-101850000D02*
X126365000Y-101282500D01*
X124497500Y-101562500D02*
X125412500Y-100647500D01*
D47*
X141922500Y-132397500D02*
X141922500Y-126042500D01*
D45*
X124497500Y-102557500D02*
X124497500Y-101562500D01*
X174942500Y-126047500D02*
X173672500Y-124777500D01*
X173672500Y-122872500D02*
X170180000Y-119380000D01*
X124482500Y-115865000D02*
X124460000Y-115887500D01*
D47*
X174942500Y-132397500D02*
X174942500Y-126042500D01*
D45*
X124482500Y-113977500D02*
X124482500Y-115865000D01*
X170180000Y-119380000D02*
X166369282Y-119380000D01*
X163830000Y-116840718D02*
X163830000Y-116840000D01*
X166369282Y-119380000D02*
X163830000Y-116840718D01*
X173672500Y-124777500D02*
X173672500Y-122872500D01*
X166510018Y-118745000D02*
X164465000Y-116699982D01*
X176212500Y-122237500D02*
X175895000Y-121920000D01*
X177482500Y-126047500D02*
X176212500Y-124777500D01*
X122532500Y-113977500D02*
X122532500Y-115230000D01*
X170496782Y-118745000D02*
X166510018Y-118745000D01*
X175895000Y-121920000D02*
X173671782Y-121920000D01*
X173671782Y-121920000D02*
X170496782Y-118745000D01*
X176212500Y-124777500D02*
X176212500Y-122237500D01*
D47*
X177482500Y-132397500D02*
X177482500Y-126042500D01*
D45*
X164465000Y-116699982D02*
X164465000Y-116205000D01*
X122532500Y-115230000D02*
X122555000Y-115252500D01*
X173709031Y-121321531D02*
X176962541Y-121321531D01*
X170646489Y-118258989D02*
X173709031Y-121321531D01*
X178752500Y-124777500D02*
X180022500Y-126047500D01*
D47*
X180022500Y-132397500D02*
X180022500Y-126042500D01*
D45*
X166052500Y-117475000D02*
X166687500Y-117475000D01*
X167471489Y-118258989D02*
X170646489Y-118258989D01*
X176962541Y-121321531D02*
X178752500Y-123111490D01*
X178752500Y-123111490D02*
X178752500Y-124777500D01*
X121882500Y-120930000D02*
X121920000Y-120967500D01*
X166687500Y-117475000D02*
X167471489Y-118258989D01*
X121882500Y-119702500D02*
X121882500Y-120930000D01*
X174529511Y-120872011D02*
X179053021Y-120872011D01*
X179053021Y-120872011D02*
X181292500Y-123111490D01*
X171767500Y-118110000D02*
X174529511Y-120872011D01*
X181292500Y-124777500D02*
X182562500Y-126047500D01*
X181292500Y-123111490D02*
X181292500Y-124777500D01*
D47*
X182562500Y-132397500D02*
X182562500Y-126042500D01*
D45*
X123825000Y-118427500D02*
X123832500Y-118435000D01*
X123832500Y-118435000D02*
X123832500Y-119702500D01*
X176847500Y-117792500D02*
X177482500Y-118427500D01*
X174600000Y-114238245D02*
X176847500Y-116485745D01*
X181927500Y-120332500D02*
X183832500Y-122237500D01*
X174307500Y-108200000D02*
X174600000Y-108492500D01*
X181292500Y-118427500D02*
X181927500Y-119062500D01*
X124482500Y-106395352D02*
X124482500Y-105405000D01*
X181927500Y-119062500D02*
X181927500Y-120332500D01*
X183832500Y-122237500D02*
X183832500Y-124772500D01*
X176847500Y-116485745D02*
X176847500Y-117792500D01*
X174600000Y-108492500D02*
X174600000Y-114238245D01*
X177482500Y-118427500D02*
X181292500Y-118427500D01*
X183832500Y-124772500D02*
X185102500Y-126042500D01*
X124767148Y-106680000D02*
X124482500Y-106395352D01*
D47*
X185102500Y-132397500D02*
X185102500Y-126042500D01*
D45*
X186372500Y-124777500D02*
X187642500Y-126047500D01*
X175227143Y-113783000D02*
X177146163Y-115702020D01*
D47*
X187642500Y-132397500D02*
X187642500Y-126042500D01*
D45*
X183832500Y-118427500D02*
X184467500Y-119062500D01*
X184467500Y-119062500D02*
X184467500Y-120967500D01*
X186372500Y-122872500D02*
X186372500Y-124777500D01*
X181424520Y-115702020D02*
X181927500Y-116205000D01*
X122532500Y-106702500D02*
X122532500Y-105405000D01*
X181927500Y-116205000D02*
X181927500Y-117829255D01*
X182525745Y-118427500D02*
X183832500Y-118427500D01*
X181927500Y-117829255D02*
X182525745Y-118427500D01*
X184467500Y-120967500D02*
X186372500Y-122872500D01*
X121285000Y-107950000D02*
X122532500Y-106702500D01*
X177146163Y-115702020D02*
X181424520Y-115702020D01*
X191452500Y-124777500D02*
X190182500Y-126047500D01*
X124792500Y-108585000D02*
X123832500Y-109545000D01*
X124820416Y-108585000D02*
X124792500Y-108585000D01*
X191452500Y-115252500D02*
X191452500Y-124777500D01*
D47*
X190182500Y-132397500D02*
X190182500Y-126042500D01*
D45*
X123832500Y-109545000D02*
X123832500Y-111130000D01*
X121882500Y-111130000D02*
X121882500Y-108660000D01*
X193992500Y-115252500D02*
X193992500Y-124772500D01*
D47*
X192722500Y-132397500D02*
X192722500Y-126042500D01*
D45*
X193992500Y-124772500D02*
X193128746Y-125636254D01*
X121882500Y-108660000D02*
X121920000Y-108622500D01*
D46*
X170900249Y-93400000D02*
X172000000Y-93400000D01*
D45*
X120972500Y-113977500D02*
X121232500Y-113977500D01*
D46*
X170900498Y-97800000D02*
X171372500Y-97800000D01*
X134600000Y-94350000D02*
X134600000Y-95600000D01*
X133900000Y-79800000D02*
X134300000Y-79800000D01*
X136200000Y-92400000D02*
X136200000Y-92770000D01*
X217251697Y-73566465D02*
X217001697Y-73316465D01*
X134300000Y-79800000D02*
X134900000Y-80400000D01*
X136530978Y-91800000D02*
X136980000Y-91800000D01*
X170900249Y-87400000D02*
X171699751Y-87400000D01*
X133900000Y-87000000D02*
X133350000Y-87000000D01*
X136980000Y-79800000D02*
X136430000Y-79800000D01*
X136530978Y-90600000D02*
X136980000Y-90600000D01*
X133900000Y-85800000D02*
X135500000Y-85800000D01*
D45*
X128745000Y-96837500D02*
X129162500Y-96837500D01*
D46*
X136980000Y-78600000D02*
X135500000Y-78600000D01*
D45*
X119351250Y-80645000D02*
X118773750Y-80645000D01*
D46*
X136200000Y-92130978D02*
X136530978Y-91800000D01*
X133900000Y-88200000D02*
X134349022Y-88200000D01*
X133900000Y-81000000D02*
X134300000Y-81000000D01*
X134500000Y-88350978D02*
X134500000Y-89200000D01*
X170900249Y-86200000D02*
X171699751Y-86200000D01*
X136300000Y-95630978D02*
X136530978Y-95400000D01*
D45*
X121913524Y-77468976D02*
X121600000Y-77782500D01*
X129062500Y-111125000D02*
X129540000Y-111125000D01*
D46*
X136530978Y-95400000D02*
X136980000Y-95400000D01*
X136300000Y-96655000D02*
X136345000Y-96655000D01*
X133350000Y-88200000D02*
X133100000Y-87950000D01*
X133100000Y-87250000D02*
X133100000Y-87600000D01*
X133350000Y-87000000D02*
X133100000Y-87250000D01*
X136980000Y-84600000D02*
X136600000Y-84600000D01*
D45*
X130472500Y-85725000D02*
X131147500Y-85725000D01*
X202882500Y-64517500D02*
X203265000Y-64517500D01*
D46*
X136430000Y-81000000D02*
X136100000Y-80670000D01*
D45*
X129062500Y-102552500D02*
X129540000Y-102552500D01*
D46*
X134349022Y-88200000D02*
X134500000Y-88350978D01*
X170900249Y-83800000D02*
X171699751Y-83800000D01*
X167799502Y-97800000D02*
X167327500Y-97800000D01*
X136200000Y-92770000D02*
X136430000Y-93000000D01*
X136300000Y-94330000D02*
X136300000Y-95800000D01*
D45*
X203452500Y-64517500D02*
X203517500Y-64452500D01*
D46*
X133900000Y-84600000D02*
X134300000Y-84600000D01*
X169000000Y-89800000D02*
X169200000Y-89600000D01*
D45*
X130452500Y-80645000D02*
X131127500Y-80645000D01*
D46*
X136200000Y-87230000D02*
X136200000Y-87600000D01*
X167799751Y-78600000D02*
X167000249Y-78600000D01*
X170900249Y-95400000D02*
X171699751Y-95400000D01*
X134450000Y-93000000D02*
X134600000Y-92850000D01*
X136980000Y-87000000D02*
X136430000Y-87000000D01*
X134600000Y-95600000D02*
X134600000Y-96400000D01*
X134600000Y-96400000D02*
X134400000Y-96600000D01*
X170900249Y-85000000D02*
X171699751Y-85000000D01*
D45*
X203265000Y-64517500D02*
X203452500Y-64517500D01*
D46*
X171900000Y-91700000D02*
X171600000Y-91400000D01*
X134450000Y-91800000D02*
X134600000Y-91950000D01*
X136430000Y-94200000D02*
X136300000Y-94330000D01*
X134300000Y-81000000D02*
X134900000Y-80400000D01*
X133100000Y-87950000D02*
X133100000Y-87600000D01*
D45*
X128902500Y-119697500D02*
X129540000Y-119697500D01*
D46*
X170900249Y-96600000D02*
X171699751Y-96600000D01*
X171600000Y-91400000D02*
X170900249Y-91400000D01*
X136100000Y-80130000D02*
X136100000Y-80400000D01*
X212101697Y-76341465D02*
X211526697Y-76341465D01*
D45*
X129162500Y-96837500D02*
X129600000Y-96400000D01*
D46*
X136600000Y-84600000D02*
X136000000Y-84000000D01*
X167800498Y-89800000D02*
X169000000Y-89800000D01*
X174000000Y-88600000D02*
X173200000Y-89400000D01*
D48*
X214181697Y-73826465D02*
X213971697Y-73616465D01*
D46*
X167700498Y-91800000D02*
X168600000Y-91800000D01*
X134300000Y-84600000D02*
X134900000Y-84000000D01*
D45*
X203265000Y-64517500D02*
X204152500Y-64517500D01*
D46*
X134400000Y-96600000D02*
X133900000Y-96600000D01*
X168650500Y-87800000D02*
X168700000Y-87849500D01*
D45*
X122777711Y-77900000D02*
X121822288Y-77900000D01*
D46*
X171372500Y-97800000D02*
X171700000Y-97472500D01*
X134600000Y-91950000D02*
X134600000Y-92400000D01*
D45*
X121232500Y-105405000D02*
X120655000Y-105405000D01*
X120650000Y-114300000D02*
X120972500Y-113977500D01*
D46*
X167100000Y-86200000D02*
X167799502Y-86200000D01*
X136430000Y-79800000D02*
X136100000Y-80130000D01*
X173200000Y-89400000D02*
X170900249Y-89400000D01*
X136200000Y-90269022D02*
X136530978Y-90600000D01*
X134300000Y-89400000D02*
X134500000Y-89200000D01*
X133900000Y-83400000D02*
X134300000Y-83400000D01*
X134300000Y-83400000D02*
X134900000Y-84000000D01*
X136430000Y-93000000D02*
X136980000Y-93000000D01*
X167799502Y-87800000D02*
X168650500Y-87800000D01*
X136400000Y-96600000D02*
X136980000Y-96600000D01*
X134600000Y-92850000D02*
X134600000Y-92400000D01*
X133900000Y-95400000D02*
X134400000Y-95400000D01*
X217251697Y-77003965D02*
X217251697Y-78516465D01*
X217251697Y-78516465D02*
X217001697Y-78766465D01*
D45*
X130472500Y-93980000D02*
X131147500Y-93980000D01*
D46*
X167327500Y-97800000D02*
X167000000Y-97472500D01*
D45*
X123502923Y-76835000D02*
X123957500Y-76835000D01*
D46*
X133900000Y-88200000D02*
X133350000Y-88200000D01*
D45*
X205422500Y-69467500D02*
X205422500Y-71120000D01*
D46*
X167799502Y-83400000D02*
X167000000Y-83400000D01*
X136980000Y-85800000D02*
X135500000Y-85800000D01*
X136100000Y-80670000D02*
X136100000Y-80400000D01*
X167799502Y-85000000D02*
X167000000Y-85000000D01*
D45*
X205422500Y-71120000D02*
X204787500Y-71755000D01*
D46*
X134450000Y-94200000D02*
X134600000Y-94350000D01*
D48*
X214181697Y-74741465D02*
X214181697Y-73826465D01*
D46*
X136200000Y-92400000D02*
X136200000Y-92130978D01*
X133900000Y-94200000D02*
X134450000Y-94200000D01*
X136300000Y-96655000D02*
X136300000Y-95630978D01*
X133900000Y-78600000D02*
X135500000Y-78600000D01*
X136345000Y-96655000D02*
X136400000Y-96600000D01*
X136980000Y-82200000D02*
X135500000Y-82200000D01*
X133900000Y-82200000D02*
X135500000Y-82200000D01*
D45*
X204787500Y-73025000D02*
X204787500Y-71755000D01*
D46*
X136980000Y-81000000D02*
X136430000Y-81000000D01*
X133900000Y-91800000D02*
X134450000Y-91800000D01*
X136430000Y-87000000D02*
X136200000Y-87230000D01*
D45*
X119351250Y-88900000D02*
X119151250Y-89100000D01*
D46*
X134400000Y-95400000D02*
X134600000Y-95600000D01*
D45*
X119151250Y-89100000D02*
X118700000Y-89100000D01*
D46*
X136600000Y-83400000D02*
X136000000Y-84000000D01*
X136980000Y-83400000D02*
X136600000Y-83400000D01*
D45*
X119962500Y-102547500D02*
X119385000Y-102547500D01*
D46*
X136200000Y-87600000D02*
X136200000Y-90269022D01*
X167000000Y-86300000D02*
X167100000Y-86200000D01*
X133900000Y-89400000D02*
X134300000Y-89400000D01*
X167799502Y-96600000D02*
X167000000Y-96600000D01*
X136980000Y-94200000D02*
X136430000Y-94200000D01*
X168599502Y-93800000D02*
X168000000Y-93800000D01*
X167799502Y-95400000D02*
X167000000Y-95400000D01*
X217251697Y-75078965D02*
X217251697Y-73566465D01*
X133900000Y-93000000D02*
X134450000Y-93000000D01*
D45*
X164782500Y-120967500D02*
X161290000Y-117475000D01*
X161290000Y-117475000D02*
X160972500Y-117157500D01*
X160972500Y-117157500D02*
X160972500Y-83502500D01*
X164782500Y-123502500D02*
X164782500Y-120967500D01*
X121920000Y-80710000D02*
X121920000Y-82550000D01*
X160020000Y-117157500D02*
X160020000Y-115887500D01*
X162242500Y-119380000D02*
X160972500Y-118110000D01*
X160972500Y-118110000D02*
X160020000Y-117157500D01*
X162242500Y-123502500D02*
X162242500Y-119380000D01*
X124460000Y-80710000D02*
X124460000Y-82550000D01*
X160020000Y-115887500D02*
X160020000Y-82867500D01*
X123825000Y-92075000D02*
X123825000Y-95567500D01*
D46*
X166400000Y-92800000D02*
X166600000Y-92600000D01*
X166600000Y-92600000D02*
X167820000Y-92600000D01*
X166400000Y-109400000D02*
X166400000Y-92800000D01*
D45*
X124460000Y-91440000D02*
X123825000Y-92075000D01*
D46*
X167000000Y-110000000D02*
X166400000Y-109400000D01*
D45*
X112077500Y-79659179D02*
X110848792Y-78430471D01*
X180340000Y-111760000D02*
X178435000Y-111760000D01*
X124497500Y-96240000D02*
X123825000Y-95567500D01*
X124497500Y-96832500D02*
X124497500Y-96240000D01*
X112077500Y-89852500D02*
X112077500Y-79659179D01*
X120589651Y-87400000D02*
X120300000Y-87400000D01*
D46*
X171449511Y-91900489D02*
X171349022Y-91800000D01*
X171349022Y-91800000D02*
X170900000Y-91800000D01*
D45*
X125412500Y-90487500D02*
X125412500Y-91757500D01*
X121300000Y-88110349D02*
X120589651Y-87400000D01*
D46*
X173600000Y-92200000D02*
X171600000Y-92200000D01*
D45*
X125412500Y-91757500D02*
X126365000Y-92710000D01*
X118745000Y-82232500D02*
X118427500Y-81915000D01*
D46*
X173600000Y-92200000D02*
X173600000Y-109000000D01*
D45*
X125797500Y-96202500D02*
X126200000Y-95800000D01*
X121300000Y-90170000D02*
X121300000Y-88110349D01*
X118745000Y-84137500D02*
X118745000Y-82232500D01*
D46*
X171449511Y-92049511D02*
X171449511Y-91900489D01*
D45*
X125797500Y-96832500D02*
X125797500Y-96202500D01*
D46*
X171600000Y-92200000D02*
X171449511Y-92049511D01*
X173600000Y-109000000D02*
X173800000Y-109200000D01*
D45*
X120650000Y-85660000D02*
X120650000Y-86800000D01*
X125782500Y-111130000D02*
X126360000Y-111130000D01*
D46*
X167820000Y-81400000D02*
X167160000Y-81400000D01*
D45*
X206687500Y-73020000D02*
X206692500Y-73025000D01*
X126360000Y-111130000D02*
X126997500Y-111130000D01*
X127635000Y-85725000D02*
X127065000Y-85725000D01*
D46*
X167160000Y-81400000D02*
X167060000Y-81500000D01*
D45*
X127002500Y-96517500D02*
X127635000Y-95885000D01*
X126997500Y-111130000D02*
X127002500Y-111125000D01*
D49*
X114617500Y-120967500D02*
X116205000Y-119380000D01*
D46*
X167820000Y-81000000D02*
X167160000Y-81000000D01*
D49*
X116205000Y-119380000D02*
X116205000Y-117475000D01*
D45*
X127002500Y-95602500D02*
X126600000Y-95200000D01*
X206692500Y-69467500D02*
X206692500Y-71750000D01*
X127002500Y-96837500D02*
X127002500Y-96517500D01*
X125400000Y-95200000D02*
X125147500Y-95452500D01*
D49*
X113665000Y-120967500D02*
X115252500Y-119380000D01*
D45*
X206692500Y-71750000D02*
X206687500Y-71755000D01*
X127065000Y-85725000D02*
X127000000Y-85660000D01*
X125730000Y-93915000D02*
X124460000Y-93915000D01*
X128592500Y-85725000D02*
X127635000Y-85725000D01*
X123190000Y-85660000D02*
X123190000Y-86995000D01*
X126360000Y-119702500D02*
X126997500Y-119702500D01*
X127000000Y-93915000D02*
X125730000Y-93915000D01*
X127000000Y-85660000D02*
X125730000Y-85660000D01*
X127002500Y-96837500D02*
X127002500Y-95602500D01*
X206687500Y-71755000D02*
X206687500Y-73020000D01*
X127065000Y-93980000D02*
X127000000Y-93915000D01*
D49*
X115252500Y-119380000D02*
X115252500Y-117475000D01*
D45*
X125782500Y-119702500D02*
X126360000Y-119702500D01*
X125147500Y-95452500D02*
X125147500Y-96832500D01*
D46*
X167160000Y-81000000D02*
X167060000Y-80900000D01*
D45*
X126600000Y-95200000D02*
X125400000Y-95200000D01*
X126997500Y-119702500D02*
X127002500Y-119697500D01*
X127635000Y-93980000D02*
X127065000Y-93980000D01*
X128592500Y-93980000D02*
X127635000Y-93980000D01*
X171132500Y-124777500D02*
X172402500Y-126047500D01*
X162560000Y-116840000D02*
X165735000Y-120015000D01*
X124010480Y-103690480D02*
X124142500Y-103822500D01*
X123197500Y-102557500D02*
X123197500Y-103245361D01*
X169862500Y-120015000D02*
X171132500Y-121285000D01*
X123642619Y-103690480D02*
X124010480Y-103690480D01*
X165735000Y-120015000D02*
X169862500Y-120015000D01*
X162560000Y-106680000D02*
X162560000Y-116840000D01*
X123197500Y-103245361D02*
X123642619Y-103690480D01*
X171132500Y-121285000D02*
X171132500Y-124777500D01*
D47*
X172402500Y-132397500D02*
X172402500Y-126042500D01*
D46*
X171600000Y-82200000D02*
X171700000Y-82100000D01*
D45*
X127002500Y-102872500D02*
X127635000Y-103505000D01*
D46*
X170900000Y-82200000D02*
X171600000Y-82200000D01*
D48*
X214181697Y-77341465D02*
X212958535Y-77341465D01*
X212958535Y-77341465D02*
X212600000Y-77700000D01*
D45*
X125521659Y-103619520D02*
X127520480Y-103619520D01*
D46*
X170900000Y-81400000D02*
X171500000Y-81400000D01*
D45*
X127002500Y-102552500D02*
X127002500Y-102872500D01*
X127520480Y-103619520D02*
X127635000Y-103505000D01*
D46*
X170900000Y-80600000D02*
X171700000Y-80600000D01*
D45*
X125147500Y-102557500D02*
X125147500Y-103245361D01*
X125147500Y-103245361D02*
X125521659Y-103619520D01*
D46*
X171700000Y-82600000D02*
X171700000Y-82100000D01*
X170900000Y-81000000D02*
X171600000Y-81000000D01*
X170900000Y-82600000D02*
X171700000Y-82600000D01*
X171700000Y-82100000D02*
X171700000Y-81600000D01*
X171500000Y-81400000D02*
X171700000Y-81600000D01*
X171600000Y-81000000D02*
X171700000Y-81100000D01*
X171500000Y-81800000D02*
X171700000Y-81600000D01*
X170900000Y-81800000D02*
X171500000Y-81800000D01*
X171700000Y-81600000D02*
X171700000Y-80600000D01*
D45*
X121600000Y-76113524D02*
X123955000Y-76113524D01*
D46*
X173600000Y-91200000D02*
X174500000Y-90300000D01*
D45*
X119380000Y-90611072D02*
X117792500Y-89023572D01*
D46*
X174500000Y-90300000D02*
X174500000Y-70520978D01*
D45*
X117792500Y-69215000D02*
X117792500Y-86042500D01*
D46*
X174500000Y-70520978D02*
X178980978Y-66040000D01*
D45*
X119380000Y-93915000D02*
X119380000Y-90611072D01*
D46*
X178980978Y-66040000D02*
X180340000Y-66040000D01*
D45*
X117792500Y-89023572D02*
X117792500Y-86042500D01*
D46*
X171724066Y-91100480D02*
X171823586Y-91200000D01*
X171700480Y-91100480D02*
X171724066Y-91100480D01*
X170900000Y-91000000D02*
X171600000Y-91000000D01*
X171823586Y-91200000D02*
X173600000Y-91200000D01*
X171600000Y-91000000D02*
X171700480Y-91100480D01*
D45*
X118427500Y-87312500D02*
X119380000Y-87312500D01*
D46*
X162600000Y-62587500D02*
X162560000Y-62547500D01*
D45*
X119380000Y-87312500D02*
X120650000Y-88582500D01*
D46*
X162627500Y-90872500D02*
X162600000Y-90845000D01*
X162755000Y-91000000D02*
X162627500Y-90872500D01*
X167820000Y-91000000D02*
X165800000Y-91000000D01*
X165800000Y-91000000D02*
X165700000Y-90900000D01*
D45*
X120650000Y-88582500D02*
X120650000Y-88965000D01*
D46*
X162600000Y-90845000D02*
X162600000Y-62587500D01*
D45*
X130810000Y-104458218D02*
X130810000Y-120967500D01*
X120597500Y-102557500D02*
X120597500Y-101017500D01*
X120597500Y-101017500D02*
X120650000Y-100965000D01*
X133032500Y-99498489D02*
X133032500Y-102235718D01*
X130810000Y-120967500D02*
X129222500Y-122555000D01*
X133032500Y-102235718D02*
X130810000Y-104458218D01*
X129222500Y-122555000D02*
X129222500Y-123502500D01*
X157162500Y-123502500D02*
X157162500Y-119583000D01*
X159702500Y-123502500D02*
X159702500Y-118833500D01*
X119947500Y-95952500D02*
X120332500Y-95567500D01*
X128270000Y-80645000D02*
X127635000Y-80645000D01*
X176800000Y-78200000D02*
X176795000Y-78195000D01*
X127635000Y-80645000D02*
X127065000Y-80645000D01*
X120332500Y-95567500D02*
X121913572Y-95567500D01*
X129857500Y-79057500D02*
X128270000Y-80645000D01*
D46*
X165000000Y-79600000D02*
X165000000Y-86129511D01*
D45*
X127000000Y-81915000D02*
X127000000Y-80710000D01*
X121913572Y-95567500D02*
X122544520Y-94936552D01*
D46*
X163200000Y-77800000D02*
X165000000Y-79600000D01*
D45*
X119947500Y-96832500D02*
X119947500Y-95952500D01*
D46*
X167470489Y-88600000D02*
X167820000Y-88600000D01*
D45*
X128627500Y-80645000D02*
X127635000Y-80645000D01*
X176795000Y-78195000D02*
X176795000Y-78105000D01*
X119062500Y-100012500D02*
X119947500Y-99127500D01*
X127065000Y-80645000D02*
X127000000Y-80710000D01*
D46*
X165000000Y-86129511D02*
X167470489Y-88600000D01*
D45*
X119947500Y-99127500D02*
X119947500Y-96832500D01*
X176795000Y-78105000D02*
X177400000Y-77500000D01*
X122544520Y-92526552D02*
X125084520Y-89986552D01*
X177400000Y-77500000D02*
X184100000Y-77500000D01*
X122544520Y-94936552D02*
X122544520Y-92526552D01*
X125095000Y-83820000D02*
X127000000Y-81915000D01*
X125084520Y-89986552D02*
X125084520Y-83820000D01*
D46*
X167820000Y-89000000D02*
X167100000Y-89000000D01*
X144200000Y-87500000D02*
X144200000Y-95800000D01*
X167100000Y-89000000D02*
X165900000Y-87800000D01*
D45*
X144200000Y-101400000D02*
X144200000Y-95800000D01*
X122582003Y-96832500D02*
X122582003Y-95711535D01*
X122582003Y-95711535D02*
X122640519Y-95653019D01*
D46*
X169200000Y-97850000D02*
X169900480Y-97149520D01*
D45*
X121867500Y-98332500D02*
X121867500Y-98067500D01*
X120421002Y-99579291D02*
X120620709Y-99579291D01*
D46*
X169200000Y-99200000D02*
X169200000Y-97850000D01*
D45*
X122400000Y-98200000D02*
X122000000Y-98200000D01*
D46*
X169400000Y-99400000D02*
X169200000Y-99200000D01*
X170427392Y-88600000D02*
X170900000Y-88600000D01*
X169900480Y-89126912D02*
X170427392Y-88600000D01*
D45*
X120620709Y-99579291D02*
X121867500Y-98332500D01*
X122000000Y-98200000D02*
X121867500Y-98067500D01*
D46*
X169900480Y-97149520D02*
X169900480Y-89126912D01*
D45*
X121867500Y-98067500D02*
X121867500Y-96832500D01*
X120887971Y-98682011D02*
X121247500Y-98322482D01*
X120650000Y-98807003D02*
X120774992Y-98682011D01*
X121247500Y-98322482D02*
X121247500Y-96832500D01*
X120774992Y-98682011D02*
X120887971Y-98682011D01*
D46*
X170200000Y-97707500D02*
X170200000Y-89250978D01*
X170200000Y-89250978D02*
X170450978Y-89000000D01*
X169800000Y-98107500D02*
X170200000Y-97707500D01*
X170450978Y-89000000D02*
X170900000Y-89000000D01*
D45*
X115252500Y-97155000D02*
X115252500Y-95534179D01*
D46*
X173500000Y-89800000D02*
X170900000Y-89800000D01*
X173900000Y-89400000D02*
X173500000Y-89800000D01*
D45*
X133000000Y-89500000D02*
X133000000Y-96800000D01*
X120597500Y-96832500D02*
X120597500Y-98055000D01*
X120597500Y-98055000D02*
X120650000Y-98107500D01*
X115252500Y-95534179D02*
X113388792Y-93670471D01*
X122555000Y-102550000D02*
X122547500Y-102557500D01*
X173037500Y-100012500D02*
X173037500Y-114617500D01*
X173037500Y-114617500D02*
X175577500Y-117157500D01*
X122555000Y-100647500D02*
X122555000Y-102550000D01*
X128905000Y-91122500D02*
X127000000Y-91122500D01*
X184562989Y-115982989D02*
X184467500Y-115887500D01*
X130492500Y-103187500D02*
X130492500Y-96202500D01*
X125730000Y-89852500D02*
X125730000Y-88965000D01*
X130492500Y-96202500D02*
X129540000Y-95250000D01*
X129540000Y-95250000D02*
X129540000Y-91757500D01*
X127000000Y-91122500D02*
X125730000Y-89852500D01*
X121897500Y-103543000D02*
X121897500Y-102557500D01*
X129540000Y-91757500D02*
X128905000Y-91122500D01*
X184467500Y-115887500D02*
X184467500Y-105410000D01*
X121920000Y-103565500D02*
X121897500Y-103543000D01*
X187007500Y-116522500D02*
X185102500Y-114617500D01*
X121285000Y-101282500D02*
X121247500Y-101320000D01*
X121247500Y-101320000D02*
X121247500Y-102557500D01*
X187007500Y-118427500D02*
X187007500Y-116522500D01*
X185102500Y-114617500D02*
X185102500Y-102870000D01*
D47*
X195262500Y-132397500D02*
X195262500Y-126042500D01*
D45*
X123190000Y-96152139D02*
X123190000Y-96832500D01*
X123190000Y-98742500D02*
X123197500Y-98735000D01*
X123197500Y-98735000D02*
X123197500Y-96832500D01*
X131762500Y-89062500D02*
X131762500Y-98742500D01*
D46*
X168200000Y-88200000D02*
X168800000Y-88800000D01*
X168800000Y-88800000D02*
X168800000Y-89000000D01*
D45*
X131700000Y-89000000D02*
X131762500Y-89062500D01*
D46*
X167820000Y-88200000D02*
X168200000Y-88200000D01*
D45*
X161607500Y-116840000D02*
X161607500Y-88900000D01*
X166052500Y-120650000D02*
X165417500Y-120650000D01*
X127665000Y-88300000D02*
X127000000Y-88965000D01*
X168592500Y-124777500D02*
X168592500Y-123111490D01*
X166131010Y-120650000D02*
X166052500Y-120650000D01*
D47*
X169862500Y-132400000D02*
X169862500Y-126045000D01*
D45*
X165417500Y-120650000D02*
X161607500Y-116840000D01*
X169862500Y-126047500D02*
X168592500Y-124777500D01*
X168592500Y-123111490D02*
X166131010Y-120650000D01*
X127900000Y-88300000D02*
X127665000Y-88300000D01*
D47*
X167322500Y-132397500D02*
X167322500Y-126042500D01*
X164782500Y-132397500D02*
X164782500Y-126042500D01*
X162242500Y-132397500D02*
X162242500Y-126042500D01*
X159702500Y-132397500D02*
X159702500Y-126042500D01*
X157162500Y-132397500D02*
X157162500Y-126042500D01*
X154622500Y-132397500D02*
X154622500Y-126042500D01*
X152082500Y-132397500D02*
X152082500Y-126042500D01*
X149542500Y-132397500D02*
X149542500Y-126042500D01*
X147002500Y-132397500D02*
X147002500Y-126042500D01*
X144462500Y-132397500D02*
X144462500Y-126042500D01*
D46*
X171950000Y-88800000D02*
X171350000Y-88200000D01*
D45*
X206809050Y-115582931D02*
X202986119Y-111760000D01*
D46*
X171350000Y-88200000D02*
X170900000Y-88200000D01*
X175000000Y-88300000D02*
X175000000Y-107600000D01*
X172800000Y-88800000D02*
X171950000Y-88800000D01*
D45*
X202986119Y-111760000D02*
X198120000Y-111760000D01*
D46*
X167820000Y-93000000D02*
X168600000Y-93000000D01*
X175600000Y-91500000D02*
X175600000Y-79500000D01*
D45*
X209349050Y-115582931D02*
X208392490Y-115582931D01*
X208392490Y-115582931D02*
X202029559Y-109220000D01*
X175700000Y-72200000D02*
X175700000Y-79497500D01*
X202029559Y-109220000D02*
X198120000Y-109220000D01*
D46*
X175600000Y-79500000D02*
X175700000Y-79400000D01*
D45*
X194945000Y-82867500D02*
X194945000Y-106045000D01*
X194945000Y-106045000D02*
X198120000Y-109220000D01*
D46*
X171700000Y-92900000D02*
X171800000Y-92800000D01*
D45*
X211889050Y-115582931D02*
X211889050Y-112829050D01*
X196215000Y-104140000D02*
X198120000Y-104140000D01*
D46*
X170900000Y-93000000D02*
X171600000Y-93000000D01*
D45*
X195580000Y-92720000D02*
X195580000Y-103505000D01*
D46*
X171900000Y-92700000D02*
X173000000Y-92700000D01*
D45*
X195500000Y-69700000D02*
X195580000Y-69780000D01*
D46*
X171600000Y-93000000D02*
X171700000Y-92900000D01*
D45*
X201295000Y-104140000D02*
X198120000Y-104140000D01*
X202562679Y-105407679D02*
X201295000Y-104140000D01*
X195580000Y-103505000D02*
X196215000Y-104140000D01*
D46*
X171800000Y-92800000D02*
X171900000Y-92700000D01*
D45*
X195580000Y-69780000D02*
X195580000Y-92720000D01*
X204467679Y-105407679D02*
X202562679Y-105407679D01*
X211889050Y-112829050D02*
X204467679Y-105407679D01*
X125782500Y-105357500D02*
X126365000Y-104775000D01*
X112110821Y-74612500D02*
X110848792Y-73350471D01*
X135700000Y-87100000D02*
X135700000Y-104647500D01*
X125787500Y-113982500D02*
X126365000Y-113982500D01*
X115570000Y-74612500D02*
X112110821Y-74612500D01*
D46*
X162200000Y-87400000D02*
X162000000Y-87200000D01*
D45*
X135700000Y-104647500D02*
X135572500Y-104775000D01*
D46*
X162200000Y-93400000D02*
X162000000Y-93200000D01*
X167820000Y-93400000D02*
X167000000Y-93400000D01*
D45*
X115887500Y-74930000D02*
X115570000Y-74612500D01*
D46*
X162200000Y-89200000D02*
X162200000Y-87400000D01*
X162000000Y-89400000D02*
X162200000Y-89200000D01*
X162000000Y-93200000D02*
X162000000Y-89400000D01*
D45*
X115887500Y-113347500D02*
X115887500Y-74930000D01*
X125782500Y-105405000D02*
X125782500Y-105357500D01*
X127952500Y-106680000D02*
X127952500Y-116840000D01*
X127952500Y-116840000D02*
X127000000Y-117792500D01*
X132080000Y-82232500D02*
X132397500Y-82550000D01*
X132397500Y-102235000D02*
X127952500Y-106680000D01*
X125132500Y-110135000D02*
X125132500Y-111130000D01*
X125730000Y-82232500D02*
X125730000Y-80710000D01*
X125132500Y-118707500D02*
X125132500Y-119702500D01*
X127952500Y-109537500D02*
X125730000Y-109537500D01*
X126047500Y-117792500D02*
X125132500Y-118707500D01*
X125730000Y-109537500D02*
X125132500Y-110135000D01*
X132397500Y-82550000D02*
X132397500Y-102235000D01*
X127000000Y-117792500D02*
X126047500Y-117792500D01*
X211100000Y-68925000D02*
X206692500Y-64517500D01*
X209550000Y-69532500D02*
X205422500Y-65405000D01*
X182600000Y-74400000D02*
X180800000Y-76200000D01*
X209550000Y-72390000D02*
X209550000Y-69532500D01*
X205422500Y-65405000D02*
X205422500Y-64517500D01*
X192595314Y-67310000D02*
X186245314Y-73660000D01*
X202882500Y-69393478D02*
X200799022Y-67310000D01*
X186245314Y-73660000D02*
X180340000Y-73660000D01*
X202882500Y-69467500D02*
X202882500Y-69393478D01*
X200799022Y-67310000D02*
X192595314Y-67310000D01*
X202882500Y-71120000D02*
X202247500Y-71120000D01*
X202247500Y-71120000D02*
X201612500Y-70485000D01*
X203200000Y-71120000D02*
X202882500Y-71120000D01*
X196850000Y-69850000D02*
X196532500Y-70167500D01*
X196532500Y-70167500D02*
X196532500Y-71120000D01*
X200977500Y-69850000D02*
X196850000Y-69850000D01*
X204152500Y-69467500D02*
X204152500Y-70167500D01*
X201612500Y-70485000D02*
X200977500Y-69850000D01*
X204152500Y-70167500D02*
X203200000Y-71120000D01*
D46*
X169100000Y-75900000D02*
X169100000Y-85249022D01*
X166200000Y-74200000D02*
X167400000Y-74200000D01*
X170450978Y-86600000D02*
X170900000Y-86600000D01*
X167400000Y-74200000D02*
X169100000Y-75900000D01*
X169100000Y-85249022D02*
X170450978Y-86600000D01*
X169400000Y-84800000D02*
X169400000Y-75500000D01*
X170400000Y-85800000D02*
X170849022Y-85800000D01*
X167400000Y-73500000D02*
X163600000Y-73500000D01*
X169400000Y-84749022D02*
X169400000Y-84800000D01*
X169400000Y-84800000D02*
X170400000Y-85800000D01*
X169400000Y-75500000D02*
X167400000Y-73500000D01*
X165700000Y-84800000D02*
X166700000Y-85800000D01*
X164300000Y-74100000D02*
X165700000Y-75500000D01*
X166700000Y-85800000D02*
X167820000Y-85800000D01*
X165700000Y-75500000D02*
X165700000Y-84800000D01*
X169700000Y-84649022D02*
X170450978Y-85400000D01*
X166200000Y-72400000D02*
X167100000Y-72400000D01*
X167100000Y-72400000D02*
X169700000Y-75000000D01*
X170450978Y-85400000D02*
X170900000Y-85400000D01*
X169700000Y-75000000D02*
X169700000Y-84649022D01*
X170400000Y-84600000D02*
X170900000Y-84600000D01*
X166700000Y-71300000D02*
X170000000Y-74600000D01*
X170000000Y-74600000D02*
X170000000Y-84200000D01*
X170000000Y-84200000D02*
X170400000Y-84600000D01*
X166200000Y-71300000D02*
X166700000Y-71300000D01*
X170300000Y-74100000D02*
X170300000Y-84049022D01*
X170450978Y-84200000D02*
X170900000Y-84200000D01*
X170300000Y-84049022D02*
X170450978Y-84200000D01*
X172400000Y-78700000D02*
X172400000Y-69565000D01*
X172400000Y-69565000D02*
X174700000Y-67265000D01*
X171700000Y-79400000D02*
X172400000Y-78700000D01*
X170900000Y-79400000D02*
X171700000Y-79400000D01*
X137600000Y-97400000D02*
X137850000Y-97650000D01*
X212367618Y-76895466D02*
X211356418Y-76895466D01*
X211137860Y-76700000D02*
X210662140Y-76700000D01*
X137850000Y-97650000D02*
X137950000Y-97750000D01*
D50*
X139300000Y-76500000D02*
X139002400Y-76797600D01*
D46*
X212571619Y-76691465D02*
X212367618Y-76895466D01*
X136930000Y-97400000D02*
X137600000Y-97400000D01*
D50*
X138250000Y-97750000D02*
X137950000Y-97750000D01*
X139002400Y-76797600D02*
X139002400Y-96997600D01*
D46*
X214181697Y-76691465D02*
X212571619Y-76691465D01*
D50*
X139002400Y-96997600D02*
X138250000Y-97750000D01*
D46*
X210676697Y-76691465D02*
X209627280Y-76691465D01*
X211341861Y-76904001D02*
X211137860Y-76700000D01*
D45*
X128585000Y-77925000D02*
X126270000Y-77925000D01*
X126270000Y-77747500D02*
X126232500Y-77785000D01*
D46*
X168370000Y-90600000D02*
X169227500Y-91457500D01*
X168592500Y-103992500D02*
X168800000Y-104200000D01*
X168592500Y-97472500D02*
X168592500Y-103992500D01*
X169227500Y-91457500D02*
X169227500Y-96837500D01*
D45*
X117792500Y-107315000D02*
X117792500Y-92392500D01*
X123190000Y-108267500D02*
X123182500Y-108275000D01*
X138430000Y-104140000D02*
X138430000Y-104457500D01*
D46*
X169227500Y-96837500D02*
X168592500Y-97472500D01*
D45*
X138430000Y-104457500D02*
X135255000Y-107632500D01*
D46*
X167820000Y-90600000D02*
X168370000Y-90600000D01*
D45*
X123182500Y-108275000D02*
X123182500Y-111130000D01*
X138112500Y-102235000D02*
X138112500Y-103505000D01*
D46*
X163800000Y-102000000D02*
X164000000Y-102200000D01*
X166800000Y-89600000D02*
X167000000Y-89400000D01*
D45*
X121232500Y-111130000D02*
X120972500Y-111130000D01*
X132715000Y-108902500D02*
X132715000Y-111760000D01*
X115252500Y-111125000D02*
X115252500Y-98425000D01*
X120972500Y-111130000D02*
X120967500Y-111125000D01*
X114300000Y-97472500D02*
X112110821Y-97472500D01*
X112110821Y-97472500D02*
X110848792Y-96210471D01*
X120967500Y-111125000D02*
X120650000Y-111125000D01*
D46*
X167000000Y-89400000D02*
X167820000Y-89400000D01*
D45*
X138112500Y-103505000D02*
X132715000Y-108902500D01*
X115252500Y-98425000D02*
X114300000Y-97472500D01*
D46*
X163800000Y-89600000D02*
X163800000Y-102000000D01*
D45*
X109537500Y-106997500D02*
X109537500Y-94981763D01*
D46*
X167820000Y-90200000D02*
X168800000Y-90200000D01*
D45*
X120764520Y-104342980D02*
X118745000Y-106362500D01*
X121882500Y-104717139D02*
X121508341Y-104342980D01*
X112077500Y-107632500D02*
X110172500Y-107632500D01*
X121882500Y-105405000D02*
X121882500Y-104717139D01*
X113982500Y-92392500D02*
X112126763Y-92392500D01*
D46*
X168800000Y-90200000D02*
X169600000Y-91000000D01*
D45*
X145415000Y-100647500D02*
X145415000Y-93980000D01*
X109537500Y-94981763D02*
X110848792Y-93670471D01*
X112126763Y-92392500D02*
X110848792Y-93670471D01*
D46*
X169527020Y-96961566D02*
X168900480Y-97588106D01*
X168900480Y-100100480D02*
X169400000Y-100600000D01*
D45*
X115252500Y-93662500D02*
X113982500Y-92392500D01*
X121508341Y-104342980D02*
X120764520Y-104342980D01*
D46*
X168900480Y-97588106D02*
X168900480Y-100100480D01*
X169527020Y-96855480D02*
X169527020Y-96961566D01*
D45*
X110172500Y-107632500D02*
X109537500Y-106997500D01*
D46*
X169600000Y-96782500D02*
X169527020Y-96855480D01*
X169600000Y-91000000D02*
X169600000Y-96782500D01*
X177520000Y-96520000D02*
X180340000Y-96520000D01*
X172200000Y-90200000D02*
X172300000Y-90300000D01*
D45*
X140335000Y-98742500D02*
X140335000Y-90805000D01*
X118427500Y-104140000D02*
X118427500Y-91757500D01*
X122872500Y-104140000D02*
X123507500Y-104140000D01*
X118427500Y-91757500D02*
X117792500Y-91122500D01*
D46*
X176700000Y-95700000D02*
X177520000Y-96520000D01*
D45*
X123507500Y-104140000D02*
X123832500Y-104465000D01*
D46*
X171600000Y-90200000D02*
X172200000Y-90200000D01*
X176700000Y-90700000D02*
X176700000Y-95700000D01*
D45*
X120015000Y-91440000D02*
X120015000Y-91757500D01*
X123832500Y-104465000D02*
X123832500Y-105405000D01*
X120650000Y-90805000D02*
X120015000Y-91440000D01*
D46*
X170900000Y-90200000D02*
X171600000Y-90200000D01*
D45*
X120967500Y-90805000D02*
X120650000Y-90805000D01*
D46*
X173200000Y-90700000D02*
X173100000Y-90600000D01*
X172000000Y-90800000D02*
X171800000Y-90600000D01*
X173100000Y-90800000D02*
X172000000Y-90800000D01*
D45*
X123182500Y-119702500D02*
X123182500Y-119014639D01*
D46*
X171800000Y-90600000D02*
X170900000Y-90600000D01*
D45*
X116522500Y-115887500D02*
X116522500Y-88582500D01*
X123182500Y-119014639D02*
X122277861Y-118110000D01*
D46*
X173200000Y-90700000D02*
X173100000Y-90800000D01*
D45*
X177165000Y-88900000D02*
X176530000Y-88265000D01*
X176530000Y-87947500D02*
X176530000Y-81915000D01*
D46*
X165000000Y-92200000D02*
X164300000Y-91500000D01*
X164300000Y-80500000D02*
X163500000Y-79700000D01*
D45*
X180340000Y-88900000D02*
X177165000Y-88900000D01*
X121232500Y-119702500D02*
X121232500Y-118480000D01*
X176530000Y-88265000D02*
X176530000Y-87947500D01*
X121232500Y-118480000D02*
X121285000Y-118427500D01*
D46*
X164300000Y-91500000D02*
X164300000Y-80500000D01*
D45*
X117157500Y-118427500D02*
X117157500Y-82232500D01*
D46*
X167820000Y-92200000D02*
X165000000Y-92200000D01*
D45*
X112165018Y-115252500D02*
X109855000Y-115252500D01*
X108902500Y-114300000D02*
X108902500Y-85456763D01*
X109855000Y-115252500D02*
X108902500Y-114300000D01*
X108902500Y-85456763D02*
X110848792Y-83510471D01*
X121882500Y-114665361D02*
X121882500Y-113977500D01*
D46*
X165000000Y-90800000D02*
X165000000Y-88400000D01*
X167820000Y-91400000D02*
X165400000Y-91400000D01*
X165400000Y-91400000D02*
X165200000Y-91200000D01*
X165200000Y-91200000D02*
X165000000Y-91000000D01*
D45*
X120332500Y-115252500D02*
X121295361Y-115252500D01*
X121295361Y-115252500D02*
X121882500Y-114665361D01*
D46*
X165000000Y-91000000D02*
X165000000Y-90800000D01*
X167820000Y-87400000D02*
X167200000Y-87400000D01*
D45*
X132080000Y-107120000D02*
X132080000Y-113347500D01*
X135100000Y-104100000D02*
X132080000Y-107120000D01*
D46*
X167200000Y-87400000D02*
X166300000Y-86500000D01*
D45*
X123507002Y-112915480D02*
X123832500Y-113240978D01*
X135100000Y-86500000D02*
X135100000Y-104100000D01*
X123832500Y-113240978D02*
X123832500Y-113977500D01*
X122237500Y-112712500D02*
X122440480Y-112915480D01*
X122440480Y-112915480D02*
X123507002Y-112915480D01*
X122555000Y-83185000D02*
X123190000Y-82550000D01*
X120650000Y-93915000D02*
X120650000Y-92075000D01*
X122555000Y-90170000D02*
X122555000Y-83185000D01*
X123190000Y-82550000D02*
X123190000Y-80710000D01*
X120650000Y-92075000D02*
X122555000Y-90170000D01*
X120650000Y-82867500D02*
X121295480Y-83512980D01*
X121920000Y-87320000D02*
X121920000Y-88965000D01*
X121295480Y-83512980D02*
X121295480Y-86695480D01*
X121295480Y-86695480D02*
X121920000Y-87320000D01*
X120650000Y-80710000D02*
X120650000Y-82867500D01*
X123190000Y-90487500D02*
X121920000Y-91757500D01*
X123190000Y-88965000D02*
X123190000Y-90487500D01*
X121920000Y-91757500D02*
X121920000Y-93915000D01*
X123190000Y-88965000D02*
X124460000Y-88965000D01*
D46*
X210676697Y-75991465D02*
X209612610Y-75991465D01*
D50*
X138100000Y-75868850D02*
X138100000Y-96500000D01*
D46*
X214181697Y-76041465D02*
X212621619Y-76041465D01*
X211341861Y-75795999D02*
X211137860Y-76000000D01*
X137600000Y-97000000D02*
X137850000Y-96750000D01*
X212367618Y-75787464D02*
X211356418Y-75787464D01*
X211137860Y-76000000D02*
X210662140Y-76000000D01*
X212621619Y-76041465D02*
X212367618Y-75787464D01*
X136930000Y-97000000D02*
X137600000Y-97000000D01*
D50*
X138100000Y-96500000D02*
X138000000Y-96600000D01*
D45*
X128585000Y-76100000D02*
X126270000Y-76100000D01*
X126270000Y-75922500D02*
X126232500Y-75885000D01*
M02*
