G04 #@! TF.GenerationSoftware,KiCad,Pcbnew,(6.0.5-0)*
G04 #@! TF.CreationDate,2022-07-12T21:34:34-06:00*
G04 #@! TF.ProjectId,PiGUS,50694755-532e-46b6-9963-61645f706362,rev?*
G04 #@! TF.SameCoordinates,Original*
G04 #@! TF.FileFunction,Paste,Top*
G04 #@! TF.FilePolarity,Positive*
%FSLAX46Y46*%
G04 Gerber Fmt 4.6, Leading zero omitted, Abs format (unit mm)*
G04 Created by KiCad (PCBNEW (6.0.5-0)) date 2022-07-12 21:34:34*
%MOMM*%
%LPD*%
G01*
G04 APERTURE LIST*
G04 Aperture macros list*
%AMRoundRect*
0 Rectangle with rounded corners*
0 $1 Rounding radius*
0 $2 $3 $4 $5 $6 $7 $8 $9 X,Y pos of 4 corners*
0 Add a 4 corners polygon primitive as box body*
4,1,4,$2,$3,$4,$5,$6,$7,$8,$9,$2,$3,0*
0 Add four circle primitives for the rounded corners*
1,1,$1+$1,$2,$3*
1,1,$1+$1,$4,$5*
1,1,$1+$1,$6,$7*
1,1,$1+$1,$8,$9*
0 Add four rect primitives between the rounded corners*
20,1,$1+$1,$2,$3,$4,$5,0*
20,1,$1+$1,$4,$5,$6,$7,0*
20,1,$1+$1,$6,$7,$8,$9,0*
20,1,$1+$1,$8,$9,$2,$3,0*%
G04 Aperture macros list end*
%ADD10R,0.700000X1.750000*%
%ADD11R,1.500000X1.300000*%
%ADD12R,0.800000X1.500000*%
%ADD13R,0.800000X1.400000*%
%ADD14R,1.550000X1.000000*%
%ADD15R,1.000000X1.550000*%
%ADD16RoundRect,0.150000X-0.512500X-0.150000X0.512500X-0.150000X0.512500X0.150000X-0.512500X0.150000X0*%
%ADD17R,0.300000X0.300000*%
%ADD18RoundRect,0.100000X-0.100000X0.637500X-0.100000X-0.637500X0.100000X-0.637500X0.100000X0.637500X0*%
%ADD19RoundRect,0.250000X-0.262500X-0.450000X0.262500X-0.450000X0.262500X0.450000X-0.262500X0.450000X0*%
%ADD20RoundRect,0.250000X0.250000X0.475000X-0.250000X0.475000X-0.250000X-0.475000X0.250000X-0.475000X0*%
%ADD21RoundRect,0.250000X-0.450000X0.262500X-0.450000X-0.262500X0.450000X-0.262500X0.450000X0.262500X0*%
%ADD22RoundRect,0.250000X-0.250000X-0.475000X0.250000X-0.475000X0.250000X0.475000X-0.250000X0.475000X0*%
%ADD23RoundRect,0.150000X-0.150000X0.825000X-0.150000X-0.825000X0.150000X-0.825000X0.150000X0.825000X0*%
%ADD24R,1.750000X0.400000*%
%ADD25R,2.000000X1.300000*%
%ADD26R,1.400000X2.000000*%
%ADD27R,2.500000X1.425000*%
%ADD28R,0.700000X1.825000*%
%ADD29R,0.700000X0.200000*%
%ADD30RoundRect,0.250000X-0.475000X0.250000X-0.475000X-0.250000X0.475000X-0.250000X0.475000X0.250000X0*%
G04 APERTURE END LIST*
D10*
X121325000Y-63650000D03*
X122425000Y-63650000D03*
X123525000Y-63650000D03*
X124625000Y-63650000D03*
X125725000Y-63650000D03*
X126825000Y-63650000D03*
X127925000Y-63650000D03*
X129025000Y-63650000D03*
D11*
X130325000Y-63875000D03*
X118875000Y-63875000D03*
D12*
X130500000Y-71375000D03*
D13*
X118550000Y-72025000D03*
D14*
X130200000Y-72875000D03*
D15*
X118950000Y-74450000D03*
D16*
X123957500Y-76050000D03*
X123957500Y-77000000D03*
X123957500Y-77950000D03*
X126232500Y-77950000D03*
X126232500Y-76050000D03*
D17*
X210676697Y-75991465D03*
X210676697Y-76691465D03*
X211526697Y-76341465D03*
D18*
X125782500Y-113977500D03*
X125132500Y-113977500D03*
X124482500Y-113977500D03*
X123832500Y-113977500D03*
X123182500Y-113977500D03*
X122532500Y-113977500D03*
X121882500Y-113977500D03*
X121232500Y-113977500D03*
X121232500Y-119702500D03*
X121882500Y-119702500D03*
X122532500Y-119702500D03*
X123182500Y-119702500D03*
X123832500Y-119702500D03*
X124482500Y-119702500D03*
X125132500Y-119702500D03*
X125782500Y-119702500D03*
D19*
X128627500Y-80645000D03*
X130452500Y-80645000D03*
D20*
X206687500Y-71755000D03*
X204787500Y-71755000D03*
D21*
X128585000Y-76087500D03*
X128585000Y-77912500D03*
D22*
X127002500Y-102552500D03*
X128902500Y-102552500D03*
D23*
X127000000Y-88965000D03*
X125730000Y-88965000D03*
X124460000Y-88965000D03*
X123190000Y-88965000D03*
X121920000Y-88965000D03*
X120650000Y-88965000D03*
X119380000Y-88965000D03*
X119380000Y-93915000D03*
X120650000Y-93915000D03*
X121920000Y-93915000D03*
X123190000Y-93915000D03*
X124460000Y-93915000D03*
X125730000Y-93915000D03*
X127000000Y-93915000D03*
D22*
X127002500Y-96837500D03*
X128902500Y-96837500D03*
D24*
X214181697Y-77341465D03*
X214181697Y-76691465D03*
X214181697Y-76041465D03*
X214181697Y-75391465D03*
X214181697Y-74741465D03*
D25*
X216071697Y-78766465D03*
D26*
X213941697Y-78891465D03*
D27*
X217251697Y-75078965D03*
D28*
X215301697Y-73053965D03*
D25*
X216071697Y-73316465D03*
D27*
X217251697Y-77003965D03*
D26*
X213941697Y-73141465D03*
D28*
X215301697Y-79028965D03*
D22*
X127002500Y-111125000D03*
X128902500Y-111125000D03*
D18*
X125797500Y-96832500D03*
X125147500Y-96832500D03*
X124497500Y-96832500D03*
X123847500Y-96832500D03*
X123197500Y-96832500D03*
X122547500Y-96832500D03*
X121897500Y-96832500D03*
X121247500Y-96832500D03*
X120597500Y-96832500D03*
X119947500Y-96832500D03*
X119947500Y-102557500D03*
X120597500Y-102557500D03*
X121247500Y-102557500D03*
X121897500Y-102557500D03*
X122547500Y-102557500D03*
X123197500Y-102557500D03*
X123847500Y-102557500D03*
X124497500Y-102557500D03*
X125147500Y-102557500D03*
X125797500Y-102557500D03*
X125782500Y-105405000D03*
X125132500Y-105405000D03*
X124482500Y-105405000D03*
X123832500Y-105405000D03*
X123182500Y-105405000D03*
X122532500Y-105405000D03*
X121882500Y-105405000D03*
X121232500Y-105405000D03*
X121232500Y-111130000D03*
X121882500Y-111130000D03*
X122532500Y-111130000D03*
X123182500Y-111130000D03*
X123832500Y-111130000D03*
X124482500Y-111130000D03*
X125132500Y-111130000D03*
X125782500Y-111130000D03*
D23*
X206692500Y-64517500D03*
X205422500Y-64517500D03*
X204152500Y-64517500D03*
X202882500Y-64517500D03*
X202882500Y-69467500D03*
X204152500Y-69467500D03*
X205422500Y-69467500D03*
X206692500Y-69467500D03*
D22*
X128592500Y-85725000D03*
X130492500Y-85725000D03*
X128592500Y-93980000D03*
X130492500Y-93980000D03*
D29*
X170900000Y-97800000D03*
X167820000Y-97800000D03*
X170900000Y-97400000D03*
X167820000Y-97400000D03*
X170900000Y-97000000D03*
X167820000Y-97000000D03*
X170900000Y-96600000D03*
X167820000Y-96600000D03*
X170900000Y-96200000D03*
X167820000Y-96200000D03*
X170900000Y-95800000D03*
X167820000Y-95800000D03*
X170900000Y-95400000D03*
X167820000Y-95400000D03*
X170900000Y-95000000D03*
X167820000Y-95000000D03*
X170900000Y-94600000D03*
X167820000Y-94600000D03*
X170900000Y-94200000D03*
X167820000Y-94200000D03*
X170900000Y-93800000D03*
X167820000Y-93800000D03*
X170900000Y-93400000D03*
X167820000Y-93400000D03*
X170900000Y-93000000D03*
X167820000Y-93000000D03*
X170900000Y-92600000D03*
X167820000Y-92600000D03*
X170900000Y-92200000D03*
X167820000Y-92200000D03*
X170900000Y-91800000D03*
X167820000Y-91800000D03*
X170900000Y-91400000D03*
X167820000Y-91400000D03*
X170900000Y-91000000D03*
X167820000Y-91000000D03*
X170900000Y-90600000D03*
X167820000Y-90600000D03*
X170900000Y-90200000D03*
X167820000Y-90200000D03*
X170900000Y-89800000D03*
X167820000Y-89800000D03*
X170900000Y-89400000D03*
X167820000Y-89400000D03*
X170900000Y-89000000D03*
X167820000Y-89000000D03*
X170900000Y-88600000D03*
X167820000Y-88600000D03*
X170900000Y-88200000D03*
X167820000Y-88200000D03*
X170900000Y-87800000D03*
X167820000Y-87800000D03*
X170900000Y-87400000D03*
X167820000Y-87400000D03*
X170900000Y-87000000D03*
X167820000Y-87000000D03*
X170900000Y-86600000D03*
X167820000Y-86600000D03*
X170900000Y-86200000D03*
X167820000Y-86200000D03*
X170900000Y-85800000D03*
X167820000Y-85800000D03*
X170900000Y-85400000D03*
X167820000Y-85400000D03*
X170900000Y-85000000D03*
X167820000Y-85000000D03*
X170900000Y-84600000D03*
X167820000Y-84600000D03*
X170900000Y-84200000D03*
X167820000Y-84200000D03*
X170900000Y-83800000D03*
X167820000Y-83800000D03*
X170900000Y-83400000D03*
X167820000Y-83400000D03*
X170900000Y-83000000D03*
X167820000Y-83000000D03*
X170900000Y-82600000D03*
X167820000Y-82600000D03*
X170900000Y-82200000D03*
X167820000Y-82200000D03*
X170900000Y-81800000D03*
X167820000Y-81800000D03*
X170900000Y-81400000D03*
X167820000Y-81400000D03*
X170900000Y-81000000D03*
X167820000Y-81000000D03*
X170900000Y-80600000D03*
X167820000Y-80600000D03*
X170900000Y-80200000D03*
X167820000Y-80200000D03*
X170900000Y-79800000D03*
X167820000Y-79800000D03*
X170900000Y-79400000D03*
X167820000Y-79400000D03*
X170900000Y-79000000D03*
X167820000Y-79000000D03*
X170900000Y-78600000D03*
X167820000Y-78600000D03*
X170900000Y-78200000D03*
X167820000Y-78200000D03*
X136980000Y-97800000D03*
X133900000Y-97800000D03*
X136980000Y-97400000D03*
X133900000Y-97400000D03*
X136980000Y-97000000D03*
X133900000Y-97000000D03*
X136980000Y-96600000D03*
X133900000Y-96600000D03*
X136980000Y-96200000D03*
X133900000Y-96200000D03*
X136980000Y-95800000D03*
X133900000Y-95800000D03*
X136980000Y-95400000D03*
X133900000Y-95400000D03*
X136980000Y-95000000D03*
X133900000Y-95000000D03*
X136980000Y-94600000D03*
X133900000Y-94600000D03*
X136980000Y-94200000D03*
X133900000Y-94200000D03*
X136980000Y-93800000D03*
X133900000Y-93800000D03*
X136980000Y-93400000D03*
X133900000Y-93400000D03*
X136980000Y-93000000D03*
X133900000Y-93000000D03*
X136980000Y-92600000D03*
X133900000Y-92600000D03*
X136980000Y-92200000D03*
X133900000Y-92200000D03*
X136980000Y-91800000D03*
X133900000Y-91800000D03*
X136980000Y-91400000D03*
X133900000Y-91400000D03*
X136980000Y-91000000D03*
X133900000Y-91000000D03*
X136980000Y-90600000D03*
X133900000Y-90600000D03*
X136980000Y-90200000D03*
X133900000Y-90200000D03*
X136980000Y-89800000D03*
X133900000Y-89800000D03*
X136980000Y-89400000D03*
X133900000Y-89400000D03*
X136980000Y-89000000D03*
X133900000Y-89000000D03*
X136980000Y-88600000D03*
X133900000Y-88600000D03*
X136980000Y-88200000D03*
X133900000Y-88200000D03*
X136980000Y-87800000D03*
X133900000Y-87800000D03*
X136980000Y-87400000D03*
X133900000Y-87400000D03*
X136980000Y-87000000D03*
X133900000Y-87000000D03*
X136980000Y-86600000D03*
X133900000Y-86600000D03*
X136980000Y-86200000D03*
X133900000Y-86200000D03*
X136980000Y-85800000D03*
X133900000Y-85800000D03*
X136980000Y-85400000D03*
X133900000Y-85400000D03*
X136980000Y-85000000D03*
X133900000Y-85000000D03*
X136980000Y-84600000D03*
X133900000Y-84600000D03*
X136980000Y-84200000D03*
X133900000Y-84200000D03*
X136980000Y-83800000D03*
X133900000Y-83800000D03*
X136980000Y-83400000D03*
X133900000Y-83400000D03*
X136980000Y-83000000D03*
X133900000Y-83000000D03*
X136980000Y-82600000D03*
X133900000Y-82600000D03*
X136980000Y-82200000D03*
X133900000Y-82200000D03*
X136980000Y-81800000D03*
X133900000Y-81800000D03*
X136980000Y-81400000D03*
X133900000Y-81400000D03*
X136980000Y-81000000D03*
X133900000Y-81000000D03*
X136980000Y-80600000D03*
X133900000Y-80600000D03*
X136980000Y-80200000D03*
X133900000Y-80200000D03*
X136980000Y-79800000D03*
X133900000Y-79800000D03*
X136980000Y-79400000D03*
X133900000Y-79400000D03*
X136980000Y-79000000D03*
X133900000Y-79000000D03*
X136980000Y-78600000D03*
X133900000Y-78600000D03*
X136980000Y-78200000D03*
X133900000Y-78200000D03*
D23*
X127000000Y-80710000D03*
X125730000Y-80710000D03*
X124460000Y-80710000D03*
X123190000Y-80710000D03*
X121920000Y-80710000D03*
X120650000Y-80710000D03*
X119380000Y-80710000D03*
X119380000Y-85660000D03*
X120650000Y-85660000D03*
X121920000Y-85660000D03*
X123190000Y-85660000D03*
X124460000Y-85660000D03*
X125730000Y-85660000D03*
X127000000Y-85660000D03*
D30*
X121700000Y-76050000D03*
X121700000Y-77950000D03*
D22*
X127002500Y-119697500D03*
X128902500Y-119697500D03*
M02*
